<?xml version="1.0" encoding="UTF-8"?>
<svg xmlns="http://www.w3.org/2000/svg" width="834.116" height="734.423" version="1.1">
<title>1.35 Участок перекрестка</title>
<defs>
<pattern id="pattern" patternUnits="userSpaceOnUse" x="375.747" y="559.592" width="82.623" height="47.702">
<path style="fill:none;stroke:#000000;stroke-width:2.9px;" d="m 6.886,0 l 34.426,19.876 l 34.426,-19.876 l -34.426,-19.876 z m 41.312,23.851 l 34.426,19.876 l 34.426,-19.876 l -34.426,-19.876 z m -41.312,23.851 l 34.426,19.876 l 34.426,-19.876 l -34.426,-19.876 z m -41.312,-23.851 l 34.426,19.876 l 34.426,-19.876 l -34.426,-19.876 z"/>
</pattern>
</defs>
<path style="fill:#ffffff;" d="m 0,689.423 c 0,24.853 20.147,45 45,45 l 744.116,0 c 24.853,0 45,-20.147 45,-45 c 0,-7.899 -2.079,-15.659 -6.029,-22.5 l -372.058,-644.423 c -8.038,-13.923 -22.894,-22.5 -38.971,-22.5 c -16.077,0 -30.933,8.577 -38.971,22.5 l -372.058,644.423 c -3.950,6.841 -6.029,14.601 -6.029,22.5 z"/>
<path style="fill:none;stroke:#000000;stroke-width:2px;" d="m 1,689.423 c 0,24.301 19.699,44 44,44 l 744.116,0 c 24.301,0 44,-19.699 44,-44 c 0,-7.724 -2.033,-15.311 -5.895,-22.0 l -372.058,-644.423 c -7.860,-13.614 -22.385,-22.0 -38.105,-22.0 c -15.720,0 -30.245,8.386 -38.105,22.0 l -372.058,644.423 c -3.862,6.689 -5.895,14.276 -5.895,22.0 z"/>
<path style="fill:#ff0000;" d="m 10,689.423 c 0,19.330 15.670,35 35,35 l 744.116,0 c 19.330,0 35,-15.670 35,-35 c 0,-6.144 -1.617,-12.179 -4.689,-17.5 l -372.058,-644.423 c -6.252,-10.829 -17.807,-17.5 -30.311,-17.5 c -12.504,0 -24.059,6.671 -30.311,17.5 l -372.058,644.423 c -3.072,5.321 -4.689,11.357 -4.689,17.5 z m 83.634,-33.852 c 0,-1.755 0.462,-3.480 1.340,-5.000 l 313.424,-542.866 c 1.786,-3.094 5.087,-5 8.660,-5.000 c 3.573,0 6.873,1.906 8.660,5.000 l 313.424,542.866 c 0.878,1.520 1.340,3.245 1.340,5.000 c 0,5.523 -4.477,10 -10,10 l -626.848,0 c -5.523,0 -10,-4.477 -10,-10 z"/>
<rect style="fill:url(#pattern);stroke:#000000;stroke-width:5.85px;" x="233.453" y="447.539" width="367.211" height="195.081" />
<path style="fill:#000000;" d="m 291.199,476.782 c 0,8.178 6.629,14.807 14.807,14.807 l 222.104,0 c 8.178,0 14.807,-6.629 14.807,-14.807 l 0,-59.228 c 0,-8.178 -6.629,-14.807 -14.807,-14.807 l -23.771,-71.313 c -2.015,-6.046 -7.674,-10.125 -14.047,-10.125 l -146.467,0 c -6.373,0 -12.032,4.078 -14.047,10.125 l -23.771,71.313 c -8.178,0 -14.807,6.629 -14.807,14.807 z m 30.415,-74.035 l 21.198,-63.594 c 0.605,-1.814 2.302,-3.037 4.214,-3.037 l 140.064,0 c 1.912,0 3.609,1.223 4.214,3.037 l 21.198,63.594 z"/>
<path style="fill:#000000;" d="m 483.689,498.993 l 0,29.614 c 0,12.266 9.944,22.210 22.210,22.210 c 12.266,0 22.210,-9.944 22.210,-22.210 l 0,-29.614 z"/>
<path style="fill:#000000;" d="m 306.006,498.993 l 0,29.614 c 0,12.266 9.944,22.210 22.210,22.210 c 12.266,0 22.210,-9.944 22.210,-22.210 l 0,-29.614 z"/>
</svg>