<?xml version="1.0" encoding="UTF-8"?>
<svg xmlns="http://www.w3.org/2000/svg" width="1082.532" height="1160.086" version="1.1">
<title>1.3.2 Многопутная железная дорога</title>
<path style="fill:#ffffff;" d="m 0,661.603 l 136.603,36.603 l 404.663,-233.632 l 404.663,233.632 l 136.603,-36.603 l -36.603,-136.603 l -304.663,-175.897 l 304.663,-175.897 l 36.603,-136.603 l -136.603,-36.603 l -404.663,233.632 l -404.663,-233.632 l -136.603,36.603 l 36.603,136.603 l 304.663,175.897 l -304.663,175.897 z"/>
<path style="fill:none;stroke:#000000;stroke-width:2px;" d="m 1.225,660.896 l 135.236,36.237 l 404.805,-233.714 l 404.805,233.714 l 135.236,-36.237 l -36.237,-135.236 l -305.806,-176.557 l 305.806,-176.557 l 36.237,-135.236 l -135.236,-36.237 l -404.805,233.714 l -404.805,-233.714 l -135.236,36.237 l 36.237,135.236 l 305.806,176.557 l -305.806,176.557 z"/>
<path style="fill:#ff0000;" d="m 12.247,654.532 l 122.942,32.942 l 406.077,-234.449 l 406.077,234.449 l 122.942,-32.942 l -32.942,-122.942 l -316.077,-182.487 l 316.077,-182.487 l 32.942,-122.942 l -122.942,-32.942 l -406.077,234.449 l -406.077,-234.449 l -122.942,32.942 l 32.942,122.942 l 316.077,182.487 l -316.077,182.487 z m 48.99,-28.284 l 18.301,-68.301 l 361.728,-208.844 l -361.728,-208.844 l -18.301,-68.301 l 68.301,-18.301 l 411.728,237.711 l 411.728,-237.711 l 68.301,18.301 l -18.301,68.301 l -361.728,208.844 l 361.728,208.844 l 18.301,68.301 l -68.301,18.301 l -411.728,-237.711 l -411.728,237.711 z"/>
<path style="fill:#ffffff;" d="m 0,1123.483 l 136.603,36.603 l 404.663,-233.632 l 404.663,233.632 l 136.603,-36.603 l -36.603,-136.603 l -504.663,-291.368 l -504.663,291.368 z"/>
<path style="fill:none;stroke:#000000;stroke-width:2px;" d="m 1.225,1122.776 l 135.236,36.237 l 404.805,-233.714 l 404.805,233.714 l 135.236,-36.237 l -36.237,-135.236 l -503.804,-290.873 l -503.804,290.873 z"/>
<path style="fill:#ff0000;" d="m 12.247,1116.412 l 122.942,32.942 l 406.077,-234.449 l 406.077,234.449 l 122.942,-32.942 l -32.942,-122.942 l -496.077,-286.409 l -496.077,286.409 z m 48.99,-28.284 l 18.301,-68.301 l 461.728,-266.579 l 461.728,266.579 l 18.301,68.301 l -68.301,18.301 l -411.728,-237.711 l -411.728,237.711 z"/>
</svg>