<?xml version="1.0" encoding="UTF-8"?>
<svg xmlns="http://www.w3.org/2000/svg" width="700" height="700" version="1.1">
<title>3.27 Остановка запрещена</title>
<circle style="fill:#ffffff;" cx="350" cy="350" r="350"/>
<circle style="fill:none;stroke:#000000;stroke-width:2px;" cx="350" cy="350" r="349"/>
<path style="fill:#ff0000;" d="m 350,690 c 187.777,0 340,-152.223 340,-340 c 0,-187.777 -152.223,-340 -340,-340 c -187.777,0 -340,152.223 -340,340 c 0,187.777 152.223,340 340,340 z m 181.440,-126.740 c -50.638,43.083 -114.954,66.740 -181.440,66.740 c -66.486,0 -130.802,-23.658 -181.440,-66.740 l 181.440,-181.440 z m -394.700,-31.820 c -43.083,-50.638 -66.740,-114.954 -66.740,-181.440 c 0,-66.486 23.658,-130.802 66.740,-181.440 l 181.440,181.440 z m 31.820,-394.700 c 50.638,-43.083 114.954,-66.740 181.440,-66.740 c 66.486,0 130.802,23.658 181.440,66.740 l -181.440,181.440 z m 394.700,31.820 c 43.083,50.638 66.740,114.954 66.740,181.440 c 0,66.486 -23.658,130.802 -66.740,181.440 l -181.440,-181.440 z"/>
<path style="fill:#0d69e1;" d="m 137.488,183.450 c -37.247,47.526 -57.488,106.167 -57.488,166.550 c 0,60.383 20.241,119.023 57.488,166.550 l 166.550,-166.550 z"/>
<path style="fill:#0d69e1;" d="m 183.450,562.512 c 47.526,37.247 106.167,57.488 166.550,57.488 c 60.383,0 119.023,-20.241 166.550,-57.488 l -166.550,-166.550 z"/>
<path style="fill:#0d69e1;" d="m 562.512,516.550 c 37.247,-47.526 57.488,-106.167 57.488,-166.550 c 0,-60.383 -20.241,-119.023 -57.488,-166.550 l -166.550,166.550 z"/>
<path style="fill:#0d69e1;" d="m 516.550,137.488 c -47.526,-37.247 -106.167,-57.488 -166.550,-57.488 c -60.383,0 -119.023,20.241 -166.550,57.488 l 166.550,166.550 z"/>
</svg>