<?xml version="1.0" encoding="UTF-8" standalone="no"?>
<!-- Created with Inkscape (http://www.inkscape.org/) -->

<svg
   xmlns:dc="http://purl.org/dc/elements/1.1/"
   xmlns:cc="http://creativecommons.org/ns#"
   xmlns:rdf="http://www.w3.org/1999/02/22-rdf-syntax-ns#"
   xmlns:svg="http://www.w3.org/2000/svg"
   xmlns="http://www.w3.org/2000/svg"
   xmlns:sodipodi="http://sodipodi.sourceforge.net/DTD/sodipodi-0.dtd"
   xmlns:inkscape="http://www.inkscape.org/namespaces/inkscape"
   width="600"
   height="600"
   id="svg2"
   version="1.1"
   inkscape:version="0.48.4 r9939"
   sodipodi:docname="3.16.svg">
  <title
     id="title3002">3.16 Ограничение минимальной дистанции</title>
  <defs
     id="defs4" />
  <sodipodi:namedview
     id="base"
     pagecolor="#ffffff"
     bordercolor="#666666"
     borderopacity="1.0"
     inkscape:pageopacity="0.0"
     inkscape:pageshadow="2"
     inkscape:zoom="1"
     inkscape:cx="298.9258"
     inkscape:cy="296.89532"
     inkscape:document-units="px"
     inkscape:current-layer="layer1"
     showgrid="false"
     inkscape:window-width="1920"
     inkscape:window-height="1024"
     inkscape:window-x="-4"
     inkscape:window-y="-4"
     inkscape:window-maximized="1" />
  <metadata
     id="metadata7">
    <rdf:RDF>
      <cc:Work
         rdf:about="">
        <dc:format>image/svg+xml</dc:format>
        <dc:type
           rdf:resource="http://purl.org/dc/dcmitype/StillImage" />
        <dc:title>3.16 Ограничение минимальной дистанции</dc:title>
        <cc:license
           rdf:resource="http://creativecommons.org/licenses/by-sa/3.0/" />
        <dc:description>ГОСТ Р 52290-2004
Размеры и пропорции по типоразмеру I</dc:description>
      </cc:Work>
      <cc:License
         rdf:about="http://creativecommons.org/licenses/by-sa/3.0/">
        <cc:permits
           rdf:resource="http://creativecommons.org/ns#Reproduction" />
        <cc:permits
           rdf:resource="http://creativecommons.org/ns#Distribution" />
        <cc:requires
           rdf:resource="http://creativecommons.org/ns#Notice" />
        <cc:requires
           rdf:resource="http://creativecommons.org/ns#Attribution" />
        <cc:permits
           rdf:resource="http://creativecommons.org/ns#DerivativeWorks" />
        <cc:requires
           rdf:resource="http://creativecommons.org/ns#ShareAlike" />
      </cc:License>
    </rdf:RDF>
  </metadata>
  <g
     inkscape:label="Layer 1"
     inkscape:groupmode="layer"
     id="layer1"
     transform="translate(0,-452.36218)">
    <path
       sodipodi:type="arc"
       style="opacity:1;color:#000000;fill:#ffffff;fill-opacity:1;fill-rule:nonzero;stroke:none;stroke-width:1px;marker:none;visibility:visible;display:inline;overflow:visible;enable-background:accumulate"
       id="path5334"
       sodipodi:cx="-87.720657"
       sodipodi:cy="432.25998"
       sodipodi:rx="22.107042"
       sodipodi:ry="29.465372"
       d="m -65.613615,432.25998 c 0,16.27327 -9.89766,29.46537 -22.107042,29.46537 -12.209383,0 -22.107043,-13.1921 -22.107043,-29.46537 0,-16.27328 9.89766,-29.46537 22.107043,-29.46537 12.209382,0 22.107042,13.19209 22.107042,29.46537 z"
       transform="matrix(13.570336,0,0,10.181443,1490.3988,-3648.6681)" />
    <path
       transform="matrix(13.525102,0,0,10.147505,1486.4308,-3633.998)"
       d="m -65.613615,432.25998 c 0,16.27327 -9.89766,29.46537 -22.107042,29.46537 -12.209383,0 -22.107043,-13.1921 -22.107043,-29.46537 0,-16.27328 9.89766,-29.46537 22.107043,-29.46537 12.209382,0 22.107042,13.19209 22.107042,29.46537 z"
       sodipodi:ry="29.465372"
       sodipodi:rx="22.107042"
       sodipodi:cy="432.25998"
       sodipodi:cx="-87.720657"
       id="path3003"
       style="color:#000000;fill:none;stroke:#000000;stroke-width:0.17071831000000001;stroke-miterlimit:4;stroke-opacity:1;stroke-dasharray:none;marker:none;visibility:visible;display:inline;overflow:visible;enable-background:accumulate;opacity:1"
       sodipodi:type="arc" />
    <path
       style="opacity:1;color:#000000;fill:#ff0000;fill-opacity:1;fill-rule:nonzero;stroke:none;stroke-width:1px;marker:none;visibility:visible;display:inline;overflow:visible;enable-background:accumulate"
       d="M 300 10 C 139.83742 10 10 139.83742 10 300 C 10 460.16258 139.83742 590 300 590 C 460.16258 590 590 460.16258 590 300 C 590 139.83742 460.16258 10 300 10 z M 300 59.03125 C 433.0828 59.03125 540.96875 166.91719 540.96875 300 C 540.96875 433.08281 433.0828 540.96875 300 540.96875 C 166.9172 540.96875 59.03125 433.08281 59.03125 300 C 59.03125 166.91719 166.9172 59.03125 300 59.03125 z "
       transform="translate(0,452.36218)"
       id="path4775-9" />
    <path
       inkscape:connector-curvature="0"
       style="opacity:1;color:#000000;fill:#000000;fill-opacity:1;fill-rule:nonzero;stroke:none;stroke-width:1px;marker:none;visibility:visible;display:inline;overflow:visible;enable-background:accumulate"
       d="m 522.12708,687.73508 c -1.16082,0.7779 -2.26467,1.68027 -3.23588,2.72177 l -64.05242,68.67943 c -2.87302,3.08093 -6.71545,5.09919 -10.8871,5.68549 l -98.04435,13.76008 c -9.19791,1.29269 -15.97863,9.25139 -15.81653,18.5383 l 0.60483,34.8992 c 0.28607,8.1929 6.91462,14.70271 15.06049,14.93951 4.602,-22.22559 24.40185,-38.95161 48.11492,-38.95161 27.12432,0 49.1129,21.88027 49.1129,48.87097 l 63.38709,0 c 14.00199,-27.59544 22.64404,-58.37698 24.52621,-90.96774 l -37.13709,0 c -6.41363,0 -11.61291,-5.19927 -11.61291,-11.61291 0,-2.9397 1.11005,-5.77342 3.11492,-7.92338 l 40.61492,-43.54839 c 0.0193,-0.0206 0.0411,-0.04 0.0605,-0.0605 -1.10803,-5.06971 -2.37592,-10.0909 -3.81049,-15.03024 z"
       id="path7930" />
    <path
       id="path7936"
       d="m 393.87104,816.23304 c -22.44765,0 -40.64516,18.19746 -40.64516,40.64516 0,22.4477 18.19751,40.64516 40.64516,40.64516 22.44774,0 40.64518,-18.19746 40.64518,-40.64516 0,-22.4477 -18.19744,-40.64516 -40.64518,-40.64516 z m 0,16.45161 c 13.36171,0 24.19354,10.83182 24.19354,24.19355 0,13.36173 -10.83183,24.19355 -24.19354,24.19355 -13.36171,0 -24.19355,-10.83182 -24.19355,-24.19355 0,-13.36173 10.83184,-24.19355 24.19355,-24.19355 z"
       style="opacity:1;color:#000000;fill:#000000;fill-opacity:1;fill-rule:nonzero;stroke:none;stroke-width:1px;marker:none;visibility:visible;display:inline;overflow:visible;enable-background:accumulate"
       inkscape:connector-curvature="0" />
    <path
       inkscape:connector-curvature="0"
       style="opacity:1;color:#000000;fill:#000000;fill-opacity:1;stroke:none;stroke-width:1px;marker:none;visibility:visible;display:inline;overflow:visible;enable-background:accumulate"
       d="m 78.810554,684.62016 c -1.46079,4.77521 -2.776942,9.61506 -3.931452,14.51612 l 85.312508,0 c 7.14037,0 13.21767,5.19551 14.33467,12.24799 l 5.98791,37.74193 c 1.25413,7.91833 -4.1482,15.34868 -12.06654,16.60283 -0.75109,0.11896 -1.50769,0.18145 -2.26814,0.18145 l -97.076617,0 c 1.88217,32.59076 10.524222,63.3723 24.526209,90.96774 l 23.709678,0 c 0,-26.9907 21.98859,-48.87097 49.11291,-48.87097 24.85413,0 45.39481,18.37752 48.65927,42.21774 l 9.34476,-2.51008 c 5.71819,-1.53218 10.05995,-6.19491 11.18951,-12.00605 l 9.61694,-49.4758 c 1.06924,-5.50073 -0.44336,-11.19255 -4.08266,-15.45363 l -68.0746,-79.71774 c -3.49338,-4.09023 -8.62301,-6.44153 -14.00201,-6.44153 l -80.292346,0 z"
       id="path7947" />
    <path
       id="path7949"
       d="m 166.45169,816.23304 c -22.44771,0 -40.64516,18.19746 -40.64516,40.64516 0,22.4477 18.19745,40.64516 40.64516,40.64516 22.4477,0 40.64516,-18.19746 40.64516,-40.64516 0,-22.4477 -18.19746,-40.64516 -40.64516,-40.64516 z m 0,16.45161 c 13.36172,0 24.19354,10.83182 24.19354,24.19355 0,13.36173 -10.83182,24.19355 -24.19354,24.19355 -13.36173,0 -24.19355,-10.83182 -24.19355,-24.19355 0,-13.36173 10.83182,-24.19355 24.19355,-24.19355 z"
       style="opacity:1;color:#000000;fill:#000000;fill-opacity:1;fill-rule:nonzero;stroke:none;stroke-width:1px;marker:none;visibility:visible;display:inline;overflow:visible;enable-background:accumulate"
       inkscape:connector-curvature="0" />
    <g
       style="font-size:111.97375488000000000px;font-style:normal;font-variant:normal;font-weight:normal;font-stretch:normal;line-height:125%;letter-spacing:-8.41607474999999990px;word-spacing:0px;fill:#000000;fill-opacity:1;stroke:none;font-family:Arial;-inkscape-font-specification:Arial;opacity:1"
       id="text14434">
      <path
         d="m 363.77432,665.26526 11.91908,0 4.37398,-41.33406 16.45708,34.7731 16.34773,-35.31985 4.9754,41.88081 11.70038,0 -6.06889,-58.06452 -12.62985,0 -13.94205,28.92291 -14.98086,-28.92291 -12.46583,0 z"
         style="fill:#000000;font-family:IndorSoft RoadSign Letters;-inkscape-font-specification:IndorSoft RoadSign Letters"
         id="path14601" />
    </g>
    <g
       style="font-size:172.81265259000000000px;font-style:normal;font-variant:normal;font-weight:normal;font-stretch:normal;line-height:125%;letter-spacing:-3.38709664000000020px;word-spacing:0px;opacity:1;fill:#000000;fill-opacity:1;stroke:none;font-family:Arial;-inkscape-font-specification:Arial"
       id="text7949-4">
      <path
         d="m 194.80659,584.21717 44.7579,0 c -6.88006,11.03833 -13.38204,23.43747 -19.50597,37.19744 -6.124,13.76006 -10.50906,27.97371 -13.1552,42.64098 l 18.1451,0 c 3.72978,-17.31343 8.36685,-32.58554 13.91124,-45.81637 5.54427,-13.23074 11.39102,-25.78108 17.54026,-37.65107 l 0,-12.09673 -58.06431,0 z"
         style="fill:#000000;font-family:Russian Road Sign;-inkscape-font-specification:Russian Road Sign"
         id="path15729" />
      <path
         d="m 304.13069,567.28175 c -9.82862,0.25211 -17.69149,4.88918 -23.58862,13.91123 -5.89717,9.02222 -8.92135,20.91733 -9.07255,35.68536 0.1512,14.76812 3.17538,26.66323 9.07255,35.68535 5.89713,9.02215 13.76,13.65922 23.58862,13.91124 9.82854,-0.25201 17.69141,-4.88909 23.58862,-13.91124 5.89709,-9.02213 8.92127,-20.91723 9.07255,-35.68535 -0.15128,-14.08759 -3.17546,-25.78828 -9.07255,-35.10212 -5.89721,-9.31367 -13.76008,-14.14516 -23.58862,-14.49447 z m 0,15.0345 c 4.73784,-0.0719 8.52527,2.66424 11.36229,8.2085 2.83691,5.5444 4.2914,14.32892 4.36346,26.35359 -0.0721,12.02476 -1.52655,20.80928 -4.36346,26.35359 -2.83703,5.54435 -6.62445,8.28051 -11.36229,8.20849 -4.73792,0.072 -8.52535,-2.66414 -11.36228,-8.20849 -2.837,-5.54431 -4.29149,-14.32883 -4.36347,-26.35359 0.072,-12.02467 1.52647,-20.80919 4.36347,-26.35359 2.83694,-5.54426 6.62436,-8.28042 11.36228,-8.2085 z"
         style="fill:#000000;font-family:Russian Road Sign;-inkscape-font-specification:Russian Road Sign"
         id="path15731" />
    </g>
  </g>
</svg>
