<?xml version="1.0" encoding="UTF-8" standalone="no"?>
<!-- Created with Inkscape (http://www.inkscape.org/) -->

<svg
   xmlns:dc="http://purl.org/dc/elements/1.1/"
   xmlns:cc="http://creativecommons.org/ns#"
   xmlns:rdf="http://www.w3.org/1999/02/22-rdf-syntax-ns#"
   xmlns:svg="http://www.w3.org/2000/svg"
   xmlns="http://www.w3.org/2000/svg"
   xmlns:sodipodi="http://sodipodi.sourceforge.net/DTD/sodipodi-0.dtd"
   xmlns:inkscape="http://www.inkscape.org/namespaces/inkscape"
   width="600"
   height="600"
   id="svg2"
   version="1.1"
   inkscape:version="0.48.4 r9939"
   sodipodi:docname="3.25 50.svg">
  <title
     id="title3002">3.25 Конец зоны ограничения максимальной скорости   </title>
  <defs
     id="defs4" />
  <sodipodi:namedview
     id="base"
     pagecolor="#ffffff"
     bordercolor="#666666"
     borderopacity="1.0"
     inkscape:pageopacity="0.0"
     inkscape:pageshadow="2"
     inkscape:zoom="1"
     inkscape:cx="255.90133"
     inkscape:cy="261.07387"
     inkscape:document-units="px"
     inkscape:current-layer="layer1"
     showgrid="false"
     inkscape:window-width="1920"
     inkscape:window-height="1024"
     inkscape:window-x="-4"
     inkscape:window-y="-4"
     inkscape:window-maximized="1"
     inkscape:snap-object-midpoints="true"
     inkscape:snap-center="true" />
  <metadata
     id="metadata7">
    <rdf:RDF>
      <cc:Work
         rdf:about="">
        <dc:format>image/svg+xml</dc:format>
        <dc:type
           rdf:resource="http://purl.org/dc/dcmitype/StillImage" />
        <dc:title>3.25 Конец зоны ограничения максимальной скорости   </dc:title>
        <cc:license
           rdf:resource="http://creativecommons.org/licenses/by-sa/3.0/" />
        <dc:description>ГОСТ Р 52290-2004
Размеры и пропорции по типоразмеру I</dc:description>
      </cc:Work>
      <cc:License
         rdf:about="http://creativecommons.org/licenses/by-sa/3.0/">
        <cc:permits
           rdf:resource="http://creativecommons.org/ns#Reproduction" />
        <cc:permits
           rdf:resource="http://creativecommons.org/ns#Distribution" />
        <cc:requires
           rdf:resource="http://creativecommons.org/ns#Notice" />
        <cc:requires
           rdf:resource="http://creativecommons.org/ns#Attribution" />
        <cc:permits
           rdf:resource="http://creativecommons.org/ns#DerivativeWorks" />
        <cc:requires
           rdf:resource="http://creativecommons.org/ns#ShareAlike" />
      </cc:License>
    </rdf:RDF>
  </metadata>
  <g
     inkscape:label="Layer 1"
     inkscape:groupmode="layer"
     id="layer1"
     transform="translate(0,-452.36218)">
    <path
       sodipodi:type="arc"
       style="opacity:1;color:#000000;fill:#ffffff;fill-opacity:1;fill-rule:nonzero;stroke:none;stroke-width:1px;marker:none;visibility:visible;display:inline;overflow:visible;enable-background:accumulate"
       id="path5334"
       sodipodi:cx="-87.720657"
       sodipodi:cy="432.25998"
       sodipodi:rx="22.107042"
       sodipodi:ry="29.465372"
       d="m -65.613615,432.25998 c 0,16.27327 -9.89766,29.46537 -22.107042,29.46537 -12.209383,0 -22.107043,-13.1921 -22.107043,-29.46537 0,-16.27328 9.89766,-29.46537 22.107043,-29.46537 12.209382,0 22.107042,13.19209 22.107042,29.46537 z"
       transform="matrix(13.570336,0,0,10.181443,1490.3988,-3648.6681)" />
    <path
       transform="matrix(13.525102,0,0,10.147505,1486.4308,-3633.998)"
       d="m -65.613615,432.25998 c 0,16.27327 -9.89766,29.46537 -22.107042,29.46537 -12.209383,0 -22.107043,-13.1921 -22.107043,-29.46537 0,-16.27328 9.89766,-29.46537 22.107043,-29.46537 12.209382,0 22.107042,13.19209 22.107042,29.46537 z"
       sodipodi:ry="29.465372"
       sodipodi:rx="22.107042"
       sodipodi:cy="432.25998"
       sodipodi:cx="-87.720657"
       id="path3003"
       style="color:#000000;fill:none;stroke:#000000;stroke-width:0.17071831000000001;stroke-miterlimit:4;stroke-opacity:1;stroke-dasharray:none;marker:none;visibility:visible;display:inline;overflow:visible;enable-background:accumulate;opacity:1"
       sodipodi:type="arc" />
    <g
       style="font-size:380.18783569px;font-style:normal;font-variant:normal;font-weight:normal;font-stretch:normal;line-height:125%;letter-spacing:-21.29032135px;word-spacing:0px;fill:#7f7f7f;fill-opacity:1;stroke:none;font-family:Arial;-inkscape-font-specification:Arial"
       id="text9499">
      <path
         d="m 266.61256,680.5078 10.64512,-34.59665 -122.4189,0 0,103.78994 23.95152,13.30641 c 2.66122,-1.82954 6.65313,-4.82348 11.97576,-8.98183 5.32249,-4.15814 11.97569,-6.48676 19.95961,-6.98586 12.0311,0.49911 21.23469,4.82369 27.61078,12.97375 6.37586,8.15026 9.59157,17.13207 9.64715,26.94546 -0.66544,13.30646 -5.988,23.28626 -15.96769,29.93941 -9.9799,6.65324 -20.62501,9.97983 -31.93536,9.9798 -8.95021,0.103 -17.94787,-0.57816 -26.99299,-2.04348 -9.04522,-1.46526 -16.90233,-4.33247 -23.57135,-8.60164 l 5.32257,34.59665 c 0.60985,0.44355 6.04329,2.21774 16.30034,5.32256 10.25696,3.10482 21.67828,4.87901 34.26399,5.32256 25.55927,-0.55443 45.62973,-8.09472 60.21146,-22.62089 14.58145,-14.52613 22.01085,-32.71153 22.28824,-54.55625 -0.83182,-21.40103 -7.81767,-37.81225 -20.9576,-49.23369 -13.1402,-11.4212 -27.44457,-17.1873 -42.91314,-17.29832 -6.26519,-0.11075 -12.55404,0.77634 -18.86658,2.66128 -6.3127,1.88521 -11.55605,5.43358 -15.73007,10.64512 l 0,-50.56433 z"
         style="fill:#7f7f7f;font-family:Russian Road Sign;-inkscape-font-specification:Russian Road Sign"
         id="path9887" />
      <path
         d="m 387.20416,643.24987 c -21.62298,0.55465 -38.92129,10.75621 -51.89497,30.60472 -12.97378,19.84888 -19.62697,46.01812 -19.9596,78.50779 0.33263,32.48987 6.98582,58.6591 19.9596,78.50777 12.97368,19.84872 30.27199,30.05029 51.89497,30.60473 21.62279,-0.55443 38.92109,-10.756 51.89497,-30.60473 12.97358,-19.84868 19.62678,-46.01791 19.95961,-78.50777 -0.33283,-30.9927 -6.98603,-56.73423 -19.95961,-77.22467 -12.97388,-20.49007 -30.27218,-31.11934 -51.89497,-31.88784 z m 0,33.07592 c 10.42325,-0.15823 18.75558,5.86133 24.99703,18.05868 6.24121,12.19768 9.44108,31.52363 9.59962,57.97791 -0.15854,26.45447 -3.35841,45.78042 -9.59962,57.97789 -6.24145,12.19756 -14.57378,18.21712 -24.99703,18.05869 -10.42344,0.15844 -18.75577,-5.86112 -24.99703,-18.05869 -6.2414,-12.19748 -9.44127,-31.52342 -9.59961,-57.97789 0.15834,-26.45427 3.35821,-45.78022 9.59962,-57.97791 6.24126,-12.19736 14.57359,-18.21692 24.99702,-18.05868 z"
         style="fill:#7f7f7f;font-family:Russian Road Sign;-inkscape-font-specification:Russian Road Sign"
         id="path9889" />
    </g>
    <path
       style="opacity:1;color:#000000;fill:#000000;fill-opacity:1;fill-rule:nonzero;stroke:none;stroke-width:1px;marker:none;visibility:visible;display:inline;overflow:visible;enable-background:accumulate"
       d="M 300 10 C 139.83742 10 10 139.83742 10 300 C 10 460.16258 139.83742 590 300 590 C 460.16258 590 590 460.16258 590 300 C 590 139.83742 460.16258 10 300 10 z M 300 20 C 360.37494 20 416.30046 39.09434 462.03125 71.59375 L 71.59375 462.03125 C 39.09434 416.30046 20 360.37494 20 300 C 20 145.36027 145.36027 20 300 20 z M 469.09375 76.84375 C 472.45869 79.397412 475.75656 82.018827 479 84.71875 L 84.71875 479 C 82.018827 475.75656 79.397412 472.45869 76.84375 469.09375 L 469.09375 76.84375 z M 485.65625 90.40625 C 488.79925 93.192082 491.86063 96.046118 494.875 98.96875 L 98.96875 494.875 C 96.046118 491.86063 93.192082 488.79925 90.40625 485.65625 L 485.65625 90.40625 z M 501.03125 105.125 C 503.95388 108.13937 506.80792 111.20075 509.59375 114.34375 L 114.34375 509.59375 C 111.20075 506.80792 108.13937 503.95388 105.125 501.03125 L 501.03125 105.125 z M 515.28125 121 C 517.98117 124.24344 520.60259 127.54131 523.15625 130.90625 L 130.90625 523.15625 C 127.54131 520.60259 124.24344 517.98117 121 515.28125 L 515.28125 121 z M 528.40625 137.96875 C 560.90566 183.69954 580 239.62506 580 300 C 580 454.63973 454.63973 580 300 580 C 239.62506 580 183.69954 560.90566 137.96875 528.40625 L 528.40625 137.96875 z "
       transform="translate(0,452.36218)"
       id="path13376" />
  </g>
</svg>
