<?xml version="1.0" encoding="UTF-8" standalone="no"?>
<svg xmlns="http://www.w3.org/2000/svg" width="700" height="700" version="1.1">
  <title>3.17.1 Таможня</title>
  <circle style="fill:#ffffff;" cx="350" cy="350" r="350"/>
  <circle style="fill:none;stroke:#000000;stroke-width:2;" cx="350" cy="350" r="349"/>
  <path style="fill:#ff0000;" d="m 350 690 a 340 340 0 0 0 340 -340 a 340 340 0 0 0 -340 -340 a 340 340 0 0 0 -340 340 a 340 340 0 0 0 340 340 z m 0 -57.74 a 282.26 282.26 0 0 1 -282.26 -282.26 a 282.26 282.26 0 0 1 282.26 -282.26 a 282.26 282.26 0 0 1 282.26 282.26 a 282.26 282.26 0 0 1 -282.26 282.26 z"/>
  <rect style="fill:#000000;" transform="scale(1.12903226)" x="97" y="285" width="426" height="50" rx="25" ry="25"/>
  <path style="fill:#000000;" transform="scale(1.12903226)" d="m 136.62 190 v 7.50 h 13.75 v 42.50 h 8.75 v -42.50 h 13.75 v -7.50 z"/>
  <path style="fill:#000000;" transform="scale(1.12903226)" d="m 192.75 222.50 6.25 -21.25 6.25 21.25 z m 1.25 -32.50 -16.25 50 h 9.37 l 3.12 -10 h 17.50 l 3.12 10 h 9.37 l -16.25 -50 z"/>
  <path style="fill:#000000;" transform="scale(1.12903226)" d="m 225.12 240 h 9.37 l 3.12 -36.87 13.12 29.37 13.12 -29.37 3.12 36.87 h 9.37 l -5.62 -50 h -8.75 l -11.25 24.37 -11.25 -24.37 h -8.75 z"/>
  <path style="fill:#000000;" transform="scale(1.12903226)" d="m 301.25 188.75 c -13.75 0 -20.36 11.79 -20.36 26.25 0 14.46 6.61 26.25 20.36 26.25 13.75 0 20.36 -11.79 20.36 -26.25 0 -14.46 -6.61 -26.25 -20.36 -26.25 z m 0 8.12 c 6.87 0 11.87 6.87 11.87 18.12 0 11.25 -5 18.12 -11.87 18.12 -6.87 0 -11.87 -6.87 -11.87 -18.12 0 -11.25 5 -18.12 11.87 -18.12 z"/>
  <path style="fill:#000000;" transform="scale(1.12903226)" d="m 324.87 240 h 11.25 c 1.87 -3.12 6.25 -11.25 9.37 -16.87 2.23 -3.93 4.37 -6.25 6.87 -6.25 1.25 0 3.75 0.27 3.75 0.27 v 22.86 h 8.75 v -22.86 c 0 0 2.50 -0.27 3.75 -0.27 2.50 0 4.64 2.32 6.87 6.25 3.12 5.62 7.50 13.75 9.37 16.87 h 11.25 c -4.37 -3.39 -6.96 -10.54 -10.62 -16.87 -3.12 -5.36 -5 -10 -10.98 -10.36 2.23 -0.27 6.34 -5.71 8.48 -9.02 2.50 -3.75 3.93 -5.98 8.75 -5.98 l -2.50 -8.39 c -3.12 0.18 -5.98 1.25 -8.12 3.12 -6.43 5.62 -8.66 16.61 -15.36 16.61 h -0.27 c -0.36 0 -0.45 -0.09 -0.62 -0.18 v -18.93 h -8.75 v 18.93 c -0.18 0.09 -0.27 0.18 -0.62 0.18 h -0.27 c -6.70 0 -8.93 -10.98 -15.36 -16.61 -2.14 -1.87 -5 -2.95 -8.12 -3.12 l -2.50 8.39 c 4.82 0 6.25 2.23 8.75 5.98 2.14 3.30 6.25 8.75 8.48 9.02 -5.98 0.36 -7.86 5 -10.98 10.36 -3.66 6.34 -6.25 13.48 -10.62 16.87 z"/>
  <path style="fill:#000000;" transform="scale(1.12903226)" d="m 401.62 240 h 8.75 v -22.50 h 18.75 v 22.50 h 8.75 v -50 h -8.75 v 20 h -18.75 v -20 h -8.75 z"/>
  <path style="fill:#000000;" transform="scale(1.12903226)" d="m 442.75 240 h 10.62 c 2.50 -4.37 4.20 -7.86 6.52 -12.41 2.14 -4.11 3.48 -7.59 9.11 -7.59 h 5.62 v 20 h 8.75 v -50 h -18.12 c -12.50 0 -16.25 8.75 -16.25 13.75 0 6.87 4.37 11.61 10.62 12.86 -2.50 0.54 -6.16 4.02 -7.50 7.14 -1.87 4.37 -7.68 15.36 -9.37 16.25 z m 15 -35 c 0 -5.36 5 -7.50 10 -7.50 h 6.87 v 15 h -7.50 c -5 0 -9.37 -2.14 -9.37 -7.50 z"/>
  <path style="fill:#000000;" transform="scale(1.12903226)" d="m 169.29 378.75 c -13.75 0 -20.36 11.79 -20.36 26.25 0 14.55 6.61 26.25 20.36 26.25 9.46 0 15 -5.62 18.12 -13.75 l -8.39 -3.12 c -1.87 6.25 -5.18 8.75 -9.73 8.75 -6.87 0 -11.87 -6.87 -11.87 -18.12 0 -11.25 5 -18.12 11.87 -18.12 4.55 0 7.86 2.50 9.73 8.75 l 8.39 -3.12 c -3.12 -8.12 -8.66 -13.75 -18.12 -13.75 z"/>
  <path style="fill:#000000;" transform="scale(1.12903226)" d="m 195.16 380 v 33.75 c 0 0.62 0.62 16.87 18.12 16.87 17.50 0 18.12 -16.25 18.12 -16.87 v -33.75 h -8.75 v 34.37 c 0 6.87 -5.62 9.37 -9.37 9.37 -3.75 0 -9.37 -2.50 -9.37 -9.37 v -34.37 z"/>
  <path style="fill:#000000;" transform="scale(1.12903226)" d="m 241.40 422.50 c 0 0 8.39 8.75 19.64 8.75 12.50 0 19.20 -9.37 19.20 -15.62 0 -7.50 -5.45 -12.50 -14.20 -14.37 -6.87 -1.43 -13.12 -2.23 -13.12 -7.05 0 -2.41 1.87 -7.32 9.37 -7.32 6.52 0 11.07 5 11.07 5 l 5.80 -6.25 c 0 0 -8.12 -6.87 -16.87 -6.87 -10.62 0 -18.12 6.87 -18.12 15.62 0 3.84 1.70 11.96 15.62 14.02 11.16 1.61 11.25 5.80 11.25 7.77 v 0.09 c 0 1.87 -2.14 6.87 -9.82 6.87 -8.75 0 -13.66 -5.89 -13.66 -5.89 z"/>
  <path style="fill:#000000;" transform="scale(1.12903226)" d="m 285.49 380 v 7.50 h 13.75 v 42.50 h 8.75 v -42.50 h 13.75 v -7.50 z"/>
  <path style="fill:#000000;" transform="scale(1.12903226)" d="m 347.61 378.75 c -13.75 0 -20.36 11.79 -20.36 26.25 0 14.46 6.61 26.25 20.36 26.25 13.75 0 20.36 -11.79 20.36 -26.25 0 -14.46 -6.61 -26.25 -20.36 -26.25 z m 0 8.12 c 6.87 0 11.87 6.87 11.87 18.12 0 11.25 -5 18.12 -11.87 18.12 -6.87 0 -11.87 -6.87 -11.87 -18.12 0 -11.25 5 -18.12 11.87 -18.12 z"/>
  <path style="fill:#000000;" transform="scale(1.12903226)" d="m 375.36 430 h 8.75 v -36.25 l 15 26.25 15 -26.25 0.62 36.25 h 8.12 v -50 h -10 l -13.75 23.12 -13.75 -23.12 h -10 z"/>
  <path style="fill:#000000;" transform="scale(1.12903226)" d="m 432.22 422.50 c 0 0 8.39 8.75 19.64 8.75 12.50 0 19.20 -9.37 19.20 -15.62 0 -7.50 -5.45 -12.50 -14.20 -14.37 -6.87 -1.43 -13.12 -2.23 -13.12 -7.05 0 -2.41 1.87 -7.32 9.37 -7.32 6.52 0 11.07 5 11.07 5 l 5.80 -6.25 c 0 0 -8.12 -6.87 -16.87 -6.87 -10.62 0 -18.12 6.87 -18.12 15.62 0 3.84 1.70 11.96 15.62 14.02 11.16 1.61 11.25 5.80 11.25 7.77 v 0.09 c 0 1.87 -2.14 6.87 -9.82 6.87 -8.75 0 -13.66 -5.89 -13.66 -5.89 z"/>
</svg>
