<?xml version="1.0" encoding="UTF-8"?>
<svg xmlns="http://www.w3.org/2000/svg" width="700" height="700" version="1.1">
<title>4.4.2 Конец велосипедной дорожки</title>
<circle style="fill:#ffffff;" cx="350" cy="350" r="350"/>
<circle style="fill:none;stroke:#000000;stroke-width:2px;" cx="350" cy="350" r="349"/>
<circle style="fill:#0d69e1;" cx="350" cy="350" r="330"/>
<path style="fill:#ffffff;" d="m 372.111,416.793 c 1.769,1.348 3.932,2.078 6.157,2.078 l 49.364,0 c 6.199,44.657 44.380,77.903 89.465,77.903 c 49.884,0 90.322,-40.439 90.322,-90.322 c 0,-49.884 -40.438,-90.323 -90.322,-90.323 c -14.065,0 -27.935,3.285 -40.506,9.592 l -33.388,-47.680 l 8.754,-20.622 l 5.301,0 c 7.483,0 13.549,-6.065 13.549,-13.548 c 0,-7.483 -6.066,-13.548 -13.549,-13.548 l -62.097,0 c -7.482,0 -13.548,6.065 -13.548,13.548 c 0,7.483 6.066,13.548 13.548,13.548 l 39.624,0 l -5.272,12.420 l -155.700,0 c 0.713,-2.615 1.075,-5.314 1.075,-8.025 c 0,-10.954 -5.878,-21.067 -15.396,-26.488 l -5.956,-3.392 c -4.230,-2.410 -6.842,-6.904 -6.842,-11.773 c 0,-7.482 6.065,-13.548 13.548,-13.548 l 44.597,0 c 4.988,0 9.032,-4.044 9.032,-9.032 c 0,-4.989 -4.044,-9.033 -9.032,-9.033 l -44.597,0 c -17.459,0 -31.613,14.154 -31.613,31.613 c 0,11.360 6.095,21.847 15.967,27.470 l 5.955,3.392 c 3.878,2.208 6.273,6.328 6.273,10.791 c 0,1.814 -0.398,3.605 -1.164,5.249 l -28.328,60.749 c -13.555,-7.659 -28.860,-11.683 -44.429,-11.683 c -49.884,0 -90.322,40.439 -90.322,90.323 c 0,49.883 40.438,90.322 90.322,90.322 c 49.884,0 90.323,-40.439 90.323,-90.322 c 0,-26.076 -11.269,-50.879 -30.909,-68.031 l 7.055,-15.130 z m -189.208,66.433 c -42.401,0 -76.774,-34.373 -76.774,-76.774 c 0,-42.402 34.373,-76.775 76.774,-76.775 c 13.593,0 26.942,3.609 38.683,10.458 l -19.605,42.043 c -1.175,2.520 -3.097,4.618 -5.505,6.008 l -18.089,10.443 c -2.794,1.614 -4.516,4.596 -4.516,7.823 c 0,4.988 4.044,9.032 9.032,9.032 c 1.586,0 3.143,-0.418 4.516,-1.210 l 18.089,-10.444 c 5.619,-3.244 10.103,-8.137 12.845,-14.017 l 17.959,-38.514 c 14.934,14.463 23.365,34.363 23.365,55.153 c 0,42.401 -34.373,76.774 -76.774,76.774 z m 334.194,0 c -37.608,0 -69.680,-27.243 -75.763,-64.355 l 78,0 c 6.859,0 12.419,-5.560 12.419,-12.419 c 0,-2.549 -0.784,-5.036 -2.246,-7.124 l -44.005,-62.848 c 9.930,-4.484 20.700,-6.803 31.595,-6.803 c 42.401,0 76.774,34.373 76.774,76.775 c 0,42.401 -34.373,76.774 -76.774,76.774 z m -76.367,-84.678 c 2.075,-20.049 11.952,-38.478 27.497,-51.308 l 35.927,51.308 z m -43.773,0 l 40.978,-96.537 l 23.386,33.397 c -19.636,15.416 -32.016,38.272 -34.200,63.140 z m -20.412,-3.925 l -116.375,-88.654 l 8.055,-15.808 l 152.662,0 z"/>
<path style="fill:#ff0000;" d="m 95.014 559.480 c 13.65,16.615 28.891,31.856 45.506,45.506 l 464.467,-464.467 c -13.65,-16.615 -28.891,-31.856 -45.506,-45.506 z"/>
</svg>