<?xml version="1.0" encoding="UTF-8"?>
<svg xmlns="http://www.w3.org/2000/svg" width="700" height="700" version="1.1">
<title>4.5.1 Пешеходная дорожка</title>
<circle style="fill:#ffffff;" cx="350" cy="350" r="350"/>
<circle style="fill:none;stroke:#000000;stroke-width:2px;" cx="350" cy="350" r="349"/>
<circle style="fill:#0d69e1;" cx="350" cy="350" r="330"/>
<path style="fill:#ffffff;" d="m 425.492,548.254 c 2.383,9.556 10.966,16.262 20.814,16.262 c 11.847,0 21.452,-9.604 21.452,-21.452 c 0,-1.749 -0.214,-3.492 -0.637,-5.190 l -31.416,-126.002 c -0.397,-1.590 -1.218,-3.043 -2.377,-4.202 l -56.796,-56.796 l 0,-120.016 c 0,-4.034 -2.152,-7.761 -5.645,-9.778 l -29.146,-16.828 c -6.986,-4.034 -15.594,-4.034 -22.581,0 l -71.902,41.513 c -6.986,4.034 -11.290,11.488 -11.290,19.555 l 0,79.032 c 0,9.353 7.582,16.935 16.935,16.935 c 9.353,0 16.935,-7.582 16.935,-16.935 l 0,-67.290 c 0,-3.227 1.722,-6.209 4.516,-7.822 l 30.484,-17.600 l 0,94.745 c 0,2.994 1.190,5.866 3.307,7.984 l 90.154,90.154 c 1.159,1.159 1.981,2.611 2.377,4.202 z"/>
<path style="fill:#ffffff;" d="m 311.122,373.314 l -91.813,159.025 c -1.883,3.261 -2.874,6.960 -2.874,10.726 c 0,11.847 9.604,21.452 21.452,21.452 c 7.664,0 14.746,-4.089 18.578,-10.726 l 86.065,-149.069 z"/>
<path style="fill:#ffffff;" d="m 387.823,326.531 l 40.525,40.525 c 3.176,3.176 7.484,4.960 11.975,4.960 c 9.353,0 16.935,-7.582 16.935,-16.935 c 0,-4.492 -1.784,-8.799 -4.960,-11.975 l -64.475,-64.475 z"/>
<path style="fill:#ffffff;" d="m 338.710,116.855 c 10.500,0 51.596,9.484 51.596,42.903 c 0,13.548 -8.806,35.565 -27.887,35.565 c -13.548,0 -56.790,-21.339 -56.790,-47.984 c 0,-23.258 20.661,-30.484 33.081,-30.484 z"/>
</svg>