<?xml version="1.0" encoding="UTF-8" standalone="no"?>
<!-- Created with Inkscape (http://www.inkscape.org/) -->

<svg
   xmlns:dc="http://purl.org/dc/elements/1.1/"
   xmlns:cc="http://creativecommons.org/ns#"
   xmlns:rdf="http://www.w3.org/1999/02/22-rdf-syntax-ns#"
   xmlns:svg="http://www.w3.org/2000/svg"
   xmlns="http://www.w3.org/2000/svg"
   xmlns:sodipodi="http://sodipodi.sourceforge.net/DTD/sodipodi-0.dtd"
   xmlns:inkscape="http://www.inkscape.org/namespaces/inkscape"
   width="700"
   height="700"
   id="svg2"
   version="1.1"
   inkscape:version="0.48.4 r9939"
   sodipodi:docname="4.5.6.svg">
  <title
     id="title3002">4.5.4 Пешеходная и велосипедная дорожка с разделением движения</title>
  <defs
     id="defs4" />
  <sodipodi:namedview
     id="base"
     pagecolor="#ffffff"
     bordercolor="#666666"
     borderopacity="1.0"
     inkscape:pageopacity="0.0"
     inkscape:pageshadow="2"
     inkscape:zoom="1"
     inkscape:cx="185.65066"
     inkscape:cy="350.82111"
     inkscape:document-units="px"
     inkscape:current-layer="layer1"
     showgrid="false"
     inkscape:window-width="1920"
     inkscape:window-height="1024"
     inkscape:window-x="-4"
     inkscape:window-y="-4"
     inkscape:window-maximized="1" />
  <metadata
     id="metadata7">
    <rdf:RDF>
      <cc:Work
         rdf:about="">
        <dc:format>image/svg+xml</dc:format>
        <dc:type
           rdf:resource="http://purl.org/dc/dcmitype/StillImage" />
        <dc:title>4.5.4 Пешеходная и велосипедная дорожка с разделением движения</dc:title>
        <cc:license
           rdf:resource="http://creativecommons.org/licenses/by-sa/3.0/" />
        <dc:description>ГОСТ Р 52290-2004
Размеры и пропорции по типоразмеру II</dc:description>
      </cc:Work>
      <cc:License
         rdf:about="http://creativecommons.org/licenses/by-sa/3.0/">
        <cc:permits
           rdf:resource="http://creativecommons.org/ns#Reproduction" />
        <cc:permits
           rdf:resource="http://creativecommons.org/ns#Distribution" />
        <cc:requires
           rdf:resource="http://creativecommons.org/ns#Notice" />
        <cc:requires
           rdf:resource="http://creativecommons.org/ns#Attribution" />
        <cc:permits
           rdf:resource="http://creativecommons.org/ns#DerivativeWorks" />
        <cc:requires
           rdf:resource="http://creativecommons.org/ns#ShareAlike" />
      </cc:License>
    </rdf:RDF>
  </metadata>
  <g
     inkscape:label="Layer 1"
     inkscape:groupmode="layer"
     id="layer1"
     transform="translate(0,-352.36218)">
    <path
       transform="matrix(15.832059,0,0,11.87835,1738.7986,-4432.173)"
       d="m -65.613615,432.25998 c 0,16.27327 -9.89766,29.46537 -22.107042,29.46537 -12.209383,0 -22.107043,-13.1921 -22.107043,-29.46537 0,-16.27328 9.89766,-29.46537 22.107043,-29.46537 12.209382,0 22.107042,13.19209 22.107042,29.46537 z"
       sodipodi:ry="29.465372"
       sodipodi:rx="22.107042"
       sodipodi:cy="432.25998"
       sodipodi:cx="-87.720657"
       id="path6124"
       style="opacity:1;color:#000000;fill:#ffffff;fill-opacity:1;fill-rule:nonzero;stroke:none;stroke-width:1px;marker:none;visibility:visible;display:inline;overflow:visible;enable-background:accumulate"
       sodipodi:type="arc" />
    <path
       sodipodi:type="arc"
       style="opacity:1;color:#000000;fill:none;stroke:#000000;stroke-width:0.14626010000000000;stroke-miterlimit:4;stroke-opacity:1;stroke-dasharray:none;marker:none;visibility:visible;display:inline;overflow:visible;enable-background:accumulate;fill-opacity:1"
       id="path6162"
       sodipodi:cx="-87.720657"
       sodipodi:cy="432.25998"
       sodipodi:rx="22.107042"
       sodipodi:ry="29.465372"
       d="m -65.613615,432.25998 c 0,16.27327 -9.89766,29.46537 -22.107042,29.46537 -12.209383,0 -22.107043,-13.1921 -22.107043,-29.46537 0,-16.27328 9.89766,-29.46537 22.107043,-29.46537 12.209382,0 22.107042,13.19209 22.107042,29.46537 z"
       transform="matrix(15.786825,0,0,11.844412,1734.8306,-4417.503)" />
    <path
       style="color:#000000;fill:#0d69e1;fill-opacity:1;fill-rule:nonzero;stroke:none;stroke-width:1px;marker:none;visibility:visible;display:inline;overflow:visible;enable-background:accumulate;opacity:1"
       d="M 338.71875 20.1875 C 161.68832 26.134802 20 171.52179 20 350 C 20 528.47821 161.68832 673.8652 338.71875 679.8125 L 338.71875 20.1875 z M 361.28125 20.1875 L 361.28125 679.8125 C 538.31168 673.8652 680 528.47821 680 350 C 680 171.52179 538.31168 26.134802 361.28125 20.1875 z M 487.5625 138.875 C 496.22787 138.875 510.6875 143.95723 510.6875 160.1875 C 510.6875 178.8365 480.48144 193.6875 471 193.6875 C 457.6461 193.6875 451.5 178.3407 451.5 168.84375 C 451.5 145.48602 480.22582 138.875 487.5625 138.875 z M 493.3125 197.8125 C 496.03589 197.81243 498.74726 198.49744 501.1875 199.90625 L 551.4375 228.9375 C 556.3179 231.75526 559.34375 236.95837 559.34375 242.59375 L 559.34375 297.8125 C 559.34375 304.34625 554.03375 309.625 547.5 309.625 C 540.96626 309.625 535.65625 304.34625 535.65625 297.8125 L 535.65625 247.15625 L 511.21875 233.03125 L 511.21875 299.21875 C 511.21875 301.31049 510.38528 303.30209 508.90625 304.78125 L 444.78125 368.9375 L 426.96875 440.25 C 424.96165 448.27888 416.77897 453.16354 408.75 451.15625 C 400.72103 449.14906 395.86789 440.99772 397.875 432.96875 L 419.78125 345.3125 C 420.13875 343.8784 420.90557 342.58912 421.96875 341.5625 L 461.125 302.375 L 461.125 218.5 C 461.125 215.68224 462.65351 213.03381 465.09375 211.625 L 485.40625 199.90625 C 487.84649 198.49744 490.58929 197.8125 493.3125 197.8125 z M 452.53125 252.59375 L 452.53125 286.0625 L 424.9375 313.65625 C 422.79645 315.79709 419.86062 317.125 416.59375 317.125 C 410.0598 317.125 404.75 311.84645 404.75 305.3125 C 404.75 302.04563 406.07798 299.07855 408.21875 296.9375 L 452.53125 252.59375 z M 132.53125 260.96875 L 157.53125 260.96875 C 160.39752 260.96875 162.71875 263.28996 162.71875 266.15625 C 162.71875 269.02247 160.39752 271.34375 157.53125 271.34375 L 132.53125 271.34375 C 127.87365 271.34375 124.09375 275.09236 124.09375 279.75 C 124.09375 282.79572 126.02654 285.5398 128.90625 286.53125 C 135.97467 288.96516 140.71875 295.61792 140.71875 303.09375 C 140.71875 304.64313 140.5275 306.1699 140.125 307.65625 L 229.25 307.65625 L 232.28125 300.53125 L 209.40625 300.53125 C 205.1069 300.53125 201.625 297.04937 201.625 292.75 C 201.625 288.45057 205.1069 284.96875 209.40625 284.96875 L 245.09375 284.96875 C 249.3931 284.96875 252.875 288.45057 252.875 292.75 C 252.875 297.04937 249.3931 300.53125 245.09375 300.53125 L 242.1875 300.53125 L 237.5 311.5 L 257 339.375 C 263.79644 336.10747 271.42327 334.25 279.46875 334.25 C 308.13149 334.25 331.375 357.49349 331.375 386.15625 C 331.375 414.81901 308.13149 438.0625 279.46875 438.0625 C 253.22688 438.0625 231.53981 418.59857 228.0625 393.3125 L 197.65625 393.3125 L 126 338.53125 L 121.90625 347.34375 C 132.60665 356.85042 139.34375 370.71688 139.34375 386.15625 C 139.34375 414.81901 116.1315 438.0625 87.46875 438.0625 C 58.80601 438.0625 35.5625 414.81901 35.5625 386.15625 C 35.5625 357.49349 58.80601 334.25 87.46875 334.25 C 96.89301 334.25 105.72581 336.79659 113.34375 341.1875 L 128.96875 307.65625 L 129.6875 306.09375 C 130.12782 305.1494 130.34375 304.13577 130.34375 303.09375 C 130.34375 300.04807 128.41096 297.33532 125.53125 296.34375 C 118.46272 293.9099 113.71875 287.22582 113.71875 279.75 C 113.71875 269.35973 122.14099 260.96875 132.53125 260.96875 z M 506.65625 318.1875 L 569.5 427 C 571.67802 429.60195 573 432.9664 573 436.625 C 573 444.90125 566.27622 451.625 558 451.625 C 552.41345 451.625 547.54585 448.56357 544.96875 444.03125 L 544.78125 444.09375 L 484.71875 340.125 L 506.65625 318.1875 z M 136.375 319.34375 L 131.09375 327.65625 L 198.6875 379.34375 L 224.28125 319.34375 L 136.375 319.34375 z M 233.84375 326.65625 L 210.40625 381.625 L 227.75 381.625 C 229.01181 367.06165 236.33089 354.21783 247.125 345.59375 L 233.84375 326.65625 z M 86.3125 342.0625 C 62.47535 342.66645 43.34375 362.17358 43.34375 386.15625 C 43.34375 410.51964 63.10547 430.28125 87.46875 430.28125 C 111.83213 430.28125 131.5625 410.51964 131.5625 386.15625 C 131.5625 373.87172 126.53955 362.77972 118.4375 354.78125 L 108.53125 376.0625 C 106.89957 379.56165 104.21851 382.47591 100.875 384.40625 L 90.03125 390.65625 C 87.54896 392.08933 84.37046 391.23223 82.9375 388.75 C 81.50419 386.26771 82.36146 383.0894 84.84375 381.65625 L 95.6875 375.40625 C 97.18629 374.54091 98.3935 373.22483 99.125 371.65625 L 110.03125 348.28125 C 103.42596 344.3384 95.72017 342.0625 87.46875 342.0625 C 87.08804 342.0625 86.69084 342.0523 86.3125 342.0625 z M 279.46875 342.0625 C 273.0843 342.0625 267.0409 343.43489 261.5625 345.875 L 286.90625 382.0625 C 289.16679 385.29083 288.3846 389.73945 285.15625 392 C 283.95665 392.84 282.52697 393.3125 281.0625 393.3125 L 235.9375 393.3125 C 239.35181 414.27839 257.53786 430.28125 279.46875 430.28125 C 303.83203 430.28125 323.59375 410.51964 323.59375 386.15625 C 323.59375 361.79291 303.83203 342.0625 279.46875 342.0625 z M 251.59375 351.96875 C 242.79769 359.15642 236.81547 369.70246 235.59375 381.625 L 272.34375 381.625 L 251.59375 351.96875 z "
       transform="translate(0,352.36218)"
       id="path16853" />
  </g>
</svg>
