<?xml version="1.0" encoding="UTF-8" standalone="no"?>
<!-- Created with Inkscape (http://www.inkscape.org/) -->

<svg
   xmlns:dc="http://purl.org/dc/elements/1.1/"
   xmlns:cc="http://creativecommons.org/ns#"
   xmlns:rdf="http://www.w3.org/1999/02/22-rdf-syntax-ns#"
   xmlns:svg="http://www.w3.org/2000/svg"
   xmlns="http://www.w3.org/2000/svg"
   xmlns:sodipodi="http://sodipodi.sourceforge.net/DTD/sodipodi-0.dtd"
   xmlns:inkscape="http://www.inkscape.org/namespaces/inkscape"
   width="1400"
   height="700"
   id="svg2"
   version="1.1"
   inkscape:version="0.48.4 r9939"
   sodipodi:docname="5.15.8.svg">
  <title
     id="title14100">5.15.8 Число полос</title>
  <defs
     id="defs4" />
  <sodipodi:namedview
     id="base"
     pagecolor="#ffffff"
     bordercolor="#666666"
     borderopacity="1.0"
     inkscape:pageopacity="0.0"
     inkscape:pageshadow="2"
     inkscape:zoom="1"
     inkscape:cx="725.03831"
     inkscape:cy="342.31836"
     inkscape:document-units="px"
     inkscape:current-layer="layer1"
     showgrid="false"
     inkscape:window-width="1920"
     inkscape:window-height="1024"
     inkscape:window-x="-4"
     inkscape:window-y="-4"
     inkscape:window-maximized="1"
     inkscape:snap-bbox="false"
     inkscape:bbox-paths="true"
     inkscape:bbox-nodes="true"
     inkscape:snap-bbox-edge-midpoints="true"
     inkscape:snap-bbox-midpoints="true"
     inkscape:object-paths="false"
     inkscape:snap-intersection-paths="true"
     inkscape:object-nodes="false"
     inkscape:snap-smooth-nodes="false"
     inkscape:snap-nodes="true"
     showguides="true"
     inkscape:guide-bbox="true"
     inkscape:snap-object-midpoints="true"
     inkscape:snap-center="true" />
  <metadata
     id="metadata7">
    <rdf:RDF>
      <cc:Work
         rdf:about="">
        <dc:format>image/svg+xml</dc:format>
        <dc:type
           rdf:resource="http://purl.org/dc/dcmitype/StillImage" />
        <dc:title>5.15.8 Число полос</dc:title>
        <cc:license
           rdf:resource="http://creativecommons.org/licenses/by-sa/3.0/" />
        <dc:description>ГОСТ Р 52290-2004
Размеры и пропорции по типоразмеру II</dc:description>
      </cc:Work>
      <cc:License
         rdf:about="http://creativecommons.org/licenses/by-sa/3.0/">
        <cc:permits
           rdf:resource="http://creativecommons.org/ns#Reproduction" />
        <cc:permits
           rdf:resource="http://creativecommons.org/ns#Distribution" />
        <cc:requires
           rdf:resource="http://creativecommons.org/ns#Notice" />
        <cc:requires
           rdf:resource="http://creativecommons.org/ns#Attribution" />
        <cc:permits
           rdf:resource="http://creativecommons.org/ns#DerivativeWorks" />
        <cc:requires
           rdf:resource="http://creativecommons.org/ns#ShareAlike" />
      </cc:License>
    </rdf:RDF>
  </metadata>
  <g
     inkscape:label="Layer 1"
     inkscape:groupmode="layer"
     id="layer1"
     transform="translate(0,-352.36218)">
    <rect
       ry="45"
       rx="45"
       style="color:#000000;fill:#ffffff;fill-opacity:1;stroke:none;stroke-width:2;marker:none;visibility:visible;display:inline;overflow:visible;enable-background:accumulate;opacity:1"
       id="rect7667"
       width="1400"
       height="700"
       x="0"
       y="352.36218" />
    <rect
       y="353.36218"
       x="1"
       height="698"
       width="1398"
       id="rect7101"
       style="color:#000000;fill:none;stroke:#000000;stroke-width:1.99999988000000010;stroke-miterlimit:4;stroke-opacity:1;stroke-dasharray:none;marker:none;visibility:visible;display:inline;overflow:visible;enable-background:accumulate;opacity:1"
       rx="44"
       ry="44" />
    <path
       style="opacity:1;color:#000000;fill:#0d69e1;fill-opacity:1;fill-rule:nonzero;stroke:none;stroke-width:3.54299997999999980;marker:none;visibility:visible;display:inline;overflow:visible;enable-background:accumulate"
       d="M 45 20 C 31.15 20 20 31.15 20 45 L 20 655 C 20 668.85 31.15 680 45 680 L 256.65625 680 L 256.65625 496.3125 C 209.32004 481.44812 175 437.24154 175 385 C 175 332.75847 209.32004 288.55191 256.65625 273.6875 L 256.65625 233.34375 L 198.34375 233.34375 L 291.65625 70 L 385 233.34375 L 326.65625 233.34375 L 326.65625 273.6875 C 373.99247 288.55191 408.34375 332.75847 408.34375 385 C 408.34375 437.24154 373.99247 481.44812 326.65625 496.3125 L 326.65625 680 L 665 680 L 665 496.3125 C 617.66378 481.44812 583.34375 437.24154 583.34375 385 C 583.34375 332.75847 617.66378 288.55191 665 273.6875 L 665 233.34375 L 606.65625 233.34375 L 700 70 L 793.34375 233.34375 L 735 233.34375 L 735 273.6875 C 782.33621 288.55191 816.65625 332.75847 816.65625 385 C 816.65625 437.24154 782.33621 481.44812 735 496.3125 L 735 680 L 1073.3438 680 L 1073.3438 496.3125 C 1026.0076 481.44812 991.65625 437.24154 991.65625 385 C 991.65625 332.75847 1026.0076 288.55191 1073.3438 273.6875 L 1073.3438 233.34375 L 1015 233.34375 L 1108.3438 70 L 1201.6562 233.34375 L 1143.3438 233.34375 L 1143.3438 273.6875 C 1190.6799 288.55191 1225 332.75846 1225 385 C 1225 437.24154 1190.6799 481.44812 1143.3438 496.3125 L 1143.3438 680 L 1355 680 C 1368.85 680 1380 668.85 1380 655 L 1380 45 C 1380 31.15 1368.85 20 1355 20 L 45 20 z "
       transform="translate(0,352.36218)"
       id="rect9536" />
    <g
       style="font-size:166.66819763px;font-style:normal;font-variant:normal;font-weight:normal;font-stretch:normal;line-height:125%;letter-spacing:0px;word-spacing:0px;fill:#000000;fill-opacity:1;stroke:none;font-family:Arial;-inkscape-font-specification:Arial"
       id="text11629">
      <path
         d="m 1087.1505,705.86219 4.6666,-15.16661 -53.6664,0 0,45.49983 10.4999,5.83331 c 1.1667,-0.80204 2.9167,-2.11454 5.25,-3.93749 2.3333,-1.82286 5.25,-2.84369 8.75,-3.06248 5.2742,0.2188 9.3089,2.11462 12.1041,5.68748 2.7951,3.57294 4.2048,7.51042 4.2292,11.81245 -0.2918,5.83334 -2.6251,10.20832 -7,13.12495 -4.375,2.91667 -9.0417,4.375 -14,4.37499 -3.9236,0.0451 -7.868,-0.25346 -11.8333,-0.89584 -3.9652,-0.64234 -7.4097,-1.89928 -10.3333,-3.77081 l 2.3334,15.16661 c 0.2673,0.19445 2.6493,0.97222 7.1458,2.33332 4.4965,1.36111 9.5034,2.13888 15.0208,2.33333 11.2047,-0.24306 20.0033,-3.5486 26.3957,-9.91664 6.3923,-6.36802 9.6492,-14.3402 9.7708,-23.91657 -0.3647,-9.38187 -3.4272,-16.57628 -9.1875,-21.58326 -5.7604,-5.00687 -12.0312,-7.53463 -18.8124,-7.5833 -2.7466,-0.0485 -5.5035,0.34034 -8.2708,1.16666 -2.7674,0.82645 -5.066,2.382 -6.8958,4.66665 l 0,-22.16658 z"
         style="fill:#000000;font-family:Russian Road Sign;-inkscape-font-specification:Russian Road Sign"
         id="path11848" />
      <path
         d="m 1149.3492,689.52891 c -9.4791,0.24315 -17.0624,4.71535 -22.7499,13.41662 -5.6875,8.70143 -8.6041,20.1736 -8.75,34.41654 0.1459,14.24303 3.0625,25.7152 8.75,34.41654 5.6875,8.70136 13.2708,13.17356 22.7499,13.41662 9.4791,-0.24306 17.0624,-4.71526 22.7499,-13.41662 5.6875,-8.70134 8.6041,-20.17351 8.75,-34.41654 -0.1459,-13.5867 -3.0625,-24.87136 -8.75,-33.85404 -5.6875,-8.98252 -13.2708,-13.64222 -22.7499,-13.97912 z m 0,14.49995 c 4.5694,-0.0694 8.2222,2.56951 10.9583,7.91663 2.7361,5.34727 4.1388,13.81945 4.2083,25.41658 -0.069,11.59722 -1.4722,20.0694 -4.2083,25.41657 -2.7361,5.34722 -6.3889,7.98609 -10.9583,7.91664 -4.5694,0.0695 -8.2222,-2.56942 -10.9583,-7.91664 -2.7361,-5.34718 -4.1389,-13.81936 -4.2083,-25.41657 0.069,-11.59712 1.4722,-20.06931 4.2083,-25.41658 2.7361,-5.34712 6.3889,-7.986 10.9583,-7.91663 z"
         style="fill:#000000;font-family:Russian Road Sign;-inkscape-font-specification:Russian Road Sign"
         id="path11850" />
    </g>
    <g
       style="font-size:166.66819763px;font-style:normal;font-variant:normal;font-weight:normal;font-stretch:normal;line-height:125%;letter-spacing:0px;word-spacing:0px;fill:#000000;fill-opacity:1;stroke:none;font-family:Arial;-inkscape-font-specification:Arial"
       id="text11637">
      <path
         d="m 658.11661,689.52891 c -7.85071,10e-5 -14.60762,2.04176 -20.27077,6.12498 -5.66319,4.0834 -8.62845,10.20837 -8.89579,18.37493 0.20163,5.40128 1.61315,9.63583 4.23455,12.70366 2.62137,3.06794 5.24275,5.22843 7.86417,6.48146 2.62136,1.25313 4.03287,1.85806 4.23455,1.81481 -0.23048,-0.0144 -1.84365,0.79222 -4.83949,2.41974 -2.9959,1.62761 -5.99177,4.16257 -8.98762,7.6049 -2.99589,3.44242 -4.60905,7.87861 -4.83949,13.3086 -0.14584,6.22222 2.18748,12.15275 6.99998,17.7916 4.81245,5.63887 12.97908,8.65275 24.49991,9.04164 11.52073,-0.38889 19.68736,-3.40277 24.4999,-9.04164 4.81241,-5.63886 7.14574,-11.56938 6.99998,-17.7916 -0.23053,-5.42999 -1.84369,-9.86618 -4.83949,-13.30859 -2.99594,-3.44233 -5.99181,-5.9773 -8.98762,-7.60491 -2.99593,-1.62752 -4.60909,-2.4341 -4.83949,-2.41974 0.20159,0.0433 1.61311,-0.56168 4.23456,-1.81481 2.62132,-1.25304 5.24271,-3.41352 7.86416,-6.48146 2.62132,-3.06783 4.03284,-7.30238 4.23455,-12.70366 -0.26743,-8.16656 -3.23269,-14.29153 -8.8958,-18.37493 -5.66323,-4.08323 -12.42014,-6.12489 -20.27075,-6.12498 z m 0,13.33329 c 3.59716,-0.0451 6.61103,0.79521 9.04163,2.52082 2.43049,1.72577 3.69437,4.6077 3.79165,8.6458 -0.53477,3.64589 -2.67365,6.85421 -6.41664,9.62497 -3.74309,2.77088 -5.88197,4.2292 -6.41664,4.37498 -0.53477,-0.14578 -2.67365,-1.6041 -6.41665,-4.37499 -3.74307,-2.77076 -5.88195,-5.97907 -6.41664,-9.62496 0.0972,-4.0381 1.36108,-6.92003 3.79165,-8.6458 2.43052,-1.72561 5.44439,-2.56588 9.04164,-2.52082 z m 0,39.16652 c 0.1872,0.0432 1.49789,0.86424 3.93208,2.46296 2.4341,1.59879 4.86824,3.71607 7.30244,6.35182 2.43409,2.63582 3.74479,5.53087 3.93209,8.68515 -0.1945,4.05904 -1.84727,7.0243 -4.95832,8.8958 -3.11115,1.87154 -6.51391,2.79514 -10.20829,2.77083 -3.69448,0.0243 -7.09724,-0.89929 -10.20831,-2.77083 -3.11113,-1.8715 -4.76389,-4.83676 -4.95831,-8.8958 0.18722,-2.78699 1.49791,-5.5092 3.93209,-8.16663 2.43411,-2.65736 4.86826,-4.86106 7.30244,-6.61109 2.43411,-1.74996 3.7448,-2.65736 3.93209,-2.72221 z"
         style="fill:#000000;font-family:Russian Road Sign;-inkscape-font-specification:Russian Road Sign"
         id="path11843" />
      <path
         d="m 742.10175,689.52891 c -9.47916,0.24315 -17.06246,4.71535 -22.74992,13.41662 -5.68749,8.70143 -8.60414,20.1736 -8.74996,34.41654 0.14582,14.24303 3.06247,25.7152 8.74996,34.41654 5.68746,8.70136 13.27076,13.17356 22.74992,13.41662 9.47908,-0.24306 17.06238,-4.71526 22.74991,-13.41662 5.68741,-8.70134 8.60407,-20.17351 8.74997,-34.41654 -0.1459,-13.5867 -3.06256,-24.87136 -8.74997,-33.85404 -5.68753,-8.98252 -13.27083,-13.64222 -22.74991,-13.97912 z m 0,14.49995 c 4.56938,-0.0694 8.22214,2.56951 10.95829,7.91663 2.73605,5.34727 4.13882,13.81945 4.20832,25.41658 -0.0695,11.59722 -1.47227,20.0694 -4.20832,25.41657 -2.73615,5.34722 -6.38891,7.98609 -10.95829,7.91664 -4.56947,0.0695 -8.22223,-2.56942 -10.95829,-7.91664 -2.73613,-5.34718 -4.1389,-13.81936 -4.20832,-25.41657 0.0694,-11.59712 1.47219,-20.06931 4.20832,-25.41658 2.73607,-5.34712 6.38883,-7.986 10.95829,-7.91663 z"
         style="fill:#000000;font-family:Russian Road Sign;-inkscape-font-specification:Russian Road Sign"
         id="path11845" />
    </g>
    <g
       style="font-size:145.83467102px;font-style:normal;font-variant:normal;font-weight:normal;font-stretch:normal;line-height:125%;letter-spacing:0px;word-spacing:0px;fill:#000000;fill-opacity:1;stroke:none;font-family:Arial;-inkscape-font-specification:Arial"
       id="text11651">
      <path
         d="m 211.7369,715.48715 4.81248,6.27081 10.93746,-6.85414 0,63.29143 14.29161,0 0,-81.66636 -12.24995,0 z"
         style="letter-spacing:-11.66666698px;fill:#000000;font-family:Russian Road Sign;-inkscape-font-specification:Russian Road Sign"
         id="path11836" />
      <path
         d="m 282.21343,695.50806 c -8.29427,0.21275 -14.92965,4.12593 -19.90617,11.73954 -4.97656,7.61375 -7.52863,17.65189 -7.65622,30.11447 0.12759,12.46265 2.67966,22.5008 7.65622,30.11447 4.97652,7.61369 11.6119,11.52687 19.90617,11.73954 8.2942,-0.21267 14.92958,-4.12585 19.90618,-11.73954 4.97648,-7.61367 7.52855,-17.65182 7.65622,-30.11447 -0.12767,-11.88836 -2.67974,-21.76244 -7.65622,-29.62229 -4.9766,-7.8597 -11.61198,-11.93694 -19.90618,-12.23172 z m 0,12.68745 c 3.99821,-0.0607 7.19438,2.24832 9.58851,6.92706 2.39404,4.67885 3.62146,12.09201 3.68228,22.2395 -0.0608,10.14756 -1.28824,17.56072 -3.68228,22.2395 -2.39413,4.67881 -5.5903,6.98783 -9.58851,6.92706 -3.99828,0.0608 -7.19445,-2.24825 -9.5885,-6.92706 -2.39412,-4.67878 -3.62154,-12.09194 -3.68228,-22.2395 0.0607,-10.14748 1.28816,-17.56064 3.68228,-22.2395 2.39406,-4.67874 5.59022,-6.98776 9.5885,-6.92706 z"
         style="letter-spacing:-11.66666698px;fill:#000000;font-family:Russian Road Sign;-inkscape-font-specification:Russian Road Sign"
         id="path11838" />
      <path
         d="m 344.03377,695.50806 c -8.29427,0.21275 -14.92966,4.12593 -19.90618,11.73954 -4.97656,7.61375 -7.52863,17.65189 -7.65622,30.11447 0.12759,12.46265 2.67966,22.5008 7.65622,30.11447 4.97652,7.61369 11.61191,11.52687 19.90618,11.73954 8.29419,-0.21267 14.92958,-4.12585 19.90617,-11.73954 4.97649,-7.61367 7.52856,-17.65182 7.65623,-30.11447 -0.12767,-11.88836 -2.67974,-21.76244 -7.65623,-29.62229 -4.97659,-7.8597 -11.61198,-11.93694 -19.90617,-12.23172 z m 0,12.68745 c 3.99821,-0.0607 7.19437,2.24832 9.58851,6.92706 2.39404,4.67885 3.62146,12.09201 3.68227,22.2395 -0.0608,10.14756 -1.28824,17.56072 -3.68228,22.2395 -2.39413,4.67881 -5.59029,6.98783 -9.5885,6.92706 -3.99829,0.0608 -7.19445,-2.24825 -9.58851,-6.92706 -2.39411,-4.67878 -3.62154,-12.09194 -3.68228,-22.2395 0.0607,-10.14748 1.28817,-17.56064 3.68228,-22.2395 2.39406,-4.67874 5.59023,-6.98776 9.58851,-6.92706 z"
         style="letter-spacing:-11.66666698px;fill:#000000;font-family:Russian Road Sign;-inkscape-font-specification:Russian Road Sign"
         id="path11840" />
    </g>
    <path
       inkscape:connector-curvature="0"
       style="color:#000000;fill:#ff0000;fill-opacity:1;fill-rule:nonzero;stroke:none;stroke-width:1px;marker:none;visibility:visible;display:inline;overflow:visible;enable-background:accumulate;opacity:1"
       d="m 291.66651,620.69537 c -64.43324,0 -116.66666,52.23345 -116.66666,116.66666 0,64.43326 52.23342,116.6667 116.66666,116.6667 64.43325,0 116.66667,-52.23344 116.66667,-116.6667 0,-64.43321 -52.23342,-116.66666 -116.66667,-116.66666 z m 0,19.72522 c 53.53904,0 96.94149,43.40238 96.94149,96.94144 0,53.53904 -43.40245,96.94151 -96.94149,96.94151 -53.53903,0 -96.94148,-43.40247 -96.94148,-96.94151 0,-53.53906 43.40245,-96.94144 96.94148,-96.94144 z"
       id="path4775-9" />
    <path
       id="path11673"
       d="m 699.99985,620.69537 c -64.43325,0 -116.66667,52.23345 -116.66667,116.66666 0,64.43326 52.23342,116.6667 116.66667,116.6667 64.43325,0 116.66666,-52.23344 116.66666,-116.6667 0,-64.43321 -52.23341,-116.66666 -116.66666,-116.66666 z m 0,19.72522 c 53.53903,0 96.94148,43.40238 96.94148,96.94144 0,53.53904 -43.40245,96.94151 -96.94148,96.94151 -53.53903,0 -96.94149,-43.40247 -96.94149,-96.94151 0,-53.53906 43.40245,-96.94144 96.94149,-96.94144 z"
       style="color:#000000;fill:#ff0000;fill-opacity:1;fill-rule:nonzero;stroke:none;stroke-width:1px;marker:none;visibility:visible;display:inline;overflow:visible;enable-background:accumulate;opacity:1"
       inkscape:connector-curvature="0" />
    <path
       inkscape:connector-curvature="0"
       style="color:#000000;fill:#ff0000;fill-opacity:1;fill-rule:nonzero;stroke:none;stroke-width:1px;marker:none;visibility:visible;display:inline;overflow:visible;enable-background:accumulate;opacity:1"
       d="m 1108.3332,620.69537 c -64.4333,0 -116.66669,52.23345 -116.66669,116.66666 0,64.43326 52.23339,116.6667 116.66669,116.6667 64.4333,0 116.6667,-52.23344 116.6667,-116.6667 0,-64.43321 -52.2334,-116.66666 -116.6667,-116.66666 z m 0,19.72522 c 53.539,0 96.9415,43.40238 96.9415,96.94144 0,53.53904 -43.4025,96.94151 -96.9415,96.94151 -53.5391,0 -96.9415,-43.40247 -96.9415,-96.94151 0,-53.53906 43.4024,-96.94144 96.9415,-96.94144 z"
       id="path11675" />
  </g>
</svg>
