<?xml version="1.0" encoding="UTF-8" standalone="no"?>
<!-- Created with Inkscape (http://www.inkscape.org/) -->

<svg
   xmlns:dc="http://purl.org/dc/elements/1.1/"
   xmlns:cc="http://creativecommons.org/ns#"
   xmlns:rdf="http://www.w3.org/1999/02/22-rdf-syntax-ns#"
   xmlns:svg="http://www.w3.org/2000/svg"
   xmlns="http://www.w3.org/2000/svg"
   xmlns:sodipodi="http://sodipodi.sourceforge.net/DTD/sodipodi-0.dtd"
   xmlns:inkscape="http://www.inkscape.org/namespaces/inkscape"
   width="700"
   height="700"
   id="svg2"
   version="1.1"
   inkscape:version="0.48.4 r9939"
   sodipodi:docname="5.15.3 B.svg">
  <title
     id="title14100">5.15.3 Начало  полосы</title>
  <defs
     id="defs4" />
  <sodipodi:namedview
     id="base"
     pagecolor="#ffffff"
     bordercolor="#666666"
     borderopacity="1.0"
     inkscape:pageopacity="0.0"
     inkscape:pageshadow="2"
     inkscape:zoom="1"
     inkscape:cx="469.56746"
     inkscape:cy="333.79523"
     inkscape:document-units="px"
     inkscape:current-layer="layer1"
     showgrid="false"
     inkscape:window-width="1920"
     inkscape:window-height="1024"
     inkscape:window-x="-4"
     inkscape:window-y="-4"
     inkscape:window-maximized="1"
     inkscape:snap-bbox="false"
     inkscape:bbox-paths="true"
     inkscape:bbox-nodes="true"
     inkscape:snap-bbox-edge-midpoints="true"
     inkscape:snap-bbox-midpoints="true"
     inkscape:object-paths="false"
     inkscape:snap-intersection-paths="true"
     inkscape:object-nodes="false"
     inkscape:snap-smooth-nodes="false"
     inkscape:snap-nodes="true"
     showguides="true"
     inkscape:guide-bbox="true"
     inkscape:snap-object-midpoints="true"
     inkscape:snap-center="true" />
  <metadata
     id="metadata7">
    <rdf:RDF>
      <cc:Work
         rdf:about="">
        <dc:format>image/svg+xml</dc:format>
        <dc:type
           rdf:resource="http://purl.org/dc/dcmitype/StillImage" />
        <dc:title>5.15.3 Начало  полосы</dc:title>
        <cc:license
           rdf:resource="http://creativecommons.org/licenses/by-sa/3.0/" />
        <dc:description>ГОСТ Р 52290-2004
Размеры и пропорции по типоразмеру II</dc:description>
      </cc:Work>
      <cc:License
         rdf:about="http://creativecommons.org/licenses/by-sa/3.0/">
        <cc:permits
           rdf:resource="http://creativecommons.org/ns#Reproduction" />
        <cc:permits
           rdf:resource="http://creativecommons.org/ns#Distribution" />
        <cc:requires
           rdf:resource="http://creativecommons.org/ns#Notice" />
        <cc:requires
           rdf:resource="http://creativecommons.org/ns#Attribution" />
        <cc:permits
           rdf:resource="http://creativecommons.org/ns#DerivativeWorks" />
        <cc:requires
           rdf:resource="http://creativecommons.org/ns#ShareAlike" />
      </cc:License>
    </rdf:RDF>
  </metadata>
  <g
     inkscape:label="Layer 1"
     inkscape:groupmode="layer"
     id="layer1"
     transform="translate(0,-352.36218)">
    <rect
       ry="45"
       rx="45"
       style="color:#000000;fill:#ffffff;fill-opacity:1;stroke:none;stroke-width:2;marker:none;visibility:visible;display:inline;overflow:visible;enable-background:accumulate;opacity:1"
       id="rect7667"
       width="700"
       height="700"
       x="0"
       y="352.36218" />
    <rect
       y="353.36218"
       x="1"
       height="698"
       width="698"
       id="rect7101"
       style="color:#000000;fill:none;stroke:#000000;stroke-width:1.99999988000000010;stroke-miterlimit:4;stroke-opacity:1;stroke-dasharray:none;marker:none;visibility:visible;display:inline;overflow:visible;enable-background:accumulate;opacity:1"
       rx="44"
       ry="44" />
    <path
       style="opacity:1;color:#000000;fill:#0d69e1;fill-opacity:1;fill-rule:nonzero;stroke:none;stroke-width:3.54299997999999980;marker:none;visibility:visible;display:inline;overflow:visible;enable-background:accumulate"
       d="M 45 20 C 31.15 20 20 31.15 20 45 L 20 655 C 20 668.85 31.15 680 45 680 L 93.34375 680 L 93.34375 466.125 C 55.855868 451.9731 29.15625 415.78486 29.15625 373.34375 C 29.15625 330.90263 55.855868 294.6831 93.34375 280.53125 L 93.34375 233.34375 L 35 233.34375 L 128.34375 70 L 221.65625 233.34375 L 163.34375 233.34375 L 163.34375 280.53125 C 200.83164 294.6831 227.5 330.90263 227.5 373.34375 C 227.5 415.78486 200.83164 451.9731 163.34375 466.125 L 163.34375 680 L 315 680 L 315 676.65625 L 315 466.125 C 277.51212 451.9731 250.84375 415.78486 250.84375 373.34375 C 250.84375 330.90263 277.51212 294.6831 315 280.53125 L 315 233.34375 L 256.65625 233.34375 L 350 70 L 443.34375 233.34375 L 385 233.34375 L 385 280.53125 C 422.48788 294.6831 449.15625 330.90263 449.15625 373.34375 C 449.15625 415.78486 422.48788 451.9731 385 466.125 L 385 548.65625 L 512.75 420.90625 C 528.06547 405.59084 536.65625 384.81565 536.65625 363.15625 L 536.65625 233.34375 L 478.34375 233.34375 L 571.65625 70 L 665 233.34375 L 606.65625 233.34375 L 606.65625 363.15625 C 606.65625 403.38082 590.69298 441.96327 562.25 470.40625 L 405.5 627.15625 C 392.37246 640.28366 385 658.09105 385 676.65625 L 385 680 L 655 680 C 668.85 680 680 668.85 680 655 L 680 45 C 680 31.15 668.85 20 655 20 L 45 20 z M 128.34375 285.84375 C 80.018843 285.84375 40.84375 325.01878 40.84375 373.34375 C 40.84375 421.6686 80.018843 460.84375 128.34375 460.84375 C 176.66867 460.84375 215.84375 421.6686 215.84375 373.34375 C 215.84375 325.01878 176.66867 285.84375 128.34375 285.84375 z M 350 285.84375 C 301.67508 285.84375 262.5 325.01878 262.5 373.34375 C 262.5 421.6686 301.67508 460.84375 350 460.84375 C 398.32492 460.84375 437.5 421.6686 437.5 373.34375 C 437.5 325.01878 398.32492 285.84375 350 285.84375 z M 94.8125 335.0625 C 101.09299 335.06257 106.50067 336.70217 111.03125 339.96875 C 115.56173 343.23547 117.94231 348.123 118.15625 354.65625 C 117.99488 358.97727 116.8783 362.38949 114.78125 364.84375 C 112.68409 367.2981 110.56581 368.99758 108.46875 370 C 106.3716 371.00251 105.25502 371.50336 105.09375 371.46875 C 105.27807 371.45727 106.57201 372.10424 108.96875 373.40625 C 111.3654 374.70834 113.7595 376.74614 116.15625 379.5 C 118.55289 382.25393 119.84683 385.78101 120.03125 390.125 C 120.14786 395.10277 118.28743 399.86392 114.4375 404.375 C 110.58747 408.8861 104.02909 411.28264 94.8125 411.59375 C 85.595846 411.28264 79.068714 408.88609 75.21875 404.375 C 71.368758 399.86392 69.508327 395.10277 69.625 390.125 C 69.809352 385.78101 71.103293 382.25393 73.5 379.5 C 75.896682 376.74614 78.290785 374.70834 80.6875 373.40625 C 83.084176 372.10424 84.378114 371.45727 84.5625 371.46875 C 84.401159 371.50335 83.284588 371.0025 81.1875 370 C 79.090373 368.99758 76.972094 367.2981 74.875 364.84375 C 72.777879 362.38949 71.661308 358.97727 71.5 354.65625 C 71.713877 348.12301 74.094452 343.23547 78.625 339.96875 C 83.155513 336.70217 88.53194 335.06258 94.8125 335.0625 z M 162 335.0625 C 169.58326 335.33202 175.66872 339.06399 180.21875 346.25 C 184.76867 353.43614 187.10202 362.4744 187.21875 373.34375 C 187.10202 384.73817 184.76867 393.91393 180.21875 400.875 C 175.66872 407.83609 169.58326 411.39931 162 411.59375 C 154.41667 411.3993 148.36246 407.83608 143.8125 400.875 C 139.26251 393.91394 136.92916 384.73817 136.8125 373.34375 C 136.92916 361.9494 139.26251 352.77364 143.8125 345.8125 C 148.36246 338.85149 154.41667 335.25702 162 335.0625 z M 382.8125 335.0625 C 390.39576 335.33202 396.44997 339.06399 401 346.25 C 405.54992 353.43614 407.88327 362.4744 408 373.34375 C 407.88327 384.73817 405.54992 393.91393 401 400.875 C 396.44997 407.83609 390.39576 411.39931 382.8125 411.59375 C 375.22917 411.3993 369.17496 407.83608 364.625 400.875 C 360.07501 393.91394 357.74166 384.73817 357.625 373.34375 C 357.74166 361.9494 360.07501 352.77364 364.625 345.8125 C 369.17496 338.85149 375.22917 335.25702 382.8125 335.0625 z M 293.84375 336 L 336.78125 336 L 333.0625 348.125 L 306 348.125 L 306 365.875 C 307.46386 364.04728 309.28609 362.78616 311.5 362.125 C 313.71385 361.46394 315.92775 361.14866 318.125 361.1875 C 323.54993 361.22644 328.54789 363.27576 333.15625 367.28125 C 337.76451 371.28683 340.23953 377.02576 340.53125 384.53125 C 340.43397 392.19234 337.83256 398.56184 332.71875 403.65625 C 327.60484 408.75068 320.55756 411.39931 311.59375 411.59375 C 307.17986 411.43819 303.15969 410.80763 299.5625 409.71875 C 295.96528 408.62987 294.05763 408.03056 293.84375 407.875 L 292 395.71875 C 294.33887 397.21598 297.07778 398.23613 300.25 398.75 C 303.42219 399.2639 306.57985 399.50487 309.71875 399.46875 C 313.68537 399.46876 317.40623 398.30209 320.90625 395.96875 C 324.4062 393.63544 326.29788 390.13542 326.53125 385.46875 C 326.51176 382.02713 325.36106 378.8896 323.125 376.03125 C 320.88886 373.17297 317.68814 371.64379 313.46875 371.46875 C 310.66873 371.64379 308.33539 372.44796 306.46875 373.90625 C 304.60207 375.36461 303.18331 376.42087 302.25 377.0625 L 293.84375 372.40625 L 293.84375 336 z M 94.8125 345.71875 C 91.934706 345.6827 89.538159 346.36951 87.59375 347.75 C 85.649289 349.13061 84.640255 351.42577 84.5625 354.65625 C 84.990251 357.57296 86.693042 360.15839 89.6875 362.375 C 92.681901 364.5917 94.38469 365.75838 94.8125 365.875 C 95.24024 365.75838 96.974282 364.5917 99.96875 362.375 C 102.96314 360.15839 104.66593 357.57296 105.09375 354.65625 C 105.01593 351.42577 104.00689 349.13061 102.0625 347.75 C 100.11802 346.36951 97.690227 345.6827 94.8125 345.71875 z M 162 346.65625 C 158.34443 346.60076 155.43885 348.7223 153.25 353 C 151.0611 357.27781 149.93053 364.06606 149.875 373.34375 C 149.93053 382.62151 151.0611 389.37851 153.25 393.65625 C 155.43885 397.93402 158.34443 400.05557 162 400 C 165.6555 400.05556 168.59233 397.93402 170.78125 393.65625 C 172.97008 389.37851 174.10065 382.62152 174.15625 373.34375 C 174.10065 364.06605 172.97009 357.27781 170.78125 353 C 168.59233 348.7223 165.6555 346.60076 162 346.65625 z M 382.125 346.65625 C 378.78224 346.85927 376.0833 348.98966 374.03125 353 C 371.84235 357.27781 370.74303 364.06606 370.6875 373.34375 C 370.74303 382.62151 371.84235 389.37851 374.03125 393.65625 C 376.2201 397.93402 379.15693 400.05557 382.8125 400 C 386.468 400.05556 389.40483 397.93402 391.59375 393.65625 C 393.78258 389.37851 394.8819 382.62152 394.9375 373.34375 C 394.8819 364.06605 393.78259 357.27781 391.59375 353 C 389.40483 348.7223 386.468 346.60076 382.8125 346.65625 C 382.58403 346.65278 382.34785 346.64272 382.125 346.65625 z M 94.8125 377.0625 C 94.662672 377.11438 93.634784 377.85004 91.6875 379.25 C 89.740155 380.65003 87.79104 382.40536 85.84375 384.53125 C 83.896411 386.65719 82.837273 388.8329 82.6875 391.0625 C 82.843029 394.30972 84.167347 396.6903 86.65625 398.1875 C 89.145102 399.68473 91.856925 400.4257 94.8125 400.40625 C 97.768005 400.4257 100.51108 399.68473 103 398.1875 C 105.48884 396.6903 106.81315 394.30972 106.96875 391.0625 C 106.81891 388.53908 105.75977 386.23366 103.8125 384.125 C 101.86514 382.0164 99.916028 380.31029 97.96875 379.03125 C 96.021399 377.75228 94.962261 377.0971 94.8125 377.0625 z "
       transform="translate(0,352.36218)"
       id="rect9536" />
  </g>
</svg>
