<?xml version="1.0" encoding="UTF-8" standalone="no"?>
<!-- Created with Inkscape (http://www.inkscape.org/) -->

<svg
   xmlns:dc="http://purl.org/dc/elements/1.1/"
   xmlns:cc="http://creativecommons.org/ns#"
   xmlns:rdf="http://www.w3.org/1999/02/22-rdf-syntax-ns#"
   xmlns:svg="http://www.w3.org/2000/svg"
   xmlns="http://www.w3.org/2000/svg"
   xmlns:sodipodi="http://sodipodi.sourceforge.net/DTD/sodipodi-0.dtd"
   xmlns:inkscape="http://www.inkscape.org/namespaces/inkscape"
   width="1050"
   height="350"
   id="svg2"
   version="1.1"
   inkscape:version="0.48.4 r9939"
   sodipodi:docname="5.24.1.svg">
  <title
     id="title3006">5.24.1 Конец населенного пункта</title>
  <defs
     id="defs4" />
  <sodipodi:namedview
     id="base"
     pagecolor="#ffffff"
     bordercolor="#666666"
     borderopacity="1.0"
     inkscape:pageopacity="0.0"
     inkscape:pageshadow="2"
     inkscape:zoom="1"
     inkscape:cx="529.72108"
     inkscape:cy="182.37708"
     inkscape:document-units="px"
     inkscape:current-layer="layer1"
     showgrid="false"
     inkscape:window-width="1920"
     inkscape:window-height="1024"
     inkscape:window-x="-4"
     inkscape:window-y="-4"
     inkscape:window-maximized="1"
     inkscape:snap-bbox="true"
     inkscape:bbox-paths="true"
     inkscape:bbox-nodes="true"
     inkscape:snap-bbox-edge-midpoints="true"
     inkscape:snap-bbox-midpoints="true"
     inkscape:object-paths="true"
     inkscape:snap-intersection-paths="true"
     inkscape:object-nodes="true"
     inkscape:snap-smooth-nodes="true"
     inkscape:snap-midpoints="true"
     inkscape:snap-object-midpoints="true" />
  <metadata
     id="metadata7">
    <rdf:RDF>
      <cc:Work
         rdf:about="">
        <dc:format>image/svg+xml</dc:format>
        <dc:type
           rdf:resource="http://purl.org/dc/dcmitype/StillImage" />
        <dc:title>5.24.1 Конец населенного пункта</dc:title>
        <cc:license
           rdf:resource="http://creativecommons.org/licenses/by-sa/3.0/" />
        <dc:description>ГОСТ Р 52290-2004</dc:description>
      </cc:Work>
      <cc:License
         rdf:about="http://creativecommons.org/licenses/by-sa/3.0/">
        <cc:permits
           rdf:resource="http://creativecommons.org/ns#Reproduction" />
        <cc:permits
           rdf:resource="http://creativecommons.org/ns#Distribution" />
        <cc:requires
           rdf:resource="http://creativecommons.org/ns#Notice" />
        <cc:requires
           rdf:resource="http://creativecommons.org/ns#Attribution" />
        <cc:permits
           rdf:resource="http://creativecommons.org/ns#DerivativeWorks" />
        <cc:requires
           rdf:resource="http://creativecommons.org/ns#ShareAlike" />
      </cc:License>
    </rdf:RDF>
  </metadata>
  <g
     inkscape:label="Layer 1"
     inkscape:groupmode="layer"
     id="layer1"
     transform="translate(0,-702.36218)">
    <rect
       y="702.36218"
       x="0"
       height="350"
       width="1050"
       id="rect8314"
       style="color:#000000;fill:#ffffff;fill-opacity:1;fill-rule:nonzero;stroke:none;stroke-width:3.54299997999999980;marker:none;visibility:visible;display:inline;overflow:visible;enable-background:accumulate;opacity:1"
       rx="45"
       ry="45" />
    <path
       style="color:#000000;fill:#1a1a1a;fill-opacity:1;fill-rule:nonzero;stroke:none;stroke-width:3.54299997999999980;marker:none;visibility:visible;display:inline;overflow:visible;enable-background:accumulate;opacity:1"
       d="m 45.00001,712.36219 c -19.39,0 -35,15.61 -35,35 l 0,260.00011 c 0,19.39 15.61,35 35,35 l 959.99999,0 c 19.39,0 35,-15.61 35,-35 l 0,-260.00011 c 0,-19.39 -15.61,-35 -35,-35 l -959.99999,0 z m 0,10 959.99999,0 c 13.85,0 25,11.15 25,25 l 0,260.00011 c 0,13.85 -11.15,25 -25,25 l -959.99999,0 c -13.85,0 -25,-11.15 -25,-25 l 0,-260.00011 c 0,-13.85 11.15,-25 25,-25 z"
       id="rect8316"
       inkscape:connector-curvature="0" />
    <rect
       ry="44"
       rx="44"
       style="color:#000000;fill:none;stroke:#000000;stroke-width:2;stroke-miterlimit:4;stroke-opacity:1;stroke-dasharray:none;marker:none;visibility:visible;display:inline;overflow:visible;enable-background:accumulate;opacity:1"
       id="rect8382"
       width="1048"
       height="348"
       x="1"
       y="703.36218" />
    <g
       style="font-size:267.85961914px;font-style:normal;font-variant:normal;font-weight:normal;font-stretch:normal;line-height:125%;letter-spacing:0px;word-spacing:0px;fill:#000000;fill-opacity:1;stroke:none;font-family:Arial;-inkscape-font-specification:Arial"
       id="text7849">
      <path
         d="m 99.624837,802.36291 c 0.01153,11.66676 -0.01162,24.58336 -0.06945,38.74985 -0.05792,14.16671 -0.219955,27.08332 -0.486111,38.74986 -0.266245,11.66669 -0.706057,19.58332 -1.319436,23.74992 -1.450103,6.83037 -4.442814,12.24701 -8.978143,16.24994 -4.535397,4.00299 -8.877309,6.86011 -13.025749,8.57139 -4.148483,1.71133 -6.367387,2.54466 -6.656718,2.5 l 4.285699,25.17848 c 0.525773,0.27777 4.503928,-0.69444 11.934476,-2.91666 7.430486,-2.22221 15.158622,-7.36108 23.184442,-15.41661 8.0257,-8.0555 13.19433,-20.69433 15.5059,-37.91652 0.61335,-6.82862 1.05316,-16.08784 1.31943,-27.77768 0.26613,-11.68968 0.42817,-22.33779 0.48611,-31.94434 0.0578,-9.60632 0.081,-14.69889 0.0695,-15.27771 l 41.24985,0 0,127.49954 26.24991,0 0,-149.99946 z"
         style="fill:#000000;font-family:Russian Road Sign;-inkscape-font-specification:Russian Road Sign"
         id="path8165" />
      <path
         d="m 350.97648,952.36237 0,-149.99946 -28.1249,0 -54.3748,103.12463 0,-103.12463 -26.24991,0 0,149.99946 28.1249,0 54.3748,-103.12463 0,103.12463 z"
         style="fill:#000000;font-family:Russian Road Sign;-inkscape-font-specification:Russian Road Sign"
         id="path8167" />
      <path
         d="m 399.69901,802.36291 0,149.99946 26.2499,0 0,-127.49954 56.2498,0 0,127.49954 26.2499,0 0,-149.99946 z"
         style="fill:#000000;font-family:Russian Road Sign;-inkscape-font-specification:Russian Road Sign"
         id="path8169" />
      <path
         d="m 557.17118,952.36237 95.62465,0 0,-22.49992 -69.37475,0 0,-44.99984 54.3748,0 0,-22.49992 -54.3748,0 0,-35.62487 67.49976,0 0,-24.37491 -93.74966,0 z"
         style="fill:#000000;font-family:Russian Road Sign;-inkscape-font-specification:Russian Road Sign"
         id="path8171" />
      <path
         d="m 694.06427,952.36237 103.12463,0 0,29.99989 22.49991,0 0,-52.49981 -16.87493,0 0,-127.49954 -26.24991,0 0,127.49954 -56.2498,0 0,-127.49954 -26.2499,0 z"
         style="fill:#000000;font-family:Russian Road Sign;-inkscape-font-specification:Russian Road Sign"
         id="path8173" />
      <path
         d="m 857.16142,802.36291 0,149.99946 26.2499,0 0,-68.57118 c 0.23372,-0.0334 1.63876,-0.16734 4.21512,-0.40179 2.57625,-0.23431 4.9212,-0.36824 7.03484,-0.40178 5.52702,0.0426 10.17497,1.69021 13.94385,4.94278 3.76874,3.25271 7.24576,7.85508 10.43106,13.80715 5.01664,8.90626 10.45188,18.28122 16.30575,28.1249 5.85367,9.84372 10.15052,17.34369 12.89058,22.49992 l 32.67845,0 c -6.5039,-5.36616 -12.41146,-12.69233 -17.72271,-21.97852 -5.31151,-9.28615 -10.65389,-18.83491 -16.02717,-28.6463 -4.2813,-8.24984 -8.71877,-15.33907 -13.31242,-21.26772 -4.59385,-5.9285 -11.40633,-9.46422 -20.43746,-10.60716 3.82879,-0.50512 8.22081,-3.70301 13.17608,-9.59368 4.95508,-5.89048 9.31302,-11.44255 13.07383,-16.65623 3.76009,-5.49592 7.34419,-9.96799 10.75231,-13.41621 3.40789,-3.44799 8.57374,-5.22589 15.49759,-5.33372 l -5.62498,-26.24991 c -12.80099,1.95451 -23.03243,7.83742 -30.69433,17.64875 -7.6621,9.8116 -14.6991,19.32544 -21.11103,28.54156 -6.41208,9.21633 -14.14353,13.90877 -23.19436,14.07733 -0.54105,-0.0284 -0.93274,-0.0816 -1.17506,-0.15957 -0.24242,-0.0778 -0.47573,-0.20319 -0.69994,-0.37614 l 0,-55.98194 z"
         style="fill:#000000;font-family:Russian Road Sign;-inkscape-font-specification:Russian Road Sign"
         id="path8175" />
    </g>
    <path
       style="opacity:1;fill:#ff0000;fill-opacity:1;stroke:none"
       d="m 708.34105,712.36219 -471.289,330.00011 104.60681,0 471.28899,-330.00011 z"
       id="path12330"
       inkscape:connector-curvature="0"
       sodipodi:nodetypes="ccccc" />
  </g>
</svg>
