<?xml version="1.0" encoding="UTF-8" standalone="no"?>
<!-- Created with Inkscape (http://www.inkscape.org/) -->

<svg
   xmlns:dc="http://purl.org/dc/elements/1.1/"
   xmlns:cc="http://creativecommons.org/ns#"
   xmlns:rdf="http://www.w3.org/1999/02/22-rdf-syntax-ns#"
   xmlns:svg="http://www.w3.org/2000/svg"
   xmlns="http://www.w3.org/2000/svg"
   xmlns:sodipodi="http://sodipodi.sourceforge.net/DTD/sodipodi-0.dtd"
   xmlns:inkscape="http://www.inkscape.org/namespaces/inkscape"
   width="700"
   height="700"
   id="svg2"
   version="1.1"
   inkscape:version="0.48.4 r9939"
   sodipodi:docname="5.13.2.svg">
  <title
     id="title3002">5.13.4 Выезд на дорогу с полосой для велосипедистов</title>
  <defs
     id="defs4" />
  <sodipodi:namedview
     id="base"
     pagecolor="#ffffff"
     bordercolor="#666666"
     borderopacity="1.0"
     inkscape:pageopacity="0.0"
     inkscape:pageshadow="2"
     inkscape:zoom="1"
     inkscape:cx="120.3138"
     inkscape:cy="340.09415"
     inkscape:document-units="px"
     inkscape:current-layer="layer1"
     showgrid="false"
     inkscape:window-width="1920"
     inkscape:window-height="1024"
     inkscape:window-x="-4"
     inkscape:window-y="-4"
     inkscape:window-maximized="1"
     inkscape:snap-bbox="false"
     inkscape:bbox-paths="false"
     inkscape:bbox-nodes="false"
     inkscape:snap-bbox-edge-midpoints="false"
     inkscape:snap-bbox-midpoints="false"
     inkscape:object-paths="true"
     inkscape:snap-intersection-paths="true"
     inkscape:object-nodes="true"
     inkscape:snap-smooth-nodes="true"
     inkscape:snap-nodes="true"
     showguides="true"
     inkscape:guide-bbox="true"
     inkscape:snap-object-midpoints="true"
     inkscape:snap-center="true"
     inkscape:snap-page="false"
     inkscape:snap-midpoints="true" />
  <metadata
     id="metadata7">
    <rdf:RDF>
      <cc:Work
         rdf:about="">
        <dc:format>image/svg+xml</dc:format>
        <dc:type
           rdf:resource="http://purl.org/dc/dcmitype/StillImage" />
        <dc:title>5.13.4 Выезд на дорогу с полосой для велосипедистов</dc:title>
        <cc:license
           rdf:resource="http://creativecommons.org/licenses/by-sa/3.0/" />
        <dc:description>ГОСТ Р 52290-2004
Размеры и пропорции по типоразмеру II</dc:description>
      </cc:Work>
      <cc:License
         rdf:about="http://creativecommons.org/licenses/by-sa/3.0/">
        <cc:permits
           rdf:resource="http://creativecommons.org/ns#Reproduction" />
        <cc:permits
           rdf:resource="http://creativecommons.org/ns#Distribution" />
        <cc:requires
           rdf:resource="http://creativecommons.org/ns#Notice" />
        <cc:requires
           rdf:resource="http://creativecommons.org/ns#Attribution" />
        <cc:permits
           rdf:resource="http://creativecommons.org/ns#DerivativeWorks" />
        <cc:requires
           rdf:resource="http://creativecommons.org/ns#ShareAlike" />
      </cc:License>
    </rdf:RDF>
  </metadata>
  <g
     inkscape:label="Layer 1"
     inkscape:groupmode="layer"
     id="layer1"
     transform="translate(0,-352.36218)">
    <rect
       ry="45"
       rx="45"
       style="color:#000000;fill:#ffffff;fill-opacity:1;stroke:none;stroke-width:2;marker:none;visibility:visible;display:inline;overflow:visible;enable-background:accumulate;opacity:1"
       id="rect7667"
       width="700"
       height="700"
       x="0"
       y="352.36218" />
    <path
       style="color:#000000;fill:#0d69e1;fill-opacity:1;fill-rule:nonzero;stroke:none;stroke-width:3.54299998;marker:none;visibility:visible;display:inline;overflow:visible;enable-background:accumulate"
       d="M 45 20 C 31.15 20 20 31.15 20 45 L 20 338.34375 L 680 338.34375 L 680 221.65625 L 233.34375 221.65625 L 233.34375 280 L 71.6875 186.65625 L 233.34375 93.34375 L 233.34375 151.65625 L 680 151.65625 L 680 45 C 680 31.15 668.85 20 655 20 L 45 20 z M 20 361.65625 L 20 655 C 20 668.85 31.15 680 45 680 L 655 680 C 668.85 680 680 668.85 680 655 L 680 361.65625 L 20 361.65625 z M 221.4375 427.90625 L 246.03125 427.90625 C 256.26295 427.90625 264.5625 436.17461 264.5625 446.40625 C 264.5625 453.76794 259.89813 460.3533 252.9375 462.75 C 250.10179 463.72643 248.1875 466.37583 248.1875 469.375 C 248.1875 470.40111 248.41011 471.41383 248.84375 472.34375 L 249.5625 473.90625 L 264.9375 506.875 C 272.43912 502.55113 281.15711 500.09375 290.4375 500.09375 C 318.66265 500.09375 341.53125 522.96233 341.53125 551.1875 C 341.53125 579.41265 318.66265 602.3125 290.4375 602.3125 C 262.21238 602.3125 239.34375 579.41265 239.34375 551.1875 C 239.34375 535.98384 245.99423 522.33025 256.53125 512.96875 L 252.46875 504.28125 L 181.90625 558.21875 L 151.96875 558.21875 C 148.54454 583.11877 127.1849 602.3125 101.34375 602.3125 C 73.11865 602.3125 50.25 579.41265 50.25 551.1875 C 50.25 522.96233 73.11865 500.09375 101.34375 500.09375 C 109.26635 500.09375 116.77614 501.87612 123.46875 505.09375 L 142.6875 477.65625 L 138.0625 466.84375 L 135.21875 466.84375 C 130.98496 466.84375 127.53125 463.42123 127.53125 459.1875 C 127.53125 454.95371 130.98496 451.53125 135.21875 451.53125 L 170.34375 451.53125 C 174.57756 451.53125 178 454.95371 178 459.1875 C 178 463.42123 174.57756 466.84375 170.34375 466.84375 L 147.8125 466.84375 L 150.8125 473.90625 L 238.5625 473.90625 C 238.16614 472.4426 237.96875 470.90073 237.96875 469.375 C 237.96875 462.01332 242.63323 455.45924 249.59375 453.0625 C 252.42952 452.08618 254.34375 449.40549 254.34375 446.40625 C 254.34375 441.81973 250.61783 438.125 246.03125 438.125 L 221.4375 438.125 C 218.61504 438.125 216.3125 435.82248 216.3125 433 C 216.3125 430.17748 218.61504 427.90625 221.4375 427.90625 z M 490 431.65625 L 651.65625 525 L 490 618.34375 L 490 560 L 373.46875 560 L 373.34375 490 L 490 490 L 490 431.65625 z M 155.6875 485.375 L 180.90625 544.46875 L 247.46875 493.5625 L 242.25 485.375 L 155.6875 485.375 z M 146.28125 492.59375 L 133.21875 511.25 C 143.84802 519.74243 151.03872 532.37775 152.28125 546.71875 L 169.375 546.71875 L 146.28125 492.59375 z M 101.34375 507.75 C 77.35239 507.75 57.90625 527.19611 57.90625 551.1875 C 57.90625 575.17892 77.35239 594.625 101.34375 594.625 C 122.9398 594.625 140.85667 578.86454 144.21875 558.21875 L 99.78125 558.21875 C 98.33915 558.21875 96.93132 557.76468 95.75 556.9375 C 92.57094 554.71146 91.8052 550.33531 94.03125 547.15625 L 119 511.5 C 113.60521 509.09713 107.63069 507.75 101.34375 507.75 z M 290.4375 507.75 C 282.31207 507.75 274.72311 509.99235 268.21875 513.875 L 278.96875 536.90625 C 279.68908 538.45087 280.86781 539.74163 282.34375 540.59375 L 293 546.75 C 295.44446 548.16125 296.28637 551.30563 294.875 553.75 C 293.46384 556.19435 290.31939 557.0362 287.875 555.625 L 277.21875 549.4375 C 273.92625 547.53664 271.29431 544.69573 269.6875 541.25 L 259.90625 520.28125 C 251.92788 528.1576 247 539.09053 247 551.1875 C 247 575.17892 266.4461 594.625 290.4375 594.625 C 314.42886 594.625 333.875 575.17892 333.875 551.1875 C 333.875 527.57098 315.03569 508.34474 291.5625 507.75 C 291.1899 507.7398 290.81234 507.75 290.4375 507.75 z M 128.8125 517.53125 L 108.375 546.71875 L 144.5625 546.71875 C 143.35941 534.97825 137.47427 524.60918 128.8125 517.53125 z "
       transform="translate(0,352.36218)"
       id="rect9536" />
    <rect
       y="353.36218"
       x="1"
       height="698"
       width="698"
       id="rect7101"
       style="color:#000000;fill:none;stroke:#000000;stroke-width:2;stroke-miterlimit:4;stroke-opacity:1;stroke-dasharray:none;marker:none;visibility:visible;display:inline;overflow:visible;enable-background:accumulate;opacity:1"
       rx="44"
       ry="44" />
  </g>
</svg>
