<?xml version="1.0" encoding="UTF-8" standalone="no"?>
<!-- Created with Inkscape (http://www.inkscape.org/) -->

<svg
   xmlns:dc="http://purl.org/dc/elements/1.1/"
   xmlns:cc="http://creativecommons.org/ns#"
   xmlns:rdf="http://www.w3.org/1999/02/22-rdf-syntax-ns#"
   xmlns:svg="http://www.w3.org/2000/svg"
   xmlns="http://www.w3.org/2000/svg"
   xmlns:sodipodi="http://sodipodi.sourceforge.net/DTD/sodipodi-0.dtd"
   xmlns:inkscape="http://www.inkscape.org/namespaces/inkscape"
   width="700"
   height="700"
   id="svg2"
   version="1.1"
   inkscape:version="0.48.4 r9939"
   sodipodi:docname="5.13.3.svg">
  <title
     id="title3002">5.13.3 Выезд на дорогу с полосой для велосипедистов</title>
  <defs
     id="defs4" />
  <sodipodi:namedview
     id="base"
     pagecolor="#ffffff"
     bordercolor="#666666"
     borderopacity="1.0"
     inkscape:pageopacity="0.0"
     inkscape:pageshadow="2"
     inkscape:zoom="1"
     inkscape:cx="356.6311"
     inkscape:cy="325.68778"
     inkscape:document-units="px"
     inkscape:current-layer="layer1"
     showgrid="false"
     inkscape:window-width="1920"
     inkscape:window-height="1024"
     inkscape:window-x="-4"
     inkscape:window-y="-4"
     inkscape:window-maximized="1"
     inkscape:snap-bbox="false"
     inkscape:bbox-paths="true"
     inkscape:bbox-nodes="true"
     inkscape:snap-bbox-edge-midpoints="true"
     inkscape:snap-bbox-midpoints="true"
     inkscape:object-paths="false"
     inkscape:snap-intersection-paths="true"
     inkscape:object-nodes="false"
     inkscape:snap-smooth-nodes="false"
     inkscape:snap-nodes="true"
     showguides="true"
     inkscape:guide-bbox="true"
     inkscape:snap-object-midpoints="true"
     inkscape:snap-center="true" />
  <metadata
     id="metadata7">
    <rdf:RDF>
      <cc:Work
         rdf:about="">
        <dc:format>image/svg+xml</dc:format>
        <dc:type
           rdf:resource="http://purl.org/dc/dcmitype/StillImage" />
        <dc:title>5.13.3 Выезд на дорогу с полосой для велосипедистов</dc:title>
        <cc:license
           rdf:resource="http://creativecommons.org/licenses/by-sa/3.0/" />
        <dc:description>ГОСТ Р 52290-2004
Размеры и пропорции по типоразмеру II</dc:description>
      </cc:Work>
      <cc:License
         rdf:about="http://creativecommons.org/licenses/by-sa/3.0/">
        <cc:permits
           rdf:resource="http://creativecommons.org/ns#Reproduction" />
        <cc:permits
           rdf:resource="http://creativecommons.org/ns#Distribution" />
        <cc:requires
           rdf:resource="http://creativecommons.org/ns#Notice" />
        <cc:requires
           rdf:resource="http://creativecommons.org/ns#Attribution" />
        <cc:permits
           rdf:resource="http://creativecommons.org/ns#DerivativeWorks" />
        <cc:requires
           rdf:resource="http://creativecommons.org/ns#ShareAlike" />
      </cc:License>
    </rdf:RDF>
  </metadata>
  <g
     inkscape:label="Layer 1"
     inkscape:groupmode="layer"
     id="layer1"
     transform="translate(0,-352.36218)">
    <rect
       ry="45"
       rx="45"
       style="color:#000000;fill:#ffffff;fill-opacity:1;stroke:none;stroke-width:2;marker:none;visibility:visible;display:inline;overflow:visible;enable-background:accumulate;opacity:1"
       id="rect7667"
       width="700"
       height="700"
       x="0"
       y="352.36218" />
    <path
       style="color:#000000;fill:#0d69e1;fill-opacity:1;fill-rule:nonzero;stroke:none;stroke-width:3.54299998;marker:none;visibility:visible;display:inline;overflow:visible;enable-background:accumulate"
       d="M 45 20 C 31.15 20 20 31.15 20 45 L 20 338.34375 L 680 338.34375 L 680 45 C 680 31.15 668.85 20 655 20 L 45 20 z M 210 93.34375 L 210 151.65625 L 326.53125 151.65625 L 326.65625 221.65625 L 210 221.65625 L 210 280 L 48.34375 186.65625 L 210 93.34375 z M 453.96875 97.6875 L 478.5625 97.6875 C 481.38496 97.6875 483.6875 99.98998 483.6875 102.8125 C 483.6875 105.63498 481.38496 107.90625 478.5625 107.90625 L 453.96875 107.90625 C 449.38217 107.90625 445.65625 111.63223 445.65625 116.21875 C 445.65625 119.21799 447.57048 121.89868 450.40625 122.875 C 457.36677 125.27174 462.03125 131.82582 462.03125 139.1875 C 462.03125 140.71323 461.83386 142.22385 461.4375 143.6875 L 549.1875 143.6875 L 552.1875 136.65625 L 529.65625 136.65625 C 525.42244 136.65625 522 133.23373 522 129 C 522 124.76621 525.42244 121.3125 529.65625 121.3125 L 564.78125 121.3125 C 569.01504 121.3125 572.46875 124.76621 572.46875 129 C 572.46875 133.23373 569.01504 136.65625 564.78125 136.65625 L 561.9375 136.65625 L 557.3125 147.46875 L 576.53125 174.90625 C 583.22386 171.68862 590.73365 169.875 598.65625 169.875 C 626.88136 169.875 649.75 192.74358 649.75 220.96875 C 649.75 249.1939 626.88136 272.09375 598.65625 272.09375 C 572.8151 272.09375 551.45546 252.93127 548.03125 228.03125 L 518.09375 228.03125 L 447.53125 174.0625 L 443.46875 182.78125 C 454.00577 192.14275 460.65625 205.76509 460.65625 220.96875 C 460.65625 249.1939 437.78762 272.09375 409.5625 272.09375 C 381.33735 272.09375 358.46875 249.1939 358.46875 220.96875 C 358.46875 192.74358 381.33735 169.875 409.5625 169.875 C 418.84289 169.875 427.56088 172.36363 435.0625 176.6875 L 450.4375 143.6875 L 451.15625 142.15625 C 451.58989 141.22633 451.8125 140.21361 451.8125 139.1875 C 451.8125 136.18833 449.89821 133.50768 447.0625 132.53125 C 440.10187 130.13455 435.4375 123.58044 435.4375 116.21875 C 435.4375 105.98711 443.73705 97.6875 453.96875 97.6875 z M 457.75 155.1875 L 452.53125 163.375 L 519.09375 214.25 L 544.3125 155.1875 L 457.75 155.1875 z M 553.71875 162.375 L 530.625 216.53125 L 547.71875 216.53125 C 548.96128 202.19025 556.15198 189.55493 566.78125 181.0625 L 553.71875 162.375 z M 408.4375 177.5625 C 384.96431 178.15724 366.125 197.35223 366.125 220.96875 C 366.125 244.96017 385.57114 264.4375 409.5625 264.4375 C 433.5539 264.4375 453 244.96017 453 220.96875 C 453 208.87178 448.07212 197.93885 440.09375 190.0625 L 430.3125 211.03125 C 428.70569 214.47698 426.07375 217.34914 422.78125 219.25 L 412.125 225.40625 C 409.68061 226.81745 406.53616 225.9756 405.125 223.53125 C 403.71363 221.08688 404.55554 217.97375 407 216.5625 L 417.65625 210.40625 C 419.13219 209.55413 420.31092 208.26337 421.03125 206.71875 L 431.78125 183.65625 C 425.27689 179.7736 417.68793 177.5625 409.5625 177.5625 C 409.18766 177.5625 408.8101 177.5523 408.4375 177.5625 z M 598.65625 177.5625 C 592.36931 177.5625 586.39479 178.90963 581 181.3125 L 605.96875 216.9375 C 608.1948 220.11656 607.42906 224.52396 604.25 226.75 C 603.06868 227.57718 601.66085 228.03125 600.21875 228.03125 L 555.78125 228.03125 C 559.14333 248.67704 577.0602 264.4375 598.65625 264.4375 C 622.64766 264.4375 642.09375 244.96017 642.09375 220.96875 C 642.09375 196.97736 622.64766 177.5625 598.65625 177.5625 z M 571.1875 187.34375 C 562.52573 194.42168 556.64059 204.79075 555.4375 216.53125 L 591.625 216.53125 L 571.1875 187.34375 z M 20 361.65625 L 20 490 L 466.65625 490 L 466.65625 431.65625 L 628.3125 525 L 466.65625 618.34375 L 466.65625 560 L 20 560 L 20 655 C 20 668.85 31.15 680 45 680 L 655 680 C 668.85 680 680 668.85 680 655 L 680 361.65625 L 20 361.65625 z "
       transform="translate(0,352.36218)"
       id="rect9536" />
    <rect
       y="353.36218"
       x="1"
       height="698"
       width="698"
       id="rect7101"
       style="color:#000000;fill:none;stroke:#000000;stroke-width:2;stroke-miterlimit:4;stroke-opacity:1;stroke-dasharray:none;marker:none;visibility:visible;display:inline;overflow:visible;enable-background:accumulate;opacity:1"
       rx="44"
       ry="44" />
  </g>
</svg>
