<?xml version="1.0" encoding="UTF-8" standalone="no"?>
<!-- Created with Inkscape (http://www.inkscape.org/) -->

<svg
   xmlns:dc="http://purl.org/dc/elements/1.1/"
   xmlns:cc="http://creativecommons.org/ns#"
   xmlns:rdf="http://www.w3.org/1999/02/22-rdf-syntax-ns#"
   xmlns:svg="http://www.w3.org/2000/svg"
   xmlns="http://www.w3.org/2000/svg"
   xmlns:sodipodi="http://sodipodi.sourceforge.net/DTD/sodipodi-0.dtd"
   xmlns:inkscape="http://www.inkscape.org/namespaces/inkscape"
   width="700"
   height="700"
   id="svg2"
   version="1.1"
   inkscape:version="0.48.4 r9939"
   sodipodi:docname="5.11.svg">
  <title
     id="title3002">5.11 Дорога с полосой для маршрутных транспортных средств</title>
  <defs
     id="defs4" />
  <sodipodi:namedview
     id="base"
     pagecolor="#ffffff"
     bordercolor="#666666"
     borderopacity="1.0"
     inkscape:pageopacity="0.0"
     inkscape:pageshadow="2"
     inkscape:zoom="1"
     inkscape:cx="478.61944"
     inkscape:cy="367.0745"
     inkscape:document-units="px"
     inkscape:current-layer="layer1"
     showgrid="false"
     inkscape:window-width="1920"
     inkscape:window-height="1024"
     inkscape:window-x="-4"
     inkscape:window-y="-4"
     inkscape:window-maximized="1"
     inkscape:snap-bbox="true"
     inkscape:bbox-paths="false"
     inkscape:bbox-nodes="false"
     inkscape:snap-bbox-edge-midpoints="false"
     inkscape:snap-bbox-midpoints="false"
     inkscape:object-paths="false"
     inkscape:snap-intersection-paths="false"
     inkscape:object-nodes="false"
     inkscape:snap-smooth-nodes="false"
     inkscape:snap-nodes="true"
     showguides="true"
     inkscape:guide-bbox="true"
     inkscape:snap-object-midpoints="false"
     inkscape:snap-center="false"
     inkscape:snap-midpoints="false" />
  <metadata
     id="metadata7">
    <rdf:RDF>
      <cc:Work
         rdf:about="">
        <dc:format>image/svg+xml</dc:format>
        <dc:type
           rdf:resource="http://purl.org/dc/dcmitype/StillImage" />
        <dc:title>5.11 Дорога с полосой для маршрутных транспортных средств</dc:title>
        <cc:license
           rdf:resource="http://creativecommons.org/licenses/by-sa/3.0/" />
        <dc:description>ГОСТ Р 52290-2004
Размеры и пропорции по типоразмеру II</dc:description>
      </cc:Work>
      <cc:License
         rdf:about="http://creativecommons.org/licenses/by-sa/3.0/">
        <cc:permits
           rdf:resource="http://creativecommons.org/ns#Reproduction" />
        <cc:permits
           rdf:resource="http://creativecommons.org/ns#Distribution" />
        <cc:requires
           rdf:resource="http://creativecommons.org/ns#Notice" />
        <cc:requires
           rdf:resource="http://creativecommons.org/ns#Attribution" />
        <cc:permits
           rdf:resource="http://creativecommons.org/ns#DerivativeWorks" />
        <cc:requires
           rdf:resource="http://creativecommons.org/ns#ShareAlike" />
      </cc:License>
    </rdf:RDF>
  </metadata>
  <g
     inkscape:label="Layer 1"
     inkscape:groupmode="layer"
     id="layer1"
     transform="translate(0,-352.36218)">
    <rect
       ry="45"
       rx="45"
       style="color:#000000;fill:#ffffff;fill-opacity:1;stroke:none;stroke-width:2;marker:none;visibility:visible;display:inline;overflow:visible;enable-background:accumulate;opacity:1"
       id="rect7667"
       width="700"
       height="700"
       x="0"
       y="352.36218" />
    <path
       style="opacity:1;color:#000000;fill:#0d69e1;fill-opacity:1;fill-rule:nonzero;stroke:none;stroke-width:3.54299997999999980;marker:none;visibility:visible;display:inline;overflow:visible;enable-background:accumulate"
       d="M 45 20 C 31.15 20 20 31.15 20 45 L 20 655 C 20 668.85 31.15 680 45 680 L 338.34375 680 L 338.34375 20 L 45 20 z M 361.65625 20 L 361.65625 680 L 490 680 L 490 233.34375 L 431.65625 233.34375 L 525 70 L 618.34375 233.34375 L 560 233.34375 L 560 680 L 655 680 C 668.85 680 680 668.85 680 655 L 680 45 C 680 31.15 668.85 20 655 20 L 361.65625 20 z M 105 70 L 245 70 C 264.39 70 280 85.61 280 105 L 280 268.34375 C 280 274.80708 274.80708 280 268.34375 280 L 81.65625 280 C 75.19292 280 70 274.80708 70 268.34375 L 70 105 C 70 85.61 85.61001 70 105 70 z M 98 85.15625 C 91.53666 85.15625 86.34375 90.38041 86.34375 96.84375 L 86.34375 151.65625 C 86.34375 158.11959 91.53666 163.34375 98 163.34375 L 254.34375 163.34375 C 260.80709 163.34375 266 158.11959 266 151.65625 L 266 96.84375 C 266 90.38041 260.80709 85.15625 254.34375 85.15625 L 98 85.15625 z M 106.15625 217.59375 C 97.1356 217.59375 89.84375 224.88559 89.84375 233.90625 C 89.84375 242.9269 97.1356 250.25 106.15625 250.25 C 115.1769 250.25 122.5 242.9269 122.5 233.90625 C 122.5 224.88559 115.1769 217.59375 106.15625 217.59375 z M 243.84375 217.59375 C 234.8231 217.59375 227.5 224.88559 227.5 233.90625 C 227.5 242.9269 234.8231 250.25 243.84375 250.25 C 252.86441 250.25 260.15625 242.9269 260.15625 233.90625 C 260.15625 224.88559 252.86441 217.59375 243.84375 217.59375 z M 79.34375 291.65625 L 107.34375 291.65625 L 107.34375 312.65625 C 107.34375 320.38824 101.07574 326.65625 93.34375 326.65625 C 85.61176 326.65625 79.34375 320.38824 79.34375 312.65625 L 79.34375 291.65625 z M 242.65625 291.65625 L 270.65625 291.65625 L 270.65625 312.65625 C 270.65625 320.38824 264.38823 326.65625 256.65625 326.65625 C 248.92426 326.65625 242.65625 320.38824 242.65625 312.65625 L 242.65625 291.65625 z M 140 350 L 210 350 L 210 466.65625 L 268.34375 466.65625 L 175 630 L 81.65625 466.65625 L 140 466.65625 L 140 350 z "
       transform="translate(0,352.36218)"
       id="rect8136" />
    <rect
       y="353.36218"
       x="1"
       height="698"
       width="698"
       id="rect7101"
       style="color:#000000;fill:none;stroke:#000000;stroke-width:2;stroke-miterlimit:4;stroke-opacity:1;stroke-dasharray:none;marker:none;visibility:visible;display:inline;overflow:visible;enable-background:accumulate;opacity:1"
       rx="44"
       ry="44" />
  </g>
</svg>
