<?xml version="1.0" encoding="UTF-8" standalone="no"?>
<!-- Created with Inkscape (http://www.inkscape.org/) -->

<svg
   xmlns:dc="http://purl.org/dc/elements/1.1/"
   xmlns:cc="http://creativecommons.org/ns#"
   xmlns:rdf="http://www.w3.org/1999/02/22-rdf-syntax-ns#"
   xmlns:svg="http://www.w3.org/2000/svg"
   xmlns="http://www.w3.org/2000/svg"
   xmlns:sodipodi="http://sodipodi.sourceforge.net/DTD/sodipodi-0.dtd"
   xmlns:inkscape="http://www.inkscape.org/namespaces/inkscape"
   width="700"
   height="700"
   id="svg2"
   version="1.1"
   inkscape:version="0.48.4 r9939"
   sodipodi:docname="5.12.2.svg">
  <title
     id="title3002">5.12.2 Конец дороги с полосой для велосипедистов</title>
  <defs
     id="defs4" />
  <sodipodi:namedview
     id="base"
     pagecolor="#ffffff"
     bordercolor="#666666"
     borderopacity="1.0"
     inkscape:pageopacity="0.0"
     inkscape:pageshadow="2"
     inkscape:zoom="1"
     inkscape:cx="311.12211"
     inkscape:cy="371.07566"
     inkscape:document-units="px"
     inkscape:current-layer="layer1"
     showgrid="false"
     inkscape:window-width="1920"
     inkscape:window-height="1024"
     inkscape:window-x="-4"
     inkscape:window-y="-4"
     inkscape:window-maximized="1"
     inkscape:snap-bbox="true"
     inkscape:bbox-paths="false"
     inkscape:bbox-nodes="false"
     inkscape:snap-bbox-edge-midpoints="false"
     inkscape:snap-bbox-midpoints="false"
     inkscape:object-paths="false"
     inkscape:snap-intersection-paths="true"
     inkscape:object-nodes="false"
     inkscape:snap-smooth-nodes="false"
     inkscape:snap-nodes="true"
     showguides="true"
     inkscape:guide-bbox="true"
     inkscape:snap-object-midpoints="false"
     inkscape:snap-center="false" />
  <metadata
     id="metadata7">
    <rdf:RDF>
      <cc:Work
         rdf:about="">
        <dc:format>image/svg+xml</dc:format>
        <dc:type
           rdf:resource="http://purl.org/dc/dcmitype/StillImage" />
        <dc:title>5.12.2 Конец дороги с полосой для велосипедистов</dc:title>
        <cc:license
           rdf:resource="http://creativecommons.org/licenses/by-sa/3.0/" />
        <dc:description>ГОСТ Р 52290-2004
Размеры и пропорции по типоразмеру II</dc:description>
      </cc:Work>
      <cc:License
         rdf:about="http://creativecommons.org/licenses/by-sa/3.0/">
        <cc:permits
           rdf:resource="http://creativecommons.org/ns#Reproduction" />
        <cc:permits
           rdf:resource="http://creativecommons.org/ns#Distribution" />
        <cc:requires
           rdf:resource="http://creativecommons.org/ns#Notice" />
        <cc:requires
           rdf:resource="http://creativecommons.org/ns#Attribution" />
        <cc:permits
           rdf:resource="http://creativecommons.org/ns#DerivativeWorks" />
        <cc:requires
           rdf:resource="http://creativecommons.org/ns#ShareAlike" />
      </cc:License>
    </rdf:RDF>
  </metadata>
  <g
     inkscape:label="Layer 1"
     inkscape:groupmode="layer"
     id="layer1"
     transform="translate(0,-352.36218)">
    <rect
       ry="45"
       rx="45"
       style="color:#000000;fill:#ffffff;fill-opacity:1;stroke:none;stroke-width:2;marker:none;visibility:visible;display:inline;overflow:visible;enable-background:accumulate;opacity:1"
       id="rect7667"
       width="700"
       height="700"
       x="0"
       y="352.36218" />
    <path
       inkscape:connector-curvature="0"
       style="color:#000000;fill:#0d69e1;fill-opacity:1;fill-rule:nonzero;stroke:none;stroke-width:3.54299998;marker:none;visibility:visible;display:inline;overflow:visible;enable-background:accumulate"
       d="m 45,372.36216 c -13.85,0 -25,11.15 -25,25 l 0,610.00004 c 0,13.85 11.15,25 25,25 l 293.34375,0 0,-660.00004 -293.34375,0 z m 316.65625,0 0,660.00004 128.34375,0 0,-446.65629 -58.34375,0 L 525,424.04966 l 93.34375,161.65625 -58.34375,0 0,446.65629 95,0 c 13.85,0 25,-11.15 25,-25 l 0,-610.00004 c 0,-13.85 -11.15,-25 -25,-25 l -293.34375,0 z m -223.0625,103.28125 21.71875,0 c 2.49427,0 4.53125,1.99631 4.53125,4.46875 0,2.4724 -2.03698,4.5 -4.53125,4.5 l -21.71875,0 c -4.05327,0 -7.34375,3.23234 -7.34375,7.25 0,2.62724 1.68147,4.95727 4.1875,5.8125 6.15116,2.09949 10.28125,7.8639 10.28125,14.3125 0,1.33651 -0.18097,2.6554 -0.53125,3.9375 l 77.53125,0 2.65625,-6.15625 -19.90625,0 c -3.74149,0 -6.75,-3.01011 -6.75,-6.71875 0,-3.70865 3.00851,-6.71875 6.75,-6.71875 l 31.0625,0 c 3.74146,0 6.78125,3.0101 6.78125,6.71875 0,3.70864 -3.03979,6.71875 -6.78125,6.71875 l -2.53125,0 -4.09375,9.46875 17,24.03125 c 5.9144,-2.81855 12.56113,-4.40625 19.5625,-4.40625 24.94312,0 45.15625,20.05689 45.15625,44.78125 0,24.72439 -20.21313,44.78125 -45.15625,44.78125 -22.83635,0 -41.72393,-16.81337 -44.75,-38.625 l -26.46875,0 -62.34375,-47.25 -3.59375,7.625 c 9.31179,8.20041 15.1875,20.15083 15.1875,33.46875 0,24.72439 -20.21314,44.78125 -45.15625,44.78125 -24.94318,0 -45.15625,-20.05686 -45.15625,-44.78125 0,-24.72436 20.21307,-44.78125 45.15625,-44.78125 8.20126,0 15.9019,2.18116 22.53125,5.96875 l 13.59375,-28.90625 0.625,-1.34375 c 0.38323,-0.81459 0.59375,-1.69489 0.59375,-2.59375 0,-2.62716 -1.68153,-4.98841 -4.1875,-5.84375 -6.15127,-2.09942 -10.28125,-7.83264 -10.28125,-14.28125 0,-8.96259 7.33303,-16.21875 16.375,-16.21875 z m 3.34375,50.34375 -4.625,7.1875 58.8125,44.5625 22.28125,-51.75 -76.46875,0 z m 84.8125,6.3125 -20.40625,47.4375 15.09375,0 c 1.09806,-12.56226 7.45044,-23.62341 16.84375,-31.0625 L 226.75,532.29966 z M 98.34375,545.58091 c -20.74375,0.52097 -37.375,17.37518 -37.375,38.0625 0,21.01577 17.17331,38.03125 38.375,38.03125 21.20166,0 38.40625,-17.01548 38.40625,-38.03125 0,-10.59657 -4.38684,-20.19431 -11.4375,-27.09375 l -8.625,18.375 c -1.41998,3.01834 -3.74659,5.5224 -6.65625,7.1875 l -9.4375,5.40625 c -2.16015,1.23617 -4.90918,0.51616 -6.15625,-1.625 -1.24724,-2.1412 -0.50397,-4.88878 1.65625,-6.125 L 106.5,574.36216 c 1.30433,-0.74645 2.36343,-1.86569 3,-3.21875 l 9.5,-20.1875 c -5.74803,-3.40106 -12.47565,-5.375 -19.65625,-5.375 -0.33128,0 -0.67073,-0.008 -1,0 z m 168.125,0 c -5.55587,0 -10.82626,1.17642 -15.59375,3.28125 l 22.0625,31.25 c 1.96719,2.78476 1.27816,6.61255 -1.53125,8.5625 -1.04394,0.72457 -2.28808,1.125 -3.5625,1.125 l -39.28125,0 c 2.97115,18.08508 18.82138,31.875 37.90625,31.875 21.20166,0 38.375,-17.01548 38.375,-38.03125 0,-21.01569 -17.17334,-38.0625 -38.375,-38.0625 z m -24.28125,8.5625 c -7.65457,6.20005 -12.8743,15.30945 -13.9375,25.59375 l 32,0 -18.0625,-25.59375 z M 210,702.36216 l 0,116.65625 58.34375,0 L 175,980.67466 81.65625,819.01841 l 58.34375,0 0,-116.53125 70,-0.125 z"
       id="rect8136" />
    <rect
       y="353.36218"
       x="1"
       height="698"
       width="698"
       id="rect7101"
       style="color:#000000;fill:none;stroke:#000000;stroke-width:2;stroke-miterlimit:4;stroke-opacity:1;stroke-dasharray:none;marker:none;visibility:visible;display:inline;overflow:visible;enable-background:accumulate;opacity:1"
       rx="44"
       ry="44" />
    <path
       style="opacity:1;color:#000000;fill:#ff0000;fill-opacity:1;fill-rule:nonzero;stroke:none;stroke-width:3.54299997999999980;marker:none;visibility:visible;display:inline;overflow:visible;enable-background:accumulate"
       d="M 625.5625 20 L 20 625.5625 L 20 655 C 20 668.85 31.15 680 45 680 L 74.4375 680 L 680 74.4375 L 680 45 C 680 31.15 668.85 20 655 20 L 625.5625 20 z "
       transform="translate(0,352.36218)"
       id="rect8086" />
  </g>
</svg>
