<?xml version="1.0" encoding="UTF-8" standalone="no"?>
<!-- Created with Inkscape (http://www.inkscape.org/) -->

<svg
   xmlns:dc="http://purl.org/dc/elements/1.1/"
   xmlns:cc="http://creativecommons.org/ns#"
   xmlns:rdf="http://www.w3.org/1999/02/22-rdf-syntax-ns#"
   xmlns:svg="http://www.w3.org/2000/svg"
   xmlns="http://www.w3.org/2000/svg"
   xmlns:sodipodi="http://sodipodi.sourceforge.net/DTD/sodipodi-0.dtd"
   xmlns:inkscape="http://www.inkscape.org/namespaces/inkscape"
   width="700"
   height="350"
   id="svg2"
   version="1.1"
   inkscape:version="0.48.4 r9939"
   sodipodi:docname="6.14.1 D.svg">
  <title
     id="title3002">6.14.1 Номер маршрута</title>
  <defs
     id="defs4" />
  <sodipodi:namedview
     id="base"
     pagecolor="#ffffff"
     bordercolor="#666666"
     borderopacity="1.0"
     inkscape:pageopacity="0.0"
     inkscape:pageshadow="2"
     inkscape:zoom="1"
     inkscape:cx="489.02315"
     inkscape:cy="153.25296"
     inkscape:document-units="px"
     inkscape:current-layer="layer1"
     showgrid="false"
     inkscape:window-width="1920"
     inkscape:window-height="1024"
     inkscape:window-x="-4"
     inkscape:window-y="-4"
     inkscape:window-maximized="1"
     inkscape:snap-bbox="true"
     inkscape:bbox-paths="true"
     inkscape:bbox-nodes="true"
     inkscape:snap-bbox-edge-midpoints="true"
     inkscape:snap-bbox-midpoints="true"
     inkscape:object-paths="true"
     inkscape:snap-intersection-paths="true"
     inkscape:object-nodes="true"
     inkscape:snap-smooth-nodes="true" />
  <metadata
     id="metadata7">
    <rdf:RDF>
      <cc:Work
         rdf:about="">
        <dc:format>image/svg+xml</dc:format>
        <dc:type
           rdf:resource="http://purl.org/dc/dcmitype/StillImage" />
        <dc:title>6.14.1 Номер маршрута</dc:title>
        <cc:license
           rdf:resource="http://creativecommons.org/licenses/by-sa/3.0/" />
        <dc:description>ГОСТ Р 52290-2004
Размеры и пропорции по типоразмеру II</dc:description>
      </cc:Work>
      <cc:License
         rdf:about="http://creativecommons.org/licenses/by-sa/3.0/">
        <cc:permits
           rdf:resource="http://creativecommons.org/ns#Reproduction" />
        <cc:permits
           rdf:resource="http://creativecommons.org/ns#Distribution" />
        <cc:requires
           rdf:resource="http://creativecommons.org/ns#Notice" />
        <cc:requires
           rdf:resource="http://creativecommons.org/ns#Attribution" />
        <cc:permits
           rdf:resource="http://creativecommons.org/ns#DerivativeWorks" />
        <cc:requires
           rdf:resource="http://creativecommons.org/ns#ShareAlike" />
      </cc:License>
    </rdf:RDF>
  </metadata>
  <g
     inkscape:label="Layer 1"
     inkscape:groupmode="layer"
     id="layer1"
     transform="translate(0,-702.36218)">
    <rect
       y="702.36218"
       x="0"
       height="350"
       width="700"
       id="rect7193"
       style="color:#000000;fill:#ffffff;fill-opacity:1;fill-rule:nonzero;stroke:none;stroke-width:3.54299997999999980;marker:none;visibility:visible;display:inline;overflow:visible;enable-background:accumulate;opacity:1"
       rx="45"
       ry="45" />
    <rect
       y="703.36218"
       x="1"
       height="348"
       width="698"
       id="rect7101"
       style="color:#000000;fill:none;stroke:#000000;stroke-width:2;stroke-miterlimit:4;stroke-opacity:1;stroke-dasharray:none;marker:none;visibility:visible;display:inline;overflow:visible;enable-background:accumulate"
       rx="44"
       ry="44" />
    <path
       style="opacity:1;color:#000000;fill:#0d69e1;fill-opacity:1;fill-rule:nonzero;stroke:none;stroke-width:3.54299997999999980;marker:none;visibility:visible;display:inline;overflow:visible;enable-background:accumulate"
       d="M 45 10 C 25.61 10 10 25.61 10 45 L 10 305 C 10 324.39 25.61 340 45 340 L 655 340 C 674.39 340 690 324.39 690 305 L 690 45 C 690 25.61 674.39 10 655 10 L 45 10 z M 138.84375 98.28125 L 190.625 98.28125 C 209.56781 99.1606 222.99328 105.05002 230.90625 116 C 238.81899 126.95025 242.67716 137.68581 242.4375 148.15625 C 242.19759 158.62689 237.38269 169.33121 228.03125 180.28125 C 218.67958 191.23143 206.21084 197.1521 190.625 198.03125 L 165.6875 198.03125 L 165.6875 251.71875 L 138.84375 251.71875 L 138.84375 98.28125 z M 303.96875 98.28125 L 326.96875 98.28125 L 326.96875 251.71875 L 300.125 251.71875 L 300.125 132.8125 L 279.5625 145.6875 L 270.53125 133.90625 L 303.96875 98.28125 z M 392.28125 98.28125 L 415.3125 98.28125 L 415.3125 251.71875 L 388.4375 251.71875 L 388.4375 132.8125 L 367.875 145.6875 L 358.84375 133.90625 L 392.28125 98.28125 z M 465.25 98.28125 L 553.5 98.28125 L 545.8125 123.21875 L 490.1875 123.21875 L 490.1875 159.65625 C 493.19616 155.89974 496.98102 153.32762 501.53125 151.96875 C 506.08137 150.61008 510.60901 149.98267 515.125 150.0625 C 526.27485 150.14252 536.59095 154.29877 546.0625 162.53125 C 555.53385 170.76391 560.55667 182.60524 561.15625 198.03125 C 560.95631 213.77707 555.60416 226.87322 545.09375 237.34375 C 534.58314 247.81431 520.1108 253.25661 501.6875 253.65625 C 492.61564 253.33653 484.39329 252.05048 477 249.8125 C 469.60665 247.57453 465.68959 246.28847 465.25 245.96875 L 461.40625 221.03125 C 466.21332 224.1085 471.88639 226.19384 478.40625 227.25 C 484.92604 228.30621 491.39238 228.79299 497.84375 228.71875 C 505.99633 228.71877 513.68142 226.32695 520.875 221.53125 C 528.06843 216.73561 531.89535 209.52889 532.375 199.9375 C 532.33494 192.86394 530.03327 186.37476 525.4375 180.5 C 520.84157 174.62538 514.20335 171.51601 505.53125 171.15625 C 499.77639 171.516 494.99274 173.19028 491.15625 176.1875 C 487.31967 179.18487 484.41822 181.36875 482.5 182.6875 L 465.25 173.09375 L 465.25 98.28125 z M 165.6875 121.28125 L 165.6875 175 L 182.96875 175 C 190.96146 175.08 197.98789 173.0175 204.0625 168.78125 C 210.13693 164.54516 213.33644 157.66776 213.65625 148.15625 C 213.33644 138.64495 210.13692 131.76755 204.0625 127.53125 C 197.9879 123.2952 190.96146 121.20146 182.96875 121.28125 L 165.6875 121.28125 z "
       transform="translate(0,702.36218)"
       id="rect11470" />
  </g>
</svg>
