<?xml version="1.0" encoding="UTF-8" standalone="no"?>
<!-- Created with Inkscape (http://www.inkscape.org/) -->

<svg
   xmlns:dc="http://purl.org/dc/elements/1.1/"
   xmlns:cc="http://creativecommons.org/ns#"
   xmlns:rdf="http://www.w3.org/1999/02/22-rdf-syntax-ns#"
   xmlns:svg="http://www.w3.org/2000/svg"
   xmlns="http://www.w3.org/2000/svg"
   xmlns:sodipodi="http://sodipodi.sourceforge.net/DTD/sodipodi-0.dtd"
   xmlns:inkscape="http://www.inkscape.org/namespaces/inkscape"
   width="2186"
   height="801"
   id="svg2"
   version="1.1"
   inkscape:version="0.48.4 r9939"
   sodipodi:docname="6.12.svg">
  <title
     id="title3006">6.12 Указатель расстояний</title>
  <defs
     id="defs4" />
  <sodipodi:namedview
     id="base"
     pagecolor="#ffffff"
     bordercolor="#666666"
     borderopacity="1.0"
     inkscape:pageopacity="0.0"
     inkscape:pageshadow="2"
     inkscape:zoom="0.5"
     inkscape:cx="1137.3711"
     inkscape:cy="385.52609"
     inkscape:document-units="px"
     inkscape:current-layer="layer1"
     showgrid="false"
     inkscape:window-width="1920"
     inkscape:window-height="1024"
     inkscape:window-x="-4"
     inkscape:window-y="-4"
     inkscape:window-maximized="1"
     inkscape:snap-bbox="true"
     inkscape:bbox-paths="true"
     inkscape:bbox-nodes="true"
     inkscape:snap-bbox-edge-midpoints="true"
     inkscape:snap-bbox-midpoints="true"
     inkscape:object-paths="true"
     inkscape:snap-intersection-paths="true"
     inkscape:object-nodes="true"
     inkscape:snap-smooth-nodes="true"
     inkscape:snap-midpoints="true"
     inkscape:snap-object-midpoints="true"
     showguides="true"
     inkscape:guide-bbox="true" />
  <metadata
     id="metadata7">
    <rdf:RDF>
      <cc:Work
         rdf:about="">
        <dc:format>image/svg+xml</dc:format>
        <dc:type
           rdf:resource="http://purl.org/dc/dcmitype/StillImage" />
        <dc:title>6.12 Указатель расстояний</dc:title>
        <cc:license
           rdf:resource="http://creativecommons.org/licenses/by-sa/3.0/" />
        <dc:description>ГОСТ Р 52290-2004</dc:description>
      </cc:Work>
      <cc:License
         rdf:about="http://creativecommons.org/licenses/by-sa/3.0/">
        <cc:permits
           rdf:resource="http://creativecommons.org/ns#Reproduction" />
        <cc:permits
           rdf:resource="http://creativecommons.org/ns#Distribution" />
        <cc:requires
           rdf:resource="http://creativecommons.org/ns#Notice" />
        <cc:requires
           rdf:resource="http://creativecommons.org/ns#Attribution" />
        <cc:permits
           rdf:resource="http://creativecommons.org/ns#DerivativeWorks" />
        <cc:requires
           rdf:resource="http://creativecommons.org/ns#ShareAlike" />
      </cc:License>
    </rdf:RDF>
  </metadata>
  <g
     inkscape:label="Layer 1"
     inkscape:groupmode="layer"
     id="layer1"
     transform="translate(0,-251.36218)">
    <rect
       style="color:#000000;fill:#ffffff;fill-opacity:1;stroke:none;stroke-width:1.99999975999999990;marker:none;visibility:visible;display:inline;overflow:visible;enable-background:accumulate;opacity:1"
       id="rect6880"
       width="2186"
       height="801"
       x="0"
       y="251.36218"
       ry="45"
       rx="45" />
    <path
       style="opacity:1;color:#000000;fill:#0d69e1;fill-opacity:1;fill-rule:nonzero;stroke:none;stroke-width:3.54299997999999980;marker:none;visibility:visible;display:inline;overflow:visible;enable-background:accumulate"
       d="M 53 15.8125 C 33.61 15.8125 18 31.4225 18 50.8125 L 18 745.8125 C 18 765.2025 33.61 780.8125 53 780.8125 L 2133 780.8125 C 2152.39 780.8125 2168 765.2025 2168 745.8125 L 2168 50.8125 C 2168 31.4225 2152.39 15.8125 2133 15.8125 L 53 15.8125 z M 2061.4062 79.3125 C 2071.2834 79.440997 2080.2968 82.507962 2088.5 88.5625 C 2096.703 94.617327 2101.0602 102.87178 2101.5625 113.3125 C 2101.2499 123.78136 2098.1249 132.3751 2092.1875 139.09375 C 2086.2499 145.81259 2079.3749 149.71883 2071.5625 150.8125 C 2074.9635 151.41443 2079.5145 153.14476 2085.1875 155.96875 C 2090.8604 158.7929 2095.9936 162.8635 2100.625 168.1875 C 2105.2562 173.51164 2107.7238 180.2107 2108 188.3125 C 2107.9273 200.18753 2103.1953 211.12502 2093.7812 221.125 C 2084.3673 231.12501 2070.6975 236.4375 2052.8125 237.0625 C 2044.654 236.79464 2036.3908 235.71875 2028.0312 233.84375 C 2019.6721 231.96875 2015.1899 230.92411 2014.5312 230.65625 L 2011.3125 204.40625 C 2016.1004 207.44757 2021.9708 209.57703 2028.9688 210.84375 C 2035.9663 212.11051 2042.6674 212.72658 2049.0625 212.6875 C 2057.7678 212.73774 2065.2142 210.78239 2071.375 206.78125 C 2077.5356 202.78016 2080.8167 196.43642 2081.2188 187.78125 C 2081.6372 184.05362 2080.2577 179.6072 2077.0938 174.40625 C 2073.9295 169.20542 2066.4564 166.32596 2054.6875 165.8125 C 2052.3828 165.7735 2050.1147 165.86726 2047.8438 166.0625 C 2045.5723 166.25788 2043.4654 166.78913 2041.5625 167.6875 L 2041.5625 147.0625 C 2051.1718 144.95322 2059.1406 141.20322 2065.4688 135.8125 C 2071.7966 130.42197 2075.078 124.79698 2075.3125 118.9375 C 2075.1171 114.13293 2073.1795 110.16418 2069.4688 107 C 2065.7577 103.83607 2061.4452 102.17982 2056.5625 102.0625 C 2049.2857 102.02915 2043.2097 103.05147 2038.3438 105.09375 C 2033.4774 107.13629 2028.4774 110.41753 2023.3438 114.9375 L 2013.4375 92.6875 C 2018.5993 89.668672 2025.8984 86.726709 2035.3125 83.875 C 2044.7265 81.023589 2053.432 79.519128 2061.4062 79.3125 z M 136.125 79.5625 C 151.28116 79.875151 163.15615 83.937649 171.75 91.75 C 180.34364 99.562634 184.71863 109.25012 184.875 120.8125 C 184.5508 130.08344 182.27534 137.16677 178.0625 142.0625 C 173.84943 146.95842 169.65036 150.29175 165.4375 152.0625 C 161.22444 153.83342 158.94898 154.66674 158.625 154.5625 C 159.01842 154.46998 161.75916 155.49545 166.875 157.625 C 171.99063 159.75471 177.13414 163.53711 182.25 169 C 187.36562 174.46302 190.10636 182.15514 190.5 192.0625 C 190.38269 202.14066 185.47644 211.9844 175.75 221.59375 C 166.02334 231.20313 152.1796 236.35937 134.25 237.0625 C 117.96088 236.20312 104.61715 232.76563 94.1875 226.75 C 83.757792 220.73439 78.351547 217.29689 78 216.4375 L 94.875 195.8125 C 94.835902 196.51566 98.210902 199.32816 104.96875 204.25 C 111.72652 209.1719 122.1015 211.9844 136.125 212.6875 C 143.85929 212.57033 150.42179 210.47658 155.8125 206.375 C 161.20303 202.27347 164.01552 196.86722 164.25 190.1875 C 164.05459 182.60942 161.64834 176.67193 157 172.375 C 152.35148 168.07819 146.63273 165.89069 139.875 165.8125 L 123 165.8125 L 123 143.3125 L 139.875 143.3125 C 147.29679 142.8829 152.60928 140.47666 155.8125 136.0625 C 159.01553 131.64854 160.57803 127.80479 160.5 124.5625 C 160.77334 121.2423 159.30459 117.1173 156.0625 112.15625 C 152.82022 107.19544 146.16398 104.44545 136.125 103.9375 C 123.07807 104.5403 113.54683 106.96887 107.53125 111.1875 C 101.51559 115.40637 98.546841 117.80369 98.625 118.40625 L 84.4375 96.4375 C 84.716492 95.734507 89.578097 92.922012 99.03125 88 C 108.48433 83.078278 120.84593 80.265779 136.125 79.5625 z M 895.40625 79.5625 C 915.99767 80.131848 931.32801 87.855057 941.40625 102.6875 C 951.48424 117.5202 956.53334 136.04697 956.5 158.3125 C 956.53334 180.57818 951.48424 199.1362 941.40625 213.96875 C 931.32801 228.80134 915.99767 236.4933 895.40625 237.0625 C 874.81467 236.4933 859.48433 228.80135 849.40625 213.96875 C 839.3281 199.13619 834.31025 180.57818 834.34375 158.3125 C 834.31025 136.04697 839.3281 117.52021 849.40625 102.6875 C 859.48433 87.855054 874.81467 80.131848 895.40625 79.5625 z M 1932.75 81.4375 C 1943.5702 81.672023 1953.3515 85.422019 1962.0625 92.6875 C 1970.7733 99.953262 1975.3671 109.32825 1975.875 120.8125 C 1975.9307 129.79698 1974.9575 136.75679 1972.9375 141.65625 C 1970.9173 146.55589 1967.5155 151.74785 1962.75 157.25 C 1956.7678 164.69426 1949.5803 172.64515 1941.1875 181.09375 C 1932.7946 189.54246 1923.7321 198.81477 1914 208.9375 L 1975.875 208.9375 C 1975.8749 211.82814 1975.4059 215.42189 1974.4688 219.71875 C 1973.5309 224.01563 1972.1249 228.54688 1970.25 233.3125 L 1880.25 233.3125 L 1880.25 210.8125 C 1890.4955 201.49891 1900.0937 192.21767 1909 182.9375 C 1917.9062 173.65743 1926.5359 164.01458 1934.9062 154.03125 C 1939.5492 148.8974 1943.3167 143.89741 1946.2188 139.03125 C 1949.1203 134.16528 1950.6292 128.08939 1950.7188 120.8125 C 1950.6348 115.89632 1948.6486 111.47668 1944.7812 107.53125 C 1940.9142 103.58607 1935.6461 101.51018 1929 101.28125 C 1923.414 101.51017 1918.1953 103.58607 1913.3125 107.53125 C 1908.4296 111.47669 1903.6484 115.89632 1899 120.8125 L 1884 103.9375 C 1889.5469 97.375133 1896.2658 92.026924 1904.1562 87.875 C 1912.047 83.723366 1921.5781 81.571583 1932.75 81.4375 z M 231.5625 83.3125 L 325.3125 83.3125 L 325.3125 107.6875 L 257.8125 107.6875 L 257.8125 143.3125 L 312.1875 143.3125 L 312.1875 165.8125 L 257.8125 165.8125 L 257.8125 210.8125 L 327.1875 210.8125 L 327.1875 233.3125 L 231.5625 233.3125 L 231.5625 83.3125 z M 396.5625 83.3125 L 490.3125 83.3125 L 490.3125 233.3125 L 464.0625 233.3125 L 464.0625 105.8125 L 422.8125 105.8125 C 422.824 106.39133 422.8078 111.48739 422.75 121.09375 C 422.69206 130.70033 422.51613 141.34152 422.25 153.03125 C 421.98373 164.72114 421.55085 173.98386 420.9375 180.8125 C 418.62592 198.03475 413.46324 210.69447 405.4375 218.75 C 397.41166 226.80556 389.68051 231.93403 382.25 234.15625 C 374.81942 236.37847 370.83827 237.34027 370.3125 237.0625 L 366.03125 211.90625 C 366.32058 211.95091 368.539 211.11758 372.6875 209.40625 C 376.83596 207.69497 381.18334 204.8155 385.71875 200.8125 C 390.2541 196.80956 393.23739 191.3929 394.6875 184.5625 C 395.30088 180.39588 395.73375 172.47923 396 160.8125 C 396.26616 149.14592 396.44208 136.22926 396.5 122.0625 C 396.55783 107.89596 396.57403 94.979302 396.5625 83.3125 z M 539.1875 83.3125 L 632.9375 83.3125 L 632.9375 107.6875 L 565.4375 107.6875 L 565.4375 143.3125 L 619.8125 143.3125 L 619.8125 165.8125 L 565.4375 165.8125 L 565.4375 210.8125 L 634.8125 210.8125 L 634.8125 233.3125 L 539.1875 233.3125 L 539.1875 83.3125 z M 683.5625 83.3125 L 709.8125 83.3125 L 709.8125 143.3125 L 766.0625 143.3125 L 766.0625 83.3125 L 792.3125 83.3125 L 792.3125 233.3125 L 766.0625 233.3125 L 766.0625 165.8125 L 709.8125 165.8125 L 709.8125 233.3125 L 683.5625 233.3125 L 683.5625 83.3125 z M 998.5 83.3125 L 1092.25 83.3125 L 1092.25 105.8125 L 1024.75 105.8125 L 1024.75 233.3125 L 998.5 233.3125 L 998.5 83.3125 z M 1131.4062 83.3125 L 1182.0312 83.3125 C 1200.5473 84.172016 1213.6723 89.953265 1221.4062 100.65625 C 1229.141 111.3595 1232.891 121.82823 1232.6562 132.0625 C 1232.4222 142.29696 1227.7338 152.7657 1218.5938 163.46875 C 1209.4525 174.17194 1197.266 179.95318 1182.0312 180.8125 L 1157.6562 180.8125 L 1157.6562 233.3125 L 1131.4062 233.3125 L 1131.4062 83.3125 z M 1324.6562 83.3125 L 1354.6562 83.3125 L 1403.4062 233.3125 L 1375.2812 233.3125 L 1365.9062 203.3125 L 1313.4062 203.3125 L 1304.0312 233.3125 L 1275.9062 233.3125 L 1324.6562 83.3125 z M 1468.8438 83.3125 L 1556.9688 83.3125 L 1556.9688 94.5625 L 1556.9688 210.8125 L 1573.8438 210.8125 L 1573.8438 259.5625 L 1551.3438 259.5625 L 1551.3438 233.3125 L 1457.5938 233.3125 L 1457.5938 259.5625 L 1435.0938 259.5625 L 1435.0938 210.8125 L 1451.9688 210.8125 C 1454.5377 204.28309 1457.118 195.12967 1459.6875 183.3125 C 1462.2569 171.49543 1464.3888 158.68923 1466.125 144.9375 C 1467.8611 131.18595 1468.7738 118.14561 1468.8438 105.8125 L 1468.8438 83.3125 z M 895.40625 103.9375 C 884.89838 104.09388 876.39838 108.93762 869.875 118.46875 C 863.35151 128.00011 859.97652 141.28134 859.78125 158.3125 C 859.97652 175.3438 863.35152 188.62504 869.875 198.15625 C 876.39838 207.68753 884.89836 212.53127 895.40625 212.6875 C 905.91397 212.53127 914.44521 207.68752 920.96875 198.15625 C 927.49208 188.62505 930.83582 175.34381 931.03125 158.3125 C 930.83582 141.28134 927.49208 128.0001 920.96875 118.46875 C 914.44521 108.93763 905.91397 104.09388 895.40625 103.9375 z M 1157.6562 105.8125 L 1157.6562 158.3125 L 1174.5312 158.3125 C 1182.3442 158.3907 1189.2192 156.35945 1195.1562 152.21875 C 1201.0942 148.07821 1204.2192 141.35947 1204.5312 132.0625 C 1204.2192 122.76574 1201.0942 116.04699 1195.1562 111.90625 C 1189.2192 107.76575 1182.3442 105.73451 1174.5312 105.8125 L 1157.6562 105.8125 z M 1495.0938 105.8125 C 1494.9927 124.25011 1493.3102 143.15634 1490.0625 162.53125 C 1486.8147 181.9063 1482.5964 198.00003 1477.4062 210.8125 L 1530.7188 210.8125 L 1530.7188 105.8125 L 1495.0938 105.8125 z M 1339.6562 117.0625 L 1320.9062 180.8125 L 1358.4062 180.8125 L 1339.6562 117.0625 z M 1931.3125 319.3125 C 1941.1897 319.441 1950.2343 322.50796 1958.4375 328.5625 C 1966.6405 334.61733 1970.9977 342.87178 1971.5 353.3125 C 1971.1874 363.78136 1968.0624 372.3751 1962.125 379.09375 C 1956.1874 385.81259 1949.3124 389.71883 1941.5 390.8125 C 1944.901 391.41443 1949.452 393.14476 1955.125 395.96875 C 1960.7979 398.7929 1965.9311 402.8635 1970.5625 408.1875 C 1975.1937 413.51164 1977.6613 420.2107 1977.9375 428.3125 C 1977.8648 440.18753 1973.1015 451.12502 1963.6875 461.125 C 1954.2734 471.12501 1940.635 476.4375 1922.75 477.0625 C 1914.5915 476.79464 1906.328 475.71875 1897.9688 473.84375 C 1889.6093 471.96875 1885.096 470.92411 1884.4375 470.65625 L 1881.2188 444.40625 C 1886.0066 447.44757 1891.9086 449.57703 1898.9062 450.84375 C 1905.9041 452.11051 1912.6049 452.72658 1919 452.6875 C 1927.7053 452.73774 1935.1517 450.78239 1941.3125 446.78125 C 1947.4731 442.78016 1950.7545 436.43642 1951.1562 427.78125 C 1951.5747 424.05362 1950.1953 419.6072 1947.0312 414.40625 C 1943.8672 409.20542 1936.3939 406.32596 1924.625 405.8125 C 1922.3203 405.7735 1920.0212 405.86726 1917.75 406.0625 C 1915.4787 406.25788 1913.4029 406.78913 1911.5 407.6875 L 1911.5 387.0625 C 1921.1093 384.95322 1929.0782 381.20322 1935.4062 375.8125 C 1941.7344 370.42197 1945.0155 364.79698 1945.25 358.9375 C 1945.0546 354.13293 1943.0859 350.16418 1939.375 347 C 1935.664 343.83607 1931.3827 342.17982 1926.5 342.0625 C 1919.2232 342.02915 1913.1474 343.05147 1908.2812 345.09375 C 1903.4152 347.13629 1898.4152 350.41753 1893.2812 354.9375 L 1883.375 332.6875 C 1888.5368 329.66867 1895.8359 326.72671 1905.25 323.875 C 1914.664 321.02359 1923.3381 319.51913 1931.3125 319.3125 z M 2064.7812 321.4375 C 2075.6016 321.67202 2085.3827 325.42202 2094.0938 332.6875 C 2102.8045 339.95326 2107.3983 349.32825 2107.9062 360.8125 C 2107.9619 369.79698 2106.9886 376.75679 2104.9688 381.65625 C 2102.9486 386.55589 2099.5469 391.74785 2094.7812 397.25 C 2088.7991 404.69426 2081.6114 412.64515 2073.2188 421.09375 C 2064.8257 429.54246 2055.7634 438.81477 2046.0312 448.9375 L 2107.9062 448.9375 C 2107.9062 451.82814 2107.4374 455.42189 2106.5 459.71875 C 2105.5624 464.01563 2104.1562 468.54688 2102.2812 473.3125 L 2012.2812 473.3125 L 2012.2812 450.8125 C 2022.5269 441.49891 2032.1251 432.21767 2041.0312 422.9375 C 2049.9374 413.65743 2058.5669 404.01458 2066.9375 394.03125 C 2071.5803 388.8974 2075.3481 383.89741 2078.25 379.03125 C 2081.1517 374.16528 2082.6606 368.08939 2082.75 360.8125 C 2082.6662 355.89632 2080.6796 351.47668 2076.8125 347.53125 C 2072.9452 343.58607 2067.6775 341.51018 2061.0312 341.28125 C 2055.4453 341.51017 2050.2265 343.58607 2045.3438 347.53125 C 2040.4608 351.47669 2035.6797 355.89632 2031.0312 360.8125 L 2016.0312 343.9375 C 2021.5782 337.37513 2028.2968 332.02692 2036.1875 327.875 C 2044.0781 323.72337 2053.6094 321.57158 2064.7812 321.4375 z M 78 323.3125 L 186.75 323.3125 L 186.75 345.8125 L 145.5 345.8125 L 145.5 473.3125 L 119.25 473.3125 L 119.25 345.8125 L 78 345.8125 L 78 323.3125 z M 227.8125 323.3125 L 285.9375 323.3125 C 300.07244 323.79256 310.89833 328.18541 318.4375 336.5 C 325.97644 344.81486 329.77108 354.17199 329.84375 364.5625 C 329.77108 370.38291 327.85144 376.10166 324.0625 381.6875 C 320.27332 387.27352 315.07243 391.55476 308.4375 394.5625 C 316.09363 397.37507 322.34363 401.59382 327.1875 407.21875 C 332.03113 412.84381 334.53112 419.87505 334.6875 428.3125 C 334.40835 440.8516 329.79228 451.41408 320.875 459.96875 C 311.95748 468.52344 300.39499 472.96094 286.1875 473.3125 L 227.8125 473.3125 L 227.8125 323.3125 z M 377.9375 323.3125 L 471.6875 323.3125 L 471.6875 347.6875 L 404.1875 347.6875 L 404.1875 383.3125 L 458.5625 383.3125 L 458.5625 405.8125 L 404.1875 405.8125 L 404.1875 450.8125 L 473.5625 450.8125 L 473.5625 473.3125 L 377.9375 473.3125 L 377.9375 323.3125 z M 522.34375 323.3125 L 572.96875 323.3125 C 591.48428 324.17202 604.60927 329.95326 612.34375 340.65625 C 620.07801 351.3595 623.828 361.82823 623.59375 372.0625 C 623.35925 382.29696 618.67176 392.7657 609.53125 403.46875 C 600.39052 414.17194 588.20303 419.95318 572.96875 420.8125 L 548.59375 420.8125 L 548.59375 473.3125 L 522.34375 473.3125 L 522.34375 323.3125 z M 672.5 323.3125 L 698.75 323.3125 L 698.75 381.4375 L 730.625 381.4375 C 748.98427 382.06259 761.48426 386.90633 768.125 395.96875 C 774.7655 405.03132 777.8905 414.56256 777.5 424.5625 C 777.73424 434.79691 773.98425 445.26565 766.25 455.96875 C 758.51552 466.67189 745.39053 472.45313 726.875 473.3125 L 672.5 473.3125 L 672.5 323.3125 z M 1815.8125 323.3125 L 1838.3125 323.3125 L 1838.3125 473.3125 L 1812.0625 473.3125 L 1812.0625 357.0625 L 1791.9688 369.65625 L 1783.125 358.15625 L 1815.8125 323.3125 z M 254.0625 345.8125 L 254.0625 384.40625 L 284.0625 384.40625 C 289.76553 384.30589 294.29678 382.48447 297.65625 378.96875 C 301.01553 375.45322 302.73428 370.8193 302.8125 365.09375 C 302.61709 358.54811 300.64834 353.69543 296.9375 350.53125 C 293.22647 347.36731 288.94523 345.79589 284.0625 345.8125 L 254.0625 345.8125 z M 548.59375 345.8125 L 548.59375 398.3125 L 565.46875 398.3125 C 573.28117 398.3907 580.15617 396.35945 586.09375 392.21875 C 592.03116 388.07821 595.15616 381.35947 595.46875 372.0625 C 595.15615 362.76574 592.03115 356.04699 586.09375 351.90625 C 580.15617 347.76575 573.28118 345.73451 565.46875 345.8125 L 548.59375 345.8125 z M 698.75 403.9375 L 698.75 450.8125 L 725 450.8125 C 733.47647 450.81252 739.94522 448.93752 744.4375 445.1875 C 748.92959 441.43753 751.21083 435.81254 751.25 428.3125 C 751.21083 420.73442 748.92959 414.79693 744.4375 410.5 C 739.94522 406.2032 733.47647 404.01569 725 403.9375 L 698.75 403.9375 z M 254.0625 405.8125 L 254.0625 450.8125 L 285.9375 450.8125 C 293.43741 450.54467 299.0624 448.14735 302.8125 443.59375 C 306.5624 439.04021 308.43739 433.93754 308.4375 428.3125 C 308.43739 422.68755 306.5624 417.61613 302.8125 413.0625 C 299.0624 408.50899 293.43741 406.08042 285.9375 405.8125 L 254.0625 405.8125 z M 139.125 559.5625 C 153.27224 559.75796 164.71036 563.60171 173.46875 571.0625 C 182.22691 578.52357 188.91377 588.42981 193.5 600.8125 L 168.3125 610.1875 C 165.50409 600.89074 161.6659 594.17199 156.8125 590.03125 C 151.95891 585.89075 146.07389 583.85951 139.125 583.9375 C 128.61713 584.09388 120.08588 588.93762 113.5625 598.46875 C 107.03901 608.00011 103.69527 621.28134 103.5 638.3125 C 103.69527 655.3438 107.03902 668.62504 113.5625 678.15625 C 120.08588 687.68753 128.61711 692.53127 139.125 692.6875 C 146.07389 692.76564 151.95891 690.7344 156.8125 686.59375 C 161.6659 682.45316 165.50408 675.73441 168.3125 666.4375 L 193.5 675.8125 C 188.91378 688.19534 182.22691 698.13283 173.46875 705.59375 C 164.71036 713.05469 153.27225 716.86719 139.125 717.0625 C 118.53342 716.49952 103.20308 708.81391 93.125 694 C 83.046854 679.18613 78.029002 660.62178 78.0625 638.3125 C 78.028997 616.00337 83.046852 597.43902 93.125 582.625 C 103.20308 567.81124 118.53342 560.12562 139.125 559.5625 z M 2053.3438 559.84375 C 2069.5546 559.87181 2082.5858 565.83609 2092.4688 577.75 C 2102.3515 589.66418 2107.4452 607.3472 2107.7188 630.8125 C 2107.9139 654.04917 2103.289 673.87504 2093.875 690.28125 C 2084.4608 706.68751 2069.0859 715.26339 2047.7188 716 C 2039.8281 715.65401 2032.6406 714.26562 2026.1562 711.84375 C 2019.6718 709.42188 2016.2343 708.03349 2015.8438 707.6875 L 2012.875 684.65625 C 2013.1931 685.02458 2016.5859 686.51565 2023.0312 689.09375 C 2029.4765 691.6719 2037.0881 693.13172 2045.8438 693.5 C 2056.9085 692.88825 2064.9698 688.60932 2070.0625 680.65625 C 2075.155 672.70325 2078.3761 664.73434 2079.7188 656.78125 C 2081.0613 648.82827 2081.6538 644.54934 2081.4688 643.9375 C 2076.703 647.84381 2071.2343 651.28131 2065.0625 654.25 C 2058.8906 657.21881 2052.4843 658.7813 2045.8438 658.9375 C 2039.3593 659.36724 2031.7031 656.6485 2022.875 650.75 C 2014.0469 644.85163 2009.2031 633.19539 2008.3438 615.8125 C 2008.6953 600.35502 2013.1328 587.297 2021.6875 576.59375 C 2030.2421 565.89077 2040.8046 560.30149 2053.3438 559.84375 z M 1809.0625 560.90625 C 1816.953 561.16309 1824.1405 562.20327 1830.625 564 C 1837.1093 565.79702 1840.5468 566.80595 1840.9375 567.0625 L 1844.6875 589.84375 C 1844.4139 589.52021 1841.1952 588.2345 1835.0625 585.96875 C 1828.9296 583.70325 1821.5233 582.38629 1812.8125 582.0625 C 1801.7509 582.68763 1793.7058 587.06263 1788.6562 595.1875 C 1783.6066 603.31261 1780.4246 611.4376 1779.125 619.5625 C 1777.8254 627.68759 1777.249 632.06258 1777.4375 632.6875 C 1782.0747 628.73669 1787.481 625.12509 1793.625 621.84375 C 1799.7689 618.5626 1806.1662 616.82599 1812.8125 616.625 C 1816.8402 616.51101 1821.9201 617.68115 1828.0312 620.15625 C 1834.1423 622.63154 1839.6075 627.0978 1844.4688 633.53125 C 1849.3297 639.96485 1851.9096 649.05165 1852.1875 660.8125 C 1851.7577 676.20316 1846.9765 689.01564 1837.875 699.25 C 1828.7733 709.48438 1817.9296 714.79688 1805.3125 715.1875 C 1789.1796 715.07031 1776.4296 708.75782 1767.0938 696.21875 C 1757.7578 683.67972 1753.0078 665.61723 1752.8125 642.0625 C 1752.6953 620.63402 1757.1328 601.96886 1766.1562 586.03125 C 1775.1796 570.0939 1789.4921 561.70998 1809.0625 560.90625 z M 385.03125 563.3125 L 493.78125 563.3125 L 493.78125 713.3125 L 467.53125 713.3125 L 467.53125 585.8125 L 411.28125 585.8125 L 411.28125 713.3125 L 385.03125 713.3125 L 385.03125 563.3125 z M 542.53125 563.3125 L 636.28125 563.3125 L 636.28125 587.6875 L 568.78125 587.6875 L 568.78125 623.3125 L 623.15625 623.3125 L 623.15625 645.8125 L 568.78125 645.8125 L 568.78125 690.8125 L 638.15625 690.8125 L 638.15625 713.3125 L 542.53125 713.3125 L 542.53125 563.3125 z M 679.40625 563.3125 L 788.15625 563.3125 L 788.15625 585.8125 L 746.90625 585.8125 L 746.90625 713.3125 L 720.65625 713.3125 L 720.65625 585.8125 L 679.40625 585.8125 L 679.40625 563.3125 z M 829.21875 563.3125 L 922.96875 563.3125 L 922.96875 587.6875 L 855.46875 587.6875 L 855.46875 623.3125 L 909.84375 623.3125 L 909.84375 645.8125 L 855.46875 645.8125 L 855.46875 690.8125 L 924.84375 690.8125 L 924.84375 713.3125 L 829.21875 713.3125 L 829.21875 563.3125 z M 973.59375 563.3125 L 1024.2188 563.3125 C 1042.734 564.17202 1055.859 569.95326 1063.5938 580.65625 C 1071.3277 591.3595 1075.0777 601.82823 1074.8438 612.0625 C 1074.6089 622.29696 1069.9221 632.7657 1060.7812 643.46875 C 1051.6408 654.17194 1039.4527 659.95318 1024.2188 660.8125 L 999.84375 660.8125 L 999.84375 713.3125 L 973.59375 713.3125 L 973.59375 563.3125 z M 1123.75 563.3125 L 1219.375 563.3125 L 1219.375 585.8125 L 1150 585.8125 L 1150 623.3125 L 1181.875 623.3125 C 1200.3124 624.01571 1213.1249 629.17196 1220.3125 638.78125 C 1227.4999 648.39069 1230.9374 658.23442 1230.625 668.3125 C 1230.7811 678.39066 1226.7186 688.2344 1218.4375 697.84375 C 1210.1561 707.45313 1196.7187 712.60938 1178.125 713.3125 L 1123.75 713.3125 L 1123.75 563.3125 z M 1266.0938 563.3125 L 1294.2188 563.3125 L 1329.8438 642.0625 L 1359.8438 563.3125 L 1387.9688 563.3125 L 1339.2188 688.9375 C 1336.1618 696.14109 1331.1852 702.0643 1324.2812 706.6875 C 1317.3776 711.31072 1310.4791 713.6866 1303.5938 713.84375 C 1299.8827 713.83816 1297.0078 713.73995 1294.9375 713.5 C 1292.8671 713.26005 1291.3668 712.93862 1290.4688 712.53125 L 1284.8438 688.9375 C 1284.9997 689.01564 1286.5628 689.32815 1289.5312 689.875 C 1292.5003 690.4219 1295.9372 690.7344 1299.8438 690.8125 C 1304.6804 690.53908 1308.8306 688.75784 1312.3125 685.4375 C 1315.7943 682.11722 1317.6179 678.89847 1317.7812 675.8125 C 1317.5122 673.86429 1314.8342 667.22758 1309.7188 655.875 C 1304.6026 644.52253 1298.6688 631.72176 1291.9375 617.46875 C 1285.2062 603.21593 1279.3033 590.74328 1274.1875 580.09375 C 1269.0717 569.44448 1266.3628 563.85464 1266.0938 563.3125 z M 1425.625 563.3125 L 1476.25 563.3125 C 1494.7655 564.17202 1507.8905 569.95326 1515.625 580.65625 C 1523.3593 591.3595 1527.1093 601.82823 1526.875 612.0625 C 1526.6405 622.29696 1521.953 632.7657 1512.8125 643.46875 C 1503.6718 654.17194 1491.4843 659.95318 1476.25 660.8125 L 1451.875 660.8125 L 1451.875 713.3125 L 1425.625 713.3125 L 1425.625 563.3125 z M 1575.7812 563.3125 L 1669.5312 563.3125 L 1669.5312 585.8125 L 1602.0312 585.8125 L 1602.0312 713.3125 L 1575.7812 713.3125 L 1575.7812 563.3125 z M 1889.875 563.3125 L 1979.875 563.3125 L 1979.875 582.0625 C 1970.3436 600.46105 1961.2812 619.92978 1952.6875 640.4375 C 1944.0937 660.94537 1936.9062 684.60159 1931.125 711.4375 L 1903 711.4375 C 1907.1015 688.70315 1913.914 666.67192 1923.4062 645.34375 C 1932.8984 624.01571 1942.9609 604.79698 1953.625 587.6875 L 1884.25 587.6875 L 1889.875 563.3125 z M 2057.0938 583.9375 C 2048.8124 584.4845 2042.6517 587.88629 2038.6562 594.125 C 2034.6607 600.36395 2032.6964 606.96216 2032.7188 613.9375 C 2033.0312 621.43759 2035.2187 627.06259 2039.2812 630.8125 C 2043.3437 634.56258 2047.4062 636.43758 2051.4688 636.4375 C 2060.8883 635.66749 2068.0937 632.60946 2073.0938 627.21875 C 2078.0937 621.82822 2080.6115 618.73893 2080.6562 617.96875 C 2080.3602 615.09848 2079.4992 610.97563 2078.0625 605.625 C 2076.6256 600.27458 2074.2493 595.36404 2070.9375 590.90625 C 2067.6256 586.44871 2063.0146 584.12943 2057.0938 583.9375 z M 999.84375 585.8125 L 999.84375 638.3125 L 1016.7188 638.3125 C 1024.5311 638.3907 1031.4059 636.35945 1037.3438 632.21875 C 1043.2809 628.07821 1046.4059 621.35947 1046.7188 612.0625 C 1046.4059 602.76574 1043.2809 596.04699 1037.3438 591.90625 C 1031.4059 587.76575 1024.5311 585.73451 1016.7188 585.8125 L 999.84375 585.8125 z M 1451.875 585.8125 L 1451.875 638.3125 L 1468.75 638.3125 C 1476.5624 638.3907 1483.4374 636.35945 1489.375 632.21875 C 1495.3124 628.07821 1498.4374 621.35947 1498.75 612.0625 C 1498.4374 602.76574 1495.3124 596.04699 1489.375 591.90625 C 1483.4374 587.76575 1476.5624 585.73451 1468.75 585.8125 L 1451.875 585.8125 z M 1809.0625 638.3125 C 1802.0256 639.09382 1795.1953 642.21882 1788.5938 647.6875 C 1781.9921 653.15631 1778.4743 656.28131 1778 657.0625 C 1777.9768 657.47922 1778.7399 660.39589 1780.3438 665.8125 C 1781.9475 671.22921 1784.5226 676.64587 1788.0312 682.0625 C 1791.5398 687.47919 1796.1213 690.39585 1801.8125 690.8125 C 1810.1606 690.38283 1816.5669 687.03909 1821.0312 680.75 C 1825.4954 674.46098 1827.7678 667.80473 1827.8125 660.8125 C 1827.4999 653.31256 1825.3124 647.68757 1821.25 643.9375 C 1817.1874 640.18757 1813.1249 638.31258 1809.0625 638.3125 z M 1150 645.8125 L 1150 690.8125 L 1176.25 690.8125 C 1184.8046 690.81252 1191.6173 688.93752 1196.6562 685.1875 C 1201.6955 681.43753 1204.2577 675.81254 1204.375 668.3125 C 1204.2577 660.81255 1201.6955 655.18756 1196.6562 651.4375 C 1191.6173 647.68757 1184.8046 645.81257 1176.25 645.8125 L 1150 645.8125 z M 289.4375 649.5625 L 341.9375 649.5625 L 341.9375 673.9375 L 289.4375 673.9375 L 289.4375 649.5625 z M 240.53125 681.96875 C 245.15795 682.08588 248.98795 683.70677 252.0625 686.78125 C 255.13697 689.85579 256.75786 693.68579 256.875 698.3125 C 256.75785 702.93924 255.13696 706.80049 252.0625 709.875 C 248.98795 712.94951 245.15795 714.53915 240.53125 714.65625 C 235.90449 714.53915 232.04324 712.94951 228.96875 709.875 C 225.89422 706.8005 224.30459 702.93924 224.1875 698.3125 C 224.30458 693.68579 225.89422 689.85578 228.96875 686.78125 C 232.04324 683.70677 235.90449 682.08588 240.53125 681.96875 z "
       transform="translate(0,251.36218)"
       id="rect43101" />
    <rect
       rx="44"
       ry="44"
       y="252.36218"
       x="1"
       height="799"
       width="2184"
       id="rect3844-6"
       style="color:#000000;fill:none;stroke:#000000;stroke-width:2;stroke-miterlimit:4;stroke-opacity:1;stroke-dasharray:none;marker:none;visibility:visible;display:inline;overflow:visible;enable-background:accumulate;opacity:1" />
    <text
       xml:space="preserve"
       style="font-size:9px;font-style:normal;font-variant:normal;font-weight:normal;font-stretch:normal;line-height:125%;letter-spacing:0px;word-spacing:0px;fill:#000000;fill-opacity:1;stroke:none;font-family:Arial;-inkscape-font-specification:Arial;opacity:1"
       x="1365.1716"
       y="392.83267"
       id="text11756"
       sodipodi:linespacing="125%"><tspan
         sodipodi:role="line"
         id="tspan11758"
         x="1365.1716"
         y="392.83267"> </tspan></text>
  </g>
</svg>
