<?xml version="1.0" encoding="UTF-8" standalone="no"?>
<!-- Created with Inkscape (http://www.inkscape.org/) -->

<svg
   xmlns:dc="http://purl.org/dc/elements/1.1/"
   xmlns:cc="http://creativecommons.org/ns#"
   xmlns:rdf="http://www.w3.org/1999/02/22-rdf-syntax-ns#"
   xmlns:svg="http://www.w3.org/2000/svg"
   xmlns="http://www.w3.org/2000/svg"
   xmlns:sodipodi="http://sodipodi.sourceforge.net/DTD/sodipodi-0.dtd"
   xmlns:inkscape="http://www.inkscape.org/namespaces/inkscape"
   width="2370"
   height="370"
   id="svg2"
   version="1.1"
   inkscape:version="0.48.4 r9939"
   sodipodi:docname="6.10.1 D.svg">
  <title
     id="title3006">6.10.1 Указатель направления</title>
  <defs
     id="defs4" />
  <sodipodi:namedview
     id="base"
     pagecolor="#ffffff"
     bordercolor="#666666"
     borderopacity="1.0"
     inkscape:pageopacity="0.0"
     inkscape:pageshadow="2"
     inkscape:zoom="1"
     inkscape:cx="879.70399"
     inkscape:cy="217.84464"
     inkscape:document-units="px"
     inkscape:current-layer="layer1"
     showgrid="false"
     inkscape:window-width="1920"
     inkscape:window-height="1024"
     inkscape:window-x="-4"
     inkscape:window-y="-4"
     inkscape:window-maximized="1"
     inkscape:snap-bbox="true"
     inkscape:bbox-paths="true"
     inkscape:bbox-nodes="true"
     inkscape:snap-bbox-edge-midpoints="true"
     inkscape:snap-bbox-midpoints="true"
     inkscape:object-paths="true"
     inkscape:snap-intersection-paths="true"
     inkscape:object-nodes="true"
     inkscape:snap-smooth-nodes="true"
     inkscape:snap-midpoints="true"
     inkscape:snap-object-midpoints="true"
     showguides="true"
     inkscape:guide-bbox="true" />
  <metadata
     id="metadata7">
    <rdf:RDF>
      <cc:Work
         rdf:about="">
        <dc:format>image/svg+xml</dc:format>
        <dc:type
           rdf:resource="http://purl.org/dc/dcmitype/StillImage" />
        <dc:title>6.10.1 Указатель направления</dc:title>
        <cc:license
           rdf:resource="http://creativecommons.org/licenses/by-sa/3.0/" />
        <dc:description>ГОСТ Р 52290-2004</dc:description>
      </cc:Work>
      <cc:License
         rdf:about="http://creativecommons.org/licenses/by-sa/3.0/">
        <cc:permits
           rdf:resource="http://creativecommons.org/ns#Reproduction" />
        <cc:permits
           rdf:resource="http://creativecommons.org/ns#Distribution" />
        <cc:requires
           rdf:resource="http://creativecommons.org/ns#Notice" />
        <cc:requires
           rdf:resource="http://creativecommons.org/ns#Attribution" />
        <cc:permits
           rdf:resource="http://creativecommons.org/ns#DerivativeWorks" />
        <cc:requires
           rdf:resource="http://creativecommons.org/ns#ShareAlike" />
      </cc:License>
    </rdf:RDF>
  </metadata>
  <g
     inkscape:label="Layer 1"
     inkscape:groupmode="layer"
     id="layer1"
     transform="translate(0,-682.36218)">
    <rect
       transform="matrix(0,-1,1,0,0,0)"
       y="0"
       x="-1052.3622"
       height="2370"
       width="370"
       id="rect16559"
       style="color:#000000;fill:#ffffff;fill-opacity:1;fill-rule:nonzero;stroke:none;stroke-width:3.54299997999999980;marker:none;visibility:visible;display:inline;overflow:visible;enable-background:accumulate"
       rx="45"
       ry="45" />
    <path
       inkscape:connector-curvature="0"
       style="color:#000000;fill:#00a500;fill-opacity:1;fill-rule:nonzero;stroke:none;stroke-width:3.54299998;marker:none;visibility:visible;display:inline;overflow:visible;enable-background:accumulate"
       d="m 45,700.3622 c -14.958,0 -27,12.042 -27,27 l 0,280 c 0,14.958 12.042,27 27,27 l 2280,0 c 14.958,0 27,-12.042 27,-27 l 0,-280 c 0,-14.958 -12.042,-27 -27,-27 l -2280,0 z m 2062.1562,54.5 194.8438,112.5 -194.8438,112.5 0,-72 -144.1562,0 0,-81 144.1562,0 0,-72 z m -1921.0312,43.75 c 14.14724,0.19546 25.58536,4.00796 34.34375,11.46875 8.75816,7.46107 15.44502,17.39856 20.03125,29.78125 l -25.1875,9.375 c -2.80841,-9.29676 -6.6466,-16.01551 -11.5,-20.15625 -4.85359,-4.1405 -10.73861,-6.17174 -17.6875,-6.09375 -10.50787,0.15638 -19.03912,5.00012 -25.5625,14.53125 -6.52349,9.53136 -9.86723,22.81255 -10.0625,39.84375 0.19527,17.0313 3.53902,30.3125 10.0625,39.8437 6.52338,9.5313 15.05461,14.3751 25.5625,14.5313 6.94889,0.078 12.83391,-1.9531 17.6875,-6.0938 4.8534,-4.1405 8.69158,-10.8593 11.5,-20.1562 l 25.1875,9.375 c -4.58622,12.3828 -11.27309,22.2891 -20.03125,29.75 -8.75839,7.4609 -20.1965,11.3047 -34.34375,11.5 -20.59158,-0.563 -35.92192,-8.2486 -46,-23.0625 -10.07815,-14.8139 -15.096,-33.3782 -15.0625,-55.6875 -0.0335,-22.3091 4.98435,-40.87348 15.0625,-55.6875 10.07808,-14.81376 25.40842,-22.49938 46,-23.0625 z m 212.3125,3.75 108.75,0 0,150 -26.25,0 0,-127.5 -56.25,0 0,127.5 -26.25,0 0,-150 z m 146.28125,0 93.75,0 0,24.375 -67.5,0 0,35.625 54.375,0 0,22.5 -54.375,0 0,45 69.37505,0 0,22.5 -95.62505,0 0,-150 z m 125.68755,0 108.75,0 0,22.5 -41.25,0 0,127.5 -26.25,0 0,-127.5 -41.25,0 0,-22.5 z m 138.5937,0 93.75,0 0,24.375 -67.5,0 0,35.625 54.375,0 0,22.5 -54.375,0 0,45 69.375,0 0,22.5 -95.625,0 0,-150 z m 133.2188,0 50.625,0 c 18.5155,0.85952 31.6403,6.64076 39.375,17.34375 7.734,10.70325 11.484,21.17198 11.25,31.40625 -0.2348,10.2345 -4.9218,20.7032 -14.0626,31.4062 -9.1405,10.7032 -21.3282,16.4845 -36.5624,17.3438 l -24.375,0 0,52.5 -26.25,0 0,-150 z m 138.9374,0 95.625,0 0,22.5 -69.375,0 0,37.5 31.875,0 c 18.4376,0.7032 31.2497,5.8595 38.4376,15.4687 7.1871,9.6095 10.625,19.4532 10.3124,29.5313 0.1564,10.0782 -3.9065,19.9219 -12.1874,29.5312 -8.2816,9.6094 -21.7187,14.7657 -40.3126,15.4688 l -54.375,0 0,-150 z m 131.125,0 28.125,0 35.625,78.75 30,-78.75 28.125,0 -48.75,125.625 c -3.0564,7.2036 -8.0339,13.1268 -14.9374,17.75 -6.904,4.6232 -13.8017,6.9991 -20.6876,7.1562 -3.7107,-0.01 -6.5859,-0.135 -8.6562,-0.375 -2.0704,-0.2399 -3.5702,-0.5613 -4.4688,-0.9687 l -5.625,-23.5625 c 0.1565,0.078 1.7186,0.3906 4.6876,0.9375 2.9685,0.5469 6.4064,0.8594 10.3124,0.9375 4.837,-0.2734 9.0184,-2.0859 12.5,-5.4063 3.4819,-3.3202 5.3051,-6.5077 5.4688,-9.5937 -0.2693,-1.9482 -2.9778,-8.5849 -8.0938,-19.9375 -5.1156,-11.3525 -11.0185,-24.1845 -17.75,-38.4375 -6.7311,-14.25282 -12.6654,-26.69422 -17.7812,-37.34375 -5.1158,-10.64927 -7.8243,-16.23911 -8.0938,-16.78125 z m 148.3438,0 50.625,0 c 18.5155,0.85952 31.6405,6.64076 39.375,17.34375 7.7343,10.70325 11.4843,21.17198 11.25,31.40625 -0.2345,10.2345 -4.922,20.7032 -14.0625,31.4062 -9.1407,10.7032 -21.3282,16.4845 -36.5625,17.3438 l -24.375,0 0,52.5 -26.25,0 0,-150 z m 138.9375,0 93.75,0 0,22.5 -67.5,0 0,127.5 -26.25,0 0,-150 z m 173.0625,0 86.25,0 -7.5,24.375 -54.375,0 0,35.625 c 2.9408,-3.6718 6.6461,-6.1718 11.0938,-7.5 4.4473,-1.328 8.8671,-1.953 13.2812,-1.875 10.8983,0.078 20.9921,4.1407 30.25,12.1875 9.2577,8.047 14.1639,19.6094 14.75,34.6875 -0.1954,15.3907 -5.4142,28.2031 -15.6875,38.4375 -10.2735,10.2344 -24.4298,15.5469 -42.4375,15.9375 -8.8672,-0.3125 -16.8985,-1.5625 -24.125,-3.75 -7.2266,-2.1875 -11.0703,-3.4375 -11.5,-3.75 l -3.75,-24.375 c 4.6986,3.0078 10.2522,5.0302 16.625,6.0625 6.3727,1.0324 12.6941,1.5101 19,1.4375 7.9687,0 15.4687,-2.3437 22.5,-7.0313 7.0312,-4.6874 10.7812,-11.7187 11.25,-21.0937 -0.039,-6.914 -2.2892,-13.2578 -6.7812,-19 -4.4924,-5.7421 -10.9923,-8.7734 -19.4688,-9.125 -5.6251,0.3516 -10.3125,1.9766 -14.0625,4.9062 -3.75,2.9298 -6.5625,5.0548 -8.4375,6.3438 l -16.875,-9.375 0,-73.125 z m 184.4062,0 22.5,0 0,97.5 20.625,0 -8.5937,22.5 -10.1563,0 0,30 -26.25,0 0,-30 -71.25,0 0,-22.5 73.125,-97.5 z m -888.5624,22.5 0,52.5 16.875,0 c 7.8124,0.078 14.6874,-1.9531 20.625,-6.0938 5.9374,-4.1405 9.0624,-10.8592 9.375,-20.1562 -0.3126,-9.29676 -3.4376,-16.01551 -9.375,-20.15625 -5.9376,-4.1405 -12.8126,-6.17174 -20.625,-6.09375 l -16.875,0 z m 418.4062,0 0,52.5 16.875,0 c 7.8124,0.078 14.6874,-1.9531 20.625,-6.0938 5.9374,-4.1405 9.0624,-10.8592 9.375,-20.1562 -0.3126,-9.29676 -3.4376,-16.01551 -9.375,-20.15625 -5.9376,-4.1405 -12.8126,-6.17174 -20.625,-6.09375 l -16.875,0 z m 468.2812,16.875 -43.125,58.125 43.125,0 0,-58.125 z m -747.75,43.125 0,45 26.25,0 c 8.5549,0 15.3361,-1.875 20.375,-5.625 5.0392,-3.75 7.633,-9.375 7.75,-16.875 -0.117,-7.5 -2.7108,-13.1249 -7.75,-16.875 -5.0389,-3.7499 -11.8201,-5.6249 -20.375,-5.625 l -26.25,0 z m -793.37495,3.75 52.5,0 0,24.375 -52.5,0 0,-24.375 z m -37.71875,32.4062 c 4.6267,0.1172 8.48795,1.7068 11.5625,4.7813 3.07447,3.0745 4.66411,6.9358 4.78125,11.5625 -0.11715,4.6267 -1.70679,8.488 -4.78125,11.5625 -3.07455,3.0745 -6.9358,4.6641 -11.5625,4.7812 -4.62676,-0.1171 -8.45676,-1.7067 -11.53125,-4.7812 -3.07453,-3.0745 -4.69541,-6.9358 -4.8125,-11.5625 0.11708,-4.6267 1.73797,-8.488 4.8125,-11.5625 3.07449,-3.0745 6.90449,-4.6641 11.53125,-4.7813 z"
       id="rect15930-7-5" />
    <rect
       ry="44"
       rx="44"
       style="color:#000000;fill:none;stroke:#000000;stroke-width:2;stroke-miterlimit:4;stroke-opacity:1;stroke-dasharray:none;marker:none;visibility:visible;display:inline;overflow:visible;enable-background:accumulate"
       id="rect16561"
       width="368"
       height="2368"
       x="-1051.3622"
       y="1"
       transform="matrix(0,-1,1,0,0,0)" />
  </g>
</svg>
