<?xml version="1.0" encoding="UTF-8" standalone="no"?>
<!-- Created with Inkscape (http://www.inkscape.org/) -->

<svg
   xmlns:dc="http://purl.org/dc/elements/1.1/"
   xmlns:cc="http://creativecommons.org/ns#"
   xmlns:rdf="http://www.w3.org/1999/02/22-rdf-syntax-ns#"
   xmlns:svg="http://www.w3.org/2000/svg"
   xmlns="http://www.w3.org/2000/svg"
   xmlns:sodipodi="http://sodipodi.sourceforge.net/DTD/sodipodi-0.dtd"
   xmlns:inkscape="http://www.inkscape.org/namespaces/inkscape"
   width="1420"
   height="300"
   id="svg2"
   version="1.1"
   inkscape:version="0.48.4 r9939"
   sodipodi:docname="6.10.2 A.svg">
  <title
     id="title3006">6.10.2 Указатель направления</title>
  <defs
     id="defs4" />
  <sodipodi:namedview
     id="base"
     pagecolor="#ffffff"
     bordercolor="#666666"
     borderopacity="1.0"
     inkscape:pageopacity="0.0"
     inkscape:pageshadow="2"
     inkscape:zoom="1"
     inkscape:cx="803.96806"
     inkscape:cy="182.94237"
     inkscape:document-units="px"
     inkscape:current-layer="layer1"
     showgrid="false"
     inkscape:window-width="1920"
     inkscape:window-height="1024"
     inkscape:window-x="-4"
     inkscape:window-y="-4"
     inkscape:window-maximized="1"
     inkscape:snap-bbox="true"
     inkscape:bbox-paths="true"
     inkscape:bbox-nodes="true"
     inkscape:snap-bbox-edge-midpoints="true"
     inkscape:snap-bbox-midpoints="true"
     inkscape:object-paths="true"
     inkscape:snap-intersection-paths="true"
     inkscape:object-nodes="true"
     inkscape:snap-smooth-nodes="true"
     inkscape:snap-midpoints="true"
     inkscape:snap-object-midpoints="true" />
  <metadata
     id="metadata7">
    <rdf:RDF>
      <cc:Work
         rdf:about="">
        <dc:format>image/svg+xml</dc:format>
        <dc:type
           rdf:resource="http://purl.org/dc/dcmitype/StillImage" />
        <dc:title>6.10.2 Указатель направления</dc:title>
        <cc:license
           rdf:resource="http://creativecommons.org/licenses/by-sa/3.0/" />
        <dc:description>ГОСТ Р 52290-2004</dc:description>
      </cc:Work>
      <cc:License
         rdf:about="http://creativecommons.org/licenses/by-sa/3.0/">
        <cc:permits
           rdf:resource="http://creativecommons.org/ns#Reproduction" />
        <cc:permits
           rdf:resource="http://creativecommons.org/ns#Distribution" />
        <cc:requires
           rdf:resource="http://creativecommons.org/ns#Notice" />
        <cc:requires
           rdf:resource="http://creativecommons.org/ns#Attribution" />
        <cc:permits
           rdf:resource="http://creativecommons.org/ns#DerivativeWorks" />
        <cc:requires
           rdf:resource="http://creativecommons.org/ns#ShareAlike" />
      </cc:License>
    </rdf:RDF>
  </metadata>
  <g
     inkscape:label="Layer 1"
     inkscape:groupmode="layer"
     id="layer1"
     transform="translate(0,-752.36218)">
    <path
       style="opacity:1;color:#000000;fill:#ffffff;fill-opacity:1;fill-rule:nonzero;stroke:none;stroke-width:3.54299997999999980;marker:none;visibility:visible;display:inline;overflow:visible;enable-background:accumulate"
       d="m 45,752.36215 c -24.93,0 -45,20.07 -45,45 l 0,210.00005 c 0,24.93 20.07,45 45,45 l 1115.1562,0 L 1420,902.36215 l -259.8438,-150 z"
       id="rect12447"
       inkscape:connector-curvature="0"
       sodipodi:nodetypes="sssscccs" />
    <path
       style="opacity:1;color:#000000;fill:none;stroke:#000000;stroke-width:2;stroke-miterlimit:4;stroke-opacity:1;stroke-dasharray:none;marker:none;visibility:visible;display:inline;overflow:visible;enable-background:accumulate"
       d="m 45,753.36215 c -24.376,0 -44,19.624 -44,44 l 0,210.00005 c 0,24.376 19.624,44 44,44 l 1114.875,0 258.0938,-149.00005 -258.0938,-149 z"
       id="rect12491"
       inkscape:connector-curvature="0"
       sodipodi:nodetypes="sssscccs" />
    <path
       inkscape:connector-curvature="0"
       style="opacity:1;color:#000000;fill:#00a500;fill-opacity:1;fill-rule:nonzero;stroke:none;stroke-width:3.54299997999999980;marker:none;visibility:visible;display:inline;overflow:visible;enable-background:accumulate"
       d="m 45,761.36215 c -19.944,0 -36,16.056 -36,36 l 0,210.00005 c 0,19.944 16.056,36 36,36 l 1109.75,0 141,-141.00005 -141,-141 -1109.75,0 z m 929.1875,54.3125 c 8.2537,8e-5 15.27855,3.82899 21.09375,11.46875 5.81505,7.63989 8.71865,16.87296 8.71875,27.71875 -10e-5,10.77765 -2.9037,19.98518 -8.71875,27.625 -5.8152,7.63984 -12.84005,11.46875 -21.09375,11.46875 -8.18557,0 -15.18488,-3.82891 -21,-11.46875 -5.81516,-7.63982 -8.71876,-16.84735 -8.71875,-27.625 -10e-6,-10.84579 2.90359,-20.07886 8.71875,-27.71875 5.81512,-7.63976 12.81443,-11.46867 21,-11.46875 z M 195,817.36215 l 13.25,0 0,63.5 21.78125,0 0,-63.5 12.40625,0 0,63.5 21.9375,0 0,-63.5 13.25,0 0,75 -82.625,0 0,-75 z m 101.9375,0 45.75,0 0,11.5625 -33.375,0 0,18.3125 27.21875,0 0,11.40625 -27.21875,0 0,22.15625 33.375,0 0,11.5625 -45.75,0 0,-75 z m 65.09375,0 29.03125,0 c 6.6166,7e-5 12.30175,2.29062 17.09375,6.84375 4.79189,4.55327 7.18744,10.10502 7.1875,16.6875 -6e-5,6.54848 -2.39561,12.04915 -7.1875,16.5 -4.792,4.45092 -10.45161,6.68753 -17,6.6875 l -15.71875,0 0,28.28125 -13.40625,0 0,-75 z m 72.6875,0 45.71875,0 0,11.5625 -33.34375,0 0,18.3125 27.21875,0 0,11.40625 -27.21875,0 0,22.15625 33.34375,0 0,11.5625 -45.71875,0 0,-75 z m 72.71875,0 12.78125,0 17.5625,33.75 16.46875,-33.75 13.1875,0 7.59375,75 -13.21875,0 -5.09375,-56.0625 -18.9375,41.0625 -19.65625,-41.21875 -5.21875,56.21875 -13.09375,0 7.625,-75 z m 86.9375,0 45.75,0 0,11.5625 -33.34375,0 0,18.3125 27.21875,0 0,11.40625 -27.21875,0 0,22.15625 33.34375,0 0,11.5625 -45.75,0 0,-75 z m 65.125,0 56.40625,0 0,11.15625 -22.125,0 0,63.84375 -12.09375,0 0,-63.84375 -22.1875,0 0,-11.15625 z m 75.75,0 13.375,0 0,28.40625 15.65625,0 c 6.6166,5e-5 12.26487,2.16567 16.9375,6.53125 4.84305,4.50208 7.28119,10.04535 7.28125,16.59375 -6e-5,6.54845 -2.39561,12.07181 -7.1875,16.625 -4.792,4.55321 -10.48001,6.84375 -17.0625,6.84375 l -29,0 0,-75 z m 72.46875,0 45.71875,0 0,11.5625 -33.34375,0 0,18.3125 27.21875,0 0,11.40625 -27.21875,0 0,22.15625 33.34375,0 0,11.5625 -45.71875,0 0,-75 z m 65.09375,0 32.0625,0 c 5.11591,7e-5 9.50681,1.80524 13.15625,5.4375 3.64933,3.6324 5.46869,8.0091 5.46875,13.125 -6e-5,3.9564 -1.07011,7.62351 -3.21875,11 -2.42161,3.81996 -5.49835,5.88344 -9.25,6.15625 4.09272,0.13646 7.54411,2.19423 10.375,6.21875 2.55792,3.61531 3.84369,7.55208 3.84375,11.78125 -6e-5,6.37791 -1.77969,11.53233 -5.34375,15.4375 -3.56417,3.90519 -8.50286,5.84375 -14.8125,5.84375 l -32.28125,0 0,-75 z m 101.53125,10.65625 c -4.6044,6e-5 -8.51278,2.60562 -11.71875,7.875 -3.20603,5.26949 -4.81252,11.6302 -4.8125,19.03125 -2e-5,7.40112 1.60647,13.70219 4.8125,18.9375 3.20597,5.23535 7.11435,7.84376 11.71875,7.84375 4.53611,10e-6 8.41609,-2.6084 11.65625,-7.84375 3.24005,-5.23531 4.87494,-11.53638 4.875,-18.9375 -6e-5,-7.40105 -1.63495,-13.76176 -4.875,-19.03125 -3.24016,-5.26938 -7.12014,-7.87494 -11.65625,-7.875 z m -600.375,0.5 0,24.03125 15.6875,0 c 3.20596,4e-5 5.85697,-1.2034 7.9375,-3.625 2.01223,-2.25098 3.0312,-5.03538 3.03125,-8.34375 -5e-5,-3.10363 -1.07295,-5.87098 -3.1875,-8.34375 -2.11464,-2.47265 -4.71171,-3.71869 -7.78125,-3.71875 l -15.6875,0 z m 510.5625,0.5625 0,18.375 15.40625,0 c 7.05998,4e-5 10.56245,-3.32081 10.5625,-9.9375 -5e-5,-2.69435 -1.01331,-4.8089 -3.09375,-6.34375 -1.91,-1.3983 -4.39921,-2.09369 -7.46875,-2.09375 l -15.40625,0 z m -808.0625,15.78125 42.59375,51.21875 37.8125,-0.15625 c 4.8887,-0.0208 8.979,4.01715 9,8.90625 0.0213,4.8822 -3.995,8.93675 -8.875,8.96875 -0.007,10e-5 -0.0213,0 -0.0312,0 l -0.0937,0 -37.8126,-0.1875 -42.59375,51.25003 -18.34375,-0.5625 30.25,-50.81253 -15.875,-0.0625 -9.09375,10.9375 -16.40625,1.5 11.53125,-21 L 47,883.8309 l 16.40625,1.53125 9.09375,10.9375 15.875,-0.0625 -30.25,-50.8125 18.34375,-0.5625 z m 672.15625,12.15625 0,24.03125 15.21875,0 0.4375,0 c 3.03543,-0.13641 5.6183,-1.3512 7.75,-3.6875 2.1316,-2.33627 3.2187,-5.16326 3.21875,-8.4375 -5e-5,-3.3424 -1.05875,-6.16654 -3.15625,-8.46875 -2.09759,-2.30215 -4.70886,-3.43746 -7.8125,-3.4375 l -15.65625,0 z m 135.90625,1.625 0,22.5625 16.375,0 c 7.53747,10e-6 11.33513,-3.74657 11.4375,-11.25 0.0341,-7.53749 -3.70967,-11.31247 -11.28125,-11.3125 l -16.53125,0 z M 1154,865.86215 c 4.7749,8e-5 9.1913,1.23191 13.25,3.6875 5.3205,3.10375 7.9432,7.62519 7.875,13.59375 -0.034,3.47891 -1.3455,6.8253 -3.9375,10.03125 -2.8309,3.4789 -6.6059,5.9965 -11.3125,7.53125 5.9345,0.307 10.5921,2.23422 13.9688,5.78125 3.0694,3.27425 4.6476,7.5005 4.75,12.71875 0.1021,7.367 -2.1997,13.28493 -6.9063,17.71875 -4.468,4.16098 -10.193,6.32661 -17.2187,6.53125 -8.3904,0.27285 -15.7273,-1.20025 -21.9688,-4.40625 l -2.5,-12.125 c 6.1732,2.83084 12.4346,4.25001 18.8125,4.25 10.7776,10e-6 16.1875,-3.85158 16.1875,-11.59375 0,-7.81034 -4.2292,-11.71872 -12.6875,-11.71875 -2.2511,3e-5 -4.7147,0.32076 -7.375,0.96875 l 0.9687,-11 c 10.4026,-2.25098 15.5938,-6.24168 15.5938,-11.9375 0,-6.27552 -3.1308,-9.40618 -9.4062,-9.40625 -4.741,7e-5 -10.2019,2.03515 -16.375,6.09375 l -4.5313,-10.4375 c 5.5593,-4.0927 13.1604,-6.17885 22.8125,-6.28125 z m -94.1562,49.8125 c 8.2536,8e-5 15.2785,3.82899 21.0937,11.46875 5.8151,7.63989 8.7187,16.87296 8.7187,27.71875 0,10.77763 -2.9036,19.98513 -8.7187,27.62503 -5.8152,7.6398 -12.8401,11.4687 -21.0937,11.4687 -8.1857,0 -15.2162,-3.8289 -21.0313,-11.4687 -5.8152,-7.6399 -8.719,-16.8474 -8.7187,-27.62503 -3e-4,-10.84579 2.9035,-20.07886 8.7187,-27.71875 5.8151,-7.63976 12.8456,-11.46867 21.0313,-11.46875 z m -835.37505,0.65625 c 5.96858,8e-5 11.09459,0.80618 15.375,2.375 4.2803,1.56897 8.44413,4.13479 12.46875,7.75 l -8.71875,8.15625 -5.40625,-4.15625 c -2.76267,-2.04632 -6.6739,-3.06244 -11.6875,-3.0625 -3.61532,6e-5 -6.81126,1.17797 -9.625,3.53125 -2.81381,2.3534 -4.21878,4.76315 -4.21875,7.21875 l 0.3125,1.875 0.75,1.65625 c 0.78442,1.09145 1.85446,2.08203 3.21875,2.96875 l 18.75,5.71875 c 6.1732,2.4557 10.07872,4.3006 11.75,5.5625 3.75164,2.96733 5.62493,7.43763 5.625,13.40623 -7e-5,6.4802 -2.83554,12.1825 -8.53125,17.0938 -5.32065,4.7067 -11.34644,7.0625 -18.03125,7.0625 -5.90044,0 -11.44086,-1.124 -16.625,-3.375 -4.33153,-1.9441 -9.28156,-5.0748 -14.875,-9.4063 l 9.09375,-8.25 9.71875,6.9063 c 3.17186,1.4666 7.37829,2.2187 12.5625,2.2187 3.54702,0 6.28883,-1.1126 8.25,-3.3125 1.96107,-2.1998 2.93745,-4.7827 2.9375,-7.75 -5e-5,-1.944 -0.49677,-3.7123 -1.46875,-5.2812 -0.97208,-1.5689 -2.32027,-2.6361 -4.09375,-3.25 l -14.75,-3.8125 c -5.62758,-1.8759 -9.6949,-3.93647 -12.21875,-6.18753 -3.6494,-3.4447 -5.46876,-7.969 -5.46875,-13.5625 -1e-5,-6.10499 2.63394,-11.31047 7.9375,-15.625 5.30352,-4.31439 10.96599,-6.46867 16.96875,-6.46875 z m 565.78125,0.375 c 1.73941,8e-5 3.45376,0.70966 5.125,2.125 1.67119,1.41549 2.49997,3.13833 2.5,5.21875 l 0.15625,2.375 c -3e-5,3.71766 -0.88274,6.88806 -2.65625,9.53125 -1.77355,2.6433 -4.42456,4.85152 -7.9375,6.625 l -0.875,-2.5 c 3.61526,-1.09135 5.80928,-4.08862 6.59375,-9 -1.80766,0.34113 -3.3971,0.3922 -4.8125,0.1875 -1.41543,-0.20458 -2.72674,-0.89711 -3.9375,-2.125 -1.21079,-1.22777 -1.81251,-2.94498 -1.8125,-5.09375 -10e-6,-1.67114 0.72091,-3.31737 2.1875,-4.9375 1.46656,-1.61998 3.28592,-2.40617 5.46875,-2.40625 z m -517.875,0.65625 12.4375,0 0,29.625 29.25,0 0,-29.625 12.40625,0 0,75.09373 -12.40625,0 0,-34.4062 -29.25,0 0,34.4062 -12.4375,0 0,-75.09373 z m 73.28125,0 45.75,0 0,11.5625 -33.34375,0 0,18.3125 27.21875,0 0,11.40623 -27.21875,0 0,22.1563 33.34375,0 0,11.5625 -45.75,0 0,-75.00003 z m 65.125,0 28.78125,0 c 5.69573,7e-5 10.56914,2.40982 14.59375,7.21875 3.27416,4.29747 4.90619,9.32697 4.90625,15.125 -6e-5,4.80905 -1.13823,8.76002 -3.40625,11.8125 -2.26813,3.05256 -4.95887,5.28628 -8.0625,6.71878 1.60295,1.5689 2.84899,2.9455 3.71875,4.1562 0.86966,1.2108 2.19516,3.4474 3.96875,6.6875 l 5.15625,10.375 c 2.11454,4.5021 3.82889,7.5306 5.125,9.0313 l 3.28125,3.875 -15.15625,0 -10.78125,-20.5625 c -1.60304,-3.206 -3.3174,-5.5334 -5.125,-7 -2.11463,-1.8076 -4.47045,-2.7188 -7.0625,-2.7188 l -8.84375,0 0,30.2813 -11.09375,-0.062 0,-74.93753 z m 77.375,0 45.71875,0 0,11.5625 -33.34375,0 0,18.3125 27.21875,0 0,11.40623 -27.21875,0 0,22.1563 33.34375,0 0,11.5625 -45.71875,0 0,-75.00003 z m 65.09375,0 14.59375,0 20.96875,36.03125 21.125,-36.03125 14.59375,0 0,75.00003 -13.21875,0 0,-54.03128 -22.5,39.18748 -22.34375,-39.18748 0,54.03128 -13.21875,0 0,-75.00003 z m 90.5,0 45.71875,0 0,11.5625 -33.34375,0 0,18.3125 27.21875,0 0,11.40623 -27.21875,0 0,22.1563 33.34375,0 0,11.5625 -45.71875,0 0,-75.00003 z m 65.09375,0 56.4375,0 0,11.15625 -22.15625,0 0,63.84378 -12.09375,0 0,-63.84378 -22.1875,0 0,-11.15625 z m 99.5625,0 15.125,0 14.4375,29.96875 15,-29.96875 15.4375,0 -24.59375,45.03123 0,29.9688 -11.40625,0 0,-29.9688 -24,-45.03123 z m 79.21875,0 45.71875,0 0,11.5625 -33.34375,0 0,18.3125 27.21875,0 0,11.40623 -27.21875,0 0,22.1563 33.34375,0 0,11.5625 -45.71875,0 0,-75.00003 z m 65.09375,0 14.6875,0 14.375,56.37503 13.96875,-56.37503 15.1562,0 -20.99995,75.00003 -16.0625,0 -21.125,-75.00003 z m 107.25005,10.65625 c -4.6047,6e-5 -8.4814,2.60562 -11.6876,7.875 -3.2058,5.26949 -4.8127,11.6302 -4.8124,19.03125 -3e-4,7.40113 1.6066,13.70223 4.8124,18.93753 3.2062,5.2353 7.0829,7.8437 11.6876,7.8437 4.5359,0 8.4474,-2.6084 11.6874,-7.8437 3.2403,-5.2353 4.8437,-11.5364 4.8438,-18.93753 -10e-5,-7.40105 -1.6035,-13.76176 -4.8438,-19.03125 -3.24,-5.26938 -7.1515,-7.87494 -11.6874,-7.875 z m -638.0938,1.0625 0,22.03125 14.28125,0 c 3.3765,-0.40924 5.97357,-1.72054 7.78125,-3.9375 1.39832,-1.97812 2.0937,-4.25161 2.09375,-6.84375 -5e-5,-2.89899 -0.56489,-5.4166 -1.65625,-7.53125 -1.60304,-2.48971 -4.33066,-3.71869 -8.21875,-3.71875 l -14.28125,0 z"
       id="rect12445" />
  </g>
</svg>
