<?xml version="1.0" encoding="UTF-8" standalone="no"?>
<!-- Created with Inkscape (http://www.inkscape.org/) -->

<svg
   xmlns:dc="http://purl.org/dc/elements/1.1/"
   xmlns:cc="http://creativecommons.org/ns#"
   xmlns:rdf="http://www.w3.org/1999/02/22-rdf-syntax-ns#"
   xmlns:svg="http://www.w3.org/2000/svg"
   xmlns="http://www.w3.org/2000/svg"
   xmlns:sodipodi="http://sodipodi.sourceforge.net/DTD/sodipodi-0.dtd"
   xmlns:inkscape="http://www.inkscape.org/namespaces/inkscape"
   width="600"
   height="600"
   id="svg2"
   version="1.1"
   inkscape:version="0.48.4 r9939"
   sodipodi:docname="6.6.svg">
  <title
     id="title3006">6.6 Подземный пешеходный переход</title>
  <defs
     id="defs4" />
  <sodipodi:namedview
     id="base"
     pagecolor="#ffffff"
     bordercolor="#666666"
     borderopacity="1.0"
     inkscape:pageopacity="0.0"
     inkscape:pageshadow="2"
     inkscape:zoom="1"
     inkscape:cx="279.69924"
     inkscape:cy="329.30061"
     inkscape:document-units="px"
     inkscape:current-layer="layer1"
     showgrid="false"
     inkscape:window-width="1920"
     inkscape:window-height="1024"
     inkscape:window-x="-4"
     inkscape:window-y="-4"
     inkscape:window-maximized="1"
     inkscape:snap-bbox="true"
     inkscape:bbox-paths="true"
     inkscape:bbox-nodes="true"
     inkscape:snap-bbox-edge-midpoints="true"
     inkscape:snap-bbox-midpoints="true"
     inkscape:object-paths="true"
     inkscape:snap-intersection-paths="true"
     inkscape:object-nodes="true"
     inkscape:snap-smooth-nodes="true"
     inkscape:snap-midpoints="true"
     inkscape:snap-object-midpoints="true" />
  <metadata
     id="metadata7">
    <rdf:RDF>
      <cc:Work
         rdf:about="">
        <dc:format>image/svg+xml</dc:format>
        <dc:type
           rdf:resource="http://purl.org/dc/dcmitype/StillImage" />
        <dc:title>6.6 Подземный пешеходный переход</dc:title>
        <cc:license
           rdf:resource="http://creativecommons.org/licenses/by-sa/3.0/" />
        <dc:description>ГОСТ Р 52290-2004
Размеры и пропорции по типоразмеру I</dc:description>
      </cc:Work>
      <cc:License
         rdf:about="http://creativecommons.org/licenses/by-sa/3.0/">
        <cc:permits
           rdf:resource="http://creativecommons.org/ns#Reproduction" />
        <cc:permits
           rdf:resource="http://creativecommons.org/ns#Distribution" />
        <cc:requires
           rdf:resource="http://creativecommons.org/ns#Notice" />
        <cc:requires
           rdf:resource="http://creativecommons.org/ns#Attribution" />
        <cc:permits
           rdf:resource="http://creativecommons.org/ns#DerivativeWorks" />
        <cc:requires
           rdf:resource="http://creativecommons.org/ns#ShareAlike" />
      </cc:License>
    </rdf:RDF>
  </metadata>
  <g
     inkscape:label="Layer 1"
     inkscape:groupmode="layer"
     id="layer1"
     transform="translate(0,-452.36218)">
    <rect
       style="color:#000000;fill:#ffffff;fill-opacity:1;stroke:none;stroke-width:1.99999975999999990;marker:none;visibility:visible;display:inline;overflow:visible;enable-background:accumulate;opacity:1"
       id="rect6880"
       width="600"
       height="600"
       x="0"
       y="452.36218"
       ry="45"
       rx="45" />
    <path
       style="opacity:1;color:#000000;fill:#0d69e1;fill-opacity:1;fill-rule:nonzero;stroke:none;stroke-width:3.54299997999999980;marker:none;visibility:visible;display:inline;overflow:visible;enable-background:accumulate"
       d="M 45 20 C 31.15 20 20 31.15 20 45 L 20 540 L 140 540 L 140 500 L 250 500 L 250 460 L 360 460 L 360 420 L 470 420 L 470 380 L 580 380 L 580 45 C 580 31.15 568.85 20 555 20 L 45 20 z M 253.5 50 C 275.4691 50 284.5 66.5176 284.5 80 C 284.5 103.44456 252.6417 120 240.5 120 C 223.1865 120 212.5 103.52105 212.5 88.40625 C 212.5 70.60519 227.7576 50 253.5 50 z M 277.15625 119.875 C 278.99415 119.93918 280.7902 120.4935 282.375 121.5625 L 349.3125 166.71875 C 350.9219 167.80435 352.0088 169.48885 352.3125 171.40625 L 363.40625 241.5 C 364.78865 250.2278 358.82145 258.4302 350.09375 259.8125 C 341.36595 261.1949 333.1948 255.2278 331.8125 246.5 L 322.875 190.15625 C 322.5713 188.23885 321.4844 186.55435 319.875 185.46875 L 287.09375 163.34375 L 301.25 252.84375 C 301.6365 255.28455 301.0959 257.77115 299.75 259.84375 L 247.0625 340.96875 C 245.6288 343.17635 245.5589 346.00165 246.875 348.28125 L 291.46875 425.5 C 296.71545 434.5876 293.5876 446.22205 284.5 451.46875 C 275.4124 456.71545 263.77795 453.5876 258.53125 444.5 L 200.65625 344.21875 C 199.34015 341.93915 199.41015 339.11385 200.84375 336.90625 L 243.125 271.78125 C 244.0328 270.38345 244.405 268.7149 244.1875 267.0625 L 229.15625 152.9375 C 228.62835 148.9275 230.59105 144.99105 234.09375 142.96875 L 271.78125 121.1875 C 273.43675 120.2317 275.31835 119.81082 277.15625 119.875 z M 221.40625 185.875 L 227.0625 228.90625 L 191.34375 271.5 C 185.66365 278.2692 175.55045 279.14875 168.78125 273.46875 C 162.01215 267.78875 161.1325 257.7067 166.8125 250.9375 L 221.40625 185.875 z M 205.53125 376.6875 L 229.65625 418.4375 L 203.90625 482.125 C 199.97535 491.8543 188.9168 496.5559 179.1875 492.625 C 169.4581 488.6941 164.7566 477.6043 168.6875 467.875 L 205.53125 376.6875 z M 490 420 L 490 460 L 380 460 L 380 500 L 270 500 L 270 540 L 160 540 L 160 580 L 555 580 C 568.85 580 580 568.85 580 555 L 580 420 L 490 420 z "
       transform="translate(0,452.36218)"
       id="rect9536" />
    <rect
       rx="44"
       ry="44"
       y="453.36218"
       x="1"
       height="598"
       width="598"
       id="rect3844-6"
       style="color:#000000;fill:none;stroke:#000000;stroke-width:2;stroke-miterlimit:4;stroke-opacity:1;stroke-dasharray:none;marker:none;visibility:visible;display:inline;overflow:visible;enable-background:accumulate;opacity:1" />
  </g>
</svg>
