<?xml version="1.0" encoding="UTF-8" standalone="no"?>
<!-- Created with Inkscape (http://www.inkscape.org/) -->

<svg
   xmlns:dc="http://purl.org/dc/elements/1.1/"
   xmlns:cc="http://creativecommons.org/ns#"
   xmlns:rdf="http://www.w3.org/1999/02/22-rdf-syntax-ns#"
   xmlns:svg="http://www.w3.org/2000/svg"
   xmlns="http://www.w3.org/2000/svg"
   xmlns:sodipodi="http://sodipodi.sourceforge.net/DTD/sodipodi-0.dtd"
   xmlns:inkscape="http://www.inkscape.org/namespaces/inkscape"
   width="1600"
   height="900"
   id="svg2"
   version="1.1"
   inkscape:version="0.48.4 r9939"
   sodipodi:docname="6.9.2 C.svg">
  <title
     id="title3006">6.9.2 Предварительный указатель направления</title>
  <defs
     id="defs4" />
  <sodipodi:namedview
     id="base"
     pagecolor="#ffffff"
     bordercolor="#666666"
     borderopacity="1.0"
     inkscape:pageopacity="0.0"
     inkscape:pageshadow="2"
     inkscape:zoom="1"
     inkscape:cx="880.75224"
     inkscape:cy="407.97466"
     inkscape:document-units="px"
     inkscape:current-layer="layer1"
     showgrid="false"
     inkscape:window-width="1920"
     inkscape:window-height="1024"
     inkscape:window-x="-4"
     inkscape:window-y="-4"
     inkscape:window-maximized="1"
     inkscape:snap-bbox="true"
     inkscape:bbox-paths="true"
     inkscape:bbox-nodes="true"
     inkscape:snap-bbox-edge-midpoints="true"
     inkscape:snap-bbox-midpoints="true"
     inkscape:object-paths="true"
     inkscape:snap-intersection-paths="true"
     inkscape:object-nodes="true"
     inkscape:snap-smooth-nodes="true"
     inkscape:snap-midpoints="true"
     inkscape:snap-object-midpoints="true"
     showguides="true"
     inkscape:guide-bbox="true" />
  <metadata
     id="metadata7">
    <rdf:RDF>
      <cc:Work
         rdf:about="">
        <dc:format>image/svg+xml</dc:format>
        <dc:type
           rdf:resource="http://purl.org/dc/dcmitype/StillImage" />
        <dc:title>6.9.2 Предварительный указатель направления</dc:title>
        <cc:license
           rdf:resource="http://creativecommons.org/licenses/by-sa/3.0/" />
        <dc:description>ГОСТ Р 52290-2004</dc:description>
      </cc:Work>
      <cc:License
         rdf:about="http://creativecommons.org/licenses/by-sa/3.0/">
        <cc:permits
           rdf:resource="http://creativecommons.org/ns#Reproduction" />
        <cc:permits
           rdf:resource="http://creativecommons.org/ns#Distribution" />
        <cc:requires
           rdf:resource="http://creativecommons.org/ns#Notice" />
        <cc:requires
           rdf:resource="http://creativecommons.org/ns#Attribution" />
        <cc:permits
           rdf:resource="http://creativecommons.org/ns#DerivativeWorks" />
        <cc:requires
           rdf:resource="http://creativecommons.org/ns#ShareAlike" />
      </cc:License>
    </rdf:RDF>
  </metadata>
  <g
     inkscape:label="Layer 1"
     inkscape:groupmode="layer"
     id="layer1"
     transform="translate(0,-152.36218)">
    <rect
       style="opacity:1;color:#000000;fill:#ffffff;fill-opacity:1;fill-rule:nonzero;stroke:none;stroke-width:3.54299997999999980;marker:none;visibility:visible;display:inline;overflow:visible;enable-background:accumulate"
       id="rect13578"
       width="1600"
       height="900"
       x="0"
       y="152.36218"
       rx="45"
       ry="45" />
    <g
       style="font-size:267.8605957px;font-style:normal;font-variant:normal;font-weight:normal;font-stretch:normal;line-height:125%;letter-spacing:-12px;word-spacing:0px;fill:#000000;fill-opacity:1;stroke:none;font-family:Arial;-inkscape-font-specification:Arial"
       id="text13588">
      <path
         d="m 590.00006,922.36218 103.125,0 0,30 22.5,0 0,-52.5 -16.875,0 0,-127.5 -26.25,0 0,127.5 -56.25,0 0,-127.5 -26.25,0 z"
         style="fill:#000000;font-family:Russian Road Sign;-inkscape-font-specification:Russian Road Sign"
         id="path13729" />
      <path
         d="m 742.97279,922.36218 95.62501,0 0,-22.5 -69.37501,0 0,-45 54.37501,0 0,-22.5 -54.37501,0 0,-35.625 67.50001,0 0,-24.375 -93.75001,0 z"
         style="fill:#000000;font-family:Russian Road Sign;-inkscape-font-specification:Russian Road Sign"
         id="path13731" />
      <path
         d="m 875.36639,922.36218 26.25,0 0,-67.5 56.25001,0 0,67.5 26.25,0 0,-150 -26.25,0 0,60 -56.25001,0 0,-60 -26.25,0 z"
         style="fill:#000000;font-family:Russian Road Sign;-inkscape-font-specification:Russian Road Sign"
         id="path13733" />
      <path
         d="m 1013.3391,772.36218 0,22.5 41.25,0 0,127.5 26.25,0 0,-127.5 41.25,0 0,-22.5 z"
         style="fill:#000000;font-family:Russian Road Sign;-inkscape-font-specification:Russian Road Sign"
         id="path13735" />
      <path
         d="m 1151.1401,772.36218 0,150 26.25,0 0,-52.5 24.375,0 c 15.2343,-0.85932 27.4217,-6.64056 36.5625,-17.34375 9.1405,-10.70305 13.828,-21.17179 14.0625,-31.40625 0.2342,-10.23426 -3.5158,-20.70301 -11.25,-31.40626 -7.7345,-10.70298 -20.8595,-16.48422 -39.375,-17.34374 z m 26.25,22.5 16.875,0 c 7.8124,-0.078 14.6874,1.95326 20.625,6.09375 5.9374,4.14075 9.0624,10.85949 9.375,20.15625 -0.3126,9.29697 -3.4376,16.01571 -9.375,20.15625 -5.9376,4.1407 -12.8126,6.17195 -20.625,6.09375 l -16.875,0 z"
         style="fill:#000000;font-family:Russian Road Sign;-inkscape-font-specification:Russian Road Sign"
         id="path13737" />
    </g>
    <path
       id="path13600"
       style="opacity:1;color:#000000;fill:#000000;fill-opacity:1;fill-rule:nonzero;stroke:none;stroke-width:1px;marker:none;visibility:visible;display:inline;overflow:visible;enable-background:accumulate"
       d="m 259.50001,742.3622 -72,0 112.5,-194.85575 112.5,194.85575 -72,0 0,153 -81,0 z"
       inkscape:connector-curvature="0"
       sodipodi:nodetypes="cccccccc" />
    <path
       inkscape:connector-curvature="0"
       style="opacity:1;color:#000000;fill:#0d69e1;fill-opacity:1;fill-rule:nonzero;stroke:none;stroke-width:3.54299997999999980;marker:none;visibility:visible;display:inline;overflow:visible;enable-background:accumulate"
       d="m 147.50009,272.3622 c -12.465,0 -22.5,10.035 -22.5,22.5 l 0,175 c 0,12.465 10.035,22.5 22.5,22.5 l 305,0 c 12.465,0 22.5,-10.035 22.5,-22.5 l 0,-175 c 0,-12.465 -10.035,-22.5 -22.5,-22.5 l -305,0 z m 24.375,30 26.25,0 33.75,73.125 33.75,-73.125 26.25,0 16.875,150 -28.125,0 -9.375,-110.625 -39.375,88.125 -39.375,-88.125 -9.375,110.625 -28.125,0 16.875,-150 z m 174.15625,0 86.25,0 -7.5,24.375 -54.375,0 0,35.625 c 2.9408,-3.67178 6.64615,-6.17178 11.09375,-7.5 4.44749,-1.32803 8.86712,-1.95303 13.28125,-1.875 10.89835,0.0782 20.99209,4.14072 30.25,12.1875 9.25771,8.04696 14.16395,19.60944 14.75,34.6875 -0.19543,15.39066 -5.41417,28.20314 -15.6875,38.4375 -10.27353,10.23438 -24.42977,15.54688 -42.4375,15.9375 -8.86724,-0.3125 -16.89848,-1.5625 -24.125,-3.75 -7.22659,-2.18749 -11.07033,-3.43749 -11.5,-3.75 l -3.75,-24.375 c 4.69864,3.00784 10.25221,5.03016 16.625,6.0625 6.37273,1.03239 12.69415,1.51007 19,1.4375 7.96869,2e-5 15.46868,-2.34373 22.5,-7.03125 7.03117,-4.68747 10.78117,-11.71871 11.25,-21.09375 -0.0392,-6.91401 -2.28915,-13.25775 -6.78125,-19 -4.49226,-5.74211 -10.99226,-8.77336 -19.46875,-9.125 -5.62505,0.35164 -10.31255,1.97664 -14.0625,4.90625 -3.75004,2.92976 -6.56254,5.05475 -8.4375,6.34375 l -16.875,-9.375 0,-73.125 z"
       id="rect13602" />
    <rect
       style="opacity:1;color:#000000;fill:none;stroke:#000000;stroke-width:2;stroke-miterlimit:4;stroke-opacity:1;stroke-dasharray:none;marker:none;visibility:visible;display:inline;overflow:visible;enable-background:accumulate"
       id="rect13614"
       width="378"
       height="248"
       x="111.00008"
       y="258.36218"
       rx="36.5"
       ry="36.5" />
    <path
       inkscape:connector-curvature="0"
       style="opacity:1;color:#000000;fill:#0d69e1;fill-opacity:1;fill-rule:nonzero;stroke:none;stroke-width:3.54299997999999980;marker:none;visibility:visible;display:inline;overflow:visible;enable-background:accumulate"
       d="m 575.00009,232.3622 c -24.93,0 -45,20.07 -45,45 l 0,400 c 0,24.93 20.07,45 45,45 l 890.00001,0 c 24.93,0 45,-20.07 45,-45 l 0,-400 c 0,-24.93 -20.07,-45 -45,-45 l -890.00001,0 z m 345.5,66.25 c 15.15616,0.31265 27.03115,4.37515 35.625,12.1875 8.59364,7.81263 12.96863,17.50012 13.125,29.0625 -0.3242,9.27094 -2.59966,16.35427 -6.8125,21.25 -4.21307,4.89592 -8.41214,8.22925 -12.625,10 -4.21306,1.77092 -6.48852,2.60424 -6.8125,2.5 0.39342,-0.0925 3.13416,0.93295 8.25,3.0625 5.11563,2.12971 10.22789,5.91211 15.34375,11.375 5.11562,5.46302 7.88761,13.15514 8.28125,23.0625 -0.11731,10.07816 -5.05481,19.9219 -14.78125,29.53125 -9.72666,9.60938 -23.53915,14.76562 -41.46875,15.46875 -16.28912,-0.85938 -29.6641,-4.29687 -40.09375,-10.3125 -10.42971,-6.01561 -15.8047,-9.45311 -16.15625,-10.3125 l 16.875,-20.625 c -0.0391,0.70316 3.30465,3.51566 10.0625,8.4375 6.75777,4.9219 17.164,7.7344 31.1875,8.4375 7.73429,-0.11717 14.29679,-2.21092 19.6875,-6.3125 5.39053,-4.10153 8.20302,-9.50778 8.4375,-16.1875 -0.19541,-7.57808 -2.63291,-13.51557 -7.28125,-17.8125 -4.64852,-4.29681 -10.33602,-6.48431 -17.09375,-6.5625 l -16.875,0 0,-22.5 16.875,0 c 7.42179,-0.4296 12.73428,-2.83584 15.9375,-7.25 3.20303,-4.41396 4.76553,-8.25771 4.6875,-11.5 0.27334,-3.3202 -1.22666,-7.4452 -4.46875,-12.40625 -3.24228,-4.96081 -9.86727,-7.7108 -19.90625,-8.21875 -13.04693,0.6028 -22.57817,3.00012 -28.59375,7.21875 -6.01566,4.21887 -8.98441,6.64744 -8.90625,7.25 l -14.1875,-21.96875 c 0.27899,-0.70299 5.1406,-3.51549 14.59375,-8.4375 9.45308,-4.92172 21.81468,-7.73422 37.09375,-8.4375 z m -330.5,3.75 50.625,0 c 18.51553,0.85952 31.64052,6.64076 39.375,17.34375 7.73426,10.70325 11.48425,21.17198 11.25,31.40625 -0.2345,10.23446 -4.92199,20.7032 -14.0625,31.40625 -9.14073,10.70319 -21.32822,16.48443 -36.5625,17.34375 l -24.375,0 0,52.5 -26.25,0 0,-150 z m 192.53125,0 54.375,0 0,150 -26.25,0 0,-60 -16.875,0 c -8.11858,0.17299 -13.99589,2.42822 -17.59375,6.75 -3.598,4.32189 -6.84461,9.66702 -9.75,16.0625 -3.40101,6.62502 -6.57752,12.86191 -9.5625,18.71875 -2.98508,5.85688 -6.30963,12.01962 -9.96875,18.46875 l -31.875,0 c 1.88607,-1.18031 4.65566,-4.80063 8.34375,-10.875 3.68805,-6.07435 7.42304,-12.72598 11.15625,-19.96875 3.73315,-7.24271 6.60355,-13.22074 8.625,-17.90625 2.21437,-4.8462 5.542,-9.37335 9.96875,-13.5625 4.42665,-4.18902 8.59902,-6.81364 12.53125,-7.875 -9.5313,-1.95864 -17.18755,-6.25773 -22.96875,-12.9375 -5.78128,-6.6796 -8.75003,-15.2287 -8.90625,-25.625 -0.31253,-8.28113 3.12497,-17.03113 10.3125,-26.25 7.18745,-9.2186 19.99994,-14.2186 38.4375,-15 z m 264.53126,0 30,0 48.75,150 -28.125,0 -9.375,-30 -52.5,0 -9.375,30 -28.12501,0 48.75001,-150 z m 109.6563,0 26.25,0 0,60 56.25,0 0,-60 26.25,0 0,150 -26.25,0 0,-67.5 -56.25,0 0,67.5 -26.25,0 0,-150 z m 145.4687,0 26.25,0 0,58.125 31.875,0 c 18.3593,0.62509 30.8593,5.46883 37.5,14.53125 6.6405,9.06257 9.7655,18.59381 9.375,28.59375 0.2342,10.23441 -3.5158,20.70315 -11.25,31.40625 -7.7345,10.70314 -20.8595,16.48438 -39.375,17.34375 l -54.375,0 0,-150 z m -685.93751,22.5 0,52.5 16.875,0 c 7.81242,0.0782 14.68742,-1.95305 20.625,-6.09375 5.93741,-4.14054 9.06241,-10.85928 9.375,-20.15625 -0.3126,-9.29676 -3.4376,-16.01551 -9.375,-20.15625 -5.93758,-4.1405 -12.81257,-6.17174 -20.625,-6.09375 l -16.875,0 z m 173.78125,0 c -7.81258,-0.0668 -14.68757,1.66976 -20.625,5.21875 -5.93756,3.54923 -9.06255,9.31261 -9.375,17.28125 0.23432,7.96884 3.04681,13.73223 8.4375,17.28125 5.39056,3.5492 11.95305,5.2858 19.6875,5.21875 l 22.5,0 0,-45 -20.625,0 z m 272.03126,11.25 -18.75,63.75 37.5,0 -18.75,-63.75 z m 266.375,46.875 0,46.875 26.25,0 c 8.4765,2e-5 14.9766,-1.87498 19.4687,-5.625 4.4922,-3.74997 6.7421,-9.37496 6.7813,-16.875 -0.039,-7.57808 -2.2891,-13.51557 -6.7813,-17.8125 -4.4921,-4.2968 -10.9922,-6.48431 -19.4687,-6.5625 l -26.25,0 z m -677.31251,125.625 c 14.14724,0.19546 25.58536,4.00796 34.34375,11.46875 8.75816,7.46107 15.44502,17.39856 20.03125,29.78125 l -25.1875,9.375 c -2.80841,-9.29676 -6.6466,-16.01551 -11.5,-20.15625 -4.85359,-4.1405 -10.73861,-6.17174 -17.6875,-6.09375 -10.50787,0.15638 -19.03912,5.00012 -25.5625,14.53125 -6.52349,9.53136 -9.86723,22.81259 -10.0625,39.84375 0.19527,17.0313 3.53902,30.31254 10.0625,39.84375 6.52338,9.53128 15.05461,14.37502 25.5625,14.53125 6.94889,0.0781 12.83391,-1.9531 17.6875,-6.09375 4.8534,-4.14059 8.69158,-10.85934 11.5,-20.15625 l 25.1875,9.375 c -4.58622,12.38284 -11.27309,22.28908 -20.03125,29.75 -8.75839,7.46094 -20.1965,11.30469 -34.34375,11.5 -20.59158,-0.56298 -35.92192,-8.24859 -46,-23.0625 -10.07815,-14.81387 -15.096,-33.37822 -15.0625,-55.6875 -0.0335,-22.30913 4.98435,-40.87348 15.0625,-55.6875 10.07808,-14.81376 25.40842,-22.49938 46,-23.0625 z m 126.90625,3.75 30,0 48.75,150 -28.125,0 -9.375,-30 -52.5,0 -9.375,30 -28.125,0 48.75,-150 z m 119.03125,0 26.25,0 33.75,73.125 33.75,-73.125 26.25001,0 16.875,150 -28.125,0 -9.37501,-110.625 -39.375,88.125 -39.375,-88.125 -9.375,110.625 -28.125,0 16.875,-150 z m 209.06251,0 30,0 48.75,150 -28.125,0 -9.375,-30 -52.5,0 -9.375,30 -28.125,0 48.75,-150 z m 109.6562,0 50.625,0 c 18.5156,0.85952 31.6406,6.64076 39.375,17.34375 7.7343,10.70325 11.4843,21.17198 11.25,31.40625 -0.2345,10.23446 -4.9219,20.7032 -14.0624,31.40625 -9.1408,10.70319 -21.3283,16.48443 -36.5626,17.34375 l -24.375,0 0,52.5 -26.25,0 0,-150 z m 181.2813,0 30,0 48.75,150 -28.125,0 -9.375,-30 -52.5,0 -9.375,30 -28.125,0 48.75,-150 z m -155.0313,22.5 0,52.5 16.875,0 c 7.8125,0.0782 14.6875,-1.95305 20.625,-6.09375 5.9375,-4.14054 9.0625,-10.85928 9.375,-20.15625 -0.3125,-9.29676 -3.4375,-16.01551 -9.375,-20.15625 -5.9375,-4.1405 -12.8125,-6.17174 -20.625,-6.09375 l -16.875,0 z m -448.99996,11.25 -18.75,63.75 37.5,0 -18.75,-63.75 z m 328.09376,0 -18.75,63.75 37.5,0 -18.75,-63.75 z m 290.9375,0 -18.75,63.75 37.5,0 -18.75,-63.75 z"
       id="rect13623" />
    <rect
       ry="44.900002"
       rx="44.943748"
       y="153.36218"
       x="1.0000916"
       height="898"
       width="1598"
       id="rect13643"
       style="opacity:1;color:#000000;fill:none;stroke:#000000;stroke-width:2;stroke-miterlimit:4;stroke-opacity:1;stroke-dasharray:none;marker:none;visibility:visible;display:inline;overflow:visible;enable-background:accumulate" />
    <path
       inkscape:connector-curvature="0"
       style="opacity:1;color:#000000;fill:#000000;fill-opacity:1;fill-rule:nonzero;stroke:none;stroke-width:3.54299997999999980;marker:none;visibility:visible;display:inline;overflow:visible;enable-background:accumulate"
       d="m 45.000085,170.3622 c -14.958,0 -26.999999,12.042 -26.999999,27 l 0,810 c 0,14.958 12.041999,27 26.999999,27 l 1510.000015,0 c 14.958,0 27,-12.042 27,-27 l 0,-810 c 0,-14.958 -12.042,-27 -27,-27 l -1510.000015,0 z m 0,9 1510.000015,0 c 9.972,0 18,8.028 18,18 l 0,810 c 0,9.972 -8.028,18 -18,18 l -1510.000015,0 c -9.972,0 -17.999999,-8.028 -17.999999,-18 l 0,-810 c 0,-9.972 8.027999,-18 17.999999,-18 z"
       id="rect13645" />
  </g>
</svg>
