<?xml version="1.0" encoding="UTF-8" standalone="no"?>
<!-- Created with Inkscape (http://www.inkscape.org/) -->

<svg
   xmlns:dc="http://purl.org/dc/elements/1.1/"
   xmlns:cc="http://creativecommons.org/ns#"
   xmlns:rdf="http://www.w3.org/1999/02/22-rdf-syntax-ns#"
   xmlns:svg="http://www.w3.org/2000/svg"
   xmlns="http://www.w3.org/2000/svg"
   xmlns:sodipodi="http://sodipodi.sourceforge.net/DTD/sodipodi-0.dtd"
   xmlns:inkscape="http://www.inkscape.org/namespaces/inkscape"
   width="1770"
   height="520"
   id="svg2"
   version="1.1"
   inkscape:version="0.48.4 r9939"
   sodipodi:docname="6.12 C.svg">
  <title
     id="title3006">6.12 Указатель расстояний</title>
  <defs
     id="defs4" />
  <sodipodi:namedview
     id="base"
     pagecolor="#ffffff"
     bordercolor="#666666"
     borderopacity="1.0"
     inkscape:pageopacity="0.0"
     inkscape:pageshadow="2"
     inkscape:zoom="1"
     inkscape:cx="887.40701"
     inkscape:cy="278.29934"
     inkscape:document-units="px"
     inkscape:current-layer="layer1"
     showgrid="false"
     inkscape:window-width="1920"
     inkscape:window-height="1024"
     inkscape:window-x="-4"
     inkscape:window-y="-4"
     inkscape:window-maximized="1"
     inkscape:snap-bbox="true"
     inkscape:bbox-paths="true"
     inkscape:bbox-nodes="true"
     inkscape:snap-bbox-edge-midpoints="true"
     inkscape:snap-bbox-midpoints="true"
     inkscape:object-paths="true"
     inkscape:snap-intersection-paths="true"
     inkscape:object-nodes="true"
     inkscape:snap-smooth-nodes="true"
     inkscape:snap-midpoints="true"
     inkscape:snap-object-midpoints="true"
     showguides="true"
     inkscape:guide-bbox="true" />
  <metadata
     id="metadata7">
    <rdf:RDF>
      <cc:Work
         rdf:about="">
        <dc:format>image/svg+xml</dc:format>
        <dc:type
           rdf:resource="http://purl.org/dc/dcmitype/StillImage" />
        <dc:title>6.12 Указатель расстояний</dc:title>
        <cc:license
           rdf:resource="http://creativecommons.org/licenses/by-sa/3.0/" />
        <dc:description>ГОСТ Р 52290-2004</dc:description>
      </cc:Work>
      <cc:License
         rdf:about="http://creativecommons.org/licenses/by-sa/3.0/">
        <cc:permits
           rdf:resource="http://creativecommons.org/ns#Reproduction" />
        <cc:permits
           rdf:resource="http://creativecommons.org/ns#Distribution" />
        <cc:requires
           rdf:resource="http://creativecommons.org/ns#Notice" />
        <cc:requires
           rdf:resource="http://creativecommons.org/ns#Attribution" />
        <cc:permits
           rdf:resource="http://creativecommons.org/ns#DerivativeWorks" />
        <cc:requires
           rdf:resource="http://creativecommons.org/ns#ShareAlike" />
      </cc:License>
    </rdf:RDF>
  </metadata>
  <g
     inkscape:label="Layer 1"
     inkscape:groupmode="layer"
     id="layer1"
     transform="translate(0,-532.36218)">
    <rect
       y="-1052.3622"
       x="-1770"
       height="520"
       width="1770"
       id="rect7704"
       style="color:#000000;fill:#ffffff;fill-opacity:1;fill-rule:nonzero;stroke:none;stroke-width:3.54299998;marker:none;visibility:visible;display:inline;overflow:visible;enable-background:accumulate"
       transform="scale(-1,-1)"
       rx="45"
       ry="45" />
    <path
       style="color:#000000;fill:#0d69e1;fill-opacity:1;fill-rule:nonzero;stroke:none;stroke-width:3.54299998;marker:none;visibility:visible;display:inline;overflow:visible;enable-background:accumulate"
       d="M 45 9 C 25.056 9 9 25.056 9 45 L 9 475 C 9 494.944 25.056 511 45 511 L 1725 511 C 1744.944 511 1761 494.944 1761 475 L 1761 45 C 1761 25.056 1744.944 9 1725 9 L 45 9 z M 160.28125 65.625 C 167.44918 65.7422 173.27729 68.30475 177.75 73.34375 C 182.2226 78.38285 184.51947 85.1953 184.65625 93.75 C 184.51947 102.3047 182.2226 109.0859 177.75 114.125 C 173.2773 119.1641 167.44918 121.7578 160.28125 121.875 C 153.11326 121.7578 147.28514 119.164 142.8125 114.125 C 138.33983 109.0859 136.04296 102.3047 135.90625 93.75 C 136.04296 85.1953 138.33983 78.38285 142.8125 73.34375 C 147.28514 68.30475 153.11325 65.7422 160.28125 65.625 z M 276.0625 65.625 C 281.10153 65.7422 286.03902 67.36725 290.84375 70.53125 C 295.64839 73.69535 298.21089 77.6953 298.5625 82.5 L 298.5625 107.8125 C 298.6406 110.0586 299.20307 111.41805 300.21875 111.90625 C 301.23432 112.39455 302.23432 112.5976 303.25 112.5 L 298.5625 121.875 C 295.2812 121.9922 292.7187 121.52345 290.84375 120.46875 C 288.96871 119.41405 287.78121 117.0703 287.3125 113.4375 C 286.3359 115.4297 284.55465 117.3047 281.9375 119.0625 C 279.32028 120.8203 276.10153 121.7578 272.3125 121.875 C 268.3281 121.875 264.5781 120.46875 261.0625 117.65625 C 257.54687 114.84375 255.67187 110.625 255.4375 105 C 255.83101 99.1609 258.603 94.89825 263.71875 92.21875 C 268.83447 89.53945 273.94673 87.85655 279.0625 87.15625 C 284.1782 86.45605 286.91894 86.1516 287.3125 86.25 L 287.3125 82.5 C 287.19527 80.9571 286.03902 79.3477 283.8125 77.6875 C 281.5859 76.0274 278.99216 75.1367 276.0625 75 C 273.19138 75.098 270.48826 75.83215 267.96875 77.21875 C 265.4492 78.60555 263.46483 80.0586 262 81.5625 L 256.375 72.1875 C 258.66014 70.6836 261.36327 69.23055 264.46875 67.84375 C 267.5742 66.45715 271.43357 65.7227 276.0625 65.625 z M 336.4375 65.625 C 341.71927 65.661 346.32418 67.0475 350.25 69.8125 C 354.17573 72.5776 357.07081 76.5039 358.9375 81.5625 L 348.375 85.59375 C 347.35096 82.16465 345.79516 79.52405 343.75 77.71875 C 341.70476 75.91355 339.26949 75.014 336.4375 75 C 332.60934 75.078 329.48435 76.79695 327.0625 80.15625 C 324.6406 83.51565 323.3906 88.0469 323.3125 93.75 C 323.3906 99.4531 324.6406 103.98445 327.0625 107.34375 C 329.48435 110.70315 332.60935 112.4219 336.4375 112.5 C 339.26949 112.486 341.70476 111.58655 343.75 109.78125 C 345.79516 107.97605 347.35096 105.33545 348.375 101.90625 L 358.9375 105.9375 C 357.07081 110.9961 354.17573 114.9224 350.25 117.6875 C 346.32418 120.4526 341.71927 121.8387 336.4375 121.875 C 329.23044 121.7578 323.24607 119.164 318.5 114.125 C 313.7539 109.0859 311.30077 102.3047 311.125 93.75 C 311.30077 85.1953 313.75389 78.38285 318.5 73.34375 C 323.24607 68.30475 329.23044 65.7422 336.4375 65.625 z M 524.71875 65.625 C 529.79683 65.39068 534.85933 67.26568 539.9375 71.25 C 545.01557 75.23442 547.76557 82.73442 548.15625 93.75 C 547.97101 101.47572 546.34485 107.38891 543.3125 111.46875 C 540.28004 115.54862 536.93861 118.30555 533.28125 119.78125 C 529.6238 121.25694 526.7789 121.9618 524.71875 121.875 C 520.89059 121.66016 517.7656 120.67578 515.34375 118.9375 C 512.92185 117.19923 511.67185 115.9961 511.59375 115.3125 L 511.59375 142.5 L 500.34375 142.5 L 500.34375 67.5 L 509.71875 67.5 C 510.14284 69.77684 510.76784 71.65184 511.59375 73.125 C 511.55466 72.81255 512.55467 71.56255 514.625 69.375 C 516.69529 67.18755 520.07028 65.93756 524.71875 65.625 z M 70 67.5 L 81.25 67.5 L 94.375 93.75 L 107.5 67.5 L 118.75 67.5 L 123.4375 120 L 112.1875 120 L 109.375 83.4375 L 94.375 113.4375 L 79.375 83.4375 L 76.5625 120 L 65.3125 120 L 70 67.5 z M 199 67.5 L 210.25 67.5 L 210.25 87.1875 L 229.9375 87.1875 L 229.9375 67.5 L 241.1875 67.5 L 241.1875 120 L 229.9375 120 L 229.9375 97.5 L 210.25 97.5 L 210.25 120 L 199 120 L 199 67.5 z M 366 67.5 L 408.75 67.5 L 408.75 77.8125 L 393.0625 77.8125 L 393.0625 120 L 381.8125 120 L 381.8125 77.8125 L 366 77.8125 L 366 67.5 z M 421.46875 67.5 L 432.71875 67.5 L 432.71875 86.25 L 445.84375 86.25 C 452.3504 86.4258 457.07808 88.19145 459.96875 91.53125 C 462.85932 94.87115 464.2745 98.7305 464.21875 103.125 C 464.27445 107.5195 462.85932 111.37895 459.96875 114.71875 C 457.07808 118.05865 452.3504 119.8242 445.84375 120 L 421.46875 120 L 421.46875 67.5 z M 471.84375 67.5 L 483.09375 67.5 L 483.09375 120 L 471.84375 120 L 471.84375 67.5 z M 561.5 67.5 L 572.75 67.5 L 572.75 86.25 L 585.875 86.25 C 592.38166 86.42582 597.07807 88.19144 599.96875 91.53125 C 602.85932 94.87111 604.27445 98.73049 604.21875 103.125 C 604.2745 107.51955 602.85933 111.37892 599.96875 114.71875 C 597.07808 118.0586 592.38165 119.82422 585.875 120 L 561.5 120 L 561.5 67.5 z M 160.28125 75 C 156.45309 75.078 153.3281 76.79695 150.90625 80.15625 C 148.48435 83.51565 147.23435 88.0469 147.15625 93.75 C 147.23435 99.4531 148.48435 103.98445 150.90625 107.34375 C 153.3281 110.70315 156.4531 112.4219 160.28125 112.5 C 164.10934 112.422 167.23433 110.70315 169.65625 107.34375 C 172.07808 103.98445 173.32808 99.4531 173.40625 93.75 C 173.32805 88.0469 172.07808 83.51565 169.65625 80.15625 C 167.23433 76.79695 164.10934 75.0782 160.28125 75 z M 524.71875 75.9375 C 522.00388 75.97661 519.48379 76.82036 517.1875 78.5 C 514.89116 80.17973 513.03625 82.46098 511.59375 85.3125 L 511.59375 105 C 513.06973 107.3633 515.00946 109.19141 517.40625 110.5 C 519.80299 111.8086 522.23825 112.4805 524.71875 112.5 C 528.09762 112.42188 530.95698 110.70313 533.28125 107.34375 C 535.60542 103.98439 536.80855 99.45315 536.90625 93.75 C 536.80855 88.08597 535.60542 83.71098 533.28125 80.625 C 530.95699 77.53911 528.09762 75.9766 524.71875 75.9375 z M 287.3125 94.6875 C 285.59371 95.2373 283.19788 95.6864 280.125 96.0625 C 277.05205 96.4387 274.23955 97.2072 271.6875 98.3125 C 269.1354 99.4178 267.78123 101.3252 267.625 104.0625 C 267.82029 107.2852 268.85154 109.5195 270.6875 110.75 C 272.52341 111.9805 273.99216 112.5586 275.125 112.5 C 278.09372 112.207 280.84371 110.9102 283.34375 108.625 C 285.84371 106.3398 287.15621 104.8242 287.3125 104.0625 L 287.3125 94.6875 z M 432.71875 96.5625 L 432.71875 109.6875 L 446.78125 109.6875 C 448.69527 109.6065 450.25777 108.899 451.46875 107.5625 C 452.67965 106.226 453.30464 104.7461 453.34375 103.125 C 453.30465 101.5039 452.67964 100.024 451.46875 98.6875 C 450.25777 97.351 448.69527 96.6434 446.78125 96.5625 L 432.71875 96.5625 z M 572.75 96.5625 L 572.75 109.6875 L 586.8125 109.6875 C 588.72652 109.6066 590.28902 108.899 591.5 107.5625 C 592.7109 106.22601 593.3359 104.74611 593.375 103.125 C 593.3359 101.50393 592.7109 100.02401 591.5 98.6875 C 590.28902 97.35103 588.72653 96.6434 586.8125 96.5625 L 572.75 96.5625 z M 1491.8438 120.625 L 1501.2188 120.625 C 1501.2178 123.5157 1502.1562 125.922 1504.0312 127.875 C 1505.9062 129.8282 1508.7178 130.8594 1512.4688 130.9375 C 1516.2178 130.8595 1519.0312 129.8282 1520.9062 127.875 C 1522.7812 125.922 1523.7178 123.5157 1523.7188 120.625 L 1532.1562 120.625 C 1532.1562 124.6876 1530.4991 128.7501 1527.2188 132.8125 C 1523.9367 136.8751 1519.0303 139.0626 1512.4688 139.375 C 1505.8664 139.0626 1500.7731 136.8751 1497.2188 132.8125 C 1493.6635 128.7501 1491.8827 124.6876 1491.8438 120.625 z M 94.375 143.125 C 101.44862 143.223 107.18331 145.1446 111.5625 148.875 C 115.94158 152.6055 119.26939 157.5586 121.5625 163.75 L 108.96875 168.4375 C 107.56454 163.7891 105.64545 160.41415 103.21875 158.34375 C 100.79195 156.27355 97.84945 155.2735 94.375 155.3125 C 89.12107 155.3905 84.85544 157.7969 81.59375 162.5625 C 78.33201 167.3282 76.66014 173.9844 76.5625 182.5 C 76.6601 191.0156 78.33201 197.64065 81.59375 202.40625 C 84.85544 207.17195 89.12106 209.6094 94.375 209.6875 C 97.84945 209.7265 100.79195 208.6953 103.21875 206.625 C 105.64545 204.5547 107.56454 201.2109 108.96875 196.5625 L 121.5625 201.25 C 119.26939 207.4414 115.94158 212.3945 111.5625 216.125 C 107.18331 219.8555 101.44862 221.7773 94.375 221.875 C 84.07921 221.5935 76.41404 217.75075 71.375 210.34375 C 66.33593 202.93685 63.827 193.6546 63.84375 182.5 C 63.82695 171.3454 66.33593 162.06325 71.375 154.65625 C 76.41404 147.24945 84.07921 143.4065 94.375 143.125 z M 543.875 143.125 C 554.17071 143.4097 561.83588 147.2713 566.875 154.6875 C 571.914 162.1038 574.42292 171.3672 574.40625 182.5 C 574.42295 193.6328 571.91399 202.8962 566.875 210.3125 C 561.83588 217.7288 554.17071 221.5904 543.875 221.875 C 533.57921 221.5904 525.91404 217.7288 520.875 210.3125 C 515.83593 202.8962 513.327 193.6328 513.34375 182.5 C 513.32695 171.3672 515.83593 162.1038 520.875 154.6875 C 525.91404 147.2713 533.57921 143.4097 543.875 143.125 z M 662.40625 143.125 C 669.47987 143.223 675.18331 145.1446 679.5625 148.875 C 683.94158 152.6055 687.30064 157.5586 689.59375 163.75 L 677 168.4375 C 675.59579 163.7891 673.6767 160.41415 671.25 158.34375 C 668.8232 156.27355 665.8807 155.2735 662.40625 155.3125 C 657.15231 155.3905 652.88669 157.7969 649.625 162.5625 C 646.36326 167.3282 644.69139 173.9844 644.59375 182.5 C 644.69135 191.0156 646.36326 197.64065 649.625 202.40625 C 652.88669 207.17195 657.15231 209.6094 662.40625 209.6875 C 665.88069 209.7265 668.8232 208.6953 671.25 206.625 C 673.6767 204.5547 675.59579 201.2109 677 196.5625 L 689.59375 201.25 C 687.30064 207.4414 683.94158 212.3945 679.5625 216.125 C 675.18331 219.8555 669.47987 221.7773 662.40625 221.875 C 652.11046 221.5935 644.44529 217.75075 639.40625 210.34375 C 634.36718 202.93685 631.85825 193.6546 631.875 182.5 C 631.8582 171.3454 634.36718 162.06325 639.40625 154.65625 C 644.44529 147.24945 652.11046 143.4065 662.40625 143.125 z M 803.4375 143.125 C 813.73321 143.4097 821.39838 147.2713 826.4375 154.6875 C 831.4765 162.1038 833.98542 171.3672 833.96875 182.5 C 833.98545 193.6328 831.47649 202.8962 826.4375 210.3125 C 821.39838 217.7288 813.73321 221.5904 803.4375 221.875 C 793.14171 221.5904 785.44529 217.7288 780.40625 210.3125 C 775.36718 202.8962 772.85825 193.6328 772.875 182.5 C 772.8582 171.3672 775.36718 162.1038 780.40625 154.6875 C 785.44529 147.2713 793.14171 143.4097 803.4375 143.125 z M 952.03125 143.125 C 962.32696 143.4097 969.99213 147.2713 975.03125 154.6875 C 980.07025 162.1038 982.57917 171.3672 982.5625 182.5 C 982.5792 193.6328 980.07024 202.8962 975.03125 210.3125 C 969.99213 217.7288 962.32696 221.5904 952.03125 221.875 C 941.73546 221.5904 934.07029 217.7288 929.03125 210.3125 C 923.99218 202.8962 921.48325 193.6328 921.5 182.5 C 921.4832 171.3672 923.99218 162.1038 929.03125 154.6875 C 934.07029 147.2713 941.73546 143.4097 952.03125 143.125 z M 1287.7188 143.125 C 1294.7915 143.223 1300.4958 145.1446 1304.875 148.875 C 1309.2541 152.6055 1312.614 157.5586 1314.9062 163.75 L 1302.3125 168.4375 C 1300.9083 163.7891 1298.9892 160.41415 1296.5625 158.34375 C 1294.1357 156.27355 1291.1925 155.2735 1287.7188 155.3125 C 1282.464 155.3905 1278.1992 157.7969 1274.9375 162.5625 C 1271.6758 167.3282 1270.0048 173.9844 1269.9062 182.5 C 1270.0043 191.0156 1271.6758 197.64065 1274.9375 202.40625 C 1278.1992 207.17195 1282.4639 209.6094 1287.7188 209.6875 C 1291.1925 209.7265 1294.1357 208.6953 1296.5625 206.625 C 1298.9892 204.5547 1300.9083 201.2109 1302.3125 196.5625 L 1314.9062 201.25 C 1312.6139 207.4414 1309.2541 212.3945 1304.875 216.125 C 1300.4958 219.8555 1294.7915 221.7773 1287.7188 221.875 C 1277.4226 221.5935 1269.7577 217.75075 1264.7188 210.34375 C 1259.6789 202.93685 1257.1399 193.6546 1257.1562 182.5 C 1257.1403 171.3454 1259.6789 162.06325 1264.7188 154.65625 C 1269.7577 147.24945 1277.4226 143.4065 1287.7188 143.125 z M 1383.625 143.125 L 1386.4375 156.25 C 1382.9756 156.304 1380.3914 157.18225 1378.6875 158.90625 C 1376.9834 160.63045 1375.1926 162.877 1373.3125 165.625 C 1371.4321 168.2318 1369.2595 171.02355 1366.7812 173.96875 C 1364.3045 176.91415 1362.1019 178.4974 1360.1875 178.75 C 1364.7031 179.3215 1368.1102 181.0982 1370.4062 184.0625 C 1372.704 187.0268 1374.9218 190.5626 1377.0625 194.6875 C 1379.7491 199.5932 1382.4067 204.3569 1385.0625 209 C 1387.7181 213.6431 1390.6855 217.3169 1393.9375 220 L 1377.5938 220 C 1376.2233 217.4219 1374.0839 213.6719 1371.1562 208.75 C 1368.2296 203.8281 1365.5083 199.1406 1363 194.6875 C 1361.4073 191.7114 1359.6662 189.40765 1357.7812 187.78125 C 1355.8976 186.15495 1353.576 185.3338 1350.8125 185.3125 C 1349.7557 185.3295 1348.5703 185.3825 1347.2812 185.5 C 1345.9932 185.6172 1345.3044 185.70205 1345.1875 185.71875 L 1345.1875 220 L 1332.0625 220 L 1332.0625 145 L 1345.1875 145 L 1345.1875 173 C 1345.2996 173.086 1345.4109 173.1486 1345.5312 173.1875 C 1345.6526 173.2265 1345.8545 173.236 1346.125 173.25 C 1350.6504 173.166 1354.5118 170.82695 1357.7188 166.21875 C 1360.9244 161.61075 1364.4506 156.8433 1368.2812 151.9375 C 1372.113 147.0318 1377.2245 144.1022 1383.625 143.125 z M 1005.6562 144.0625 C 1008.014 144.1993 1010.2394 144.6479 1012.3125 145.4375 C 1014.3856 146.2272 1016.2226 147.341 1017.8438 148.75 C 1021.0199 151.7634 1023.7562 155.20245 1026 159.09375 C 1028.2437 162.98525 1030.5092 166.38695 1032.8125 169.28125 C 1035.1157 172.17565 1037.9273 173.63405 1041.2812 173.65625 C 1041.5387 173.65625 1041.7522 173.6155 1041.875 173.5625 C 1041.9977 173.5095 1042.0956 173.47545 1042.2188 173.40625 L 1042.2188 145 L 1055.3438 145 L 1055.3438 173.40625 C 1055.4656 173.47625 1055.5956 173.5096 1055.7188 173.5625 C 1055.8407 173.6155 1056.0249 173.65325 1056.2812 173.65625 C 1059.6363 173.63425 1062.4787 172.17565 1064.7812 169.28125 C 1067.0853 166.38695 1069.3492 162.98525 1071.5938 159.09375 C 1073.8365 155.20245 1076.5415 151.7634 1079.7188 148.75 C 1081.3389 147.341 1083.2089 146.2272 1085.2812 145.4375 C 1087.3546 144.6479 1089.5493 144.1993 1091.9062 144.0625 L 1095.6562 156.65625 C 1092.1798 156.67825 1089.5814 157.46885 1087.8125 159.03125 C 1086.0434 160.59385 1084.2675 162.7902 1082.5312 165.625 C 1080.8048 168.3315 1078.6983 171.15295 1076.2188 174.09375 C 1073.7378 177.03465 1071.6065 178.72665 1069.8125 179.15625 C 1074.1316 179.53575 1077.4138 181.16975 1079.6562 184.09375 C 1081.8999 187.01795 1084.1055 190.5581 1086.2812 194.6875 C 1088.9382 199.5843 1091.4865 204.3544 1093.875 209 C 1096.2633 213.6456 1099.0258 217.313 1102.2188 220 L 1085.3438 220 C 1083.8202 217.4219 1081.7269 213.6719 1079.0312 208.75 C 1076.3365 203.8281 1073.7423 199.1406 1071.2812 194.6875 C 1069.6218 191.7188 1067.9589 189.41075 1066.2812 187.78125 C 1064.6046 186.15185 1062.8293 185.3348 1060.9688 185.3125 C 1059.9135 185.3295 1058.7577 185.3825 1057.4688 185.5 C 1056.1789 185.6172 1055.4606 185.70205 1055.3438 185.71875 L 1055.3438 220 L 1042.2188 220 L 1042.2188 185.71875 C 1042.101 185.70175 1041.414 185.6172 1040.125 185.5 C 1038.8359 185.3828 1037.6481 185.3293 1036.5938 185.3125 C 1034.7319 185.3345 1032.9894 186.15185 1031.3125 187.78125 C 1029.6356 189.41075 1027.9423 191.7188 1026.2812 194.6875 C 1023.8212 199.1406 1021.2578 203.8281 1018.5625 208.75 C 1015.8672 213.6719 1013.7422 217.4219 1012.2188 220 L 995.34375 220 C 998.5357 217.313 1001.3302 213.6456 1003.7188 209 C 1006.1069 204.3544 1008.625 199.5843 1011.2812 194.6875 C 1013.4576 190.558 1015.6942 187.01795 1017.9375 184.09375 C 1020.1808 181.16975 1023.4629 179.53575 1027.7812 179.15625 C 1025.9879 178.72665 1023.8242 177.03465 1021.3438 174.09375 C 1018.8632 171.15295 1016.7583 168.3315 1015.0312 165.625 C 1013.2957 162.7902 1011.5503 160.59385 1009.7812 159.03125 C 1008.0123 157.46885 1005.3828 156.67865 1001.9062 156.65625 L 1005.6562 144.0625 z M 1639 144.0625 C 1644.4101 144.1797 1649.3011 146.0547 1653.6562 149.6875 C 1658.0121 153.3204 1660.3085 158.0079 1660.5625 163.75 C 1660.5905 168.2422 1660.1033 171.70655 1659.0938 174.15625 C 1658.0834 176.60615 1656.3828 179.21775 1654 181.96875 C 1651.0089 185.69095 1647.4147 189.6507 1643.2188 193.875 C 1639.0222 198.0993 1634.491 202.7511 1629.625 207.8125 L 1660.5625 207.8125 C 1660.5624 209.2578 1660.3437 211.0391 1659.875 213.1875 C 1659.4062 215.3359 1658.6874 217.6172 1657.75 220 L 1612.75 220 L 1612.75 208.75 C 1617.8728 204.0932 1622.6719 199.4526 1627.125 194.8125 C 1631.5781 190.1724 1635.9081 185.33545 1640.0938 180.34375 C 1642.4147 177.77685 1644.2991 175.27685 1645.75 172.84375 C 1647.2009 170.41085 1647.9553 167.3884 1648 163.75 C 1647.958 161.2919 1646.9651 159.06655 1645.0312 157.09375 C 1643.098 155.12115 1640.4481 154.08325 1637.125 153.96875 C 1634.332 154.08325 1631.723 155.12115 1629.2812 157.09375 C 1626.8401 159.06655 1624.4492 161.2919 1622.125 163.75 L 1614.625 155.3125 C 1617.3984 152.0313 1620.7731 149.35725 1624.7188 147.28125 C 1628.6636 145.20545 1633.414 144.1295 1639 144.0625 z M 1700.6875 144.0625 C 1706.0976 144.1797 1710.957 146.0547 1715.3125 149.6875 C 1719.6679 153.3204 1721.996 158.0079 1722.25 163.75 C 1722.278 168.2422 1721.76 171.70655 1720.75 174.15625 C 1719.7399 176.60615 1718.0703 179.21775 1715.6875 181.96875 C 1712.6964 185.69095 1709.1028 189.6507 1704.9062 193.875 C 1700.7101 198.0993 1696.1785 202.7511 1691.3125 207.8125 L 1722.25 207.8125 C 1722.2499 209.2578 1722.0003 211.0391 1721.5312 213.1875 C 1721.0628 215.3359 1720.3749 217.6172 1719.4375 220 L 1674.4375 220 L 1674.4375 208.75 C 1679.5603 204.0932 1684.3285 199.4526 1688.7812 194.8125 C 1693.2346 190.1724 1697.5647 185.33545 1701.75 180.34375 C 1704.0714 177.77685 1705.9557 175.27685 1707.4062 172.84375 C 1708.8573 170.41085 1709.612 167.3884 1709.6562 163.75 C 1709.6144 161.2919 1708.6211 159.06655 1706.6875 157.09375 C 1704.7539 155.12115 1702.1356 154.08325 1698.8125 153.96875 C 1696.0195 154.08325 1693.3789 155.12115 1690.9375 157.09375 C 1688.4961 159.06655 1686.1367 161.2919 1683.8125 163.75 L 1676.3125 155.3125 C 1679.0859 152.0313 1682.4297 149.35725 1686.375 147.28125 C 1690.3203 145.20545 1695.1015 144.1295 1700.6875 144.0625 z M 161.21875 145 L 176.21875 145 L 200.59375 220 L 186.53125 220 L 181.84375 205 L 155.59375 205 L 150.90625 220 L 136.84375 220 L 161.21875 145 z M 219.46875 145 L 248.53125 145 C 255.59872 145.24 261.01166 147.43645 264.78125 151.59375 C 268.55072 155.75125 270.46367 160.4297 270.5 165.625 C 270.4637 168.5352 269.48822 171.3946 267.59375 174.1875 C 265.69916 176.9805 263.09871 179.1211 259.78125 180.625 C 263.60932 182.0313 266.73431 184.125 269.15625 186.9375 C 271.57806 189.75 272.82806 193.2813 272.90625 197.5 C 272.76667 203.7695 270.45864 209.0352 266 213.3125 C 261.54124 217.5898 255.76 219.8242 248.65625 220 L 219.46875 220 L 219.46875 145 z M 291.9375 145 L 321 145 C 328.06747 145.24 333.48041 147.43645 337.25 151.59375 C 341.01947 155.75125 342.93242 160.4297 342.96875 165.625 C 342.93245 168.5352 341.95697 171.3946 340.0625 174.1875 C 338.16791 176.9805 335.56746 179.1211 332.25 180.625 C 336.07807 182.0313 339.20306 184.125 341.625 186.9375 C 344.04681 189.75 345.29681 193.2813 345.375 197.5 C 345.23542 203.7695 342.92739 209.0352 338.46875 213.3125 C 334.00999 217.5898 328.22875 219.8242 321.125 220 L 291.9375 220 L 291.9375 145 z M 364.40625 145 L 377.53125 145 L 377.53125 196.5625 L 404.71875 145 L 418.78125 145 L 418.78125 220 L 405.65625 220 L 405.65625 168.4375 L 378.46875 220 L 364.40625 220 L 364.40625 145 z M 440.53125 145 L 453.65625 145 L 453.65625 175 L 481.78125 175 L 481.78125 145 L 494.90625 145 L 494.90625 220 L 481.78125 220 L 481.78125 186.25 L 453.65625 186.25 L 453.65625 220 L 440.53125 220 L 440.53125 145 z M 703.9375 145 L 758.3125 145 L 758.3125 156.25 L 737.6875 156.25 L 737.6875 220 L 724.5625 220 L 724.5625 156.25 L 703.9375 156.25 L 703.9375 145 z M 852.375 145 L 877.6875 145 C 886.94526 145.4297 893.50776 148.30475 897.375 153.65625 C 901.24213 159.00795 903.11713 164.2579 903 169.375 C 902.88275 174.4922 900.539 179.711 895.96875 185.0625 C 891.39839 190.4141 885.30464 193.3203 877.6875 193.75 L 865.5 193.75 L 865.5 220 L 852.375 220 L 852.375 145 z M 1118.4375 145 L 1165.3125 145 L 1165.3125 157.1875 L 1131.5625 157.1875 L 1131.5625 175 L 1158.75 175 L 1158.75 186.25 L 1131.5625 186.25 L 1131.5625 208.75 L 1166.25 208.75 L 1166.25 220 L 1118.4375 220 L 1118.4375 145 z M 1188.0312 145 L 1217.0938 145 C 1224.1608 145.24 1229.6054 147.43645 1233.375 151.59375 C 1237.1445 155.75125 1239.0262 160.4297 1239.0625 165.625 C 1239.0265 168.5352 1238.082 171.3946 1236.1875 174.1875 C 1234.2929 176.9805 1231.6608 179.1211 1228.3438 180.625 C 1232.1709 182.0313 1235.2959 184.125 1237.7188 186.9375 C 1240.1398 189.75 1241.3898 193.2813 1241.4688 197.5 C 1241.3284 203.7695 1239.0521 209.0352 1234.5938 213.3125 C 1230.1342 217.5898 1224.3537 219.8242 1217.25 220 L 1188.0312 220 L 1188.0312 145 z M 1409.125 145 L 1422.25 145 L 1422.25 196.5625 L 1449.4375 145 L 1463.5 145 L 1463.5 220 L 1450.375 220 L 1450.375 168.4375 L 1423.1875 220 L 1409.125 220 L 1409.125 145 z M 1485.2812 145 L 1498.4062 145 L 1498.4062 196.5625 L 1525.5938 145 L 1539.6562 145 L 1539.6562 220 L 1526.5312 220 L 1526.5312 168.4375 L 1499.3438 220 L 1485.2812 220 L 1485.2812 145 z M 543.875 155.3125 C 538.62106 155.3905 534.35544 157.7969 531.09375 162.5625 C 527.83201 167.3282 526.16014 173.9844 526.0625 182.5 C 526.1601 191.0156 527.83201 197.64065 531.09375 202.40625 C 534.35544 207.17195 538.62106 209.6094 543.875 209.6875 C 549.12886 209.6095 553.39448 207.17195 556.65625 202.40625 C 559.91791 197.64065 561.58979 191.0156 561.6875 182.5 C 561.5898 173.9844 559.91791 167.3282 556.65625 162.5625 C 553.39448 157.7969 549.12886 155.3907 543.875 155.3125 z M 803.4375 155.3125 C 798.18356 155.3905 793.91794 157.7969 790.65625 162.5625 C 787.39451 167.3282 785.72264 173.9844 785.625 182.5 C 785.7226 191.0156 787.39451 197.64065 790.65625 202.40625 C 793.91794 207.17195 798.18356 209.6094 803.4375 209.6875 C 808.69136 209.6095 812.92573 207.17195 816.1875 202.40625 C 819.44916 197.64065 821.15229 191.0156 821.25 182.5 C 821.1523 173.9844 819.44916 167.3282 816.1875 162.5625 C 812.92573 157.7969 808.69136 155.3907 803.4375 155.3125 z M 952.03125 155.3125 C 946.77731 155.3905 942.51169 157.7969 939.25 162.5625 C 935.98826 167.3282 934.31639 173.9844 934.21875 182.5 C 934.31635 191.0156 935.98826 197.64065 939.25 202.40625 C 942.51169 207.17195 946.77731 209.6094 952.03125 209.6875 C 957.28511 209.6095 961.55073 207.17195 964.8125 202.40625 C 968.07416 197.64065 969.74604 191.0156 969.84375 182.5 C 969.74605 173.9844 968.07416 167.3282 964.8125 162.5625 C 961.55073 157.7969 957.28511 155.3907 952.03125 155.3125 z M 232.59375 156.25 L 232.59375 175.53125 L 247.59375 175.53125 C 250.44527 175.48125 252.69527 174.5703 254.375 172.8125 C 256.05464 171.0547 256.92964 168.76905 256.96875 165.90625 C 256.87105 162.63345 255.88667 160.2071 254.03125 158.625 C 252.17574 157.043 250.03511 156.2417 247.59375 156.25 L 232.59375 156.25 z M 305.0625 156.25 L 305.0625 175.53125 L 320.0625 175.53125 C 322.91402 175.48125 325.16402 174.5703 326.84375 172.8125 C 328.52339 171.0547 329.39839 168.76905 329.4375 165.90625 C 329.3398 162.63345 328.35542 160.2071 326.5 158.625 C 324.64449 157.043 322.50386 156.2417 320.0625 156.25 L 305.0625 156.25 z M 865.5 156.25 L 865.5 182.5 L 873.9375 182.5 C 877.84371 182.539 881.28121 181.5078 884.25 179.4375 C 887.2187 177.3672 888.7812 174.0235 888.9375 169.375 C 888.7812 164.7266 887.2187 161.35165 884.25 159.28125 C 881.28121 157.21105 877.84371 156.211 873.9375 156.25 L 865.5 156.25 z M 1201.1562 156.25 L 1201.1562 175.53125 L 1216.1562 175.53125 C 1219.0086 175.48125 1221.2885 174.5703 1222.9688 172.8125 C 1224.6481 171.0547 1225.4923 168.76905 1225.5312 165.90625 C 1225.4343 162.63345 1224.4804 160.2071 1222.625 158.625 C 1220.7695 157.043 1218.5985 156.2417 1216.1562 156.25 L 1201.1562 156.25 z M 168.71875 161.875 L 159.34375 193.75 L 178.09375 193.75 L 168.71875 161.875 z M 232.59375 186.25 L 232.59375 208.75 L 248.53125 208.75 C 252.28121 208.6161 255.0937 207.4018 256.96875 205.125 C 258.8437 202.8482 259.7812 200.3125 259.78125 197.5 C 259.7812 194.6875 258.8437 192.1518 256.96875 189.875 C 255.0937 187.5982 252.28121 186.3839 248.53125 186.25 L 232.59375 186.25 z M 305.0625 186.25 L 305.0625 208.75 L 321 208.75 C 324.74996 208.6161 327.56245 207.4018 329.4375 205.125 C 331.31245 202.8482 332.24995 200.3125 332.25 197.5 C 332.24995 194.6875 331.31245 192.1518 329.4375 189.875 C 327.56245 187.5982 324.74996 186.3839 321 186.25 L 305.0625 186.25 z M 1201.1562 186.25 L 1201.1562 208.75 L 1217.0938 208.75 C 1220.8428 208.6161 1223.6562 207.4018 1225.5312 205.125 C 1227.4062 202.8482 1228.3428 200.3125 1228.3438 197.5 C 1228.3428 194.6875 1227.4062 192.1518 1225.5312 189.875 C 1223.6562 187.5982 1220.8428 186.3839 1217.0938 186.25 L 1201.1562 186.25 z M 590 188.125 L 616.25 188.125 L 616.25 200.3125 L 590 200.3125 L 590 188.125 z M 536.65625 263.125 C 546.95196 263.4097 554.64838 267.2713 559.6875 274.6875 C 564.7265 282.1038 567.23542 291.3672 567.21875 302.5 C 567.23545 313.6328 564.72649 322.8962 559.6875 330.3125 C 554.64838 337.7288 546.95196 341.5904 536.65625 341.875 C 526.36046 341.5904 518.69529 337.7288 513.65625 330.3125 C 508.61718 322.8962 506.10825 313.6328 506.125 302.5 C 506.1082 291.3672 508.61718 282.1038 513.65625 274.6875 C 518.69529 267.2713 526.36046 263.4097 536.65625 263.125 z M 680.09375 263.125 C 690.38946 263.4097 698.05463 267.2713 703.09375 274.6875 C 708.13275 282.1038 710.64167 291.3672 710.625 302.5 C 710.6417 313.6328 708.13274 322.8962 703.09375 330.3125 C 698.05463 337.7288 690.38946 341.5904 680.09375 341.875 C 669.79796 341.5904 662.13279 337.7288 657.09375 330.3125 C 652.05468 322.8962 649.5145 313.6328 649.53125 302.5 C 649.51445 291.3672 652.05468 282.1038 657.09375 274.6875 C 662.13279 267.2713 669.79796 263.4097 680.09375 263.125 z M 977.875 263.125 C 988.17071 263.4097 995.86755 267.2713 1000.9062 274.6875 C 1005.9452 282.1038 1008.4542 291.3672 1008.4375 302.5 C 1008.4545 313.6328 1005.9452 322.8962 1000.9062 330.3125 C 995.86755 337.7288 988.17071 341.5904 977.875 341.875 C 967.57921 341.5904 959.91404 337.7288 954.875 330.3125 C 949.83593 322.8962 947.327 313.6328 947.34375 302.5 C 947.32695 291.3672 949.83593 282.1038 954.875 274.6875 C 959.91404 267.2713 967.57921 263.4097 977.875 263.125 z M 1625.9688 263.25 C 1634.0739 263.264 1640.5901 266.26185 1645.5312 272.21875 C 1650.4728 278.17585 1653.0197 287.0173 1653.1562 298.75 C 1653.2543 310.3683 1650.957 320.26565 1646.25 328.46875 C 1641.5429 336.67195 1633.8401 340.97545 1623.1562 341.34375 C 1619.2112 341.17075 1615.6172 340.4609 1612.375 339.25 C 1609.1328 338.0391 1607.4137 337.3605 1607.2188 337.1875 L 1605.75 325.65625 C 1605.909 325.84045 1607.5898 326.5859 1610.8125 327.875 C 1614.0351 329.1641 1617.8406 329.90965 1622.2188 330.09375 C 1627.7509 329.78795 1631.7972 327.63285 1634.3438 323.65625 C 1636.8898 319.67975 1638.4852 315.7265 1639.1562 311.75 C 1639.8277 307.7735 1640.124 305.6184 1640.0312 305.3125 C 1637.6486 307.2656 1634.9294 308.98445 1631.8438 310.46875 C 1628.7577 311.95315 1625.5387 312.7344 1622.2188 312.8125 C 1618.9762 313.0274 1615.164 311.66805 1610.75 308.71875 C 1606.3359 305.76955 1603.8981 299.9414 1603.4688 291.25 C 1603.6445 283.5212 1605.8792 276.9766 1610.1562 271.625 C 1614.4338 266.2735 1619.6989 263.4789 1625.9688 263.25 z M 317.59375 265 L 326.96875 265 C 327.47654 267.3633 328.57029 269.1915 330.25 270.5 C 331.92966 271.8086 333.9609 272.4805 336.34375 272.5 C 338.66793 272.48 340.55856 271.8086 342.0625 270.5 C 343.56636 269.1915 344.80074 267.3633 345.71875 265 L 355.09375 265 C 355.17475 265.1852 354.79046 266.4677 353.96875 268.875 C 353.14694 271.2825 351.38421 273.7176 348.6875 276.125 C 345.9907 278.5325 341.88769 279.8149 336.34375 280 C 330.79974 279.8149 326.66549 278.5325 323.96875 276.125 C 321.27197 273.7176 319.50924 271.2825 318.6875 268.875 C 317.86573 266.4677 317.51272 265.1852 317.59375 265 z M 391.59375 265 C 393.90812 265.058 395.83816 265.86945 397.375 267.40625 C 398.9118 268.94315 399.72282 270.84195 399.78125 273.15625 C 399.77225 273.81475 399.67212 274.4565 399.5 275.0625 C 399.32783 275.6685 399.13327 276.26725 398.90625 276.84375 C 398.26867 278.24905 396.74747 280.9214 394.34375 284.875 C 391.94 288.8286 390.28263 291.47825 389.34375 292.84375 L 383.15625 292.84375 L 390.5 281.25 C 388.46258 280.9333 386.77968 280.0463 385.46875 278.5625 C 384.15781 277.0787 383.48245 275.26825 383.4375 273.15625 C 383.4959 270.84185 384.30692 268.94315 385.84375 267.40625 C 387.38056 265.86945 389.27934 265.0584 391.59375 265 z M 413.6875 265 C 416.00187 265.058 417.93191 265.86945 419.46875 267.40625 C 421.00555 268.94315 421.81657 270.84195 421.875 273.15625 C 421.866 273.81475 421.76587 274.4565 421.59375 275.0625 C 421.42158 275.6685 421.22702 276.26725 421 276.84375 C 420.36242 278.24905 418.84122 280.9214 416.4375 284.875 C 414.03375 288.8286 412.34513 291.47825 411.40625 292.84375 L 405.25 292.84375 L 412.5625 281.25 C 410.52508 280.9333 408.87343 280.0463 407.5625 278.5625 C 406.25156 277.0787 405.5762 275.26825 405.53125 273.15625 C 405.58965 270.84185 406.36942 268.94315 407.90625 267.40625 C 409.44306 265.86945 411.37309 265.0584 413.6875 265 z M 438.8125 265 L 486.625 265 L 486.625 276.25 L 451.9375 276.25 L 451.9375 295 L 467.875 295 C 477.0937 295.3516 483.49994 297.91415 487.09375 302.71875 C 490.68744 307.52355 492.40618 312.4609 492.25 317.5 C 492.3281 322.5391 490.29681 327.4453 486.15625 332.25 C 482.01557 337.0547 475.29683 339.6484 466 340 L 438.8125 340 L 438.8125 265 z M 583.03125 265 L 608.34375 265 C 617.60151 265.4297 624.16401 268.30475 628.03125 273.65625 C 631.89838 279.00795 633.77338 284.2579 633.65625 289.375 C 633.539 294.4922 631.19525 299.711 626.625 305.0625 C 622.05464 310.4141 615.96089 313.3203 608.34375 313.75 L 596.15625 313.75 L 596.15625 340 L 583.03125 340 L 583.03125 265 z M 737.6875 265 L 781.75 265 L 781.75 270.625 L 781.75 328.75 L 790.1875 328.75 L 790.1875 353.125 L 778.9375 353.125 L 778.9375 340 L 732.0625 340 L 732.0625 353.125 L 720.8125 353.125 L 720.8125 328.75 L 729.25 328.75 C 730.5347 325.4853 731.80901 320.9086 733.09375 315 C 734.37845 309.0915 735.44442 302.6883 736.3125 295.8125 C 737.18054 288.9367 737.65276 282.4165 737.6875 276.25 L 737.6875 265 z M 803.625 265 L 816.75 265 L 816.75 316.5625 L 843.9375 265 L 858 265 L 858 340 L 844.875 340 L 844.875 288.4375 L 817.6875 340 L 803.625 340 L 803.625 265 z M 877.15625 265 L 890.28125 265 L 890.28125 295 L 918.40625 295 L 918.40625 265 L 931.53125 265 L 931.53125 340 L 918.40625 340 L 918.40625 306.25 L 890.28125 306.25 L 890.28125 340 L 877.15625 340 L 877.15625 265 z M 1028.25 265 C 1030.5644 265.058 1032.4949 265.86945 1034.0312 267.40625 C 1035.5685 268.94315 1036.3791 270.84195 1036.4375 273.15625 C 1036.4275 273.81475 1036.3289 274.4565 1036.1562 275.0625 C 1035.9841 275.6685 1035.7895 276.26725 1035.5625 276.84375 C 1034.9249 278.24905 1033.4037 280.9214 1031 284.875 C 1028.5962 288.8286 1026.9072 291.47825 1025.9688 292.84375 L 1019.8125 292.84375 L 1027.1562 281.25 C 1025.1191 280.9333 1023.4359 280.0463 1022.125 278.5625 C 1020.8141 277.0787 1020.1386 275.26825 1020.0938 273.15625 C 1020.1517 270.84185 1020.9319 268.94315 1022.4688 267.40625 C 1024.0055 265.86945 1025.9356 265.0584 1028.25 265 z M 1050.3438 265 C 1052.6581 265.058 1054.5882 265.86945 1056.125 267.40625 C 1057.6618 268.94315 1058.4416 270.84195 1058.5 273.15625 C 1058.49 273.81475 1058.422 274.4565 1058.25 275.0625 C 1058.0778 275.6685 1057.8836 276.26725 1057.6562 276.84375 C 1057.0192 278.24905 1055.497 280.9214 1053.0938 284.875 C 1050.6898 288.8286 1049.0014 291.47825 1048.0625 292.84375 L 1041.9062 292.84375 L 1049.2188 281.25 C 1047.1808 280.9333 1045.5293 280.0463 1044.2188 278.5625 C 1042.9073 277.0787 1042.2325 275.26825 1042.1875 273.15625 C 1042.2455 270.84185 1043.0257 268.94315 1044.5625 267.40625 C 1046.0993 265.86945 1048.0288 265.0584 1050.3438 265 z M 1700.7188 265 L 1711.9688 265 L 1711.9688 313.75 L 1722.2812 313.75 L 1718 325 L 1712.9062 325 L 1712.9062 340 L 1699.7812 340 L 1699.7812 325 L 1664.1562 325 L 1664.1562 313.75 L 1700.7188 265 z M 536.65625 275.3125 C 531.40231 275.3905 527.16794 277.7969 523.90625 282.5625 C 520.64451 287.3282 518.94139 293.9844 518.84375 302.5 C 518.94135 311.0156 520.64451 317.64065 523.90625 322.40625 C 527.16794 327.17195 531.40231 329.6094 536.65625 329.6875 C 541.91011 329.6095 546.17573 327.17195 549.4375 322.40625 C 552.69916 317.64065 554.37104 311.0156 554.46875 302.5 C 554.37105 293.9844 552.69916 287.3282 549.4375 282.5625 C 546.17573 277.7969 541.91011 275.3907 536.65625 275.3125 z M 680.09375 275.3125 C 674.83981 275.3905 670.57419 277.7969 667.3125 282.5625 C 664.05076 287.3282 662.37889 293.9844 662.28125 302.5 C 662.37885 311.0156 664.05076 317.64065 667.3125 322.40625 C 670.57419 327.17195 674.83981 329.6094 680.09375 329.6875 C 685.34761 329.6095 689.58198 327.17195 692.84375 322.40625 C 696.10541 317.64065 697.80854 311.0156 697.90625 302.5 C 697.80855 293.9844 696.10541 287.3282 692.84375 282.5625 C 689.58198 277.7969 685.34761 275.3907 680.09375 275.3125 z M 977.875 275.3125 C 972.62106 275.3905 968.38669 277.7969 965.125 282.5625 C 961.86326 287.3282 960.16014 293.9844 960.0625 302.5 C 960.1601 311.0156 961.86326 317.64065 965.125 322.40625 C 968.38669 327.17195 972.62106 329.6094 977.875 329.6875 C 983.12886 329.6095 987.39448 327.17195 990.65625 322.40625 C 993.91791 317.64065 995.58979 311.0156 995.6875 302.5 C 995.5898 293.9844 993.91791 287.3282 990.65625 282.5625 C 987.39448 277.7969 983.12886 275.3907 977.875 275.3125 z M 1627.8438 275.3125 C 1623.7029 275.586 1620.6543 277.28695 1618.6562 280.40625 C 1616.6588 283.52575 1615.6454 286.8248 1615.6562 290.3125 C 1615.8128 294.0625 1616.9062 296.875 1618.9375 298.75 C 1620.9687 300.625 1623.0003 301.5625 1625.0312 301.5625 C 1629.7413 301.1775 1633.3435 299.6328 1635.8438 296.9375 C 1638.3435 294.2422 1639.6026 292.6976 1639.625 292.3125 C 1639.477 290.8773 1639.0618 288.83165 1638.3438 286.15625 C 1637.6251 283.48105 1636.4373 281.0414 1634.7812 278.8125 C 1633.1256 276.5837 1630.8039 275.4084 1627.8438 275.3125 z M 596.15625 276.25 L 596.15625 302.5 L 604.59375 302.5 C 608.49996 302.539 611.93746 301.5078 614.90625 299.4375 C 617.87495 297.3672 619.43745 294.0235 619.59375 289.375 C 619.43745 284.7266 617.87495 281.35165 614.90625 279.28125 C 611.93746 277.21105 608.49996 276.211 604.59375 276.25 L 596.15625 276.25 z M 750.8125 276.25 C 750.7622 285.4688 749.9051 294.90635 748.28125 304.59375 C 746.65733 314.28135 744.56359 322.3437 741.96875 328.75 L 768.625 328.75 L 768.625 276.25 L 750.8125 276.25 z M 1699.7812 284.6875 L 1678.2188 313.75 L 1699.7812 313.75 L 1699.7812 284.6875 z M 274.03125 285.625 C 280.78902 285.8399 286.50777 288.44935 291.15625 293.46875 C 295.80463 298.48835 298.21088 304.6289 298.40625 311.875 C 298.38945 313.3399 298.14391 314.6367 297.625 315.75 C 297.10597 316.8633 296.41401 317.4414 295.59375 317.5 L 261.84375 317.5 C 262.13669 323.0078 263.90232 326.7578 267.125 328.75 C 270.34763 330.7422 273.2695 331.6797 275.90625 331.5625 C 278.19137 331.5625 280.20699 330.97265 281.90625 329.78125 C 283.60543 328.58985 285.3398 326.81535 287.15625 324.46875 L 296.28125 329.6875 C 292.97205 333.8867 289.57026 336.9648 286.09375 338.9375 C 282.61714 340.9101 279.21536 341.8945 275.90625 341.875 C 268.63223 341.7578 262.42911 339.164 257.28125 334.125 C 252.13336 329.0859 249.51506 322.3047 249.40625 313.75 C 249.44535 309.6875 249.87834 306.1206 250.6875 303.0625 C 251.49664 300.0045 252.83592 297.3215 254.75 295 C 257.1021 292.1485 259.99719 289.8672 263.4375 288.1875 C 266.87776 286.5079 270.40678 285.6641 274.03125 285.625 z M 213.25 286.5625 C 219.89059 286.5875 225.10933 287.79975 228.9375 290.21875 C 232.76557 292.63795 234.73432 296.1133 234.8125 300.625 C 234.70921 303.937 233.73377 306.6847 231.90625 308.875 C 230.07864 311.0653 228.00051 312.51845 225.6875 313.21875 C 228.19583 313.63175 230.61323 314.7969 232.9375 316.75 C 235.26167 318.7031 236.52283 321.7746 236.6875 325.9375 C 236.52562 331.5234 234.39169 335.5859 230.3125 338.125 C 226.23322 340.664 221.17965 341.914 215.125 341.875 C 211.08479 341.864 206.81694 341.1094 202.375 339.625 C 197.93302 338.1406 194.24999 335.97995 191.28125 333.15625 L 198.25 325.53125 C 200.30913 328.10665 203.01002 329.91685 206.375 330.96875 C 209.73993 332.02065 212.66403 332.5363 215.125 332.5 C 217.15621 332.48 219.18746 331.8086 221.21875 330.5 C 223.24996 329.1914 224.34371 327.3633 224.5 325 C 224.5195 323.0469 224.00387 321.32815 222.96875 319.84375 C 221.93356 318.35945 220.26168 317.5781 217.9375 317.5 L 210.4375 317.5 L 210.4375 309.0625 L 217.9375 309.0625 C 219.81246 309.0035 221.21871 308.4258 222.15625 307.3125 C 223.09371 306.1992 223.56246 304.9024 223.5625 303.4375 C 223.36715 300.6641 222.11715 298.6953 219.8125 297.5625 C 217.50778 296.4297 215.32028 295.8985 213.25 295.9375 C 210.01895 296.0045 207.31359 296.58485 205.1875 297.65625 C 203.06136 298.72775 201.18636 299.88405 199.5625 301.15625 L 194.5 291.25 C 196.8549 289.8243 199.5915 288.68365 202.75 287.84375 C 205.90846 287.00395 209.42185 286.5821 213.25 286.5625 z M 70 287.5 L 81.25 287.5 L 94.375 313.75 L 107.5 287.5 L 118.75 287.5 L 123.4375 340 L 112.1875 340 L 109.375 303.4375 L 94.375 333.4375 L 79.375 303.4375 L 76.5625 340 L 65.3125 340 L 70 287.5 z M 134.15625 287.5 L 147.28125 287.5 L 159.46875 322.1875 L 169.78125 287.5 L 182.90625 287.5 L 161.34375 352.1875 C 159.83981 355.4882 157.69919 358.0351 154.90625 359.8125 C 152.11326 361.5898 149.25389 362.4804 146.34375 362.5 C 145.9559 362.511 145.56081 362.4895 145.15625 362.4375 C 144.75166 362.3815 143.86103 362.22545 142.46875 361.96875 L 138.84375 351.25 C 139.80077 351.6992 140.69139 351.9648 141.53125 352.0625 C 142.37108 352.1605 143.04295 352.207 143.53125 352.1875 C 146.75394 352.0115 149.17114 350.65295 150.78125 348.09375 C 152.39132 345.53465 153.55001 342.8307 154.25 340 L 134.15625 287.5 z M 313.84375 287.5 L 325.09375 287.5 L 325.09375 323.125 L 346.65625 287.5 L 358.84375 287.5 L 358.84375 340 L 347.59375 340 L 347.59375 304.375 L 326.03125 340 L 313.84375 340 L 313.84375 287.5 z M 274.03125 295 C 270.88669 295.078 268.11214 296.13625 265.6875 298.15625 C 263.26281 300.17645 261.97487 303.4933 261.84375 308.125 L 285.28125 308.125 C 285.61323 308.105 285.85207 307.90245 286 307.53125 C 286.14784 307.16025 286.2215 306.7383 286.21875 306.25 C 286.05408 303.3622 284.71257 300.77075 282.1875 298.46875 C 279.66235 296.16695 276.94137 295.0084 274.03125 295 z M 451.9375 306.25 L 451.9375 328.75 L 465.0625 328.75 C 469.3398 328.75 472.76167 327.8125 475.28125 325.9375 C 477.80073 324.0625 479.06636 321.25 479.125 317.5 C 479.0663 313.75 477.80073 310.9375 475.28125 309.0625 C 472.76167 307.1875 469.3398 306.25 465.0625 306.25 L 451.9375 306.25 z M 1637.9375 383 C 1642.8761 383.064 1647.3984 384.5977 1651.5 387.625 C 1655.6015 390.6524 1657.7803 394.7796 1658.0312 400 C 1657.875 405.2344 1656.3122 409.5157 1653.3438 412.875 C 1650.3748 416.2344 1646.9376 418.2031 1643.0312 418.75 C 1644.7319 419.051 1647.0071 419.9005 1649.8438 421.3125 C 1652.68 422.7246 1655.2468 424.7755 1657.5625 427.4375 C 1659.8781 430.0996 1661.1119 433.4491 1661.25 437.5 C 1661.214 443.4375 1658.832 448.90625 1654.125 453.90625 C 1649.4179 458.90625 1642.5989 461.5625 1633.6562 461.875 C 1629.5772 461.7411 1625.4297 461.21875 1621.25 460.28125 C 1617.0703 459.34375 1614.8292 458.79025 1614.5 458.65625 L 1612.9062 445.53125 C 1615.3004 447.05195 1618.2197 448.14795 1621.7188 448.78125 C 1625.2175 449.41465 1628.5839 449.707 1631.7812 449.6875 C 1636.134 449.7125 1639.8571 448.71935 1642.9375 446.71875 C 1646.0178 444.71825 1647.6427 441.54635 1647.8438 437.21875 C 1648.053 435.35495 1647.3633 433.13175 1645.7812 430.53125 C 1644.1993 427.93085 1640.478 426.5067 1634.5938 426.25 C 1633.4413 426.23 1632.292 426.277 1631.1562 426.375 C 1630.0207 426.473 1628.9828 426.7383 1628.0312 427.1875 L 1628.0312 416.875 C 1632.836 415.8203 1636.8046 413.9453 1639.9688 411.25 C 1643.1327 408.5547 1644.7892 405.7422 1644.9062 402.8125 C 1644.8084 400.4102 1643.824 398.42585 1641.9688 396.84375 C 1640.113 395.26185 1637.9727 394.4336 1635.5312 394.375 C 1631.8929 394.358 1628.8394 394.8538 1626.4062 395.875 C 1623.9734 396.8963 1621.4734 398.5525 1618.9062 400.8125 L 1613.9688 389.6875 C 1616.5495 388.1781 1620.1993 386.70715 1624.9062 385.28125 C 1629.6135 383.85555 1633.9503 383.1033 1637.9375 383 z M 467.46875 383.125 C 477.76443 383.4065 485.4296 387.24945 490.46875 394.65625 C 495.50772 402.06325 498.01664 411.3454 498 422.5 C 498.0166 433.6546 495.50772 442.93685 490.46875 450.34375 C 485.4296 457.75075 477.76443 461.5935 467.46875 461.875 C 457.92196 461.6507 450.64764 458.29795 445.625 451.84375 C 440.60227 445.38955 437.75267 437.1798 437.09375 427.1875 L 424.34375 427.1875 L 424.34375 460 L 411.21875 460 L 411.21875 385 L 424.34375 385 L 424.34375 415.9375 L 437.25 415.9375 C 438.15603 406.4234 441.12531 398.6413 446.125 392.5625 C 451.1246 386.4838 458.22898 383.3284 467.46875 383.125 z M 1700.6875 384.0625 C 1706.0976 384.1797 1710.957 386.0547 1715.3125 389.6875 C 1719.6679 393.3204 1721.996 398.0079 1722.25 403.75 C 1722.278 408.2422 1721.76 411.70655 1720.75 414.15625 C 1719.7399 416.60615 1718.0703 419.21775 1715.6875 421.96875 C 1712.6964 425.69095 1709.1028 429.6507 1704.9062 433.875 C 1700.7099 438.0993 1696.1785 442.7511 1691.3125 447.8125 L 1722.25 447.8125 C 1722.2499 449.2578 1722.0001 451.0391 1721.5312 453.1875 C 1721.0625 455.3359 1720.3749 457.6172 1719.4375 460 L 1674.4375 460 L 1674.4375 448.75 C 1679.5603 444.0932 1684.3283 439.4526 1688.7812 434.8125 C 1693.2344 430.1724 1697.5647 425.33545 1701.75 420.34375 C 1704.0714 417.77685 1705.9555 415.27685 1707.4062 412.84375 C 1708.8573 410.41085 1709.6118 407.3884 1709.6562 403.75 C 1709.6144 401.2919 1708.6211 399.06655 1706.6875 397.09375 C 1704.7539 395.12115 1702.1356 394.08325 1698.8125 393.96875 C 1696.0195 394.08325 1693.3789 395.12115 1690.9375 397.09375 C 1688.4961 399.06655 1686.1367 401.2919 1683.8125 403.75 L 1676.3125 395.3125 C 1679.0859 392.0313 1682.4297 389.35725 1686.375 387.28125 C 1690.3203 385.20545 1695.1015 384.1295 1700.6875 384.0625 z M 299.1875 385 L 308.5625 385 C 309.07029 387.3633 310.16404 389.1915 311.84375 390.5 C 313.52341 391.8086 315.55465 392.4805 317.9375 392.5 C 320.26168 392.48 322.18356 391.8086 323.6875 390.5 C 325.19136 389.1915 326.39449 387.3633 327.3125 385 L 336.6875 385 C 336.7685 385.1852 336.38421 386.4677 335.5625 388.875 C 334.74069 391.2825 332.97796 393.7176 330.28125 396.125 C 327.58445 398.5325 323.48144 399.8149 317.9375 400 C 312.39349 399.8149 308.25924 398.5325 305.5625 396.125 C 302.86572 393.7176 301.10299 391.2825 300.28125 388.875 C 299.45948 386.4677 299.10647 385.1852 299.1875 385 z M 567.625 385 L 582.625 385 L 607 460 L 592.9375 460 L 588.25 445 L 562 445 L 557.3125 460 L 543.25 460 L 567.625 385 z M 653.9375 385 L 700.8125 385 L 700.8125 396.25 L 667.0625 396.25 L 667.0625 460 L 653.9375 460 L 653.9375 385 z M 732.125 385 L 747.125 385 L 771.5 460 L 757.4375 460 L 752.75 445 L 726.5 445 L 721.8125 460 L 707.75 460 L 732.125 385 z M 783.15625 385 L 830.03125 385 L 830.03125 396.25 L 796.28125 396.25 L 796.28125 460 L 783.15625 460 L 783.15625 385 z M 861.375 385 L 876.375 385 L 900.75 460 L 886.6875 460 L 882 445 L 855.75 445 L 851.0625 460 L 837 460 L 861.375 385 z M 912.40625 385 L 937.71875 385 C 946.97651 385.4297 953.53901 388.30475 957.40625 393.65625 C 961.27338 399.00795 963.14838 404.2579 963.03125 409.375 C 962.914 414.4922 960.57025 419.711 956 425.0625 C 951.42964 430.4141 945.33589 433.3203 937.71875 433.75 L 925.53125 433.75 L 925.53125 460 L 912.40625 460 L 912.40625 385 z M 977.6875 385 L 990.8125 385 L 990.8125 436.5625 L 1018 385 L 1032.0625 385 L 1032.0625 460 L 1018.9375 460 L 1018.9375 408.4375 L 991.75 460 L 977.6875 460 L 977.6875 385 z M 1046.625 385 L 1059.75 385 L 1059.75 415 L 1087.875 415 L 1087.875 385 L 1101 385 L 1101 460 L 1087.875 460 L 1087.875 426.25 L 1059.75 426.25 L 1059.75 460 L 1046.625 460 L 1046.625 385 z M 1137.125 385 L 1152.125 385 L 1176.5 460 L 1162.4375 460 L 1157.75 445 L 1131.5 445 L 1126.8125 460 L 1112.75 460 L 1137.125 385 z M 1584.1875 385 L 1595.4375 385 L 1595.4375 460 L 1582.3125 460 L 1582.3125 401.875 L 1572.25 408.15625 L 1567.8438 402.40625 L 1584.1875 385 z M 467.46875 395.3125 C 462.21478 395.3905 457.94916 397.7969 454.6875 402.5625 C 451.42573 407.3282 449.75386 413.9844 449.65625 422.5 C 449.75385 431.0156 451.42573 437.64065 454.6875 442.40625 C 457.94916 447.17195 462.21478 449.6094 467.46875 449.6875 C 472.72258 449.6095 476.9882 447.17195 480.25 442.40625 C 483.51163 437.64065 485.18351 431.0156 485.28125 422.5 C 485.18355 413.9844 483.51164 407.3282 480.25 402.5625 C 476.9882 397.7969 472.72258 395.3907 467.46875 395.3125 z M 925.53125 396.25 L 925.53125 422.5 L 933.96875 422.5 C 937.87496 422.539 941.31246 421.5078 944.28125 419.4375 C 947.24995 417.3672 948.81245 414.0235 948.96875 409.375 C 948.81245 404.7266 947.24995 401.35165 944.28125 399.28125 C 941.31246 397.21105 937.87496 396.211 933.96875 396.25 L 925.53125 396.25 z M 575.125 401.875 L 565.75 433.75 L 584.5 433.75 L 575.125 401.875 z M 739.625 401.875 L 730.25 433.75 L 749 433.75 L 739.625 401.875 z M 868.875 401.875 L 859.5 433.75 L 878.25 433.75 L 868.875 401.875 z M 1144.625 401.875 L 1135.25 433.75 L 1154 433.75 L 1144.625 401.875 z M 260.25 405.625 C 267.00777 405.8399 272.69527 408.44935 277.34375 413.46875 C 281.99213 418.48835 284.42963 424.6289 284.625 431.875 C 284.6082 433.3399 284.33141 434.6367 283.8125 435.75 C 283.29347 436.8633 282.63276 437.4414 281.8125 437.5 L 248.0625 437.5 C 248.35544 443.0078 250.12107 446.7578 253.34375 448.75 C 256.56638 450.7422 259.48825 451.6797 262.125 451.5625 C 264.41012 451.5625 266.39449 450.97265 268.09375 449.78125 C 269.79293 448.58985 271.55855 446.81535 273.375 444.46875 L 282.46875 449.6875 C 279.15955 453.8867 275.78901 456.9648 272.3125 458.9375 C 268.83589 460.9101 265.43411 461.8945 262.125 461.875 C 254.85098 461.7578 248.64786 459.164 243.5 454.125 C 238.35211 449.0859 235.70256 442.3047 235.59375 433.75 C 235.63285 429.6875 236.06584 426.1206 236.875 423.0625 C 237.68414 420.0045 239.05467 417.3215 240.96875 415 C 243.32085 412.1485 246.21594 409.8672 249.65625 408.1875 C 253.09651 406.5079 256.62553 405.6641 260.25 405.625 z M 204.03125 406.5625 C 210.67184 406.5875 215.92183 407.79975 219.75 410.21875 C 223.57807 412.63795 225.51557 416.1133 225.59375 420.625 C 225.49046 423.937 224.54627 426.6847 222.71875 428.875 C 220.89114 431.0653 218.81301 432.51845 216.5 433.21875 C 219.00833 433.63175 221.42573 434.7969 223.75 436.75 C 226.07417 438.7031 227.30408 441.7746 227.46875 445.9375 C 227.30687 451.5234 225.20419 455.5859 221.125 458.125 C 217.04572 460.664 211.9609 461.914 205.90625 461.875 C 201.86604 461.864 197.62944 461.1094 193.1875 459.625 C 188.74552 458.1406 185.03124 455.97995 182.0625 453.15625 L 189.03125 445.53125 C 191.09038 448.10665 193.82252 449.91685 197.1875 450.96875 C 200.55243 452.02065 203.44528 452.5363 205.90625 452.5 C 207.93746 452.48 209.96871 451.8086 212 450.5 C 214.03121 449.1914 215.12496 447.3633 215.28125 445 C 215.30075 443.0469 214.78512 441.32815 213.75 439.84375 C 212.71481 438.35945 211.04293 437.5781 208.71875 437.5 L 201.21875 437.5 L 201.21875 429.0625 L 208.71875 429.0625 C 210.59371 429.0035 211.99996 428.4258 212.9375 427.3125 C 213.87496 426.1992 214.34371 424.9024 214.34375 423.4375 C 214.1484 420.6641 212.8984 418.6953 210.59375 417.5625 C 208.28903 416.4297 206.10153 415.8985 204.03125 415.9375 C 200.8002 416.0045 198.12609 416.58485 196 417.65625 C 193.87386 418.72775 191.99886 419.88405 190.375 421.15625 L 185.28125 411.25 C 187.63615 409.8243 190.404 408.68365 193.5625 407.84375 C 196.72096 407.00395 200.2031 406.5821 204.03125 406.5625 z M 70 407.5 L 81.25 407.5 L 94.375 433.75 L 107.5 407.5 L 118.75 407.5 L 123.4375 460 L 112.1875 460 L 109.375 423.4375 L 94.375 453.4375 L 79.375 423.4375 L 76.5625 460 L 65.3125 460 L 70 407.5 z M 129.5625 407.5 L 142.6875 407.5 L 154.875 442.1875 L 165.1875 407.5 L 178.3125 407.5 L 156.75 472.1875 C 155.24606 475.4882 153.10544 478.0351 150.3125 479.8125 C 147.51951 481.5898 144.66014 482.4804 141.75 482.5 C 141.36215 482.511 140.96706 482.4895 140.5625 482.4375 C 140.15791 482.3815 139.26728 482.22545 137.875 481.96875 L 134.25 471.25 C 135.20702 471.6992 136.09764 471.9648 136.9375 472.0625 C 137.77733 472.1605 138.4492 472.207 138.9375 472.1875 C 142.16019 472.0115 144.57739 470.65295 146.1875 468.09375 C 147.79757 465.53467 148.95626 462.8307 149.65625 460 L 129.5625 407.5 z M 295.4375 407.5 L 306.6875 407.5 L 306.6875 443.125 L 328.25 407.5 L 340.4375 407.5 L 340.4375 460 L 329.1875 460 L 329.1875 424.375 L 307.625 460 L 295.4375 460 L 295.4375 407.5 z M 260.25 415 C 257.10544 415.078 254.33089 416.13625 251.90625 418.15625 C 249.48156 420.17645 248.19362 423.4933 248.0625 428.125 L 271.5 428.125 C 271.83198 428.105 272.07082 427.90245 272.21875 427.53125 C 272.36659 427.16025 272.44025 426.7383 272.4375 426.25 C 272.27283 423.3622 270.93132 420.77075 268.40625 418.46875 C 265.8811 416.16695 263.16012 415.0084 260.25 415 z M 513.59375 444.34375 C 515.9071 444.40275 517.80648 445.18155 519.34375 446.71875 C 520.88098 448.25605 521.69143 450.1866 521.75 452.5 C 521.6914 454.8134 520.88098 456.74405 519.34375 458.28125 C 517.80648 459.81855 515.9071 460.59775 513.59375 460.65625 C 511.28037 460.59825 509.34974 459.81855 507.8125 458.28125 C 506.27524 456.74405 505.46479 454.8134 505.40625 452.5 C 505.46475 450.1866 506.27524 448.25605 507.8125 446.71875 C 509.34975 445.18155 511.28037 444.40235 513.59375 444.34375 z M 621.46875 444.34375 C 623.7821 444.40275 625.71273 445.18155 627.25 446.71875 C 628.78723 448.25605 629.56643 450.1866 629.625 452.5 C 629.5664 454.8134 628.78723 456.74405 627.25 458.28125 C 625.71273 459.81855 623.7821 460.59775 621.46875 460.65625 C 619.15537 460.59825 617.22474 459.81855 615.6875 458.28125 C 614.15024 456.74405 613.33979 454.8134 613.28125 452.5 C 613.33975 450.1866 614.15024 448.25605 615.6875 446.71875 C 617.22475 445.18155 619.15537 444.40235 621.46875 444.34375 z "
       transform="translate(0,532.36218)"
       id="rect9140" />
    <rect
       ry="44"
       rx="44"
       transform="scale(-1,-1)"
       style="color:#000000;fill:none;stroke:#000000;stroke-width:2;stroke-miterlimit:4;stroke-opacity:1;stroke-dasharray:none;marker:none;visibility:visible;display:inline;overflow:visible;enable-background:accumulate"
       id="rect9930"
       width="1768"
       height="518"
       x="-1769"
       y="-1051.3622" />
  </g>
</svg>
