<?xml version="1.0" encoding="UTF-8" standalone="no"?>
<!-- Created with Inkscape (http://www.inkscape.org/) -->

<svg
   xmlns:dc="http://purl.org/dc/elements/1.1/"
   xmlns:cc="http://creativecommons.org/ns#"
   xmlns:rdf="http://www.w3.org/1999/02/22-rdf-syntax-ns#"
   xmlns:svg="http://www.w3.org/2000/svg"
   xmlns="http://www.w3.org/2000/svg"
   xmlns:sodipodi="http://sodipodi.sourceforge.net/DTD/sodipodi-0.dtd"
   xmlns:inkscape="http://www.inkscape.org/namespaces/inkscape"
   width="2260"
   height="480"
   id="svg2"
   version="1.1"
   inkscape:version="0.48.4 r9939"
   sodipodi:docname="6.10.1 C.svg">
  <title
     id="title3006">6.10.1 Указатель направления</title>
  <defs
     id="defs4" />
  <sodipodi:namedview
     id="base"
     pagecolor="#ffffff"
     bordercolor="#666666"
     borderopacity="1.0"
     inkscape:pageopacity="0.0"
     inkscape:pageshadow="2"
     inkscape:zoom="1"
     inkscape:cx="815.08382"
     inkscape:cy="309.74536"
     inkscape:document-units="px"
     inkscape:current-layer="layer1"
     showgrid="false"
     inkscape:window-width="1920"
     inkscape:window-height="1024"
     inkscape:window-x="-4"
     inkscape:window-y="-4"
     inkscape:window-maximized="1"
     inkscape:snap-bbox="true"
     inkscape:bbox-paths="true"
     inkscape:bbox-nodes="true"
     inkscape:snap-bbox-edge-midpoints="true"
     inkscape:snap-bbox-midpoints="true"
     inkscape:object-paths="true"
     inkscape:snap-intersection-paths="true"
     inkscape:object-nodes="true"
     inkscape:snap-smooth-nodes="true"
     inkscape:snap-midpoints="true"
     inkscape:snap-object-midpoints="true"
     showguides="true"
     inkscape:guide-bbox="true" />
  <metadata
     id="metadata7">
    <rdf:RDF>
      <cc:Work
         rdf:about="">
        <dc:format>image/svg+xml</dc:format>
        <dc:type
           rdf:resource="http://purl.org/dc/dcmitype/StillImage" />
        <dc:title>6.10.1 Указатель направления</dc:title>
        <cc:license
           rdf:resource="http://creativecommons.org/licenses/by-sa/3.0/" />
        <dc:description>ГОСТ Р 52290-2004</dc:description>
      </cc:Work>
      <cc:License
         rdf:about="http://creativecommons.org/licenses/by-sa/3.0/">
        <cc:permits
           rdf:resource="http://creativecommons.org/ns#Reproduction" />
        <cc:permits
           rdf:resource="http://creativecommons.org/ns#Distribution" />
        <cc:requires
           rdf:resource="http://creativecommons.org/ns#Notice" />
        <cc:requires
           rdf:resource="http://creativecommons.org/ns#Attribution" />
        <cc:permits
           rdf:resource="http://creativecommons.org/ns#DerivativeWorks" />
        <cc:requires
           rdf:resource="http://creativecommons.org/ns#ShareAlike" />
      </cc:License>
    </rdf:RDF>
  </metadata>
  <g
     inkscape:label="Layer 1"
     inkscape:groupmode="layer"
     id="layer1"
     transform="translate(0,-572.36218)">
    <rect
       transform="scale(-1,1)"
       style="opacity:1;color:#000000;fill:#ffffff;fill-opacity:1;fill-rule:nonzero;stroke:none;stroke-width:3.54299997999999980;marker:none;visibility:visible;display:inline;overflow:visible;enable-background:accumulate"
       id="rect16741"
       width="2260"
       height="480"
       x="-2260"
       y="572.36218"
       rx="45"
       ry="45" />
    <path
       inkscape:connector-curvature="0"
       style="opacity:1;color:#000000;fill:#0d69e1;fill-opacity:1;fill-rule:nonzero;stroke:none;stroke-width:3.54299997999999980;marker:none;visibility:visible;display:inline;overflow:visible;enable-background:accumulate"
       d="m 146,676.3622 c -22.16,0 -40,17.84 -40,40 l 0,196 c 0,22.16 17.84,40 40,40 l 1348,0 c 22.16,0 40,-17.84 40,-40 l 0,-196 c 0,-22.16 -17.84,-40 -40,-40 l -1348,0 z m 22,33 244,0 c 22.16,0 40,17.84 40,40 l 0,136 c 0,22.16 -17.84,40 -40,40 l -244,0 c -22.16,0 -40,-17.84 -40,-40 l 0,-136 c 0,-22.16 17.84,-40 40,-40 z m 0,10 c -16.62,0 -30,13.38 -30,30 l 0,136 c 0,16.62 13.38,30 30,30 l 244,0 c 16.62,0 30,-13.38 30,-30 l 0,-136 c 0,-16.62 -13.38,-30 -30,-30 l -244,0 z m 347.75,40.5 c 9.4315,0.1303 17.0674,2.6824 22.9063,7.6562 5.8387,4.9741 10.2862,11.5887 13.3437,19.8438 l -16.7812,6.25 c -1.8723,-6.1978 -4.4207,-10.677 -7.6563,-13.4375 -3.2357,-2.7603 -7.1799,-4.1145 -11.8125,-4.0625 -7.0052,0.1042 -12.6823,3.3334 -17.0312,9.6875 -4.349,6.3542 -6.5886,15.2084 -6.7188,26.5625 0.1302,11.3542 2.3698,20.2084 6.7188,26.5625 4.3489,6.3542 10.026,9.5833 17.0312,9.6875 4.6326,0.052 8.5768,-1.3021 11.8125,-4.0625 3.2356,-2.7604 5.784,-7.2396 7.6563,-13.4375 l 16.7812,6.25 c -3.0575,8.2552 -7.505,14.8698 -13.3437,19.8437 -5.8389,4.974 -13.4748,7.5261 -22.9063,7.6563 -13.7277,-0.3753 -23.9688,-5.4991 -30.6875,-15.375 -6.7187,-9.8759 -10.0536,-22.2522 -10.0312,-37.125 -0.022,-14.8727 3.3125,-27.249 10.0312,-37.125 6.7187,-9.8758 16.9598,-14.9996 30.6875,-15.375 z m -129,1.25 c 10.1562,0.361 18.2812,5.3446 24.375,14.9687 6.0937,9.6243 9.2187,21.7241 9.375,36.2813 -0.1563,15.2604 -3.2813,27.5521 -9.375,36.875 -6.0938,9.3229 -14.2188,14.1146 -24.375,14.375 -10.1562,-0.2604 -18.2813,-5.0521 -24.375,-14.375 -6.0937,-9.3229 -9.2188,-21.6146 -9.375,-36.875 0.1562,-15.2603 3.2813,-27.552 9.375,-36.875 6.0937,-9.3228 14.2188,-14.1145 24.375,-14.375 z m -213.5,1.25 17.5,0 22.5,48.75 22.5,-48.75 17.5,0 11.25,100 -18.75,0 -6.25,-73.75 -26.25,58.75 -26.25,-58.75 -6.25,73.75 -18.75,0 11.25,-100 z m 130.4063,0 15,0 0,100 -17.5,0 0,-77.5 -13.375,8.4062 -5.9063,-7.6875 21.7813,-23.2187 z m 366.125,0 72.5,0 0,100 -17.5,0 0,-85 -37.5,0 0,85 -17.5,0 0,-100 z m 101.6875,0 62.5,0 0,16.25 -45,0 0,23.75 36.25,0 0,15 -36.25,0 0,30 46.25,0 0,15 -63.75,0 0,-100 z m 87.9687,0 72.5,0 0,15 -27.5,0 0,85 -17.5,0 0,-85 -27.5,0 0,-15 z m 96.5625,0 62.5,0 0,16.25 -45,0 0,23.75 36.25,0 0,15 -36.25,0 0,30 46.25,0 0,15 -63.75,0 0,-100 z m 92.9688,0 33.75,0 c 12.3436,0.573 21.0936,4.4272 26.25,11.5625 5.1561,7.1355 7.6561,14.1147 7.5,20.9375 -0.1564,6.8229 -3.2814,13.8022 -9.375,20.9375 -6.0938,7.1354 -14.2189,10.9896 -24.375,11.5625 l -16.25,0 0,35 -17.5,0 0,-100 z m 96.8124,0 63.75,0 0,15 -46.25,0 0,25 21.25,0 c 12.2916,0.4688 20.8333,3.9063 25.625,10.3125 4.7916,6.4063 7.0833,12.9688 6.875,19.6875 0.1041,6.7187 -2.6042,13.2813 -8.125,19.6875 -5.5208,6.4062 -14.4792,9.8437 -26.875,10.3125 l -36.25,0 0,-100 z m 91.5938,0 18.75,0 23.75,52.5 20,-52.5 18.75,0 -32.5,83.75 c -2.0377,4.8024 -5.3662,8.7304 -9.9688,11.8125 -4.6026,3.0821 -9.1908,4.6765 -13.7812,4.7812 -2.474,0 -4.4011,-0.059 -5.7812,-0.2187 -1.3803,-0.16 -2.3699,-0.3847 -2.9688,-0.6563 l -3.75,-15.7187 c 0.1041,0.052 1.1458,0.2604 3.125,0.625 1.9791,0.3646 4.2708,0.5729 6.875,0.625 3.2246,-0.1823 5.9912,-1.3802 8.3125,-3.5938 2.3212,-2.2135 3.5159,-4.3489 3.625,-6.4062 -0.1795,-1.2988 -1.9645,-5.7441 -5.375,-13.3125 -3.4106,-7.5683 -7.3563,-16.0918 -11.8437,-25.5938 -4.4876,-9.5018 -8.4333,-17.8065 -11.8438,-24.9062 -3.4105,-7.0995 -5.1955,-10.8261 -5.375,-11.1875 z m 103.0312,0 33.75,0 c 12.3437,0.573 21.0937,4.4272 26.25,11.5625 5.1562,7.1355 7.6562,14.1147 7.5,20.9375 -0.1563,6.8229 -3.2813,13.8022 -9.375,20.9375 -6.0937,7.1354 -14.2188,10.9896 -24.375,11.5625 l -16.25,0 0,35 -17.5,0 0,-100 z m 96.8126,0 62.5,0 0,15 -45,0 0,85 -17.5,0 0,-100 z M 386.75,776.6434 c -4.8958,-0.074 -8.7872,2.771 -11.7187,8.5 -2.9316,5.7293 -4.4569,14.7933 -4.5313,27.2188 0.074,12.4256 1.5997,21.4896 4.5313,27.2187 2.9315,5.7292 6.8228,8.5745 11.7187,8.5 4.8958,0.074 8.8184,-2.7708 11.75,-8.5 2.9315,-5.7291 4.4255,-14.7931 4.5,-27.2187 -0.074,-12.4255 -1.5685,-21.4895 -4.5,-27.2188 -2.9316,-5.729 -6.8542,-8.5743 -11.75,-8.5 z m 679.7188,0.7188 0,35 11.25,0 c 5.2082,0.052 9.7916,-1.302 13.75,-4.0625 3.9582,-2.7604 6.0416,-7.2396 6.25,-13.4375 -0.2084,-6.1978 -2.2918,-10.677 -6.25,-13.4375 -3.9584,-2.7603 -8.5418,-4.1145 -13.75,-4.0625 l -11.25,0 z m 291.4374,0 0,35 11.25,0 c 5.2083,0.052 9.7917,-1.302 13.75,-4.0625 3.9583,-2.7604 6.0417,-7.2396 6.25,-13.4375 -0.2083,-6.1978 -2.2917,-10.677 -6.25,-13.4375 -3.9583,-2.7603 -8.5417,-4.1145 -13.75,-4.0625 l -11.25,0 z m -194.625,40 0,30 17.5,0 c 5.7031,0 10.2344,-1.25 13.5938,-3.75 3.3593,-2.5 5.0781,-6.25 5.1562,-11.25 -0.078,-5 -1.7969,-8.75 -5.1562,-11.25 -3.3594,-2.5 -7.8907,-3.75 -13.5938,-3.75 l -17.5,0 z m -553.9374,2.5 35,0 0,16.25 -35,0 0,-16.25 z m -29.3125,21.5937 c 3.0844,0.078 5.669,1.1691 7.7187,3.2188 2.0496,2.0497 3.1094,4.603 3.1875,7.6875 -0.078,3.0845 -1.1379,5.6378 -3.1875,7.6875 -2.0497,2.0497 -4.6343,3.1407 -7.7187,3.2187 -3.0845,-0.078 -5.6379,-1.169 -7.6875,-3.2187 -2.0497,-2.0497 -3.1095,-4.603 -3.1875,-7.6875 0.078,-3.0845 1.1378,-5.6378 3.1875,-7.6875 2.0496,-2.0497 4.603,-3.1407 7.6875,-3.2188 z"
       id="rect16695" />
    <g
       transform="translate(0,-2.6171874e-6)"
       style="font-size:267.86059569999998000px;font-style:normal;font-variant:normal;font-weight:normal;font-stretch:normal;line-height:125%;letter-spacing:0px;word-spacing:0px;opacity:1;fill:#000000;fill-opacity:1;stroke:none;font-family:Arial;-inkscape-font-specification:Arial"
       id="text16689">
      <path
         inkscape:connector-curvature="0"
         d="m 1598.9464,774.18361 8.8393,11.51786 20.0893,-12.58929 0,116.25 26.25,0 0,-150 -22.5,0 z"
         style="fill:#000000;font-family:Russian Road Sign;-inkscape-font-specification:Russian Road Sign"
         id="path16746" />
      <path
         inkscape:connector-curvature="0"
         d="m 1749.8223,737.48718 c -12.6173,1.6e-4 -23.4766,3.28141 -32.5782,9.84375 -9.1016,6.56264 -13.8672,16.40638 -14.2968,29.53125 0.324,8.68066 2.5925,15.48621 6.8055,20.41667 4.213,4.93064 8.4259,8.40286 12.6389,10.41666 4.2129,2.01397 6.4814,2.98619 6.8056,2.91667 -0.3705,-0.0231 -2.963,1.27323 -7.7778,3.88889 -4.8149,2.61581 -9.6297,6.68987 -14.4445,12.22222 -4.8148,5.53246 -7.4074,12.66209 -7.7777,21.38889 -0.2344,10.00003 3.5156,19.53127 11.25,28.59375 7.7343,9.06251 20.8593,13.90625 39.375,14.53125 18.5155,-0.625 31.6405,-5.46875 39.375,-14.53125 7.7342,-9.06248 11.4842,-18.59372 11.25,-28.59375 -0.3705,-8.7268 -2.9631,-15.85643 -7.7778,-21.38889 -4.8149,-5.53234 -9.6297,-9.60641 -14.4445,-12.22222 -4.8149,-2.61567 -7.4075,-3.91196 -7.7777,-3.88889 0.324,0.0695 2.5925,-0.9027 6.8055,-2.91667 4.2129,-2.0138 8.4258,-5.48602 12.6389,-10.41667 4.2129,-4.93045 6.4814,-11.736 6.8056,-20.41666 -0.4298,-13.12488 -5.1955,-22.96862 -14.2969,-29.53126 -9.1017,-6.56235 -19.961,-9.84359 -32.5781,-9.84374 z m 0,21.42857 c 5.7811,-0.0724 10.6249,1.27804 14.5312,4.05134 3.9062,2.77356 5.9374,7.40526 6.0938,13.89509 -0.8595,5.85948 -4.297,11.01573 -10.3125,15.46875 -6.0157,4.45322 -9.4532,6.79696 -10.3125,7.03125 -0.8595,-0.23429 -4.297,-2.57803 -10.3125,-7.03125 -6.0157,-4.45303 -9.4532,-9.60927 -10.3125,-15.46875 0.1562,-6.48983 2.1874,-11.12153 6.0937,-13.89509 3.9062,-2.77331 8.75,-4.12376 14.5313,-4.05134 z m 0,62.94643 c 0.3008,0.0695 2.4073,1.38896 6.3194,3.95834 3.912,2.56951 7.824,5.97228 11.7361,10.20833 3.912,4.23616 6.0184,8.88893 6.3195,13.95833 -0.3126,6.52347 -2.9689,11.28909 -7.9688,14.29687 -5.0001,3.00783 -10.4688,4.49221 -16.4062,4.45313 -5.9376,0.0391 -11.4063,-1.44529 -16.4063,-4.45312 -5,-3.00779 -7.6563,-7.77341 -7.9687,-14.29688 0.3009,-4.47912 2.4073,-8.85412 6.3194,-13.125 3.912,-4.27078 7.824,-7.81244 11.7361,-10.625 3.912,-2.81244 6.0185,-4.27077 6.3195,-4.375 z"
         style="fill:#000000;font-family:Russian Road Sign;-inkscape-font-specification:Russian Road Sign"
         id="path16748" />
    </g>
    <path
       id="path14919-3"
       style="opacity:1;color:#000000;fill:#000000;fill-opacity:1;fill-rule:nonzero;stroke:none;stroke-width:1px;marker:none;visibility:visible;display:inline;overflow:visible;enable-background:accumulate"
       d="m 1980,773.8622 0,-72 194.8557,112.5 -194.8557,112.5 0,-72 -140,0 0,-81 z"
       inkscape:connector-curvature="0"
       sodipodi:nodetypes="cccccccc" />
    <path
       inkscape:connector-curvature="0"
       style="opacity:1;color:#000000;fill:#000000;fill-opacity:1;fill-rule:nonzero;stroke:none;stroke-width:3.54299997999999980;marker:none;visibility:visible;display:inline;overflow:visible;enable-background:accumulate"
       d="M 44.5625,590.3622 C 29.8428,590.3622 18,601.4948 18,615.33095 l 0,394.06255 c 0,13.8361 11.8428,24.9687 26.5625,24.9687 l 2170.875,0 c 14.7197,0 26.5625,-11.1326 26.5625,-24.9687 l 0,-394.06255 c 0,-13.83615 -11.8428,-24.96875 -26.5625,-24.96875 l -2170.875,0 z m 0,9 2170.875,0 c 9.7337,0 17.5625,7.1186 17.5625,15.96875 l 0,394.06255 c 0,8.8501 -7.8288,15.9687 -17.5625,15.9687 l -2170.875,0 C 34.8288,1025.3622 27,1018.2436 27,1009.3935 l 0,-394.06255 c 0,-8.85015 7.8288,-15.96875 17.5625,-15.96875 z"
       id="rect16774" />
    <rect
       ry="44"
       rx="44"
       y="573.36218"
       x="-2259"
       height="478"
       width="2258"
       id="rect16779"
       style="opacity:1;color:#000000;fill:none;stroke:#000000;stroke-width:2;stroke-miterlimit:4;stroke-opacity:1;stroke-dasharray:none;marker:none;visibility:visible;display:inline;overflow:visible;enable-background:accumulate"
       transform="scale(-1,1)" />
  </g>
</svg>
