<?xml version="1.0" encoding="UTF-8" standalone="no"?>
<svg xmlns="http://www.w3.org/2000/svg" width="700" height="700" version="1.1">
  <title>6.2 Рекомендуемая скорость</title>
  <rect style="fill:#ffffff;" x="0" y="0" width="700" height="700" rx="45" ry="45"/>
  <rect style="fill:none;stroke:#000000;stroke-width:2;" x="1" y="1" width="698" height="698" rx="44" ry="44"/>
  <rect style="fill:#0d69e1;" x="20" y="20" width="660" height="660" rx="25" ry="25"/>
  <path style="fill:#ffffff;" transform="scale(1.16666667)" d="m 257.49 215.20 l 10.83 -35.20 h -124.54 v 105.59 l 24.37 13.54 c 5.41 -2.71 16.24 -16.24 32.49 -16.24 c 24.37 0 37.90 21.66 37.90 40.61 c 0 27.07 -27.07 40.61 -48.73 40.61 c -17.79 0 -38.29 -1.93 -51.44 -10.83 l 5.41 35.20 c 0 0 27.07 10.83 51.44 10.83 c 51.44 0 83.93 -35.20 83.93 -78.51 c 0 -43.32 -35.20 -67.68 -64.98 -67.68 c -12.38 0 -27.07 2.71 -35.20 13.54 v -51.44 z"/>
  <path style="fill:#ffffff;" transform="scale(1.16666667)" d="m 399.75 177.30 c -43.32 0 -73.10 46.02 -73.10 111 c 0 64.98 29.78 111 73.10 111 c 43.32 0 73.10 -46.02 73.10 -111 c 0 -61.49 -29.78 -111 -73.10 -111 z m 0 33.65 c 20.89 0 35.20 23.21 35.20 77.35 c 0 54.15 -14.31 77.35 -35.20 77.35 c -20.89 0 -35.20 -23.21 -35.20 -77.35 c 0 -54.15 14.31 -77.35 35.20 -77.35 z"/>
</svg>
