<?xml version="1.0" encoding="UTF-8" standalone="no"?>
<!-- Created with Inkscape (http://www.inkscape.org/) -->

<svg
   xmlns:dc="http://purl.org/dc/elements/1.1/"
   xmlns:cc="http://creativecommons.org/ns#"
   xmlns:rdf="http://www.w3.org/1999/02/22-rdf-syntax-ns#"
   xmlns:svg="http://www.w3.org/2000/svg"
   xmlns="http://www.w3.org/2000/svg"
   xmlns:sodipodi="http://sodipodi.sourceforge.net/DTD/sodipodi-0.dtd"
   xmlns:inkscape="http://www.inkscape.org/namespaces/inkscape"
   width="1500"
   height="2250"
   id="svg2"
   version="1.1"
   inkscape:version="0.48.4 r9939"
   sodipodi:docname="6.1.svg">
  <title
     id="title3002">6.1 Общие ограничения максимальной скорости</title>
  <defs
     id="defs4" />
  <sodipodi:namedview
     id="base"
     pagecolor="#ffffff"
     bordercolor="#666666"
     borderopacity="1.0"
     inkscape:pageopacity="0.0"
     inkscape:pageshadow="2"
     inkscape:zoom="1"
     inkscape:cx="725.84612"
     inkscape:cy="1917.1549"
     inkscape:document-units="px"
     inkscape:current-layer="layer1"
     showgrid="false"
     inkscape:window-width="1920"
     inkscape:window-height="1024"
     inkscape:window-x="-4"
     inkscape:window-y="-4"
     inkscape:window-maximized="1"
     inkscape:snap-bbox="false"
     inkscape:bbox-paths="true"
     inkscape:bbox-nodes="true"
     inkscape:snap-bbox-edge-midpoints="true"
     inkscape:snap-bbox-midpoints="true" />
  <metadata
     id="metadata7">
    <rdf:RDF>
      <cc:Work
         rdf:about="">
        <dc:format>image/svg+xml</dc:format>
        <dc:type
           rdf:resource="http://purl.org/dc/dcmitype/StillImage" />
        <dc:title>6.1 Общие ограничения максимальной скорости</dc:title>
        <cc:license
           rdf:resource="http://creativecommons.org/licenses/by-sa/3.0/" />
        <dc:description>ГОСТ Р 52290-2004
Размеры и пропорции по типоразмеру IV</dc:description>
      </cc:Work>
      <cc:License
         rdf:about="http://creativecommons.org/licenses/by-sa/3.0/">
        <cc:permits
           rdf:resource="http://creativecommons.org/ns#Reproduction" />
        <cc:permits
           rdf:resource="http://creativecommons.org/ns#Distribution" />
        <cc:requires
           rdf:resource="http://creativecommons.org/ns#Notice" />
        <cc:requires
           rdf:resource="http://creativecommons.org/ns#Attribution" />
        <cc:permits
           rdf:resource="http://creativecommons.org/ns#DerivativeWorks" />
        <cc:requires
           rdf:resource="http://creativecommons.org/ns#ShareAlike" />
      </cc:License>
    </rdf:RDF>
  </metadata>
  <g
     inkscape:label="Layer 1"
     inkscape:groupmode="layer"
     id="layer1"
     transform="translate(0,1197.6378)">
    <rect
       style="color:#000000;fill:#ffffff;fill-opacity:1;fill-rule:nonzero;stroke:none;stroke-width:3.54299997999999980;marker:none;visibility:visible;display:inline;overflow:visible;enable-background:accumulate;opacity:1"
       id="rect10858"
       width="1500"
       height="2250"
       x="0"
       y="-1197.6378"
       rx="45"
       ry="45" />
    <rect
       rx="44"
       y="-1196.6378"
       x="0.99999994"
       height="2248"
       width="1498"
       id="rect10868"
       style="color:#000000;fill:none;stroke:#000000;stroke-width:2;stroke-miterlimit:4;stroke-opacity:1;stroke-dasharray:none;marker:none;visibility:visible;display:inline;overflow:visible;enable-background:accumulate;opacity:1"
       ry="44" />
    <path
       style="opacity:1;color:#000000;fill:#0d69e1;fill-opacity:1;fill-rule:nonzero;stroke:none;stroke-width:3.54299997999999980;marker:none;visibility:visible;display:inline;overflow:visible;enable-background:accumulate"
       d="M 45 20 C 31.15 20 20 31.15 20 45 L 20 2205 C 20 2218.85 31.15 2230 45 2230 L 1455 2230 C 1468.85 2230 1480 2218.85 1480 2205 L 1480 45 C 1480 31.15 1468.85 20 1455 20 L 45 20 z M 537.8125 108.625 C 556.60209 109.1493 570.58489 116.24805 579.78125 129.90625 C 588.97738 143.56455 593.56175 160.65345 593.53125 181.15625 C 593.56167 201.65913 588.97737 218.71674 579.78125 232.375 C 570.58488 246.03329 556.60209 253.13211 537.8125 253.65625 C 519.02275 253.13211 505.00872 246.0333 495.8125 232.375 C 486.61623 218.71674 482.0319 201.65913 482.0625 181.15625 C 482.03193 160.65345 486.61623 143.56455 495.8125 129.90625 C 505.00872 116.24805 519.02275 109.1493 537.8125 108.625 z M 681.5 108.625 C 694.40931 108.805 704.85175 112.34865 712.84375 119.21875 C 720.83555 126.08905 726.94008 135.2227 731.125 146.625 L 708.125 155.25 C 705.56232 146.6893 702.08497 140.5005 697.65625 136.6875 C 693.22737 132.8749 687.84084 130.9905 681.5 131.0625 C 671.91161 131.2064 664.14006 135.69215 658.1875 144.46875 C 652.23483 153.24545 649.17818 165.47335 649 181.15625 C 649.17818 196.83915 652.23483 209.06714 658.1875 217.84375 C 664.14005 226.62044 671.9116 231.07489 681.5 231.21875 C 687.84084 231.29071 693.22737 229.40658 697.65625 225.59375 C 702.08497 221.78096 705.56232 215.59213 708.125 207.03125 L 731.125 215.6875 C 726.94008 227.08999 720.83554 236.2235 712.84375 243.09375 C 704.85175 249.964 694.40932 253.4764 681.5 253.65625 C 662.71026 253.13785 648.72746 246.07859 639.53125 232.4375 C 630.33498 218.79645 625.75065 201.69928 625.78125 181.15625 C 625.75068 160.61335 630.33498 143.5162 639.53125 129.875 C 648.72746 116.2341 662.71026 109.1436 681.5 108.625 z M 818.5 108.625 C 831.40931 108.805 841.85175 112.34865 849.84375 119.21875 C 857.83555 126.08905 863.94008 135.2227 868.125 146.625 L 845.15625 155.25 C 842.59359 146.6893 839.08495 140.5005 834.65625 136.6875 C 830.22736 132.8749 824.84084 130.9905 818.5 131.0625 C 808.91159 131.2064 801.14006 135.69215 795.1875 144.46875 C 789.23484 153.24545 786.17819 165.47335 786 181.15625 C 786.17818 196.83915 789.23484 209.06714 795.1875 217.84375 C 801.14006 226.62044 808.91158 231.07489 818.5 231.21875 C 824.84083 231.29071 830.22737 229.40658 834.65625 225.59375 C 839.08495 221.78096 842.59358 215.59213 845.15625 207.03125 L 868.125 215.6875 C 863.94009 227.08999 857.83555 236.2235 849.84375 243.09375 C 841.85176 249.964 831.40931 253.4764 818.5 253.65625 C 799.71025 253.13785 785.72746 246.07859 776.53125 232.4375 C 767.33497 218.79645 762.75065 201.69928 762.78125 181.15625 C 762.75068 160.61335 767.33497 143.5162 776.53125 129.875 C 785.72747 116.2341 799.71025 109.1436 818.5 108.625 z M 351.1875 112.09375 L 397.375 112.09375 C 414.27036 112.88525 426.2548 118.2069 433.3125 128.0625 C 440.36998 137.9184 443.77626 147.54475 443.5625 156.96875 C 443.34852 166.39295 439.05943 176.05055 430.71875 185.90625 C 422.37787 195.76205 411.27623 201.08372 397.375 201.875 L 375.125 201.875 L 375.125 250.21875 L 351.1875 250.21875 L 351.1875 112.09375 z M 905.90625 112.09375 L 929.84375 112.09375 L 929.84375 207.03125 L 979.46875 112.09375 L 1005.125 112.09375 L 1005.125 250.21875 L 981.1875 250.21875 L 981.1875 155.25 L 931.5625 250.21875 L 905.90625 250.21875 L 905.90625 112.09375 z M 1099.2188 112.09375 L 1148.8125 112.09375 L 1148.8125 250.21875 L 1124.875 250.21875 L 1124.875 194.96875 L 1109.4688 194.96875 C 1102.0597 195.12805 1096.7205 197.17663 1093.4375 201.15625 C 1090.1543 205.13596 1087.1825 210.0796 1084.5312 215.96875 C 1081.4288 222.06927 1078.5059 227.82559 1075.7812 233.21875 C 1073.0575 238.61194 1070.0264 244.28019 1066.6875 250.21875 L 1037.625 250.21875 C 1039.3461 249.13188 1041.8847 245.78097 1045.25 240.1875 C 1048.6153 234.59406 1052.0006 228.45062 1055.4062 221.78125 C 1058.8136 215.11196 1061.437 209.62706 1063.2812 205.3125 C 1065.3027 200.84997 1068.3356 196.70115 1072.375 192.84375 C 1076.4143 188.98635 1080.2244 186.57105 1083.8125 185.59375 C 1075.1153 183.79015 1068.1182 179.80715 1062.8438 173.65625 C 1057.5684 167.50545 1054.861 159.6358 1054.7188 150.0625 C 1054.4326 142.437 1057.5664 134.39525 1064.125 125.90625 C 1070.6835 117.41745 1082.3945 112.81325 1099.2188 112.09375 z M 537.8125 131.0625 C 528.2241 131.2064 520.45257 135.69215 514.5 144.46875 C 508.54735 153.24545 505.45943 165.47335 505.28125 181.15625 C 505.45943 196.83915 508.54735 209.06714 514.5 217.84375 C 520.45256 226.62044 528.22409 231.07489 537.8125 231.21875 C 547.40075 231.07489 555.17229 226.62043 561.125 217.84375 C 567.07751 209.06713 570.13417 196.83915 570.3125 181.15625 C 570.13417 165.47335 567.07752 153.24545 561.125 144.46875 C 555.1723 135.69215 547.40075 131.2064 537.8125 131.0625 z M 375.125 132.8125 L 375.125 181.15625 L 390.53125 181.15625 C 397.66006 181.22825 403.92572 179.34405 409.34375 175.53125 C 414.76161 171.71845 417.62101 165.52975 417.90625 156.96875 C 417.62101 148.40795 414.76161 142.21915 409.34375 138.40625 C 403.92573 134.59345 397.66006 132.7405 390.53125 132.8125 L 375.125 132.8125 z M 1106.0625 132.8125 C 1098.9336 132.7509 1092.6356 134.357 1087.2188 137.625 C 1081.8003 140.8933 1078.9726 146.19345 1078.6875 153.53125 C 1078.9014 160.86925 1081.456 166.1695 1086.375 169.4375 C 1091.2938 172.7058 1097.2858 174.312 1104.3438 174.25 L 1124.875 174.25 L 1124.875 132.8125 L 1106.0625 132.8125 z M 719.21875 306.625 C 731.6229 307.41648 742.29876 310.55452 751.28125 316.09375 C 760.26352 321.63324 764.9784 324.80253 765.40625 325.59375 L 750 342.875 C 749.99989 342.29959 747.44518 339.99749 742.3125 335.96875 C 737.17961 331.94024 729.48425 329.63813 719.21875 329.0625 C 709.16696 329.49425 702.32317 332.06459 698.6875 336.8125 C 695.05173 341.56065 693.31733 345.8966 693.53125 349.78125 C 693.85198 355.6136 697.48678 359.77927 704.4375 362.3125 C 711.38809 364.84589 719.73775 367.01881 729.46875 368.78125 C 741.58774 371.40713 751.13858 376.05495 758.125 382.78125 C 765.11117 389.50769 768.66979 398.07349 768.8125 408.46875 C 768.74107 417.82095 764.17855 427.17908 755.125 436.53125 C 746.07121 445.88343 732.96176 450.93685 715.78125 451.65625 C 705.42206 451.35783 696.21598 449.25442 688.15625 445.375 C 680.09642 441.49559 673.76288 437.62943 669.125 433.75 C 664.48705 429.87061 662.0936 427.76719 662 427.46875 L 678.875 413.40625 C 678.91569 414.06402 682.07029 416.70838 688.34375 421.3125 C 694.61711 425.91667 703.76393 428.52979 715.78125 429.1875 C 726.65272 428.71991 733.99845 426.22445 737.8125 421.65625 C 741.62635 417.0881 743.40565 413.27622 743.15625 410.21875 C 743.41413 408.42067 743.31891 406.14534 742.84375 403.40625 C 742.3684 400.66726 739.96063 397.88381 735.65625 395.0625 C 731.35167 392.2413 723.6046 389.79483 712.375 387.75 C 693.37649 383.90129 681.31586 378.23654 676.21875 370.71875 C 671.12156 363.20112 668.91649 356.21995 669.59375 349.78125 C 669.84324 337.40771 674.48193 327.18238 683.5 319.125 C 692.51799 311.06786 704.42626 306.9129 719.21875 306.625 z M 862.90625 306.625 C 875.31041 307.41648 885.98625 310.55452 894.96875 316.09375 C 903.95102 321.63324 908.66588 324.80253 909.09375 325.59375 L 893.6875 342.875 C 893.68739 342.29959 891.13269 339.99749 886 335.96875 C 880.86712 331.94024 873.17174 329.63813 862.90625 329.0625 C 852.85446 329.49425 846.01066 332.06459 842.375 336.8125 C 838.73921 341.56065 837.03609 345.8966 837.25 349.78125 C 837.57074 355.6136 841.20554 359.77927 848.15625 362.3125 C 855.10685 364.84589 863.42526 367.01881 873.15625 368.78125 C 885.27525 371.40713 894.82609 376.05495 901.8125 382.78125 C 908.79867 389.50769 912.38854 398.07349 912.53125 408.46875 C 912.45982 417.82095 907.89731 427.17908 898.84375 436.53125 C 889.78997 445.88343 876.64927 450.93685 859.46875 451.65625 C 849.10956 451.35783 839.90348 449.25442 831.84375 445.375 C 823.78393 441.49559 817.45039 437.62943 812.8125 433.75 C 808.17455 429.87061 805.81225 427.76719 805.71875 427.46875 L 822.5625 413.40625 C 822.60319 414.06402 825.75779 416.70838 832.03125 421.3125 C 838.30461 425.91667 847.45144 428.52979 859.46875 429.1875 C 870.34021 428.71991 877.68596 426.22445 881.5 421.65625 C 885.31386 417.0881 887.09316 413.27622 886.84375 410.21875 C 887.10163 408.42067 887.00641 406.14534 886.53125 403.40625 C 886.05589 400.66726 883.67938 397.88381 879.375 395.0625 C 875.07043 392.2413 867.2921 389.79483 856.0625 387.75 C 837.06399 383.90129 825.00336 378.23654 819.90625 370.71875 C 814.80908 363.20112 812.60397 356.21995 813.28125 349.78125 C 813.53072 337.40771 818.16943 327.18238 827.1875 319.125 C 836.20548 311.06786 848.11376 306.9129 862.90625 306.625 z M 370.375 310.0625 L 416.59375 310.0625 C 433.34654 310.78203 444.75285 315.38623 450.8125 323.875 C 456.87194 332.36402 459.70009 340.43699 459.34375 348.0625 C 459.12978 357.55865 456.57507 365.30088 451.65625 371.34375 C 446.73722 377.38676 440.74499 381.72273 433.6875 384.3125 C 440.95358 386.60398 446.95593 392.36346 451.6875 401.625 C 456.41884 410.88662 460.77883 420.26536 464.75 429.71875 C 468.72092 439.17219 473.20243 445.32057 478.1875 448.1875 L 449.09375 448.1875 C 446.4851 444.39482 443.91345 439.34409 441.40625 433.03125 C 438.89887 426.71843 436.09488 420.34455 432.96875 413.9375 C 430.31744 408.04835 427.34552 403.13598 424.0625 399.15625 C 420.77932 395.17662 415.43927 393.09681 408.03125 392.9375 L 394.34375 392.9375 L 394.34375 448.1875 L 370.375 448.1875 L 370.375 310.0625 z M 519.0625 310.0625 L 543 310.0625 L 543 405.03125 C 543.42767 414.41942 546.43942 421.10111 552 425.09375 C 557.56046 429.08644 563.12691 431.04543 568.6875 430.9375 C 574.24794 431.04543 579.78314 429.08643 585.34375 425.09375 C 590.90419 421.10111 593.91592 414.41942 594.34375 405.03125 L 594.34375 310.0625 L 618.28125 310.0625 L 618.28125 403.3125 C 618.55571 404.4316 617.81556 408.70652 616.0625 416.15625 C 614.30921 423.60603 609.88846 430.96083 602.8125 438.21875 C 595.73633 445.47669 584.38151 449.36271 568.6875 449.90625 C 552.99335 449.3627 541.60729 445.47669 534.53125 438.21875 C 527.45515 430.96084 523.0344 423.60604 521.28125 416.15625 C 519.52806 408.70651 518.78789 404.4316 519.0625 403.3125 L 519.0625 310.0625 z M 950.125 310.0625 L 974.09375 310.0625 L 974.09375 448.1875 L 950.125 448.1875 L 950.125 310.0625 z M 1057.75 310.0625 L 1085.125 310.0625 L 1129.625 448.1875 L 1103.9375 448.1875 L 1095.4062 420.5625 L 1047.5 420.5625 L 1038.9375 448.1875 L 1013.2812 448.1875 L 1057.75 310.0625 z M 394.34375 330.78125 L 394.34375 372.21875 L 409.75 372.21875 C 416.80752 372.28049 422.79975 370.67445 427.71875 367.40625 C 432.63759 364.13821 435.1923 358.83796 435.40625 351.5 C 435.1923 344.16224 432.63759 338.86198 427.71875 335.59375 C 422.79975 332.32574 416.80752 330.71965 409.75 330.78125 L 394.34375 330.78125 z M 1071.4375 341.15625 L 1054.3438 399.84375 L 1088.5625 399.84375 L 1071.4375 341.15625 z M 156.875 503.4375 L 1343.125 503.4375 L 1343.125 1032.9062 L 156.875 1032.9062 L 156.875 503.4375 z M 156.875 1055.9375 L 1343.125 1055.9375 L 1343.125 1585.4062 L 156.875 1585.4062 L 156.875 1055.9375 z M 156.875 1608.4375 L 1343.125 1608.4375 L 1343.125 2137.9062 L 156.875 2137.9062 L 156.875 1608.4375 z "
       transform="translate(0,-1197.6378)"
       id="rect9536" />
    <path
       inkscape:connector-curvature="0"
       style="opacity:1;color:#000000;fill:#ff0000;fill-opacity:1;fill-rule:nonzero;stroke:none;stroke-width:1px;marker:none;visibility:visible;display:inline;overflow:visible;enable-background:accumulate"
       d="m 373.59382,-596.36155 c -91.3426,0 -165.3907,74.72423 -165.3907,166.90103 0,92.17679 74.0481,166.90103 165.3907,166.90103 91.3428,0 165.3906,-74.72424 165.3906,-166.90103 0,-92.1768 -74.0478,-166.90103 -165.3906,-166.90103 z m 0,28.21845 c 75.8988,0 137.4275,62.09065 137.4275,138.68258 0,76.59191 -61.5287,138.68256 -137.4275,138.68256 -75.8988,0 -137.4275,-62.09065 -137.4275,-138.68256 0,-76.59193 61.5287,-138.68258 137.4275,-138.68258 z"
       id="path4775-9" />
    <g
       transform="matrix(0.57031252,0,0,0.57552085,202.50002,-862.46079)"
       style="font-size:380.18783568999999000px;font-style:normal;font-variant:normal;font-weight:normal;font-stretch:normal;line-height:125%;letter-spacing:-21.29032134999999900px;word-spacing:0px;opacity:1;fill:#000000;fill-opacity:1;stroke:none;font-family:Arial;-inkscape-font-specification:Arial"
       id="text9499">
      <path
         inkscape:connector-curvature="0"
         d="m 222.80979,642.48951 c -27.7772,1.14077 -48.06944,13.02147 -60.8768,35.64215 -12.80744,22.62104 -19.12798,49.13877 -18.96162,79.55328 0.27719,33.4324 7.04127,59.0472 20.29226,76.84447 13.2509,17.79732 31.32541,26.77914 54.2236,26.94547 17.90807,-0.55443 33.32131,-8.09472 46.23974,-22.62089 12.91814,-14.52613 19.68222,-32.71153 20.29227,-54.55625 -0.39443,-16.69276 -4.04137,-29.60488 -10.94082,-38.73642 -6.89977,-9.13131 -14.68648,-15.4536 -23.36014,-18.9669 -8.67393,-3.51304 -15.86923,-5.18866 -21.58593,-5.02686 -9.43339,0.28527 -18.51025,2.75645 -27.23061,7.41356 -8.72052,4.65736 -16.37169,9.78983 -22.95354,15.39741 -0.26759,-0.88697 0.52093,-7.09662 2.36558,-18.62896 1.84452,-11.53207 6.35039,-23.06428 13.51761,-34.59665 7.16707,-11.53203 18.60071,-17.74168 34.30096,-18.62896 12.36374,0.45957 22.89797,2.29711 31.60271,5.51264 8.70445,3.2159 13.2508,5.05345 13.63906,5.51266 l -5.32256,-32.31555 c -0.55458,-0.36413 -5.43359,-1.8215 -14.63705,-4.37211 -9.20373,-2.55018 -19.40529,-4.00754 -30.60472,-4.37209 z m 0,109.87287 c 5.76599,10e-5 11.53209,2.66138 17.29832,7.98384 5.76598,5.32265 8.8708,13.30649 9.31449,23.95152 -0.0635,9.92442 -3.26338,19.34978 -9.59963,28.2761 -6.3365,8.92642 -15.4292,13.69454 -27.27812,14.30439 -8.0778,-0.59136 -14.60661,-4.73113 -19.58646,-12.41932 -4.98001,-7.68809 -8.60817,-15.37623 -10.8845,-23.06443 -2.27647,-7.68807 -3.39824,-11.82783 -3.36532,-12.4193 0.67318,-1.10878 5.69476,-5.54424 15.06476,-13.3064 9.36984,-7.76198 19.04865,-12.19744 29.03646,-13.3064 z"
         style="fill:#000000;font-family:Russian Road Sign;-inkscape-font-specification:Russian Road Sign"
         id="path12011" />
      <path
         inkscape:connector-curvature="0"
         d="m 385.42358,643.24987 c -21.62298,0.55465 -38.92129,10.75621 -51.89498,30.60472 -12.97377,19.84888 -19.62697,46.01812 -19.9596,78.50779 0.33263,32.48987 6.98583,58.6591 19.9596,78.50777 12.97369,19.84872 30.272,30.05029 51.89498,30.60473 21.62278,-0.55443 38.92109,-10.756 51.89496,-30.60473 12.97359,-19.84868 19.62678,-46.01791 19.95961,-78.50777 -0.33283,-30.9927 -6.98602,-56.73423 -19.95961,-77.22467 -12.97387,-20.49007 -30.27218,-31.11934 -51.89496,-31.88784 z m 0,33.07592 c 10.42324,-0.15823 18.75557,5.86133 24.99703,18.05868 6.24121,12.19768 9.44108,31.52363 9.59962,57.97791 -0.15855,26.45447 -3.35842,45.78042 -9.59963,57.97789 -6.24145,12.19756 -14.57378,18.21712 -24.99702,18.05869 -10.42344,0.15844 -18.75578,-5.86112 -24.99704,-18.05869 -6.24139,-12.19748 -9.44126,-31.52342 -9.59961,-57.97789 0.15835,-26.45427 3.35822,-45.78022 9.59962,-57.97791 6.24126,-12.19736 14.5736,-18.21692 24.99703,-18.05868 z"
         style="fill:#000000;font-family:Russian Road Sign;-inkscape-font-specification:Russian Road Sign"
         id="path12013-5" />
    </g>
    <path
       inkscape:connector-curvature="0"
       style="opacity:1;color:#000000;fill:#ff0000;fill-opacity:1;fill-rule:nonzero;stroke:none;stroke-width:1px;marker:none;visibility:visible;display:inline;overflow:visible;enable-background:accumulate"
       d="m 373.59382,-43.86158 c -91.3426,0 -165.3907,74.724238 -165.3907,166.90105 0,92.17679 74.0481,166.90104 165.3907,166.90104 91.3428,0 165.3906,-74.72425 165.3906,-166.90104 0,-92.176812 -74.0478,-166.90105 -165.3906,-166.90105 z m 0,28.218472 c 75.8988,0 137.4275,62.090646 137.4275,138.682578 0,76.59191 -61.5287,138.68256 -137.4275,138.68256 -75.8988,0 -137.4275,-62.09065 -137.4275,-138.68256 0,-76.591932 61.5287,-138.682578 137.4275,-138.682578 z"
       id="path4775-9-1" />
    <g
       transform="matrix(0.57031252,0,0,0.57552085,202.50002,-309.96054)"
       style="font-size:380.18783568999999000px;font-style:normal;font-variant:normal;font-weight:normal;font-stretch:normal;line-height:125%;letter-spacing:-21.29032134999999900px;word-spacing:0px;opacity:1;fill:#000000;fill-opacity:1;stroke:none;font-family:Arial;-inkscape-font-specification:Arial"
       id="text9499-9">
      <path
         inkscape:connector-curvature="0"
         d="m 198.88802,862.61543 c 30.3274,-1.04551 52.17205,-13.21135 65.53403,-36.49756 13.36169,-23.28616 19.904,-51.41966 19.62695,-84.40062 -0.38826,-33.30546 -7.59589,-58.41335 -21.6229,-75.32375 -14.0273,-16.91 -32.54536,-25.3849 -55.55423,-25.42473 -17.79739,0.6497 -32.76708,8.57017 -44.90912,23.76143 -12.14212,15.19165 -18.46266,33.75724 -18.96162,55.69681 1.21973,24.67239 8.0947,41.19449 20.62493,49.56634 12.53013,8.37203 23.39702,12.25306 32.60068,11.64311 9.42528,-0.2217 18.51798,-2.43943 27.27813,-6.65321 8.75994,-4.2136 16.522,-9.09261 23.2862,-14.63703 0.26272,0.86841 -0.55866,6.94663 -2.46414,18.23469 -1.90574,11.28821 -6.47262,22.57635 -13.70067,33.86444 -7.22828,11.28819 -18.69477,17.36642 -34.39952,18.23471 -12.42729,-0.52272 -23.21498,-2.61373 -32.36307,-6.27302 -9.14819,-3.65923 -13.94799,-5.75023 -14.39943,-6.27302 l 4.18201,32.69574 c 0.5544,0.49107 5.43341,2.45535 14.63704,5.89283 9.20354,3.43748 19.4051,5.40176 30.60473,5.89284 z m 5.32257,-112.91434 c -5.7662,1.1e-4 -11.5323,-2.66116 -17.29833,-7.98384 -5.76617,-5.32244 -8.871,-13.30627 -9.31448,-23.95152 -0.0317,-9.90045 2.78795,-19.27828 8.45907,-28.13354 5.67099,-8.85492 14.3835,-13.67056 26.13758,-14.44695 8.40381,0.27241 14.95609,3.57201 19.65686,9.89883 4.70055,6.32716 8.07056,13.28778 10.11005,20.8819 2.03925,7.59442 3.26898,13.42858 3.68919,17.5025 -0.0635,1.09316 -3.64355,5.46525 -10.74018,13.11631 -7.09686,7.65129 -17.3301,12.0234 -30.69976,13.11631 z"
         style="fill:#000000;font-family:Russian Road Sign;-inkscape-font-specification:Russian Road Sign"
         id="path11930" />
      <path
         inkscape:connector-curvature="0"
         d="m 385.1444,643.24987 c -21.62298,0.55465 -38.92129,10.75621 -51.89497,30.60472 -12.97378,19.84888 -19.62697,46.01812 -19.9596,78.50779 0.33263,32.48987 6.98582,58.6591 19.9596,78.50777 12.97368,19.84872 30.27199,30.05029 51.89497,30.60473 21.62279,-0.55443 38.92109,-10.756 51.89497,-30.60473 12.97358,-19.84868 19.62678,-46.01791 19.95961,-78.50777 -0.33283,-30.9927 -6.98603,-56.73423 -19.95961,-77.22467 -12.97388,-20.49007 -30.27218,-31.11934 -51.89497,-31.88784 z m 0,33.07592 c 10.42324,-0.15823 18.75558,5.86133 24.99703,18.05868 6.24121,12.19768 9.44108,31.52363 9.59962,57.97791 -0.15854,26.45447 -3.35842,45.78042 -9.59962,57.97789 -6.24145,12.19756 -14.57379,18.21712 -24.99703,18.05869 -10.42344,0.15844 -18.75577,-5.86112 -24.99703,-18.05869 -6.2414,-12.19748 -9.44127,-31.52342 -9.59961,-57.97789 0.15834,-26.45427 3.35821,-45.78022 9.59962,-57.97791 6.24126,-12.19736 14.57359,-18.21692 24.99702,-18.05868 z"
         style="fill:#000000;font-family:Russian Road Sign;-inkscape-font-specification:Russian Road Sign"
         id="path11932" />
    </g>
    <path
       inkscape:connector-curvature="0"
       style="opacity:1;color:#000000;fill:#ff0000;fill-opacity:1;fill-rule:nonzero;stroke:none;stroke-width:1px;marker:none;visibility:visible;display:inline;overflow:visible;enable-background:accumulate"
       d="m 373.59382,508.63842 c -91.3426,0 -165.3907,74.72425 -165.3907,166.90105 0,92.17703 74.0481,166.90104 165.3907,166.90104 91.3428,0 165.3906,-74.72401 165.3906,-166.90104 0,-92.1768 -74.0478,-166.90105 -165.3906,-166.90105 z m 0,28.21848 c 75.8988,0 137.4275,62.09065 137.4275,138.68257 0,76.59191 -61.5287,138.68256 -137.4275,138.68256 -75.8988,0 -137.4275,-62.09065 -137.4275,-138.68256 0,-76.59192 61.5287,-138.68257 137.4275,-138.68257 z"
       id="path4775-9-8" />
    <g
       transform="matrix(0.57031252,0,0,0.57552085,202.50002,242.53946)"
       style="font-size:328.34405518000000000px;font-style:normal;font-variant:normal;font-weight:normal;font-stretch:normal;line-height:125%;letter-spacing:-21.29032134999999900px;word-spacing:0px;opacity:1;fill:#000000;fill-opacity:1;stroke:none;font-family:Arial;-inkscape-font-specification:Arial"
       id="text10566">
      <path
         inkscape:connector-curvature="0"
         d="m 144.88331,703.11136 10.83522,14.11861 24.62549,-15.43197 0,142.49949 32.1773,0 0,-183.87031 -27.58055,0 z"
         style="fill:#000000;font-family:Russian Road Sign;-inkscape-font-specification:Russian Road Sign"
         id="path11872" />
      <path
         inkscape:connector-curvature="0"
         d="m 229.407,703.11136 10.83521,14.11861 24.62549,-15.43197 0,142.49949 32.1773,0 0,-183.87031 -27.58055,0 z"
         style="fill:#000000;font-family:Russian Road Sign;-inkscape-font-specification:Russian Road Sign"
         id="path11874" />
      <path
         inkscape:connector-curvature="0"
         d="m 393.06058,658.1288 c -18.6744,0.47902 -33.61385,9.28946 -44.8184,26.43135 -11.20462,17.14222 -16.95056,39.74293 -17.23783,67.80218 0.28727,28.05944 6.03321,50.66014 17.23783,67.80217 11.20455,17.14208 26.144,25.95253 44.8184,26.43136 18.67422,-0.47882 33.61366,-9.28927 44.81838,-26.43136 11.20446,-17.14204 16.9504,-39.74274 17.23784,-67.80217 -0.28744,-26.76641 -6.03338,-48.99773 -17.23784,-66.69403 -11.20472,-17.69597 -26.14416,-26.8758 -44.81838,-27.5395 z m 0,28.56557 c 9.00189,-0.13665 16.19799,5.06206 21.58834,15.59613 5.39014,10.53437 8.15366,27.22496 8.29058,50.07183 -0.13693,22.84705 -2.90045,39.53764 -8.29059,50.07182 -5.39034,10.53426 -12.58644,15.73298 -21.58833,15.59615 -9.00207,0.13683 -16.19818,-5.06188 -21.58835,-15.59615 -5.3903,-10.53418 -8.15382,-27.22477 -8.29058,-50.07182 0.13676,-22.84686 2.90028,-39.53746 8.29058,-50.07183 5.39018,-10.53408 12.58629,-15.73279 21.58835,-15.59613 z"
         style="fill:#000000;font-family:Russian Road Sign;-inkscape-font-specification:Russian Road Sign"
         id="path11876" />
    </g>
    <path
       inkscape:connector-curvature="0"
       id="path8308-9"
       d="m 590.31252,-447.54822 0,98.66061 707.18748,0 0,-180.87791 -47.5992,-16.44355 -47.5992,16.44355 0,115.10416 -13.5996,0 0,-32.88686 -67.9989,-41.10877 -67.9988,41.10877 0,32.88686 -13.5996,0 0,-16.44355 -33.9996,-32.88686 -40.79918,0 0,-8.22167 -40.7992,0 0,8.22167 -40.7993,0 -33.9995,32.88686 0,16.44355 -13.5997,0 0,-24.66521 -54.3991,-139.76933 -54.3989,139.76933 0,24.66521 -13.5999,0 0,-32.88686 -61.1989,-24.66522 z"
       style="opacity:1;fill:#000000;fill-opacity:1;stroke:none"
       sodipodi:nodetypes="ccccccccccccccccccccccccccccccc" />
    <path
       inkscape:connector-curvature="0"
       style="opacity:1;fill:#000000;fill-opacity:1;stroke:none"
       d="m 780.72572,-26.595959 -54.3936,139.779739 0,24.67535 -13.6161,0 0,-32.87652 -61.2375,-24.675567 -61.166,24.675567 0,98.62977 175.1574,0 69.6493,-70.28536 0,-20.14324 -54.3935,-139.779739 z m 469.15318,32.8767465 -47.5499,16.4741675 0,115.104175 -13.6161,0 0,-32.87652 -68.0098,-41.149739 -68.0097,41.149739 0,32.87652 -13.6163,0 0,-16.47417 -34.0048,-32.876748 -9.41018,0 -113.9913,115.104168 415.82918,0 0,-180.857425 -47.6211,-16.4741675 z"
       id="path13762" />
    <path
       inkscape:connector-curvature="0"
       style="opacity:1;color:#000000;fill:#00a500;fill-opacity:1;fill-rule:nonzero;stroke:none;stroke-width:3.54299997999999980;marker:none;visibility:visible;display:inline;overflow:visible;enable-background:accumulate"
       d="m 789.56562,454.53947 c -8.0043,0 -14.4718,6.52663 -14.4718,14.60395 l 0,408.18815 c 0,8.07709 6.4675,14.60373 14.4718,14.60373 l 260.06218,0 c 8.0043,0 14.4004,-6.52664 14.4004,-14.60373 l 0,-408.18815 c 0,-8.07732 -6.3961,-14.60395 -14.4004,-14.60395 l -260.06218,0 z m 114.0622,11.51041 13.2598,0 -4.4199,100.42839 -30.8681,0 22.0282,-100.42839 z m 22.0996,0 13.1886,0 22.0282,100.42839 -30.868,0 -4.3488,-100.42839 z m -139.2274,113.80925 269.54388,0 0,17.76932 -37.7832,0 0,31.14995 -17.6083,0 -8.83988,-31.14995 -141.0811,0 -8.7685,31.14995 -17.6797,0 0,-31.14995 -37.7832,0 0,-17.76932 z m 81.911,31.07812 44.0567,0 -8.8399,269.48763 -105.7927,0 70.5759,-269.48763 z m 61.6652,0 44.1278,0 70.50498,269.48763 -105.79298,0 -8.8398,-269.48763 z"
       id="rect13824" />
    <path
       inkscape:connector-curvature="0"
       id="path14367"
       d="m 1039.7188,-56.523043 -349.03128,352.218763 83.8807,0 349.03118,-352.218763 z"
       style="opacity:1;fill:#ff0000;fill-opacity:1;stroke:none"
       sodipodi:nodetypes="ccccc" />
  </g>
</svg>
