<?xml version="1.0" encoding="UTF-8" standalone="no"?>
<!-- Created with Inkscape (http://www.inkscape.org/) -->

<svg
   xmlns:dc="http://purl.org/dc/elements/1.1/"
   xmlns:cc="http://creativecommons.org/ns#"
   xmlns:rdf="http://www.w3.org/1999/02/22-rdf-syntax-ns#"
   xmlns:svg="http://www.w3.org/2000/svg"
   xmlns="http://www.w3.org/2000/svg"
   xmlns:sodipodi="http://sodipodi.sourceforge.net/DTD/sodipodi-0.dtd"
   xmlns:inkscape="http://www.inkscape.org/namespaces/inkscape"
   width="1940"
   height="300"
   id="svg2"
   version="1.1"
   inkscape:version="0.48.4 r9939"
   sodipodi:docname="6.10.2 A.svg">
  <title
     id="title3006">6.10.2 Указатель направления</title>
  <defs
     id="defs4" />
  <sodipodi:namedview
     id="base"
     pagecolor="#ffffff"
     bordercolor="#666666"
     borderopacity="1.0"
     inkscape:pageopacity="0.0"
     inkscape:pageshadow="2"
     inkscape:zoom="1"
     inkscape:cx="886.12545"
     inkscape:cy="221.03696"
     inkscape:document-units="px"
     inkscape:current-layer="layer1"
     showgrid="false"
     inkscape:window-width="1920"
     inkscape:window-height="1024"
     inkscape:window-x="-4"
     inkscape:window-y="-4"
     inkscape:window-maximized="1"
     inkscape:snap-bbox="true"
     inkscape:bbox-paths="true"
     inkscape:bbox-nodes="true"
     inkscape:snap-bbox-edge-midpoints="true"
     inkscape:snap-bbox-midpoints="true"
     inkscape:object-paths="true"
     inkscape:snap-intersection-paths="true"
     inkscape:object-nodes="true"
     inkscape:snap-smooth-nodes="true"
     inkscape:snap-midpoints="true"
     inkscape:snap-object-midpoints="true" />
  <metadata
     id="metadata7">
    <rdf:RDF>
      <cc:Work
         rdf:about="">
        <dc:format>image/svg+xml</dc:format>
        <dc:type
           rdf:resource="http://purl.org/dc/dcmitype/StillImage" />
        <dc:title>6.10.2 Указатель направления</dc:title>
        <cc:license
           rdf:resource="http://creativecommons.org/licenses/by-sa/3.0/" />
        <dc:description>ГОСТ Р 52290-2004</dc:description>
      </cc:Work>
      <cc:License
         rdf:about="http://creativecommons.org/licenses/by-sa/3.0/">
        <cc:permits
           rdf:resource="http://creativecommons.org/ns#Reproduction" />
        <cc:permits
           rdf:resource="http://creativecommons.org/ns#Distribution" />
        <cc:requires
           rdf:resource="http://creativecommons.org/ns#Notice" />
        <cc:requires
           rdf:resource="http://creativecommons.org/ns#Attribution" />
        <cc:permits
           rdf:resource="http://creativecommons.org/ns#DerivativeWorks" />
        <cc:requires
           rdf:resource="http://creativecommons.org/ns#ShareAlike" />
      </cc:License>
    </rdf:RDF>
  </metadata>
  <g
     inkscape:label="Layer 1"
     inkscape:groupmode="layer"
     id="layer1"
     transform="translate(0,-752.36218)">
    <path
       sodipodi:nodetypes="sssscccs"
       inkscape:connector-curvature="0"
       id="path13928"
       d="m 45,752.36215 c -24.93,0 -45,20.07 -45,45 l 0,210.00005 c 0,24.93 20.07,45 45,45 l 1635.1561,0 L 1940,902.36215 l -259.8439,-150 z"
       style="color:#000000;fill:#ffffff;fill-opacity:1;fill-rule:nonzero;stroke:none;stroke-width:3.54299998;marker:none;visibility:visible;display:inline;overflow:visible;enable-background:accumulate" />
    <path
       inkscape:connector-curvature="0"
       style="color:#000000;fill:#0d69e1;fill-opacity:1;fill-rule:nonzero;stroke:none;stroke-width:3.54299998;marker:none;visibility:visible;display:inline;overflow:visible;enable-background:accumulate"
       d="m 45,761.36215 c -19.944,0 -36,16.056 -36,36 l 0,210.00005 c 0,19.944 16.056,36 36,36 l 1629.7501,0 141,-141.00005 -141,-141 -1629.7501,0 z m 1121.5,36.15625 9.5625,0 c 1.296,5.55943 4.966,8.34384 10.9687,8.34375 6.0711,9e-5 9.6841,-2.78432 10.8438,-8.34375 l 9.6562,0 c -1.7051,5.42301 -4.5153,9.64926 -8.4374,12.71875 -3.5815,2.79681 -7.5691,4.21883 -11.9688,4.21875 -4.3998,8e-5 -8.4131,-1.42194 -12.0625,-4.21875 -3.8882,-3.06949 -6.7549,-7.29574 -8.5625,-12.71875 z m 281.3438,0 9.5625,0 c 1.2961,5.55943 4.9346,8.34384 10.9375,8.34375 6.0706,9e-5 9.6841,-2.78432 10.8437,-8.34375 l 9.6875,0 c -1.7054,5.42301 -4.5463,9.64926 -8.4688,12.71875 -3.581,2.79681 -7.569,4.21883 -11.9687,4.21875 -4.3997,8e-5 -8.4131,-1.42194 -12.0625,-4.21875 -3.8882,-3.06949 -6.7238,-7.29574 -8.5312,-12.71875 z m -98.3125,18.0625 3.8438,12.71875 c -2.7968,0.23881 -4.5654,0.48007 -5.2812,0.71875 -1.4669,0.44345 -2.8859,1.54188 -4.25,3.28125 l -10.4376,13.46875 c -1.2617,1.67126 -2.1957,2.76684 -2.8437,3.3125 -1.1597,1.02323 -2.4736,1.69308 -3.9063,2 4.8092,0.71628 8.7458,3.25942 11.7813,7.625 0.2728,0.40931 4.0478,6.56278 11.3125,18.5 5.7639,9.51569 9.2153,14.57644 10.375,15.15625 l -16.1562,0 c -1.4669,-1.53479 -4.1432,-5.81782 -8.0313,-12.84375 -2.5921,-4.60435 -5.2178,-9.23651 -7.8437,-13.875 -2.0467,-3.30829 -4.161,-5.50231 -6.3438,-6.59375 -1.9441,-0.98905 -4.9698,-1.52265 -9.0625,-1.625 l 0,34.9375 -12.9375,0 0,-75 12.9375,0 0,27.71875 c 4.0586,-0.17048 7.9672,-2.73916 11.7187,-7.71875 3.3085,-4.60431 6.6263,-9.17968 9.9688,-13.75 4.3997,-5.08178 9.4606,-7.75832 15.1562,-8.03125 z m -604.5938,0.0937 c 8.2537,8e-5 15.27855,3.82899 21.09375,11.46875 5.81508,7.63989 8.71868,16.87296 8.71875,27.71875 -7e-5,10.77765 -2.90367,19.98518 -8.71875,27.625 -5.8152,7.63984 -12.84005,11.46875 -21.09375,11.46875 -8.18557,0 -15.18488,-3.82891 -21,-11.46875 -5.81516,-7.63982 -8.71876,-16.84735 -8.71875,-27.625 -10e-6,-10.84579 2.90359,-20.07886 8.71875,-27.71875 5.81512,-7.63976 12.81443,-11.46867 21,-11.46875 z m 513.0938,0.21875 c 6.0369,8e-5 11.5207,2.1941 16.5,6.59375 4.8433,4.22926 8.4308,9.82075 10.75,16.8125 l -12.0625,5.06255 c -1.2621,-4.84306 -3.2574,-8.75144 -5.9688,-11.71875 -2.7115,-2.9672 -5.7484,-4.43744 -9.125,-4.4375 -4.5362,6e-5 -8.419,2.62553 -11.625,7.84375 -3.2059,5.21833 -4.8125,11.5052 -4.8125,18.90625 0,7.40112 1.6066,13.73344 4.8125,18.96875 3.206,5.23535 7.0888,7.84376 11.625,7.84375 3.2743,10e-6 6.2601,-1.41916 8.9375,-4.25 2.6774,-2.83081 4.6983,-6.5774 6.0625,-11.25 l 12,4.59375 c -2.3193,6.92362 -5.8755,12.46403 -10.7188,16.625 -4.9112,4.29741 -10.3721,6.46875 -16.375,6.46875 -8.1512,0 -15.1394,-3.81471 -20.9374,-11.4375 -5.7984,-7.62277 -8.6876,-16.8161 -8.6876,-27.59375 0,-10.77758 2.8892,-20.00216 8.6876,-27.625 5.798,-7.62271 12.7862,-11.40617 20.9374,-11.40625 z m -584.4063,0.8125 c 1.73941,8e-5 3.45377,0.70966 5.125,2.125 1.67119,1.41549 2.49998,3.13833 2.5,5.21875 l 0.15625,2.375 c -3e-5,3.71766 -0.88274,6.88806 -2.65625,9.53125 -1.77355,2.6433 -4.42456,4.85152 -7.9375,6.625 l -0.84375,-2.5 c 3.61526,-1.09135 5.80928,-4.08862 6.59375,-9 -1.80766,0.34113 -3.42835,0.3922 -4.84375,0.1875 -1.41543,-0.20458 -2.72674,-0.89711 -3.9375,-2.125 -1.21079,-1.22777 -1.81251,-2.94498 -1.8125,-5.09375 -10e-6,-1.67114 0.72091,-3.31737 2.1875,-4.9375 1.46656,-1.61998 3.28592,-2.40617 5.46875,-2.40625 z m 19.4375,0 c 1.73939,8e-5 3.45375,0.70966 5.125,2.125 1.67117,1.41549 2.49996,3.13833 2.5,5.21875 l 0.15625,2.375 c -4e-5,3.71766 -0.88276,6.88806 -2.65625,9.53125 -1.77357,2.6433 -4.42458,4.85152 -7.9375,6.625 l -0.84375,-2.5 c 3.61524,-1.09135 5.80926,-4.08862 6.59375,-9 -1.80768,0.34113 -3.42837,0.3922 -4.84375,0.1875 -1.41545,-0.20458 -2.72675,-0.89711 -3.9375,-2.125 -1.21081,-1.22777 -1.81253,-2.94498 -1.8125,-5.09375 -3e-5,-1.67114 0.72089,-3.31737 2.1875,-4.9375 1.46654,-1.61998 3.28591,-2.40617 5.46875,-2.40625 z m 823.7188,0 c 1.7397,8e-5 3.4539,0.70966 5.125,2.125 1.6711,1.41549 2.5,3.13833 2.5,5.21875 l 0.1563,2.375 c 0,3.71766 -0.8827,6.88806 -2.6563,9.53125 -1.7734,2.6433 -4.4247,4.85152 -7.9375,6.625 l -0.875,-2.5 c 3.6151,-1.09135 5.8092,-4.08862 6.5937,-9 -1.8077,0.34113 -3.397,0.3922 -4.8125,0.1875 -1.4154,-0.20458 -2.7266,-0.89711 -3.9375,-2.125 -1.2108,-1.22777 -1.844,-2.94498 -1.8437,-5.09375 -2e-4,-1.67114 0.7522,-3.31737 2.2187,-4.9375 1.4666,-1.61998 3.2862,-2.40617 5.4687,-2.40625 z m 19.4375,0 c 1.7392,8e-5 3.4535,0.70966 5.125,2.125 1.6709,1.41549 2.4998,3.13833 2.5,5.21875 l 0.1562,2.375 c 0,3.71766 -0.883,6.88806 -2.6562,9.53125 -1.7736,2.6433 -4.4244,4.85152 -7.9375,6.625 l -0.875,-2.5 c 3.6154,-1.09135 5.8092,-4.08862 6.5938,-9 -1.8078,0.34113 -3.3971,0.3922 -4.8125,0.1875 -1.4155,-0.20458 -2.7268,-0.89711 -3.9375,-2.125 -1.2109,-1.22777 -1.8125,-2.94498 -1.8125,-5.09375 0,-1.67114 0.7209,-3.31737 2.1875,-4.9375 1.4665,-1.61998 3.2858,-2.40617 5.4688,-2.40625 z m -730.62505,0.6563 47.59375,0 0,75 -13.625,0 0,-63.375 -20.40625,0 -0.625,29.65625 c -0.23878,9.61803 -1.65509,17.03174 -4.28125,22.25 -3.44478,6.58254 -9.36271,11.00183 -17.71875,13.21875 l -7.3125,-12.96875 c 6.54841,-1.60299 10.96771,-4.08934 13.21875,-7.5 2.04636,-3.00134 3.06247,-8.00816 3.0625,-15 -3e-5,-5.5252 0.0284,-12.40531 0.0625,-20.625 0.0341,-13.88124 0.0312,-20.75849 0.0312,-20.65625 z m 62.15625,0 11.875,0 0,53.0625 28.75,-53.0625 12.5625,0 0,75 -11.96875,0 0,-54.90625 -28.625,54.90625 -12.59375,0 0,-75 z m 75.28125,0 12.78125,0 17.5625,33.75 16.46875,-33.75 13.21875,0 7.5625,75 -13.21875,0 -5.09375,-56.0625 -18.9375,41.0625 -19.65625,-41.21875 -5.21875,56.21875 -13.09375,0 7.625,-75 z m 82.15625,0 53.625,0 0,75 -12.5937,0 0,-63.9375 -28.4376,0 0,63.9375 -12.5937,0 0,-75 z m 68.0625,0 11.875,0 0,53.0625 28.75,-53.0625 12.5938,0 0,75 -11.9688,0 0,-54.90625 -28.6562,54.90625 -12.5938,0 0,-75 z m 67.6875,0 11.8125,0 0,53 28.5625,-53 12.5313,0 0,75.0625 -11.8126,0 0,-54.8125 -28.5624,54.8125 -12.5313,0 0,-75.0625 z m 213.6563,0 11.875,0 0,53.0625 28.75,-53.0625 12.5625,0 0,75 -11.9687,0 0,-54.90625 -28.6563,54.90625 -12.5625,0 0,-75 z m 67.6562,0 11.8125,0 0,53 28.5625,-53 12.5312,0 0,75.0625 -11.8124,0 0,-54.8125 -28.5626,54.8125 -12.5312,0 0,-75.0625 z M 745.09375,828.0184 c -4.6044,6e-5 -8.51278,2.60562 -11.71875,7.875 -3.20603,5.26949 -4.81252,11.6302 -4.8125,19.03125 -2e-5,7.40112 1.60647,13.70219 4.8125,18.9375 3.20597,5.23535 7.11435,7.84376 11.71875,7.84375 4.53611,10e-6 8.41609,-2.6084 11.65625,-7.84375 3.24005,-5.23531 4.87494,-11.53638 4.875,-18.9375 -6e-5,-7.40105 -1.63495,-13.76176 -4.875,-19.03125 -3.24016,-5.26938 -7.12014,-7.87494 -11.65625,-7.875 z m -525.1875,8.46875 c 5.0136,6e-5 9.62022,1.60941 13.78125,4.78125 4.05861,3.10373 7.05302,7.19658 9.03125,12.3125 l -10.53125,4 c -2.31928,-7.63979 -6.41499,-11.4687 -12.28125,-11.46875 -3.71763,5e-5 -6.85964,1.84495 -9.46875,5.5625 -2.60916,3.71764 -3.93752,8.2164 -3.9375,13.46875 -2e-5,5.28652 1.32834,9.79662 3.9375,13.53125 2.60911,3.73466 5.75112,5.59376 9.46875,5.59375 5.59341,10e-6 9.63804,-3.58479 12.09375,-10.78125 l 10.4375,3.875 c -2.01233,4.97955 -5.04085,8.97025 -9.03125,11.9375 -4.09281,3.06958 -8.58872,4.59375 -13.5,4.59375 -6.88952,0 -12.76486,-2.80994 -17.625,-8.4375 -4.86018,-5.62755 -7.28126,-12.39979 -7.28125,-20.3125 -1e-5,-7.91265 2.42107,-14.65651 7.28125,-20.25 4.86014,-5.5934 10.73548,-8.40619 17.625,-8.40625 z m 115.90625,0.375 c 7.74212,6e-5 13.63165,1.95282 17.65625,5.875 3.54701,3.4789 5.31245,8.05427 5.3125,13.75 l 0,24 c 0.23869,2.69442 1.1498,4.06251 2.71875,4.0625 0.3069,10e-6 0.62763,-0.0823 0.96875,-0.21875 l -3.84375,9.21875 c -6.75312,0.17053 -10.4997,-2.29314 -11.25,-7.375 -2.35338,4.36562 -7.43967,6.72144 -15.25,7.0625 -4.94545,0 -8.97303,-1.48729 -12.09375,-4.4375 -3.12075,-2.9502 -4.73858,-6.89831 -4.875,-11.84375 -0.10233,-3.64937 1.07272,-6.98156 3.5625,-10 2.48975,-3.01839 5.62328,-4.90588 9.375,-5.65625 L 346.5,857.61215 c -4e-5,-7.36694 -3.5593,-11.16746 -10.6875,-11.40625 -1.73946,0.0342 -3.39703,0.24988 -5,0.625 -3.92226,0.98913 -7.32544,2.81135 -10.15625,5.4375 l -4.28125,-8.75 c 6.65073,-4.16093 13.12779,-6.38334 19.4375,-6.65625 z m 200.25,0 c 6.82124,6e-5 12.64265,2.78446 17.46875,8.34375 4.826,5.55939 7.24994,12.22092 7.25,20.03125 -6e-5,7.91271 -2.424,14.64808 -7.25,20.15625 -4.8261,5.50819 -10.64751,8.25 -17.46875,8.25 -6.7531,0 -12.54897,-2.74181 -17.375,-8.25 -4.82607,-5.50817 -7.25001,-12.24354 -7.25,-20.15625 -10e-6,-7.81033 2.42393,-14.47186 7.25,-20.03125 4.82603,-5.55929 10.6219,-8.34369 17.375,-8.34375 z m -278.90625,1.15625 43.28125,0 0,10.4375 -15.65625,0 0,43.90625 -11.625,0 0,-43.90625 -16,0 0,-10.4375 z m 133.28125,0 39.34375,0 0,43.96875 5.9375,0 0,22.15625 -10.375,0 0,-11.78125 -37.96875,0 0,11.78125 -10.4375,0 0,-22.15625 5.8125,0 c 5.11594,-11.73258 7.68748,-26.40391 7.6875,-43.96875 z m 59.6875,0 11.8125,0 0,36.125 22.53125,-36.125 12.53125,0 0,54.34375 -11.84375,0 0,-36.125 -22.34375,36.125 -12.6875,0 0,-54.34375 z m 125.125,0 11.8125,0 0,21.4375 20.3125,0 0,-21.4375 11.8125,0 0,54.34375 -11.8125,0 0,-23.84375 -20.3125,0 0,23.84375 -11.8125,0 0,-54.34375 z m -39.1875,8.40625 c -3.61531,5e-5 -6.72044,1.862 -9.3125,5.5625 -2.59211,3.70058 -3.87502,8.09996 -3.875,13.25 -2e-5,5.25241 1.28289,9.72278 3.875,13.40625 2.59206,3.6835 5.69719,5.53126 9.3125,5.53125 3.68345,10e-6 6.81412,-1.84775 9.40625,-5.53125 2.59204,-3.68347 3.9062,-8.15384 3.90625,-13.40625 -5e-5,-5.15004 -1.31421,-9.54942 -3.90625,-13.25 -2.59213,-3.7005 -5.7228,-5.56245 -9.40625,-5.5625 z m -134.46875,1.375 c -0.68216,13.91545 -2.98404,25.31985 -6.90625,34.1875 l 23.125,0 0,-34.1875 -16.21875,0 z m -54.5625,17.5625 c -3.71764,0.9209 -7.41315,1.90862 -11.0625,3 -6.2756,1.70534 -9.40627,4.46421 -9.40625,8.25 -2e-5,5.15008 3.07671,7.71876 9.25,7.71875 2.62616,10e-6 5.1977,-1.28576 7.6875,-3.84375 2.3533,-2.35333 3.53121,-4.54735 3.53125,-6.59375 l 0,-8.53125 z m 1281.96885,0.5 c 4.7749,8e-5 9.1913,1.23191 13.25,3.6875 5.3205,3.10375 7.9432,7.62519 7.875,13.59375 -0.034,3.47891 -1.3455,6.8253 -3.9375,10.03125 -2.8309,3.4789 -6.6059,5.9965 -11.3125,7.53125 5.9345,0.307 10.5922,2.23422 13.9688,5.78125 3.0695,3.27425 4.6476,7.5005 4.75,12.71875 0.1022,7.367 -2.1997,13.28493 -6.9063,17.71875 -4.468,4.16098 -10.1929,6.32663 -17.2187,6.53123 -8.3903,0.2729 -15.7273,-1.2002 -21.9688,-4.40623 l -2.5,-12.125 c 6.1732,2.83084 12.4346,4.25001 18.8125,4.25 10.7776,10e-6 16.1875,-3.85158 16.1875,-11.59375 0,-7.81034 -4.2292,-11.71872 -12.6875,-11.71875 -2.2511,3e-5 -4.7147,0.32076 -7.375,0.96875 l 0.9687,-11 c 10.4025,-2.25098 15.5938,-6.24168 15.5938,-11.9375 0,-6.27552 -3.1307,-9.40618 -9.4062,-9.40625 -4.7409,7e-5 -10.2018,2.03515 -16.375,6.09375 l -4.5313,-10.4375 c 5.5593,-4.0927 13.1604,-6.17885 22.8125,-6.28125 z m -1353.09385,49.15625 0,23 13.875,0 0,10.56248 -13.875,0 0,28.0313 c 0.81852,3.547 3.23112,5.3125 7.1875,5.3125 1.22779,0 3.39342,-0.4002 6.53125,-1.2188 l 2.46875,11 c -4.60441,0.8868 -8.48725,1.3125 -11.625,1.3125 -10.77765,0 -16.15627,-4.2007 -16.15625,-12.625 l 0,-31.8125 -9.40625,0 0,-10.56248 9.25,0 0,-19.1875 11.75,-3.8125 z m 444.875,0.65625 c 8.2537,8e-5 15.3098,3.82899 21.125,11.46875 5.81508,7.63989 8.71868,16.87298 8.71875,27.71878 -7e-5,10.7776 -2.90367,19.9851 -8.71875,27.625 -5.8152,7.6398 -12.8713,11.4687 -21.125,11.4687 -8.18557,0 -15.18488,-3.8289 -21,-11.4687 -5.81516,-7.6399 -8.71876,-16.8474 -8.71875,-27.625 -10e-6,-10.8458 2.90359,-20.07889 8.71875,-27.71878 5.81512,-7.63976 12.81443,-11.46867 21,-11.46875 z m 415.74995,0.65625 c 5.9687,8e-5 11.0634,0.80618 15.3438,2.375 4.2803,1.56897 8.444,4.13479 12.4688,7.75 l -8.6876,8.15625 -5.4374,-4.15625 c -2.7627,-2.04632 -6.6427,-3.06244 -11.6563,-3.0625 -3.6153,6e-5 -6.8424,1.17797 -9.6563,3.53125 -2.8137,2.3534 -4.2187,4.76315 -4.2187,7.21875 l 0.3125,1.875 0.7812,1.65625 c 0.7846,1.09143 1.8545,2.08203 3.2188,2.96873 l 18.7188,5.7188 c 6.1731,2.4557 10.1099,4.3006 11.7812,5.5625 3.7516,2.9673 5.6249,7.4376 5.625,13.4062 -10e-5,6.4802 -2.8668,12.1825 -8.5625,17.0938 -5.3207,4.7067 -11.3152,7.0625 -18,7.0625 -5.9004,0 -11.4409,-1.124 -16.625,-3.375 -4.3315,-1.9441 -9.2816,-5.0748 -14.875,-9.4063 l 9.0937,-8.25 9.7188,6.9063 c 3.1719,1.4666 7.3471,2.2187 12.5312,2.2187 3.5472,0 6.3201,-1.1126 8.2813,-3.3125 1.9611,-2.1998 2.9374,-4.7827 2.9375,-7.75 -10e-5,-1.944 -0.4967,-3.7123 -1.4688,-5.2812 -0.9719,-1.5689 -2.3514,-2.6361 -4.125,-3.25 l -14.7187,-3.8125 c -5.6276,-1.8759 -9.7261,-3.9365 -12.25,-6.1875 -3.6494,-3.4447 -5.4689,-7.969 -5.4687,-13.56253 -2e-4,-6.10499 2.6651,-11.31047 7.9687,-15.625 5.3035,-4.31439 10.966,-6.46867 16.9687,-6.46875 z M 649.5,916.7059 c 1.73941,8e-5 3.42252,0.70966 5.09375,2.125 1.67119,1.41549 2.53123,3.13833 2.53125,5.21875 l 0.15625,2.375 c -3e-5,3.71766 -0.91399,6.88806 -2.6875,9.53125 -1.77355,2.6433 -4.39331,4.85152 -7.90625,6.62498 l -0.875,-2.49998 c 3.61526,-1.09135 5.80928,-4.08862 6.59375,-9 -1.80766,0.34113 -3.42835,0.3922 -4.84375,0.1875 -1.41543,-0.20458 -2.72674,-0.89711 -3.9375,-2.125 -1.21079,-1.22777 -1.81251,-2.94498 -1.8125,-5.09375 -10e-6,-1.67114 0.75216,-3.31737 2.21875,-4.9375 1.46656,-1.61998 3.28592,-2.40617 5.46875,-2.40625 z m 19.4375,0 c 1.73939,8e-5 3.4225,0.70966 5.09375,2.125 1.67117,1.41549 2.53121,3.13833 2.53125,5.21875 l 0.15625,2.375 c -4e-5,3.71766 -0.91401,6.88806 -2.6875,9.53125 -1.77357,2.6433 -4.39333,4.85152 -7.90625,6.62498 l -0.875,-2.49998 c 3.61524,-1.09135 5.80926,-4.08862 6.59375,-9 -1.80768,0.34113 -3.42837,0.3922 -4.84375,0.1875 -1.41545,-0.20458 -2.72675,-0.89711 -3.9375,-2.125 -1.21081,-1.22777 -1.81253,-2.94498 -1.8125,-5.09375 -3e-5,-1.67114 0.75214,-3.31737 2.21875,-4.9375 1.46654,-1.61998 3.28591,-2.40617 5.46875,-2.40625 z m 692.5314,0 c 1.7393,8e-5 3.4224,0.70966 5.0937,2.125 1.6711,1.41549 2.531,3.13833 2.5313,5.21875 l 0.1562,2.375 c 0,3.71766 -0.9141,6.88806 -2.6875,9.53125 -1.7736,2.6433 -4.3932,4.85152 -7.9063,6.62498 l -0.875,-2.49998 c 3.6153,-1.09135 5.8092,-4.08862 6.5938,-9 -1.8078,0.34113 -3.4283,0.3922 -4.8438,0.1875 -1.4154,-0.20458 -2.7268,-0.89711 -3.9375,-2.125 -1.2109,-1.22777 -1.8125,-2.94498 -1.8125,-5.09375 0,-1.67114 0.7522,-3.31737 2.2188,-4.9375 1.4665,-1.61998 3.2858,-2.40617 5.4688,-2.40625 z m 19.4374,0 c 1.7395,8e-5 3.4539,0.70966 5.125,2.125 1.6712,1.41549 2.5,3.13833 2.5,5.21875 l 0.1563,2.375 c 0,3.71766 -0.8827,6.88806 -2.6563,9.53125 -1.7734,2.6433 -4.4246,4.85152 -7.9374,6.62498 l -0.875,-2.49998 c 3.6151,-1.09135 5.8091,-4.08862 6.5937,-9 -1.8078,0.34113 -3.4285,0.3922 -4.8437,0.1875 -1.4156,-0.20458 -2.7267,-0.89711 -3.9376,-2.125 -1.2107,-1.22777 -1.8126,-2.94498 -1.8124,-5.09375 -2e-4,-1.67114 0.7521,-3.31737 2.2187,-4.9375 1.4665,-1.61998 3.286,-2.40617 5.4687,-2.40625 z m -940.2813,0.1875 c 2.14868,8e-5 3.92546,0.73805 5.375,2.1875 1.4495,1.44959 2.18747,3.25762 2.1875,5.40625 -3e-5,2.08056 -0.74934,3.86019 -2.25,5.34375 -1.5007,1.48369 -3.26614,2.21881 -5.3125,2.21875 -2.18283,6e-5 -4.05898,-0.72372 -5.59375,-2.15625 -1.5348,-1.53472 -2.31251,-3.32569 -2.3125,-5.40625 -10e-6,-2.14863 0.7777,-3.95666 2.3125,-5.40625 1.53477,-1.44945 3.41092,-2.18742 5.59375,-2.1875 z m -34.03125,0.46875 11.5625,0 0,75.00003 -9.3125,0 -2.1875,-3.3125 -2.71875,2.125 c -2.62624,1.9781 -6.39836,2.9687 -11.34375,2.9687 -5.96865,0.2047 -11.27066,-1.7765 -15.875,-5.9375 -4.97955,-5.4229 -7.65323,-12.1128 -8.0625,-20.0937 -0.0682,-10.3001 2.13999,-18.009 6.625,-23.125 4.48497,-5.11594 9.87493,-7.71016 16.21875,-7.81253 5.38877,-0.10226 9.54127,0.80599 12.40625,2.75 l 2.6875,2.03125 0,-24.59375 z m 358.5,0 13.65625,0 0,63.59373 33.15625,0 0,11.4063 -46.8125,0 0,-75.00003 z m 61.3125,0 13.25,0 0,75.00003 -13.25,0 0,-75.00003 z m 27.78125,0 14.5625,0 20.96875,36.03123 21.125,-36.03123 14.59375,0 0,75.00003 -13.1875,0 0,-54.03128 -22.53125,39.18748 -22.34375,-39.18748 0,54.03128 -13.1875,0 0,-75.00003 z m 85.65625,0 30.59375,0 c 5.79804,7e-5 10.77932,2.40982 14.90625,7.21875 3.37648,4.39979 5.06244,9.48322 5.0625,15.28125 -6e-5,5.90043 -1.66049,11.19963 -4.96875,15.90623 -3.88818,5.5935 -8.895,8.4063 -15,8.4063 l -18,0 0,28.1875 -12.59375,0 0,-75.00003 z m 65.03125,0 13.25,0 0,75.00003 -13.25,0 0,-75.00003 z m 27.75,0 15.1562,0 14.4063,29.96873 15,-29.96873 15.4375,0 -24.5938,45.03123 0,29.9688 -11.4062,0 0,-29.9688 -24,-45.03123 z m 147,0 13.0625,0 0,75.00003 -13.0625,0 0,-75.00003 z m 38.1251,0 19.0312,0 -27.8751,33.90623 28.7501,41.0938 -18.125,0 -26.6875,-41.25 24.9063,-33.75003 z m 34.4688,0 13.25,0 0,75.00003 -13.25,0 0,-75.00003 z m 27.75,0 15.1562,0 14.4375,29.96873 14.9687,-29.96873 15.4688,0 -24.625,45.03123 0,29.9688 -11.4062,0 0,-29.9688 -24,-45.03123 z M 720.9375,928.0184 c -4.6044,6e-5 -8.51278,2.60562 -11.71875,7.875 -3.20603,5.26949 -4.81252,11.63018 -4.8125,19.03128 -2e-5,7.4011 1.60647,13.7022 4.8125,18.9375 3.20597,5.2353 7.11435,7.8437 11.71875,7.8437 4.53611,0 8.44734,-2.6084 11.6875,-7.8437 3.24005,-5.2353 4.84369,-11.5364 4.84375,-18.9375 -6e-5,-7.4011 -1.6037,-13.76179 -4.84375,-19.03128 -3.24016,-5.26938 -7.15139,-7.87494 -11.6875,-7.875 z m 231.5,0.4375 0,24.46878 14.4375,0 c 3.4106,0 6.13822,-1.3908 8.21875,-4.1875 1.80759,-2.3192 2.7187,-5.0781 2.71875,-8.25003 -5e-5,-3.10363 -0.69543,-5.80571 -2.09375,-8.125 -1.91,-2.59202 -4.85334,-3.90619 -8.84375,-3.90625 l -14.4375,0 z m -370.59375,8 c 3.92216,6e-5 7.12096,1.13823 9.59375,3.40625 2.47263,2.26813 3.68742,5.48963 3.6875,9.71873 l 0,42.7813 -11.4375,0 0,-38.7813 c 0.0681,-3.9563 -1.61782,-5.9346 -5.0625,-5.9687 -3.81998,0 -8.58839,3.2612 -14.25,9.8437 l 0,34.9063 -11.6875,0 0,-38.7813 c -4e-5,-4.2973 -1.55261,-6.4374 -4.65625,-6.4375 -4.46797,-0.1364 -9.36693,3.2866 -14.6875,10.3125 l 0,34.9063 -11.71875,0 0,-54.34378 9.5625,0 1.53125,6.15628 c 3.51294,-2.55796 6.6578,-4.47384 9.4375,-5.71878 2.77964,-1.24483 5.54984,-1.84369 8.3125,-1.84375 4.84307,6e-5 8.8877,2.5148 12.09375,7.56253 6.58248,-5.15004 13.00561,-7.71872 19.28125,-7.71878 z m -254.40625,0.40625 c 7.74212,6e-5 13.6004,1.95282 17.625,5.87503 3.54701,3.4789 5.3437,8.0542 5.34375,13.75 l 0,24 c 0.23869,2.6944 1.11855,4.0625 2.6875,4.0625 0.3069,0 0.62763,-0.082 0.96875,-0.2188 l -3.8125,9.2188 c -6.75312,0.1705 -10.4997,-2.2932 -11.25,-7.375 -2.35338,4.3656 -7.43967,6.7214 -15.25,7.0625 -4.94545,0 -8.97303,-1.4873 -12.09375,-4.4375 -3.12075,-2.9502 -4.76983,-6.8983 -4.90625,-11.8438 -0.10233,-3.6494 1.10397,-6.9815 3.59375,-10 2.48975,-3.0184 5.59203,-4.9059 9.34375,-5.6562 l 18.4375,-3.6875 c -4e-5,-7.367 -3.5593,-11.1675 -10.6875,-11.4063 -1.73946,0.034 -3.42828,0.2499 -5.03125,0.625 -3.92226,0.9891 -7.29419,2.8114 -10.125,5.4375 l -4.3125,-8.75 c 6.65073,-4.16091 13.15904,-6.38332 19.46875,-6.65623 z m -109.46875,0.15625 c 8.59477,6e-5 15.90062,2.46087 21.9375,7.40628 l -6.9375,6.0937 -5.28125,-3.7812 c -1.63715,-1.0232 -4.31369,-1.5312 -8.03125,-1.5313 -2.83086,10e-5 -5.29168,0.826 -7.40625,2.5313 -2.21694,1.8418 -3.34377,3.6384 -3.34375,5.3437 -2e-5,1.91 1.12681,3.5137 3.34375,4.8438 l 14.53125,4.0625 c 4.84306,1.8417 7.94534,3.2297 9.34375,4.2187 2.83078,2.4216 4.24994,5.6601 4.25,9.7188 -6e-5,4.7408 -2.12595,8.8791 -6.40625,12.375 -4.2804,3.4959 -9.06015,5.25 -14.3125,5.25 -4.6385,0 -8.83921,-0.8317 -12.625,-2.4688 -3.78583,-1.6371 -7.80207,-3.9645 -12.03125,-7 l 7.125,-6.0312 7.65625,5.4687 c 2.42153,0.9891 5.66006,1.4688 9.71875,1.4688 2.72848,0 4.88562,-0.8175 6.4375,-2.4375 1.5518,-1.6201 2.31246,-3.5331 2.3125,-5.75 -4e-5,-0.6821 -0.0937,-1.3236 -0.28125,-1.9375 -0.18763,-0.6139 -0.44309,-1.2299 -0.75,-1.8438 -0.8186,-1.1937 -1.91418,-2.0509 -3.3125,-2.5625 l -11.5,-2.6875 c -4.53618,-1.5006 -7.75202,-3.0277 -9.59375,-4.5625 -2.89906,-2.5238 -4.34376,-5.7879 -4.34375,-9.8125 -1e-5,-4.4338 2.04927,-8.2911 6.125,-11.53123 4.07569,-3.24006 8.53186,-4.84369 13.375,-4.84375 z m 216.59375,1 11.78125,0 0,54.34378 -11.78125,0 0,-54.34378 z m 28.1875,0.0625 12.1875,0 0,38.84378 c -2e-5,4.2974 1.57808,6.4375 4.75,6.4375 1.94404,0 4.32539,-0.843 7.15625,-2.5313 2.83079,-1.6882 5.58966,-4.2711 8.25,-7.75 l 0,-34.99998 12,0 0,54.28128 -9.875,0 -1.6875,-5.875 c -3.58121,2.5579 -6.84528,4.4057 -9.8125,5.5312 -2.89908,1.1596 -5.73741,1.7188 -8.5,1.7188 -5.01366,0 -9.10937,-1.791 -12.28125,-5.4063 -1.43248,-1.944 -2.13921,-4.0728 -2.15625,-6.375 -0.0171,-2.3022 -0.0313,-5.2597 -0.0312,-8.875 l 0,-34.99998 z m -68.375,8.99998 c -5.1501,10e-5 -8.78882,1.6349 -10.9375,4.875 -1.80766,2.7627 -2.71877,7.392 -2.71875,13.9063 -2e-5,5.764 1.14949,10.2854 3.46875,13.5937 2.31921,3.3083 5.5322,4.9688 9.625,4.9688 3.03543,0.2046 5.83403,-0.7831 8.375,-3 2.54088,-2.2169 3.99693,-5.3505 4.40625,-9.375 l 0,-13.7188 c -0.20469,-3.0013 -1.14133,-5.4877 -2.8125,-7.5 -1.80768,-2.4897 -4.93835,-3.7499 -9.40625,-3.75 z m -55.75,18.2813 c -3.71764,0.9209 -7.41315,1.9086 -11.0625,3 -6.2756,1.7053 -9.40627,4.4642 -9.40625,8.25 -2e-5,5.15 3.10796,7.7187 9.28125,7.7187 2.62616,0 5.16645,-1.2857 7.65625,-3.8437 2.3533,-2.3534 3.53121,-4.5474 3.53125,-6.5938 l 0,-8.5312 z"
       id="path13930" />
    <path
       sodipodi:nodetypes="sssscccs"
       inkscape:connector-curvature="0"
       id="path13932"
       d="m 45,753.36215 c -24.376,0 -44,19.624 -44,44 l 0,210.00005 c 0,24.376 19.624,44 44,44 l 1634.8751,0 258.0939,-149.00005 -258.0939,-149 z"
       style="color:#000000;fill:none;stroke:#000000;stroke-width:2;stroke-miterlimit:4;stroke-opacity:1;stroke-dasharray:none;marker:none;visibility:visible;display:inline;overflow:visible;enable-background:accumulate" />
  </g>
</svg>
