<?xml version="1.0" encoding="UTF-8" standalone="no"?>
<!-- Created with Inkscape (http://www.inkscape.org/) -->

<svg
   xmlns:dc="http://purl.org/dc/elements/1.1/"
   xmlns:cc="http://creativecommons.org/ns#"
   xmlns:rdf="http://www.w3.org/1999/02/22-rdf-syntax-ns#"
   xmlns:svg="http://www.w3.org/2000/svg"
   xmlns="http://www.w3.org/2000/svg"
   xmlns:sodipodi="http://sodipodi.sourceforge.net/DTD/sodipodi-0.dtd"
   xmlns:inkscape="http://www.inkscape.org/namespaces/inkscape"
   width="2300"
   height="1450"
   id="svg2"
   version="1.1"
   inkscape:version="0.48.4 r9939"
   sodipodi:docname="6.9.1 A.svg">
  <title
     id="title3006">6.9.1 Предварительный указатель направлений</title>
  <defs
     id="defs4" />
  <sodipodi:namedview
     id="base"
     pagecolor="#ffffff"
     bordercolor="#666666"
     borderopacity="1.0"
     inkscape:pageopacity="0.0"
     inkscape:pageshadow="2"
     inkscape:zoom="1"
     inkscape:cx="899.07643"
     inkscape:cy="408.92445"
     inkscape:document-units="px"
     inkscape:current-layer="layer1"
     showgrid="false"
     inkscape:window-width="1920"
     inkscape:window-height="1024"
     inkscape:window-x="-4"
     inkscape:window-y="-4"
     inkscape:window-maximized="1"
     inkscape:snap-bbox="true"
     inkscape:bbox-paths="true"
     inkscape:bbox-nodes="true"
     inkscape:snap-bbox-edge-midpoints="true"
     inkscape:snap-bbox-midpoints="true"
     inkscape:object-paths="true"
     inkscape:snap-intersection-paths="true"
     inkscape:object-nodes="true"
     inkscape:snap-smooth-nodes="true"
     inkscape:snap-midpoints="true"
     inkscape:snap-object-midpoints="true"
     showguides="true"
     inkscape:guide-bbox="true" />
  <metadata
     id="metadata7">
    <rdf:RDF>
      <cc:Work
         rdf:about="">
        <dc:format>image/svg+xml</dc:format>
        <dc:type
           rdf:resource="http://purl.org/dc/dcmitype/StillImage" />
        <dc:title>6.9.1 Предварительный указатель направлений</dc:title>
        <cc:license
           rdf:resource="http://creativecommons.org/licenses/by-sa/3.0/" />
        <dc:description>ГОСТ Р 52290-2004</dc:description>
      </cc:Work>
      <cc:License
         rdf:about="http://creativecommons.org/licenses/by-sa/3.0/">
        <cc:permits
           rdf:resource="http://creativecommons.org/ns#Reproduction" />
        <cc:permits
           rdf:resource="http://creativecommons.org/ns#Distribution" />
        <cc:requires
           rdf:resource="http://creativecommons.org/ns#Notice" />
        <cc:requires
           rdf:resource="http://creativecommons.org/ns#Attribution" />
        <cc:permits
           rdf:resource="http://creativecommons.org/ns#DerivativeWorks" />
        <cc:requires
           rdf:resource="http://creativecommons.org/ns#ShareAlike" />
      </cc:License>
    </rdf:RDF>
  </metadata>
  <g
     inkscape:label="Layer 1"
     inkscape:groupmode="layer"
     id="layer1"
     transform="translate(0,397.63782)">
    <rect
       style="color:#000000;fill:#ffffff;fill-opacity:1;fill-rule:nonzero;stroke:none;stroke-width:3.54299998;marker:none;visibility:visible;display:inline;overflow:visible;enable-background:accumulate"
       id="rect13259"
       width="2300"
       height="1450"
       x="0"
       y="-397.63782"
       ry="45"
       rx="45" />
    <path
       inkscape:connector-curvature="0"
       style="color:#000000;fill:#0d69e1;fill-opacity:1;fill-rule:nonzero;stroke:none;stroke-width:3.54299997999999980;marker:none;visibility:visible;display:inline;overflow:visible;enable-background:accumulate"
       d="m 45,-385.6378 c -18.282,0 -33,14.718 -33,33 l 0,1360 c 0,18.282 14.718,33 33,33 l 111.375,0 0,-1178 -70.375,0 110,-190.5312 110,190.5312 -70.4062,0 0,175.781197 c 19.7479,-10.0732 42.1229,-15.7812 65.8124,-15.7812 l 133.5938,0 c 80.0812,0 145,64.9187 145,145.000003 0,51.8035 -27.6369,99.6607 -72.5,125.5625 l 35.1875,61 -220,0 110,-190.5313 35.2187,60.9688 c 20.3587,-11.7541 32.9063,-33.492 32.9063,-57 0,-36.3404 -29.4721,-65.8125 -65.8125,-65.8125 l -133.5938,0 c -36.3404,0 -65.8124,29.4721 -65.8124,65.8125 l 0,487.90618 L 412.1875,553.331 377,492.3622 l 220,0 L 487,682.89338 451.7812,621.92468 268.5,727.73718 c -20.3587,11.754 -32.9062,33.4919 -32.9062,57 l 0,255.62502 2019.4062,0 c 18.282,0 33,-14.718 33,-33 l 0,-1360 c 0,-18.282 -14.718,-33 -33,-33 l -2210,0 z m 450,78 250,0 c 13.85,0 25,11.15 25,25 l 0,100 c 0,13.85 -11.15,25 -25,25 l -250,0 c -13.85,0 -25,-11.15 -25,-25 l 0,-100 c 0,-13.85 11.15,-25 25,-25 z m 505.7188,23.75 c 13.7275,0.3796 23.9374,5.4867 30.6562,15.375 6.7186,9.8884 10.0847,22.2814 10.0625,37.125 0.022,14.8437 -3.3439,27.2054 -10.0625,37.0938 -6.7188,9.8883 -16.9287,15.0267 -30.6562,15.4062 -13.7277,-0.3795 -23.9689,-5.5179 -30.6876,-15.4062 -6.7187,-9.8884 -10.0535,-22.2501 -10.0312,-37.0938 -0.022,-14.8436 3.3125,-27.2366 10.0312,-37.125 6.7187,-9.8883 16.9599,-14.9954 30.6876,-15.375 z m 90.9687,0 c 9.4315,0.1303 17.0673,2.6824 22.9063,7.6562 5.8387,4.9741 10.2862,11.5887 13.3437,19.8438 l -16.7813,6.25 c -1.8722,-6.1978 -4.4206,-10.677 -7.6562,-13.4375 -3.2357,-2.7603 -7.1799,-4.1145 -11.8125,-4.0625 -7.0052,0.1042 -12.6823,3.3334 -17.0313,9.6875 -4.3489,6.3542 -6.5885,15.2084 -6.7187,26.5625 0.1302,11.3542 2.3698,20.2084 6.7187,26.5625 4.349,6.3542 10.0261,9.5833 17.0313,9.6875 4.6326,0.052 8.5768,-1.3021 11.8125,-4.0625 3.2356,-2.7604 5.784,-7.2396 7.6562,-13.4375 l 16.7813,6.25 c -3.0575,8.2552 -7.505,14.8698 -13.3437,19.8438 -5.839,4.9739 -13.4748,7.526 -22.9063,7.6562 -13.7277,-0.3753 -23.9376,-5.4991 -30.6563,-15.375 -6.7187,-9.8759 -10.0848,-22.2522 -10.0624,-37.125 -0.022,-14.8727 3.3437,-27.249 10.0624,-37.125 6.7187,-9.8758 16.9286,-14.9996 30.6563,-15.375 z m 117.3437,0 3.75,17.5 c -4.6158,0.072 -8.0405,1.2326 -10.3124,3.5312 -2.2721,2.2989 -4.6808,5.3049 -7.1876,8.9688 -2.5072,3.4758 -5.4153,7.1668 -8.7187,11.0938 -3.3035,3.9271 -6.2287,6.0695 -8.7813,6.4062 6.0208,0.762 10.5625,3.1102 13.625,7.0625 3.0625,3.9524 6.0209,8.6876 8.875,14.1875 3.5822,6.5409 7.1465,12.903 10.6876,19.0938 3.5408,6.1907 7.4765,11.0788 11.8124,14.6562 l -21.7812,0 c -1.8267,-3.4375 -4.6913,-8.4375 -8.5938,-15 -3.9025,-6.5625 -7.5305,-12.8125 -10.875,-18.75 -2.1235,-3.968 -4.425,-7.0503 -6.9374,-9.2188 -2.5126,-2.1683 -5.6279,-3.2528 -9.3126,-3.2812 -1.409,0.022 -2.9699,0.094 -4.6874,0.25 -1.7176,0.1563 -2.6567,0.259 -2.8126,0.2812 l 0,45.7188 -17.5,0 0,-100 17.5,0 0,37.3125 c 0.1495,0.1153 0.3072,0.1981 0.4688,0.25 0.1615,0.052 0.4206,0.075 0.7812,0.094 6.0339,-0.1123 11.1941,-3.2307 15.4688,-9.375 4.2746,-6.144 8.9857,-12.4901 14.0938,-19.0312 5.1079,-6.5409 11.9035,-10.447 20.4374,-11.75 z m -349.1874,2.5 17.5,0 22.5,48.75 22.5,-48.75 17.5,0 11.25,100 -18.75,0 -6.25,-73.75 -26.25,58.75 -26.25,-58.75 -6.25,73.75 -18.75,0 11.25,-100 z m 372.6874,0 38.75,0 c 9.4233,0.32 16.6302,3.2382 21.6563,8.7812 5.0259,5.5433 7.5766,11.7918 7.625,18.7188 -0.048,3.8803 -1.3491,7.6824 -3.875,11.4062 -2.5261,3.7241 -5.983,6.5887 -10.4063,8.5938 5.1041,1.875 9.2708,4.6876 12.5,8.4375 3.2291,3.75 4.8958,8.4376 5,14.0625 -0.1861,8.3594 -3.2739,15.3907 -9.2187,21.0938 -5.945,5.7031 -13.6534,8.6718 -23.125,8.9062 l -38.9063,0 0,-100 z m 114.8438,0 20,0 32.5,100 -18.75,0 -6.25,-20 -35,0 -6.25,20 -18.75,0 32.5,-100 z m -346.6562,13.75 c -7.0053,0.1042 -12.6824,3.3334 -17.0313,9.6875 -4.349,6.3542 -6.5886,15.2084 -6.7187,26.5625 0.1301,11.3542 2.3697,20.2084 6.7187,26.5625 4.3489,6.3542 10.026,9.5833 17.0313,9.6875 7.0051,-0.1042 12.6822,-3.3333 17.0312,-9.6875 4.3489,-6.3541 6.5885,-15.2083 6.7188,-26.5625 -0.1303,-11.3541 -2.3699,-20.2083 -6.7188,-26.5625 -4.349,-6.3541 -10.0261,-9.5832 -17.0312,-9.6875 z m 249.3124,1.25 0,25.6875 20,0 c 3.8021,-0.067 6.8229,-1.2499 9.0626,-3.5937 2.2395,-2.3437 3.3853,-5.433 3.4374,-9.25 -0.1302,-4.3638 -1.4323,-7.6094 -3.9062,-9.7188 -2.474,-2.1093 -5.3386,-3.1361 -8.5938,-3.125 l -20,0 z m 107.3438,7.5 -12.5,42.5 25,0 -12.5,-42.5 z m -107.3438,32.5 0,30 21.25,0 c 5,-0.1786 8.75,-1.808 11.25,-4.8438 2.5,-3.0356 3.75,-6.4062 3.75,-10.1562 0,-3.75 -1.25,-7.1518 -3.75,-10.1875 -2.5,-3.0357 -6.25,-4.6339 -11.25,-4.8125 l -21.25,0 z m -755.0312,78.75 250,0 c 13.85,0 25,11.15 25,25 l 0,99.999997 c 0,13.8500004 -11.15,25.0000004 -25,25.0000004 l -250,0 c -13.85,0 -25,-11.15 -25,-25.0000004 l 0,-99.999997 c 0,-13.85 11.15,-25 25,-25 z m 513.4375,23.1562 c 13.7276,0.3797 23.9374,5.518 30.6563,15.4063 6.7186,9.888397 10.0847,22.250197 10.0624,37.093697 0.022,14.8439 -3.3438,27.2055 -10.0624,37.0938 -6.7189,9.8884 -16.9287,15.0269 -30.6563,15.4062 -13.7277,-0.3793 -23.9688,-5.5178 -30.6875,-15.4062 -6.7187,-9.8883 -10.0536,-22.2499 -10.0312,-37.0938 -0.022,-14.8435 3.3125,-27.2053 10.0312,-37.093697 6.7187,-9.8883 16.9598,-15.0266 30.6875,-15.4063 z m 102.9687,0 c 9.0624,0.5732 16.875,2.8648 23.4376,6.875 6.5623,4.0106 10,6.3023 10.3124,6.875 l -11.25,12.499997 c 0,-0.4164 -1.875,-2.083097 -5.625,-4.999997 -3.75,-2.9164 -9.375,-4.5831 -16.875,-5 -7.3437,0.3127 -12.3438,2.1877 -15,5.625 -2.6562,3.437697 -3.9062,6.562697 -3.75,9.374997 0.2344,4.2227 2.8906,7.2598 7.9688,9.0938 5.0781,1.8341 11.1718,3.3804 18.2812,4.6562 8.8541,1.9012 15.8333,5.2866 20.9376,10.1563 5.104,4.8698 7.7082,11.0679 7.8124,18.5937 -0.052,6.771 -3.3855,13.5417 -10,20.3126 -6.6146,6.7708 -16.198,10.4166 -28.75,10.9374 -7.5682,-0.2159 -14.2991,-1.7226 -20.1874,-4.5312 -5.8886,-2.8086 -10.5179,-5.6289 -13.9063,-8.4375 -3.3885,-2.8086 -5.1192,-4.3151 -5.1875,-4.5313 l 12.3125,-10.1874 c 0.03,0.4761 2.3542,2.3854 6.9375,5.7187 4.5833,3.3333 11.2515,5.2427 20.0312,5.7187 7.9427,-0.3384 13.3073,-2.1614 16.0938,-5.4687 2.7864,-3.3073 4.0885,-6.0676 3.9062,-8.2813 0.1885,-1.3016 0.097,-2.9545 -0.25,-4.9374 -0.3472,-1.9831 -2.0739,-3.9887 -5.2187,-6.0313 -3.1449,-2.0425 -8.827,-3.8007 -17.0313,-5.2813 -13.8801,-2.7863 -22.6823,-6.901 -26.4062,-12.3437 -3.724,-5.4426 -5.3386,-10.4946 -4.8438,-15.1563 0.1823,-8.958097 3.5678,-16.354097 10.1563,-22.187397 6.5885,-5.8334 15.2865,-8.854 26.0937,-9.0626 z m 93,0 c 9.4315,0.1305 17.0362,2.6825 22.875,7.6563 5.8388,4.974 10.3176,11.5888 13.375,19.843697 l -16.8124,6.25 c -1.8723,-6.1977 -4.4207,-10.677097 -7.6563,-13.437397 -3.2357,-2.7605 -7.1487,-4.1144 -11.7813,-4.0626 -7.0052,0.1044 -12.6823,3.3334 -17.0312,9.687597 -4.349,6.3541 -6.5886,15.2085 -6.7188,26.5624 0.1302,11.3542 2.3698,20.2084 6.7188,26.5626 4.3489,6.354 10.026,9.5834 17.0312,9.6874 4.6326,0.052 8.5456,-1.3021 11.7813,-4.0624 3.2356,-2.7605 5.784,-7.2395 7.6563,-13.4376 l 16.8124,6.25 c -3.0574,8.2553 -7.5362,14.8699 -13.375,19.8438 -5.8388,4.9739 -13.4435,7.5261 -22.875,7.6562 -13.7276,-0.3752 -23.9688,-5.4989 -30.6874,-15.375 -6.7188,-9.8757 -10.0536,-22.2521 -10.0313,-37.125 -0.022,-14.8725 3.3125,-27.2489 10.0313,-37.124997 6.7186,-9.8757 16.9598,-14.9994 30.6874,-15.375 z m 93.0938,0 c 13.7276,0.3797 23.9374,5.518 30.6562,15.4063 6.7187,9.888397 10.0848,22.250197 10.0626,37.093697 0.022,14.8439 -3.3439,27.2055 -10.0626,37.0938 -6.7188,9.8884 -16.9286,15.0269 -30.6562,15.4062 -13.7277,-0.3793 -23.9688,-5.5178 -30.6875,-15.4062 -6.7187,-9.8883 -10.0536,-22.2499 -10.0313,-37.0938 -0.022,-14.8435 3.3126,-27.2053 10.0313,-37.093697 6.7187,-9.8883 16.9598,-15.0266 30.6875,-15.4063 z m -444.4375,2.5 20,0 27.5,46.249997 27.5,-46.249997 20,0 0,99.999997 -16.25,0 -1.25,-72.5 -30,52.5 -30,-52.5 0,72.5 -17.5,0 0,-99.999997 z m 504.9063,0 18.75,0 13.9374,69.812597 1.0626,0 15,-69.812597 17.5,0 16.25,70.874997 13.75,-70.874997 18.75,0 -21.25,99.999997 -20,0 -16.25,-65.9062 -16.25,65.9062 -20,0 -21.25,-99.999997 z m -349.5313,13.75 c -7.0052,0.1044 -12.6823,3.3334 -17.0313,9.687597 -4.3488,6.3541 -6.5885,15.2085 -6.7187,26.5624 0.1302,11.3542 2.3699,20.2084 6.7187,26.5626 4.349,6.354 10.0261,9.5834 17.0313,9.6874 7.0051,-0.104 12.6822,-3.3334 17.0313,-9.6874 4.3488,-6.3542 6.5884,-15.2084 6.7187,-26.5626 -0.1303,-11.3539 -2.3699,-20.2083 -6.7187,-26.5624 -4.3491,-6.354197 -10.0262,-9.583197 -17.0313,-9.687597 z m 289.0625,0 c -7.0052,0.1044 -12.6824,3.3334 -17.0312,9.687597 -4.349,6.3541 -6.5886,15.2085 -6.7188,26.5624 0.1302,11.3542 2.3698,20.2084 6.7188,26.5626 4.3488,6.354 10.026,9.5834 17.0312,9.6874 7.0051,-0.104 12.6822,-3.3334 17.0312,-9.6874 4.3489,-6.3542 6.5885,-15.2084 6.7188,-26.5626 -0.1303,-11.3539 -2.3699,-20.2083 -6.7188,-26.5624 -4.349,-6.354197 -10.0261,-9.583197 -17.0312,-9.687597 z M 645,62.362197 l 300,0 c 13.85,0 25,11.15 25,25 l 0,100.000003 c 0,13.85 -11.15,25 -25,25 l -300,0 c -13.85,0 -25,-11.15 -25,-25 l 0,-100.000003 c 0,-13.85 11.15,-25 25,-25 z m 411.25,25 33.75,0 c 12.3436,0.573 21.0937,4.4272 26.25,11.5625 5.1562,7.135503 7.6562,14.114703 7.5,20.937503 -0.1563,6.823 -3.2814,13.8022 -9.375,20.9375 -6.0938,7.1354 -14.2188,10.9896 -24.375,11.5625 l -16.25,0 0,35 -17.5,0 0,-100.000003 z m 79.8438,0 18.75,0 23.75,52.500003 20,-52.500003 18.75,0 -32.5,83.750003 c -2.0379,4.8024 -5.3663,8.7304 -9.9688,11.8125 -4.6026,3.0821 -9.1908,4.6763 -13.7812,4.7813 -2.474,0 -4.4011,-0.059 -5.7813,-0.2188 -1.3802,-0.16 -2.3699,-0.3848 -2.9687,-0.6562 l -3.75,-15.7188 c 0.1041,0.052 1.1458,0.2604 3.125,0.625 1.9791,0.3646 4.2708,0.5729 6.875,0.625 3.2246,-0.1823 5.9912,-1.38 8.3124,-3.5938 2.3212,-2.2134 3.5472,-4.3489 3.6563,-6.4062 -0.1795,-1.2988 -1.9645,-5.7441 -5.375,-13.3125 -3.4106,-7.5683 -7.3564,-16.0919 -11.8437,-25.5937 -4.4876,-9.502 -8.4646,-17.8066 -11.875,-24.906303 -3.4106,-7.0995 -5.1957,-10.8261 -5.375,-11.1875 z m 107.3437,0 58.75,0 0,7.5 0,77.500003 11.25,0 0,32.5 -15,0 0,-17.5 -62.5,0 0,17.5 -15,0 0,-32.5 11.25,0 c 1.7129,-4.3529 3.4433,-10.4657 5.1563,-18.3438 1.7129,-7.8778 3.155,-16.3949 4.3124,-25.5624 1.1575,-9.1677 1.735,-17.8718 1.7813,-26.0938 l 0,-15.000003 z m 80.875,0 17.5,0 0,40.000003 37.5,0 0,-40.000003 17.5,0 0,100.000003 -17.5,0 0,-45 -37.5,0 0,45 -17.5,0 0,-100.000003 z m 127.2187,0 36.25,0 0,100.000003 -17.5,0 0,-40 -11.25,0 c -5.4122,0.1153 -9.3201,1.6188 -11.7187,4.5 -2.3987,2.8813 -4.5631,6.4551 -6.5,10.7188 -2.2673,4.4166 -4.385,8.5642 -6.375,12.4687 -1.99,3.9046 -4.2168,8.0131 -6.6563,12.3125 l -21.25,0 c 1.2574,-0.7869 3.1351,-3.2004 5.5938,-7.25 2.4587,-4.0495 4.9175,-8.484 7.4062,-13.3125 2.4889,-4.8285 4.4024,-8.8138 5.75,-11.9375 1.4763,-3.2308 3.7051,-6.2387 6.6563,-9.0312 2.9511,-2.7927 5.7224,-4.5427 8.3437,-5.25 -6.3541,-1.306 -11.4583,-4.2031 -15.3124,-8.6563 -3.8542,-4.453 -5.8334,-10.1317 -5.9376,-17.0625 -0.2083,-5.5207 2.0834,-11.3541 6.875,-17.500003 4.7917,-6.1457 13.3334,-9.4791 25.625,-10 z M 1073.75,102.3622 l 0,35 11.25,0 c 5.2083,0.052 9.7916,-1.302 13.75,-4.0625 3.9583,-2.7603 6.0416,-7.2395 6.25,-13.4375 -0.2084,-6.1978 -2.2917,-10.677 -6.25,-13.4375 -3.9584,-2.7603 -8.5417,-4.1145 -13.75,-4.0625 l -11.25,0 z m 187.1875,0 c -0.067,12.2917 -1.1786,24.8959 -3.3437,37.8125 -2.1653,12.9167 -4.9778,23.6459 -8.4376,32.1875 l 35.5313,0 0,-70 -23.75,0 z m 195.5937,0 c -5.2083,-0.045 -9.7917,1.1028 -13.75,3.4688 -3.9583,2.3659 -6.0417,6.2188 -6.25,11.5312 0.1563,5.3125 2.0313,9.1654 5.625,11.5312 3.5937,2.3662 7.9688,3.5135 13.125,3.4688 l 15,0 0,-30 -13.75,0 z m 63.3126,132.5 c 9.4314,0.1303 17.0673,2.6825 22.9062,7.6562 5.8388,4.9741 10.2863,11.5887 13.3438,19.8438 l -16.7813,6.25 c -1.8723,-6.1978 -4.4207,-10.677 -7.6563,-13.4375 -3.2357,-2.7603 -7.1799,-4.1145 -11.8124,-4.0625 -7.0053,0.1042 -12.6824,3.3334 -17.0313,9.6875 -4.349,6.3542 -6.5886,15.2084 -6.7187,26.5625 0.1301,11.3542 2.3697,20.2084 6.7187,26.5625 4.3489,6.3542 10.026,9.5833 17.0313,9.6875 4.6325,0.052 8.5767,-1.3021 11.8124,-4.0625 3.2356,-2.7604 5.784,-7.2396 7.6563,-13.4375 l 16.7813,6.25 c -3.0575,8.2552 -7.505,14.8697 -13.3438,19.8438 -5.8389,4.9737 -13.4748,7.526 -22.9062,7.6562 -13.7277,-0.3753 -23.9376,-5.4991 -30.6563,-15.375 -6.7187,-9.8759 -10.0848,-22.2522 -10.0625,-37.125 -0.022,-14.8727 3.3438,-27.249 10.0625,-37.125 6.7187,-9.8758 16.9286,-14.9996 30.6563,-15.375 z m 117.3437,0 3.75,17.5 c -4.6159,0.072 -8.0406,1.2638 -10.3125,3.5625 -2.2721,2.2988 -4.6808,5.2736 -7.1875,8.9375 -2.5072,3.4758 -5.3841,7.1667 -8.6875,11.0938 -3.3035,3.9268 -6.26,6.0695 -8.8125,6.4062 6.0208,0.762 10.5624,3.1102 13.625,7.0625 3.0624,3.9524 6.0208,8.6876 8.875,14.1875 3.5822,6.5409 7.1465,12.9027 10.6875,19.0938 3.5408,6.1907 7.4766,11.0788 11.8125,14.6562 l -21.7813,0 c -1.8267,-3.4375 -4.6913,-8.4375 -8.5937,-15 -3.9026,-6.5625 -7.5306,-12.8125 -10.875,-18.75 -2.1235,-3.968 -4.425,-7.0502 -6.9375,-9.2188 -2.5126,-2.1682 -5.6278,-3.2528 -9.3125,-3.2812 -1.4091,0.022 -2.97,0.1253 -4.6875,0.2812 -1.7176,0.1566 -2.6567,0.2281 -2.8125,0.25 l 0,45.7188 -17.5,0 0,-100 17.5,0 0,37.3125 c 0.1495,0.1153 0.3071,0.1981 0.4687,0.25 0.1616,0.052 0.4206,0.1061 0.7813,0.125 6.0339,-0.1124 11.1941,-3.262 15.4687,-9.4063 4.2747,-6.1439 8.9857,-12.4589 14.0938,-19 5.1079,-6.5407 11.9035,-10.4782 20.4375,-11.7812 z m -580.9375,2.5 38.75,0 c 9.4233,0.32 16.6614,3.2382 21.6875,8.7812 5.0259,5.5436 7.5453,11.7918 7.5937,18.7188 -0.048,3.8803 -1.3178,7.6825 -3.8437,11.4062 -2.5261,3.7241 -6.0142,6.5887 -10.4375,8.5938 5.1041,1.875 9.2708,4.6876 12.5,8.4375 3.2291,3.75 4.8957,8.4376 5,14.0625 -0.1861,8.3594 -3.2427,15.3906 -9.1875,21.0938 -5.945,5.7028 -13.6534,8.6718 -23.125,8.9062 l -38.9375,0 0,-100 z m 86.0938,0 17.5,0 0,68.75 36.25,-68.75 18.75,0 0,100 -17.5,0 0,-68.75 -36.25,68.75 -18.75,0 0,-100 z m 86,0 72.5,0 0,15 -27.5,0 0,85 -17.5,0 0,-85 -27.5,0 0,-15 z m 85.8437,0 62.5,0 0,16.25 -45,0 0,23.75 36.25,0 0,15 -36.25,0 0,30 46.25,0 0,15 -63.75,0 0,-100 z m 82.2813,0 63.75,0 0,15 -46.25,0 0,25 21.25,0 c 12.2915,0.4688 20.8332,3.9063 25.625,10.3125 4.7915,6.4063 7.0832,12.9688 6.875,19.6875 0.104,6.7187 -2.6043,13.2813 -8.125,19.6875 -5.5209,6.4062 -14.4793,9.8438 -26.875,10.3125 l -36.25,0 0,-100 z m -322.7188,15 0,25.7188 20,0 c 3.802,-0.067 6.8229,-1.2812 9.0625,-3.625 2.2395,-2.3437 3.3854,-5.433 3.4375,-9.25 -0.1303,-4.3641 -1.4324,-7.5779 -3.9062,-9.6876 -2.4741,-2.1091 -5.3387,-3.1673 -8.5938,-3.1562 l -20,0 z m 0,40 0,30 21.25,0 c 4.9999,-0.1786 8.7499,-1.7768 11.25,-4.8125 2.4999,-3.0357 3.7499,-6.4375 3.75,-10.1875 -10e-5,-3.75 -1.2501,-7.1518 -3.75,-10.1875 -2.5001,-3.0357 -6.2501,-4.6339 -11.25,-4.8125 l -21.25,0 z m 340.2188,0 0,30 17.5,0 c 5.703,0 10.2343,-1.25 13.5937,-3.75 3.3593,-2.5 5.0781,-6.25 5.1563,-11.25 -0.078,-4.9999 -1.797,-8.75 -5.1563,-11.25 -3.3594,-2.4999 -7.8907,-3.75 -13.5937,-3.75 l -17.5,0 z m -768.9688,175 300,0 c 13.85,0 25,11.15 25,25 l 0,100 c 0,13.84998 -11.15,24.99998 -25,24.99998 l -300,0 c -13.85,0 -25,-11.15 -25,-24.99998 l 0,-100 c 0,-13.85 11.15,-25 25,-25 z m 447.5,22.5 c 9.4315,0.1303 17.0673,2.6825 22.9062,7.6562 5.8388,4.9741 10.2863,11.5887 13.3438,19.8438 l -16.7812,6.25 c -1.8723,-6.1978 -4.4207,-10.677 -7.6563,-13.4375 -3.2357,-2.7603 -7.1799,-4.1145 -11.8125,-4.0625 -7.0052,0.1042 -12.6824,3.3334 -17.0312,9.6875 -4.349,6.3542 -6.5886,15.2084 -6.7188,26.5625 0.1302,11.3542 2.3698,20.2084 6.7188,26.5625 4.3488,6.3542 10.026,9.5833 17.0312,9.6875 4.6326,0.052 8.5768,-1.3021 11.8125,-4.0625 3.2356,-2.7604 5.784,-7.2396 7.6563,-13.4375 l 16.7812,6.25 c -3.0575,8.2552 -7.505,14.8697 -13.3438,19.8438 -5.8389,4.9737 -13.4747,7.526 -22.9062,7.6562 -13.7277,-0.3753 -23.9376,-5.4991 -30.6562,-15.375 -6.7188,-9.8759 -10.0849,-22.2522 -10.0626,-37.125 -0.022,-14.8727 3.3438,-27.249 10.0626,-37.125 6.7186,-9.8758 16.9285,-14.9996 30.6562,-15.375 z m 196.9688,0 c 13.7274,0.3796 23.9374,5.5181 30.6562,15.4062 6.7186,9.8887 10.0847,22.2502 10.0625,37.0938 0.022,14.8437 -3.3439,27.2051 -10.0625,37.0938 -6.7188,9.8883 -16.9288,15.0267 -30.6562,15.4062 -13.7277,-0.3795 -23.9689,-5.5179 -30.6876,-15.4062 -6.7187,-9.8887 -10.0535,-22.2501 -10.0312,-37.0938 -0.022,-14.8436 3.3125,-27.2051 10.0312,-37.0938 6.7187,-9.8881 16.9599,-15.0266 30.6876,-15.4062 z m 359.0312,0 c 9.4315,0.1303 17.0673,2.6825 22.9062,7.6562 5.8388,4.9741 10.2863,11.5887 13.3438,19.8438 l -16.7812,6.25 c -1.8723,-6.1978 -4.4207,-10.677 -7.6563,-13.4375 -3.2357,-2.7603 -7.1799,-4.1145 -11.8125,-4.0625 -7.0052,0.1042 -12.6824,3.3334 -17.0312,9.6875 -4.349,6.3542 -6.5886,15.2084 -6.7188,26.5625 0.1302,11.3542 2.3698,20.2084 6.7188,26.5625 4.3488,6.3542 10.026,9.5833 17.0312,9.6875 4.6326,0.052 8.5768,-1.3021 11.8125,-4.0625 3.2356,-2.7604 5.784,-7.2396 7.6563,-13.4375 l 16.7812,6.25 c -3.0575,8.2552 -7.505,14.8697 -13.3438,19.8438 -5.8389,4.9737 -13.4747,7.526 -22.9062,7.6562 -13.7277,-0.3753 -23.9376,-5.4991 -30.6562,-15.375 -6.7188,-9.8759 -10.0849,-22.2522 -10.0626,-37.125 -0.022,-14.8727 3.3438,-27.249 10.0626,-37.125 6.7186,-9.8758 16.9285,-14.9996 30.6562,-15.375 z m 117.3438,0 3.75,17.5 c -4.6159,0.072 -8.0406,1.2638 -10.3126,3.5625 -2.2719,2.2988 -4.6808,5.2736 -7.1874,8.9375 -2.5073,3.4758 -5.4154,7.1667 -8.7188,11.0938 -3.3035,3.9267 -6.2287,6.0695 -8.7812,6.4062 6.0207,0.762 10.5624,3.1102 13.625,7.0625 3.0624,3.9524 6.0208,8.6876 8.875,14.1875 3.5821,6.5409 7.1464,12.9026 10.6874,19.0938 3.5409,6.1907 7.4766,11.0788 11.8126,14.6562 l -21.7813,0 c -1.8267,-3.4375 -4.6914,-8.4375 -8.5937,-15 -3.9026,-6.5625 -7.5307,-12.8125 -10.875,-18.75 -2.1236,-3.968 -4.4251,-7.0502 -6.9376,-9.2188 -2.5125,-2.1682 -5.6278,-3.2528 -9.3124,-3.2812 -1.4091,0.022 -2.97,0.1254 -4.6876,0.2812 -1.7175,0.1567 -2.6566,0.2282 -2.8124,0.25 l 0,45.7188 -17.5,0 0,-100 17.5,0 0,37.3125 c 0.1494,0.1153 0.3071,0.1981 0.4687,0.25 0.1615,0.052 0.4206,0.1061 0.7813,0.125 6.0338,-0.1124 11.194,-3.262 15.4687,-9.4063 4.2746,-6.1439 8.9544,-12.4589 14.0625,-19 5.1079,-6.5407 11.9348,-10.4782 20.4688,-11.7812 z m -617.25,2.5 17.5,0 22.5,48.75 22.5,-48.75 17.5,0 11.25,100 -18.75,0 -6.25,-73.75 -26.25,58.75 -26.25,-58.75 -6.25,73.75 -18.75,0 11.25,-100 z m 209.3437,0 62.5,0 0,100 -17.5,0 0,-85 -27.5,0 c 0.01,0.3859 0.01,3.7833 -0.031,10.1875 -0.039,6.4044 -0.1663,13.4877 -0.3437,21.2813 -0.1775,7.7932 -0.4661,13.9788 -0.875,18.5312 -1.541,11.4815 -4.9933,19.9109 -10.3437,25.2812 -5.3506,5.3705 -10.4838,8.7998 -15.4376,10.2813 -4.9536,1.4815 -7.6182,2.1227 -7.9687,1.9375 l -2.8437,-16.7812 c 0.1928,0.03 1.6718,-0.5154 4.4374,-1.6563 2.7657,-1.1409 5.664,-3.0503 8.6876,-5.7187 3.0235,-2.6688 5.002,-6.2902 5.9687,-10.8438 0.4089,-2.7777 0.6975,-8.0657 0.875,-15.8438 0.1774,-7.7772 0.3051,-16.3681 0.3437,-25.8124 0.039,-9.4448 0.039,-18.066 0.031,-25.8438 z m 81.0625,0 62.5,0 0,16.25 -45,0 0,23.75 36.25,0 0,15 -36.25,0 0,30 46.25,0 0,15 -63.75,0 0,-100 z m 82.2812,0 17.5,0 0,40 37.5,0 0,-40 17.5,0 0,100 -17.5,0 0,-45 -37.5,0 0,45 -17.5,0 0,-100 z m -231.8124,13.75 c -7.0053,0.1042 -12.6824,3.3334 -17.0313,9.6875 -4.349,6.3542 -6.5886,15.2084 -6.7187,26.5625 0.1301,11.3542 2.3697,20.2084 6.7187,26.5625 4.3489,6.3542 10.026,9.5833 17.0313,9.6875 7.0051,-0.1042 12.6822,-3.3333 17.0312,-9.6875 4.3489,-6.3541 6.5885,-15.2083 6.7188,-26.5625 -0.1303,-11.3541 -2.3699,-20.2083 -6.7188,-26.5625 -4.349,-6.3541 -10.0261,-9.5832 -17.0312,-9.6875 z m 158.25,133.74998 c 9.4314,0.1303 17.0673,2.6825 22.9062,7.6562 5.8388,4.9741 10.2863,11.5887 13.3438,19.8438 l -16.8126,6.25 c -1.8722,-6.1978 -4.4206,-10.677 -7.6562,-13.4375 -3.2357,-2.7603 -7.1487,-4.1145 -11.7812,-4.0625 -7.0053,0.1042 -12.6824,3.3334 -17.0313,9.6875 -4.349,6.3542 -6.5886,15.2084 -6.7187,26.5625 0.1301,11.3542 2.3697,20.2084 6.7187,26.5625 4.3489,6.3542 10.026,9.5833 17.0313,9.6875 4.6325,0.052 8.5455,-1.3021 11.7812,-4.0625 3.2356,-2.7604 5.784,-7.2396 7.6562,-13.4375 l 16.8126,6.25 c -3.0575,8.2552 -7.505,14.8697 -13.3438,19.8438 -5.8389,4.9737 -13.4748,7.526 -22.9062,7.6562 -13.7277,-0.3753 -23.9689,-5.4991 -30.6876,-15.375 -6.7187,-9.8759 -10.0535,-22.2522 -10.0312,-37.125 -0.022,-14.8727 3.3125,-27.249 10.0312,-37.125 6.7187,-9.8758 16.9599,-14.9996 30.6876,-15.375 z m 117.3437,0 3.75,17.5 c -4.6159,0.072 -8.0718,1.2638 -10.3437,3.5625 -2.2721,2.2988 -4.6496,5.2736 -7.1563,8.9375 -2.5072,3.4758 -5.4154,7.1667 -8.7187,11.0938 -3.3036,3.9266 -6.2288,6.0695 -8.7813,6.4062 6.0208,0.762 10.5624,3.1102 13.625,7.0625 3.0624,3.9524 6.0208,8.6876 8.875,14.1875 3.5822,6.5409 7.1465,12.9025 10.6875,19.0938 3.5408,6.1907 7.4766,11.0788 11.8125,14.6562 l -21.7813,0 c -1.8267,-3.4375 -4.6913,-8.4375 -8.5937,-15 -3.9026,-6.5625 -7.5306,-12.8125 -10.875,-18.75 -2.1235,-3.968 -4.4563,-7.0502 -6.9687,-9.2188 -2.5127,-2.1682 -5.5966,-3.2528 -9.2813,-3.2812 -1.4091,0.022 -2.97,0.1255 -4.6875,0.2812 -1.7176,0.1568 -2.6567,0.2283 -2.8125,0.25 l 0,45.7188 -17.5,0 0,-100 17.5,0 0,37.3125 c 0.1495,0.1153 0.3071,0.1981 0.4687,0.25 0.1616,0.052 0.4206,0.1061 0.7813,0.125 6.0339,-0.1124 11.1941,-3.262 15.4687,-9.4063 4.2747,-6.1439 8.9545,-12.4589 14.0626,-19 5.1078,-6.5407 11.9347,-10.4782 20.4687,-11.7812 z m -508.8125,2.5 63.75,0 0,15 -46.25,0 0,25 21.25,0 c 12.2916,0.4688 20.8333,3.9063 25.625,10.3125 4.7916,6.4063 7.0832,12.9688 6.875,19.6875 0.1041,6.7187 -2.6043,13.2813 -8.125,19.6875 -5.5209,6.4062 -14.4793,9.8438 -26.875,10.3125 l -36.25,0 0,-100 z m 87.1562,0 33.75,0 c 12.3437,0.573 21.0937,4.4272 26.25,11.5625 5.1562,7.1355 7.6562,14.1147 7.5,20.9375 -0.1563,6.823 -3.2813,13.8022 -9.375,20.9375 -6.0937,7.1354 -14.2188,10.9896 -24.375,11.5625 l -16.25,0 0,35 -17.5,0 0,-100 z m 122.3438,0 36.25,0 0,100 -17.5,0 0,-40 -11.25,0 c -5.4124,0.1153 -9.3202,1.6188 -11.7188,4.5 -2.3986,2.8813 -4.563,6.4551 -6.5,10.7188 -2.2673,4.4166 -4.4162,8.5642 -6.4062,12.4687 -1.99,3.9046 -4.1856,8.0131 -6.625,12.3125 l -21.25,0 c 1.2574,-0.7869 3.1038,-3.2004 5.5625,-7.25 2.4587,-4.0495 4.9487,-8.484 7.4375,-13.3125 2.4888,-4.8285 4.4024,-8.8138 5.75,-11.9375 1.4762,-3.2308 3.6738,-6.2387 6.625,-9.0312 2.9511,-2.7927 5.7535,-4.5427 8.375,-5.25 -6.3542,-1.3062 -11.4584,-4.2031 -15.3125,-8.6563 -3.8542,-4.453 -5.8334,-10.1317 -5.9375,-17.0625 -0.2084,-5.5207 2.0833,-11.3541 6.875,-17.5 4.7916,-6.1457 13.3333,-9.4791 25.625,-10 z m 54.7188,0 17.5,0 0,40 37.5,0 0,-40 17.5,0 0,100 -17.5,0 0,-45 -37.5,0 0,45 -17.5,0 0,-100 z m -159.5626,15 0,35 11.25,0 c 5.2083,0.052 9.7917,-1.302 13.75,-4.0625 3.9583,-2.7603 6.0417,-7.2395 6.25,-13.4375 -0.2083,-6.1978 -2.2917,-10.677 -6.25,-13.4375 -3.9583,-2.7603 -8.5417,-4.1145 -13.75,-4.0625 l -11.25,0 z m 109.8438,0 c -5.2084,-0.045 -9.7917,1.1028 -13.75,3.4688 -3.9584,2.3658 -6.0417,6.2188 -6.25,11.5312 0.1562,5.3125 2.0312,9.1654 5.625,11.5312 3.5937,2.3662 7.9687,3.5135 13.125,3.4688 l 15,0 0,-30 -13.75,0 z m -197,40 0,30 17.5,0 c 5.703,0 10.2343,-1.25 13.5938,-3.75 3.3592,-2.5 5.078,-6.25 5.1562,-11.25 -0.078,-4.9999 -1.797,-8.75 -5.1562,-11.25 -3.3595,-2.4999 -7.8908,-3.75 -13.5938,-3.75 l -17.5,0 z m -32.0938,184.0625 c 6.3086,1e-4 11.7617,1.6563 16.3126,4.9375 4.5507,3.2813 6.9101,8.1876 7.125,14.75 -0.1621,4.3403 -1.2999,7.7532 -3.4063,10.2188 -2.1065,2.4652 -4.2061,4.1806 -6.3125,5.1874 -2.1065,1.0074 -3.2443,1.5036 -3.4062,1.4688 0.1851,-0.012 1.4987,0.6297 3.9062,1.9375 2.4074,1.3079 4.8113,3.3588 7.2188,6.125 2.4073,2.7662 3.6896,6.3241 3.875,10.6875 0.1171,5 -1.7579,9.7813 -5.625,14.3125 -3.8673,4.5313 -10.4298,6.9375 -19.6876,7.25 -9.2578,-0.3125 -15.8203,-2.7187 -19.6874,-7.25 -3.8672,-4.5312 -5.7422,-9.3125 -5.625,-14.3125 0.1851,-4.3634 1.4988,-7.9213 3.9062,-10.6875 2.4074,-2.7662 4.8113,-4.8171 7.2188,-6.125 2.4073,-1.3078 3.6896,-1.949 3.875,-1.9375 -0.1621,0.035 -1.2998,-0.4614 -3.4063,-1.4688 -2.1065,-1.0068 -4.206,-2.7222 -6.3125,-5.1874 -2.1065,-2.4656 -3.2442,-5.8785 -3.4062,-10.2188 0.2148,-6.5624 2.6054,-11.4687 7.1562,-14.75 4.5508,-3.2812 9.9726,-4.9374 16.2812,-4.9375 z m 67.5,0 c 7.6172,0.2707 13.7109,4.0006 18.2813,11.2187 4.5703,7.2183 6.914,16.3009 7.0313,27.2188 -0.1173,11.4453 -2.461,20.6645 -7.0313,27.6562 -4.5704,6.9923 -10.6641,10.586 -18.2813,10.7813 -7.6172,-0.1953 -13.7109,-3.789 -18.2812,-10.7813 -4.5703,-6.9917 -6.9141,-16.2109 -7.0312,-27.6562 0.1171,-11.4453 2.4609,-20.6645 7.0312,-27.6562 4.5703,-6.9923 10.664,-10.5859 18.2812,-10.7813 z m 67.5,0 c 7.6172,0.2707 13.7109,4.0006 18.2813,11.2187 4.5703,7.2183 6.914,16.3009 7.0313,27.2188 -0.1173,11.4453 -2.461,20.6645 -7.0313,27.6562 -4.5704,6.9923 -10.6641,10.586 -18.2813,10.7813 -7.6172,-0.1953 -13.7109,-3.789 -18.2812,-10.7813 -4.5703,-6.9917 -6.9141,-16.2109 -7.0312,-27.6562 0.1171,-11.4453 2.4609,-20.6645 7.0312,-27.6562 4.5703,-6.9923 10.664,-10.5859 18.2812,-10.7813 z m -136.0624,10.7187 c -2.4268,0.1241 -4.4786,0.818 -6.1876,2.0313 -1.9531,1.3868 -2.9843,3.6926 -3.0624,6.9375 0.4296,2.9297 2.1484,5.5235 5.1562,7.75 3.0078,2.2266 4.7265,3.3829 5.1562,3.5 0.4297,-0.1171 2.1485,-1.2734 5.1563,-3.5 3.0078,-2.2265 4.7265,-4.8203 5.1563,-7.75 -0.078,-3.2449 -1.0782,-5.5507 -3.0313,-6.9375 -1.9532,-1.3867 -4.3907,-2.0675 -7.2813,-2.0313 -0.3613,0 -0.7158,-0.017 -1.0624,0 z m 67.875,0.9376 c -3.3561,0.2026 -6.0638,2.3154 -8.125,6.3437 -2.1987,4.2969 -3.3193,11.1183 -3.375,20.4375 0.056,9.3192 1.1763,16.1406 3.375,20.4375 2.1986,4.2969 5.1405,6.3999 8.8124,6.3437 3.6719,0.056 6.6138,-2.0468 8.8126,-6.3437 2.1986,-4.2969 3.3191,-11.1183 3.375,-20.4375 -0.056,-9.3192 -1.1764,-16.1406 -3.375,-20.4375 -2.1988,-4.2968 -5.1407,-6.3999 -8.8126,-6.3437 -0.2294,0 -0.4637,-0.014 -0.6874,0 z m 67.5,0 c -3.3561,0.2026 -6.0638,2.3154 -8.125,6.3437 -2.1987,4.2969 -3.3193,11.1183 -3.375,20.4375 0.056,9.3192 1.1763,16.1406 3.375,20.4375 2.1986,4.2969 5.1405,6.3999 8.8124,6.3437 3.6719,0.056 6.5826,-2.0468 8.7813,-6.3437 2.1986,-4.2969 3.3504,-11.1183 3.4063,-20.4375 -0.056,-9.3192 -1.2077,-16.1406 -3.4063,-20.4375 -2.1987,-4.2968 -5.1094,-6.3999 -8.7813,-6.3437 -0.2294,0 -0.4637,-0.014 -0.6874,0 z m 54.4062,11.7812 11.25,0 13.125,26.25 13.125,-26.25 11.25,0 4.6875,52.5 -11.25,0 -2.8125,-36.5625 -15,30 -15,-30 -2.8125,36.5625 -11.25,0 4.6875,-52.5 z m -188.7188,18.75 c -0.1504,0.052 -1.2002,0.7813 -3.1562,2.1875 -1.956,1.4063 -3.919,3.1771 -5.875,5.3125 -1.956,2.1354 -3.0058,4.3229 -3.1562,6.5625 0.1562,3.2617 1.4999,5.6523 4,7.1563 2.4999,1.5036 5.2187,2.2382 8.1874,2.2187 2.9688,0.019 5.7188,-0.7151 8.2188,-2.2187 2.5,-1.504 3.8125,-3.8946 3.9688,-7.1563 -0.1506,-2.5347 -1.2003,-4.8511 -3.1563,-6.9687 -1.9561,-2.1182 -3.919,-3.8406 -5.875,-5.125 -1.9561,-1.2848 -3.0058,-1.934 -3.1563,-1.9688 z"
       id="rect13261" />
    <path
       inkscape:connector-curvature="0"
       style="color:#000000;fill:#0d69e1;fill-opacity:1;fill-rule:nonzero;stroke:none;stroke-width:3.54299998;marker:none;visibility:visible;display:inline;overflow:visible;enable-background:accumulate"
       d="m 495,-297.6378 c -8.31,0 -15,6.69 -15,15 l 0,100 c 0,8.31 6.69,15 15,15 l 250,0 c 8.31,0 15,-6.69 15,-15 l 0,-100 c 0,-8.31 -6.69,-15 -15,-15 l -250,0 z m 73.2188,20.875 15.4374,0 19.8438,43.0312 19.8438,-43.0312 15.4374,0 9.9376,88.25 -16.5313,0 -5.5313,-65.0938 -23.1562,51.8438 -23.1562,-51.8438 -5.5313,65.0938 -16.5313,0 9.9376,-88.25 z m 100.25,0 13.25,0 0,88.25 -15.4376,0 0,-68.375 -11.8124,7.4062 -5.2188,-6.7812 19.2188,-20.5 z"
       id="rect13299" />
    <path
       inkscape:connector-curvature="0"
       style="color:#000000;fill:#00a500;fill-opacity:1;fill-rule:nonzero;stroke:none;stroke-width:3.54299998;marker:none;visibility:visible;display:inline;overflow:visible;enable-background:accumulate"
       d="m 495,-137.6378 c -8.31,0 -15,6.69 -15,15 l 0,99.999997 c 0,8.31 6.69,15.0000004 15,15.0000004 l 250,0 c 8.31,0 15,-6.6900004 15,-15.0000004 l 0,-99.999997 c 0,-8.31 -6.69,-15 -15,-15 l -250,0 z m 125.2188,18.5312 c 5.81,0.076 11.1433,1.8761 15.9687,5.4376 4.8253,3.5616 7.3608,8.4208 7.6563,14.562397 -0.1839,6.1582 -2.0075,11.2042 -5.5,15.1563 -3.4927,3.9523 -7.5295,6.2629 -12.125,6.9063 2.0006,0.354 4.6629,1.37 8,3.0312 3.3369,1.6613 6.3694,4.0557 9.0937,7.1875 2.7242,3.1318 4.15,7.078 4.3125,11.8437 -0.043,6.9854 -2.8374,13.399 -8.375,19.2813 -5.5377,5.8824 -13.5419,9.0074 -24.0625,9.375 -4.7991,-0.1576 -9.6765,-0.7721 -14.5937,-1.875 -4.9173,-1.1029 -7.5502,-1.7487 -7.9376,-1.9063 l -1.9062,-15.4374 c 2.8164,1.789 6.2899,3.0673 10.4062,3.8124 4.1164,0.7452 8.0507,1.1168 11.8126,1.0938 5.1207,0.03 9.501,-1.1464 13.125,-3.5 3.6239,-2.3536 5.5448,-6.065 5.7812,-11.1562 0.2461,-2.1928 -0.5451,-4.8157 -2.4062,-7.875 -1.8613,-3.0594 -6.2647,-4.7605 -13.1876,-5.0626 -1.3557,-0.023 -2.6952,0.042 -4.0312,0.1563 -1.336,0.1149 -2.5682,0.409 -3.6875,0.9375 l 0,-12.125 c 5.6525,-1.2408 10.34,-3.454 14.0625,-6.625 3.7224,-3.1709 5.6433,-6.4595 5.7812,-9.9062 -0.1149,-2.8263 -1.2546,-5.169997 -3.4374,-7.031297 -2.183,-1.8611 -4.7216,-2.8372 -7.5938,-2.9063 -4.2805,-0.02 -7.8564,0.58 -10.7188,1.7813 -2.8624,1.2015 -5.7925,3.1224 -8.8124,5.781297 L 592,-111.2316 c 3.0364,-1.7757 7.3373,-3.51 12.875,-5.1874 5.5377,-1.6774 10.6529,-2.566 15.3438,-2.6876 z m 67.5,1.25 c 8.9613,0.3185 16.1543,4.7269 21.5312,13.2188 5.3768,8.492097 8.1121,19.155397 8.25,31.999997 -0.1379,13.4651 -2.8732,24.3052 -8.25,32.5312 -5.3769,8.2262 -12.5699,12.4578 -21.5312,12.6876 -8.9615,-0.2298 -16.1232,-4.4614 -21.5,-12.6876 -5.3769,-8.226 -8.1434,-19.0661 -8.2813,-32.5312 0.1379,-13.465 2.9044,-24.3051 8.2813,-32.531197 5.3768,-8.2261 12.5385,-12.4577 21.5,-12.6876 z m -165.2188,1.0938 55.125,0 0,14.3438 -39.6875,0 0,20.968697 31.9687,0 0,13.2187 -31.9687,0 0,26.4688 40.8125,0 0,13.25 -56.25,0 0,-88.249997 z m 164.4375,12.625 c -3.9483,0.2386 -7.1375,2.7296 -9.5625,7.468797 -2.5867,5.0552 -3.9031,13.0675 -3.9688,24.0312 0.066,10.9638 1.3821,18.9761 3.9688,24.0312 2.5866,5.0552 6.0239,7.5345 10.3438,7.4688 4.3198,0.066 7.7882,-2.4136 10.375,-7.4688 2.5866,-5.0551 3.903,-13.0674 3.9687,-24.0312 -0.066,-10.9637 -1.3821,-18.976 -3.9687,-24.0312 -2.5868,-5.055097 -6.0552,-7.534397 -10.375,-7.468797 -0.27,0 -0.5181,-0.016 -0.7813,0 z"
       id="rect13307" />
    <path
       inkscape:connector-curvature="0"
       style="color:#000000;fill:#0d69e1;fill-opacity:1;fill-rule:nonzero;stroke:none;stroke-width:3.54299998;marker:none;visibility:visible;display:inline;overflow:visible;enable-background:accumulate"
       d="m 646.6562,72.362197 c -8.31,0 -15,6.69 -15,15 l 0,100.000003 c 0,8.31 6.69,15 15,15 l 296.6876,0 c 8.31,0 15,-6.69 15,-15 l 0,-100.000003 c 0,-8.31 -6.69,-15 -15,-15 l -296.6876,0 z m 63.4063,20.875 17.6563,0 28.6874,88.250003 -16.5624,0 -5.5,-17.6562 -30.875,0 -5.5313,17.6562 -16.5313,0 28.6563,-88.250003 z m 70.2187,0 13.2188,0 0,88.250003 -15.4375,0 0,-68.375 -11.8125,7.4062 -5.2188,-6.7812 19.25,-20.500003 z m 71.4376,0 13.25,0 0,57.375003 12.125,0 -5.0626,13.2188 -5.9687,0 0,17.6562 -15.4375,0 0,-17.6562 -41.9062,0 0,-13.2188 43,-57.375003 z m 43.6562,0 13.2188,0 0,88.250003 -15.4376,0 0,-68.375 -11.8124,7.4062 -5.1876,-6.7812 19.2188,-20.500003 z m -176.4688,19.875003 -11.0312,37.5 22.0625,0 -11.0313,-37.5 z m 131.7188,3.2812 -25.375,34.2188 25.375,0 0,-34.2188 z"
       id="rect13317" />
    <path
       inkscape:connector-curvature="0"
       style="color:#000000;fill:#0d69e1;fill-opacity:1;fill-rule:nonzero;stroke:none;stroke-width:3.54299998;marker:none;visibility:visible;display:inline;overflow:visible;enable-background:accumulate"
       d="m 646.6562,477.3622 c -8.31,0 -15,6.69 -15,15 l 0,100 c 0,8.31 6.69,14.99998 15,14.99998 l 296.6876,0 c 8.31,0 15,-6.68998 15,-14.99998 l 0,-100 c 0,-8.31 -6.69,-15 -15,-15 l -296.6876,0 z m 63.4063,20.875 17.6563,0 28.6874,88.25 -16.5624,0 -5.5,-17.6562 -30.875,0 -5.5313,17.6562 -16.5313,0 28.6563,-88.25 z m 70.2187,0 13.2188,0 0,88.25 -15.4375,0 0,-68.375 -11.8125,7.4062 -5.2188,-6.7812 19.25,-20.5 z m 71.4376,0 13.25,0 0,57.375 12.125,0 -5.0626,13.2188 -5.9687,0 0,17.6562 -15.4375,0 0,-17.6562 -41.9062,0 0,-13.2188 43,-57.375 z m 43.6562,0 13.2188,0 0,88.25 -15.4376,0 0,-68.375 -11.8124,7.4062 -5.1876,-6.7812 19.2188,-20.5 z m -176.4688,19.875 -11.0312,37.5 22.0625,0 -11.0313,-37.5 z m 131.7188,3.2812 -25.375,34.2188 25.375,0 0,-34.2188 z"
       id="rect13327" />
    <rect
       rx="44"
       ry="44"
       y="-396.63782"
       x="1"
       height="1448"
       width="2298"
       id="rect13385"
       style="color:#000000;fill:none;stroke:#000000;stroke-width:2;stroke-miterlimit:4;stroke-opacity:1;stroke-dasharray:none;marker:none;visibility:visible;display:inline;overflow:visible;enable-background:accumulate" />
  </g>
</svg>
