<?xml version="1.0" encoding="UTF-8" standalone="no"?>
<!-- Created with Inkscape (http://www.inkscape.org/) -->

<svg
   xmlns:dc="http://purl.org/dc/elements/1.1/"
   xmlns:cc="http://creativecommons.org/ns#"
   xmlns:rdf="http://www.w3.org/1999/02/22-rdf-syntax-ns#"
   xmlns:svg="http://www.w3.org/2000/svg"
   xmlns="http://www.w3.org/2000/svg"
   xmlns:sodipodi="http://sodipodi.sourceforge.net/DTD/sodipodi-0.dtd"
   xmlns:inkscape="http://www.inkscape.org/namespaces/inkscape"
   width="1050"
   height="350"
   id="svg2"
   version="1.1"
   inkscape:version="0.48.4 r9939"
   sodipodi:docname="6.21.2.svg">
  <title
     id="title3006">6.21.2 Направление движения к аварийному выходу</title>
  <defs
     id="defs4" />
  <sodipodi:namedview
     id="base"
     pagecolor="#ffffff"
     bordercolor="#666666"
     borderopacity="1.0"
     inkscape:pageopacity="0.0"
     inkscape:pageshadow="2"
     inkscape:zoom="1"
     inkscape:cx="643.22814"
     inkscape:cy="148.29715"
     inkscape:document-units="px"
     inkscape:current-layer="layer1"
     showgrid="false"
     inkscape:window-width="1920"
     inkscape:window-height="1024"
     inkscape:window-x="-4"
     inkscape:window-y="-4"
     inkscape:window-maximized="1"
     inkscape:snap-bbox="true"
     inkscape:bbox-paths="true"
     inkscape:bbox-nodes="true"
     inkscape:snap-bbox-edge-midpoints="true"
     inkscape:snap-bbox-midpoints="true"
     inkscape:object-paths="true"
     inkscape:snap-intersection-paths="true"
     inkscape:object-nodes="true"
     inkscape:snap-smooth-nodes="true"
     inkscape:snap-midpoints="true"
     inkscape:snap-object-midpoints="true" />
  <metadata
     id="metadata7">
    <rdf:RDF>
      <cc:Work
         rdf:about="">
        <dc:format>image/svg+xml</dc:format>
        <dc:type
           rdf:resource="http://purl.org/dc/dcmitype/StillImage" />
        <dc:title>6.21.2 Направление движения к аварийному выходу</dc:title>
        <cc:license
           rdf:resource="http://creativecommons.org/licenses/by-sa/3.0/" />
        <dc:description>ГОСТ Р 52290-2004
Размеры и пропорции по типоразмеру II</dc:description>
      </cc:Work>
      <cc:License
         rdf:about="http://creativecommons.org/licenses/by-sa/3.0/">
        <cc:permits
           rdf:resource="http://creativecommons.org/ns#Reproduction" />
        <cc:permits
           rdf:resource="http://creativecommons.org/ns#Distribution" />
        <cc:requires
           rdf:resource="http://creativecommons.org/ns#Notice" />
        <cc:requires
           rdf:resource="http://creativecommons.org/ns#Attribution" />
        <cc:permits
           rdf:resource="http://creativecommons.org/ns#DerivativeWorks" />
        <cc:requires
           rdf:resource="http://creativecommons.org/ns#ShareAlike" />
      </cc:License>
    </rdf:RDF>
  </metadata>
  <g
     inkscape:label="Layer 1"
     inkscape:groupmode="layer"
     id="layer1"
     transform="translate(0,-702.36218)">
    <rect
       style="color:#000000;fill:#ffffff;fill-opacity:1;stroke:none;stroke-width:1.99999975999999990;marker:none;visibility:visible;display:inline;overflow:visible;enable-background:accumulate;opacity:1"
       id="rect6880"
       width="1050"
       height="350"
       x="0"
       y="702.36218"
       ry="45"
       rx="45" />
    <path
       style="color:#000000;fill:#00a500;fill-opacity:1;fill-rule:nonzero;stroke:none;stroke-width:3.54299998;marker:none;visibility:visible;display:inline;overflow:visible;enable-background:accumulate"
       d="M 45 10 C 25.61 10 10 25.61 10 45 L 10 305 C 10 324.39 25.61 340 45 340 L 771.34375 340 L 1050 175 L 771.34375 10 L 45 10 z M 647.5 52.5 L 770 52.5 L 770 297.5 L 647.5 297.5 L 647.5 52.5 z M 221.78125 60.375 C 233.4261 60.375 248.34375 74.69568 248.34375 90.5625 C 248.34375 106.34084 235.21718 114.71875 228.65625 114.71875 C 218.6263 114.71875 207.40625 91.36498 207.40625 78.34375 C 207.66027 67.55063 213.2241 60.375 221.78125 60.375 z M 149.78125 104.34375 L 206.5 104.34375 C 206.68428 104.34375 206.88006 104.32975 207.0625 104.34375 C 209.7981 104.54605 212.2734 106.27698 213.65625 108.9375 L 221.25 123.46875 C 222.72498 126.30672 222.72498 129.81836 221.25 132.65625 L 195.71875 181.71875 L 234.25 206.40625 C 236.80465 208.04468 238.375 211.06679 238.375 214.34375 L 238.375 287.03125 C 238.375 293.78546 233.45538 299.25 227.375 299.25 C 221.29463 299.25 216.34375 293.78555 216.34375 287.03125 L 216.34375 223.15625 L 168.03125 192.1875 C 161.44906 187.96606 159.1997 178.62426 163 171.3125 L 186.6875 125.75 L 156.875 125.75 L 132.09375 153.25 C 128.06297 157.72755 121.53078 157.72755 117.5 153.25 C 113.46923 148.77245 113.46923 141.5088 117.5 137.03125 L 144.9375 106.5625 C 146.22787 105.12907 147.95635 104.34375 149.78125 104.34375 z M 226.40625 136.46875 L 241.34375 165.21875 L 264.53125 150.34375 C 269.46782 147.17766 275.77477 149.04727 278.625 154.53125 C 281.47513 160.01505 279.78041 167.05265 274.84375 170.21875 L 241 191.90625 C 237.70886 194.01693 233.4939 192.74968 231.59375 189.09375 L 215.28125 157.84375 L 226.40625 136.46875 z M 537.25 144.375 L 577.5 175 L 537.25 205.625 L 537.25 185.9375 L 350 185.9375 L 350 164.0625 L 537.25 164.0625 L 537.25 144.375 z M 98.09375 195.03125 C 98.336922 195.02045 98.568483 195.02425 98.8125 195.03125 C 100.58717 195.08245 102.3857 195.60086 104.03125 196.65625 L 148.0625 224.90625 L 162.375 197.40625 L 181.4375 209.625 L 159.59375 251.65625 C 157.69369 255.31217 153.47863 256.57969 150.1875 254.46875 L 93 217.84375 C 87.73425 214.46651 85.92857 206.97455 88.96875 201.125 C 90.928247 197.35484 94.446167 195.19319 98.09375 195.03125 z M 477.21875 217.875 C 484.32808 218.12767 490.01558 221.63809 494.28125 228.375 C 498.54682 235.11203 500.73432 243.55994 500.84375 253.75 C 500.73432 264.43231 498.54682 273.03647 494.28125 279.5625 C 490.01558 286.08855 484.32808 289.44271 477.21875 289.625 C 470.10935 289.44271 464.42186 286.08854 460.15625 279.5625 C 455.89061 273.03647 453.70312 264.43231 453.59375 253.75 C 453.70312 243.06775 455.89061 234.4636 460.15625 227.9375 C 464.42186 221.41153 470.10935 218.05736 477.21875 217.875 z M 367.71875 218.75 L 378.21875 218.75 L 378.21875 288.75 L 365.96875 288.75 L 365.96875 234.5 L 356.59375 240.375 L 352.46875 235 L 367.71875 218.75 z M 397.40625 218.75 L 437.65625 218.75 L 434.15625 230.125 L 408.78125 230.125 L 408.78125 246.75 C 410.15362 245.0365 411.8932 243.86984 413.96875 243.25 C 416.04424 242.63025 418.09632 242.33859 420.15625 242.375 C 425.24215 242.4115 429.96089 244.30734 434.28125 248.0625 C 438.60151 251.81775 440.88276 257.21357 441.15625 264.25 C 441.06505 271.43231 438.63797 277.41147 433.84375 282.1875 C 429.04944 286.96355 422.43486 289.44271 414.03125 289.625 C 409.89321 289.47916 406.15363 288.89583 402.78125 287.875 C 399.40884 286.85417 397.60676 286.27084 397.40625 286.125 L 395.65625 274.75 C 397.84895 276.15366 400.43228 277.11199 403.40625 277.59375 C 406.38019 278.07553 409.33852 278.28386 412.28125 278.25 C 415.99997 278.25001 419.49997 277.15626 422.78125 274.96875 C 426.06246 272.78127 427.81246 269.50002 428.03125 265.125 C 428.01298 261.89846 426.97131 258.96097 424.875 256.28125 C 422.77861 253.6016 419.73695 252.1641 415.78125 252 C 413.15622 252.1641 410.96873 252.94535 409.21875 254.3125 C 407.46873 255.67972 406.15623 256.64847 405.28125 257.25 L 397.40625 252.875 L 397.40625 218.75 z M 477.21875 228.75 C 473.79164 228.69797 471.05206 230.67714 469 234.6875 C 466.94789 238.69797 465.89581 245.05213 465.84375 253.75 C 465.89581 262.44794 466.9479 268.8021 469 272.8125 C 471.05206 276.82293 473.79164 278.80209 477.21875 278.75 C 480.6458 278.80209 483.38538 276.82293 485.4375 272.8125 C 487.48954 268.80211 488.54162 262.44794 488.59375 253.75 C 488.54162 245.05212 487.48954 238.69796 485.4375 234.6875 C 483.38538 230.67714 480.6458 228.69798 477.21875 228.75 z M 519.15625 239.75 L 529.65625 239.75 L 541.90625 264.25 L 554.15625 239.75 L 564.65625 239.75 L 569.03125 288.75 L 558.53125 288.75 L 555.90625 254.625 L 541.90625 282.625 L 527.90625 254.625 L 525.28125 288.75 L 514.78125 288.75 L 519.15625 239.75 z "
       transform="translate(0,702.36218)"
       id="rect14198" />
    <rect
       rx="44"
       ry="44"
       y="703.36218"
       x="1"
       height="348"
       width="1048"
       id="rect14124"
       style="color:#000000;fill:none;stroke:#000000;stroke-width:2;stroke-miterlimit:4;stroke-opacity:1;stroke-dasharray:none;marker:none;visibility:visible;display:inline;overflow:visible;enable-background:accumulate;opacity:1" />
  </g>
</svg>
