<?xml version="1.0" encoding="UTF-8" standalone="no"?>
<!-- Created with Inkscape (http://www.inkscape.org/) -->

<svg
   xmlns:dc="http://purl.org/dc/elements/1.1/"
   xmlns:cc="http://creativecommons.org/ns#"
   xmlns:rdf="http://www.w3.org/1999/02/22-rdf-syntax-ns#"
   xmlns:svg="http://www.w3.org/2000/svg"
   xmlns="http://www.w3.org/2000/svg"
   xmlns:sodipodi="http://sodipodi.sourceforge.net/DTD/sodipodi-0.dtd"
   xmlns:inkscape="http://www.inkscape.org/namespaces/inkscape"
   width="2070"
   height="560"
   id="svg2"
   version="1.1"
   inkscape:version="0.48.4 r9939"
   sodipodi:docname="6.9.2 A.svg">
  <title
     id="title3006">6.9.2 Предварительный указатель направления</title>
  <defs
     id="defs4" />
  <sodipodi:namedview
     id="base"
     pagecolor="#ffffff"
     bordercolor="#666666"
     borderopacity="1.0"
     inkscape:pageopacity="0.0"
     inkscape:pageshadow="2"
     inkscape:zoom="1"
     inkscape:cx="847.54181"
     inkscape:cy="379.61084"
     inkscape:document-units="px"
     inkscape:current-layer="layer1"
     showgrid="false"
     inkscape:window-width="1920"
     inkscape:window-height="1024"
     inkscape:window-x="-4"
     inkscape:window-y="-4"
     inkscape:window-maximized="1"
     inkscape:snap-bbox="true"
     inkscape:bbox-paths="true"
     inkscape:bbox-nodes="true"
     inkscape:snap-bbox-edge-midpoints="true"
     inkscape:snap-bbox-midpoints="true"
     inkscape:object-paths="true"
     inkscape:snap-intersection-paths="true"
     inkscape:object-nodes="true"
     inkscape:snap-smooth-nodes="true"
     inkscape:snap-midpoints="true"
     inkscape:snap-object-midpoints="true"
     showguides="true"
     inkscape:guide-bbox="true" />
  <metadata
     id="metadata7">
    <rdf:RDF>
      <cc:Work
         rdf:about="">
        <dc:format>image/svg+xml</dc:format>
        <dc:type
           rdf:resource="http://purl.org/dc/dcmitype/StillImage" />
        <dc:title>6.9.2 Предварительный указатель направления</dc:title>
        <cc:license
           rdf:resource="http://creativecommons.org/licenses/by-sa/3.0/" />
        <dc:description>ГОСТ Р 52290-2004</dc:description>
      </cc:Work>
      <cc:License
         rdf:about="http://creativecommons.org/licenses/by-sa/3.0/">
        <cc:permits
           rdf:resource="http://creativecommons.org/ns#Reproduction" />
        <cc:permits
           rdf:resource="http://creativecommons.org/ns#Distribution" />
        <cc:requires
           rdf:resource="http://creativecommons.org/ns#Notice" />
        <cc:requires
           rdf:resource="http://creativecommons.org/ns#Attribution" />
        <cc:permits
           rdf:resource="http://creativecommons.org/ns#DerivativeWorks" />
        <cc:requires
           rdf:resource="http://creativecommons.org/ns#ShareAlike" />
      </cc:License>
    </rdf:RDF>
  </metadata>
  <g
     inkscape:label="Layer 1"
     inkscape:groupmode="layer"
     id="layer1"
     transform="translate(0,-492.36218)">
    <rect
       style="opacity:1;color:#000000;fill:#ffffff;fill-opacity:1;fill-rule:nonzero;stroke:none;stroke-width:3.54299997999999980;marker:none;visibility:visible;display:inline;overflow:visible;enable-background:accumulate"
       id="rect12474"
       width="2070"
       height="560"
       x="0"
       y="492.36218"
       rx="45"
       ry="45" />
    <path
       inkscape:connector-curvature="0"
       style="opacity:1;color:#000000;fill:#0d69e1;fill-opacity:1;fill-rule:nonzero;stroke:none;stroke-width:3.54299997999999980;marker:none;visibility:visible;display:inline;overflow:visible;enable-background:accumulate"
       d="m 45.000091,510.36215 c -14.958,0 -27,12.042 -27,27 l 0,470.00005 c 0,14.958 12.042,27 27,27 l 1980.000109,0 c 14.958,0 27,-12.042 27,-27 l 0,-470.00005 c 0,-14.958 -12.042,-27 -27,-27 l -1980.000109,0 z m 1257.500109,37 315,0 c 20.775,0 37.5,16.725 37.5,37.5 l 0,175 c 0,20.775 -16.725,37.5 -37.5,37.5 l -315,0 c -20.775,0 -37.5,-16.725 -37.5,-37.5 l 0,-175 c 0,-20.775 16.725,-37.5 37.5,-37.5 z m 0,15 c -12.465,0 -22.5,10.035 -22.5,22.5 l 0,175 c 0,12.465 10.035,22.5 22.5,22.5 l 315,0 c 12.465,0 22.5,-10.035 22.5,-22.5 l 0,-175 c 0,-12.465 -10.035,-22.5 -22.5,-22.5 l -315,0 z m -1084.37511,26.25 5.625,26.25 c -6.9238,0.1078 -12.0921,1.8958 -15.5,5.3438 -3.4081,3.4482 -6.9898,7.9103 -10.75,13.4062 -3.7608,5.2137 -8.1074,10.7658 -13.0625,16.6563 -4.9552,5.8906 -9.3587,9.0886 -13.1875,9.5937 9.0312,1.143 15.8437,4.6652 20.4375,10.5938 4.5937,5.9286 9.0312,13.0313 13.3125,21.2812 5.3733,9.8114 10.7198,19.3701 16.0313,28.6563 5.3113,9.2862 11.2148,16.6025 17.7187,21.9687 l -32.6875,0 c -2.74,-5.1562 -7.0213,-12.6562 -12.875,-22.5 -5.8538,-9.8437 -11.2958,-19.2187 -16.3125,-28.125 -3.1853,-5.9521 -6.6687,-10.5598 -10.4375,-13.8125 -3.7689,-3.2526 -8.4104,-4.8949 -13.9375,-4.9375 -2.1136,0.034 -4.4549,0.1719 -7.0312,0.4063 -2.5764,0.2344 -3.985,0.3728 -4.2188,0.4062 l 0,68.5625 -26.25,0 0,-150 26.25,0 0,55.9688 c 0.2243,0.1729 0.4451,0.2971 0.6875,0.375 0.2424,0.078 0.6465,0.1591 1.1875,0.1875 9.0509,-0.1686 16.7754,-4.8774 23.1875,-14.0938 6.412,-9.2161 13.4629,-18.7196 21.125,-28.5312 7.662,-9.8114 17.8865,-15.7018 30.6875,-17.6563 z m 374.9063,0 c 14.1472,0.1955 25.5854,4.008 34.3437,11.4688 8.7582,7.461 15.4451,17.3985 20.0313,29.7812 l -25.1875,9.375 c -2.8084,-9.2968 -6.6466,-16.0155 -11.5,-20.1562 -4.8536,-4.1405 -10.7386,-6.1718 -17.6875,-6.0938 -10.5079,0.1564 -19.0391,5.0001 -25.5625,14.5313 -6.5235,9.5313 -9.8672,22.8125 -10.0625,39.8437 0.1953,17.0313 3.539,30.3125 10.0625,39.8438 6.5234,9.5312 15.0546,14.375 25.5625,14.5312 6.9489,0.078 12.8339,-1.9531 17.6875,-6.0937 4.8534,-4.1406 8.6916,-10.8594 11.5,-20.1563 l 25.1875,9.375 c -4.5862,12.3828 -11.2731,22.2891 -20.0313,29.75 -8.7583,7.4609 -20.1965,11.3047 -34.3437,11.5 -20.5916,-0.563 -35.9532,-8.2486 -46.0313,-23.0625 -10.0781,-14.8139 -15.096,-33.3782 -15.0625,-55.6875 -0.034,-22.3091 4.9844,-40.8735 15.0625,-55.6875 10.0781,-14.8138 25.4397,-22.4994 46.0313,-23.0625 z m 185,0 5.625,26.25 c -6.9239,0.1078 -12.0921,1.8958 -15.5,5.3438 -3.4081,3.4482 -6.9899,7.9103 -10.75,13.4062 -3.7608,5.2137 -8.1074,10.7658 -13.0625,16.6563 -4.9553,5.8906 -9.3587,9.0886 -13.1875,9.5937 9.0312,1.143 15.8436,4.6652 20.4375,10.5938 4.5937,5.9286 9.0312,13.0313 13.3125,21.2812 5.3733,9.8114 10.7197,19.3701 16.0312,28.6563 5.3113,9.2862 11.2149,16.6025 17.7188,21.9687 l -32.6563,0 c -2.74,-5.1562 -7.0525,-12.6562 -12.9062,-22.5 -5.8539,-9.8437 -11.2959,-19.2187 -16.3125,-28.125 -3.1853,-5.9521 -6.6375,-10.5598 -10.4063,-13.8125 -3.7689,-3.2526 -8.4417,-4.8949 -13.9687,-4.9375 -2.1137,0.034 -4.455,0.1719 -7.0313,0.4063 -2.5763,0.2344 -3.985,0.3728 -4.2187,0.4062 l 0,68.5625 -26.25,0 0,-150 26.25,0 0,55.9688 c 0.2242,0.1729 0.4763,0.2971 0.7187,0.375 0.2424,0.078 0.6152,0.1591 1.1563,0.1875 9.0509,-0.1686 16.8066,-4.8774 23.2187,-14.0938 6.412,-9.2161 13.4317,-18.7196 21.0938,-28.5312 7.6619,-9.8114 17.8865,-15.7018 30.6875,-17.6563 z m 779.87501,1.875 c 10.8204,0.2345 20.6015,3.9845 29.3126,11.25 8.7107,7.2658 13.3046,16.6408 13.8124,28.125 0.056,8.9845 -0.9175,15.913 -2.9374,20.8125 -2.0203,4.8996 -5.4219,10.1229 -10.1876,15.625 -5.9821,7.4443 -13.1698,15.3952 -21.5624,23.8438 -8.3931,8.4487 -17.4554,17.721 -27.1876,27.8437 l 61.875,0 c 0,2.8906 -0.4688,6.4844 -1.4062,10.7813 -0.9376,4.2968 -2.3438,8.8281 -4.2188,13.5937 l -90,0 0,-22.5 c 10.2457,-9.3136 19.8439,-18.6261 28.75,-27.9062 8.9063,-9.2801 17.5357,-18.8917 25.9063,-28.875 4.6428,-5.1339 8.4106,-10.1339 11.3125,-15 2.9017,-4.866 4.4106,-10.9419 4.5,-18.2188 -0.084,-4.9162 -2.0704,-9.3358 -5.9375,-13.2812 -3.8673,-3.9452 -9.135,-6.0524 -15.7813,-6.2813 -5.5858,0.2289 -10.8048,2.3361 -15.6874,6.2813 -4.883,3.9454 -9.6641,8.365 -14.3126,13.2812 l -15,-16.875 c 5.547,-6.5624 12.2656,-11.9106 20.1563,-16.0625 7.8906,-4.1516 17.4219,-6.3034 28.5937,-6.4375 z m -1304.93751,1.875 28.125,0 35.625,78.75 30,-78.75 28.125,0 -48.75,125.625 c -3.0566,7.2036 -8.0337,13.1268 -14.9375,17.75 -6.9039,4.6232 -13.8019,6.9991 -20.6875,7.1563 -3.711,-0.01 -6.586,-0.1351 -8.6563,-0.375 -2.0703,-0.24 -3.5703,-0.5614 -4.4687,-0.9688 l -5.625,-23.5625 c 0.1562,0.078 1.7187,0.3907 4.6875,0.9375 2.9687,0.5469 6.4062,0.8594 10.3125,0.9375 4.837,-0.2734 8.9869,-2.0859 12.4687,-5.4062 3.4818,-3.3203 5.3051,-6.5078 5.4688,-9.5938 -0.2693,-1.9482 -2.9468,-8.5849 -8.0625,-19.9375 -5.1159,-11.3525 -11.05,-24.1845 -17.7813,-38.4375 -6.7313,-14.2528 -12.6342,-26.6942 -17.75,-37.3437 -5.1158,-10.6493 -7.8245,-16.2392 -8.0937,-16.7813 z m 147.5312,0 50.625,0 c 18.5156,0.8595 31.6406,6.6408 39.375,17.3438 7.7343,10.7032 11.4843,21.1719 11.25,31.4062 -0.2345,10.2345 -4.9219,20.7032 -14.0625,31.4063 -9.1407,10.7031 -21.3282,16.4844 -36.5625,17.3437 l -24.375,0 0,52.5 -26.25,0 0,-150 z m 936.37511,0 26.25,0 33.75,73.125 33.75,-73.125 26.25,0 16.875,150 -28.125,0 -9.375,-110.625 -39.375,88.125 -39.375,-88.125 -9.375,110.625 -28.125,0 16.875,-150 z m -910.12511,22.5 0,52.5 16.875,0 c 7.8125,0.078 14.6875,-1.953 20.625,-6.0937 5.9375,-4.1406 9.0625,-10.8593 9.375,-20.1563 -0.3126,-9.2968 -3.4376,-16.0155 -9.375,-20.1562 -5.9375,-4.1405 -12.8125,-6.1718 -20.625,-6.0938 l -16.875,0 z m 1531.56261,21.1563 -58.25,217.3437 -50.9063,-50.9062 -106.25,106.25 -57.2812,-57.2813 106.25,-106.25 -50.9062,-50.9062 217.3437,-58.25 z M 713.59389,798.61215 c 20.5914,0.5694 35.9218,8.2613 46,23.0938 10.078,14.8327 15.0958,33.3907 15.0625,55.6562 0.033,22.2657 -4.9845,40.8237 -15.0625,55.6563 -10.0782,14.8325 -25.4086,22.5245 -46,23.0937 -20.5916,-0.5692 -35.9219,-8.2611 -46,-23.0937 -10.0782,-14.8326 -15.096,-33.3906 -15.0625,-55.6563 -0.034,-22.2655 4.9843,-40.8235 15.0625,-55.6562 10.0781,-14.8325 25.4084,-22.5244 46,-23.0938 z m 283.625,0 c 20.59151,0.5694 35.92151,8.2613 46.00011,23.0938 10.0776,14.8327 15.0961,33.3907 15.0624,55.6562 0.034,22.2657 -4.9848,40.8237 -15.0624,55.6563 -10.0786,14.8325 -25.4086,22.5245 -46.00011,23.0937 -20.5916,-0.5692 -35.9219,-8.2611 -46,-23.0937 -10.0782,-14.8326 -15.096,-33.3906 -15.0625,-55.6563 -0.034,-22.2655 4.9843,-40.8235 15.0625,-55.6562 10.0781,-14.8325 25.4084,-22.5244 46,-23.0938 z m -882.2188,3.75 95.625,0 0,22.5 -69.375,0 0,37.5 31.875,0 c 18.4374,0.7032 31.2499,5.8595 38.4375,15.4688 7.1874,9.6094 10.6249,19.4531 10.3125,29.5312 0.1562,10.0782 -3.9063,19.9219 -12.1875,29.5313 -8.2813,9.6093 -21.7188,14.7656 -40.3125,15.4687 l -54.375,0 0,-150 z m 139.7188,0 93.75,0 0,24.375 -67.5,0 0,35.625 54.375,0 0,22.5 -54.375,0 0,45 69.375,0 0,22.5 -95.625,0 0,-150 z m 153.0312,0 93.75,0 0,150 -26.25,0 0,-127.5 -41.25,0 c 0.012,0.5788 -0.036,5.6749 -0.094,15.2813 -0.058,9.6065 -0.2026,20.2477 -0.4687,31.9375 -0.2663,11.6898 -0.6992,20.9526 -1.3125,27.7812 -2.3116,17.2223 -7.5055,29.8507 -15.5313,37.9063 -8.0258,8.0555 -15.7569,13.2152 -23.1875,15.4375 -7.4305,2.2222 -11.3804,3.184 -11.9062,2.9062 l -4.3125,-25.1875 c 0.2893,0.045 2.5077,-0.7887 6.6562,-2.5 4.1485,-1.7113 8.4959,-4.5595 13.0313,-8.5625 4.5353,-4.0029 7.5499,-9.4196 9,-16.25 0.6134,-4.1666 1.0462,-12.0833 1.3125,-23.75 0.2662,-11.6666 0.4108,-24.5832 0.4687,-38.75 0.058,-14.1665 0.1053,-27.0832 0.094,-38.75 z m 130.5938,0 93.75,0 0,22.5 -67.5,0 0,127.5 -26.25,0 0,-150 z m 266.3437,0 50.625,0 c 18.5156,0.8595 31.6406,6.6408 39.375,17.3438 7.7343,10.7032 11.4843,21.1719 11.25,31.4062 -0.2345,10.2345 -4.9219,20.7032 -14.0625,31.4063 -9.1407,10.7031 -21.3282,16.4844 -36.5625,17.3437 l -24.375,0 0,52.5 -26.25,0 0,-150 z m 306.12511,0 88.125,0 0,11.25 0,116.25 16.875,0 0,48.75 -22.5,0 0,-26.25 -93.75,0 0,26.25 -22.5,0 0,-48.75 16.875,0 c 2.5694,-6.5294 5.1496,-15.7141 7.7187,-27.5312 2.5698,-11.8171 4.7011,-24.5921 6.4376,-38.3438 1.7357,-13.7515 2.6492,-26.7919 2.7187,-39.125 l 0,-22.5 z m -397.21881,20.625 c -10.5079,0.1564 -19.0079,5.0001 -25.5313,14.5313 -6.5234,9.5313 -9.8984,22.8125 -10.0937,39.8437 0.1953,17.0313 3.5703,30.3125 10.0937,39.8438 6.5234,9.5312 15.0234,14.375 25.5313,14.5312 10.5077,-0.1562 19.039,-5 25.5625,-14.5312 6.5233,-9.5312 9.8671,-22.8125 10.0625,-39.8438 -0.1954,-17.0312 -3.5392,-30.3124 -10.0625,-39.8437 -6.5235,-9.5312 -15.0548,-14.3749 -25.5625,-14.5313 z m 283.625,0 c -10.5079,0.1564 -19.0079,5.0001 -25.5313,14.5313 -6.5234,9.5313 -9.8984,22.8125 -10.0937,39.8437 0.1953,17.0313 3.5703,30.3125 10.0937,39.8438 6.5234,9.5312 15.0234,14.375 25.5313,14.5312 10.50781,-0.1562 19.03901,-5 25.56251,-14.5312 6.5235,-9.5312 9.8669,-22.8125 10.0626,-39.8438 -0.1957,-17.0312 -3.5391,-30.3124 -10.0626,-39.8437 -6.5235,-9.5312 -15.0547,-14.3749 -25.56251,-14.5313 z m -166.2813,1.875 0,52.5 16.875,0 c 7.8125,0.078 14.6875,-1.953 20.625,-6.0937 5.9375,-4.1406 9.0625,-10.8593 9.375,-20.1563 -0.3126,-9.2968 -3.4376,-16.0155 -9.375,-20.1562 -5.9375,-4.1405 -12.8125,-6.1718 -20.625,-6.0938 l -16.875,0 z m 306.12511,0 c -0.1005,18.4376 -1.7833,37.3438 -5.0313,56.7188 -3.2475,19.375 -7.4665,35.4687 -12.6562,48.2812 l 53.3125,0 0,-105 -35.625,0 z m -995.81261,60 0,45 26.25,0 c 8.5546,0 15.3671,-1.875 20.4063,-5.625 5.039,-3.75 7.6015,-9.375 7.7187,-16.875 -0.1172,-7.4999 -2.711,-13.1249 -7.75,-16.875 -5.0391,-3.7499 -11.8204,-5.6249 -20.375,-5.625 l -26.25,0 z"
       id="rect12505" />
    <rect
       ry="44"
       rx="44"
       y="493.36218"
       x="1.0001221"
       height="558"
       width="2068"
       id="rect12512"
       style="opacity:1;color:#000000;fill:none;stroke:#000000;stroke-width:2;stroke-miterlimit:4;stroke-opacity:1;stroke-dasharray:none;marker:none;visibility:visible;display:inline;overflow:visible;enable-background:accumulate" />
  </g>
</svg>
