<?xml version="1.0" encoding="UTF-8" standalone="no"?>
<!-- Created with Inkscape (http://www.inkscape.org/) -->

<svg
   xmlns:dc="http://purl.org/dc/elements/1.1/"
   xmlns:cc="http://creativecommons.org/ns#"
   xmlns:rdf="http://www.w3.org/1999/02/22-rdf-syntax-ns#"
   xmlns:svg="http://www.w3.org/2000/svg"
   xmlns="http://www.w3.org/2000/svg"
   xmlns:sodipodi="http://sodipodi.sourceforge.net/DTD/sodipodi-0.dtd"
   xmlns:inkscape="http://www.inkscape.org/namespaces/inkscape"
   width="1780"
   height="980"
   id="svg2"
   version="1.1"
   inkscape:version="0.48.4 r9939"
   sodipodi:docname="6.10.1 C.svg">
  <title
     id="title3006">6.10.1 Указатель направления</title>
  <defs
     id="defs4" />
  <sodipodi:namedview
     id="base"
     pagecolor="#ffffff"
     bordercolor="#666666"
     borderopacity="1.0"
     inkscape:pageopacity="0.0"
     inkscape:pageshadow="2"
     inkscape:zoom="1"
     inkscape:cx="599.74349"
     inkscape:cy="402.87122"
     inkscape:document-units="px"
     inkscape:current-layer="layer1"
     showgrid="false"
     inkscape:window-width="1920"
     inkscape:window-height="1024"
     inkscape:window-x="-4"
     inkscape:window-y="-4"
     inkscape:window-maximized="1"
     inkscape:snap-bbox="true"
     inkscape:bbox-paths="true"
     inkscape:bbox-nodes="true"
     inkscape:snap-bbox-edge-midpoints="true"
     inkscape:snap-bbox-midpoints="true"
     inkscape:object-paths="true"
     inkscape:snap-intersection-paths="true"
     inkscape:object-nodes="true"
     inkscape:snap-smooth-nodes="true"
     inkscape:snap-midpoints="true"
     inkscape:snap-object-midpoints="true"
     showguides="true"
     inkscape:guide-bbox="true" />
  <metadata
     id="metadata7">
    <rdf:RDF>
      <cc:Work
         rdf:about="">
        <dc:format>image/svg+xml</dc:format>
        <dc:type
           rdf:resource="http://purl.org/dc/dcmitype/StillImage" />
        <dc:title>6.10.1 Указатель направления</dc:title>
        <cc:license
           rdf:resource="http://creativecommons.org/licenses/by-sa/3.0/" />
        <dc:description>ГОСТ Р 52290-2004</dc:description>
      </cc:Work>
      <cc:License
         rdf:about="http://creativecommons.org/licenses/by-sa/3.0/">
        <cc:permits
           rdf:resource="http://creativecommons.org/ns#Reproduction" />
        <cc:permits
           rdf:resource="http://creativecommons.org/ns#Distribution" />
        <cc:requires
           rdf:resource="http://creativecommons.org/ns#Notice" />
        <cc:requires
           rdf:resource="http://creativecommons.org/ns#Attribution" />
        <cc:permits
           rdf:resource="http://creativecommons.org/ns#DerivativeWorks" />
        <cc:requires
           rdf:resource="http://creativecommons.org/ns#ShareAlike" />
      </cc:License>
    </rdf:RDF>
  </metadata>
  <g
     inkscape:label="Layer 1"
     inkscape:groupmode="layer"
     id="layer1"
     transform="translate(0,-72.36218)">
    <rect
       rx="45"
       ry="45"
       y="72.362183"
       x="0"
       height="980"
       width="1780"
       id="rect17124"
       style="opacity:1;color:#000000;fill:#ffffff;fill-opacity:1;fill-rule:nonzero;stroke:none;stroke-width:3.54299997999999980;marker:none;visibility:visible;display:inline;overflow:visible;enable-background:accumulate" />
    <path
       inkscape:connector-curvature="0"
       style="opacity:1;color:#000000;fill:#0d69e1;fill-opacity:1;fill-rule:nonzero;stroke:none;stroke-width:3.54299997999999980;marker:none;visibility:visible;display:inline;overflow:visible;enable-background:accumulate"
       d="m 360,162.36219 c -16.62,0 -30,13.38 -30,30 l 0,127 c 0,16.62 13.38,30 30,30 l 954,0 c 16.62,0 30,-13.38 30,-30 l 0,-127 c 0,-16.62 -13.38,-30 -30,-30 l -954,0 z m 325.0625,40.5 c 13.72756,0.37956 23.9687,5.51799 30.6875,15.40625 6.71864,9.88843 10.05348,22.25012 10.03125,37.09375 0.0222,14.84373 -3.31262,27.20542 -10.03125,37.09375 -6.7188,9.88836 -16.95994,15.02678 -30.6875,15.40625 -13.72767,-0.37946 -23.93755,-5.51789 -30.65625,-15.40625 -6.71874,-9.88834 -10.08483,-22.25002 -10.0625,-37.09375 -0.0223,-14.84363 3.34376,-27.20531 10.0625,-37.09375 6.7187,-9.88826 16.92858,-15.02669 30.65625,-15.40625 z m 284.6875,0 c 13.72756,0.37956 23.93745,5.51799 30.6562,15.40625 6.7187,9.88843 10.0848,22.25012 10.0626,37.09375 0.022,14.84373 -3.3439,27.20542 -10.0626,37.09375 -6.71875,9.88836 -16.92864,15.02678 -30.6562,15.40625 -13.72767,-0.37946 -23.9688,-5.51789 -30.6875,-15.40625 -6.71874,-9.88834 -10.05358,-22.25002 -10.03125,-37.09375 -0.0223,-14.84363 3.31251,-27.20531 10.03125,-37.09375 6.7187,-9.88826 16.95983,-15.02669 30.6875,-15.40625 z m 199.0625,0 c 13.7276,0.37956 23.9687,5.51799 30.6875,15.40625 6.7186,9.88843 10.0535,22.25012 10.0312,37.09375 0.022,14.84373 -3.3126,27.20542 -10.0312,37.09375 -6.7188,9.88836 -16.9599,15.02678 -30.6875,15.40625 -13.7277,-0.37946 -23.9376,-5.51789 -30.6563,-15.40625 -6.7187,-9.88834 -10.0848,-22.25002 -10.0624,-37.09375 -0.022,-14.84363 3.3437,-27.20531 10.0624,-37.09375 6.7187,-9.88826 16.9286,-15.02669 30.6563,-15.40625 z m -796.0625,2.5 17.5,0 0,40 37.5,0 0,-40 17.5,0 0,100 -17.5,0 0,-45 -37.5,0 0,45 -17.5,0 0,-100 z m 174.09375,0 17.5,0 0,40 37.5,0 0,-40 17.5,0 0,100 -17.5,0 0,-45 -37.5,0 0,45 -17.5,0 0,-100 z m 203.96875,0 38.75,0 c 9.42326,0.32004 16.63015,3.23821 21.65625,8.78125 5.02594,5.54322 7.57655,11.79177 7.625,18.71875 -0.0485,3.88026 -1.34905,7.68237 -3.875,11.40625 -2.52611,3.724 -5.98298,6.5886 -10.40625,8.59375 5.10407,1.87504 9.27076,4.68756 12.5,8.4375 3.22907,3.75003 4.89575,8.43755 5,14.0625 -0.1861,8.35937 -3.27392,15.39066 -9.21875,21.09375 -5.94499,5.70311 -13.65337,8.67188 -23.125,8.90625 l -38.90625,0 0,-100 z m 97.09375,0 62.5,0 0,15 -45,0 0,85 -17.5,0 0,-100 z m 187.56255,0 33.75,0 c 12.3436,0.57301 21.0936,4.4272 26.25,11.5625 5.1561,7.13547 7.6561,14.11468 7.5,20.9375 -0.1564,6.82295 -3.2814,13.80216 -9.375,20.9375 -6.0938,7.13543 -14.2189,10.98962 -24.375,11.5625 l -16.25,0 0,35 -17.5,0 0,-100 z m 214.0937,0 58.75,0 0,7.5 0,77.5 11.25,0 0,32.5 -15,0 0,-17.5 -62.5,0 0,17.5 -15,0 0,-32.5 11.25,0 c 1.7129,-4.35292 3.412,-10.46567 5.125,-18.34375 1.7129,-7.87802 3.1551,-16.39472 4.3125,-25.5625 1.1574,-9.16767 1.7662,-17.8717 1.8125,-26.09375 l 0,-15 z m -564.5,13.75 c -7.00522,0.10425 -12.68235,3.33344 -17.03125,9.6875 -4.34898,6.35421 -6.58857,15.20844 -6.71875,26.5625 0.13018,11.35416 2.36978,20.20839 6.71875,26.5625 4.3489,6.35416 10.02602,9.58335 17.03125,9.6875 7.00512,-0.10415 12.68224,-3.33334 17.03125,-9.6875 4.34887,-6.35411 6.58846,-15.20834 6.71875,-26.5625 -0.13029,-11.35406 -2.36988,-20.20829 -6.71875,-26.5625 -4.34901,-6.35406 -10.02613,-9.58325 -17.03125,-9.6875 z m 284.6875,0 c -7.00522,0.10425 -12.68235,3.33344 -17.03125,9.6875 -4.34898,6.35421 -6.58857,15.20844 -6.71875,26.5625 0.13018,11.35416 2.36978,20.20839 6.71875,26.5625 4.3489,6.35416 10.02602,9.58335 17.03125,9.6875 7.00512,-0.10415 12.68224,-3.33334 17.03125,-9.6875 4.34887,-6.35411 6.58846,-15.20834 6.71875,-26.5625 -0.13029,-11.35406 -2.36988,-20.20829 -6.71875,-26.5625 -4.34901,-6.35406 -10.02613,-9.58325 -17.03125,-9.6875 z m 199.0625,0 c -7.0052,0.10425 -12.6823,3.33344 -17.0313,9.6875 -4.3489,6.35421 -6.5885,15.20844 -6.7187,26.5625 0.1302,11.35416 2.3698,20.20839 6.7187,26.5625 4.349,6.35416 10.0261,9.58335 17.0313,9.6875 7.0051,-0.10415 12.6822,-3.33334 17.0313,-9.6875 4.3488,-6.35411 6.5884,-15.20834 6.7187,-26.5625 -0.1303,-11.35406 -2.3699,-20.20829 -6.7187,-26.5625 -4.3491,-6.35406 -10.0262,-9.58325 -17.0313,-9.6875 z m -400.5,1.25 0,25.71875 20,0 c 3.80201,-0.0669 6.82286,-1.2812 9.0625,-3.625 2.23951,-2.34368 3.38535,-5.43298 3.4375,-9.25 -0.13028,-4.36374 -1.43237,-7.57805 -3.90625,-9.6875 -2.47401,-2.10928 -5.33861,-3.16732 -8.59375,-3.15625 l -20,0 z m 284.6563,0 0,35 11.25,0 c 5.2082,0.0521 9.7916,-1.30204 13.75,-4.0625 3.9582,-2.76035 6.0416,-7.23955 6.25,-13.4375 -0.2084,-6.19782 -2.2918,-10.67702 -6.25,-13.4375 -3.9584,-2.76032 -8.5418,-4.11449 -13.75,-4.0625 l -11.25,0 z m 214.0937,0 c -0.067,12.29169 -1.1786,24.89594 -3.3437,37.8125 -2.1653,12.91665 -4.9778,23.64588 -8.4376,32.1875 l 35.5313,0 0,-70 -23.75,0 z m -498.75,40 0,30 21.25,0 c 4.99992,-0.17856 8.74995,-1.77678 11.25,-4.8125 2.49992,-3.03568 3.74993,-6.43749 3.75,-10.1875 -7e-5,-3.74995 -1.25008,-7.15176 -3.75,-10.1875 -2.50005,-3.03566 -6.25008,-4.63388 -11.25,-4.8125 l -21.25,0 z m -289.84375,24.09375 c 3.08446,0.0781 5.66906,1.1691 7.71875,3.21875 2.04964,2.04968 3.1094,4.60304 3.1875,7.6875 -0.0781,3.08448 -1.13787,5.63784 -3.1875,7.6875 -2.04969,2.04967 -4.63429,3.14068 -7.71875,3.21875 -3.08449,-0.0781 -5.63785,-1.16908 -7.6875,-3.21875 -2.04968,-2.04966 -3.10944,-4.60302 -3.1875,-7.6875 0.0781,-3.08446 1.13782,-5.63782 3.1875,-7.6875 2.04965,-2.04965 4.60301,-3.14066 7.6875,-3.21875 z"
       id="rect17053" />
    <path
       inkscape:connector-curvature="0"
       style="opacity:1;color:#000000;fill:#0d69e1;fill-opacity:1;fill-rule:nonzero;stroke:none;stroke-width:3.54299997999999980;marker:none;visibility:visible;display:inline;overflow:visible;enable-background:accumulate"
       d="m 360,446.86219 c -16.62,0 -30,13.38 -30,30 l 0,127.00002 c 0,16.62 13.38,30 30,30 l 1320,0 c 16.62,0 30,-13.38 30,-30 l 0,-127.00002 c 0,-16.62 -13.38,-30 -30,-30 l -1320,0 z m 1259.0938,11 12.5,0 c -1e-4,3.85428 1.2499,7.08347 3.75,9.6875 2.4999,2.60428 6.2499,3.95845 11.25,4.0625 4.9999,-0.10405 8.7499,-1.45822 11.25,-4.0625 2.4999,-2.60403 3.7499,-5.83322 3.75,-9.6875 l 11.25,0 c -1e-4,5.41677 -2.1876,10.83347 -6.5626,16.25 -4.375,5.41676 -10.9375,8.33344 -19.6874,8.75 -8.8021,-0.41656 -15.573,-3.33324 -20.3126,-8.75 -4.7395,-5.41653 -7.1354,-10.83323 -7.1874,-16.25 z m -1179.3438,30 c 13.72752,0.37541 23.93741,5.4992 30.65625,15.37502 6.7186,9.876 10.08469,22.2523 10.0625,37.125 0.0222,14.8728 -3.3439,27.2491 -10.0625,37.125 -6.71884,9.8759 -16.92873,14.9997 -30.65625,15.375 -12.72901,-0.2991 -22.42818,-4.7382 -29.125,-13.3438 -6.69695,-8.6055 -10.49644,-19.5832 -11.375,-32.9062 l -17,0 0,43.75 -17.5,0 0,-100.00002 17.5,0 0,41.25002 17.21875,0 c 1.20804,-12.6855 5.14626,-23.0825 11.8125,-31.1875 6.66611,-8.10489 16.1491,-12.29131 28.46875,-12.56252 z m 622.7188,0 c 13.7275,0.37956 23.9686,5.51799 30.6874,15.40622 6.7187,9.8885 10.0535,22.2502 10.0313,37.0938 0.022,14.8437 -3.3126,27.2054 -10.0313,37.0937 -6.7188,9.8884 -16.9599,15.0268 -30.6874,15.4063 -13.7277,-0.3795 -23.9376,-5.5179 -30.6563,-15.4063 -6.7187,-9.8883 -10.0536,-22.25 -10.0313,-37.0937 -0.022,-14.8436 3.3126,-27.2053 10.0313,-37.0938 6.7187,-9.88823 16.9286,-15.02666 30.6563,-15.40622 z m 292.0624,0 c 9.4315,0.13031 17.0674,2.68241 22.9063,7.65625 5.8388,4.97407 10.2863,11.58867 13.3437,19.84377 l -16.7812,6.25 c -1.8723,-6.1978 -4.4207,-10.677 -7.6562,-13.4375 -3.2358,-2.7603 -7.18,-4.1145 -11.8126,-4.0625 -7.0052,0.1042 -12.6823,3.3334 -17.0312,9.6875 -4.349,6.3542 -6.5886,15.2084 -6.7188,26.5625 0.1302,11.3541 2.3698,20.2084 6.7188,26.5625 4.3489,6.3541 10.026,9.5833 17.0312,9.6875 4.6326,0.052 8.5768,-1.3021 11.8126,-4.0625 3.2355,-2.7604 5.7839,-7.2396 7.6562,-13.4375 l 16.7812,6.25 c -3.0574,8.2552 -7.5049,14.8698 -13.3437,19.8437 -5.8389,4.974 -13.4748,7.5261 -22.9063,7.6563 -13.7276,-0.3753 -23.9375,-5.4991 -30.6562,-15.375 -6.7187,-9.8759 -10.0848,-22.2522 -10.0625,-37.125 -0.022,-14.8727 3.3438,-27.249 10.0625,-37.125 6.7187,-9.87582 16.9286,-14.99961 30.6562,-15.37502 z m 125.3438,0 3.75,17.50002 c -4.6159,0.072 -8.0406,1.2638 -10.3125,3.5625 -2.2721,2.2988 -4.6808,5.2735 -7.1875,8.9375 -2.5072,3.4758 -5.3841,7.1667 -8.6875,11.0937 -3.3035,3.9271 -6.26,6.0695 -8.8125,6.4063 6.0208,0.7619 10.5624,3.1102 13.625,7.0625 3.0624,3.9524 6.0208,8.6876 8.875,14.1875 3.5822,6.5409 7.1465,12.903 10.6875,19.0937 3.5408,6.1908 7.4766,11.0788 11.8125,14.6563 l -21.7812,0 c -1.8268,-3.4375 -4.6914,-8.4375 -8.5938,-15 -3.9026,-6.5625 -7.5306,-12.8125 -10.875,-18.75 -2.1235,-3.9681 -4.425,-7.0503 -6.9375,-9.2188 -2.5126,-2.1683 -5.6278,-3.2528 -9.3125,-3.2812 -1.4091,0.022 -2.97,0.125 -4.6875,0.2812 -1.7176,0.1563 -2.6567,0.2278 -2.8125,0.25 l 0,45.7188 -17.5,0 0,-100.00002 17.5,0 0,37.31252 c 0.1495,0.1153 0.3071,0.1981 0.4688,0.25 0.1615,0.052 0.4205,0.1061 0.7812,0.125 6.0339,-0.1124 11.194,-3.262 15.4688,-9.4063 4.2746,-6.144 8.9856,-12.4589 14.0937,-18.99997 5.1079,-6.54088 11.9035,-10.47824 20.4375,-11.78125 z m -975.34375,2.5 33.75,0 c 12.34364,0.57301 21.0937,4.4272 26.25,11.56252 5.15615,7.1355 7.65617,14.1147 7.5,20.9375 -0.15633,6.8229 -3.28135,13.8021 -9.375,20.9375 -6.0938,7.1354 -14.21885,10.9896 -24.375,11.5625 l -16.25,0 0,35 -17.5,0 0,-100.00002 z m 94.09375,0 17.5,0 0,38.75002 21.25,0 c 12.23947,0.4167 20.57286,3.6459 25,9.6875 4.42698,6.0417 6.51033,12.3959 6.25,19.0625 0.15616,6.8229 -2.34385,13.8021 -7.5,20.9375 -5.1563,7.1354 -13.90636,10.9896 -26.25,11.5625 l -36.25,0 0,-100.00002 z m 90.28125,0 62.5,0 0,16.25002 -45,0 0,23.75 36.25,0 0,15 -36.25,0 0,30 46.25,0 0,15 -63.75,0 0,-100.00002 z m 90.25,0 38.75,0 c 9.42326,0.32004 16.6614,3.23821 21.6875,8.78125 5.02594,5.54327 7.5453,11.79177 7.59375,18.71877 -0.0485,3.8802 -1.3178,7.6824 -3.84375,11.4062 -2.52611,3.724 -6.01423,6.5886 -10.4375,8.5938 5.10407,1.875 9.27076,4.6875 12.5,8.4375 3.22907,3.75 4.89575,8.4375 5,14.0625 -0.1861,8.3594 -3.24267,15.3906 -9.1875,21.0937 -5.94499,5.7031 -13.65337,8.6719 -23.125,8.9063 l -38.9375,0 0,-100.00002 z m 148.09375,0 72.5,0 0,100.00002 -17.5,0 0,-85 -37.5,0 0,85 -17.5,0 0,-100.00002 z m 211.7188,0 62.5,0 0,100.00002 -17.5,0 0,-85 -27.5,0 c 0.01,0.3859 -0.024,3.7833 -0.063,10.1875 -0.039,6.4044 -0.135,13.4881 -0.3124,21.2812 -0.1776,7.7933 -0.4661,13.9789 -0.875,18.5313 -1.5411,11.4814 -4.9933,19.9109 -10.3438,25.2812 -5.3505,5.3704 -10.5151,8.7998 -15.4688,10.2813 -4.9536,1.4815 -7.5869,2.1227 -7.9374,1.9375 l -2.875,-16.7813 c 0.1928,0.03 1.6718,-0.5153 4.4374,-1.6562 2.7657,-1.1409 5.664,-3.0501 8.6876,-5.7188 3.0235,-2.6686 5.0332,-6.2901 6,-10.8437 0.4089,-2.7777 0.6975,-8.066 0.875,-15.8438 0.1774,-7.7777 0.2738,-16.368 0.3124,-25.8125 0.039,-9.4443 0.07,-18.06588 0.063,-25.84372 z m 89.0624,0 17.5,0 0,38.75002 21.25,0 c 12.2395,0.4167 20.5729,3.6459 25,9.6875 4.427,6.0417 6.5104,12.3959 6.25,19.0625 0.1562,6.8229 -2.3438,13.8021 -7.5,20.9375 -5.1563,7.1354 -13.9063,10.9896 -26.25,11.5625 l -36.25,0 0,-100.00002 z m 283.3438,0 17.5,0 0,68.75002 36.25,-68.75002 18.75,0 0,100.00002 -17.5,0 0,-68.75 -36.25,68.75 -18.75,0 0,-100.00002 z m 98.9688,0 17.5,0 0,68.75002 36.25,-68.75002 18.75,0 0,100.00002 -17.5,0 0,-68.75 -36.25,68.75 -18.75,0 0,-100.00002 z M 439.75,504.11221 c -7.00526,0.1042 -12.68238,3.3334 -17.03125,9.6875 -4.34901,6.3542 -6.58861,15.2084 -6.71875,26.5625 0.13014,11.3541 2.36974,20.2084 6.71875,26.5625 4.34886,6.3541 10.02598,9.5833 17.03125,9.6875 7.00508,-0.1042 12.6822,-3.3334 17.03125,-9.6875 4.34883,-6.3541 6.58843,-15.2084 6.71875,-26.5625 -0.13032,-11.3541 -2.36992,-20.2083 -6.71875,-26.5625 -4.34905,-6.3541 -10.02617,-9.5833 -17.03125,-9.6875 z m 622.7188,0 c -7.0053,0.1042 -12.6824,3.3334 -17.0313,9.6875 -4.349,6.3542 -6.5886,15.2084 -6.7187,26.5625 0.1301,11.3541 2.3697,20.2084 6.7187,26.5625 4.3489,6.3541 10.026,9.5833 17.0313,9.6875 7.0051,-0.1042 12.6822,-3.3334 17.0312,-9.6875 4.3489,-6.3541 6.5885,-15.2084 6.7188,-26.5625 -0.1303,-11.3541 -2.3699,-20.2083 -6.7188,-26.5625 -4.349,-6.3541 -10.0261,-9.5833 -17.0312,-9.6875 z m -540.43755,1.25 0,35 11.25,0 c 5.20826,0.052 9.79162,-1.3021 13.75,-4.0625 3.95826,-2.7604 6.0416,-7.2396 6.25,-13.4375 -0.2084,-6.1978 -2.29175,-10.677 -6.25,-13.4375 -3.95837,-2.7603 -8.54173,-4.1145 -13.75,-4.0625 l -11.25,0 z m 274.625,0 0,25.7187 20,0 c 3.80201,-0.067 6.82286,-1.2812 9.0625,-3.625 2.23951,-2.3436 3.38535,-5.4329 3.4375,-9.25 -0.13028,-4.3637 -1.43237,-7.578 -3.90625,-9.6875 -2.47401,-2.1092 -5.33861,-3.1673 -8.59375,-3.1562 l -20,0 z m -180.53125,38.75 0,31.25 17.5,0 c 5.65096,0 9.97391,-1.25 12.96875,-3.75 2.99471,-2.5 4.50514,-6.25 4.53125,-11.25 -0.0261,-5.052 -1.53654,-9.0104 -4.53125,-11.875 -2.99484,-2.8645 -7.31779,-4.3229 -12.96875,-4.375 l -17.5,0 z m 629.4062,0 0,31.25 17.5,0 c 5.651,0 9.974,-1.25 12.9688,-3.75 2.9947,-2.5 4.5051,-6.25 4.5312,-11.25 -0.026,-5.052 -1.5365,-9.0104 -4.5312,-11.875 -2.9948,-2.8645 -7.3178,-4.3229 -12.9688,-4.375 l -17.5,0 z m -448.87495,1.25 0,30 21.25,0 c 4.99992,-0.1786 8.74995,-1.7768 11.25,-4.8125 2.49992,-3.0357 3.74993,-6.4375 3.75,-10.1875 -7e-5,-3.75 -1.25008,-7.1518 -3.75,-10.1875 -2.50005,-3.0357 -6.25008,-4.6339 -11.25,-4.8125 l -21.25,0 z m 72.84375,2.5 35,0 0,16.25 -35,0 0,-16.25 z"
       id="rect17055" />
    <g
       transform="translate(-2.5e-6,-6.7773437e-6)"
       style="font-size:178.57307434000001000px;font-style:normal;font-variant:normal;font-weight:normal;font-stretch:normal;line-height:125%;letter-spacing:-15.59000015000000000px;word-spacing:0px;opacity:1;fill:#000000;fill-opacity:1;stroke:none;font-family:Arial;-inkscape-font-specification:Arial"
       id="text16919">
      <path
         inkscape:connector-curvature="0"
         d="m 96.249941,735.36244 0,69.99974 14.999949,0 0,-56.24979 33.74987,0 0,-13.74995 z"
         style="fill:#000000;font-family:Russian Road Sign;-inkscape-font-specification:Russian Road Sign"
         id="path17060" />
      <path
         inkscape:connector-curvature="0"
         d="m 184.39658,732.86245 c -9.5573,0.15632 -17.31768,3.59381 -23.28117,10.31246 -5.96354,6.71878 -9.03644,15.78124 -9.21872,27.1874 0.18228,11.40623 3.25519,20.46869 9.21872,27.1874 5.9635,6.71873 13.72388,10.15621 23.28117,10.31246 9.55719,-0.15625 17.31757,-3.59373 23.28116,-10.31246 5.96344,-6.71871 9.03635,-15.78117 9.21872,-27.1874 -0.18237,-11.40616 -3.25527,-20.46862 -9.21872,-27.18741 -5.96359,-6.71865 -13.72397,-10.15614 -23.28116,-10.31245 z m 0,12.49995 c 5.10409,0.10423 9.27074,2.39588 12.49995,6.87497 3.22909,4.4792 4.89575,10.52084 4.99998,18.12494 -0.10422,7.60417 -1.77088,13.64581 -4.99998,18.12493 -3.22921,4.47916 -7.39586,6.77082 -12.49995,6.87498 -5.10419,-0.10416 -9.27084,-2.39581 -12.49996,-6.87498 -3.22919,-4.47913 -4.89584,-10.52077 -4.99998,-18.12493 0.10414,-7.6041 1.7708,-13.64574 4.99998,-18.12494 3.22912,-4.47909 7.39577,-6.77074 12.49996,-6.87497 z"
         style="fill:#000000;font-family:Russian Road Sign;-inkscape-font-specification:Russian Road Sign"
         id="path17062" />
      <path
         inkscape:connector-curvature="0"
         d="m 258.79067,732.86245 c -9.60938,0.15632 -17.57809,3.59381 -23.90617,10.31246 -6.32811,6.71878 -9.60935,15.78124 -9.84371,27.1874 0.23437,11.40623 3.5156,20.46869 9.84372,27.1874 6.32807,6.71873 14.29678,10.15621 23.90616,10.31246 7.04233,-0.0484 13.1807,-1.91591 18.41511,-5.60266 5.23428,-3.68673 9.09587,-8.90248 11.58478,-15.64726 l -14.10709,-5.35712 c -1.36539,4.57217 -3.41151,8.06174 -6.13838,10.46871 -2.72697,2.40699 -5.97845,3.61978 -9.75442,3.63838 -5.10419,-0.10416 -9.27083,-2.39581 -12.49996,-6.87498 -3.22918,-4.47913 -4.89584,-10.52077 -4.99998,-18.12493 0.10414,-7.6041 1.7708,-13.64574 4.99998,-18.12494 3.22912,-4.47909 7.39577,-6.77074 12.49996,-6.87497 3.77597,0.0187 7.02745,1.23146 9.75442,3.63838 2.72687,2.40704 4.77299,5.89661 6.13838,10.46871 l 14.10709,-5.35712 c -2.48891,-6.74471 -6.3505,-11.96046 -11.58478,-15.64727 -5.23441,-3.68667 -11.37278,-5.55422 -18.41511,-5.60265 z"
         style="fill:#000000;font-family:Russian Road Sign;-inkscape-font-specification:Russian Road Sign"
         id="path17064" />
      <path
         inkscape:connector-curvature="0"
         d="m 292.2306,735.36244 0,13.74995 21.07135,0 0,56.24979 14.99995,0 0,-56.24979 20.89278,0 0,-13.74995 z"
         style="fill:#000000;font-family:Russian Road Sign;-inkscape-font-specification:Russian Road Sign"
         id="path17066" />
      <path
         inkscape:connector-curvature="0"
         d="m 373.59154,795.36222 c -0.0781,-3.08446 -1.14196,-5.65153 -3.1916,-7.70122 -2.04969,-2.04965 -4.61676,-3.11351 -7.70122,-3.1916 -3.0845,0.0781 -5.65156,1.14196 -7.70122,3.1916 -2.04968,2.04969 -3.11354,4.61676 -3.1916,7.70122 0.0781,3.08448 1.14193,5.65155 3.1916,7.70121 2.04966,2.04967 4.61672,3.11354 7.70122,3.19161 3.08446,-0.0781 5.65153,-1.14193 7.70122,-3.1916 2.04963,-2.04967 3.1135,-4.61674 3.1916,-7.70122 z"
         style="fill:#000000;font-family:Russian Road Sign;-inkscape-font-specification:Russian Road Sign"
         id="path17068" />
      <path
         inkscape:connector-curvature="0"
         d="m 507.16446,705.36255 0,99.99963 38.92843,0 c 9.47163,-0.23437 17.17992,-3.20311 23.12491,-8.90621 5.94484,-5.70309 9.0103,-12.73431 9.1964,-21.09368 -0.10425,-5.62494 -1.77091,-10.31242 -4.99998,-14.06245 -3.22924,-3.74994 -7.39589,-6.56242 -12.49996,-8.43747 4.42327,-2.00514 7.89796,-4.86972 10.42407,-8.59372 2.52595,-3.72388 3.81315,-7.52594 3.8616,-11.4062 -0.0485,-6.92698 -2.58564,-13.16207 -7.61158,-18.70529 -5.0261,-5.54304 -12.25077,-8.47457 -21.67403,-8.79461 z m 17.49994,14.99994 19.99992,0 c 3.25514,-0.0111 6.11971,1.03803 8.59372,3.14732 2.47389,2.10944 3.77596,5.34604 3.90624,9.70978 -0.0521,3.81702 -1.19798,6.89736 -3.43749,9.24104 -2.23964,2.3438 -5.26046,3.54915 -9.06247,3.61606 l -19.99992,0 z m 0,39.99986 21.24992,0 c 4.99992,0.17861 8.7499,1.78575 11.24996,4.82141 2.49992,3.03574 3.74991,6.42858 3.74998,10.17853 -7e-5,3.75001 -1.25006,7.14286 -3.74998,10.17854 -2.50006,3.03572 -6.25004,4.64285 -11.24996,4.82141 l -21.24992,0 z"
         style="letter-spacing:-9px;fill:#000000"
         id="path17070" />
      <path
         inkscape:connector-curvature="0"
         d="m 612.01298,705.36255 c 0.008,7.77784 -0.008,16.38891 -0.0463,25.83323 -0.0386,9.44448 -0.14663,18.05555 -0.32407,25.83324 -0.1775,7.77779 -0.4707,13.05555 -0.87962,15.83328 -0.96674,4.55358 -2.96188,8.16468 -5.98543,10.83329 -3.0236,2.66866 -5.91821,4.57341 -8.68383,5.71426 -2.76566,1.14089 -4.24493,1.69644 -4.43782,1.66667 l 2.85714,16.78565 c 0.35051,0.18518 3.00261,-0.46296 7.95631,-1.94444 4.95366,-1.48147 10.10575,-4.90738 15.4563,-10.27774 5.35047,-5.37033 8.79622,-13.79622 10.33726,-25.27768 0.4089,-4.55241 0.70211,-10.72522 0.87963,-18.51845 0.17742,-7.79312 0.28544,-14.89186 0.32407,-21.29622 0.0385,-6.40422 0.054,-9.79926 0.0463,-10.18515 l 27.4999,0 0,84.99969 17.49993,0 0,-99.99963 z"
         style="letter-spacing:-9px;fill:#000000"
         id="path17072" />
      <path
         inkscape:connector-curvature="0"
         d="m 724.3309,770.36231 12.49995,-42.49984 12.49996,42.49984 z m 2.49999,-64.99976 -32.49988,99.99963 18.74993,0 6.24998,-19.99992 34.99987,0 6.24998,19.99992 18.74993,0 -32.49988,-99.99963 z"
         style="letter-spacing:-9px;fill:#000000"
         id="path17074" />
      <path
         inkscape:connector-curvature="0"
         d="m 813.94526,705.36255 0,14.99994 c -0.0463,8.22205 -0.64817,16.91689 -1.80555,26.08456 -1.15744,9.16778 -2.59262,17.69067 -4.30555,25.56869 -1.71297,7.87808 -3.42593,13.99357 -5.13886,18.3465 l -11.24996,0 0,32.49988 14.99995,0 0,-17.49994 62.49977,0 0,17.49994 14.99994,0 0,-32.49988 -11.24996,0 0,-77.49972 0,-7.49997 z m 17.49994,14.99994 23.74991,0 0,69.99975 -35.53559,0 c 3.45977,-8.54162 6.27226,-19.27074 8.43747,-32.18739 2.16512,-12.91656 3.28119,-25.52066 3.34821,-37.81236 z"
         style="letter-spacing:-9px;fill:#000000"
         id="path17076" />
      <path
         inkscape:connector-curvature="0"
         d="m 972.30937,805.36218 0,-99.99963 -18.74993,0 -36.24987,68.74975 0,-68.74975 -17.49994,0 0,99.99963 18.74993,0 36.24987,-68.74975 0,68.74975 z"
         style="letter-spacing:-9px;fill:#000000"
         id="path17078" />
      <path
         inkscape:connector-curvature="0"
         d="m 990.79104,805.36218 18.74996,0 6.2499,-73.74973 26.2499,58.74979 26.25,-58.74979 6.2499,73.74973 18.75,0 -11.25,-99.99963 -17.4999,0 -22.5,48.74982 -22.4999,-48.74982 -17.4999,0 z"
         style="letter-spacing:-9px;fill:#000000"
         id="path17080" />
      <path
         inkscape:connector-curvature="0"
         d="m 1184.1524,805.36218 0,-99.99963 -18.7499,0 -36.2499,68.74975 0,-68.74975 -17.4999,0 0,99.99963 18.7499,0 36.2499,-68.74975 0,68.74975 z"
         style="letter-spacing:-9px;fill:#000000"
         id="path17082" />
      <path
         inkscape:connector-curvature="0"
         d="m 1207.6341,705.36255 0,99.99963 17.4999,0 0,-34.99987 16.25,0 c 10.1561,-0.57288 18.2811,-4.42702 24.3749,-11.56246 6.0936,-7.13534 9.2186,-14.11447 9.3749,-20.93742 0.1562,-6.82282 -2.3438,-13.80196 -7.4999,-20.93743 -5.1563,-7.1353 -13.9063,-10.98944 -26.2499,-11.56245 z m 17.4999,14.99994 11.25,0 c 5.2083,-0.052 9.7916,1.30217 13.7499,4.06249 3.9583,2.76048 6.0416,7.23963 6.25,13.43745 -0.2084,6.19795 -2.2917,10.6771 -6.25,13.43745 -3.9583,2.76045 -8.5416,4.11462 -13.7499,4.06249 l -11.25,0 z"
         style="letter-spacing:-9px;fill:#000000"
         id="path17084" />
    </g>
    <g
       transform="translate(-2.5e-6,-6.7773437e-6)"
       style="font-size:178.57307434000001000px;font-style:normal;font-variant:normal;font-weight:normal;font-stretch:normal;line-height:125%;letter-spacing:-5.50000000000000000px;word-spacing:0px;opacity:1;fill:#000000;fill-opacity:1;stroke:none;font-family:Arial;-inkscape-font-specification:Arial"
       id="text16923">
      <path
         inkscape:connector-curvature="0"
         d="m 552.58499,941.36218 22.49992,0 27.4999,-99.99963 -18.74993,0 -19.99993,74.99972 -19.99992,-74.99972 -19.99993,0 z"
         style="fill:#000000;font-family:Russian Road Sign;-inkscape-font-specification:Russian Road Sign"
         id="path17108" />
      <path
         inkscape:connector-curvature="0"
         d="m 625.67142,941.36218 62.49977,0 0,-14.99994 -44.99984,0 0,-84.99969 -17.49993,0 z"
         style="fill:#000000;font-family:Russian Road Sign;-inkscape-font-specification:Russian Road Sign"
         id="path17110" />
      <path
         inkscape:connector-curvature="0"
         d="m 736.40541,906.36231 12.49995,-42.49984 12.49996,42.49984 z m 2.49999,-64.99976 -32.49988,99.99963 18.74993,0 6.24998,-19.99992 34.99987,0 6.24998,19.99992 18.74993,0 -32.49988,-99.99963 z"
         style="fill:#000000;font-family:Russian Road Sign;-inkscape-font-specification:Russian Road Sign"
         id="path17112" />
      <path
         inkscape:connector-curvature="0"
         d="m 848.26968,841.36255 -33.74987,0 0,99.99963 33.74987,0 c 13.83173,-0.2753 24.47156,-4.99254 31.91953,-14.15173 7.4478,-9.15917 11.21266,-21.10852 11.2946,-35.84808 -0.0819,-14.73947 -3.8468,-26.68882 -11.2946,-35.84809 -7.44797,-9.1591 -18.0878,-13.87634 -31.91953,-14.15173 z m -1.24999,14.99994 c 7.10929,-0.0259 13.20301,2.83862 18.28118,8.59372 5.07803,5.75526 7.73427,14.5573 7.96872,26.40616 -0.23444,11.84895 -2.89068,20.65099 -7.96872,26.40615 -5.07817,5.7552 -11.17189,8.61977 -18.28118,8.59372 l -14.99995,0 0,-69.99975 z"
         style="fill:#000000;font-family:Russian Road Sign;-inkscape-font-specification:Russian Road Sign"
         id="path17114" />
      <path
         inkscape:connector-curvature="0"
         d="m 914.00122,941.36218 17.49994,0 0,-99.99963 -17.49994,0 z"
         style="fill:#000000;font-family:Russian Road Sign;-inkscape-font-specification:Russian Road Sign"
         id="path17116" />
      <path
         inkscape:connector-curvature="0"
         d="m 957.12614,941.36218 17.49993,0 0,-72.49973 29.99993,52.49981 29.9999,-52.49981 1.2499,72.49973 16.25,0 0,-99.99963 -19.9999,0 -27.4999,46.24983 -27.49994,-46.24983 -19.99992,0 z"
         style="fill:#000000;font-family:Russian Road Sign;-inkscape-font-specification:Russian Road Sign"
         id="path17118" />
      <path
         inkscape:connector-curvature="0"
         d="m 1077.7378,941.36218 17.4999,0 0,-99.99963 -17.4999,0 z"
         style="fill:#000000;font-family:Russian Road Sign;-inkscape-font-specification:Russian Road Sign"
         id="path17120" />
      <path
         inkscape:connector-curvature="0"
         d="m 1123.3627,841.36255 0,99.99963 17.4999,0 0,-39.99985 10,0 c 5.4122,0.11533 9.3177,1.61359 11.7164,4.49476 2.3985,2.88125 4.5663,6.45369 6.5033,10.71733 2.284,4.63859 4.3419,9.24307 6.1737,13.81343 1.8318,4.57039 3.7006,8.22849 5.6065,10.97433 l 21.2499,0 c -3.6421,-2.07561 -6.9137,-6.53547 -9.8148,-13.37958 -2.9013,-6.84409 -6.0803,-13.61875 -9.537,-20.324 -3.4569,-6.70518 -7.8395,-10.88726 -13.1481,-12.54625 5.1562,-1.87494 9.5311,-4.99993 13.1249,-9.37497 3.5937,-4.37492 5.4687,-9.99989 5.625,-16.87493 0.2604,-5.52073 -1.823,-11.35404 -6.2499,-17.49994 -4.4272,-6.14572 -12.7605,-9.47903 -25,-9.99996 z m 17.4999,14.99994 11.25,0 c 5.1561,-0.0445 9.5311,1.11615 13.1249,3.48213 3.5937,2.36614 5.4687,6.20541 5.625,11.51782 -0.1563,5.31254 -2.0313,9.15181 -5.625,11.51781 -3.5938,2.36612 -7.9688,3.52683 -13.1249,3.48213 l -11.25,0 z"
         style="fill:#000000;font-family:Russian Road Sign;-inkscape-font-specification:Russian Road Sign"
         id="path17122" />
    </g>
    <path
       sodipodi:nodetypes="ccccsssccsccc"
       inkscape:connector-curvature="0"
       d="m 114.26414,841.36213 -15.681753,0 0,100.0001 15.681753,0 0,-45.0001 c 0,-6.9576 8.28702,-13 16.2046,-13 5.16915,0 9.93182,3.2684 9.93182,8 l 0,50.0001 15.6818,0 0,-50.0001 c 0,-11.7601 -8.08047,-22.5 -22.2159,-22.5 -6.41052,0 -13.48255,3.105 -19.60295,7.7266 z"
       style="opacity:1;color:#000000;fill:#000000;fill-opacity:1;stroke:none;stroke-width:5;marker:none;visibility:visible;display:inline;overflow:visible;enable-background:accumulate"
       id="path4362" />
    <path
       sodipodi:nodetypes="ssssssssss"
       inkscape:connector-curvature="0"
       id="path4403"
       d="m 199.36971,868.86223 c -18.75,0 -32.5,15 -32.5,37.5 0,22.5 13.75,37.5 32.5,37.5 18.75,0 32.5,-15 32.5,-37.5 0,-22.5 -13.75,-37.5 -32.5,-37.5 z m 0,12.5 c 10,0 17.5,10 17.5,25 0,15 -7.5,25 -17.5,25 -10,0 -17.5,-10 -17.5,-25 0,-15 7.5,-25 17.5,-25 z"
       style="opacity:1;color:#000000;fill:#000000;stroke:none;stroke-width:1.79743396999999990;marker:none;visibility:visible;display:inline;overflow:visible;enable-background:accumulate" />
    <path
       sodipodi:nodetypes="ccccccccccccccccc"
       inkscape:connector-curvature="0"
       id="path4423"
       d="m 266.2973,841.36223 -15,5 0,25 -12.00001,0 0,14 12.00001,0 0,43.5 c 0,5.9655 8.16397,15 18,15 6.13142,-0.011 11.46495,-0.3746 18.2112,-2.5895 l -3.05458,-13.4366 c -3.152,0.9673 -6.06987,2.0261 -10.15662,2.0261 -3.85208,0 -8,-2.3793 -8,-6 l 0,-38.5 18,0 0,-14 -18,0 z"
       style="opacity:1;fill:#000000;fill-opacity:1;stroke:none" />
    <path
       style="opacity:1;color:#000000;fill:#000000;stroke:none;stroke-width:1.79743396999999990;marker:none;visibility:visible;display:inline;overflow:visible;enable-background:accumulate"
       d="m 327.61715,881.36213 c 7.36613,-0.2837 16.25,7.6284 16.25,15 0,1.25 -0.35715,2.5 -1.25,2.5 l -31.25,0 c 0,-12.5 8.2955,-17.1936 16.25,-17.5 z m 28.75,30 c 2.08333,0 3.75,-3.75 3.75,-7.5 0,-18.75 -15,-35 -32.5,-35 -9.53047,0 -19.62807,4.9496 -25.7143,12.5 -5.08937,6.3138 -6.9802,14.1842 -7.14285,25 -0.3383,22.4975 16.60715,37.5 35.35715,37.5 8.75,0 18.39285,-5 27.14285,-16.25 l -12.14285,-6.9642 c -5,6.25 -8.75,9.4642 -15,9.4642 -6.25,0 -18.75,-3.75 -18.75,-18.75 z"
       id="path4429"
       inkscape:connector-curvature="0"
       sodipodi:nodetypes="asscascssssccscs" />
    <path
       id="path4438"
       d="m 375.96511,841.36213 15,0 0,100.0001 -15,0 z"
       style="opacity:1;color:#000000;fill:#000000;fill-opacity:1;fill-rule:nonzero;stroke:none;stroke-width:3.54299997999999980;marker:none;visibility:visible;display:inline;overflow:visible;enable-background:accumulate"
       inkscape:connector-curvature="0" />
    <path
       sodipodi:nodetypes="cccccccc"
       inkscape:connector-curvature="0"
       d="m 164,268.36223 -48,0 75,-129.90382 75,129.90382 -48,0 1,99.99996 -54,0 z"
       style="opacity:1;color:#000000;fill:#000000;fill-opacity:1;fill-rule:nonzero;stroke:none;stroke-width:1px;marker:none;visibility:visible;display:inline;overflow:visible;enable-background:accumulate"
       id="path17010" />
    <path
       id="path17012"
       style="opacity:1;color:#000000;fill:#000000;fill-opacity:1;fill-rule:nonzero;stroke:none;stroke-width:1px;marker:none;visibility:visible;display:inline;overflow:visible;enable-background:accumulate"
       d="m 200.00004,564.36221 0,48 -129.903823,-75 129.903823,-75.00002 0,48.00002 99.99996,-1 0,54 z"
       inkscape:connector-curvature="0"
       sodipodi:nodetypes="cccccccc" />
    <path
       sodipodi:nodetypes="cccccccc"
       inkscape:connector-curvature="0"
       d="m 1574,869.36223 0,48 129.9038,-75 -129.9038,-75 0,48 -100,-1 0,54 z"
       style="opacity:1;color:#000000;fill:#000000;fill-opacity:1;fill-rule:nonzero;stroke:none;stroke-width:1px;marker:none;visibility:visible;display:inline;overflow:visible;enable-background:accumulate"
       id="path17016" />
    <g
       transform="translate(-2.5e-6,-6.7773437e-6)"
       style="font-size:178.57307434000001000px;font-style:normal;font-variant:normal;font-weight:normal;font-stretch:normal;line-height:125%;letter-spacing:-15px;word-spacing:0px;opacity:1;fill:#000000;fill-opacity:1;stroke:none;font-family:Arial;-inkscape-font-specification:Arial"
       id="text7949-2">
      <path
         inkscape:connector-curvature="0"
         d="m 451.68366,705.36219 c -2.83855,0.0708 -5.19717,1.04547 -7.07587,2.9241 -1.87872,1.87879 -2.85342,4.23741 -2.92409,7.07587 0.0707,2.8386 1.04537,5.19721 2.92409,7.07586 1.8787,1.87877 4.23732,2.85347 7.07587,2.9241 0.63614,0.004 1.28346,-0.0483 1.94196,-0.15625 0.65846,-0.10782 1.26113,-0.29384 1.80803,-0.55803 l 0,1.24999 c -0.3274,3.19573 -1.63692,5.82221 -3.92856,7.87944 -2.29168,2.05733 -3.60119,3.12131 -3.92855,3.19195 l 1.24999,3.03571 c 0.55801,-0.052 2.79015,-1.82287 6.6964,-5.31249 3.90621,-3.48951 6.13834,-8.38532 6.69641,-14.68744 -0.0968,-4.27819 -0.61759,-7.28413 -1.5625,-9.01783 -0.94496,-1.73355 -1.73365,-2.77521 -2.36606,-3.12498 -0.90032,-0.72909 -1.91222,-1.32432 -3.0357,-1.78571 -1.12353,-0.46123 -2.314,-0.69933 -3.57142,-0.71429 z"
         style="fill:#000000;font-family:Russian Road Sign;-inkscape-font-specification:Russian Road Sign"
         id="path17087" />
      <path
         inkscape:connector-curvature="0"
         d="m 480.28061,705.36219 c -2.83856,0.0708 -5.19718,1.04547 -7.07588,2.9241 -1.87872,1.87879 -2.85342,4.23741 -2.92409,7.07587 0.0707,2.8386 1.04537,5.19721 2.9241,7.07586 1.87869,1.87877 4.23731,2.85347 7.07587,2.9241 0.63613,0.004 1.28345,-0.0483 1.94195,-0.15625 0.65846,-0.10782 1.26114,-0.29384 1.80803,-0.55803 l 0,1.24999 c -0.3274,3.19573 -1.63692,5.82221 -3.92855,7.87944 -2.29168,2.05733 -3.6012,3.12131 -3.92856,3.19195 l 1.24999,3.03571 c 0.55802,-0.052 2.79015,-1.82287 6.6964,-5.31249 3.90621,-3.48951 6.13834,-8.38532 6.69641,-14.68744 -0.0967,-4.27819 -0.61758,-7.28413 -1.56249,-9.01783 -0.94497,-1.73355 -1.73366,-2.77521 -2.36607,-3.12498 -0.90032,-0.72909 -1.91222,-1.32432 -3.0357,-1.78571 -1.12353,-0.46123 -2.314,-0.69933 -3.57141,-0.71429 z"
         style="fill:#000000;font-family:Russian Road Sign;-inkscape-font-specification:Russian Road Sign"
         id="path17090" />
    </g>
    <g
       transform="translate(-2.5e-6,-6.7773437e-6)"
       style="font-size:178.57307434000001000px;font-style:normal;font-variant:normal;font-weight:normal;font-stretch:normal;line-height:125%;letter-spacing:-15px;word-spacing:0px;opacity:1;fill:#000000;fill-opacity:1;stroke:none;font-family:Arial;-inkscape-font-specification:Arial"
       id="text17041">
      <path
         inkscape:connector-curvature="0"
         d="m 1307.0966,705.36219 c -2.8386,0.0708 -5.1972,1.04547 -7.0759,2.9241 -1.8787,1.87879 -2.8534,4.23741 -2.9241,7.07587 0.071,2.8386 1.0454,5.19721 2.9241,7.07586 1.8787,1.87877 4.2373,2.85347 7.0759,2.9241 0.6361,0.004 1.2834,-0.0483 1.9419,-0.15625 0.6585,-0.10782 1.2612,-0.29384 1.8081,-0.55803 l 0,1.24999 c -0.3275,3.19573 -1.637,5.82221 -3.9286,7.87944 -2.2917,2.05733 -3.6012,3.12131 -3.9286,3.19195 l 1.25,3.03571 c 0.558,-0.052 2.7902,-1.82287 6.6964,-5.31249 3.9062,-3.48951 6.1384,-8.38532 6.6964,-14.68744 -0.097,-4.27819 -0.6175,-7.28413 -1.5625,-9.01783 -0.9449,-1.73355 -1.7336,-2.77521 -2.366,-3.12498 -0.9003,-0.72909 -1.9122,-1.32432 -3.0357,-1.78571 -1.1236,-0.46123 -2.314,-0.69933 -3.5714,-0.71429 z"
         style="fill:#000000;font-family:Russian Road Sign;-inkscape-font-specification:Russian Road Sign"
         id="path17093" />
      <path
         inkscape:connector-curvature="0"
         d="m 1335.6935,705.36219 c -2.8385,0.0708 -5.1972,1.04547 -7.0759,2.9241 -1.8787,1.87879 -2.8534,4.23741 -2.9241,7.07587 0.071,2.8386 1.0454,5.19721 2.9241,7.07586 1.8787,1.87877 4.2374,2.85347 7.0759,2.9241 0.6361,0.004 1.2835,-0.0483 1.942,-0.15625 0.6584,-0.10782 1.2611,-0.29384 1.808,-0.55803 l 0,1.24999 c -0.3274,3.19573 -1.6369,5.82221 -3.9286,7.87944 -2.2916,2.05733 -3.6012,3.12131 -3.9285,3.19195 l 1.25,3.03571 c 0.558,-0.052 2.7901,-1.82287 6.6964,-5.31249 3.9062,-3.48951 6.1383,-8.38532 6.6964,-14.68744 -0.097,-4.27819 -0.6176,-7.28413 -1.5625,-9.01783 -0.945,-1.73355 -1.7337,-2.77521 -2.3661,-3.12498 -0.9003,-0.72909 -1.9122,-1.32432 -3.0357,-1.78571 -1.1235,-0.46123 -2.314,-0.69933 -3.5714,-0.71429 z"
         style="fill:#000000;font-family:Russian Road Sign;-inkscape-font-specification:Russian Road Sign"
         id="path17095" />
    </g>
    <g
       transform="translate(-2.5e-6,-6.7773437e-6)"
       style="font-size:178.57307434000001000px;font-style:normal;font-variant:normal;font-weight:normal;font-stretch:normal;line-height:125%;letter-spacing:-15px;word-spacing:0px;opacity:1;fill:#000000;fill-opacity:1;stroke:none;font-family:Arial;-inkscape-font-specification:Arial"
       id="text17045">
      <path
         inkscape:connector-curvature="0"
         d="m 471.66831,841.36219 c -2.83855,0.0708 -5.19717,1.04547 -7.07587,2.9241 -1.87872,1.87879 -2.85342,4.23741 -2.92409,7.07587 0.0707,2.8386 1.04537,5.19721 2.92409,7.07586 1.8787,1.87877 4.23732,2.85347 7.07587,2.9241 0.63614,0.004 1.28346,-0.0483 1.94196,-0.15625 0.65846,-0.10782 1.26113,-0.29384 1.80803,-0.55803 l 0,1.24999 c -0.3274,3.19573 -1.63692,5.82221 -3.92856,7.87944 -2.29168,2.05733 -3.6012,3.12131 -3.92856,3.19195 l 1.25,3.03571 c 0.55801,-0.052 2.79014,-1.82287 6.6964,-5.31249 3.90621,-3.48951 6.13834,-8.38532 6.69641,-14.68744 -0.0968,-4.27819 -0.61759,-7.28413 -1.5625,-9.01783 -0.94496,-1.73355 -1.73365,-2.77521 -2.36606,-3.12498 -0.90032,-0.72909 -1.91222,-1.32432 -3.0357,-1.78571 -1.12353,-0.46123 -2.314,-0.69933 -3.57142,-0.71429 z"
         style="fill:#000000;font-family:Russian Road Sign;-inkscape-font-specification:Russian Road Sign"
         id="path17098" />
      <path
         inkscape:connector-curvature="0"
         d="m 500.26526,841.36219 c -2.83856,0.0708 -5.19718,1.04547 -7.07588,2.9241 -1.87872,1.87879 -2.85342,4.23741 -2.92409,7.07587 0.0707,2.8386 1.04537,5.19721 2.9241,7.07586 1.87869,1.87877 4.23731,2.85347 7.07587,2.9241 0.63613,0.004 1.28345,-0.0483 1.94195,-0.15625 0.65846,-0.10782 1.26114,-0.29384 1.80803,-0.55803 l 0,1.24999 c -0.3274,3.19573 -1.63692,5.82221 -3.92856,7.87944 -2.29167,2.05733 -3.60119,3.12131 -3.92855,3.19195 l 1.24999,3.03571 c 0.55802,-0.052 2.79015,-1.82287 6.6964,-5.31249 3.90621,-3.48951 6.13834,-8.38532 6.69641,-14.68744 -0.0967,-4.27819 -0.61759,-7.28413 -1.56249,-9.01783 -0.94497,-1.73355 -1.73366,-2.77521 -2.36607,-3.12498 -0.90032,-0.72909 -1.91222,-1.32432 -3.0357,-1.78571 -1.12353,-0.46123 -2.314,-0.69933 -3.57141,-0.71429 z"
         style="fill:#000000;font-family:Russian Road Sign;-inkscape-font-specification:Russian Road Sign"
         id="path17100" />
    </g>
    <g
       transform="translate(-2.5e-6,-6.7773437e-6)"
       style="font-size:178.57307434000001000px;font-style:normal;font-variant:normal;font-weight:normal;font-stretch:normal;line-height:125%;letter-spacing:-15px;word-spacing:0px;opacity:1;fill:#000000;fill-opacity:1;stroke:none;font-family:Arial;-inkscape-font-specification:Arial"
       id="text17049">
      <path
         inkscape:connector-curvature="0"
         d="m 1221.8081,841.36219 c -2.8385,0.0708 -5.1972,1.04547 -7.0759,2.9241 -1.8787,1.87879 -2.8534,4.23741 -2.924,7.07587 0.071,2.8386 1.0453,5.19721 2.924,7.07586 1.8787,1.87877 4.2374,2.85347 7.0759,2.9241 0.6361,0.004 1.2835,-0.0483 1.942,-0.15625 0.6584,-0.10782 1.2611,-0.29384 1.808,-0.55803 l 0,1.24999 c -0.3274,3.19573 -1.6369,5.82221 -3.9286,7.87944 -2.2916,2.05733 -3.6012,3.12131 -3.9285,3.19195 l 1.25,3.03571 c 0.558,-0.052 2.7901,-1.82287 6.6964,-5.31249 3.9062,-3.48951 6.1383,-8.38532 6.6964,-14.68744 -0.097,-4.27819 -0.6176,-7.28413 -1.5625,-9.01783 -0.945,-1.73355 -1.7337,-2.77521 -2.3661,-3.12498 -0.9003,-0.72909 -1.9122,-1.32432 -3.0357,-1.78571 -1.1235,-0.46123 -2.314,-0.69933 -3.5714,-0.71429 z"
         style="fill:#000000;font-family:Russian Road Sign;-inkscape-font-specification:Russian Road Sign"
         id="path17103" />
      <path
         inkscape:connector-curvature="0"
         d="m 1250.4051,841.36219 c -2.8386,0.0708 -5.1972,1.04547 -7.0759,2.9241 -1.8787,1.87879 -2.8534,4.23741 -2.9241,7.07587 0.071,2.8386 1.0454,5.19721 2.9241,7.07586 1.8787,1.87877 4.2373,2.85347 7.0759,2.9241 0.6361,0.004 1.2834,-0.0483 1.9419,-0.15625 0.6585,-0.10782 1.2611,-0.29384 1.808,-0.55803 l 0,1.24999 c -0.3274,3.19573 -1.6369,5.82221 -3.9285,7.87944 -2.2917,2.05733 -3.6012,3.12131 -3.9286,3.19195 l 1.25,3.03571 c 0.558,-0.052 2.7902,-1.82287 6.6964,-5.31249 3.9062,-3.48951 6.1384,-8.38532 6.6964,-14.68744 -0.097,-4.27819 -0.6176,-7.28413 -1.5625,-9.01783 -0.9449,-1.73355 -1.7336,-2.77521 -2.366,-3.12498 -0.9003,-0.72909 -1.9122,-1.32432 -3.0357,-1.78571 -1.1236,-0.46123 -2.314,-0.69933 -3.5714,-0.71429 z"
         style="fill:#000000;font-family:Russian Road Sign;-inkscape-font-specification:Russian Road Sign"
         id="path17105" />
    </g>
    <path
       inkscape:connector-curvature="0"
       style="opacity:1;color:#000000;fill:#000000;fill-opacity:1;fill-rule:nonzero;stroke:none;stroke-width:3.54299997999999980;marker:none;visibility:visible;display:inline;overflow:visible;enable-background:accumulate"
       d="m 44.999998,84.362193 c -18.282,0 -33,14.718 -33,32.999997 l 0,890.00001 c 0,18.282 14.718,33 33,33 l 1690.000002,0 c 18.282,0 33,-14.718 33,-33 l 0,-890.00001 c 0,-18.281997 -14.718,-32.999997 -33,-32.999997 l -1690.000002,0 z m 0,6 1690.000002,0 c 14.958,0 27,12.041997 27,26.999997 l 0,283.5 -1744.000002,0 0,-283.5 c 0,-14.958 12.042,-26.999997 27,-26.999997 z m -27,320.499997 1744.000002,0 0,259.00004 -1744.000002,0 0,-259.00004 z m 0,269.00004 1744.000002,0 0,327.49997 c 0,14.958 -12.042,27 -27,27 l -1690.000002,0 c -14.958,0 -27,-12.042 -27,-27 l 0,-327.49997 z"
       id="rect17128" />
    <rect
       style="opacity:1;color:#000000;fill:none;stroke:#000000;stroke-width:2;stroke-miterlimit:4;stroke-opacity:1;stroke-dasharray:none;marker:none;visibility:visible;display:inline;overflow:visible;enable-background:accumulate"
       id="rect17148"
       width="1778"
       height="978"
       x="1"
       y="73.362183"
       ry="44"
       rx="44" />
  </g>
</svg>
