<?xml version="1.0" encoding="UTF-8" standalone="no"?>
<!-- Created with Inkscape (http://www.inkscape.org/) -->

<svg
   xmlns:dc="http://purl.org/dc/elements/1.1/"
   xmlns:cc="http://creativecommons.org/ns#"
   xmlns:rdf="http://www.w3.org/1999/02/22-rdf-syntax-ns#"
   xmlns:svg="http://www.w3.org/2000/svg"
   xmlns="http://www.w3.org/2000/svg"
   xmlns:sodipodi="http://sodipodi.sourceforge.net/DTD/sodipodi-0.dtd"
   xmlns:inkscape="http://www.inkscape.org/namespaces/inkscape"
   width="1050"
   height="350"
   id="svg2"
   version="1.1"
   inkscape:version="0.48.4 r9939"
   sodipodi:docname="6.18.1.svg">
  <title
     id="title3002">6.18.1 Направление объезда</title>
  <defs
     id="defs4" />
  <sodipodi:namedview
     id="base"
     pagecolor="#ffffff"
     bordercolor="#666666"
     borderopacity="1.0"
     inkscape:pageopacity="0.0"
     inkscape:pageshadow="2"
     inkscape:zoom="1"
     inkscape:cx="496.96095"
     inkscape:cy="260.38217"
     inkscape:document-units="px"
     inkscape:current-layer="layer1"
     showgrid="false"
     inkscape:window-width="1920"
     inkscape:window-height="1024"
     inkscape:window-x="-4"
     inkscape:window-y="-4"
     inkscape:window-maximized="1"
     inkscape:snap-bbox="true"
     inkscape:bbox-paths="true"
     inkscape:bbox-nodes="true"
     inkscape:snap-bbox-edge-midpoints="true"
     inkscape:snap-bbox-midpoints="true"
     inkscape:object-paths="true"
     inkscape:snap-intersection-paths="true"
     inkscape:object-nodes="true"
     inkscape:snap-smooth-nodes="true" />
  <metadata
     id="metadata7">
    <rdf:RDF>
      <cc:Work
         rdf:about="">
        <dc:format>image/svg+xml</dc:format>
        <dc:type
           rdf:resource="http://purl.org/dc/dcmitype/StillImage" />
        <dc:title>6.18.1 Направление объезда</dc:title>
        <cc:license
           rdf:resource="http://creativecommons.org/licenses/by-sa/3.0/" />
        <dc:description>ГОСТ Р 52290-2004
Размеры и пропорции по типоразмеру II</dc:description>
      </cc:Work>
      <cc:License
         rdf:about="http://creativecommons.org/licenses/by-sa/3.0/">
        <cc:permits
           rdf:resource="http://creativecommons.org/ns#Reproduction" />
        <cc:permits
           rdf:resource="http://creativecommons.org/ns#Distribution" />
        <cc:requires
           rdf:resource="http://creativecommons.org/ns#Notice" />
        <cc:requires
           rdf:resource="http://creativecommons.org/ns#Attribution" />
        <cc:permits
           rdf:resource="http://creativecommons.org/ns#DerivativeWorks" />
        <cc:requires
           rdf:resource="http://creativecommons.org/ns#ShareAlike" />
      </cc:License>
    </rdf:RDF>
  </metadata>
  <g
     inkscape:label="Layer 1"
     inkscape:groupmode="layer"
     id="layer1"
     transform="translate(0,-702.36218)">
    <rect
       y="702.36218"
       x="0"
       height="350"
       width="1050"
       id="rect7193"
       style="color:#000000;fill:#ffffff;fill-opacity:1;fill-rule:nonzero;stroke:none;stroke-width:3.54299997999999980;marker:none;visibility:visible;display:inline;overflow:visible;enable-background:accumulate;opacity:1"
       rx="45"
       ry="45" />
    <rect
       ry="25"
       rx="25"
       transform="scale(-1,1)"
       style="opacity:1;color:#000000;fill:#ffcc00;fill-opacity:1;fill-rule:nonzero;stroke:none;stroke-width:3.54299997999999980;marker:none;visibility:visible;display:inline;overflow:visible;enable-background:accumulate"
       id="rect13101"
       width="1010"
       height="310"
       x="-1030"
       y="722.36218" />
    <rect
       y="703.36218"
       x="1"
       height="348"
       width="1048"
       id="rect7101"
       style="color:#000000;fill:none;stroke:#000000;stroke-width:2;stroke-miterlimit:4;stroke-opacity:1;stroke-dasharray:none;marker:none;visibility:visible;display:inline;overflow:visible;enable-background:accumulate"
       rx="44"
       ry="44" />
    <path
       style="opacity:1;color:#000000;fill:#000000;fill-opacity:1;fill-rule:nonzero;stroke:none;stroke-width:3.54299997999999980;marker:none;visibility:visible;display:inline;overflow:visible;enable-background:accumulate"
       d="M 45 10 C 25.61 10 10 25.61 10 45 L 10 305 C 10 324.39 25.61 340 45 340 L 1005 340 C 1024.39 340 1040 324.39 1040 305 L 1040 45 C 1040 25.61 1024.39 10 1005 10 L 45 10 z M 45 20 L 1005 20 C 1018.85 20 1030 31.15 1030 45 L 1030 305 C 1030 318.85 1018.85 330 1005 330 L 45 330 C 31.15 330 20 318.85 20 305 L 20 45 C 20 31.15 31.15 20 45 20 z "
       id="rect12681"
       transform="translate(0,702.36218)" />
    <g
       style="font-size:223.13600159px;font-style:normal;font-variant:normal;font-weight:normal;font-stretch:normal;line-height:125%;letter-spacing:-9.53749943px;word-spacing:0px;fill:#000000;fill-opacity:1;stroke:none;font-family:Arial;-inkscape-font-specification:Arial"
       id="text13050">
      <path
         d="m 382.47271,830.52032 c -11.94232,0.19533 -21.6393,4.49064 -29.09098,12.88594 -7.45174,8.39545 -11.29148,19.71944 -11.51925,33.97201 0.22777,14.25266 4.06752,25.57665 11.51926,33.97202 7.45168,8.39538 17.14866,12.69069 29.09097,12.88594 11.9422,-0.19524 21.63918,-4.49055 29.09098,-12.88594 7.45162,-8.39537 11.29137,-19.71936 11.51925,-33.97202 -0.22787,-14.25257 -4.06762,-25.57657 -11.51925,-33.97202 -7.4518,-8.3953 -17.14878,-12.69061 -29.09098,-12.88593 z m 0,15.61931 c 6.37783,0.13024 11.58426,2.99378 15.61932,8.59063 4.03492,5.59698 6.11749,13.14631 6.24773,22.64801 -0.13024,9.50179 -2.21281,17.05112 -6.24773,22.64801 -4.03506,5.59694 -9.24149,8.46048 -15.61932,8.59063 -6.37793,-0.13015 -11.58437,-2.99369 -15.61932,-8.59063 -4.03503,-5.5969 -6.1176,-13.14622 -6.24772,-22.64801 0.13012,-9.5017 2.2127,-17.05103 6.24772,-22.64801 4.03495,-5.59686 9.24138,-8.46039 15.61932,-8.59063 z"
         style="fill:#000000;font-family:Russian Road Sign;-inkscape-font-specification:Russian Road Sign"
         id="path13358" />
      <path
         d="m 527.547,793.03395 c -0.0326,0.13029 -1.52949,0.65093 -4.49056,1.56193 -2.96125,0.91125 -7.19148,1.4319 -12.69069,1.56193 l -21.86704,0 c -12.83296,0.30039 -22.39737,3.81542 -28.69327,10.54511 -6.29596,6.72991 -10.42254,14.87288 -12.37976,24.42894 -1.95725,9.55624 -2.84428,18.72397 -2.66107,27.50323 -0.11571,10.15261 0.98343,20.21838 3.29741,30.19735 2.31395,9.97903 6.53695,18.30932 12.669,24.99091 6.132,6.68159 14.86724,10.15255 26.20575,10.41288 13.30889,-0.52065 23.39636,-5.3366 30.26243,-14.44787 6.8659,-9.11125 10.31516,-19.39396 10.3478,-30.84816 -0.26041,-14.87083 -4.03508,-26.12975 -11.324,-33.77678 -7.2891,-7.64687 -16.53052,-11.48662 -27.72429,-11.51924 -7.74464,0.26041 -13.73204,2.08266 -17.96222,5.46676 -4.23027,3.38426 -7.09381,6.76845 -8.59063,10.15256 0.16732,-8.94849 2.45444,-16.82322 6.86135,-23.62422 4.40684,-6.80081 9.92937,-10.38024 16.56763,-10.73828 l 23.42898,0 c 1.66877,-0.0231 3.5747,-0.19979 5.71779,-0.52995 2.14292,-0.32994 3.8815,-0.67394 5.21573,-1.03199 z m -40.61023,56.22955 c 4.94606,-0.13009 9.50169,2.08265 13.66691,6.63821 4.16507,4.5557 6.37781,12.23519 6.63821,23.03849 -0.2604,10.8034 -2.47313,18.48289 -6.63821,23.0385 -4.16522,4.55564 -8.72085,6.76838 -13.66691,6.63821 -4.26282,0.13017 -8.62321,-2.08256 -13.08118,-6.63821 -4.45806,-4.55561 -6.86603,-12.2351 -7.22393,-23.0385 0.3579,-10.80331 2.76588,-18.4828 7.22393,-23.0385 4.45797,-4.55556 8.81836,-6.7683 13.08118,-6.6382 z"
         style="fill:#000000;font-family:Russian Road Sign;-inkscape-font-specification:Russian Road Sign"
         id="path13360" />
      <path
         d="m 543.16226,833.64418 0,17.18125 20.30511,0 0,70.28694 39.0483,0 c 10.84047,-0.29287 18.66871,-3.22149 23.48476,-8.78587 4.81586,-5.56437 7.17735,-12.00733 7.08448,-19.32891 0.0929,-7.32152 -2.26862,-13.76449 -7.08448,-19.32891 -4.81604,-5.56433 -12.64429,-8.49295 -23.48476,-8.78586 l -20.30512,0 0,-31.23864 z m 39.04829,48.41989 21.86705,0 c 3.18887,0.13485 5.79209,1.3156 7.80966,3.54224 2.01741,2.22671 3.0587,4.69047 3.12386,7.39128 -0.0652,2.70087 -1.10644,5.16463 -3.12386,7.39128 -2.01758,2.2267 -4.62079,3.40745 -7.80966,3.54224 l -21.86705,0 z"
         style="fill:#000000;font-family:Russian Road Sign;-inkscape-font-specification:Russian Road Sign"
         id="path13362" />
      <path
         d="m 692.48654,846.13963 c 4.84843,0.014 9.37617,1.93855 13.58322,5.77358 4.20692,3.83516 6.44755,8.15836 6.72189,12.96961 0.005,0.81356 -0.11629,1.52944 -0.36259,2.14765 -0.24646,0.61832 -0.64624,0.94372 -1.19934,0.97621 l -39.0483,0 c 0.21845,-7.71663 2.34751,-13.25776 6.38719,-16.62342 4.0396,-3.36552 8.6789,-5.11339 13.91793,-5.24363 z m 35.92443,37.48637 c 1.3666,-0.0976 2.48226,-1.07379 3.347,-2.92863 0.86454,-1.85475 1.31081,-4.0024 1.3388,-6.44296 -0.32551,-12.07238 -4.36049,-22.29 -12.10498,-30.65292 -7.74465,-8.36276 -17.2464,-12.72315 -28.50525,-13.08117 -6.03859,0.0652 -11.92372,1.49694 -17.65541,4.29531 -5.73177,2.79854 -10.55702,6.57321 -14.47576,11.324 -3.18897,3.86772 -5.45749,8.34897 -6.80557,13.44378 -1.34811,5.09492 -2.0547,11.02654 -2.11976,17.79486 0.18128,14.25266 4.56027,25.57665 13.13697,33.97202 8.57664,8.39538 18.92443,12.69069 31.04339,12.88594 5.51318,0.0325 11.16588,-1.59447 16.95812,-4.88104 5.79208,-3.28656 11.44478,-8.42791 16.95812,-15.42408 l -15.17306,-8.70219 c -3.02631,3.9095 -5.95493,6.85671 -8.78587,8.84165 -2.83106,1.98497 -6.15017,2.97977 -9.95731,2.98441 -4.39299,0.19526 -9.27402,-1.36667 -14.64312,-4.6858 -5.36918,-3.31908 -8.2978,-9.5668 -8.78586,-18.74318 z"
         style="fill:#000000;font-family:Russian Road Sign;-inkscape-font-specification:Russian Road Sign"
         id="path13364" />
      <path
         d="m 789.14094,832.08225 c -6.37793,0.0326 -12.19798,0.74852 -17.46017,2.14766 -5.26225,1.39931 -9.85507,3.28664 -13.77847,5.662 l 8.47906,16.51185 c 2.70546,-2.1197 5.82932,-4.07212 9.37159,-5.85725 3.5422,-1.785 8.00486,-2.73331 13.38799,-2.84494 3.44922,-0.065 7.09372,0.84611 10.93352,2.73338 3.83968,1.8874 5.92226,5.14142 6.24773,9.76207 -7e-5,2.44058 -0.78103,4.58823 -2.3429,6.44297 -1.562,1.85485 -3.90489,2.83105 -7.02869,2.92862 l -12.49546,0 0,14.05739 12.49546,0 c 3.87222,0.1302 6.67068,1.43181 8.39538,3.90483 1.72456,2.47308 2.57061,5.33662 2.53814,8.59063 -0.26039,3.93738 -2.08264,6.99616 -5.46676,9.17634 -3.38425,2.18021 -6.76843,3.28658 -10.15256,3.31911 -4.10012,0.0604 -8.95326,-0.7856 -14.55944,-2.53814 -5.60625,-1.75251 -10.12469,-4.7741 -13.55533,-9.06478 l -11.60292,12.71859 c 4.94609,4.70439 11.11944,8.29311 18.52005,10.76617 7.40054,2.47305 14.46642,3.71888 21.19764,3.73748 10.08741,0.0651 18.52927,-2.0175 25.32561,-6.24773 6.79618,-4.23022 10.32912,-10.99859 10.59883,-20.30511 -0.27436,-6.9357 -2.34763,-12.03057 -6.21984,-15.28463 -3.87237,-3.25398 -7.89806,-5.22498 -12.07708,-5.91302 3.85362,-1.16676 7.30288,-3.57474 10.34779,-7.22394 3.04476,-3.6491 4.65317,-8.23262 4.82526,-13.75057 -0.13024,-7.51673 -3.38427,-13.2903 -9.76207,-17.32072 -6.37796,-4.03025 -15.09874,-6.06634 -26.16236,-6.10826 z"
         style="fill:#000000;font-family:Russian Road Sign;-inkscape-font-specification:Russian Road Sign"
         id="path13366" />
      <path
         d="m 863.02171,833.64418 c -0.0512,15.46598 -1.23191,28.82607 -3.54224,40.08029 -2.31038,11.25431 -5.44354,21.32318 -9.39948,30.20664 l -8.92533,0 0,35.92444 18.74318,0 0,-18.74318 59.35342,0 0,18.74318 17.18125,0 0,-35.92444 -10.93353,0 0,-70.28693 z m 18.74318,17.18125 24.99091,0 0,53.10568 -36.3707,0 c 3.79322,-7.76315 6.47082,-16.33517 8.03279,-25.71609 1.56189,-9.38084 2.67755,-18.51069 3.347,-27.38959 z"
         style="fill:#000000;font-family:Russian Road Sign;-inkscape-font-specification:Russian Road Sign"
         id="path13368" />
    </g>
    <path
       id="path13058"
       style="opacity:1;color:#000000;fill:#000000;fill-opacity:1;fill-rule:nonzero;stroke:none;stroke-width:1px;marker:none;visibility:visible;display:inline;overflow:visible;enable-background:accumulate"
       d="m 140,889.02919 -52.5,0 87.5,-151.6667 87.49997,151.6667 -52.5,0 0,110.83292 -69.99997,0 z"
       inkscape:connector-curvature="0"
       sodipodi:nodetypes="cccccccc" />
  </g>
</svg>
