<?xml version="1.0" encoding="UTF-8" standalone="no"?>
<!-- Created with Inkscape (http://www.inkscape.org/) -->

<svg
   xmlns:dc="http://purl.org/dc/elements/1.1/"
   xmlns:cc="http://creativecommons.org/ns#"
   xmlns:rdf="http://www.w3.org/1999/02/22-rdf-syntax-ns#"
   xmlns:svg="http://www.w3.org/2000/svg"
   xmlns="http://www.w3.org/2000/svg"
   xmlns:sodipodi="http://sodipodi.sourceforge.net/DTD/sodipodi-0.dtd"
   xmlns:inkscape="http://www.inkscape.org/namespaces/inkscape"
   width="700"
   height="1050"
   id="svg2"
   version="1.1"
   inkscape:version="0.48.4 r9939"
   sodipodi:docname="7.8.svg">
  <title
     id="title3002">7.5 Мойка автомобилей</title>
  <defs
     id="defs4" />
  <sodipodi:namedview
     id="base"
     pagecolor="#ffffff"
     bordercolor="#666666"
     borderopacity="1.0"
     inkscape:pageopacity="0.0"
     inkscape:pageshadow="2"
     inkscape:zoom="0.5"
     inkscape:cx="130.21783"
     inkscape:cy="656.75162"
     inkscape:document-units="px"
     inkscape:current-layer="layer1"
     showgrid="false"
     inkscape:window-width="1920"
     inkscape:window-height="1024"
     inkscape:window-x="-4"
     inkscape:window-y="-4"
     inkscape:window-maximized="1"
     showguides="true"
     inkscape:guide-bbox="true" />
  <metadata
     id="metadata7">
    <rdf:RDF>
      <cc:Work
         rdf:about="">
        <dc:format>image/svg+xml</dc:format>
        <dc:type
           rdf:resource="http://purl.org/dc/dcmitype/StillImage" />
        <dc:title>7.5 Мойка автомобилей</dc:title>
        <cc:license
           rdf:resource="http://creativecommons.org/licenses/by-sa/3.0/" />
        <dc:description>ГОСТ Р 52290-2004
Размеры и пропорции по типоразмеру II</dc:description>
      </cc:Work>
      <cc:License
         rdf:about="http://creativecommons.org/licenses/by-sa/3.0/">
        <cc:permits
           rdf:resource="http://creativecommons.org/ns#Reproduction" />
        <cc:permits
           rdf:resource="http://creativecommons.org/ns#Distribution" />
        <cc:requires
           rdf:resource="http://creativecommons.org/ns#Notice" />
        <cc:requires
           rdf:resource="http://creativecommons.org/ns#Attribution" />
        <cc:permits
           rdf:resource="http://creativecommons.org/ns#DerivativeWorks" />
        <cc:requires
           rdf:resource="http://creativecommons.org/ns#ShareAlike" />
      </cc:License>
    </rdf:RDF>
  </metadata>
  <g
     inkscape:label="Layer 1"
     inkscape:groupmode="layer"
     id="layer1"
     transform="translate(0,-2.362183)">
    <rect
       style="color:#000000;fill:#ffffff;fill-opacity:1;fill-rule:nonzero;stroke:none;stroke-width:3.54299997999999980;marker:none;visibility:visible;display:inline;overflow:visible;enable-background:accumulate;opacity:1"
       id="rect10481"
       width="700"
       height="1050"
       x="0"
       y="2.3621831"
       rx="45"
       ry="45" />
    <path
       inkscape:connector-curvature="0"
       style="color:#000000;fill:#0d69e1;fill-opacity:1;fill-rule:nonzero;stroke:none;stroke-width:3.54299997999999980;marker:none;visibility:visible;display:inline;overflow:visible;enable-background:accumulate;opacity:1"
       d="m 45.000009,22.362155 c -13.85,0 -25,11.15 -25,25 l 0,960.000045 c 0,13.85 11.15,25 25,25 l 610.000001,0 c 13.85,0 25,-11.15 25,-25 l 0,-960.000045 c 0,-13.85 -11.15,-25 -25,-25 l -610.000001,0 z m 65.625001,155.000005 478.75,0 c 24.93,0 45,20.07 45,45 l 0,478.75 c 0,24.93 -20.07,45 -45,45 l -478.75,0 c -24.930001,0 -45.000001,-20.07 -45.000001,-45 l 0,-478.75 c 0,-24.93 20.07,-45 45.000001,-45 z"
       id="rect10483" />
    <rect
       ry="44"
       rx="44"
       y="3.3621678"
       x="1.0000153"
       height="1048"
       width="698"
       id="rect10490"
       style="color:#000000;fill:none;stroke:#000000;stroke-width:1.99999988000000010;stroke-miterlimit:4;stroke-opacity:1;stroke-dasharray:none;marker:none;visibility:visible;display:inline;overflow:visible;enable-background:accumulate;opacity:1" />
    <path
       style="opacity:1;color:#000000;fill:#000000;fill-opacity:1;fill-rule:nonzero;stroke:none;stroke-width:3.54299997999999980;marker:none;visibility:visible;display:inline;overflow:visible;enable-background:accumulate"
       d="M 270.4375 448.4375 C 264.14357 448.4375 257.42678 453.23739 255.375 459.1875 L 247.75 481.25 L 231.96875 526.9375 C 231.95415 526.9795 231.98275 527.0206 231.96875 527.0625 L 228.28125 537.6875 C 219.28991 537.6875 212.03125 544.94616 212.03125 553.9375 L 212.03125 618.84375 C 212.03125 627.83508 219.28991 635.09375 228.28125 635.09375 L 471.71875 635.09375 C 480.71007 635.09375 487.96875 627.83508 487.96875 618.84375 L 487.96875 553.9375 C 487.96875 544.94616 480.71008 537.6875 471.71875 537.6875 L 468.03125 527.0625 C 468.01745 527.0206 468.04555 526.9795 468.03125 526.9375 L 452.25 481.25 L 444.625 459.1875 C 442.57299 453.23739 435.85645 448.4375 429.5625 448.4375 L 350 448.4375 L 270.4375 448.4375 z M 275.375 464.65625 L 350 464.65625 L 424.625 464.65625 C 427.77181 464.65625 431.13037 467.05618 432.15625 470.03125 L 455.5 537.6875 L 350 537.6875 L 244.5 537.6875 L 267.84375 470.03125 C 268.86963 467.05618 272.22819 464.65625 275.375 464.65625 z "
       transform="translate(0,2.362183)"
       id="path11584" />
    <path
       inkscape:connector-curvature="0"
       style="opacity:1;color:#000000;fill:#000000;fill-opacity:1;fill-rule:nonzero;stroke:none;stroke-width:1px;marker:none;visibility:visible;display:inline;overflow:visible;enable-background:accumulate"
       d="m 228.27621,645.55773 0,32.45967 c 0,13.44524 10.89956,24.34477 24.34476,24.34477 13.44519,0 24.34475,-10.89953 24.34475,-24.34477 l 0,-32.45967 -48.68951,0 z"
       id="path11586" />
    <path
       id="path11594"
       d="m 423.03427,645.55773 0,32.45967 c 0,13.44524 10.89956,24.34477 24.34475,24.34477 13.44521,0 24.34477,-10.89953 24.34477,-24.34477 l 0,-32.45967 -48.68952,0 z"
       style="opacity:1;color:#000000;fill:#000000;fill-opacity:1;fill-rule:nonzero;stroke:none;stroke-width:1px;marker:none;visibility:visible;display:inline;overflow:visible;enable-background:accumulate"
       inkscape:connector-curvature="0" />
    <path
       id="path11616"
       style="opacity:1;color:#000000;fill:#000000;fill-opacity:1;fill-rule:nonzero;stroke:none;stroke-width:1px;marker:none;visibility:visible;display:inline;overflow:visible;enable-background:accumulate"
       d="m 328.12499,235.33093 c 0,16.30966 -13.22159,29.53124 -29.53124,29.53124 l -6.5625,0 c -16.30965,0 -29.53124,13.22159 -29.53124,29.53125 l 0,14.21875 174.99999,0 0,-14.21875 c 0,-16.30966 -13.2216,-29.53125 -29.53125,-29.53125 l -6.5625,0 c -16.30965,0 -29.53125,-13.22158 -29.53125,-29.53124 l 0,-14.21875 -43.74999,0 z"
       inkscape:connector-curvature="0"
       sodipodi:nodetypes="ccccccccccccc" />
    <rect
       y="319.54968"
       x="344.53125"
       height="120.3125"
       width="10.9375"
       id="rect10343"
       style="opacity:1;color:#000000;fill:#000000;fill-opacity:1;fill-rule:nonzero;stroke:none;stroke-width:3.54299997999999980;marker:none;visibility:visible;display:inline;overflow:visible;enable-background:accumulate" />
    <path
       sodipodi:nodetypes="ccccc"
       style="opacity:1;fill:#000000;fill-opacity:1;stroke:none"
       d="m 393.74999,319.54968 10.9375,120.3125 10.93751,0 -10.9375,-120.3125 z"
       id="path10371"
       inkscape:connector-curvature="0" />
    <path
       sodipodi:nodetypes="ccccc"
       style="opacity:1;fill:#000000;fill-opacity:1;stroke:none"
       d="m 426.5625,319.54969 131.25,382.8125 10.9375,0 L 437.5,319.5497 z"
       id="path10394"
       inkscape:connector-curvature="0" />
    <path
       inkscape:connector-curvature="0"
       id="path10398"
       d="m 306.25001,319.54969 -10.9375,120.3125 -10.93751,0 10.9375,-120.3125 z"
       style="opacity:1;fill:#000000;fill-opacity:1;stroke:none"
       sodipodi:nodetypes="ccccc" />
    <path
       inkscape:connector-curvature="0"
       id="path10400"
       d="m 273.4375,319.5497 -131.25,382.8125 -10.9375,0 131.25,-382.81249 z"
       style="opacity:1;fill:#000000;fill-opacity:1;stroke:none"
       sodipodi:nodetypes="ccccc" />
  </g>
</svg>
