<svg xmlns:rdf="http://www.w3.org/1999/02/22-rdf-syntax-ns#" xmlns="http://www.w3.org/2000/svg" height="1050" width="700" version="1.1" xmlns:cc="http://creativecommons.org/ns#" xmlns:dc="http://purl.org/dc/elements/1.1/">
 <g transform="translate(0,-2.362183)">
  <rect style="color:#000000;enable-background:accumulate;" fill-rule="nonzero" rx="45" ry="45" height="1050" width="700" y="2.3622" x="0" fill="#FFF"/>
  <path style="color:#000000;enable-background:accumulate;" d="m45,22.362c-13.85,0-25,11.15-25,25v960c0,13.85,11.15,25,25,25h610c13.85,0,25-11.15,25-25v-960c0-13.85-11.15-25-25-25h-610zm65.625,155,478.75,0c24.93,0,45,20.07,45,45v478.75c0,24.93-20.07,45-45,45h-478.75c-24.93,0-45-20.07-45-45v-478.75c0-24.93,20.07-45,45-45z" fill-rule="nonzero" fill="#0d69e1"/>
  <rect style="color:#000000;enable-background:accumulate;" rx="44" ry="44" height="1048" width="698" stroke="#000" stroke-dasharray="none" x="1" y="3.3622" stroke-miterlimit="4" stroke-width="2" fill="none"/>
  <path d="m155.98,486.87c-13.203,0-25.216-12.013-25.216-25.216s12.013-25.216,25.216-25.216h388.05c13.203,0,25.216,12.013,25.216,25.216s-12.013,25.216-25.216,25.216z" fill-rule="nonzero" fill="#000"/>
  <g style="word-spacing:0px;letter-spacing:0px;writing-mode:lr-tb;text-anchor:middle;text-align:center;" font-family="CMU Serif" font-size="48px" line-height="80.00000119%" font-stretch="normal" font-variant="normal" font-weight="500" font-style="normal" fill="#FFF">
   <path d="m81.992,812.32,0,9.408,17.248,0,0,53.312,10.976,0,0-53.312,17.248,0,0-9.408-45.472,0"/>
   <path d="m154.59,829.56c-7.84,0-14.112,3.136-18.032,5.488l4.704,7.616c2.352-2.128,7.056-5.264,11.76-5.264,5.488,0,9.408,3.92,9.408,7.056v2.352c-6.272,1.568-26.656,0.89601-26.656,15.68,0,9.408,7.84,14.112,14.112,14.112s10.976-3.92,12.544-7.056c0.784,6.272,3.92,7.056,9.408,7.056l3.92-7.84c-1.568,0-3.92-0.00001-3.92-3.92v-19.6c0-7.84-7.056-15.68-17.248-15.68m7.84,24.304,0,7.84c0,0.784-5.488,7.056-10.192,7.056-1.568,0-6.272-1.568-6.272-7.056,0-7.056,12.544-6.272,16.464-7.84"/>
   <path d="m183.44,875.04,9.408,0,2.352-30.576,12.544,25.088,12.544-25.088,2.352,30.576,9.408,0-3.92-43.904-9.408,0-10.976,21.952-10.976-21.952-9.408,0-3.92,43.904"/>
   <path d="m262.38,829.56c-11.76,0-20.384,9.408-20.384,23.52s8.624,23.52,20.384,23.52,20.384-9.408,20.384-23.52-8.624-23.52-20.384-23.52m0,7.84c6.272,0,10.976,6.272,10.976,15.68s-4.704,15.68-10.976,15.68-10.976-6.272-10.976-15.68,4.704-15.68,10.976-15.68"/>
   <path d="m289.58,875.04,10.976,0c5.936-9.072,8.288-19.712,16.352-19.712,0.56,0,1.12,0,1.68,0.112v19.6h9.408v-19.6c0.56-0.112,1.12-0.112,1.68-0.112,8.064,0,10.416,10.64,16.352,19.712h10.976c-1.568-2.352-5.488-8.624-7.056-12.544-2.464-6.272-6.384-11.312-12.544-11.76,5.824-1.344,7.84-10.976,16.464-10.976l-2.352-9.408c-11.984,0.784-16.128,17.36-22.624,17.36-0.336,0-0.56,0-0.896-0.112v-16.464h-9.408v16.464c-0.336,0.112-0.56,0.112-0.896,0.112-6.496,0-10.64-16.576-22.624-17.36l-2.352,9.408c8.624,0,10.64,9.632,16.464,10.976-6.16,0.448-10.08,5.488-12.544,11.76-1.568,3.92-5.488,10.192-7.056,12.544"/>
   <path d="m384.13,837.4c4.704,0,10.192,4.816,10.192,9.408,0,0.784-0.224,1.568-0.784,1.568h-19.6c0-6.272,5.488-10.976,10.192-10.976m18.032,18.816c1.344,0,2.352-2.352,2.352-4.704,0-11.76-9.408-21.952-20.384-21.952-5.936,0-12.32,3.136-16.128,7.84-3.248,3.92-4.48,9.072-4.48,16.128,0,13.888,9.744,23.072,21.392,23.072,5.488,0,13.328-2.352,18.032-10.192l-7.84-4.368c-3.136,3.92-5.488,5.936-9.408,5.936s-11.76-2.352-11.76-11.76h28.224"/>
   <path d="m416.03,875.04,9.408,0,0-18.816,16.464,0,0,18.816,9.408,0,0-43.904-9.408,0,0,16.464-16.464,0,0-16.464-9.408,0,0,43.904"/>
   <path d="m465.1,875.04,9.408,0,0-18.816,16.464,0,0,18.816,9.408,0,0-43.904-9.408,0,0,16.464-16.464,0,0-16.464-9.408,0,0,43.904"/>
   <path d="m557.06,875.04,9.408,0,0-43.904-9.408,0,0,43.904m-42.112,0,20.384,0c10.976,0,15.344-7.056,15.344-14.112s-4.368-14.112-15.344-14.112h-10.976v-15.68h-9.408v43.904m9.408-8.624,0-10.976,11.76,0c3.136,0,5.488,2.912,5.488,5.488s-2.352,5.488-5.488,5.488h-11.76"/>
   <path d="m580.38,875.04,10.192,0,18.032-29.792,0,29.792,9.408,0,0-43.904-10.192,0-18.032,29.792,0-29.792-9.408,0,0,43.904m3.136-62.72s1.568,12.544,15.68,12.544,15.68-12.544,15.68-12.544h-7.84c-1.568,3.92-3.92,6.272-7.84,6.272s-7.056-2.352-7.84-6.272h-7.84"/>
   <path d="m165.69,964.64,9.408,0,0-20.384c0.784-0.112,1.68-0.224,2.352-0.224,9.072,0,11.424,11.648,17.248,20.608h11.76c-8.288-7.728-9.744-22.848-20.384-25.088,5.824-1.344,8.288-11.2,15.68-11.76l-2.352-7.84c-9.856,0.784-16.128,16.576-23.184,16.576-0.336,0-0.784,0-1.12-0.112v-15.68h-9.408v43.904"/>
   <path d="m233.66,919.16c-11.76,0-20.384,9.408-20.384,23.52s8.624,23.52,20.384,23.52,20.384-9.408,20.384-23.52-8.624-23.52-20.384-23.52m0,7.84c6.272,0,10.976,6.272,10.976,15.68s-4.704,15.68-10.976,15.68-10.976-6.272-10.976-15.68,4.704-15.68,10.976-15.68"/>
   <path d="m265.57,964.64,9.408,0,0-18.816,16.464,0,0,18.816,9.408,0,0-43.904-9.408,0,0,16.464-16.464,0,0-16.464-9.408,0,0,43.904"/>
   <path d="m310.04,929.36,13.216,0,0,35.28,9.408,0,0-35.28,13.104,0,0-8.624-35.728,0,0,8.624"/>
   <path d="m374.76,919.16c-7.84,0-10.976,6.272-10.976,6.272-0.672-1.232-1.232-2.8-1.568-4.704h-7.84v62.72h9.408v-22.736c0,0.784,4.704,5.488,10.976,5.488,4.704,0,19.6-3.92,19.6-23.52,0-18.816-11.76-23.52-19.6-23.52m0,8.624c5.488,0,10.192,5.488,10.192,14.896s-4.704,15.68-10.192,15.68c-4.032,0-8.624-2.352-10.976-6.272v-16.464c2.352-4.704,6.496-7.84,10.976-7.84"/>
   <path d="m422.25,919.16c-11.76,0-20.384,9.408-20.384,23.52s8.624,23.52,20.384,23.52,20.384-9.408,20.384-23.52-8.624-23.52-20.384-23.52m0,7.84c6.272,0,10.976,6.272,10.976,15.68s-4.704,15.68-10.976,15.68-10.976-6.272-10.976-15.68,4.704-15.68,10.976-15.68"/>
   <path d="m449.23,957.24,1.792,8.96c19.6-4.704,16.464-22.736,17.248-36.848h12.544v35.28h9.408v-43.904h-30.576c0,8.624-0.56,27.104-2.464,30.576-1.904,3.584-5.376,5.488-7.952,5.936"/>
   <path d="m504.88,964.64,20.384,0c10.976,0,15.344-7.056,15.344-14.112s-4.368-14.112-15.344-14.112h-10.976v-15.68h-9.408v43.904m9.408-8.624,0-10.976,11.76,0c3.136,0,5.488,2.912,5.488,5.488s-2.352,5.488-5.488,5.488h-11.76"/>
  </g>
  <g style="word-spacing:0px;letter-spacing:0px;writing-mode:lr-tb;text-anchor:middle;text-align:center;" font-family="CMU Serif" font-size="48px" line-height="80.00000119%" font-stretch="normal" font-variant="normal" font-weight="500" font-style="normal" fill="#000">
   <path d="m162.78,335.35,0,7.98,14.63,0,0,45.22,9.31,0,0-45.22,14.63,0,0-7.98-38.57,0"/>
   <path d="m223.38,369.93,6.65-22.61,6.65,22.61-13.3,0m1.33-34.58-17.29,53.2,9.975,0,3.325-10.64,18.62,0,3.325,10.64,9.975,0-17.29-53.2-10.64,0"/>
   <path d="m258.7,388.55,9.975,0,3.325-39.235,13.965,31.255,13.965-31.255,3.325,39.235,9.975,0-5.985-53.2-9.31,0-11.97,25.935-11.97-25.935-9.31,0-5.985,53.2"/>
   <path d="m340.57,334.02c-14.63,0-21.66,12.54-21.66,27.93s7.03,27.93,21.66,27.93,21.66-12.54,21.66-27.93-7.03-27.93-21.66-27.93m0,8.645c7.315,0,12.635,7.315,12.635,19.285s-5.32,19.285-12.635,19.285-12.635-7.315-12.635-19.285,5.32-19.285,12.635-19.285"/>
   <path d="m366.64,388.55,11.97,0c1.995-3.325,6.65-11.97,9.975-17.955,2.375-4.18,4.655-6.65,7.315-6.65,1.33,0,3.99,0.285,3.99,0.285v24.32h9.31v-24.32s2.66-0.285,3.99-0.285c2.66,0,4.94,2.47,7.315,6.65,3.325,5.985,7.98,14.63,9.975,17.955h11.97c-4.655-3.61-7.41-11.21-11.305-17.955-3.325-5.7-5.32-10.64-11.685-11.02,2.375-0.285,6.745-6.08,9.025-9.595,2.66-3.99,4.18-6.365,9.31-6.365l-2.66-8.93c-3.325,0.19-6.365,1.33-8.645,3.325-6.84,5.985-9.215,17.67-16.34,17.67h-0.285c-0.38,0-0.475-0.095-0.665-0.19v-20.14h-9.31v20.14c-0.19,0.095-0.285,0.19-0.665,0.19h-0.285c-7.125,0-9.5-11.685-16.34-17.67-2.28-1.995-5.32-3.135-8.645-3.325l-2.66,8.93c5.13,0,6.65,2.375,9.31,6.365,2.28,3.515,6.65,9.31,9.025,9.595-6.365,0.38-8.36,5.32-11.685,11.02-3.895,6.745-6.65,14.345-11.305,17.955"/>
   <path d="m449.3,388.55,9.31,0,0-23.94,19.95,0,0,23.94,9.31,0,0-53.2-9.31,0,0,21.28-19.95,0,0-21.28-9.31,0,0,53.2"/>
   <path d="m493.99,388.55,11.305,0c2.66-4.655,4.465-8.36,6.935-13.205,2.28-4.37,3.705-8.075,9.69-8.075h5.985v21.28h9.31v-53.2h-19.285c-13.3,0-17.29,9.31-17.29,14.63,0,7.315,4.655,12.35,11.305,13.68-2.66,0.56999-6.555,4.275-7.98,7.6-1.995,4.655-8.17,16.34-9.975,17.29m15.96-37.24c0-5.7,5.32-7.98,10.64-7.98h7.315v15.96h-7.98c-5.32,0-9.975-2.28-9.975-7.98"/>
  </g>
  <g style="word-spacing:0px;letter-spacing:0px;writing-mode:lr-tb;text-anchor:middle;text-align:center;" font-family="CMU Serif" font-size="48px" line-height="80.00000119%" font-stretch="normal" font-variant="normal" font-weight="500" font-style="normal" fill="#000">
   <path d="m226.24,533.42c-14.63,0-21.66,12.54-21.66,27.93,0,15.485,7.03,27.93,21.66,27.93,10.07,0,15.96-5.985,19.285-14.63l-8.93-3.325c-1.995,6.65-5.51,9.31-10.355,9.31-7.315,0-12.635-7.315-12.635-19.285s5.32-19.285,12.635-19.285c4.845,0,8.36,2.66,10.355,9.31l8.93-3.325c-3.325-8.645-9.215-14.63-19.285-14.63"/>
   <path d="m253.71,534.75,0,35.91c0,0.665,0.66502,17.955,19.285,17.955s19.285-17.29,19.285-17.955v-35.91h-9.31v36.575c0,7.315-5.985,9.975-9.975,9.975s-9.975-2.66-9.975-9.975v-36.575h-9.31"/>
   <path d="m302.77,579.97s8.93,9.31,20.9,9.31c13.3,0,20.425-9.975,20.425-16.625,0-7.98-5.795-13.3-15.105-15.295-7.315-1.52-13.965-2.375-13.965-7.505,0-2.565,1.995-7.79,9.975-7.79,6.935,0,11.78,5.32,11.78,5.32l6.175-6.65s-8.645-7.315-17.955-7.315c-11.305,0-19.285,7.315-19.285,16.625,0,4.085,1.805,12.73,16.625,14.915,11.875,1.71,11.97,6.175,11.97,8.265v0.095c0,1.995-2.28,7.315-10.45,7.315-9.31,0-14.535-6.27-14.535-6.27l-6.555,5.605"/>
   <path d="m349.56,534.75,0,7.98,14.63,0,0,45.22,9.31,0,0-45.22,14.63,0,0-7.98-38.57,0"/>
   <path d="m415.48,533.42c-14.63,0-21.66,12.54-21.66,27.93s7.03,27.93,21.66,27.93,21.66-12.54,21.66-27.93-7.03-27.93-21.66-27.93m0,8.645c7.315,0,12.635,7.315,12.635,19.285s-5.32,19.285-12.635,19.285-12.635-7.315-12.635-19.285,5.32-19.285,12.635-19.285"/>
   <path d="m444.88,587.95,9.31,0,0-38.57,15.96,27.93,15.96-27.93,0.665,38.57,8.645,0,0-53.2-10.64,0-14.63,24.605-14.63-24.605-10.64,0,0,53.2"/>
  </g>
 </g>
</svg>
