<?xml version="1.0" encoding="UTF-8" standalone="no"?>
<!-- Created with Inkscape (http://www.inkscape.org/) -->

<svg
   xmlns:dc="http://purl.org/dc/elements/1.1/"
   xmlns:cc="http://creativecommons.org/ns#"
   xmlns:rdf="http://www.w3.org/1999/02/22-rdf-syntax-ns#"
   xmlns:svg="http://www.w3.org/2000/svg"
   xmlns="http://www.w3.org/2000/svg"
   xmlns:sodipodi="http://sodipodi.sourceforge.net/DTD/sodipodi-0.dtd"
   xmlns:inkscape="http://www.inkscape.org/namespaces/inkscape"
   width="700"
   height="1050"
   id="svg2"
   version="1.1"
   inkscape:version="0.48.4 r9939"
   sodipodi:docname="7.1.svg">
  <title
     id="title3002">7.12 Пост дорожно-патрульной службы</title>
  <defs
     id="defs4" />
  <sodipodi:namedview
     id="base"
     pagecolor="#ffffff"
     bordercolor="#666666"
     borderopacity="1.0"
     inkscape:pageopacity="0.0"
     inkscape:pageshadow="2"
     inkscape:zoom="1"
     inkscape:cx="421.81714"
     inkscape:cy="677.72747"
     inkscape:document-units="px"
     inkscape:current-layer="layer1"
     showgrid="false"
     inkscape:window-width="1920"
     inkscape:window-height="1024"
     inkscape:window-x="-4"
     inkscape:window-y="-4"
     inkscape:window-maximized="1"
     showguides="true"
     inkscape:guide-bbox="true" />
  <metadata
     id="metadata7">
    <rdf:RDF>
      <cc:Work
         rdf:about="">
        <dc:format>image/svg+xml</dc:format>
        <dc:type
           rdf:resource="http://purl.org/dc/dcmitype/StillImage" />
        <dc:title>7.12 Пост дорожно-патрульной службы</dc:title>
        <cc:license
           rdf:resource="http://creativecommons.org/licenses/by-sa/3.0/" />
        <dc:description>ГОСТ Р 52290-2004
Размеры и пропорции по типоразмеру II</dc:description>
      </cc:Work>
      <cc:License
         rdf:about="http://creativecommons.org/licenses/by-sa/3.0/">
        <cc:permits
           rdf:resource="http://creativecommons.org/ns#Reproduction" />
        <cc:permits
           rdf:resource="http://creativecommons.org/ns#Distribution" />
        <cc:requires
           rdf:resource="http://creativecommons.org/ns#Notice" />
        <cc:requires
           rdf:resource="http://creativecommons.org/ns#Attribution" />
        <cc:permits
           rdf:resource="http://creativecommons.org/ns#DerivativeWorks" />
        <cc:requires
           rdf:resource="http://creativecommons.org/ns#ShareAlike" />
      </cc:License>
    </rdf:RDF>
  </metadata>
  <g
     inkscape:label="Layer 1"
     inkscape:groupmode="layer"
     id="layer1"
     transform="translate(0,-2.362183)">
    <rect
       style="color:#000000;fill:#ffffff;fill-opacity:1;fill-rule:nonzero;stroke:none;stroke-width:3.54299997999999980;marker:none;visibility:visible;display:inline;overflow:visible;enable-background:accumulate;opacity:1"
       id="rect10481"
       width="700"
       height="1050"
       x="0"
       y="2.3621831"
       rx="45"
       ry="45" />
    <path
       inkscape:connector-curvature="0"
       style="color:#000000;fill:#0d69e1;fill-opacity:1;fill-rule:nonzero;stroke:none;stroke-width:3.54299997999999980;marker:none;visibility:visible;display:inline;overflow:visible;enable-background:accumulate;opacity:1"
       d="m 45.000009,22.362155 c -13.85,0 -25,11.15 -25,25 l 0,960.000045 c 0,13.85 11.15,25 25,25 l 610.000001,0 c 13.85,0 25,-11.15 25,-25 l 0,-960.000045 c 0,-13.85 -11.15,-25 -25,-25 l -610.000001,0 z m 65.625001,155.000005 478.75,0 c 24.93,0 45,20.07 45,45 l 0,478.75 c 0,24.93 -20.07,45 -45,45 l -478.75,0 c -24.930001,0 -45.000001,-20.07 -45.000001,-45 l 0,-478.75 c 0,-24.93 20.07,-45 45.000001,-45 z"
       id="rect10483" />
    <rect
       ry="44"
       rx="44"
       y="3.3621678"
       x="1.0000153"
       height="1048"
       width="698"
       id="rect10490"
       style="color:#000000;fill:none;stroke:#000000;stroke-width:1.99999988000000010;stroke-miterlimit:4;stroke-opacity:1;stroke-dasharray:none;marker:none;visibility:visible;display:inline;overflow:visible;enable-background:accumulate;opacity:1" />
    <g
       style="font-size:292.97253418000008000px;font-style:normal;font-variant:normal;font-weight:normal;font-stretch:normal;line-height:125%;letter-spacing:-14.21875000000000000px;word-spacing:0px;opacity:1;fill:#000000;fill-opacity:1;stroke:none;font-family:Arial;-inkscape-font-specification:Arial"
       id="text10209">
      <path
         d="m 156.24219,385.17468 0,24.60937 c -0.076,13.48935 -1.06341,27.75438 -2.96224,42.79513 -1.89893,15.04096 -4.25353,29.02387 -7.06381,41.94879 -2.81037,12.92503 -5.62069,22.9583 -8.43098,30.09984 l -18.45703,0 0,53.32031 24.60937,0 0,-28.71094 102.53907,0 0,28.71094 24.60937,0 0,-53.32031 -18.45703,0 0,-127.14845 0,-12.30468 z m 28.71094,24.60937 38.96484,0 0,114.84376 -58.30078,0 c 5.6762,-14.01365 10.29045,-31.61617 13.84277,-52.80763 3.55217,-21.19131 5.38322,-41.87 5.49317,-62.03613 z"
         style="fill:#000000;font-family:Russian Road Sign;-inkscape-font-specification:Russian Road Sign"
         id="path10258" />
      <path
         d="m 297.66084,385.17468 0,164.0625 28.71094,0 0,-139.45313 61.52344,0 0,139.45313 28.71094,0 0,-164.0625 z"
         style="fill:#000000;font-family:Russian Road Sign;-inkscape-font-specification:Russian Road Sign"
         id="path10260" />
      <path
         d="m 515.15058,381.07311 c -22.52204,0.61592 -39.29449,9.02513 -50.31739,25.22768 -11.02298,16.20283 -16.51613,36.50452 -16.47949,60.90514 -0.0366,24.40077 5.45652,44.70246 16.47949,60.90513 11.0229,16.20271 27.79535,24.61193 50.31739,25.22769 15.47355,-0.21363 28.00005,-4.40063 37.57954,-12.56104 9.57924,-8.16038 16.87694,-19.01243 21.89312,-32.55615 l -27.53907,-10.25391 c -3.07171,10.1685 -7.26176,17.51712 -12.57016,22.04589 -5.30861,4.52884 -11.76309,6.75051 -19.36343,6.66505 -11.493,-0.17088 -20.80696,-5.46873 -27.9419,-15.89356 -7.13507,-10.42476 -10.80938,-24.95111 -11.02295,-43.5791 0.21358,-18.62783 3.88789,-33.15419 11.02296,-43.57911 7.13495,-10.42467 16.4489,-15.72251 27.94189,-15.89355 7.60035,-0.0853 14.05482,2.13638 19.36344,6.66504 5.3084,4.52894 9.49845,11.87757 12.57015,22.0459 l 27.53907,-10.25391 c -5.01619,-13.54356 -12.31389,-24.3956 -21.89313,-32.55615 -9.57949,-8.16024 -22.10599,-12.34725 -37.57953,-12.56104 z"
         style="fill:#000000;font-family:Russian Road Sign;-inkscape-font-specification:Russian Road Sign"
         id="path10262" />
    </g>
  </g>
</svg>
