<?xml version="1.0" encoding="UTF-8" standalone="no"?>
<!-- Created with Inkscape (http://www.inkscape.org/) -->

<svg
   xmlns:dc="http://purl.org/dc/elements/1.1/"
   xmlns:cc="http://creativecommons.org/ns#"
   xmlns:rdf="http://www.w3.org/1999/02/22-rdf-syntax-ns#"
   xmlns:svg="http://www.w3.org/2000/svg"
   xmlns="http://www.w3.org/2000/svg"
   xmlns:sodipodi="http://sodipodi.sourceforge.net/DTD/sodipodi-0.dtd"
   xmlns:inkscape="http://www.inkscape.org/namespaces/inkscape"
   width="700"
   height="1050"
   id="svg2"
   version="1.1"
   inkscape:version="0.48.4 r9939"
   sodipodi:docname="7.3.svg">
  <title
     id="title3002">7.4 Техническое обслуживание автомобилей</title>
  <defs
     id="defs4" />
  <sodipodi:namedview
     id="base"
     pagecolor="#ffffff"
     bordercolor="#666666"
     borderopacity="1.0"
     inkscape:pageopacity="0.0"
     inkscape:pageshadow="2"
     inkscape:zoom="1"
     inkscape:cx="381.3617"
     inkscape:cy="509.94694"
     inkscape:document-units="px"
     inkscape:current-layer="layer1"
     showgrid="false"
     inkscape:window-width="1920"
     inkscape:window-height="1024"
     inkscape:window-x="-4"
     inkscape:window-y="-4"
     inkscape:window-maximized="1" />
  <metadata
     id="metadata7">
    <rdf:RDF>
      <cc:Work
         rdf:about="">
        <dc:format>image/svg+xml</dc:format>
        <dc:type
           rdf:resource="http://purl.org/dc/dcmitype/StillImage" />
        <dc:title>7.4 Техническое обслуживание автомобилей</dc:title>
        <cc:license
           rdf:resource="http://creativecommons.org/licenses/by-sa/3.0/" />
        <dc:description>ГОСТ Р 52290-2004
Размеры и пропорции по типоразмеру II</dc:description>
      </cc:Work>
      <cc:License
         rdf:about="http://creativecommons.org/licenses/by-sa/3.0/">
        <cc:permits
           rdf:resource="http://creativecommons.org/ns#Reproduction" />
        <cc:permits
           rdf:resource="http://creativecommons.org/ns#Distribution" />
        <cc:requires
           rdf:resource="http://creativecommons.org/ns#Notice" />
        <cc:requires
           rdf:resource="http://creativecommons.org/ns#Attribution" />
        <cc:permits
           rdf:resource="http://creativecommons.org/ns#DerivativeWorks" />
        <cc:requires
           rdf:resource="http://creativecommons.org/ns#ShareAlike" />
      </cc:License>
    </rdf:RDF>
  </metadata>
  <g
     inkscape:label="Layer 1"
     inkscape:groupmode="layer"
     id="layer1"
     transform="translate(0,-2.362183)">
    <rect
       style="color:#000000;fill:#ffffff;fill-opacity:1;fill-rule:nonzero;stroke:none;stroke-width:3.54299997999999980;marker:none;visibility:visible;display:inline;overflow:visible;enable-background:accumulate;opacity:1"
       id="rect10481"
       width="700"
       height="1050"
       x="0"
       y="2.3621831"
       rx="45"
       ry="45" />
    <path
       inkscape:connector-curvature="0"
       style="color:#000000;fill:#0d69e1;fill-opacity:1;fill-rule:nonzero;stroke:none;stroke-width:3.54299997999999980;marker:none;visibility:visible;display:inline;overflow:visible;enable-background:accumulate;opacity:1"
       d="m 45.000009,22.362155 c -13.85,0 -25,11.15 -25,25 l 0,960.000045 c 0,13.85 11.15,25 25,25 l 610.000001,0 c 13.85,0 25,-11.15 25,-25 l 0,-960.000045 c 0,-13.85 -11.15,-25 -25,-25 l -610.000001,0 z m 65.625001,155.000005 478.75,0 c 24.93,0 45,20.07 45,45 l 0,478.75 c 0,24.93 -20.07,45 -45,45 l -478.75,0 c -24.930001,0 -45.000001,-20.07 -45.000001,-45 l 0,-478.75 c 0,-24.93 20.07,-45 45.000001,-45 z"
       id="rect10483" />
    <rect
       ry="44"
       rx="44"
       y="3.3621678"
       x="1.0000153"
       height="1048"
       width="698"
       id="rect10490"
       style="color:#000000;fill:none;stroke:#000000;stroke-width:1.99999988000000010;stroke-miterlimit:4;stroke-opacity:1;stroke-dasharray:none;marker:none;visibility:visible;display:inline;overflow:visible;enable-background:accumulate;opacity:1" />
    <g
       style="font-size:195.31430054000000000px;font-style:normal;font-variant:normal;font-weight:normal;font-stretch:normal;line-height:125%;letter-spacing:-13.01562500000000000px;word-spacing:0px;opacity:1;fill:#ffffff;fill-opacity:1;stroke:none;font-family:Arial;-inkscape-font-specification:Arial"
       id="text10249">
      <path
         d="m 91.778,859.00311 6.445289,8.39841 14.648381,-9.17965 0,84.76531 19.14056,0 0,-109.3746 -16.40619,0 z"
         style="fill:#ffffff;font-family:Russian Road Sign;-inkscape-font-specification:Russian Road Sign"
         id="path11301" />
      <path
         d="m 188.7756,832.2454 c -11.1084,0.28494 -19.99508,5.5258 -26.66006,15.7226 -6.66503,10.19698 -10.08298,23.64093 -10.25387,40.33188 0.17089,16.69106 3.58884,30.13501 10.25387,40.33188 6.66498,10.19691 15.55166,15.43777 26.66006,15.72261 11.10829,-0.28483 19.99497,-5.5257 26.66006,-15.72261 6.66493,-10.19688 10.08288,-23.64083 10.25387,-40.33188 -0.17099,-15.92191 -3.58894,-29.14613 -10.25387,-39.67271 -6.66509,-10.52638 -15.55177,-15.98697 -26.66006,-16.38177 z m 0,16.99213 c 5.35474,-0.0813 9.63532,3.01114 12.84175,9.2773 3.2063,6.26633 4.85018,16.19467 4.93162,29.78505 -0.0814,13.59049 -1.72532,23.51883 -4.93162,29.78505 -3.20643,6.26627 -7.48701,9.3587 -12.84175,9.27731 -5.35485,0.0814 -9.63543,-3.01104 -12.84175,-9.27731 -3.2064,-6.26623 -4.85028,-16.19456 -4.93162,-29.78505 0.0813,-13.59038 1.72522,-23.51872 4.93162,-29.78505 3.20633,-6.26616 7.48691,-9.35859 12.84175,-9.2773 z"
         style="fill:#ffffff;font-family:Russian Road Sign;-inkscape-font-specification:Russian Road Sign"
         id="path11303" />
      <path
         d="m 274.18008,832.2454 c -11.1084,0.28494 -19.99508,5.5258 -26.66006,15.7226 -6.66503,10.19698 -10.08298,23.64093 -10.25387,40.33188 0.17089,16.69106 3.58884,30.13501 10.25387,40.33188 6.66498,10.19691 15.55166,15.43777 26.66006,15.72261 11.10829,-0.28483 19.99497,-5.5257 26.66006,-15.72261 6.66493,-10.19688 10.08288,-23.64083 10.25387,-40.33188 -0.17099,-15.92191 -3.58894,-29.14613 -10.25387,-39.67271 -6.66509,-10.52638 -15.55177,-15.98697 -26.66006,-16.38177 z m 0,16.99213 c 5.35474,-0.0813 9.63532,3.01114 12.84175,9.2773 3.2063,6.26633 4.85018,16.19467 4.93162,29.78505 -0.0814,13.59049 -1.72532,23.51883 -4.93162,29.78505 -3.20643,6.26627 -7.48701,9.3587 -12.84175,9.27731 -5.35485,0.0814 -9.63543,-3.01104 -12.84175,-9.27731 -3.2064,-6.26623 -4.85028,-16.19456 -4.93162,-29.78505 0.0813,-13.59038 1.72522,-23.51872 4.93162,-29.78505 3.20633,-6.26616 7.48691,-9.35859 12.84175,-9.2773 z"
         style="fill:#ffffff;font-family:Russian Road Sign;-inkscape-font-specification:Russian Road Sign"
         id="path11305" />
      <path
         d="m 340.17061,942.98718 16.40619,0 4.10154,-53.32011 21.87492,43.74984 21.87492,-43.74984 4.10155,53.32011 16.40619,0 -6.83591,-76.56222 -16.40619,0 -19.14056,38.28111 -19.14055,-38.28111 -16.40619,0 z"
         style="fill:#ffffff;font-family:Russian Road Sign;-inkscape-font-specification:Russian Road Sign"
         id="path11307" />
    </g>
    <path
       id="path11260"
       style="opacity:1;color:#000000;fill:#000000;fill-opacity:1;fill-rule:nonzero;stroke:none;stroke-width:1px;marker:none;visibility:visible;display:inline;overflow:visible;enable-background:accumulate"
       d="m 371.875,319.54968 0,-32.8125 54.6875,0 0,-65.625 -120.3125,0 -53.25195,37.22167 c -9.89417,6.92798 -17.16863,16.92109 -20.7742,28.40333 l 95.90115,0 0,32.8125 -95.91438,0 c 4.44249,14.09812 14.52073,26.14612 28.30696,32.81249 l 34.1028,-5.5e-4 c 0.25324,0.0808 0.50039,0.15263 0.75195,0.23926 18.27685,6.29322 27.99732,26.22511 21.7041,44.50195 l -10.82645,31.44233 2e-5,251.94204 0,0 c 0,24.16236 19.58754,43.75 43.75001,43.75 24.16246,0 43.75,-19.58764 43.75,-43.75 L 393.75,428.51561 382.91504,397.10338 c -6.29322,-18.27685 3.42725,-38.20873 21.7041,-44.50195 0.25156,-0.0866 0.49871,-0.15843 0.75195,-0.23926 l 21.19141,1e-5 0,-32.8125 z"
       inkscape:connector-curvature="0"
       sodipodi:nodetypes="cccccccccccccccccscccccccc" />
    <path
       id="path11266"
       style="opacity:1;color:#000000;fill:#ffffff;fill-opacity:1;fill-rule:nonzero;stroke:none;stroke-width:1px;marker:none;visibility:visible;display:inline;overflow:visible;enable-background:accumulate"
       d="m 524.99998,866.4247 0,-32.81261 94.79168,54.6875 -94.79169,54.6875 0,-32.81239 -43.74997,0 0,-43.75 z"
       inkscape:connector-curvature="0"
       sodipodi:nodetypes="cccccccc" />
  </g>
</svg>
