<?xml version="1.0" encoding="UTF-8" standalone="no"?>
<!-- Created with Inkscape (http://www.inkscape.org/) -->

<svg
   xmlns:dc="http://purl.org/dc/elements/1.1/"
   xmlns:cc="http://creativecommons.org/ns#"
   xmlns:rdf="http://www.w3.org/1999/02/22-rdf-syntax-ns#"
   xmlns:svg="http://www.w3.org/2000/svg"
   xmlns="http://www.w3.org/2000/svg"
   xmlns:sodipodi="http://sodipodi.sourceforge.net/DTD/sodipodi-0.dtd"
   xmlns:inkscape="http://www.inkscape.org/namespaces/inkscape"
   width="700"
   height="1050"
   id="svg2"
   version="1.1"
   inkscape:version="0.48.4 r9939"
   sodipodi:docname="7.14.svg">
  <title
     id="title3002">7.14 Пункт контроля международных автомобильных перевозок</title>
  <defs
     id="defs4" />
  <sodipodi:namedview
     id="base"
     pagecolor="#ffffff"
     bordercolor="#666666"
     borderopacity="1.0"
     inkscape:pageopacity="0.0"
     inkscape:pageshadow="2"
     inkscape:zoom="1"
     inkscape:cx="337.47554"
     inkscape:cy="675.61544"
     inkscape:document-units="px"
     inkscape:current-layer="layer1"
     showgrid="false"
     inkscape:window-width="1920"
     inkscape:window-height="1024"
     inkscape:window-x="-4"
     inkscape:window-y="-4"
     inkscape:window-maximized="1"
     showguides="true"
     inkscape:guide-bbox="true" />
  <metadata
     id="metadata7">
    <rdf:RDF>
      <cc:Work
         rdf:about="">
        <dc:format>image/svg+xml</dc:format>
        <dc:type
           rdf:resource="http://purl.org/dc/dcmitype/StillImage" />
        <dc:title>7.14 Пункт контроля международных автомобильных перевозок</dc:title>
        <cc:license
           rdf:resource="http://creativecommons.org/licenses/by-sa/3.0/" />
        <dc:description>ГОСТ Р 52290-2004
Размеры и пропорции по типоразмеру II</dc:description>
      </cc:Work>
      <cc:License
         rdf:about="http://creativecommons.org/licenses/by-sa/3.0/">
        <cc:permits
           rdf:resource="http://creativecommons.org/ns#Reproduction" />
        <cc:permits
           rdf:resource="http://creativecommons.org/ns#Distribution" />
        <cc:requires
           rdf:resource="http://creativecommons.org/ns#Notice" />
        <cc:requires
           rdf:resource="http://creativecommons.org/ns#Attribution" />
        <cc:permits
           rdf:resource="http://creativecommons.org/ns#DerivativeWorks" />
        <cc:requires
           rdf:resource="http://creativecommons.org/ns#ShareAlike" />
      </cc:License>
    </rdf:RDF>
  </metadata>
  <g
     inkscape:label="Layer 1"
     inkscape:groupmode="layer"
     id="layer1"
     transform="translate(0,-2.362183)">
    <rect
       style="color:#000000;fill:#ffffff;fill-opacity:1;fill-rule:nonzero;stroke:none;stroke-width:3.54299997999999980;marker:none;visibility:visible;display:inline;overflow:visible;enable-background:accumulate;opacity:1"
       id="rect10481"
       width="700"
       height="1050"
       x="0"
       y="2.3621831"
       rx="45"
       ry="45" />
    <path
       style="color:#000000;fill:#0d69e1;fill-opacity:1;fill-rule:nonzero;stroke:none;stroke-width:3.54299997999999980;marker:none;visibility:visible;display:inline;overflow:visible;enable-background:accumulate;opacity:1"
       d="M 45 20 C 31.15 20 20 31.15 20 45 L 20 1005 C 20 1018.85 31.15 1030 45 1030 L 655 1030 C 668.85 1030 680 1018.85 680 1005 L 680 45 C 680 31.15 668.85 20 655 20 L 45 20 z M 110.625 175 L 589.375 175 C 614.305 175 634.375 195.07 634.375 220 L 634.375 698.75 C 634.375 723.68 614.305 743.75 589.375 743.75 L 110.625 743.75 C 85.694999 743.75 65.625 723.68 65.625 698.75 L 65.625 220 C 65.625 195.07 85.694999 175 110.625 175 z M 54.9375 812.5 L 100.25 812.5 L 100.25 821.875 L 83.0625 821.875 L 83.0625 875 L 72.125 875 L 72.125 821.875 L 54.9375 821.875 L 54.9375 812.5 z M 610.6875 812.5 L 618.5 812.5 C 618.92316 814.46946 619.85024 816.00331 621.25 817.09375 C 622.64971 818.1843 624.3268 818.73378 626.3125 818.75 C 628.24932 818.73378 629.84046 818.1843 631.09375 817.09375 C 632.34697 816.00331 633.35999 814.46946 634.125 812.5 L 641.9375 812.5 C 642.00497 812.65438 641.68476 813.74389 641 815.75 C 640.31516 817.75623 638.87226 819.74388 636.625 821.75 C 634.37766 823.75622 630.93245 824.84573 626.3125 825 C 621.69249 824.84573 618.24728 823.75622 616 821.75 C 613.75269 819.74388 612.30979 817.75623 611.625 815.75 C 610.94019 813.74389 610.61997 812.65438 610.6875 812.5 z M 130.65625 829.6875 C 134.88799 829.49223 139.11194 831.05473 143.34375 834.375 C 147.57547 837.69535 149.86193 843.94535 150.1875 853.125 C 150.03313 859.56309 148.68321 864.47513 146.15625 867.875 C 143.6292 871.27489 140.8603 873.58276 137.8125 874.8125 C 134.76463 876.04225 132.37304 876.63484 130.65625 876.5625 C 127.46612 876.38346 124.86195 875.57357 122.84375 874.125 C 120.8255 872.67644 119.78384 871.66342 119.71875 871.09375 L 119.71875 893.75 L 110.34375 893.75 L 110.34375 831.25 L 118.15625 831.25 C 118.50966 833.14736 119.03049 834.70986 119.71875 835.9375 C 119.68618 835.67712 120.52472 834.63546 122.25 832.8125 C 123.97524 830.98963 126.78252 829.94796 130.65625 829.6875 z M 175.09375 829.6875 C 179.29294 829.7852 183.40231 831.14457 187.40625 833.78125 C 191.41011 836.41801 193.55074 839.74613 193.84375 843.75 L 193.84375 864.84375 C 193.90881 866.7155 194.37235 867.8431 195.21875 868.25 C 196.06506 868.65691 196.9036 868.83139 197.75 868.75 L 193.84375 876.5625 C 191.10934 876.66015 188.96871 876.2539 187.40625 875.375 C 185.84371 874.49609 184.85934 872.5586 184.46875 869.53125 C 183.65492 871.19141 182.14971 872.75391 179.96875 874.21875 C 177.78773 875.68359 175.12628 876.46484 171.96875 876.5625 C 168.64842 876.5625 165.52342 875.375 162.59375 873.03125 C 159.66405 870.68751 158.10156 867.18751 157.90625 862.5 C 158.23417 857.63408 160.51812 854.0766 164.78125 851.84375 C 169.04435 849.61094 173.33061 848.20855 177.59375 847.625 C 181.85684 847.0415 184.14078 846.79304 184.46875 846.875 L 184.46875 843.75 C 184.37106 842.46423 183.38668 841.1335 181.53125 839.75 C 179.67575 838.36657 177.53513 837.61397 175.09375 837.5 C 172.70115 837.58142 170.44334 838.18819 168.34375 839.34375 C 166.24412 840.49938 164.59569 841.71553 163.375 842.96875 L 158.6875 835.15625 C 160.59179 833.90304 162.8496 832.68689 165.4375 831.53125 C 168.02537 830.37569 171.23631 829.76893 175.09375 829.6875 z M 274.3125 829.6875 C 278.71397 829.71777 282.54098 830.88332 285.8125 833.1875 C 289.08394 835.49176 291.50693 838.75329 293.0625 842.96875 L 284.25 846.3125 C 283.39663 843.45492 282.11055 841.28565 280.40625 839.78125 C 278.70188 838.27692 276.67249 837.51166 274.3125 837.5 C 271.12237 837.56514 268.51821 838.98181 266.5 841.78125 C 264.48175 844.58076 263.44009 848.37242 263.375 853.125 C 263.44009 857.87762 264.48175 861.63803 266.5 864.4375 C 268.51821 867.23699 271.12237 868.6849 274.3125 868.75 C 276.67249 868.73838 278.70188 867.97313 280.40625 866.46875 C 282.11055 864.96439 283.39663 862.79512 284.25 859.9375 L 293.0625 863.28125 C 291.50693 867.49675 289.08394 870.75828 285.8125 873.0625 C 282.54098 875.36672 278.71397 876.53227 274.3125 876.5625 C 268.30662 876.46484 263.33006 874.32422 259.375 870.125 C 255.41991 865.92579 253.36523 860.25392 253.21875 853.125 C 253.36523 845.99612 255.41991 840.32425 259.375 836.125 C 263.33006 831.92582 268.30662 829.7852 274.3125 829.6875 z M 370.40625 829.6875 C 376.37952 829.7852 381.21025 831.92582 384.9375 836.125 C 388.66467 840.32425 390.60477 845.99612 390.71875 853.125 C 390.60477 860.25392 388.66467 865.92579 384.9375 870.125 C 381.21025 874.32422 376.37952 876.46484 370.40625 876.5625 C 364.43292 876.46484 359.57095 874.32422 355.84375 870.125 C 352.11653 865.92579 350.20768 860.25392 350.09375 853.125 C 350.20767 845.99612 352.11653 840.32425 355.84375 836.125 C 359.57095 831.92582 364.43292 829.7852 370.40625 829.6875 z M 421.96875 829.6875 C 426.20049 829.49223 430.42444 831.05473 434.65625 834.375 C 438.88797 837.69535 441.17443 843.94535 441.5 853.125 C 441.34563 859.56309 439.99571 864.47513 437.46875 867.875 C 434.9417 871.27489 432.1728 873.58276 429.125 874.8125 C 426.07713 876.04225 423.68554 876.63484 421.96875 876.5625 C 418.77862 876.38346 416.17445 875.57357 414.15625 874.125 C 412.138 872.67644 411.09634 871.66342 411.03125 871.09375 L 411.03125 893.75 L 401.65625 893.75 L 401.65625 831.25 L 409.46875 831.25 C 409.82216 833.14736 410.34299 834.70986 411.03125 835.9375 C 410.99868 835.67712 411.83722 834.63546 413.5625 832.8125 C 415.28774 830.98963 418.09502 829.94796 421.96875 829.6875 z M 207.21875 831.25 L 216.59375 831.25 L 216.59375 847.65625 L 233 847.65625 L 233 831.25 L 242.375 831.25 L 242.375 875 L 233 875 L 233 856.25 L 216.59375 856.25 L 216.59375 875 L 207.21875 875 L 207.21875 831.25 z M 303.28125 831.25 L 338.4375 831.25 L 338.4375 875 L 329.0625 875 L 329.0625 839.84375 L 312.65625 839.84375 L 312.65625 875 L 303.28125 875 L 303.28125 831.25 z M 447 831.25 L 482.59375 831.25 L 482.59375 839.84375 L 469.53125 839.84375 L 469.53125 875 L 460.15625 875 L 460.15625 839.84375 L 447 839.84375 L 447 831.25 z M 492.1875 831.25 L 501.5625 831.25 L 501.5625 847.65625 L 517.96875 847.65625 L 517.96875 831.25 L 527.34375 831.25 L 527.34375 875 L 517.96875 875 L 517.96875 856.25 L 501.5625 856.25 L 501.5625 875 L 492.1875 875 L 492.1875 831.25 z M 542.125 831.25 L 551.5 831.25 L 551.5 846.875 L 562.4375 846.875 C 567.85971 847.02151 571.77861 848.49807 574.1875 851.28125 C 576.59631 854.06447 577.76521 857.27541 577.71875 860.9375 C 577.76521 864.59962 576.59631 867.81055 574.1875 870.59375 C 571.7786 873.37695 567.85971 874.85351 562.4375 875 L 542.125 875 L 542.125 831.25 z M 584.09375 831.25 L 593.46875 831.25 L 593.46875 875 L 584.09375 875 L 584.09375 831.25 z M 607.5625 831.25 L 616.9375 831.25 L 616.9375 860.9375 L 634.90625 831.25 L 645.0625 831.25 L 645.0625 875 L 635.6875 875 L 635.6875 845.3125 L 617.71875 875 L 607.5625 875 L 607.5625 831.25 z M 370.40625 837.5 C 367.21612 837.56514 364.61196 838.98181 362.59375 841.78125 C 360.5755 844.58076 359.53384 848.37242 359.46875 853.125 C 359.53384 857.87762 360.5755 861.63803 362.59375 864.4375 C 364.61196 867.23699 367.21612 868.6849 370.40625 868.75 C 373.59632 868.6849 376.20049 867.23699 378.21875 864.4375 C 380.23694 861.63804 381.27861 857.87762 381.34375 853.125 C 381.27861 848.37242 380.23694 844.58076 378.21875 841.78125 C 376.20049 838.98181 373.59632 837.56514 370.40625 837.5 z M 130.65625 838.28125 C 128.39385 838.31384 126.28857 839.0378 124.375 840.4375 C 122.46138 841.83727 120.92083 843.71748 119.71875 846.09375 L 119.71875 862.5 C 120.94873 864.46941 122.56517 866.00326 124.5625 867.09375 C 126.55978 868.18425 128.58917 868.73373 130.65625 868.75 C 133.47197 868.6849 135.84437 867.23699 137.78125 864.4375 C 139.71806 861.63804 140.73108 857.87762 140.8125 853.125 C 140.73108 848.40497 139.71806 844.75914 137.78125 842.1875 C 135.84437 839.61592 133.47197 838.31384 130.65625 838.28125 z M 421.96875 838.28125 C 419.70635 838.31384 417.60107 839.0378 415.6875 840.4375 C 413.77388 841.83727 412.23333 843.71748 411.03125 846.09375 L 411.03125 862.5 C 412.26123 864.46941 413.87767 866.00326 415.875 867.09375 C 417.87228 868.18425 419.90167 868.73373 421.96875 868.75 C 424.78447 868.6849 427.15687 867.23699 429.09375 864.4375 C 431.03056 861.63804 432.04358 857.87762 432.125 853.125 C 432.04358 848.40497 431.03056 844.75914 429.09375 842.1875 C 427.15687 839.61592 424.78447 838.31384 421.96875 838.28125 z M 184.46875 853.90625 C 183.03642 854.36441 181.02948 854.74906 178.46875 855.0625 C 175.90796 855.37598 173.56421 855.98516 171.4375 856.90625 C 169.31075 857.82737 168.19269 859.43771 168.0625 861.71875 C 168.22524 864.40431 169.06378 866.25587 170.59375 867.28125 C 172.12368 868.30665 173.36846 868.79883 174.3125 868.75 C 176.78643 868.50587 179.07289 867.43556 181.15625 865.53125 C 183.23955 863.62696 184.33851 862.35353 184.46875 861.71875 L 184.46875 853.90625 z M 551.5 855.46875 L 551.5 866.40625 L 563.21875 866.40625 C 564.81377 866.33883 566.11585 865.73875 567.125 864.625 C 568.13408 863.51127 568.65491 862.28842 568.6875 860.9375 C 568.65491 859.5866 568.13408 858.36376 567.125 857.25 C 566.11585 856.13627 564.81377 855.5362 563.21875 855.46875 L 551.5 855.46875 z M 230.28125 917.1875 C 236.25452 917.2852 241.1165 919.42582 244.84375 923.625 C 248.57092 927.82425 250.47977 933.49612 250.59375 940.625 C 250.47977 947.75392 248.57092 953.42579 244.84375 957.625 C 241.1165 961.82422 236.25452 963.96484 230.28125 964.0625 C 224.30792 963.96484 219.4772 961.82422 215.75 957.625 C 212.02278 953.42579 210.08268 947.75392 209.96875 940.625 C 210.08267 933.49612 212.02278 927.82425 215.75 923.625 C 219.4772 919.42582 224.30792 917.2852 230.28125 917.1875 z M 371.625 917.1875 C 375.85674 916.99223 380.08069 918.55473 384.3125 921.875 C 388.54422 925.19535 390.83068 931.44535 391.15625 940.625 C 391.00188 947.06309 389.65196 951.97513 387.125 955.375 C 384.59795 958.77489 381.82905 961.08276 378.78125 962.3125 C 375.73338 963.54225 373.34179 964.13484 371.625 964.0625 C 368.43487 963.88346 365.8307 963.07357 363.8125 961.625 C 361.79425 960.17644 360.75259 959.16342 360.6875 958.59375 L 360.6875 981.25 L 351.3125 981.25 L 351.3125 918.75 L 359.125 918.75 C 359.47841 920.64736 359.99924 922.20986 360.6875 923.4375 C 360.65493 923.17712 361.49347 922.13546 363.21875 920.3125 C 364.94399 918.48963 367.75127 917.44796 371.625 917.1875 z M 419.1875 917.1875 C 425.16077 917.2852 430.02275 919.42582 433.75 923.625 C 437.47717 927.82425 439.38602 933.49612 439.5 940.625 C 439.38602 947.75392 437.47717 953.42579 433.75 957.625 C 430.02275 961.82422 425.16077 963.96484 419.1875 964.0625 C 413.21417 963.96484 408.38345 961.82422 404.65625 957.625 C 400.92903 953.42579 398.98893 947.75392 398.875 940.625 C 398.98892 933.49612 400.92903 927.82425 404.65625 923.625 C 408.38345 919.42582 413.21417 917.2852 419.1875 917.1875 z M 195.90625 917.96875 L 198.25 925.78125 C 195.84558 926.07684 193.8377 927.08444 192.21875 928.78125 C 190.59972 930.47812 189.07034 932.21638 187.625 934 C 186.17958 935.78368 184.50851 936.94406 182.625 937.5 C 186.06067 938.36877 188.78813 940.27728 190.78125 943.25 C 192.77429 946.22276 194.61104 949.51338 196.34375 953.09375 C 198.07637 956.67414 200.28299 959.80834 202.9375 962.5 L 191.21875 962.5 C 188.52852 957.7381 186.07353 953.19049 183.84375 948.875 C 181.6139 944.55954 178.33972 942.26639 174.03125 941.96875 C 173.68943 941.97109 173.31778 941.98709 172.90625 942.03125 C 172.49468 942.07545 172.08508 942.12939 171.6875 942.1875 L 171.6875 962.5 L 162.3125 962.5 L 162.3125 918.75 L 171.6875 918.75 L 171.6875 934.375 C 171.85954 934.4285 172.05002 934.45715 172.25 934.46875 C 172.44994 934.4804 172.64042 934.50235 172.8125 934.5 C 175.12936 934.31057 177.41424 932.92477 179.71875 930.375 C 182.0232 927.8253 184.51047 925.23033 187.125 922.59375 C 189.73946 919.95725 192.65927 918.41867 195.90625 917.96875 z M 262.3125 918.75 L 271.6875 918.75 L 271.6875 935.15625 L 288.09375 935.15625 L 288.09375 918.75 L 297.46875 918.75 L 297.46875 962.5 L 288.09375 962.5 L 288.09375 943.75 L 271.6875 943.75 L 271.6875 962.5 L 262.3125 962.5 L 262.3125 918.75 z M 306.875 918.75 L 342.46875 918.75 L 342.46875 927.34375 L 329.4375 927.34375 L 329.4375 962.5 L 320.0625 962.5 L 320.0625 927.34375 L 306.875 927.34375 L 306.875 918.75 z M 456.6875 918.75 L 487.15625 918.75 L 487.15625 962.5 L 477.78125 962.5 L 477.78125 927.34375 L 465.28125 927.34375 C 465.18478 932.13737 465.05592 937.03745 464.84375 942.0625 C 464.63153 947.08759 463.358 951.61035 461.0625 955.59375 C 458.76696 959.57716 454.44019 962.3939 448.09375 964.0625 L 446.3125 955.125 C 447.64713 954.90644 449.0571 954.31567 450.53125 953.34375 C 452.00538 952.37185 453.25017 950.99983 454.25 949.21875 C 454.8776 947.91255 455.3598 945.39949 455.71875 941.6875 C 456.07767 937.97555 456.32061 933.96994 456.46875 929.6875 C 456.61686 925.40513 456.69231 921.76757 456.6875 918.75 z M 502.03125 918.75 L 511.40625 918.75 L 511.40625 934.375 L 522.34375 934.375 C 527.76596 934.52151 531.65361 935.99807 534.0625 938.78125 C 536.47131 941.56447 537.67146 944.77541 537.625 948.4375 C 537.67146 952.09962 536.47131 955.31055 534.0625 958.09375 C 531.6536 960.87695 527.76596 962.35351 522.34375 962.5 L 502.03125 962.5 L 502.03125 918.75 z M 230.28125 925 C 227.09112 925.06514 224.48696 926.48181 222.46875 929.28125 C 220.4505 932.08076 219.40884 935.87242 219.34375 940.625 C 219.40884 945.37762 220.4505 949.13803 222.46875 951.9375 C 224.48696 954.73699 227.09112 956.1849 230.28125 956.25 C 233.47132 956.1849 236.07549 954.73699 238.09375 951.9375 C 240.11194 949.13804 241.15361 945.37762 241.21875 940.625 C 241.15361 935.87242 240.11194 932.08076 238.09375 929.28125 C 236.07549 926.48181 233.47132 925.06514 230.28125 925 z M 419.1875 925 C 415.99737 925.06514 413.39321 926.48181 411.375 929.28125 C 409.35675 932.08076 408.31509 935.87242 408.25 940.625 C 408.31509 945.37762 409.35675 949.13803 411.375 951.9375 C 413.39321 954.73699 415.99737 956.1849 419.1875 956.25 C 422.37757 956.1849 424.98174 954.73699 427 951.9375 C 429.01819 949.13804 430.05986 945.37762 430.125 940.625 C 430.05986 935.87242 429.01819 932.08076 427 929.28125 C 424.98174 926.48181 422.37757 925.06514 419.1875 925 z M 371.625 925.78125 C 369.3626 925.81384 367.25732 926.5378 365.34375 927.9375 C 363.43013 929.33727 361.88958 931.21748 360.6875 933.59375 L 360.6875 950 C 361.91748 951.96941 363.53392 953.50326 365.53125 954.59375 C 367.52853 955.68425 369.55792 956.23373 371.625 956.25 C 374.44072 956.1849 376.81312 954.73699 378.75 951.9375 C 380.68681 949.13804 381.69983 945.37762 381.78125 940.625 C 381.69983 935.90497 380.68681 932.25914 378.75 929.6875 C 376.81312 927.11592 374.44072 925.81384 371.625 925.78125 z M 511.40625 942.96875 L 511.40625 953.90625 L 523.125 953.90625 C 524.72002 953.83883 526.0221 953.23875 527.03125 952.125 C 528.04033 951.01127 528.56116 949.78842 528.59375 948.4375 C 528.56116 947.0866 528.04033 945.86376 527.03125 944.75 C 526.0221 943.63627 524.72002 943.0362 523.125 942.96875 L 511.40625 942.96875 z "
       transform="translate(0,2.362183)"
       id="rect10483" />
    <rect
       ry="44"
       rx="44"
       y="3.3621678"
       x="1.0000153"
       height="1048"
       width="698"
       id="rect10490"
       style="color:#000000;fill:none;stroke:#000000;stroke-width:1.99999988000000010;stroke-miterlimit:4;stroke-opacity:1;stroke-dasharray:none;marker:none;visibility:visible;display:inline;overflow:visible;enable-background:accumulate;opacity:1" />
    <path
       style="opacity:1;color:#000000;fill:#000000;fill-opacity:1;stroke:none;stroke-width:1px;marker:none;visibility:visible;display:inline;overflow:visible;enable-background:accumulate"
       d="m 219.94863,300.27648 c -5.81761,0 -11.25526,2.89311 -14.50842,7.71618 l -27.44364,40.67851 C 176.04655,351.56217 175,354.9728 175,358.45998 l 0,42.2519 c 0,9.66499 7.84,17.505 17.50499,17.505 l 15.80694,0 c 0.91595,-19.48152 16.97492,-35.00999 36.68307,-35.00999 19.70816,0 35.79211,15.52847 36.70806,35.00999 l 136.59388,0 c 0.6561,-13.95388 9.07325,-25.87416 21.05095,-31.51398 l -152.35089,0 0,-68.9464 c 0,-9.66499 -7.84001,-17.48002 -17.505,-17.48002 z m 0.92394,10.488 39.87942,0 c 4.83256,0 8.74001,3.9325 8.74001,8.76499 l 0,24.497 c 0,4.83249 -3.90745,8.74001 -8.74001,8.74001 l -56.41052,0 c -4.83255,0 -8.74002,-3.90752 -8.74002,-8.74001 0,-1.7436 0.52327,-3.4489 1.49828,-4.89441 l 16.53113,-24.49699 c 1.62653,-2.41154 4.33295,-3.87059 7.24171,-3.87059 z"
       id="path7215"
       inkscape:connector-curvature="0"
       sodipodi:nodetypes="sccssscsccccssssssssssccs" />
    <path
       inkscape:connector-curvature="0"
       style="opacity:1;color:#000000;fill:#000000;fill-opacity:1;fill-rule:nonzero;stroke:none;stroke-width:3.54299997999999980;marker:none;visibility:visible;display:inline;overflow:visible;enable-background:accumulate"
       d="m 315,268.31321 c -9.69499,0 -17.49999,7.805 -17.49999,17.49999 l 0,94.37214 227.49999,0 0,-94.37214 c 0,-9.69499 -7.805,-17.49999 -17.5,-17.49999 z"
       id="path7217"
       sodipodi:nodetypes="sccccss" />
    <path
       inkscape:connector-curvature="0"
       style="opacity:1;color:#000000;fill:#000000;fill-opacity:1;fill-rule:nonzero;stroke:none;stroke-width:1px;marker:none;visibility:visible;display:inline;overflow:visible;enable-background:accumulate"
       d="m 454.99999,390.2059 c -16.43048,0 -29.74999,13.3195 -29.74999,29.75 0,16.43046 13.31951,29.75002 29.74999,29.75002 16.4305,0 29.75,-13.31956 29.75,-29.75002 0,-16.4305 -13.3195,-29.75 -29.75,-29.75 z m 0,14 c 8.69848,0 15.75,7.05153 15.75,15.75 0,8.69846 -7.05152,15.75002 -15.75,15.75002 -8.69846,0 -15.75,-7.05156 -15.75,-15.75002 0,-8.69847 7.05154,-15.75 15.75,-15.75 z"
       id="path7219" />
    <path
       id="path7221"
       style="opacity:1;color:#000000;fill:#000000;fill-opacity:1;stroke:none;stroke-width:3.54299997999999980;marker:none;visibility:visible;display:inline;overflow:visible;enable-background:accumulate"
       d="m 491.6953,418.2059 c -0.65606,-13.9539 -9.07699,-25.86018 -21.05469,-31.50001 l 54.35939,-3e-5 0,31.50004 z"
       inkscape:connector-curvature="0"
       sodipodi:nodetypes="ccccc" />
    <path
       id="path7223"
       d="m 245,390.2059 c -16.43049,0 -29.75,13.3195 -29.75,29.75 0,16.43046 13.31951,29.75002 29.75,29.75002 16.43049,0 29.75,-13.31956 29.75,-29.75002 0,-16.4305 -13.31951,-29.75 -29.75,-29.75 z m 0,14 c 8.69846,0 15.75,7.05153 15.75,15.75 0,8.69846 -7.05154,15.75002 -15.75,15.75002 -8.69847,0 -15.75,-7.05156 -15.75,-15.75002 0,-8.69847 7.05153,-15.75 15.75,-15.75 z"
       style="opacity:1;color:#000000;fill:#000000;fill-opacity:1;fill-rule:nonzero;stroke:none;stroke-width:1px;marker:none;visibility:visible;display:inline;overflow:visible;enable-background:accumulate"
       inkscape:connector-curvature="0" />
    <path
       style="opacity:1;color:#000000;fill:#000000;fill-opacity:1;fill-rule:nonzero;stroke:none;stroke-width:1.27611935000000010;marker:none;visibility:visible;display:inline;overflow:visible;enable-background:accumulate"
       d="M 220.65625 496.9375 C 215.00802 496.9375 209.79292 499.95217 206.96875 504.84375 L 179.3125 552.75 C 177.92497 555.1533 177.1875 557.88108 177.1875 560.65625 L 177.1875 587.375 L 177.1875 618.65625 C 177.1875 627.41478 184.24147 634.46875 193 634.46875 L 200.90625 634.46875 C 200.90625 612.64013 218.60887 594.9375 240.4375 594.9375 C 262.26612 594.9375 279.9375 612.64013 279.9375 634.46875 L 406.4375 634.46875 C 406.4375 612.64013 424.10895 594.9375 445.9375 594.9375 C 467.76614 594.9375 485.46875 612.64013 485.46875 634.46875 L 509.1875 634.46875 C 517.94604 634.46875 525 627.41478 525 618.65625 L 525 587.375 L 525 560.65625 C 525 558.957 524.72487 557.26833 524.1875 555.65625 L 508.21875 507.75 C 506.06682 501.29425 500.0237 496.9375 493.21875 496.9375 L 220.65625 496.9375 z M 222.5 508 L 232.53125 508 L 240.4375 508 C 244.81676 508 248.34375 511.52698 248.34375 515.90625 L 248.34375 547.53125 C 248.34375 551.91051 244.81676 555.4375 240.4375 555.4375 L 232.53125 555.4375 L 204.21875 555.4375 C 199.85304 555.4375 196.34375 551.89695 196.34375 547.53125 C 196.34375 546.14361 196.68123 544.76409 197.375 543.5625 L 215.65625 511.9375 C 217.06828 509.49166 219.67583 508 222.5 508 z M 272.03125 508 L 319.46875 508 C 323.84803 508 327.375 511.52697 327.375 515.90625 L 327.375 547.53125 C 327.375 551.91053 323.84803 555.4375 319.46875 555.4375 L 272.03125 555.4375 C 267.65197 555.4375 264.15625 551.91053 264.15625 547.53125 L 264.15625 515.90625 C 264.15625 511.52697 267.65197 508 272.03125 508 z M 351.09375 508 L 398.53125 508 C 402.91053 508 406.4375 511.52697 406.4375 515.90625 L 406.4375 547.53125 C 406.4375 551.91053 402.91053 555.4375 398.53125 555.4375 L 351.09375 555.4375 C 346.71447 555.4375 343.1875 551.91053 343.1875 547.53125 L 343.1875 515.90625 C 343.1875 511.52697 346.71447 508 351.09375 508 z M 430.15625 508 L 453.84375 508 L 475.1875 508 C 478.69416 508 481.79172 510.2921 482.78125 513.65625 L 492.09375 545.28125 C 493.32564 549.46955 490.90705 553.86186 486.71875 555.09375 C 485.99444 555.30681 485.255 555.4375 484.5 555.4375 L 453.84375 555.4375 L 430.15625 555.4375 C 425.77697 555.4375 422.25 551.91051 422.25 547.53125 L 422.25 515.90625 C 422.25 511.52698 425.77697 508 430.15625 508 z "
       transform="translate(0,2.362183)"
       id="path12421" />
    <path
       id="path12424"
       d="m 240.42616,605.21726 c -17.46293,0 -31.61933,14.15652 -31.61933,31.61933 0,17.46292 14.1564,31.61933 31.61933,31.61933 17.46281,0 31.61932,-14.15641 31.61932,-31.61933 0,-17.46281 -14.15651,-31.61933 -31.61932,-31.61933 z m 0,15.80972 c 8.7314,0 15.80961,7.0782 15.80961,15.80961 0,8.73141 -7.07821,15.80972 -15.80961,15.80972 -8.73152,0 -15.80972,-7.07831 -15.80972,-15.80972 0,-8.73141 7.0782,-15.80961 15.80972,-15.80961 z"
       style="opacity:1;color:#000000;fill:#000000;fill-opacity:1;fill-rule:nonzero;stroke:none;stroke-width:1px;marker:none;visibility:visible;display:inline;overflow:visible;enable-background:accumulate"
       inkscape:connector-curvature="0" />
    <path
       id="path12434"
       d="m 445.95171,605.21726 c -17.46288,0 -31.6193,14.15652 -31.6193,31.61933 0,17.46292 14.15642,31.61933 31.6193,31.61933 17.46288,0 31.61932,-14.15641 31.61932,-31.61933 0,-17.46281 -14.15644,-31.61933 -31.61932,-31.61933 z m 0,15.80972 c 8.73144,0 15.80966,7.0782 15.80966,15.80961 0,8.73141 -7.07822,15.80972 -15.80966,15.80972 -8.73144,0 -15.80965,-7.07831 -15.80965,-15.80972 0,-8.73141 7.07821,-15.80961 15.80965,-15.80961 z"
       style="opacity:1;color:#000000;fill:#000000;fill-opacity:1;fill-rule:nonzero;stroke:none;stroke-width:1px;marker:none;visibility:visible;display:inline;overflow:visible;enable-background:accumulate"
       inkscape:connector-curvature="0" />
  </g>
</svg>
