<?xml version="1.0" encoding="UTF-8" standalone="no"?>
<!-- Created with Inkscape (http://www.inkscape.org/) -->

<svg
   xmlns:dc="http://purl.org/dc/elements/1.1/"
   xmlns:cc="http://creativecommons.org/ns#"
   xmlns:rdf="http://www.w3.org/1999/02/22-rdf-syntax-ns#"
   xmlns:svg="http://www.w3.org/2000/svg"
   xmlns="http://www.w3.org/2000/svg"
   xmlns:sodipodi="http://sodipodi.sourceforge.net/DTD/sodipodi-0.dtd"
   xmlns:inkscape="http://www.inkscape.org/namespaces/inkscape"
   width="700"
   height="1050"
   id="svg2"
   version="1.1"
   inkscape:version="0.48.4 r9939"
   sodipodi:docname="7.12.svg">
  <title
     id="title3002">7.16 Зона радиосвязи с аварийными службами</title>
  <defs
     id="defs4" />
  <sodipodi:namedview
     id="base"
     pagecolor="#ffffff"
     bordercolor="#666666"
     borderopacity="1.0"
     inkscape:pageopacity="0.0"
     inkscape:pageshadow="2"
     inkscape:zoom="1"
     inkscape:cx="334.69286"
     inkscape:cy="681.75135"
     inkscape:document-units="px"
     inkscape:current-layer="layer1"
     showgrid="false"
     inkscape:window-width="1920"
     inkscape:window-height="1024"
     inkscape:window-x="-4"
     inkscape:window-y="-4"
     inkscape:window-maximized="1"
     showguides="true"
     inkscape:guide-bbox="true" />
  <metadata
     id="metadata7">
    <rdf:RDF>
      <cc:Work
         rdf:about="">
        <dc:format>image/svg+xml</dc:format>
        <dc:type
           rdf:resource="http://purl.org/dc/dcmitype/StillImage" />
        <dc:title>7.16 Зона радиосвязи с аварийными службами</dc:title>
        <cc:license
           rdf:resource="http://creativecommons.org/licenses/by-sa/3.0/" />
        <dc:description>ГОСТ Р 52290-2004
Размеры и пропорции по типоразмеру II</dc:description>
      </cc:Work>
      <cc:License
         rdf:about="http://creativecommons.org/licenses/by-sa/3.0/">
        <cc:permits
           rdf:resource="http://creativecommons.org/ns#Reproduction" />
        <cc:permits
           rdf:resource="http://creativecommons.org/ns#Distribution" />
        <cc:requires
           rdf:resource="http://creativecommons.org/ns#Notice" />
        <cc:requires
           rdf:resource="http://creativecommons.org/ns#Attribution" />
        <cc:permits
           rdf:resource="http://creativecommons.org/ns#DerivativeWorks" />
        <cc:requires
           rdf:resource="http://creativecommons.org/ns#ShareAlike" />
      </cc:License>
    </rdf:RDF>
  </metadata>
  <g
     inkscape:label="Layer 1"
     inkscape:groupmode="layer"
     id="layer1"
     transform="translate(0,-2.362183)">
    <rect
       style="color:#000000;fill:#ffffff;fill-opacity:1;fill-rule:nonzero;stroke:none;stroke-width:3.54299997999999980;marker:none;visibility:visible;display:inline;overflow:visible;enable-background:accumulate;opacity:1"
       id="rect10481"
       width="700"
       height="1050"
       x="0"
       y="2.3621831"
       rx="45"
       ry="45" />
    <path
       style="color:#000000;fill:#0d69e1;fill-opacity:1;fill-rule:nonzero;stroke:none;stroke-width:3.54299997999999980;marker:none;visibility:visible;display:inline;overflow:visible;enable-background:accumulate;opacity:1"
       d="M 45 20 C 31.15 20 20 31.15 20 45 L 20 1005 C 20 1018.85 31.15 1030 45 1030 L 655 1030 C 668.85 1030 680 1018.85 680 1005 L 680 45 C 680 31.15 668.85 20 655 20 L 45 20 z M 110.625 175 L 589.375 175 C 614.305 175 634.375 195.07 634.375 220 L 634.375 698.75 C 634.375 723.68 614.305 743.75 589.375 743.75 L 110.625 743.75 C 85.694999 743.75 65.625 723.68 65.625 698.75 L 65.625 220 C 65.625 195.07 85.694999 175 110.625 175 z M 109.875 818.03125 C 120.51338 818.04966 129.07684 821.96275 135.5625 829.78125 C 142.04802 837.59993 145.38298 849.2259 145.5625 864.625 C 145.6906 879.87406 142.64666 892.85842 136.46875 903.625 C 130.29071 914.39161 120.20966 920.0166 106.1875 920.5 C 101.00924 920.27294 96.286594 919.3706 92.03125 917.78125 C 87.775861 916.1919 85.50633 915.28955 85.25 915.0625 L 83.3125 899.9375 C 83.521226 900.17921 85.738998 901.15187 89.96875 902.84375 C 94.198461 904.53566 99.191619 905.50831 104.9375 905.75 C 112.19874 905.34854 117.50169 902.5317 120.84375 897.3125 C 124.18571 892.09334 126.30637 886.87546 127.1875 881.65625 C 128.06852 876.43711 128.43397 873.62027 128.3125 873.21875 C 125.185 875.78227 121.61274 878.0518 117.5625 880 C 113.51216 881.94828 109.29537 882.96 104.9375 883.0625 C 100.6821 883.34452 95.668429 881.55839 89.875 877.6875 C 84.08153 873.81669 80.907704 866.18877 80.34375 854.78125 C 80.57445 844.63728 83.479722 836.02401 89.09375 829 C 94.707739 821.97617 101.64621 818.33164 109.875 818.03125 z M 112.3125 833.84375 C 106.87789 834.20272 102.87204 836.43709 100.25 840.53125 C 97.627902 844.62556 96.329075 848.95368 96.34375 853.53125 C 96.548799 858.45319 97.958956 862.16412 100.625 864.625 C 103.29098 867.08599 105.95895 868.31255 108.625 868.3125 C 114.80659 867.80718 119.56245 865.78765 122.84375 862.25 C 126.12494 858.71246 127.75189 856.69293 127.78125 856.1875 C 127.58696 854.30388 127.03662 851.6051 126.09375 848.09375 C 125.15077 844.58254 123.57959 841.36292 121.40625 838.4375 C 119.2328 835.51224 116.19808 833.9697 112.3125 833.84375 z M 325.46875 847.375 C 332.08247 847.52887 338.53755 849.69098 344.84375 853.84375 C 351.14984 857.99664 354.53851 863.22515 355 869.53125 L 355 902.75 C 355.10247 905.69801 355.82317 907.48414 357.15625 908.125 C 358.48919 908.76588 359.82317 909.03443 361.15625 908.90625 L 355 921.21875 C 350.6933 921.37255 347.30463 920.75927 344.84375 919.375 C 342.38275 917.99072 340.83393 914.89307 340.21875 910.125 C 338.93696 912.73975 336.59126 915.22412 333.15625 917.53125 C 329.72115 919.83838 325.50436 921.06494 320.53125 921.21875 C 315.30173 921.21874 310.39548 919.3789 305.78125 915.6875 C 301.16698 911.9961 298.71386 906.44532 298.40625 899.0625 C 298.92273 891.39868 302.53557 885.79799 309.25 882.28125 C 315.96438 878.76458 322.66055 876.5441 329.375 875.625 C 336.08936 874.70599 339.7022 874.33967 340.21875 874.46875 L 340.21875 869.53125 C 340.06489 867.50616 338.54731 865.39776 335.625 863.21875 C 332.70259 861.03985 329.31392 859.867 325.46875 859.6875 C 321.70041 859.81573 318.1506 860.80499 314.84375 862.625 C 311.53684 864.44512 308.92258 866.33867 307 868.3125 L 299.625 856 C 302.62425 854.02619 306.1428 852.13264 310.21875 850.3125 C 314.29465 848.4925 319.39327 847.50325 325.46875 847.375 z M 500.59375 847.375 C 507.20747 847.52887 513.66255 849.69098 519.96875 853.84375 C 526.27484 857.99664 529.66351 863.22515 530.125 869.53125 L 530.125 902.75 C 530.22747 905.69801 530.94817 907.48414 532.28125 908.125 C 533.61419 908.76588 534.94817 909.03443 536.28125 908.90625 L 530.125 921.21875 C 525.8183 921.37255 522.42963 920.75927 519.96875 919.375 C 517.50775 917.99072 515.99018 914.89307 515.375 910.125 C 514.09321 912.73975 511.71626 915.22412 508.28125 917.53125 C 504.84615 919.83838 500.66061 921.06494 495.6875 921.21875 C 490.45798 921.21874 485.52048 919.3789 480.90625 915.6875 C 476.29198 911.9961 473.83886 906.44532 473.53125 899.0625 C 474.04773 891.39868 477.66057 885.79799 484.375 882.28125 C 491.08938 878.76458 497.78555 876.5441 504.5 875.625 C 511.21436 874.70599 514.85845 874.33967 515.375 874.46875 L 515.375 869.53125 C 515.22114 867.50616 513.67231 865.39776 510.75 863.21875 C 507.82759 861.03985 504.43892 859.867 500.59375 859.6875 C 496.82541 859.81573 493.2756 860.80499 489.96875 862.625 C 486.66184 864.44512 484.04758 866.33867 482.125 868.3125 L 474.75 856 C 477.74925 854.02619 481.29905 852.13264 485.375 850.3125 C 489.4509 848.4925 494.51827 847.50325 500.59375 847.375 z M 264.34375 848.625 L 268.03125 860.90625 C 264.24429 861.3718 261.0811 862.95253 258.53125 865.625 C 255.98128 868.29758 253.55767 871.03455 251.28125 873.84375 C 249.00472 876.65304 246.37278 878.49939 243.40625 879.375 C 248.81744 880.74331 253.11084 883.75546 256.25 888.4375 C 259.38904 893.1196 262.30223 898.29841 265.03125 903.9375 C 267.76013 909.57662 271.2254 914.51064 275.40625 918.75 L 256.9375 918.75 C 252.70038 911.25001 248.85566 904.10939 245.34375 897.3125 C 241.83174 890.51565 236.66085 886.87503 229.875 886.40625 C 229.33664 886.40994 228.74191 886.4617 228.09375 886.53125 C 227.44552 886.60086 226.81369 886.65848 226.1875 886.75 L 226.1875 918.75 L 211.4375 918.75 L 211.4375 849.84375 L 226.1875 849.84375 L 226.1875 874.46875 C 226.45847 874.55302 226.74753 874.57548 227.0625 874.59375 C 227.37741 874.61211 227.66647 874.6287 227.9375 874.625 C 231.58655 874.32664 235.2454 872.17214 238.875 868.15625 C 242.50451 864.14047 246.38211 860.05887 250.5 855.90625 C 254.61778 851.75376 259.22976 849.33362 264.34375 848.625 z M 387.9375 849.84375 L 402.6875 849.84375 L 402.6875 875.6875 L 428.53125 875.6875 L 428.53125 849.84375 L 443.3125 849.84375 L 443.3125 918.75 L 428.53125 918.75 L 428.53125 889.21875 L 402.6875 889.21875 L 402.6875 918.75 L 387.9375 918.75 L 387.9375 849.84375 z M 571.6875 849.84375 L 619.65625 849.84375 L 619.65625 918.75 L 604.90625 918.75 L 604.90625 863.375 L 585.21875 863.375 C 585.0668 870.92496 584.83417 878.64804 584.5 886.5625 C 584.16576 894.47702 582.17792 901.56989 578.5625 907.84375 C 574.94702 914.11763 568.15189 918.59071 558.15625 921.21875 L 555.34375 907.15625 C 557.44579 906.81202 559.64696 905.87452 561.96875 904.34375 C 564.29051 902.813 566.23777 900.64894 567.8125 897.84375 C 568.80098 895.78648 569.59091 891.81513 570.15625 885.96875 C 570.72155 880.12244 571.11044 873.83859 571.34375 867.09375 C 571.57702 860.34902 571.69507 854.59642 571.6875 849.84375 z M 340.21875 885.53125 C 337.96284 886.25285 334.8144 886.85008 330.78125 887.34375 C 326.74801 887.83748 323.06832 888.83054 319.71875 890.28125 C 316.36911 891.73202 314.58005 894.25111 314.375 897.84375 C 314.63131 902.0735 315.9653 904.97877 318.375 906.59375 C 320.78463 908.20875 322.73189 908.98316 324.21875 908.90625 C 328.11519 908.52174 331.7187 906.84303 335 903.84375 C 338.2812 900.8445 340.01362 898.84352 340.21875 897.84375 L 340.21875 885.53125 z M 515.375 885.53125 C 513.11909 886.25285 509.97065 886.85008 505.9375 887.34375 C 501.90426 887.83748 498.19332 888.83054 494.84375 890.28125 C 491.49411 891.73202 489.7363 894.25111 489.53125 897.84375 C 489.78756 902.0735 491.12155 904.97877 493.53125 906.59375 C 495.94088 908.20875 497.88814 908.98316 499.375 908.90625 C 503.27144 908.52174 506.8437 906.84303 510.125 903.84375 C 513.4062 900.8445 515.16987 898.84352 515.375 897.84375 L 515.375 885.53125 z "
       transform="translate(0,2.362183)"
       id="rect10483" />
    <rect
       ry="44"
       rx="44"
       y="3.3621678"
       x="1.0000153"
       height="1048"
       width="698"
       id="rect10490"
       style="color:#000000;fill:none;stroke:#000000;stroke-width:1.99999988000000010;stroke-miterlimit:4;stroke-opacity:1;stroke-dasharray:none;marker:none;visibility:visible;display:inline;overflow:visible;enable-background:accumulate;opacity:1" />
    <g
       style="font-size:223.05119324000003000px;font-style:normal;font-variant:normal;font-weight:normal;font-stretch:normal;line-height:125%;letter-spacing:-10.39062500000000000px;word-spacing:0px;opacity:1;fill:#000000;fill-opacity:1;stroke:none;font-family:Arial;-inkscape-font-specification:Arial"
       id="text15134">
      <path
         d="m 160.04476,289.95739 c -17.14689,0.46891 -29.9164,6.87117 -38.30855,19.20679 -8.39222,12.33583 -12.57437,27.79229 -12.54647,46.36941 -0.0279,18.57724 4.15426,34.0337 12.54647,46.36941 8.39215,12.33574 21.16166,18.738 38.30855,19.2068 11.7806,-0.16264 21.31751,-3.35037 28.61074,-9.5632 7.29304,-6.21281 12.84906,-14.47489 16.66807,-24.78624 l -20.96654,-7.80669 c -2.33861,7.74166 -5.52866,13.33645 -9.57015,16.78438 -4.04165,3.44797 -8.95569,5.13942 -14.74212,5.07435 -8.75006,-0.13009 -15.84113,-4.16355 -21.27324,-12.10037 -5.4322,-7.93677 -8.22959,-18.99624 -8.39219,-33.17844 0.16261,-14.18208 2.96,-25.24155 8.3922,-33.17844 5.43211,-7.9367 12.52318,-11.97015 21.27323,-12.10037 5.78644,-0.0649 10.70048,1.62651 14.74213,5.07435 4.04149,3.44806 7.23153,9.04285 9.57014,16.78439 l 20.96654,-7.80669 c -3.81902,-10.31124 -9.37504,-18.57331 -16.66808,-24.78625 -7.29323,-6.2127 -16.83013,-9.40043 -28.61073,-9.56319 z"
         style="fill:#000000;font-family:Russian Road Sign;-inkscape-font-specification:Russian Road Sign"
         id="path15249" />
      <path
         d="m 227.84463,330.55218 0,87.43494 42.15614,0 c 6.03617,0.32528 12.42092,-1.10595 19.15427,-4.29368 6.73319,-3.18773 10.3856,-10.08363 10.95725,-20.68773 0.0139,-4.01949 -1.29656,-7.80201 -3.93123,-11.34759 -2.63484,-3.54549 -6.67759,-6.15701 -12.12825,-7.83457 5.36702,-1.64029 9.07519,-4.10311 11.12453,-7.38848 2.04917,-3.28526 3.02501,-6.91908 2.92751,-10.90148 -0.1302,-7.18859 -2.60231,-13.10866 -7.41636,-17.76023 -4.8142,-4.6514 -11.18966,-7.05846 -19.12639,-7.22118 l -24.98141,0 z m 18.73606,17.17472 23.42008,0 c 3.12261,0.0976 5.46461,1.07349 7.02601,2.92751 1.56127,1.85416 2.34194,4.00099 2.34202,6.44052 -8e-5,2.43965 -0.78074,4.58649 -2.34202,6.44052 -1.5614,1.85414 -3.90341,2.82998 -7.02601,2.92751 l -23.42008,0 z m 0,32.7881 23.42008,0 c 3.18766,0.0651 5.78989,1.10599 7.80669,3.12268 2.01665,2.01676 3.05755,4.61899 3.12267,7.80669 -0.0651,3.1227 -1.10601,5.46471 -3.12267,7.02602 -2.0168,1.56135 -4.61903,2.34202 -7.80669,2.34201 l -23.42008,0 z"
         style="fill:#000000;font-family:Russian Road Sign;-inkscape-font-specification:Russian Road Sign"
         id="path15251" />
      <path
         d="m 392.88637,417.98712 0,-87.43494 -37.47211,0 c -10.7993,0.32536 -18.47588,3.18781 -23.02975,8.58736 -4.55393,5.3997 -6.76582,11.38482 -6.63568,17.95539 0.19515,5.21845 2.14682,9.72588 5.85502,13.5223 3.70814,3.79651 8.00182,6.35227 12.88104,7.66729 -5.10812,0.98999 -9.29096,3.94193 -12.54854,8.85584 -3.25763,4.91398 -6.16827,10.31119 -8.73193,16.19166 -2.56369,5.8805 -5.35867,10.76553 -8.38496,14.6551 l 21.85874,0 c 1.38507,-2.68484 3.1254,-6.8071 5.22098,-12.36679 2.09551,-5.55967 5.15761,-10.72282 9.18628,-15.48947 4.02859,-4.76659 9.63508,-7.30273 16.8195,-7.60842 1.50087,-0.0139 2.68116,0.014 3.5409,0.0836 0.85959,0.0697 1.76108,0.26491 2.70445,0.5855 l 0,34.79554 z m -18.73606,-49.96282 -17.17472,0 c -3.20172,-0.13471 -5.83183,-1.315 -7.89033,-3.54089 -2.05859,-2.22578 -3.0716,-4.68861 -3.03903,-7.38848 0.16259,-2.43953 1.23136,-4.58637 3.20631,-6.44052 1.97486,-1.85402 4.54921,-2.82986 7.72305,-2.92751 l 17.17472,0 z"
         style="fill:#000000;font-family:Russian Road Sign;-inkscape-font-specification:Russian Road Sign"
         id="path15253" />
      <path
         d="m 454.37098,328.99084 c -6.37551,0.0326 -12.19335,0.74824 -17.45353,2.14685 -5.26025,1.39878 -9.85133,3.28539 -13.77323,5.65984 l 8.47583,16.50558 c 2.70443,-2.1189 5.82711,-4.07057 9.36803,-5.85503 3.54086,-1.78431 8.00182,-2.73227 13.3829,-2.84386 3.44791,-0.065 7.09102,0.8458 10.92937,2.73235 3.83822,1.88668 5.92,5.13947 6.24535,9.75836 -7e-5,2.43965 -0.78073,4.58649 -2.34201,6.44052 -1.5614,1.85414 -3.90341,2.82998 -7.02602,2.92751 l -12.4907,0 0,14.05204 12.4907,0 c 3.87076,0.13015 6.66815,1.43127 8.39219,3.90335 1.72391,2.47214 2.56964,5.33459 2.53718,8.58736 -0.26029,3.93589 -2.08185,6.99351 -5.46469,9.17286 -3.38296,2.17938 -6.76585,3.28533 -10.14869,3.31785 -4.09857,0.0604 -8.94987,-0.78531 -14.55391,-2.53718 -5.60412,-1.75184 -10.12085,-4.77228 -13.55018,-9.06134 l -11.59851,12.71376 c 4.94421,4.7026 11.11521,8.28996 18.51301,10.76208 7.39773,2.47211 14.46092,3.71746 21.18959,3.73606 10.08357,0.065 18.52223,-2.01673 25.31598,-6.24535 6.79359,-4.22862 10.32519,-10.99441 10.5948,-20.2974 -0.27425,-6.93306 -2.34674,-12.02599 -6.21747,-15.27882 -3.8709,-3.25274 -7.89506,-5.223 -12.07249,-5.91077 3.85215,-1.16632 7.3001,-3.57338 10.34386,-7.2212 3.04359,-3.64771 4.6514,-8.22949 4.82342,-13.74534 -0.1302,-7.51387 -3.38298,-13.28525 -9.75836,-17.31414 -6.37554,-4.02872 -15.093,-6.06403 -26.15242,-6.10594 z"
         style="fill:#000000;font-family:Russian Road Sign;-inkscape-font-specification:Russian Road Sign"
         id="path15255" />
      <path
         d="m 519.56023,330.55218 0,87.43494 40.59479,0 c 10.83636,-0.29275 18.66163,-3.22026 23.47583,-8.78253 4.81404,-5.56225 7.17463,-12.00276 7.08179,-19.32156 0.0928,-7.31874 -2.26775,-13.75925 -7.08178,-19.32156 -4.81421,-5.56222 -12.63948,-8.48972 -23.47584,-8.78253 l -21.85873,0 0,-31.22676 z m 18.73606,48.40149 23.42007,0 c 3.18767,0.1348 5.78989,1.31509 7.80669,3.54089 2.01666,2.22587 3.05755,4.68869 3.12268,7.38847 -0.0651,2.69984 -1.10602,5.16267 -3.12268,7.38848 -2.0168,2.22585 -4.61903,3.40615 -7.80669,3.54089 l -23.42007,0 z"
         style="fill:#000000;font-family:Russian Road Sign;-inkscape-font-specification:Russian Road Sign"
         id="path15257" />
    </g>
    <g
       style="font-size:181.45394897000000000px;font-style:normal;font-variant:normal;font-weight:normal;font-stretch:normal;line-height:125%;letter-spacing:-8.45285701999999790px;word-spacing:0px;opacity:1;fill:#000000;fill-opacity:1;stroke:none;font-family:Arial;-inkscape-font-specification:Arial"
       id="text15138">
      <path
         d="m 118.84788,505.34605 10.16129,11.43146 c 3.14891,-3.33032 6.37723,-6.33183 9.68497,-9.00455 3.30768,-2.67254 6.85355,-4.08635 10.63761,-4.24142 4.50222,0.15508 8.0632,1.56889 10.68296,4.24143 2.61965,2.67271 3.95785,5.67422 4.01462,9.00454 -0.0605,4.9295 -1.07365,9.0424 -3.03932,12.3387 -1.96578,3.29643 -4.52122,6.68353 -7.66633,10.1613 -5.6704,6.7629 -11.52221,13.28759 -17.55544,19.57409 -6.03329,6.28657 -12.52018,12.58444 -19.46069,18.89365 l 0,15.24193 60.96775,0 c 1.27008,-3.22832 2.2227,-6.29788 2.85786,-9.20867 0.635,-2.91077 0.95254,-5.34525 0.95262,-7.30342 l -41.91532,0 c 6.5927,-6.85734 12.7318,-13.14765 18.41733,-18.87097 5.68543,-5.72325 10.55438,-11.10631 14.60686,-16.1492 3.22826,-3.72726 5.52664,-7.25044 6.89516,-10.56955 1.36837,-3.31899 2.03369,-8.02161 1.99597,-14.10786 -0.34408,-7.77966 -3.46655,-14.13046 -9.36744,-19.05242 -5.90102,-4.92178 -12.51644,-7.4621 -19.84627,-7.62097 -7.56808,0.0908 -14.02473,1.54244 -19.36996,4.35484 -5.34528,2.81259 -9.89669,6.44162 -13.65423,10.88709 z"
         style="fill:#000000;font-family:Russian Road Sign;-inkscape-font-specification:Russian Road Sign"
         id="path15260" />
      <path
         d="m 195.5395,507.88638 46.99597,0 c -7.2241,11.59029 -14.05121,24.60943 -20.48136,39.05745 -6.43022,14.44812 -11.03455,29.3725 -13.813,44.77319 l 19.05242,0 c 3.91628,-18.17916 8.78523,-34.21493 14.60685,-48.10736 5.82151,-13.89233 11.96062,-27.07024 18.41734,-39.53377 l 0,-12.70161 -60.96774,0 z"
         style="fill:#000000;font-family:Russian Road Sign;-inkscape-font-specification:Russian Road Sign"
         id="path15262" />
      <path
         d="m 314.78011,592.98718 19.05242,0 6.3508,-74.93951 26.67339,59.69758 26.67339,-59.69758 6.3508,74.93951 19.05242,0 -11.43145,-101.6129 -17.78226,0 -22.8629,49.53629 -22.8629,-49.53629 -17.78226,0 z"
         style="fill:#000000;font-family:Russian Road Sign;-inkscape-font-specification:Russian Road Sign"
         id="path15264" />
      <path
         d="m 438.28391,592.98718 17.78226,0 0,-86.37097 45.7258,0 0,-15.24193 -63.50806,0 z"
         style="fill:#000000;font-family:Russian Road Sign;-inkscape-font-specification:Russian Road Sign"
         id="path15266" />
      <path
         d="m 512.56343,521.85815 0,71.12903 55.8871,0 0,15.24194 15.24193,0 0,-29.21371 -13.97177,0 0,-57.15726 -15.24194,0 0,57.15726 -26.67338,0 0,-57.15726 z"
         style="fill:#000000;font-family:Russian Road Sign;-inkscape-font-specification:Russian Road Sign"
         id="path15268" />
    </g>
  </g>
</svg>
