<svg xmlns="http://www.w3.org/2000/svg" width="700" height="520">
    <title>
        8.4.15 Кроме вида транспортного средства
    </title>
    <rect ry="45" rx="45" height="520" width="700"/>
    <rect ry="35" rx="35" height="502" width="680" y="9" x="10" fill="#fff"/>
    <path d="M303.611 100.041c-3.613 0-7.47 2.757-8.649 6.173l-4.368 12.667-9.055 26.235c-.01.025-.008.05-.016.074l-2.11 6.1a9.296 9.296 0 0 0-9.317 9.316v37.272a9.298 9.298 0 0 0 9.317 9.319H419.18a9.299 9.299 0 0 0 9.319-9.32v-37.27a9.298 9.298 0 0 0-9.319-9.318l-2.11-6.1c-.008-.023-.007-.048-.015-.073L408 118.881l-4.37-12.667c-1.177-3.416-5.033-6.173-8.646-6.173H303.61zm2.838 9.317h85.695c1.807 0 3.735 1.379 4.324 3.087l13.395 38.844H288.732l13.393-38.844c.589-1.708 2.518-3.087 4.324-3.087zm-27.038 102.496v18.636c0 7.72 6.258 13.976 13.977 13.976s13.976-6.257 13.976-13.976v-18.636zm111.813 0v18.636c0 7.72 6.257 13.976 13.976 13.976 7.72 0 13.979-6.257 13.979-13.976v-18.636z" style="marker:none" overflow="visible" color="#000"/>
    <path d="M194.969 36.121c-1.662 0-3 1.338-3 3v34.32c-5.328.182-9.563 4.41-9.563 9.649v32.297c0 5.354 4.423 9.666 9.916 9.666h18.662v51.2c0 76.53 62.04 138.57 138.569 138.571 76.53 0 138.57-62.04 138.57-138.57s-62.04-138.57-138.57-138.568v25.03c62.704.001 113.537 50.833 113.537 113.538s-50.832 113.539-113.537 113.539c-62.706 0-113.538-50.834-113.537-113.54v-51.2h19.533c5.493 0 9.916-4.312 9.916-9.666V83.09c0-5.238-4.236-9.467-9.563-9.649v-34.32c0-1.662-1.338-3-3-3h-2.27c-1.661 0-3 1.338-3 3v34.303h-47.394V39.121c0-1.662-1.338-3-3-3h-2.27z"/>
    <path d="M149.4 351.536v80.196h14.035v-36.661s3.867-.43 6.015-.43c6.015 0 9.452 3.724 13.032 10.025 5.012 9.022 13.032 22.054 15.61 27.066h17.471c-7.16-5.298-12.316-16.755-18.044-27.066-5.012-8.593-8.02-16.04-18.044-17.042 3.866 0 10.167-8.879 14.034-14.034 4.296-5.729 6.158-10.025 14.034-10.025l-3.007-14.034c-20.765 2.005-25.061 32.365-39.526 32.365-.286 0-.43 0-.572-.143-.716 0-.86 0-1.003-.287v-29.93h-14.034zm85.194 0v80.196h14.035v-28.068h13.032c19.046 0 26.063-15.037 26.063-26.064s-7.017-26.064-26.063-26.064zm14.035 12.03h9.022c8.02 0 16.039 4.009 16.039 14.034 0 10.024-8.02 14.034-16.04 14.034h-9.021v-28.069zm95.311-14.036c-22.054 0-32.651 18.904-32.651 42.104s10.597 42.103 32.651 42.103c22.055 0 32.652-18.903 32.652-42.103 0-23.2-10.597-42.103-32.651-42.103zm0 13.033c11.028 0 19.047 11.027 19.047 29.071 0 18.044-8.02 29.071-19.047 29.071-11.027 0-19.046-11.027-19.046-29.071 0-18.044 8.02-29.071 19.046-29.071zm51.39 69.169h15.037l5.012-59.145 21.052 47.116 21.051-47.116 5.013 59.145h15.037l-9.023-80.196h-14.034l-18.044 39.096-18.044-39.096h-14.035zm104.144 0h51.125v-12.03h-37.09v-24.058h29.07v-12.03h-29.07v-19.046h36.088v-13.032h-50.123z" font-weight="500" font-family="Russian Road Sign" letter-spacing="0" word-spacing="0"/>
</svg>
