<?xml version="1.0" encoding="UTF-8" standalone="no"?>
<!-- Created with Inkscape (http://www.inkscape.org/) -->

<svg
   xmlns:dc="http://purl.org/dc/elements/1.1/"
   xmlns:cc="http://creativecommons.org/ns#"
   xmlns:rdf="http://www.w3.org/1999/02/22-rdf-syntax-ns#"
   xmlns:svg="http://www.w3.org/2000/svg"
   xmlns="http://www.w3.org/2000/svg"
   xmlns:sodipodi="http://sodipodi.sourceforge.net/DTD/sodipodi-0.dtd"
   xmlns:inkscape="http://www.inkscape.org/namespaces/inkscape"
   width="600"
   height="300"
   id="svg2"
   version="1.1"
   inkscape:version="0.48.4 r9939"
   sodipodi:docname="8.5.2.svg">
  <title
     id="title3006">8.5.3 Дни недели</title>
  <defs
     id="defs4" />
  <sodipodi:namedview
     id="base"
     pagecolor="#ffffff"
     bordercolor="#666666"
     borderopacity="1.0"
     inkscape:pageopacity="0.0"
     inkscape:pageshadow="2"
     inkscape:zoom="1"
     inkscape:cx="219.97711"
     inkscape:cy="163.05071"
     inkscape:document-units="px"
     inkscape:current-layer="layer1"
     showgrid="false"
     inkscape:window-width="1920"
     inkscape:window-height="1024"
     inkscape:window-x="-4"
     inkscape:window-y="-4"
     inkscape:window-maximized="1"
     inkscape:snap-bbox="true"
     inkscape:bbox-paths="true"
     inkscape:bbox-nodes="true"
     inkscape:snap-bbox-edge-midpoints="true"
     inkscape:snap-bbox-midpoints="true"
     inkscape:object-paths="true"
     inkscape:snap-intersection-paths="true"
     inkscape:object-nodes="true"
     inkscape:snap-smooth-nodes="true"
     inkscape:snap-midpoints="true"
     inkscape:snap-object-midpoints="true"
     showguides="true"
     inkscape:guide-bbox="true" />
  <metadata
     id="metadata7">
    <rdf:RDF>
      <cc:Work
         rdf:about="">
        <dc:format>image/svg+xml</dc:format>
        <dc:type
           rdf:resource="http://purl.org/dc/dcmitype/StillImage" />
        <dc:title>8.5.3 Дни недели</dc:title>
        <cc:license
           rdf:resource="http://creativecommons.org/licenses/by-sa/3.0/" />
        <dc:description>ГОСТ Р 52290-2004
Размеры и пропорции по типоразмеру I</dc:description>
      </cc:Work>
      <cc:License
         rdf:about="http://creativecommons.org/licenses/by-sa/3.0/">
        <cc:permits
           rdf:resource="http://creativecommons.org/ns#Reproduction" />
        <cc:permits
           rdf:resource="http://creativecommons.org/ns#Distribution" />
        <cc:requires
           rdf:resource="http://creativecommons.org/ns#Notice" />
        <cc:requires
           rdf:resource="http://creativecommons.org/ns#Attribution" />
        <cc:permits
           rdf:resource="http://creativecommons.org/ns#DerivativeWorks" />
        <cc:requires
           rdf:resource="http://creativecommons.org/ns#ShareAlike" />
      </cc:License>
    </rdf:RDF>
  </metadata>
  <g
     inkscape:label="Layer 1"
     inkscape:groupmode="layer"
     id="layer1"
     transform="translate(0,-752.36218)">
    <rect
       y="752.36218"
       x="0"
       height="300"
       width="600"
       id="rect5622"
       style="opacity:1;color:#000000;fill:#000000;fill-opacity:1;fill-rule:nonzero;stroke:none;stroke-width:3.54299997999999980;marker:none;visibility:visible;display:inline;overflow:visible;enable-background:accumulate"
       rx="45"
       ry="45" />
    <rect
       y="762.36212"
       x="10"
       height="280"
       width="580"
       id="rect9537"
       style="color:#000000;fill:#ffffff;fill-opacity:1;fill-rule:nonzero;stroke:none;stroke-width:3.54299997999999980;marker:none;visibility:visible;display:inline;overflow:visible;enable-background:accumulate;opacity:1"
       rx="35"
       ry="35" />
    <g
       transform="matrix(0.9375,0,0,0.9375,-18.75,1022.0226)"
       style="font-size:102.04212952000000000px;font-style:normal;font-variant:normal;font-weight:normal;font-stretch:normal;line-height:125%;letter-spacing:-3.25000000000000000px;word-spacing:0px;opacity:1;fill:#000000;fill-opacity:1;stroke:none;font-family:Arial;-inkscape-font-specification:Arial"
       id="text13304">
      <path
         inkscape:connector-curvature="0"
         d="m 62.000001,-187.63797 0,40 8.571429,0 0,-32.14286 14.999999,0 0,32.14286 8.571429,0 0,-40 z"
         style="fill:#000000;font-family:Russian Road Sign;-inkscape-font-specification:Russian Road Sign"
         id="path13321" />
      <path
         inkscape:connector-curvature="0"
         d="m 125.80104,-189.06654 c -5.46134,0.0893 -9.89586,2.05361 -13.30358,5.89286 -3.40774,3.83932 -5.16369,9.01788 -5.26785,15.53571 0.10416,6.51787 1.86011,11.69644 5.26786,15.53571 3.40772,3.83929 7.84224,5.80357 13.30357,5.89286 5.46127,-0.0893 9.89579,-2.05357 13.30356,-5.89286 3.4077,-3.83927 5.16365,-9.01784 5.26786,-15.53571 -0.10421,-6.51783 -1.86016,-11.6964 -5.26785,-15.53572 -3.40778,-3.83924 -7.8423,-5.80353 -13.30357,-5.89285 z m 0,7.14286 c 2.91663,0.0596 5.29758,1.36908 7.14285,3.92857 1.84521,2.55955 2.79759,6.01192 2.85715,10.35714 -0.0596,4.34525 -1.01194,7.79763 -2.85715,10.35714 -1.84527,2.55953 -4.22622,3.86905 -7.14285,3.92857 -2.91669,-0.0595 -5.29764,-1.36904 -7.14286,-3.92857 -1.84526,-2.55951 -2.79764,-6.01189 -2.85714,-10.35714 0.0595,-4.34521 1.01188,-7.79759 2.85714,-10.35714 1.84522,-2.5595 4.22617,-3.86902 7.14286,-3.92857 z"
         style="fill:#000000;font-family:Russian Road Sign;-inkscape-font-specification:Russian Road Sign"
         id="path13323" />
      <path
         inkscape:connector-curvature="0"
         d="m 157.54213,-187.63797 0,40 8.57143,0 0,-17.14286 15,0 0,17.14286 8.57143,0 0,-40 -8.57143,0 0,15 -15,0 0,-15 z"
         style="fill:#000000;font-family:Russian Road Sign;-inkscape-font-specification:Russian Road Sign"
         id="path13325" />
      <path
         inkscape:connector-curvature="0"
         d="m 221.34317,-181.92368 c 2.21723,0.006 4.28781,0.88651 6.21173,2.6403 1.92386,1.75386 2.94852,3.7309 3.07398,5.93112 0.002,0.37205 -0.0532,0.69943 -0.16581,0.98215 -0.11271,0.28276 -0.29553,0.43157 -0.54847,0.44643 l -17.85715,0 c 0.0999,-3.52889 1.07354,-6.0629 2.92093,-7.60205 1.84734,-1.53908 3.96893,-2.3384 6.36479,-2.39795 z m 16.42857,17.14285 c 0.62496,-0.0446 1.13516,-0.49105 1.53061,-1.33929 0.39537,-0.84819 0.59945,-1.83033 0.61225,-2.94642 -0.14886,-5.52081 -1.99409,-10.19342 -5.53572,-14.01786 -3.5417,-3.82437 -7.88693,-5.81841 -13.03571,-5.98214 -2.7615,0.0298 -5.45283,0.68456 -8.07398,1.96428 -2.62119,1.2798 -4.82782,3.00599 -6.6199,5.17858 -1.45834,1.76874 -2.49576,3.81805 -3.11224,6.14796 -0.61651,2.32995 -0.93964,5.04254 -0.96939,8.13775 0.0829,6.51787 2.08545,11.69644 6.00765,15.53571 3.92218,3.83929 8.65432,5.80357 14.19643,5.89286 2.52123,0.0149 5.10626,-0.72917 7.7551,-2.23214 2.64877,-1.50297 5.23381,-3.85416 7.7551,-7.05357 l -6.93877,-3.97959 c -1.38396,1.78785 -2.72325,3.13563 -4.01786,4.04336 -1.29467,0.90774 -2.81253,1.36268 -4.55357,1.3648 -2.00895,0.0893 -4.2411,-0.62499 -6.69643,-2.14286 -2.45538,-1.51785 -3.79466,-4.37499 -4.01786,-8.57143 z"
         style="fill:#000000;font-family:Russian Road Sign;-inkscape-font-specification:Russian Road Sign"
         id="path13327" />
      <path
         inkscape:connector-curvature="0"
         d="m 257.36997,-187.63797 c -0.0234,7.07274 -0.56336,13.18242 -1.61989,18.32908 -1.05656,5.1467 -2.48938,9.75129 -4.29847,13.81378 l -4.08164,0 0,16.42857 8.57143,0 0,-8.57143 27.14286,0 0,8.57143 7.85714,0 0,-16.42857 -5,0 0,-32.14286 z m 8.57143,7.85714 11.42857,0 0,24.28572 -16.63265,0 c 1.73468,-3.55016 2.95917,-7.47023 3.67347,-11.76021 0.71427,-4.28994 1.22447,-8.46511 1.53061,-12.52551 z"
         style="fill:#000000;font-family:Russian Road Sign;-inkscape-font-specification:Russian Road Sign"
         id="path13329" />
      <path
         inkscape:connector-curvature="0"
         d="m 316.8853,-181.92368 c 2.21723,0.006 4.28781,0.88651 6.21173,2.6403 1.92386,1.75386 2.94852,3.7309 3.07398,5.93112 0.002,0.37205 -0.0532,0.69943 -0.16581,0.98215 -0.11271,0.28276 -0.29553,0.43157 -0.54847,0.44643 l -17.85715,0 c 0.0999,-3.52889 1.07354,-6.0629 2.92092,-7.60205 1.84735,-1.53908 3.96894,-2.3384 6.3648,-2.39795 z m 16.42857,17.14285 c 0.62496,-0.0446 1.13516,-0.49105 1.53061,-1.33929 0.39536,-0.84819 0.59945,-1.83033 0.61225,-2.94642 -0.14886,-5.52081 -1.99409,-10.19342 -5.53572,-14.01786 -3.5417,-3.82437 -7.88693,-5.81841 -13.03571,-5.98214 -2.7615,0.0298 -5.45283,0.68456 -8.07398,1.96428 -2.62119,1.2798 -4.82782,3.00599 -6.6199,5.17858 -1.45834,1.76874 -2.49576,3.81805 -3.11225,6.14796 -0.6165,2.32995 -0.93963,5.04254 -0.96938,8.13775 0.0829,6.51787 2.08545,11.69644 6.00765,15.53571 3.92218,3.83929 8.65432,5.80357 14.19643,5.89286 2.52123,0.0149 5.10626,-0.72917 7.7551,-2.23214 2.64877,-1.50297 5.23381,-3.85416 7.7551,-7.05357 l -6.93877,-3.97959 c -1.38396,1.78785 -2.72325,3.13563 -4.01786,4.04336 -1.29467,0.90774 -2.81253,1.36268 -4.55357,1.3648 -2.00895,0.0893 -4.2411,-0.62499 -6.69643,-2.14286 -2.45538,-1.51785 -3.79466,-4.37499 -4.01786,-8.57143 z"
         style="fill:#000000;font-family:Russian Road Sign;-inkscape-font-specification:Russian Road Sign"
         id="path13331" />
      <path
         inkscape:connector-curvature="0"
         d="m 353.6264,-187.63797 c 0.004,2.75892 -0.0611,6.09603 -0.19652,10.01134 -0.13544,3.91537 -0.36724,7.56994 -0.69539,10.96371 -0.32818,3.39382 -0.77917,5.68785 -1.35298,6.88209 -0.91413,1.62842 -2.04508,2.88692 -3.39286,3.77551 -1.3478,0.88862 -2.63181,1.43283 -3.85204,1.63266 l 1.63265,8.16326 c 5.80246,-1.52557 9.75307,-4.10935 11.85185,-7.75132 2.09875,-3.64197 3.24513,-7.76013 3.43916,-12.3545 0.19398,-4.59433 0.33507,-9.08286 0.42328,-13.46561 l 11.42857,0 0,32.14286 8.57143,0 0,-40 z"
         style="fill:#000000;font-family:Russian Road Sign;-inkscape-font-specification:Russian Road Sign"
         id="path13333" />
      <path
         inkscape:connector-curvature="0"
         d="m 397.51034,-187.63797 0,40 18.57143,0 c 4.95744,-0.13393 8.53737,-1.47321 10.73979,-4.01786 2.20234,-2.54463 3.28227,-5.49106 3.2398,-8.83928 0.0425,-3.3482 -1.03746,-6.29463 -3.2398,-8.83929 -2.20242,-2.54462 -5.78234,-3.8839 -10.73979,-4.01786 l -10,0 0,-14.28571 z m 8.57143,22.14286 10.71428,0 c 1.4583,0.0617 2.64878,0.60163 3.57143,1.6199 0.92259,1.01829 1.39878,2.14499 1.42857,3.3801 -0.0298,1.23513 -0.50598,2.36183 -1.42857,3.3801 -0.92265,1.01829 -2.11313,1.55825 -3.57143,1.6199 l -10.71428,0 z"
         style="fill:#000000;font-family:Russian Road Sign;-inkscape-font-specification:Russian Road Sign"
         id="path13335" />
      <path
         inkscape:connector-curvature="0"
         d="m 441.77692,-187.63797 0,40 8.57143,0 0,-17.14286 15,0 0,17.14286 8.57142,0 0,-40 -8.57142,0 0,15 -15,0 0,-15 z"
         style="fill:#000000;font-family:Russian Road Sign;-inkscape-font-specification:Russian Road Sign"
         id="path13337" />
      <path
         inkscape:connector-curvature="0"
         d="m 488.43507,-187.63797 0,40 9.28571,0.0145 16.42857,-27.15741 0,27.14286 8.57143,0 0,-40 -9.28571,0 -16.42857,27.14286 0,-27.14286 z"
         style="fill:#000000;font-family:Russian Road Sign;-inkscape-font-specification:Russian Road Sign"
         id="path13339" />
      <path
         inkscape:connector-curvature="0"
         d="m 537.31903,-187.63797 0,40 8.57143,0 0,-18.57143 c 0.3635,-0.0531 0.7334,-0.0999 1.10969,-0.14031 0.37626,-0.0404 0.72065,-0.0616 1.03317,-0.0638 3.93917,0.27213 6.92812,2.38097 8.96683,6.32653 2.03866,3.94559 4.28781,8.09524 6.74745,12.44898 l 10.71429,0 c -2.42698,-2.46094 -4.43252,-5.32816 -6.01663,-8.60166 -1.58419,-3.27349 -3.28739,-6.2692 -5.1096,-8.98715 -1.82228,-2.71792 -4.30401,-4.47403 -7.4452,-5.26833 1.72207,-0.50829 3.24386,-1.57783 4.56538,-3.20862 1.32146,-1.63074 2.72231,-3.22182 4.20257,-4.77325 1.48018,-1.55136 3.31944,-2.46217 5.51776,-2.73242 l -2.14285,-7.14286 c -2.96867,0.41136 -5.64818,1.82229 -8.03855,4.23281 -2.39043,2.41059 -4.63911,4.78146 -6.74603,7.11262 -2.10698,2.33122 -4.2196,3.58342 -6.33787,3.75662 -0.15733,0.002 -0.3274,-0.002 -0.51021,-0.0128 -0.18284,-0.0106 -0.3529,-0.0404 -0.5102,-0.0893 l 0,-14.28571 z"
         style="fill:#000000;font-family:Russian Road Sign;-inkscape-font-specification:Russian Road Sign"
         id="path13341" />
      <path
         d="m 583.34585,-162.63797 36.00015,0 0,-9.28571 -36.00015,0 z"
         style="fill:#000000;font-family:Russian Road Sign;-inkscape-font-specification:Russian Road Sign"
         id="path13343"
         inkscape:connector-curvature="0"
         sodipodi:nodetypes="ccccc" />
    </g>
    <g
       transform="matrix(0.9375,0,0,0.9375,-18.75,1022.0226)"
       style="font-size:102.04212952000000000px;font-style:normal;font-variant:normal;font-weight:normal;font-stretch:normal;line-height:125%;letter-spacing:-2.40000010000000020px;word-spacing:0px;opacity:1;fill:#000000;fill-opacity:1;stroke:none;font-family:Arial;-inkscape-font-specification:Arial"
       id="text13316">
      <path
         d="m 203.174,-82.637939 36.00031,0 0,-9.285715 -36.00031,0 z"
         style="fill:#000000;font-family:Russian Road Sign;-inkscape-font-specification:Russian Road Sign"
         id="path13346"
         inkscape:connector-curvature="0"
         sodipodi:nodetypes="ccccc" />
      <path
         inkscape:connector-curvature="0"
         d="m 269.62551,-109.06651 c -5.49109,0.0893 -10.04466,2.05361 -13.66071,5.89286 -3.61608,3.839316 -5.49108,9.017881 -5.625,15.535711 0.13392,6.517869 2.00892,11.696435 5.625,15.535712 3.61605,3.839287 8.16962,5.803571 13.66071,5.892859 4.02421,-0.02764 7.53186,-1.094813 10.52296,-3.201531 2.99103,-2.106715 5.19766,-5.087154 6.6199,-8.941326 l -8.06123,-3.061225 c -0.78022,2.612681 -1.94944,4.606726 -3.50765,5.982141 -1.55828,1.375431 -3.41627,2.068458 -5.57398,2.079084 -2.91669,-0.05952 -5.29764,-1.369042 -7.14286,-3.928573 -1.84525,-2.559512 -2.79763,-6.011889 -2.85714,-10.357141 0.0595,-4.345215 1.01189,-7.797593 2.85714,-10.357145 1.84522,-2.559496 4.22617,-3.869016 7.14286,-3.928566 2.15771,0.0107 4.0157,0.70369 5.57398,2.079077 1.55821,1.375455 2.72743,3.369501 3.50765,5.982144 l 8.06123,-3.061225 c -1.42224,-3.854136 -3.62887,-6.834576 -6.6199,-8.941326 -2.9911,-2.10668 -6.49875,-3.17385 -10.52296,-3.20153 z"
         style="fill:#000000;font-family:Russian Road Sign;-inkscape-font-specification:Russian Road Sign"
         id="path13348" />
      <path
         inkscape:connector-curvature="0"
         d="m 317.28354,-109.06651 c -3.5417,0.23814 -6.10122,1.19052 -7.67858,2.85714 -1.5774,1.66671 -2.35121,2.61909 -2.32142,2.85715 -0.62927,-1.12242 -1.10546,-2.55099 -1.42858,-4.28572 l -7.14285,0 0,57.142858 8.57143,0 0,-20.714286 c 0.0595,0.520837 1.01188,1.443455 2.85714,2.767856 1.84521,1.324404 4.22616,2.068451 7.14286,2.232144 1.56963,0.06614 3.74776,-0.462964 6.53438,-1.587303 2.78656,-1.124338 5.33506,-3.240738 7.64551,-6.349206 2.31036,-3.108455 3.53611,-7.605805 3.67725,-13.492062 -0.29767,-8.392828 -2.381,-14.107111 -6.25,-17.142861 -3.86909,-3.03567 -7.73813,-4.46424 -11.60714,-4.28571 z m 0,7.85714 c 2.57437,0.0298 4.74699,1.220273 6.51785,3.571431 1.7708,2.351218 2.69342,5.684548 2.76786,10 -0.0744,4.345254 -0.99706,7.797631 -2.76786,10.357141 -1.77087,2.559529 -3.94348,3.869052 -6.51785,3.928573 -1.88991,-0.01487 -3.7479,-0.520827 -5.57398,-1.517857 -1.82613,-0.997014 -3.30147,-2.395823 -4.42602,-4.196429 l 0,-15 c 1.09904,-2.17259 2.52336,-3.89878 4.27295,-5.178573 1.74956,-1.279726 3.65857,-1.934486 5.72705,-1.964286 z"
         style="fill:#000000;font-family:Russian Road Sign;-inkscape-font-specification:Russian Road Sign"
         id="path13350" />
      <path
         inkscape:connector-curvature="0"
         d="m 364.07743,-101.92365 c 2.21723,0.006 4.28781,0.88651 6.21173,2.640303 1.92386,1.753857 2.94852,3.730895 3.07398,5.931122 0.002,0.372048 -0.0532,0.699428 -0.16581,0.982141 -0.11271,0.282761 -0.29553,0.431572 -0.54847,0.44643 l -17.85714,0 c 0.0999,-3.528884 1.07353,-6.062895 2.92092,-7.602042 1.84734,-1.539084 3.96893,-2.338404 6.36479,-2.397954 z m 16.42857,17.142853 c 0.62496,-0.04463 1.13516,-0.491054 1.53061,-1.339287 0.39537,-0.848197 0.59945,-1.830338 0.61225,-2.946427 -0.14886,-5.520806 -1.99409,-10.193422 -5.53572,-14.017859 -3.5417,-3.82437 -7.88693,-5.81841 -13.03571,-5.98214 -2.7615,0.0298 -5.45283,0.68456 -8.07398,1.96429 -2.62119,1.27979 -4.82782,3.00598 -6.6199,5.17857 -1.45834,1.76874 -2.49576,3.818054 -3.11224,6.147956 -0.61651,2.329957 -0.93964,5.04254 -0.96939,8.137755 0.0829,6.517869 2.08545,11.696435 6.00765,15.535712 3.92218,3.839287 8.65432,5.803571 14.19643,5.892859 2.52123,0.01488 5.10626,-0.729167 7.7551,-2.232142 2.64878,-1.502974 5.23381,-3.854162 7.7551,-7.053572 l -6.93877,-3.979592 c -1.38396,1.78785 -2.72325,3.135637 -4.01786,4.043365 -1.29467,0.907744 -2.81253,1.362676 -4.55357,1.364798 -2.00895,0.08929 -4.2411,-0.624992 -6.69643,-2.142857 -2.45538,-1.517848 -3.79466,-4.374988 -4.01785,-8.571429 z"
         style="fill:#000000;font-family:Russian Road Sign;-inkscape-font-specification:Russian Road Sign"
         id="path13352" />
      <path
         inkscape:connector-curvature="0"
         d="m 400.95424,-107.63794 c -0.0234,7.07274 -0.56336,13.182424 -1.6199,18.329082 -1.05655,5.1467 -2.48938,9.751288 -4.29847,13.813776 l -4.08163,0 0,16.428571 8.57143,0 0,-8.571428 27.14286,0 0,8.571428 7.85714,0 0,-16.428571 -5,0 0,-32.142858 z m 8.57143,7.857144 11.42857,0 0,24.285714 -16.63265,0 c 1.73467,-3.55016 2.95916,-7.470225 3.67347,-11.760206 0.71426,-4.289942 1.22447,-8.465107 1.53061,-12.525508 z"
         style="fill:#000000;font-family:Russian Road Sign;-inkscape-font-specification:Russian Road Sign"
         id="path13354" />
      <path
         inkscape:connector-curvature="0"
         d="m 458.46241,-109.06651 c -3.5268,0.0744 -6.47323,0.63992 -8.83928,1.69643 -2.36609,1.05659 -4.41965,2.15778 -6.16072,3.30357 l 4.28572,7.142856 c 1.11605,-1.145804 2.63391,-2.246994 4.55357,-3.303576 1.91962,-1.05651 3.97319,-1.62199 6.16071,-1.69642 2.23212,0.1042 4.19641,0.78872 5.89286,2.053569 1.6964,1.264911 2.58925,2.485148 2.67857,3.660713 l 0,2.857143 c -0.29985,-0.07493 -2.39862,0.154345 -6.29629,0.68783 -3.89773,0.533534 -7.79544,1.821011 -11.69313,3.862435 -3.89771,2.041466 -5.99648,5.286612 -6.29629,9.735449 0.17856,4.285722 1.60713,7.500004 4.28571,9.642856 2.67856,2.142856 5.5357,3.214284 8.57143,3.214287 2.88688,-0.08929 5.32736,-0.803571 7.32143,-2.142857 1.99402,-1.339285 3.36307,-2.767855 4.10714,-4.285714 0.35711,2.767858 1.24997,4.55357 2.67857,5.357141 1.42854,0.80357 3.39282,1.160713 5.89286,1.07143 l 3.57143,-7.142857 c -0.77385,0.07441 -1.54766,-0.0744 -2.32143,-0.446429 -0.77385,-0.372019 -1.19052,-1.413684 -1.25,-3.125 l 0,-19.285714 c -0.2679,-3.660683 -2.23218,-6.696392 -5.89286,-9.107142 -3.66074,-2.41068 -7.41074,-3.66068 -11.25,-3.75 z m 8.57143,22.142856 0,7.142857 c -0.11908,0.580368 -1.13098,1.741081 -3.03571,3.482143 -1.90479,1.741079 -3.98812,2.723221 -6.25,2.946429 -0.86312,0.04465 -1.99407,-0.401782 -3.39286,-1.339288 -1.39883,-0.937492 -2.17264,-2.633918 -2.32143,-5.089284 0.11903,-2.085524 1.15078,-3.549369 3.09524,-4.391538 1.94442,-0.842136 4.08728,-1.406509 6.42857,-1.693122 2.34124,-0.286576 4.16664,-0.639308 5.47619,-1.058197 z"
         style="fill:#000000;font-family:Russian Road Sign;-inkscape-font-specification:Russian Road Sign"
         id="path13356" />
    </g>
  </g>
</svg>
