<?xml version="1.0" encoding="UTF-8" standalone="no"?>
<!-- Created with Inkscape (http://www.inkscape.org/) -->

<svg
   xmlns:dc="http://purl.org/dc/elements/1.1/"
   xmlns:cc="http://creativecommons.org/ns#"
   xmlns:rdf="http://www.w3.org/1999/02/22-rdf-syntax-ns#"
   xmlns:svg="http://www.w3.org/2000/svg"
   xmlns="http://www.w3.org/2000/svg"
   xmlns:sodipodi="http://sodipodi.sourceforge.net/DTD/sodipodi-0.dtd"
   xmlns:inkscape="http://www.inkscape.org/namespaces/inkscape"
   width="600"
   height="400"
   id="svg2"
   version="1.1"
   inkscape:version="0.48.4 r9939"
   sodipodi:docname="8.4.13.svg">
  <title
     id="title3006">8.4.13 Кроме вида транспортного средства</title>
  <defs
     id="defs4" />
  <sodipodi:namedview
     id="base"
     pagecolor="#ffffff"
     bordercolor="#666666"
     borderopacity="1.0"
     inkscape:pageopacity="0.0"
     inkscape:pageshadow="2"
     inkscape:zoom="1"
     inkscape:cx="236.09373"
     inkscape:cy="181.02113"
     inkscape:document-units="px"
     inkscape:current-layer="layer1"
     showgrid="false"
     inkscape:window-width="1920"
     inkscape:window-height="1024"
     inkscape:window-x="-4"
     inkscape:window-y="-4"
     inkscape:window-maximized="1"
     inkscape:snap-bbox="true"
     inkscape:bbox-paths="true"
     inkscape:bbox-nodes="true"
     inkscape:snap-bbox-edge-midpoints="true"
     inkscape:snap-bbox-midpoints="true"
     inkscape:object-paths="true"
     inkscape:snap-intersection-paths="true"
     inkscape:object-nodes="true"
     inkscape:snap-smooth-nodes="true"
     inkscape:snap-midpoints="true"
     inkscape:snap-object-midpoints="true"
     showguides="true"
     inkscape:guide-bbox="true" />
  <metadata
     id="metadata7">
    <rdf:RDF>
      <cc:Work
         rdf:about="">
        <dc:format>image/svg+xml</dc:format>
        <dc:type
           rdf:resource="http://purl.org/dc/dcmitype/StillImage" />
        <dc:title>8.4.13 Кроме вида транспортного средства</dc:title>
        <cc:license
           rdf:resource="http://creativecommons.org/licenses/by-sa/3.0/" />
        <dc:description>ГОСТ Р 52290-2004
Размеры и пропорции по типоразмеру I</dc:description>
      </cc:Work>
      <cc:License
         rdf:about="http://creativecommons.org/licenses/by-sa/3.0/">
        <cc:permits
           rdf:resource="http://creativecommons.org/ns#Reproduction" />
        <cc:permits
           rdf:resource="http://creativecommons.org/ns#Distribution" />
        <cc:requires
           rdf:resource="http://creativecommons.org/ns#Notice" />
        <cc:requires
           rdf:resource="http://creativecommons.org/ns#Attribution" />
        <cc:permits
           rdf:resource="http://creativecommons.org/ns#DerivativeWorks" />
        <cc:requires
           rdf:resource="http://creativecommons.org/ns#ShareAlike" />
      </cc:License>
    </rdf:RDF>
  </metadata>
  <g
     inkscape:label="Layer 1"
     inkscape:groupmode="layer"
     id="layer1"
     transform="translate(0,-652.362)">
    <rect
       y="652.36218"
       x="0"
       height="400"
       width="600"
       id="rect5622"
       style="color:#000000;fill:#000000;fill-opacity:1;fill-rule:nonzero;stroke:none;stroke-width:3.54299997999999980;marker:none;visibility:visible;display:inline;overflow:visible;enable-background:accumulate;opacity:1"
       rx="45"
       ry="45" />
    <rect
       y="662.36218"
       x="10"
       height="380"
       width="580"
       id="rect9537"
       style="color:#000000;fill:#ffffff;fill-opacity:1;fill-rule:nonzero;stroke:none;stroke-width:3.54299997999999980;marker:none;visibility:visible;display:inline;overflow:visible;enable-background:accumulate;opacity:1"
       rx="35"
       ry="35" />
    <g
       style="font-size:191.32899474999999000px;font-style:normal;font-variant:normal;font-weight:normal;font-stretch:normal;line-height:125%;letter-spacing:0px;word-spacing:0px;fill:#000000;fill-opacity:1;stroke:none;font-family:Arial;-inkscape-font-specification:Arial;opacity:1"
       id="text13103">
      <path
         d="m 67.500001,921.34644 0,75 16.071429,0 0,-34.82143 c 0.681566,-0.0996 1.375124,-0.18731 2.080677,-0.26308 0.705482,-0.0757 1.351208,-0.11556 1.93718,-0.11958 7.385955,0.51024 12.990223,4.46432 16.812813,11.86225 3.82249,7.39797 8.03964,15.17858 12.65147,23.34184 l 20.08929,0 c -4.55058,-4.61428 -8.31098,-9.99031 -11.28118,-16.12812 -2.97037,-6.13778 -6.16386,-11.75475 -9.5805,-16.85091 -3.41678,-5.0961 -8.07002,-8.3888 -13.95975,-9.87812 3.22887,-0.95304 6.08223,-2.95843 8.56009,-6.01616 2.47773,-3.05763 5.10434,-6.0409 7.87982,-8.94983 2.77534,-2.90881 6.22394,-4.61657 10.3458,-5.12329 l -4.01785,-13.39286 c -5.56626,0.77128 -10.59034,3.41678 -15.07228,7.93651 -4.48206,4.51986 -8.69833,8.96524 -12.648813,13.33616 -3.950582,4.37103 -7.911745,6.71892 -11.883502,7.04366 -0.294998,0.004 -0.613875,-0.004 -0.956633,-0.0239 -0.342826,-0.0199 -0.661703,-0.0757 -0.956632,-0.16741 l 0,-26.78571 z"
         style="fill:#000000;font-family:Russian Road Sign;-inkscape-font-specification:Russian Road Sign"
         id="path13149"
         inkscape:connector-curvature="0" />
      <path
         d="m 197.39402,918.66786 c -6.64068,0.44651 -11.43978,2.23222 -14.39733,5.35715 -2.95762,3.12507 -4.40851,4.91078 -4.35267,5.35714 -1.17988,-2.10452 -2.07274,-4.78309 -2.67857,-8.03571 l -13.39286,0 0,107.14286 16.07143,0 0,-38.83929 c 0.11157,0.97657 1.89729,2.70647 5.35714,5.18973 3.45978,2.48325 7.92406,3.87834 13.39286,4.18527 2.94306,0.124 7.02705,-0.86806 12.25198,-2.9762 5.2248,-2.10813 10.00323,-6.07638 14.33531,-11.90476 4.33193,-5.82835 6.63021,-14.26088 6.89485,-25.29761 -0.55812,-15.73656 -4.46437,-26.45083 -11.71875,-32.14286 -7.25453,-5.69189 -14.50899,-8.37046 -21.76339,-8.03572 z m 0,14.73215 c 4.82695,0.0559 8.90061,2.288 12.22098,6.69643 3.32024,4.40853 5.05015,10.65852 5.18973,18.75 -0.13958,8.14735 -1.86949,14.62055 -5.18974,19.41964 -3.32037,4.79911 -7.39402,7.25447 -12.22097,7.36607 -3.54358,-0.0279 -7.02731,-0.97655 -10.45122,-2.84598 -3.42398,-1.8694 -6.19024,-4.49217 -8.29878,-7.86831 l 0,-28.125 c 2.06071,-4.0736 4.7313,-7.31021 8.01179,-9.70982 3.28042,-2.39949 6.85981,-3.62717 10.73821,-3.68303 z"
         style="fill:#000000;font-family:Russian Road Sign;-inkscape-font-specification:Russian Road Sign"
         id="path13151"
         inkscape:connector-curvature="0" />
      <path
         d="m 289.63257,918.66786 c -10.24,0.16749 -18.55472,3.85053 -24.9442,11.04911 -6.38953,7.19872 -9.68193,16.90854 -9.87723,29.12947 0.1953,12.221 3.48771,21.93081 9.87724,29.12946 6.38948,7.19866 14.7042,10.88169 24.94419,11.04911 10.23989,-0.16741 18.55461,-3.85045 24.94419,-11.04911 6.38943,-7.19865 9.68184,-16.90846 9.87724,-29.12946 -0.1954,-12.22094 -3.4878,-21.93075 -9.87724,-29.12947 -6.38958,-7.19859 -14.7043,-10.88162 -24.94419,-11.04911 z m 0,13.39286 c 5.46869,0.11167 9.93298,2.56703 13.39285,7.36607 3.45976,4.79916 5.24547,11.27236 5.35715,19.41965 -0.11167,8.14735 -1.89739,14.62055 -5.35715,19.41964 -3.45988,4.79911 -7.92416,7.25447 -13.39285,7.36607 -5.46879,-0.1116 -9.93307,-2.56695 -13.39286,-7.36607 -3.45986,-4.79909 -5.24557,-11.2723 -5.35714,-19.41964 0.11158,-8.14728 1.89729,-14.62049 5.35714,-19.41965 3.45978,-4.79905 7.92406,-7.2544 13.39286,-7.36607 z"
         style="fill:#000000;font-family:Russian Road Sign;-inkscape-font-specification:Russian Road Sign"
         id="path13153"
         inkscape:connector-curvature="0" />
      <path
         d="m 352.5623,996.34644 16.07143,0 4.01786,-52.23215 21.42857,42.85715 21.42857,-42.85715 4.01786,52.23215 16.07143,0 -6.69643,-75 -16.07143,0 -18.75,37.5 -18.75,-37.5 -16.07143,0 z"
         style="fill:#000000;font-family:Russian Road Sign;-inkscape-font-specification:Russian Road Sign"
         id="path13155"
         inkscape:connector-curvature="0" />
      <path
         d="m 498.52495,932.06072 c 4.15731,0.012 8.03964,1.66221 11.647,4.95058 3.60724,3.28848 5.52847,6.99542 5.76371,11.12085 0.004,0.69759 -0.0997,1.31143 -0.31091,1.84151 -0.21132,0.53018 -0.55411,0.8092 -1.02837,0.83706 l -33.48215,0 c 0.18731,-6.61666 2.01289,-11.36793 5.47673,-14.25383 3.46377,-2.88578 7.44176,-4.3845 11.93399,-4.49617 z m 30.80357,32.14286 c 1.1718,-0.0837 2.12843,-0.92073 2.8699,-2.51117 0.7413,-1.59036 1.12395,-3.43188 1.14796,-5.52455 -0.27911,-10.35151 -3.73893,-19.11266 -10.37947,-26.28348 -6.64069,-7.17069 -14.788,-10.90952 -24.44196,-11.21652 -5.17782,0.0559 -10.22405,1.28356 -15.13871,3.68304 -4.91473,2.39962 -9.05217,5.63623 -12.41231,9.70982 -2.7344,3.31639 -4.67955,7.15886 -5.83547,11.52742 -1.15594,4.36868 -1.76181,9.45477 -1.81759,15.2583 0.15544,12.221 3.91022,21.93081 11.26435,29.12946 7.35408,7.19866 16.22684,10.88169 26.6183,11.04911 4.7273,0.0279 9.57424,-1.36719 14.54082,-4.18527 4.96644,-2.81807 9.81338,-7.22655 14.54081,-13.22545 l -13.0102,-7.46173 c -2.59493,3.35222 -5.10609,5.87932 -7.53349,7.58131 -2.42751,1.70202 -5.27349,2.55501 -8.53794,2.55899 -3.76679,0.16743 -7.95206,-1.17186 -12.55581,-4.01785 -4.60383,-2.84597 -7.11499,-8.20311 -7.53348,-16.07143 z"
         style="fill:#000000;font-family:Russian Road Sign;-inkscape-font-specification:Russian Road Sign"
         id="path13157"
         inkscape:connector-curvature="0" />
    </g>
    <path
       inkscape:connector-curvature="0"
       style="opacity:1;color:#000000;fill:#000000;fill-opacity:1;stroke:none;stroke-width:1px;marker:none;visibility:visible;display:inline;overflow:visible;enable-background:accumulate"
       d="m 235.44408,677.85485 c -13.1713,0 -23.84869,10.67813 -23.84869,23.84907 0,9.47718 6.02204,17.91093 14.98249,20.99625 3.65057,1.25718 6.0907,4.69687 6.0907,8.5575 0,1.32093 -0.28987,2.6325 -0.8481,3.82968 l -0.92517,1.97813 -19.8139,42.48094 c -9.65683,-5.56594 -20.84522,-8.76375 -32.79193,-8.76375 -36.33454,0 -65.78948,29.45531 -65.78948,65.79 0,36.33468 29.45494,65.78906 65.78948,65.78906 36.33445,0 65.78947,-29.45438 65.78947,-65.78906 0,-19.57219 -8.56251,-37.13719 -22.12689,-49.18782 l 5.21693,-11.205 90.8203,69.43875 38.54853,0 c 4.40805,32.05407 31.90715,56.74313 65.1727,56.74313 36.33445,0 65.78947,-29.45438 65.78947,-65.78906 0,-36.33469 -29.45502,-65.79 -65.78947,-65.79 -10.19885,0 -19.85906,2.30812 -28.47451,6.45093 l -24.74819,-35.31093 5.93651,-13.90313 3.70066,0 c 5.45017,0 9.86842,-4.41844 9.86842,-9.86812 0,-5.45063 -4.41825,-9.86813 -9.86842,-9.86813 l -45.23026,0 c -5.45024,0 -9.86843,4.4175 -9.86843,9.86813 0,5.44968 4.41819,9.86812 9.86843,9.86812 l 28.98848,0 -3.85485,9.04594 -112.97285,0 c 0.51036,-1.88344 0.77097,-3.84375 0.77097,-5.80781 0,-9.47625 -6.02212,-17.91094 -14.98256,-20.99625 -3.6505,-1.25625 -6.09063,-4.69688 -6.09063,-8.5575 0,-5.90438 4.78643,-10.69032 10.69079,-10.69032 l 31.66118,0 c 3.63338,0 6.57894,-2.94562 6.57894,-6.57937 0,-3.63375 -2.94556,-6.57938 -6.57894,-6.57938 l -31.66118,0 z m 4.88281,74.01375 111.40518,0 -32.45782,76.04344 -85.6805,-65.50687 6.73314,-10.53657 z m 123.53511,9.25125 16.83289,24.05438 c -13.68322,10.93219 -22.9431,27.18 -24.5426,45.64125 l -21.99835,0 29.70806,-69.69563 z m -185.57252,19.53188 c 10.45995,0 20.22993,2.89125 28.60295,7.88906 l -13.82607,29.65688 c -0.92722,1.98843 -2.44309,3.65718 -4.34309,4.75406 L 175,830.86704 c -3.14671,1.81688 -4.23248,5.84813 -2.41571,8.99531 1.8167,3.14625 5.84795,4.23188 8.99466,2.415 l 13.72327,-7.94062 c 4.23849,-2.44688 7.62007,-6.12656 9.68848,-10.56281 l 12.59252,-27.00938 c 10.27064,10.13906 16.62731,24.23531 16.62731,39.80813 0,30.88406 -25.03676,55.92093 -55.92105,55.92093 -30.88439,0 -55.92105,-25.03687 -55.92105,-55.92093 0,-30.885 25.03666,-55.92094 55.92105,-55.92094 z m 243.42104,0 c 30.88429,0 55.92105,25.03594 55.92105,55.92094 0,30.88406 -25.03676,55.92093 -55.92105,55.92093 -27.80082,0 -50.84778,-20.29781 -55.17582,-46.875 l 57.18034,0 c 1.85642,0 3.67047,-0.58031 5.1912,-1.64531 4.09243,-2.865 5.1014,-8.49937 2.23577,-12.5925 l -32.14943,-45.89812 c 6.94474,-3.09282 14.62468,-4.83094 22.71794,-4.83094 z m -35.36185,12.5925 26.3158,37.57125 -46.59236,0 c 1.54877,-15.11344 9.12624,-28.45969 20.27656,-37.57125 z"
       id="path12289" />
  </g>
</svg>
