<?xml version="1.0" encoding="UTF-8" standalone="no"?>
<!-- Created with Inkscape (http://www.inkscape.org/) -->

<svg
   xmlns:dc="http://purl.org/dc/elements/1.1/"
   xmlns:cc="http://creativecommons.org/ns#"
   xmlns:rdf="http://www.w3.org/1999/02/22-rdf-syntax-ns#"
   xmlns:svg="http://www.w3.org/2000/svg"
   xmlns="http://www.w3.org/2000/svg"
   xmlns:sodipodi="http://sodipodi.sourceforge.net/DTD/sodipodi-0.dtd"
   xmlns:inkscape="http://www.inkscape.org/namespaces/inkscape"
   width="600"
   height="300"
   id="svg2"
   version="1.1"
   inkscape:version="0.48.4 r9939"
   sodipodi:docname="8.4.3.svg">
  <title
     id="title3006">8.4.1 Вид транспортного средства</title>
  <defs
     id="defs4" />
  <sodipodi:namedview
     id="base"
     pagecolor="#ffffff"
     bordercolor="#666666"
     borderopacity="1.0"
     inkscape:pageopacity="0.0"
     inkscape:pageshadow="2"
     inkscape:zoom="1.4142136"
     inkscape:cx="383.04778"
     inkscape:cy="236.93153"
     inkscape:document-units="px"
     inkscape:current-layer="layer1"
     showgrid="false"
     inkscape:window-width="1920"
     inkscape:window-height="1024"
     inkscape:window-x="-4"
     inkscape:window-y="-4"
     inkscape:window-maximized="1"
     inkscape:snap-bbox="true"
     inkscape:bbox-paths="true"
     inkscape:bbox-nodes="true"
     inkscape:snap-bbox-edge-midpoints="true"
     inkscape:snap-bbox-midpoints="true"
     inkscape:object-paths="true"
     inkscape:snap-intersection-paths="true"
     inkscape:object-nodes="true"
     inkscape:snap-smooth-nodes="true"
     inkscape:snap-midpoints="true"
     inkscape:snap-object-midpoints="true" />
  <metadata
     id="metadata7">
    <rdf:RDF>
      <cc:Work
         rdf:about="">
        <dc:format>image/svg+xml</dc:format>
        <dc:type
           rdf:resource="http://purl.org/dc/dcmitype/StillImage" />
        <dc:title>8.4.1 Вид транспортного средства</dc:title>
        <cc:license
           rdf:resource="http://creativecommons.org/licenses/by-sa/3.0/" />
        <dc:description>ГОСТ Р 52290-2004
Размеры и пропорции по типоразмеру I</dc:description>
      </cc:Work>
      <cc:License
         rdf:about="http://creativecommons.org/licenses/by-sa/3.0/">
        <cc:permits
           rdf:resource="http://creativecommons.org/ns#Reproduction" />
        <cc:permits
           rdf:resource="http://creativecommons.org/ns#Distribution" />
        <cc:requires
           rdf:resource="http://creativecommons.org/ns#Notice" />
        <cc:requires
           rdf:resource="http://creativecommons.org/ns#Attribution" />
        <cc:permits
           rdf:resource="http://creativecommons.org/ns#DerivativeWorks" />
        <cc:requires
           rdf:resource="http://creativecommons.org/ns#ShareAlike" />
      </cc:License>
    </rdf:RDF>
  </metadata>
  <g
     inkscape:label="Layer 1"
     inkscape:groupmode="layer"
     id="layer1"
     transform="translate(0,-752.36218)">
    <rect
       y="752.36218"
       x="0"
       height="300"
       width="600"
       id="rect5622"
       style="opacity:1;color:#000000;fill:#000000;fill-opacity:1;fill-rule:nonzero;stroke:none;stroke-width:3.54299997999999980;marker:none;visibility:visible;display:inline;overflow:visible;enable-background:accumulate"
       rx="45"
       ry="45" />
    <rect
       y="762.36212"
       x="10"
       height="280"
       width="580"
       id="rect9537"
       style="color:#000000;fill:#ffffff;fill-opacity:1;fill-rule:nonzero;stroke:none;stroke-width:3.54299997999999980;marker:none;visibility:visible;display:inline;overflow:visible;enable-background:accumulate;opacity:1"
       rx="35"
       ry="35" />
    <path
       style="opacity:1;color:#000000;fill:#000000;fill-opacity:1;stroke:none;stroke-width:1px;marker:none;visibility:visible;display:inline;overflow:visible;enable-background:accumulate"
       d="m 146.48439,846.11194 c -6.82531,0 -13.20483,3.39425 -17.02149,9.05273 l -32.197261,47.72461 c -2.287791,3.39176 -3.515625,7.39316 -3.515625,11.48438 l 0,49.57054 c 0,11.3391 9.198006,20.53711 20.537106,20.53711 l 18.54492,0 c 1.0746,-22.856 19.91523,-41.07422 43.03711,-41.07422 23.12189,0 41.99181,18.21822 43.06641,41.07422 l 160.25391,0 c 0.76973,-16.3709 10.64486,-30.35593 24.69727,-36.97265 l -178.74024,0 0,-80.88891 c 0,-11.3391 -9.19801,-20.50781 -20.53711,-20.50781 z m 1.08398,12.30468 46.78711,0 c 5.66961,0 10.25391,4.61366 10.25391,10.28321 l 0,28.74023 c 0,5.66955 -4.5843,10.25391 -10.25391,10.25391 l -66.18164,0 c -5.6696,0 -10.2539,-4.58436 -10.2539,-10.25391 0,-2.04561 0.61391,-4.0463 1.75781,-5.74219 l 19.39453,-28.74023 c 1.90828,-2.82924 5.08349,-4.54102 8.49609,-4.54102 z"
       id="path7215"
       inkscape:connector-curvature="0"
       sodipodi:nodetypes="sccssscsccccssssssssssccs" />
    <path
       inkscape:connector-curvature="0"
       style="opacity:1;color:#000000;fill:#000000;fill-opacity:1;fill-rule:nonzero;stroke:none;stroke-width:3.54299997999999980;marker:none;visibility:visible;display:inline;overflow:visible;enable-background:accumulate"
       d="m 258.00002,808.61218 c -11.37431,0 -20.53125,9.15694 -20.53125,20.53124 l 0,110.71875 266.90625,0 0,-110.71875 c 0,-11.3743 -9.15694,-20.53124 -20.53125,-20.53124 z"
       id="path7217"
       sodipodi:nodetypes="sccccss" />
    <path
       inkscape:connector-curvature="0"
       style="opacity:1;color:#000000;fill:#000000;fill-opacity:1;fill-rule:nonzero;stroke:none;stroke-width:1px;marker:none;visibility:visible;display:inline;overflow:visible;enable-background:accumulate"
       d="m 422.25001,951.61842 c -19.27647,0 -34.90312,15.62664 -34.90312,34.90313 0,19.27645 15.62665,34.90315 34.90312,34.90315 19.27649,0 34.90312,-15.6267 34.90312,-34.90315 0,-19.27649 -15.62663,-34.90313 -34.90312,-34.90313 z m 0,16.425 c 10.20517,0 18.47812,8.27297 18.47812,18.47813 0,10.20515 -8.27295,18.47815 -18.47812,18.47815 -10.20516,0 -18.47813,-8.273 -18.47813,-18.47815 0,-10.20516 8.27297,-18.47813 18.47813,-18.47813 z"
       id="path7219" />
    <path
       id="path7221"
       style="opacity:1;color:#000000;fill:#000000;fill-opacity:1;stroke:none;stroke-width:3.54299997999999980;marker:none;visibility:visible;display:inline;overflow:visible;enable-background:accumulate"
       d="m 465.30147,984.46842 c -0.7697,-16.3709 -10.64925,-30.33953 -24.70165,-36.95626 l 63.7752,-2e-5 0,36.95628 z"
       inkscape:connector-curvature="0"
       sodipodi:nodetypes="ccccc" />
    <path
       id="path7223"
       d="m 175.87501,951.61842 c -19.27648,0 -34.90312,15.62664 -34.90312,34.90313 0,19.27645 15.62664,34.90315 34.90312,34.90315 19.27648,0 34.90313,-15.6267 34.90313,-34.90315 0,-19.27649 -15.62665,-34.90313 -34.90313,-34.90313 z m 0,16.425 c 10.20516,0 18.47813,8.27297 18.47813,18.47813 0,10.20515 -8.27297,18.47815 -18.47813,18.47815 -10.20516,0 -18.47812,-8.273 -18.47812,-18.47815 0,-10.20516 8.27296,-18.47813 18.47812,-18.47813 z"
       style="opacity:1;color:#000000;fill:#000000;fill-opacity:1;fill-rule:nonzero;stroke:none;stroke-width:1px;marker:none;visibility:visible;display:inline;overflow:visible;enable-background:accumulate"
       inkscape:connector-curvature="0" />
  </g>
</svg>
