<?xml version="1.0" encoding="UTF-8" standalone="no"?>
<!-- Created with Inkscape (http://www.inkscape.org/) -->

<svg
   xmlns:dc="http://purl.org/dc/elements/1.1/"
   xmlns:cc="http://creativecommons.org/ns#"
   xmlns:rdf="http://www.w3.org/1999/02/22-rdf-syntax-ns#"
   xmlns:svg="http://www.w3.org/2000/svg"
   xmlns="http://www.w3.org/2000/svg"
   xmlns:sodipodi="http://sodipodi.sourceforge.net/DTD/sodipodi-0.dtd"
   xmlns:inkscape="http://www.inkscape.org/namespaces/inkscape"
   width="600"
   height="300"
   id="svg2"
   version="1.1"
   inkscape:version="0.48.4 r9939"
   sodipodi:docname="8.5.6.svg">
  <title
     id="title3006">8.5.7 Время действия</title>
  <defs
     id="defs4" />
  <sodipodi:namedview
     id="base"
     pagecolor="#ffffff"
     bordercolor="#666666"
     borderopacity="1.0"
     inkscape:pageopacity="0.0"
     inkscape:pageshadow="2"
     inkscape:zoom="1"
     inkscape:cx="219.97711"
     inkscape:cy="163.05071"
     inkscape:document-units="px"
     inkscape:current-layer="layer1"
     showgrid="false"
     inkscape:window-width="1920"
     inkscape:window-height="1024"
     inkscape:window-x="-4"
     inkscape:window-y="-4"
     inkscape:window-maximized="1"
     inkscape:snap-bbox="true"
     inkscape:bbox-paths="true"
     inkscape:bbox-nodes="true"
     inkscape:snap-bbox-edge-midpoints="true"
     inkscape:snap-bbox-midpoints="true"
     inkscape:object-paths="true"
     inkscape:snap-intersection-paths="true"
     inkscape:object-nodes="true"
     inkscape:snap-smooth-nodes="true"
     inkscape:snap-midpoints="true"
     inkscape:snap-object-midpoints="true"
     showguides="true"
     inkscape:guide-bbox="true" />
  <metadata
     id="metadata7">
    <rdf:RDF>
      <cc:Work
         rdf:about="">
        <dc:format>image/svg+xml</dc:format>
        <dc:type
           rdf:resource="http://purl.org/dc/dcmitype/StillImage" />
        <dc:title>8.5.7 Время действия</dc:title>
        <cc:license
           rdf:resource="http://creativecommons.org/licenses/by-sa/3.0/" />
        <dc:description>ГОСТ Р 52290-2004
Размеры и пропорции по типоразмеру I</dc:description>
      </cc:Work>
      <cc:License
         rdf:about="http://creativecommons.org/licenses/by-sa/3.0/">
        <cc:permits
           rdf:resource="http://creativecommons.org/ns#Reproduction" />
        <cc:permits
           rdf:resource="http://creativecommons.org/ns#Distribution" />
        <cc:requires
           rdf:resource="http://creativecommons.org/ns#Notice" />
        <cc:requires
           rdf:resource="http://creativecommons.org/ns#Attribution" />
        <cc:permits
           rdf:resource="http://creativecommons.org/ns#DerivativeWorks" />
        <cc:requires
           rdf:resource="http://creativecommons.org/ns#ShareAlike" />
      </cc:License>
    </rdf:RDF>
  </metadata>
  <g
     inkscape:label="Layer 1"
     inkscape:groupmode="layer"
     id="layer1"
     transform="translate(0,-752.36218)">
    <rect
       y="752.36218"
       x="0"
       height="300"
       width="600"
       id="rect5622"
       style="opacity:1;color:#000000;fill:#000000;fill-opacity:1;fill-rule:nonzero;stroke:none;stroke-width:3.54299997999999980;marker:none;visibility:visible;display:inline;overflow:visible;enable-background:accumulate"
       rx="45"
       ry="45" />
    <rect
       y="762.36212"
       x="10"
       height="280"
       width="580"
       id="rect9537"
       style="color:#000000;fill:#ffffff;fill-opacity:1;fill-rule:nonzero;stroke:none;stroke-width:3.54299997999999980;marker:none;visibility:visible;display:inline;overflow:visible;enable-background:accumulate;opacity:1"
       rx="35"
       ry="35" />
    <g
       style="font-size:133.93029785px;font-style:normal;font-variant:normal;font-weight:normal;font-stretch:normal;line-height:125%;letter-spacing:8.484375px;word-spacing:0px;fill:#000000;fill-opacity:1;stroke:none;font-family:Arial;-inkscape-font-specification:Arial"
       id="text7949-3">
      <path
         d="m 354.5625,978.70122 c 10.68355,-0.3683 18.37886,-4.65401 23.08594,-12.85714 4.70697,-8.2031 7.01166,-18.11381 6.91406,-29.73214 -0.13677,-11.73265 -2.67583,-20.57751 -7.61719,-26.5346 -4.94145,-5.95696 -11.46488,-8.94245 -19.57031,-8.95647 -6.26956,0.22887 -11.54299,3.01904 -15.82031,8.37053 -4.27736,5.35162 -6.50392,11.8918 -6.67969,19.62054 0.42968,8.69144 2.85155,14.51175 7.26563,17.46093 4.41404,2.94925 8.24216,4.31644 11.48437,4.10157 3.32028,-0.0781 6.5234,-0.85935 9.60938,-2.34375 3.08589,-1.48435 5.82027,-3.2031 8.20312,-5.15625 0.0926,0.30592 -0.1968,2.44712 -0.86805,6.42361 -0.67134,3.97654 -2.28014,7.95306 -4.82639,11.92956 -2.54634,3.97653 -6.58569,6.11774 -12.11806,6.42361 -4.37781,-0.18414 -8.17803,-0.92074 -11.40067,-2.20982 -3.22267,-1.28905 -4.91351,-2.02566 -5.07254,-2.20982 l 1.47321,11.51786 c 0.1953,0.17299 1.91405,0.86496 5.15625,2.07589 3.24216,1.21093 6.83591,1.9029 10.78125,2.07589 z m 1.875,-39.77678 c -2.03128,4e-5 -4.06253,-0.93746 -6.09375,-2.8125 -2.03127,-1.87496 -3.12502,-4.68746 -3.28125,-8.4375 -0.0112,-3.48767 0.98212,-6.79124 2.97991,-9.91072 1.99774,-3.11935 5.06694,-4.81578 9.20759,-5.08928 2.96045,0.096 5.26864,1.25833 6.9246,3.4871 1.65588,2.22889 2.84305,4.68094 3.56151,7.35615 0.71838,2.67531 1.15158,4.73054 1.2996,6.16568 -0.0224,0.38509 -1.28352,1.92526 -3.78348,4.62053 -2.50004,2.69535 -6.10494,4.23553 -10.81473,4.62054 z"
         style="fill:#000000;font-family:Russian Road Sign;-inkscape-font-specification:Russian Road Sign"
         id="path14008" />
      <path
         d="m 405.35078,969.86194 c -0.0586,-2.31336 -0.85647,-4.23867 -2.39371,-5.77594 -1.53727,-1.53724 -3.46258,-2.33514 -5.77593,-2.3937 -2.31338,0.0586 -4.23869,0.85647 -5.77594,2.39371 -1.53726,1.53726 -2.33516,3.46257 -2.39371,5.77593 0.0586,2.31337 0.85645,4.23868 2.39372,5.77593 1.53724,1.53726 3.46255,2.33516 5.77593,2.39371 2.31335,-0.0585 4.23866,-0.85645 5.77593,-2.39371 1.53723,-1.53725 2.33514,-3.46256 2.39371,-5.77593 z"
         style="fill:#000000;font-family:Russian Road Sign;-inkscape-font-specification:Russian Road Sign"
         id="path14010" />
    </g>
    <g
       style="font-size:133.93029785px;font-style:normal;font-variant:normal;font-weight:normal;font-stretch:normal;line-height:125%;letter-spacing:-6.140625px;word-spacing:0px;fill:#000000;fill-opacity:1;stroke:none;font-family:Arial;-inkscape-font-specification:Arial"
       id="text13457">
      <path
         d="m 126.3971,901.40564 c -6.30863,8e-5 -11.73831,1.6407 -16.28907,4.92188 -4.55079,3.28131 -6.9336,8.20318 -7.14844,14.76562 0.16203,4.34033 1.29629,7.7431 3.40278,10.20833 2.10647,2.46532 4.21295,4.20143 6.31945,5.20833 2.10645,1.00699 3.24071,1.4931 3.40278,1.45834 -0.18521,-0.0115 -1.48151,0.63661 -3.8889,1.94444 -2.40742,1.30791 -4.81483,3.34494 -7.22222,6.11111 -2.40742,2.76623 -3.70371,6.33105 -3.88889,10.69445 -0.11719,5.00002 1.75781,9.76564 5.625,14.29687 3.86717,4.53126 10.42967,6.95313 19.68751,7.26563 9.25777,-0.3125 15.82026,-2.73437 19.6875,-7.26563 3.86712,-4.53124 5.74212,-9.29686 5.625,-14.29687 -0.18525,-4.3634 -1.48155,-7.92822 -3.8889,-10.69445 -2.40746,-2.76617 -4.81486,-4.8032 -7.22222,-6.11111 -2.40745,-1.30783 -3.70374,-1.95598 -3.88888,-1.94444 0.16199,0.0348 1.29625,-0.45135 3.40277,-1.45834 2.10644,-1.0069 4.21291,-2.74301 6.31945,-5.20833 2.10642,-2.46523 3.24068,-5.868 3.40278,-10.20833 -0.2149,-6.56244 -2.59771,-11.48431 -7.14844,-14.76563 -4.55083,-3.28118 -9.98051,-4.9218 -16.28906,-4.92187 z m 0,10.71428 c 2.89058,-0.0362 5.31245,0.63902 7.26562,2.02568 1.95308,1.38678 2.96871,3.70262 3.04688,6.94754 -0.42974,2.92974 -2.14849,5.50786 -5.15626,7.73437 -3.00785,2.22661 -4.72659,3.39849 -5.15624,3.51563 -0.42973,-0.11714 -2.14848,-1.28902 -5.15626,-3.51563 -3.00784,-2.22651 -4.72658,-4.80463 -5.15624,-7.73437 0.0781,-3.24492 1.09372,-5.56077 3.04687,-6.94755 1.9531,-1.38665 4.37497,-2.06187 7.26563,-2.02567 z m 0,31.47322 c 0.15043,0.0348 1.20367,0.69448 3.15972,1.97917 1.95598,1.28475 3.91199,2.98614 5.86805,5.10416 1.95598,2.11808 3.00922,4.44447 3.15973,6.97917 -0.1563,3.26173 -1.48442,5.64454 -3.98438,7.14843 -2.50004,1.50392 -5.23441,2.24611 -8.20312,2.22657 -2.96879,0.0195 -5.70316,-0.72265 -8.20313,-2.22656 -2.50003,-1.5039 -3.82815,-3.88671 -3.98437,-7.14844 0.15044,-2.23956 1.20368,-4.42706 3.15972,-6.5625 1.95599,-2.13539 3.91201,-3.90622 5.86805,-5.3125 1.95599,-1.40622 3.00923,-2.13539 3.15973,-2.1875 z"
         style="fill:#000000;font-family:Russian Road Sign;-inkscape-font-specification:Russian Road Sign"
         id="path13998" />
      <path
         d="m 172.14021,969.84314 c -0.0586,-2.31336 -0.85648,-4.23867 -2.39371,-5.77593 -1.53728,-1.53725 -3.46259,-2.33515 -5.77594,-2.39371 -2.31338,0.0586 -4.23869,0.85647 -5.77593,2.39371 -1.53727,1.53726 -2.33517,3.46257 -2.39371,5.77593 0.0585,2.31337 0.85645,4.23868 2.39371,5.77593 1.53724,1.53726 3.46255,2.33516 5.77593,2.39371 2.31335,-0.0585 4.23866,-0.85645 5.77594,-2.39371 1.53723,-1.53725 2.33513,-3.46256 2.39371,-5.77593 z"
         style="fill:#000000;font-family:Russian Road Sign;-inkscape-font-specification:Russian Road Sign"
         id="path14000" />
    </g>
    <rect
       y="-952.40588"
       x="-325.8176"
       height="11.908423"
       width="49.1604"
       id="rect13465"
       style="color:#000000;fill:#000000;fill-opacity:1;fill-rule:nonzero;stroke:none;stroke-width:3.54299997999999980;marker:none;visibility:visible;display:inline;overflow:visible;enable-background:accumulate;opacity:1"
       transform="scale(-1,-1)" />
    <g
       style="font-size:103.73321533px;font-style:normal;font-variant:normal;font-weight:normal;font-stretch:normal;line-height:125%;letter-spacing:-5.578125px;word-spacing:0px;fill:#000000;fill-opacity:1;stroke:none;font-family:Arial;-inkscape-font-specification:Arial"
       id="text13500">
      <path
         d="m 182.31581,921.9425 3.83808,8.60974 c 1.98818,-1.75043 3.92451,-3.02114 5.80898,-3.81215 1.88445,-0.7909 4.2357,-1.17989 7.05377,-1.16698 1.89092,0.0454 3.55495,0.68079 4.9921,1.90607 1.43709,1.22538 2.19346,2.76839 2.26913,4.62904 -0.0908,2.26918 -1.36151,4.44754 -3.81214,6.53511 -2.45069,2.08764 -5.53671,3.53989 -9.25807,4.35674 l 0,7.98735 c 0.73691,-0.34791 1.54515,-0.55969 2.42473,-0.63536 0.87954,-0.0756 1.76558,-0.10586 2.65813,-0.0908 4.55769,0.19885 7.44921,1.30532 8.67457,3.31942 1.2253,2.01415 1.75693,3.74301 1.59488,5.18659 -0.15563,3.35185 -1.42634,5.80252 -3.81214,7.352 -2.38586,1.5495 -5.26442,2.31453 -8.63568,2.29507 -2.47662,0.0151 -5.06991,-0.22258 -7.77989,-0.71316 -2.71001,-0.49055 -4.99211,-1.32473 -6.84631,-2.50253 l 1.24479,10.16572 c 0.255,0.10374 2.00115,0.51866 5.23846,1.24479 3.23728,0.72612 6.43568,1.14105 9.5952,1.24478 6.92623,-0.24204 12.21223,-2.29939 15.85801,-6.17205 3.6457,-3.87265 5.48261,-8.10836 5.51075,-12.70715 -0.10697,-3.13755 -1.05721,-5.73725 -2.8507,-7.79911 -1.79358,-2.0618 -3.78882,-3.63955 -5.98572,-4.73324 -2.19697,-1.09364 -3.95401,-1.75701 -5.27111,-1.99012 3.02548,-0.42354 5.68793,-1.93629 7.98735,-4.53827 2.29935,-2.6019 3.50956,-5.92996 3.63062,-9.98419 -0.19454,-4.04333 -1.88018,-7.23741 -5.05693,-9.58223 -3.17682,-2.34472 -6.67777,-3.54195 -10.50285,-3.59172 -3.08821,0.08 -6.45517,0.67216 -10.1009,1.77641 -3.64575,1.10437 -6.46812,2.2411 -8.46711,3.41019 z"
         style="fill:#000000;font-family:Russian Road Sign;-inkscape-font-specification:Russian Road Sign"
         id="path14003" />
      <path
         d="m 246.994,917.58576 c -5.89978,0.15133 -10.61957,2.9348 -14.15941,8.35041 -3.53986,5.41572 -5.35516,12.55592 -5.44592,21.42064 0.0908,8.86477 1.90606,16.00497 5.44592,21.42063 3.53984,5.41567 8.25963,8.19914 14.15941,8.35042 5.89971,-0.15128 10.61951,-2.93475 14.1594,-8.35042 3.5398,-5.41566 5.35511,-12.55586 5.44592,-21.42063 -0.0908,-8.45627 -1.90612,-15.47978 -5.44592,-21.07054 -3.53989,-5.59066 -8.25969,-8.49083 -14.1594,-8.70051 z m 0,9.02467 c 2.84395,-0.0432 5.1174,1.59925 6.82037,4.92726 1.70289,3.32811 2.57597,8.60114 2.61923,15.81912 -0.0433,7.21803 -0.91634,12.49106 -2.61924,15.81911 -1.70296,3.32807 -3.97641,4.97049 -6.82036,4.92726 -2.84401,0.0432 -5.11747,-1.59919 -6.82038,-4.92726 -1.70295,-3.32805 -2.57602,-8.60108 -2.61923,-15.81911 0.0432,-7.21798 0.91628,-12.49101 2.61923,-15.81912 1.70292,-3.32801 3.97637,-4.97043 6.82038,-4.92726 z"
         style="fill:#000000;font-family:Russian Road Sign;-inkscape-font-specification:Russian Road Sign"
         id="path14005" />
    </g>
    <g
       style="font-size:95.66449738px;font-style:normal;font-variant:normal;font-weight:normal;font-stretch:normal;line-height:125%;letter-spacing:-3px;word-spacing:0px;fill:#000000;fill-opacity:1;stroke:none;font-family:Arial;-inkscape-font-specification:Arial"
       id="text13915">
      <path
         d="m 61.312504,827.362 0,37.5 8.035715,0 0,-30.13393 14.0625,0 0,30.13393 8.035714,0 0,-37.5 z"
         style="fill:#000000;font-family:Russian Road Sign;-inkscape-font-specification:Russian Road Sign"
         id="path13975" />
      <path
         d="m 121.17285,826.02271 c -5.12,0.0838 -9.27736,1.92526 -12.4721,5.52456 -3.19476,3.59936 -4.84096,8.45426 -4.93861,14.56473 0.0977,6.1105 1.74385,10.96541 4.93861,14.56473 3.19475,3.59933 7.35211,5.44085 12.4721,5.52456 5.11995,-0.0837 9.27731,-1.92523 12.4721,-5.52456 3.19471,-3.59932 4.84092,-8.45423 4.93862,-14.56473 -0.0977,-6.11047 -1.74391,-10.96537 -4.93862,-14.56474 -3.19479,-3.59929 -7.35215,-5.44081 -12.4721,-5.52455 z m 0,6.69643 c 2.73435,0.0558 4.96649,1.28352 6.69643,3.68304 1.72988,2.39957 2.62273,5.63618 2.67857,9.70982 -0.0558,4.07368 -0.94869,7.31028 -2.67857,9.70982 -1.72994,2.39956 -3.96208,3.62724 -6.69643,3.68304 -2.73439,-0.0558 -4.96653,-1.28348 -6.69643,-3.68304 -1.72993,-2.39954 -2.62278,-5.63615 -2.67857,-9.70982 0.0558,-4.07364 0.94865,-7.31024 2.67857,-9.70982 1.72989,-2.39953 3.96203,-3.6272 6.69643,-3.68304 z"
         style="fill:#000000;font-family:Russian Road Sign;-inkscape-font-specification:Russian Road Sign"
         id="path13977" />
      <path
         d="m 150.977,827.362 0,37.5 8.03572,0 0,-16.07143 14.0625,0 0,16.07143 8.03571,0 0,-37.5 -8.03571,0 0,14.0625 -14.0625,0 0,-14.0625 z"
         style="fill:#000000;font-family:Russian Road Sign;-inkscape-font-specification:Russian Road Sign"
         id="path13979" />
      <path
         d="m 210.83735,832.71914 c 2.07866,0.006 4.01982,0.83111 5.8235,2.47529 1.80362,1.64424 2.76424,3.49771 2.88186,5.56043 0.002,0.34879 -0.0499,0.65571 -0.15545,0.92075 -0.10567,0.26509 -0.27706,0.4046 -0.51419,0.41853 l -16.74107,0 c 0.0936,-3.30833 1.00644,-5.68396 2.73836,-7.12691 1.73188,-1.44289 3.72088,-2.19225 5.96699,-2.24809 z m 15.40179,16.07143 c 0.5859,-0.0418 1.06421,-0.46036 1.43495,-1.25558 0.37065,-0.79519 0.56198,-1.71594 0.57398,-2.76228 -0.13955,-5.17575 -1.86946,-9.55633 -5.18974,-13.14174 -3.32034,-3.58534 -7.394,-5.45476 -12.22098,-5.60826 -2.58891,0.0279 -5.11202,0.64178 -7.56935,1.84152 -2.45737,1.19981 -4.52608,2.81812 -6.20616,4.85491 -1.36719,1.6582 -2.33977,3.57943 -2.91773,5.76371 -0.57797,2.18434 -0.8809,4.72739 -0.9088,7.62915 0.0777,6.1105 1.95511,10.96541 5.63218,14.56473 3.67704,3.59933 8.11342,5.44085 13.30915,5.52456 2.36365,0.0139 4.78712,-0.6836 7.27041,-2.09264 2.48322,-1.40904 4.90669,-3.61327 7.2704,-6.61272 l -6.5051,-3.73087 c -1.29746,1.67611 -2.55304,2.93966 -3.76674,3.79066 -1.21376,0.85101 -2.63675,1.2775 -4.26897,1.27949 -1.8834,0.0837 -3.97603,-0.58593 -6.27791,-2.00892 -2.30191,-1.42299 -3.55749,-4.10156 -3.76673,-8.03572 z"
         style="fill:#000000;font-family:Russian Road Sign;-inkscape-font-specification:Russian Road Sign"
         id="path13981" />
      <path
         d="m 244.65936,827.362 c -0.0219,6.63069 -0.52816,12.35852 -1.51866,17.18351 -0.99052,4.82503 -2.33379,9.14184 -4.02981,12.95042 l -3.82653,0 0,15.40178 8.03571,0 0,-8.03571 25.44643,0 0,8.03571 7.36607,0 0,-15.40178 -4.6875,0 0,-30.13393 z m 8.03571,7.36607 10.71429,0 0,22.76786 -15.59312,0 c 1.62626,-3.32828 2.77422,-7.00334 3.44388,-11.02519 0.66962,-4.02183 1.14794,-7.93604 1.43495,-11.74267 z"
         style="fill:#000000;font-family:Russian Road Sign;-inkscape-font-specification:Russian Road Sign"
         id="path13983" />
      <path
         d="m 300.50184,832.71914 c 2.07866,0.006 4.01982,0.83111 5.8235,2.47529 1.80362,1.64424 2.76424,3.49771 2.88186,5.56043 0.002,0.34879 -0.0499,0.65571 -0.15545,0.92075 -0.10567,0.26509 -0.27706,0.4046 -0.51419,0.41853 l -16.74108,0 c 0.0937,-3.30833 1.00645,-5.68396 2.73837,-7.12691 1.73188,-1.44289 3.72088,-2.19225 5.96699,-2.24809 z m 15.40179,16.07143 c 0.5859,-0.0418 1.06421,-0.46036 1.43495,-1.25558 0.37065,-0.79519 0.56198,-1.71594 0.57398,-2.76228 -0.13956,-5.17575 -1.86946,-9.55633 -5.18974,-13.14174 -3.32034,-3.58534 -7.394,-5.45476 -12.22098,-5.60826 -2.58891,0.0279 -5.11202,0.64178 -7.56935,1.84152 -2.45737,1.19981 -4.52608,2.81812 -6.20616,4.85491 -1.36719,1.6582 -2.33977,3.57943 -2.91773,5.76371 -0.57797,2.18434 -0.88091,4.72739 -0.9088,7.62915 0.0777,6.1105 1.95511,10.96541 5.63218,14.56473 3.67704,3.59933 8.11342,5.44085 13.30915,5.52456 2.36365,0.0139 4.78712,-0.6836 7.27041,-2.09264 2.48322,-1.40904 4.90669,-3.61327 7.2704,-6.61272 l -6.5051,-3.73087 c -1.29746,1.67611 -2.55304,2.93966 -3.76674,3.79066 -1.21376,0.85101 -2.63675,1.2775 -4.26897,1.27949 -1.8834,0.0837 -3.97603,-0.58593 -6.27791,-2.00892 -2.30191,-1.42299 -3.55749,-4.10156 -3.76674,-8.03572 z"
         style="fill:#000000;font-family:Russian Road Sign;-inkscape-font-specification:Russian Road Sign"
         id="path13985" />
      <path
         d="m 334.9935,827.362 c 0.004,2.58649 -0.0573,5.71503 -0.18424,9.38563 -0.12697,3.67066 -0.34428,7.09682 -0.65193,10.27848 -0.30766,3.18171 -0.73047,5.33236 -1.26842,6.45196 -0.85699,1.52664 -1.91726,2.70648 -3.1808,3.53954 -1.26356,0.83308 -2.46732,1.34328 -3.61129,1.53061 l 1.53061,7.65307 c 5.4398,-1.43023 9.1435,-3.85252 11.11111,-7.26687 1.96757,-3.41435 3.04231,-7.27512 3.22421,-11.58234 0.18186,-4.30719 0.31413,-8.51519 0.39683,-12.62401 l 10.71428,0 0,30.13393 8.03572,0 0,-37.5 z"
         style="fill:#000000;font-family:Russian Road Sign;-inkscape-font-specification:Russian Road Sign"
         id="path13987" />
      <path
         d="m 376.18158,827.362 0,37.5 17.41071,0 c 4.64761,-0.12556 8.00379,-1.38114 10.06856,-3.76674 2.06469,-2.3856 3.07713,-5.14787 3.03731,-8.28683 0.0398,-3.13894 -0.97261,-5.90121 -3.03731,-8.28683 -2.06476,-2.38558 -5.42095,-3.64116 -10.06856,-3.76674 l -9.375,0 0,-13.39286 z m 8.03571,20.75893 10.04465,0 c 1.36716,0.0578 2.48323,0.56403 3.34821,1.51865 0.86492,0.95466 1.31135,2.01094 1.33929,3.16885 -0.0279,1.15793 -0.47436,2.21421 -1.33929,3.16884 -0.86499,0.95465 -1.98106,1.46087 -3.34821,1.51866 l -10.04465,0 z"
         style="fill:#000000;font-family:Russian Road Sign;-inkscape-font-specification:Russian Road Sign"
         id="path13989" />
      <path
         d="m 417.72837,827.362 0,37.5 8.03571,0 0,-16.07143 14.0625,0 0,16.07143 8.03572,0 0,-37.5 -8.03572,0 0,14.0625 -14.0625,0 0,-14.0625 z"
         style="fill:#000000;font-family:Russian Road Sign;-inkscape-font-specification:Russian Road Sign"
         id="path13991" />
      <path
         d="m 461.51728,827.362 0,37.5 8.70536,0.0136 15.40178,-25.46007 0,25.44643 8.03572,0 0,-37.5 -8.70536,0 -15.40178,25.44643 0,-25.44643 z"
         style="fill:#000000;font-family:Russian Road Sign;-inkscape-font-specification:Russian Road Sign"
         id="path13993" />
      <path
         d="m 507.39286,827.362 0,37.5 8.03571,0 0,-17.41071 c 0.34078,-0.0498 0.68756,-0.0937 1.04034,-0.13154 0.35274,-0.0379 0.6756,-0.0578 0.96859,-0.0598 3.69298,0.25512 6.49511,2.23216 8.40641,5.93112 1.91124,3.69899 4.01982,7.58929 6.32573,11.67092 l 10.04465,0 c -2.2753,-2.30714 -4.15549,-4.99515 -5.6406,-8.06406 -1.48518,-3.06889 -3.08192,-5.87737 -4.79025,-8.42545 -1.70838,-2.54805 -4.035,-4.19441 -6.97987,-4.93906 1.61444,-0.47652 3.04112,-1.47922 4.28005,-3.00808 1.23886,-1.52882 2.55216,-3.02046 3.9399,-4.47492 1.38768,-1.4544 3.11198,-2.30828 5.17291,-2.56164 l -2.00893,-6.69643 c -2.78313,0.38564 -5.29517,1.70839 -7.53614,3.96825 -2.24103,2.25993 -4.34916,4.48262 -6.3244,6.66808 -1.9753,2.18552 -3.95588,3.35946 -5.94176,3.52183 -0.14749,0.002 -0.30693,-0.002 -0.47831,-0.012 -0.17142,-0.01 -0.33085,-0.0378 -0.47832,-0.0837 l 0,-13.39286 z"
         style="fill:#000000;font-family:Russian Road Sign;-inkscape-font-specification:Russian Road Sign"
         id="path13995" />
    </g>
    <g
       style="font-size:103.73321533px;font-style:normal;font-variant:normal;font-weight:normal;font-stretch:normal;line-height:125%;letter-spacing:-5.578125px;word-spacing:0px;fill:#000000;fill-opacity:1;stroke:none;font-family:Arial;-inkscape-font-specification:Arial"
       id="text13919">
      <path
         d="m 415.84706,921.9425 3.83808,8.60974 c 1.98818,-1.75043 3.92451,-3.02114 5.80898,-3.81215 1.88445,-0.7909 4.2357,-1.17989 7.05377,-1.16698 1.89092,0.0454 3.55495,0.68079 4.9921,1.90607 1.43709,1.22538 2.19346,2.76839 2.26913,4.62904 -0.0908,2.26918 -1.36151,4.44754 -3.81214,6.53511 -2.45069,2.08764 -5.53671,3.53989 -9.25807,4.35674 l 0,7.98735 c 0.73691,-0.34791 1.54515,-0.55969 2.42473,-0.63536 0.87954,-0.0756 1.76558,-0.10586 2.65813,-0.0908 4.55769,0.19885 7.44921,1.30532 8.67457,3.31942 1.2253,2.01415 1.75693,3.74301 1.59488,5.18659 -0.15563,3.35185 -1.42634,5.80252 -3.81214,7.352 -2.38586,1.5495 -5.26442,2.31453 -8.63568,2.29507 -2.47662,0.0151 -5.06991,-0.22258 -7.77989,-0.71316 -2.71001,-0.49055 -4.99211,-1.32473 -6.84631,-2.50253 l 1.24479,10.16572 c 0.255,0.10374 2.00115,0.51866 5.23846,1.24479 3.23728,0.72612 6.43568,1.14105 9.5952,1.24478 6.92623,-0.24204 12.21223,-2.29939 15.85801,-6.17205 3.6457,-3.87265 5.48261,-8.10836 5.51075,-12.70715 -0.10697,-3.13755 -1.05721,-5.73725 -2.8507,-7.79911 -1.79358,-2.0618 -3.78882,-3.63955 -5.98572,-4.73324 -2.19697,-1.09364 -3.95401,-1.75701 -5.27111,-1.99012 3.02548,-0.42354 5.68793,-1.93629 7.98735,-4.53827 2.29935,-2.6019 3.50956,-5.92996 3.63062,-9.98419 -0.19454,-4.04333 -1.88018,-7.23741 -5.05693,-9.58223 -3.17682,-2.34472 -6.67777,-3.54195 -10.50285,-3.59172 -3.08821,0.08 -6.45517,0.67216 -10.1009,1.77641 -3.64575,1.10437 -6.46812,2.2411 -8.46711,3.41019 z"
         style="fill:#000000;font-family:Russian Road Sign;-inkscape-font-specification:Russian Road Sign"
         id="path14013" />
      <path
         d="m 480.52525,917.58576 c -5.89978,0.15133 -10.61957,2.9348 -14.15941,8.35041 -3.53986,5.41572 -5.35516,12.55592 -5.44592,21.42064 0.0908,8.86477 1.90606,16.00497 5.44592,21.42063 3.53984,5.41567 8.25963,8.19914 14.15941,8.35042 5.89971,-0.15128 10.61951,-2.93475 14.1594,-8.35042 3.5398,-5.41566 5.35511,-12.55586 5.44592,-21.42063 -0.0908,-8.45627 -1.90612,-15.47978 -5.44592,-21.07054 -3.53989,-5.59066 -8.25969,-8.49083 -14.1594,-8.70051 z m 0,9.02467 c 2.84395,-0.0432 5.1174,1.59925 6.82037,4.92726 1.70289,3.32811 2.57597,8.60114 2.61923,15.81912 -0.0433,7.21803 -0.91634,12.49106 -2.61924,15.81911 -1.70296,3.32807 -3.97641,4.97049 -6.82036,4.92726 -2.84401,0.0432 -5.11747,-1.59919 -6.82038,-4.92726 -1.70295,-3.32805 -2.57602,-8.60108 -2.61923,-15.81911 0.0432,-7.21798 0.91628,-12.49101 2.61923,-15.81912 1.70292,-3.32801 3.97637,-4.97043 6.82038,-4.92726 z"
         style="fill:#000000;font-family:Russian Road Sign;-inkscape-font-specification:Russian Road Sign"
         id="path14015" />
    </g>
  </g>
</svg>
