<?xml version="1.0" encoding="UTF-8" standalone="no"?>
<!-- Created with Inkscape (http://www.inkscape.org/) -->

<svg
   xmlns:dc="http://purl.org/dc/elements/1.1/"
   xmlns:cc="http://creativecommons.org/ns#"
   xmlns:rdf="http://www.w3.org/1999/02/22-rdf-syntax-ns#"
   xmlns:svg="http://www.w3.org/2000/svg"
   xmlns="http://www.w3.org/2000/svg"
   xmlns:sodipodi="http://sodipodi.sourceforge.net/DTD/sodipodi-0.dtd"
   xmlns:inkscape="http://www.inkscape.org/namespaces/inkscape"
   width="600"
   height="300"
   id="svg2"
   version="1.1"
   inkscape:version="0.48.4 r9939"
   sodipodi:docname="8.21.2.svg">
  <title
     id="title3006">8.21.2 Вид маршрутного транспортного средства</title>
  <defs
     id="defs4" />
  <sodipodi:namedview
     id="base"
     pagecolor="#ffffff"
     bordercolor="#666666"
     borderopacity="1.0"
     inkscape:pageopacity="0.0"
     inkscape:pageshadow="2"
     inkscape:zoom="1"
     inkscape:cx="322.94197"
     inkscape:cy="167.08296"
     inkscape:document-units="px"
     inkscape:current-layer="layer1"
     showgrid="false"
     inkscape:window-width="1920"
     inkscape:window-height="1024"
     inkscape:window-x="-4"
     inkscape:window-y="-4"
     inkscape:window-maximized="1"
     inkscape:snap-bbox="true"
     inkscape:bbox-paths="true"
     inkscape:bbox-nodes="true"
     inkscape:snap-bbox-edge-midpoints="true"
     inkscape:snap-bbox-midpoints="true"
     inkscape:object-paths="true"
     inkscape:snap-intersection-paths="true"
     inkscape:object-nodes="true"
     inkscape:snap-smooth-nodes="true"
     inkscape:snap-midpoints="true"
     inkscape:snap-object-midpoints="true"
     showguides="true"
     inkscape:guide-bbox="true" />
  <metadata
     id="metadata7">
    <rdf:RDF>
      <cc:Work
         rdf:about="">
        <dc:format>image/svg+xml</dc:format>
        <dc:type
           rdf:resource="http://purl.org/dc/dcmitype/StillImage" />
        <dc:title>8.21.2 Вид маршрутного транспортного средства</dc:title>
        <cc:license
           rdf:resource="http://creativecommons.org/licenses/by-sa/3.0/" />
        <dc:description>ГОСТ Р 52290-2004
Размеры и пропорции по типоразмеру I</dc:description>
      </cc:Work>
      <cc:License
         rdf:about="http://creativecommons.org/licenses/by-sa/3.0/">
        <cc:permits
           rdf:resource="http://creativecommons.org/ns#Reproduction" />
        <cc:permits
           rdf:resource="http://creativecommons.org/ns#Distribution" />
        <cc:requires
           rdf:resource="http://creativecommons.org/ns#Notice" />
        <cc:requires
           rdf:resource="http://creativecommons.org/ns#Attribution" />
        <cc:permits
           rdf:resource="http://creativecommons.org/ns#DerivativeWorks" />
        <cc:requires
           rdf:resource="http://creativecommons.org/ns#ShareAlike" />
      </cc:License>
    </rdf:RDF>
  </metadata>
  <g
     inkscape:label="Layer 1"
     inkscape:groupmode="layer"
     id="layer1"
     transform="translate(0,-752.36218)">
    <rect
       y="752.36218"
       x="0"
       height="300"
       width="600"
       id="rect5622"
       style="opacity:1;color:#000000;fill:#000000;fill-opacity:1;fill-rule:nonzero;stroke:none;stroke-width:3.54299997999999980;marker:none;visibility:visible;display:inline;overflow:visible;enable-background:accumulate"
       rx="45"
       ry="45" />
    <rect
       y="762.36212"
       x="10"
       height="280"
       width="580"
       id="rect9537"
       style="color:#000000;fill:#ffffff;fill-opacity:1;fill-rule:nonzero;stroke:none;stroke-width:3.54299997999999980;marker:none;visibility:visible;display:inline;overflow:visible;enable-background:accumulate;opacity:1"
       rx="35"
       ry="35" />
    <path
       inkscape:connector-curvature="0"
       style="opacity:1;fill:#000000;fill-opacity:1;stroke:none"
       d="m 111.5625,846.11217 0,45.9375 -45.9375,0 0,20.625 45.9375,0 0,45.9375 20.625,0 0,-45.9375 45.9375,0 0,-20.625 -45.9375,0 0,-45.9375 -20.625,0 z"
       id="path9903" />
    <path
       style="opacity:1;color:#000000;fill:#000000;fill-opacity:1;fill-rule:nonzero;stroke:none;stroke-width:1.27611935000000010;marker:none;visibility:visible;display:inline;overflow:visible;enable-background:accumulate"
       d="M 258.15625 75.84375 C 253.23878 75.84375 248.70877 78.46009 246.25 82.71875 L 222.15625 124.4375 C 220.94816 126.52993 220.3125 128.92764 220.3125 131.34375 L 220.3125 154.59375 L 220.3125 181.84375 C 220.3125 189.46912 226.43712 195.59375 234.0625 195.59375 L 240.96875 195.59375 C 240.96875 176.58936 256.37062 161.1875 275.375 161.1875 C 294.37944 161.1875 309.78125 176.58936 309.78125 195.59375 L 419.90625 195.59375 C 419.90625 176.58936 435.30813 161.1875 454.3125 161.1875 C 473.31694 161.1875 488.71875 176.58936 488.71875 195.59375 L 509.375 195.59375 C 517.00038 195.59375 523.125 189.46912 523.125 181.84375 L 523.125 154.59375 L 523.125 131.34375 C 523.125 129.86434 522.8741 128.37223 522.40625 126.96875 L 508.5 85.25 C 506.62648 79.62951 501.39327 75.84375 495.46875 75.84375 L 258.15625 75.84375 z M 259.75 85.46875 L 268.5 85.46875 L 275.375 85.46875 C 279.18769 85.46875 282.25 88.56231 282.25 92.375 L 282.25 119.90625 C 282.25 123.71894 279.18769 126.78125 275.375 126.78125 L 268.5 126.78125 L 243.875 126.78125 C 240.07416 126.78125 236.96875 123.70713 236.96875 119.90625 C 236.96875 118.69819 237.30221 117.48371 237.90625 116.4375 L 253.78125 88.9375 C 255.01059 86.80817 257.29124 85.46875 259.75 85.46875 z M 302.90625 85.46875 L 344.1875 85.46875 C 348.00018 85.46875 351.0625 88.562315 351.0625 92.375 L 351.0625 119.90625 C 351.0625 123.71893 348.00018 126.78125 344.1875 126.78125 L 302.90625 126.78125 C 299.09357 126.78125 296.03125 123.71893 296.03125 119.90625 L 296.03125 92.375 C 296.03125 88.562315 299.09357 85.46875 302.90625 85.46875 z M 371.71875 85.46875 L 413 85.46875 C 416.81268 85.46875 419.90625 88.562315 419.90625 92.375 L 419.90625 119.90625 C 419.90625 123.71893 416.81268 126.78125 413 126.78125 L 371.71875 126.78125 C 367.90607 126.78125 364.84375 123.71893 364.84375 119.90625 L 364.84375 92.375 C 364.84375 88.562315 367.90607 85.46875 371.71875 85.46875 z M 440.53125 85.46875 L 461.1875 85.46875 L 479.78125 85.46875 C 482.83422 85.46875 485.5135 87.50862 486.375 90.4375 L 494.46875 117.9375 C 495.54126 121.58391 493.45892 125.42749 489.8125 126.5 C 489.18189 126.68548 488.53231 126.78125 487.875 126.78125 L 461.1875 126.78125 L 440.53125 126.78125 C 436.71857 126.78125 433.65625 123.71893 433.65625 119.90625 L 433.65625 92.375 C 433.65625 88.56231 436.71857 85.46875 440.53125 85.46875 z "
       transform="translate(0,752.36218)"
       id="path9935" />
    <path
       id="path9937"
       d="m 275.36932,920.43036 c -15.20353,0 -27.52841,12.32488 -27.52841,27.5284 0,15.20352 12.32488,27.52841 27.52841,27.52841 15.20353,0 27.52841,-12.32489 27.52841,-27.52841 0,-15.20352 -12.32488,-27.5284 -27.52841,-27.5284 z m 0,13.76419 c 7.60176,0 13.7642,6.16245 13.7642,13.76421 0,7.60175 -6.16244,13.7642 -13.7642,13.7642 -7.60177,0 -13.76421,-6.16245 -13.76421,-13.7642 0,-7.60176 6.16244,-13.76421 13.76421,-13.76421 z"
       style="opacity:1;color:#000000;fill:#000000;fill-opacity:1;fill-rule:nonzero;stroke:none;stroke-width:1px;marker:none;visibility:visible;display:inline;overflow:visible;enable-background:accumulate"
       inkscape:connector-curvature="0" />
    <path
       id="path9948"
       d="m 454.30398,920.43036 c -15.20353,0 -27.52841,12.32488 -27.52841,27.5284 0,15.20352 12.32488,27.52841 27.52841,27.52841 15.20353,0 27.52841,-12.32489 27.52841,-27.52841 0,-15.20352 -12.32488,-27.5284 -27.52841,-27.5284 z m 0,13.76419 c 7.60176,0 13.7642,6.16245 13.7642,13.76421 0,7.60175 -6.16244,13.7642 -13.7642,13.7642 -7.60177,0 -13.76421,-6.16245 -13.76421,-13.7642 0,-7.60176 6.16244,-13.76421 13.76421,-13.76421 z"
       style="opacity:1;color:#000000;fill:#000000;fill-opacity:1;fill-rule:nonzero;stroke:none;stroke-width:1px;marker:none;visibility:visible;display:inline;overflow:visible;enable-background:accumulate"
       inkscape:connector-curvature="0" />
  </g>
</svg>
