<?xml version="1.0" encoding="UTF-8" standalone="no"?>
<!-- Created with Inkscape (http://www.inkscape.org/) -->

<svg
   xmlns:dc="http://purl.org/dc/elements/1.1/"
   xmlns:cc="http://creativecommons.org/ns#"
   xmlns:rdf="http://www.w3.org/1999/02/22-rdf-syntax-ns#"
   xmlns:svg="http://www.w3.org/2000/svg"
   xmlns="http://www.w3.org/2000/svg"
   xmlns:sodipodi="http://sodipodi.sourceforge.net/DTD/sodipodi-0.dtd"
   xmlns:inkscape="http://www.inkscape.org/namespaces/inkscape"
   width="600"
   height="300"
   id="svg2"
   version="1.1"
   inkscape:version="0.48.4 r9939"
   sodipodi:docname="8.20.1.svg">
  <title
     id="title3006">8.20.2 Тип тележки транспортного средства</title>
  <defs
     id="defs4" />
  <sodipodi:namedview
     id="base"
     pagecolor="#ffffff"
     bordercolor="#666666"
     borderopacity="1.0"
     inkscape:pageopacity="0.0"
     inkscape:pageshadow="2"
     inkscape:zoom="1"
     inkscape:cx="171.65137"
     inkscape:cy="174.18837"
     inkscape:document-units="px"
     inkscape:current-layer="layer1"
     showgrid="false"
     inkscape:window-width="1920"
     inkscape:window-height="1024"
     inkscape:window-x="-4"
     inkscape:window-y="-4"
     inkscape:window-maximized="1"
     inkscape:snap-bbox="true"
     inkscape:bbox-paths="true"
     inkscape:bbox-nodes="true"
     inkscape:snap-bbox-edge-midpoints="true"
     inkscape:snap-bbox-midpoints="true"
     inkscape:object-paths="true"
     inkscape:snap-intersection-paths="true"
     inkscape:object-nodes="true"
     inkscape:snap-smooth-nodes="true"
     inkscape:snap-midpoints="true"
     inkscape:snap-object-midpoints="true"
     showguides="true"
     inkscape:guide-bbox="true" />
  <metadata
     id="metadata7">
    <rdf:RDF>
      <cc:Work
         rdf:about="">
        <dc:format>image/svg+xml</dc:format>
        <dc:type
           rdf:resource="http://purl.org/dc/dcmitype/StillImage" />
        <dc:title>8.20.2 Тип тележки транспортного средства</dc:title>
        <cc:license
           rdf:resource="http://creativecommons.org/licenses/by-sa/3.0/" />
        <dc:description>ГОСТ Р 52290-2004
Размеры и пропорции по типоразмеру I</dc:description>
      </cc:Work>
      <cc:License
         rdf:about="http://creativecommons.org/licenses/by-sa/3.0/">
        <cc:permits
           rdf:resource="http://creativecommons.org/ns#Reproduction" />
        <cc:permits
           rdf:resource="http://creativecommons.org/ns#Distribution" />
        <cc:requires
           rdf:resource="http://creativecommons.org/ns#Notice" />
        <cc:requires
           rdf:resource="http://creativecommons.org/ns#Attribution" />
        <cc:permits
           rdf:resource="http://creativecommons.org/ns#DerivativeWorks" />
        <cc:requires
           rdf:resource="http://creativecommons.org/ns#ShareAlike" />
      </cc:License>
    </rdf:RDF>
  </metadata>
  <g
     inkscape:label="Layer 1"
     inkscape:groupmode="layer"
     id="layer1"
     transform="translate(0,-752.36218)">
    <rect
       y="752.36218"
       x="0"
       height="300"
       width="600"
       id="rect5622"
       style="opacity:1;color:#000000;fill:#000000;fill-opacity:1;fill-rule:nonzero;stroke:none;stroke-width:3.54299997999999980;marker:none;visibility:visible;display:inline;overflow:visible;enable-background:accumulate"
       rx="45"
       ry="45" />
    <rect
       y="762.36212"
       x="10"
       height="280"
       width="580"
       id="rect9537"
       style="color:#000000;fill:#ffffff;fill-opacity:1;fill-rule:nonzero;stroke:none;stroke-width:3.54299997999999980;marker:none;visibility:visible;display:inline;overflow:visible;enable-background:accumulate;opacity:1"
       rx="35"
       ry="35" />
    <g
       style="font-size:95.66449737999998600px;font-style:normal;font-variant:normal;font-weight:normal;font-stretch:normal;line-height:125%;letter-spacing:-1.21875000000000000px;word-spacing:0px;opacity:1;fill:#000000;fill-opacity:1;stroke:none;font-family:Arial;-inkscape-font-specification:Arial"
       id="text11481">
      <path
         d="m 83.03563,846.112 c -0.02193,6.63069 -0.528152,12.35852 -1.518653,17.18351 -0.990524,4.82503 -2.333794,9.14184 -4.029816,12.95042 l -3.826531,0 0,15.40178 8.035715,0 0,-8.03571 25.446425,0 0,8.03571 7.36607,0 0,-15.40178 -4.6875,0 0,-30.13393 z m 8.035715,7.36607 10.714285,0 0,22.76786 -15.593112,0 c 1.626258,-3.32828 2.774216,-7.00334 3.443878,-11.02519 0.669623,-4.02183 1.147938,-7.93604 1.434949,-11.74267 z"
         style="fill:#000000;font-family:Russian Road Sign;-inkscape-font-specification:Russian Road Sign"
         id="path11603" />
      <path
         d="m 129.94508,846.112 c 0.004,2.58649 -0.0573,5.71503 -0.18424,9.38563 -0.12697,3.67066 -0.34428,7.09682 -0.65193,10.27848 -0.30766,3.18171 -0.73047,5.33236 -1.26842,6.45196 -0.85699,1.52664 -1.91726,2.70648 -3.1808,3.53954 -1.26356,0.83308 -2.46732,1.34328 -3.61129,1.53061 l 1.53061,7.65307 c 5.4398,-1.43023 9.1435,-3.85252 11.11111,-7.26687 1.96757,-3.41435 3.04231,-7.27512 3.22421,-11.58234 0.18186,-4.30719 0.31413,-8.51519 0.39683,-12.62401 l 10.71428,0 0,30.13393 8.03572,0 0,-37.5 z"
         style="fill:#000000;font-family:Russian Road Sign;-inkscape-font-specification:Russian Road Sign"
         id="path11605" />
      <path
         d="m 201.03941,883.612 0,-37.5 -16.07143,0 c -4.63171,0.13954 -7.92412,1.36722 -9.87723,3.68303 -1.95314,2.31588 -2.90179,4.88285 -2.84598,7.7009 0.0837,2.23814 0.92075,4.17133 2.51116,5.79958 1.59039,1.62829 3.43191,2.72443 5.52455,3.28843 -2.19082,0.4246 -3.9848,1.69066 -5.38194,3.79818 -1.39717,2.10756 -2.64551,4.42237 -3.74504,6.94445 -1.09954,2.52209 -2.29829,4.61723 -3.59623,6.28543 l 9.375,0 c 0.59405,-1.1515 1.34045,-2.9195 2.23923,-5.304 0.89875,-2.38449 2.21205,-4.59891 3.93991,-6.64328 1.72782,-2.04435 4.13239,-3.13207 7.21372,-3.26318 0.64371,-0.006 1.14992,0.006 1.51865,0.0359 0.36868,0.0299 0.75531,0.11362 1.15992,0.25112 l 0,14.92347 z m -8.03571,-21.42857 -7.36607,0 c -1.37319,-0.0578 -2.50122,-0.56399 -3.38409,-1.51866 -0.88291,-0.95461 -1.31738,-2.01089 -1.30341,-3.16884 0.0697,-1.04629 0.52812,-1.96705 1.37516,-2.76228 0.84699,-0.79517 1.95111,-1.2137 3.31234,-1.25558 l 7.36607,0 z"
         style="fill:#000000;font-family:Russian Road Sign;-inkscape-font-specification:Russian Road Sign"
         id="path11607" />
    </g>
    <g
       style="font-size:95.66449737999998600px;font-style:normal;font-variant:normal;font-weight:normal;font-stretch:normal;line-height:125%;letter-spacing:-2.10937500000000000px;word-spacing:0px;opacity:1;fill:#000000;fill-opacity:1;stroke:none;font-family:Arial;-inkscape-font-specification:Arial"
       id="text11485">
      <path
         d="m 236.14475,833.72021 3.53954,7.94005 c 1.83354,-1.61428 3.61925,-2.78615 5.35715,-3.51563 1.73786,-0.72939 3.90623,-1.08812 6.5051,-1.07621 1.74384,0.0419 3.27843,0.62784 4.60379,1.75781 1.32531,1.13007 2.02285,2.55306 2.09264,4.26898 -0.0837,2.09267 -1.25561,4.10159 -3.51563,6.02678 -2.26007,1.92526 -5.10605,3.26454 -8.53795,4.01786 l 0,7.36607 c 0.67959,-0.32085 1.42497,-0.51616 2.23613,-0.58594 0.81113,-0.0697 1.62825,-0.0976 2.45137,-0.0837 4.20318,0.18338 6.86979,1.20378 7.99984,3.06122 1.12999,1.85748 1.62027,3.45187 1.47083,4.78317 -0.14353,3.09113 -1.3154,5.35117 -3.51563,6.78013 -2.20028,1.42898 -4.85493,2.13449 -7.96396,2.11655 -2.28398,0.014 -4.67556,-0.20527 -7.17475,-0.65769 -2.49921,-0.45239 -4.6038,-1.22169 -6.31377,-2.30787 l 1.14795,9.375 c 0.23517,0.0957 1.8455,0.47831 4.831,1.14796 2.98547,0.66964 5.93509,1.05229 8.84885,1.14796 6.38749,-0.22322 11.26233,-2.12054 14.62452,-5.69197 3.36213,-3.57142 5.05616,-7.47767 5.08211,-11.71875 -0.0987,-2.8935 -0.97497,-5.29098 -2.62896,-7.19246 -1.65407,-1.90143 -3.49411,-3.35646 -5.52013,-4.36508 -2.02608,-1.00857 -3.64645,-1.62034 -4.86111,-1.83532 2.79015,-0.39059 5.2455,-1.78568 7.36607,-4.18526 2.1205,-2.39952 3.23657,-5.46871 3.34822,-9.20759 -0.17941,-3.72883 -1.73394,-6.67446 -4.66359,-8.8369 -2.92972,-2.16233 -6.15835,-3.26645 -9.6859,-3.31234 -2.848,0.0738 -5.95307,0.61988 -9.31522,1.63824 -3.36217,1.01846 -5.96501,2.06677 -7.80851,3.14493 z"
         style="fill:#000000;font-family:Russian Road Sign;-inkscape-font-specification:Russian Road Sign"
         id="path11610" />
      <path
         d="m 281.4162,869.88092 18.75,0 0,-8.70536 -18.75,0 z"
         style="fill:#000000;font-family:Russian Road Sign;-inkscape-font-specification:Russian Road Sign"
         id="path11612" />
      <path
         d="m 328.85483,845.10413 c -5.12,0.0837 -9.27736,1.92527 -12.4721,5.52456 -3.19476,3.59936 -4.84096,8.45427 -4.93861,14.56473 0.0976,6.1105 1.74385,10.96541 4.93862,14.56473 3.19474,3.59933 7.3521,5.44085 12.47209,5.52456 5.11995,-0.0837 9.27731,-1.92523 12.4721,-5.52456 3.19471,-3.59932 4.84092,-8.45423 4.93862,-14.56473 -0.0977,-6.11047 -1.7439,-10.96537 -4.93862,-14.56473 -3.19479,-3.5993 -7.35215,-5.44081 -12.4721,-5.52456 z m 0,6.69643 c 2.73435,0.0558 4.96649,1.28352 6.69643,3.68304 1.72988,2.39958 2.62273,5.63618 2.67857,9.70982 -0.0558,4.07368 -0.94869,7.31028 -2.67857,9.70982 -1.72994,2.39956 -3.96208,3.62724 -6.69643,3.68304 -2.73439,-0.0558 -4.96653,-1.28348 -6.69643,-3.68304 -1.72993,-2.39954 -2.62278,-5.63615 -2.67857,-9.70982 0.0558,-4.07364 0.94865,-7.31024 2.67857,-9.70982 1.72989,-2.39953 3.96203,-3.6272 6.69643,-3.68304 z"
         style="fill:#000000;font-family:Russian Road Sign;-inkscape-font-specification:Russian Road Sign"
         id="path11614" />
      <path
         d="m 374.9514,845.10413 c -5.1479,0.0837 -9.41687,1.92527 -12.80692,5.52456 -3.39008,3.59936 -5.14789,8.45427 -5.27344,14.56473 0.12555,6.1105 1.88336,10.96541 5.27344,14.56473 3.39005,3.59933 7.65902,5.44085 12.80692,5.52456 3.77269,-0.0259 7.06111,-1.02639 9.86527,-3.00144 2.80409,-1.97504 4.87281,-4.76921 6.20616,-8.38249 l -7.5574,-2.8699 c -0.73146,2.44939 -1.8276,4.3188 -3.28843,5.60826 -1.46089,1.28946 -3.20275,1.93918 -5.2256,1.94914 -2.7344,-0.0558 -4.96654,-1.28348 -6.69643,-3.68304 -1.72993,-2.39954 -2.62279,-5.63615 -2.67857,-9.70982 0.0558,-4.07364 0.94864,-7.31024 2.67857,-9.70982 1.72989,-2.39953 3.96203,-3.6272 6.69643,-3.68304 2.02285,0.01 3.76471,0.65971 5.2256,1.94914 1.46083,1.28949 2.55697,3.15891 3.28843,5.60826 l 7.5574,-2.8699 c -1.33335,-3.61325 -3.40207,-6.40741 -6.20616,-8.38249 -2.80416,-1.97501 -6.09258,-2.97549 -9.86527,-3.00144 z"
         style="fill:#000000;font-family:Russian Road Sign;-inkscape-font-specification:Russian Road Sign"
         id="path11616" />
      <path
         d="m 403.03034,846.44342 0,37.5 8.03571,0 0,-16.07143 14.0625,0 0,16.07143 8.03572,0 0,-37.5 -8.03572,0 0,14.0625 -14.0625,0 0,-14.0625 z"
         style="fill:#000000;font-family:Russian Road Sign;-inkscape-font-specification:Russian Road Sign"
         id="path11618" />
      <path
         d="m 463.78132,845.10413 c -5.12,0.0837 -9.27736,1.92527 -12.4721,5.52456 -3.19476,3.59936 -4.84096,8.45427 -4.93861,14.56473 0.0976,6.1105 1.74385,10.96541 4.93862,14.56473 3.19474,3.59933 7.3521,5.44085 12.47209,5.52456 5.11995,-0.0837 9.27731,-1.92523 12.4721,-5.52456 3.19471,-3.59932 4.84092,-8.45423 4.93862,-14.56473 -0.0977,-6.11047 -1.7439,-10.96537 -4.93862,-14.56473 -3.19479,-3.5993 -7.35215,-5.44081 -12.4721,-5.52456 z m 0,6.69643 c 2.73435,0.0558 4.96649,1.28352 6.69643,3.68304 1.72988,2.39958 2.62273,5.63618 2.67857,9.70982 -0.0558,4.07368 -0.94869,7.31028 -2.67857,9.70982 -1.72994,2.39956 -3.96208,3.62724 -6.69643,3.68304 -2.73439,-0.0558 -4.96653,-1.28348 -6.69643,-3.68304 -1.72992,-2.39954 -2.62278,-5.63615 -2.67857,-9.70982 0.0558,-4.07364 0.94865,-7.31024 2.67857,-9.70982 1.72989,-2.39953 3.96204,-3.6272 6.69643,-3.68304 z"
         style="fill:#000000;font-family:Russian Road Sign;-inkscape-font-specification:Russian Road Sign"
         id="path11620" />
      <path
         d="m 493.80645,846.44342 0,37.5 8.70536,0 15.40178,-25.44643 0,25.44643 8.03572,0 0,-37.5 -8.70536,0 -15.40178,25.44643 0,-25.44643 z m 2.67857,-16.07143 c -0.0579,0.13233 0.20667,1.05825 0.79365,2.77778 0.58696,1.71962 1.84357,3.4392 3.76984,5.15873 1.92624,1.71962 4.86936,2.64554 8.82937,2.77778 3.95996,-0.13224 6.90308,-1.05816 8.82936,-2.77778 1.92623,-1.71953 3.18284,-3.43911 3.76985,-5.15873 0.58693,-1.71953 0.85148,-2.64545 0.79365,-2.77778 l -6.69643,0 c -0.65573,1.68811 -1.52068,2.99949 -2.59487,3.93415 -1.07425,0.93476 -2.44143,1.40909 -4.10156,1.42299 -1.70203,-0.0139 -3.15292,-0.48823 -4.35268,-1.42299 -1.1998,-0.93465 -1.98104,-2.24604 -2.34375,-3.93415 z"
         style="fill:#000000;font-family:Russian Road Sign;-inkscape-font-specification:Russian Road Sign"
         id="path11622" />
    </g>
    <g
       style="font-size:95.66449737999998600px;font-style:normal;font-variant:normal;font-weight:normal;font-stretch:normal;line-height:125%;letter-spacing:-1.73437500000000000px;word-spacing:0px;opacity:1;fill:#000000;fill-opacity:1;stroke:none;font-family:Arial;-inkscape-font-specification:Arial"
       id="text11489">
      <path
         d="m 137.37133,921.11194 0,7.36607 11.28826,0 0,30.13393 8.03572,0 0,-30.13393 11.1926,0 0,-7.36607 z"
         style="fill:#000000;font-family:Russian Road Sign;-inkscape-font-specification:Russian Road Sign"
         id="path11625" />
      <path
         d="m 195.13255,926.46908 c 2.07865,0.006 4.01982,0.83111 5.8235,2.47529 1.80362,1.64424 2.76424,3.49771 2.88186,5.56043 0.002,0.34879 -0.0499,0.65571 -0.15546,0.92075 -0.10566,0.26509 -0.27706,0.4046 -0.51419,0.41853 l -16.74107,0 c 0.0937,-3.30833 1.00644,-5.68396 2.73836,-7.12691 1.73189,-1.44289 3.72089,-2.19225 5.967,-2.24809 z m 15.40178,16.07143 c 0.5859,-0.0418 1.06422,-0.46036 1.43495,-1.25558 0.37066,-0.79519 0.56198,-1.71594 0.57398,-2.76228 -0.13955,-5.17575 -1.86946,-9.55633 -5.18973,-13.14174 -3.32035,-3.58534 -7.394,-5.45476 -12.22098,-5.60826 -2.58891,0.0279 -5.11202,0.64178 -7.56936,1.84152 -2.45736,1.19981 -4.52608,2.81811 -6.20615,4.85491 -1.3672,1.65819 -2.33977,3.57943 -2.91773,5.76371 -0.57798,2.18434 -0.88091,4.72738 -0.9088,7.62915 0.0777,6.1105 1.95511,10.96541 5.63217,14.56473 3.67704,3.59933 8.11342,5.44085 13.30915,5.52455 2.36366,0.0139 4.78712,-0.68359 7.27041,-2.09263 2.48323,-1.40904 4.90669,-3.61328 7.27041,-6.61272 l -6.5051,-3.73087 c -1.29747,1.67611 -2.55305,2.93966 -3.76674,3.79065 -1.21376,0.85101 -2.63675,1.27751 -4.26898,1.2795 -1.88339,0.0837 -3.97602,-0.58593 -6.2779,-2.00893 -2.30191,-1.42298 -3.55749,-4.10155 -3.76674,-8.03571 z"
         style="fill:#000000;font-family:Russian Road Sign;-inkscape-font-specification:Russian Road Sign"
         id="path11627" />
      <path
         d="m 230.88982,921.11194 c 0.004,2.58648 -0.0573,5.71502 -0.18424,9.38563 -0.12698,3.67066 -0.34429,7.09681 -0.65193,10.27848 -0.30767,3.18171 -0.73048,5.33236 -1.26842,6.45196 -0.857,1.52664 -1.91726,2.70648 -3.18081,3.53954 -1.26356,0.83308 -2.46732,1.34328 -3.61128,1.53061 l 1.53061,7.65306 c 5.4398,-1.43022 9.1435,-3.85251 11.11111,-7.26686 1.96757,-3.41435 3.04231,-7.27512 3.22421,-11.58234 0.18185,-4.30719 0.31413,-8.51519 0.39682,-12.62401 l 10.71429,0 0,30.13393 8.03571,0 0,-37.5 z"
         style="fill:#000000;font-family:Russian Road Sign;-inkscape-font-specification:Russian Road Sign"
         id="path11629" />
      <path
         d="m 288.07568,926.46908 c 2.07865,0.006 4.01982,0.83111 5.8235,2.47529 1.80362,1.64424 2.76424,3.49771 2.88186,5.56043 0.002,0.34879 -0.0499,0.65571 -0.15546,0.92075 -0.10566,0.26509 -0.27706,0.4046 -0.51419,0.41853 l -16.74107,0 c 0.0937,-3.30833 1.00644,-5.68396 2.73837,-7.12691 1.73188,-1.44289 3.72088,-2.19225 5.96699,-2.24809 z m 15.40179,16.07143 c 0.58589,-0.0418 1.06421,-0.46036 1.43494,-1.25558 0.37066,-0.79519 0.56198,-1.71594 0.57398,-2.76228 -0.13955,-5.17575 -1.86946,-9.55633 -5.18973,-13.14174 -3.32035,-3.58534 -7.394,-5.45476 -12.22098,-5.60826 -2.58891,0.0279 -5.11202,0.64178 -7.56936,1.84152 -2.45736,1.19981 -4.52608,2.81811 -6.20615,4.85491 -1.3672,1.65819 -2.33977,3.57943 -2.91773,5.76371 -0.57798,2.18434 -0.88091,4.72738 -0.9088,7.62915 0.0777,6.1105 1.95511,10.96541 5.63217,14.56473 3.67705,3.59933 8.11342,5.44085 13.30916,5.52455 2.36365,0.0139 4.78711,-0.68359 7.2704,-2.09263 2.48323,-1.40904 4.90669,-3.61328 7.27041,-6.61272 l -6.5051,-3.73087 c -1.29747,1.67611 -2.55304,2.93966 -3.76674,3.79065 -1.21376,0.85101 -2.63675,1.27751 -4.26897,1.2795 -1.8834,0.0837 -3.97603,-0.58593 -6.27791,-2.00893 -2.30191,-1.42298 -3.55749,-4.10155 -3.76674,-8.03571 z"
         style="fill:#000000;font-family:Russian Road Sign;-inkscape-font-specification:Russian Road Sign"
         id="path11631" />
      <path
         d="m 319.81509,920.4423 -2.00892,8.03571 c 2.40042,0.0945 4.33849,0.81966 5.8142,2.17545 1.47568,1.35585 2.81851,2.77544 4.02848,4.25879 1.20995,1.48339 2.61655,2.46364 4.21982,2.94076 -2.61681,0.25114 -4.79714,1.30343 -6.54098,3.15689 -1.74388,1.85349 -3.13498,4.1494 -4.17331,6.88775 -0.75336,1.78573 -1.75782,3.73885 -3.01339,5.85938 -1.25559,2.12054 -2.26005,3.73884 -3.0134,4.85491 l 9.375,0 c 2.48325,-4.38058 4.71539,-8.36654 6.69643,-11.95791 1.98101,-3.59134 4.88279,-5.18573 8.70536,-4.78316 l 0,16.74107 8.03571,0 0,-16.74107 c 3.82251,-0.40257 6.72429,1.19182 8.70536,4.78316 1.98098,3.59137 4.21312,7.57733 6.69643,11.95791 l 9.375,0 c -0.75341,-1.11607 -1.75787,-2.73437 -3.01339,-4.85491 -1.25564,-2.12053 -2.26011,-4.07365 -3.0134,-5.85938 -1.0384,-2.73834 -2.4295,-5.03426 -4.17331,-6.88775 -1.74391,-1.85346 -3.92423,-2.90576 -6.54097,-3.15689 1.6032,-0.47711 3.0098,-1.45737 4.21981,-2.94076 1.20991,-1.48335 2.55274,-2.90294 4.02849,-4.25879 1.47564,-1.35579 3.4137,-2.08094 5.8142,-2.17545 l -2.00893,-8.03571 c -3.50948,0.41753 -6.38646,1.88908 -8.63095,4.41468 -2.2446,2.52565 -4.22872,4.93967 -5.95239,7.24206 -1.72375,2.30244 -3.55906,3.32757 -5.50595,3.0754 l 0,-14.0625 -8.03571,0 0,14.0625 c -1.94695,0.25217 -3.78227,-0.77296 -5.50595,-3.0754 -1.72374,-2.30239 -3.70786,-4.7164 -5.95238,-7.24206 -2.24457,-2.5256 -5.12155,-3.99715 -8.63096,-4.41468 z"
         style="fill:#000000;font-family:Russian Road Sign;-inkscape-font-specification:Russian Road Sign"
         id="path11633" />
      <path
         d="m 384.30149,921.11194 0,37.5 8.03571,0 0,-17.41072 c 0.34078,-0.0498 0.68756,-0.0937 1.04034,-0.13154 0.35274,-0.0378 0.6756,-0.0578 0.96859,-0.0598 3.69298,0.25512 6.49511,2.23216 8.40641,5.93112 1.91124,3.69899 4.01982,7.58929 6.32573,11.67092 l 10.04465,0 c -2.2753,-2.30714 -4.15549,-4.99515 -5.6406,-8.06406 -1.48518,-3.06889 -3.08192,-5.87737 -4.79024,-8.42546 -1.70839,-2.54805 -4.03501,-4.1944 -6.97988,-4.93905 1.61444,-0.47653 3.04112,-1.47922 4.28005,-3.00808 1.23886,-1.52882 2.55216,-3.02046 3.93991,-4.47492 1.38767,-1.4544 3.11197,-2.30829 5.1729,-2.56165 l -2.00893,-6.69642 c -2.78313,0.38564 -5.29517,1.70839 -7.53614,3.96825 -2.24103,2.25993 -4.34916,4.48262 -6.3244,6.66808 -1.9753,2.18552 -3.95588,3.35946 -5.94176,3.52183 -0.14749,0.002 -0.30693,-0.002 -0.47831,-0.012 -0.17141,-0.01 -0.33085,-0.0378 -0.47832,-0.0837 l 0,-13.39286 z"
         style="fill:#000000;font-family:Russian Road Sign;-inkscape-font-specification:Russian Road Sign"
         id="path11635" />
      <path
         d="m 430.1034,921.11194 0,37.5 8.70536,0.0136 15.40179,-25.46007 0,25.44643 8.03571,0 0,-37.5 -8.70536,0 -15.40178,25.44643 0,-25.44643 z"
         style="fill:#000000;font-family:Russian Road Sign;-inkscape-font-specification:Russian Road Sign"
         id="path11637" />
    </g>
  </g>
</svg>
