<?xml version="1.0" encoding="UTF-8" standalone="no"?>
<svg
   xmlns:dc="http://purl.org/dc/elements/1.1/"
   xmlns:cc="http://creativecommons.org/ns#"
   xmlns:rdf="http://www.w3.org/1999/02/22-rdf-syntax-ns#"
   xmlns:svg="http://www.w3.org/2000/svg"
   xmlns="http://www.w3.org/2000/svg"
   xmlns:sodipodi="http://sodipodi.sourceforge.net/DTD/sodipodi-0.dtd"
   xmlns:inkscape="http://www.inkscape.org/namespaces/inkscape"
   sodipodi:docname="7.4.9.svg"
   inkscape:version="1.0 (4035a4fb49, 2020-05-01)"
   version="1.1"
   id="svg4249"
   viewBox="-2 -2 333.0222 163.79734"
   height="299.99982"
   width="600">
  <title
     id="title4130">7.4.9 Транспартны сродак, што прыводзіцца ў рух электрарухавіком</title>
  <metadata
     id="metadata4261">
    <rdf:RDF>
      <cc:Work
         rdf:about="">
        <dc:format>image/svg+xml</dc:format>
        <dc:type
           rdf:resource="http://purl.org/dc/dcmitype/StillImage" />
        <dc:title>7.4.9 Транспартны сродак, што прыводзіцца ў рух электрарухавіком</dc:title>
      </cc:Work>
    </rdf:RDF>
  </metadata>
  <defs
     id="defs4259">
    <inkscape:path-effect
       lpeversion="0"
       is_visible="true"
       id="path-effect3019"
       effect="spiro" />
    <inkscape:path-effect
       lpeversion="0"
       is_visible="true"
       id="path-effect3015"
       effect="spiro" />
    <pattern
       id="EMFhbasepattern"
       patternUnits="userSpaceOnUse"
       width="6"
       height="6"
       x="0"
       y="0" />
  </defs>
  <sodipodi:namedview
     inkscape:document-rotation="0"
     fit-margin-bottom="0"
     fit-margin-right="0"
     fit-margin-left="0"
     fit-margin-top="0"
     inkscape:current-layer="g3789"
     inkscape:window-maximized="1"
     inkscape:window-y="-9"
     inkscape:window-x="-9"
     inkscape:cy="152.47004"
     inkscape:cx="140.12087"
     inkscape:zoom="0.79824493"
     showgrid="true"
     id="namedview4257"
     inkscape:window-height="1001"
     inkscape:window-width="1920"
     inkscape:pageshadow="2"
     inkscape:pageopacity="0"
     guidetolerance="10"
     gridtolerance="10"
     objecttolerance="10"
     borderopacity="1"
     bordercolor="#666666"
     pagecolor="#ffffff">
    <inkscape:grid
       originy="-1363.1647"
       originx="-931.10369"
       snapvisiblegridlinesonly="true"
       enabled="true"
       visible="true"
       empspacing="5"
       id="grid2999"
       type="xygrid" />
  </sodipodi:namedview>
  <g
     transform="translate(-931.10369,-1385.7483)"
     id="g3789"
     inkscape:groupmode="layer">
    <path
       id="path7678-8-8"
       style="color:#000000;font-size:117.724px;line-height:97.02%;font-family:BywayEMod;-inkscape-font-specification:BywayEMod;text-align:center;text-anchor:middle;display:inline;overflow:visible;visibility:visible;opacity:1;fill:#000000;fill-opacity:1;fill-rule:nonzero;stroke:none;stroke-width:1.9665;marker:none;enable-background:accumulate"
       d="m 954.08033,1382.3915 h 283.06897 c 13.8373,0 24.9766,11.1393 24.9766,24.9765 v 116.558 c 0,13.8369 -11.1393,24.9765 -24.9766,24.9765 H 954.08033 c -13.83718,0 -24.97664,-11.1396 -24.97664,-24.9765 v -116.558 c 0,-13.8372 11.13946,-24.9765 24.97664,-24.9765 z" />
    <path
       id="path7680-3-4"
       style="color:#000000;font-size:117.724px;line-height:97.02%;font-family:BywayEMod;-inkscape-font-specification:BywayEMod;text-align:center;text-anchor:middle;display:inline;overflow:visible;visibility:visible;opacity:1;fill:#ffffff;fill-opacity:1;fill-rule:nonzero;stroke:none;stroke-width:1.9665;marker:none;enable-background:accumulate"
       d="m 954.08033,1387.9417 h 283.06897 c 10.7623,0 19.4264,8.6641 19.4264,19.4262 v 116.558 c 0,10.7621 -8.6641,19.4262 -19.4264,19.4262 H 954.08033 c -10.76208,0 -19.42629,-8.6641 -19.42629,-19.4262 v -116.558 c 0,-10.7621 8.66421,-19.4262 19.42629,-19.4262 z" />
    <path
       sodipodi:nodetypes="ccccccccsccsccccccccccccccscccccccccccccccccccccscccsssccccssssssssssssssssssss"
       id="rect9612"
       style="opacity:1;fill:#000000;fill-rule:evenodd;stroke-width:77.7046;stroke-linecap:round;paint-order:stroke markers fill"
       d="m 1061.1343,1418.9581 c -2.6053,0 -5.0996,1.0766 -6.8763,2.9819 l -32.7236,35.0873 c -1.4679,1.5737 -3.4291,2.5896 -5.5602,2.8889 l -50.08853,7.0458 c -4.69924,0.6604 -8.1632,4.7266 -8.08,9.4712 l 0.30622,17.8287 c 0.14605,4.1858 3.53568,7.4965 7.69723,7.6178 2.35121,-11.3545 12.46596,-19.8848 24.58057,-19.8848 13.85711,0 25.08921,11.1773 25.08921,24.9663 h 89.2397 c 0,-13.789 11.2332,-24.9663 25.0907,-24.9663 12.6973,0 23.1904,9.3891 24.8582,21.5686 l 4.7754,-1.2996 c 2.9213,-0.7828 5.1393,-3.1482 5.7163,-6.117 l 4.5577,-23.4551 h 15.9752 v -10.4826 -8.0829 h 7.1558 0.2474 v 7.8758 l 18.6572,6.8374 c 0.2709,0.1191 0.5489,0.2311 0.8328,0.3331 l 3.992,1.4348 4.7198,0.021 c 1.8015,0.014 3.2521,-1.4505 3.2521,-3.2521 v -0.1951 h 21.8656 v -9.0104 h -21.8656 v -15.5776 h 21.8656 v -9.0105 h -21.9901 c -0.3725,-1.3857 -1.621,-2.4056 -3.1276,-2.4056 l -4.7543,-0.087 -23.4475,7.133 v 5.4206 h -0.3995 -17.4862 v 10.4827 8.0829 h -7.8774 l -34.1252,-39.9601 c -1.7845,-2.0897 -4.403,-3.291 -7.151,-3.291 z m 1.0355,7.4166 h 64.44 c 3.6481,0 6.7545,2.6551 7.3251,6.2581 l 3.0585,19.2799 c 0.6407,4.0453 -2.1198,7.8429 -6.165,8.4837 -0.3839,0.061 -0.7699,0.091 -1.1586,0.091 h -88.2507 c -3.2767,0 -5.9323,-2.6557 -5.9323,-5.9325 0,-1.5016 0.5663,-2.9491 1.5908,-4.0474 l 20.7521,-22.2468 c 1.1221,-1.2035 2.6946,-1.8865 4.3401,-1.8865 z m -71.78316,59.8193 c -11.46797,0 -20.76566,9.296 -20.76566,20.7641 0,11.468 9.29769,20.7657 20.76566,20.7657 11.46826,0 20.76416,-9.2977 20.76416,-20.7657 0,-11.4681 -9.2959,-20.7641 -20.76416,-20.7641 z m 139.41966,0 c -11.4678,0 -20.7655,9.296 -20.7655,20.7641 0,11.468 9.2977,20.7657 20.7655,20.7657 11.4681,0 20.7643,-9.2977 20.7643,-20.7657 0,-11.4681 -9.2962,-20.7641 -20.7643,-20.7641 z m -139.41966,8.4041 c 6.82605,0 12.35856,5.5337 12.35856,12.36 0,6.8263 -5.53251,12.3616 -12.35856,12.3616 -6.82604,0 -12.36006,-5.5353 -12.36006,-12.3616 0,-6.8263 5.53402,-12.36 12.36006,-12.36 z m 139.41966,0 c 6.8262,0 12.3601,5.5337 12.3601,12.36 0,6.8263 -5.5339,12.3616 -12.3601,12.3616 -6.8262,0 -12.3614,-5.5353 -12.3614,-12.3616 0,-6.8263 5.5352,-12.36 12.3614,-12.36 z" />
  </g>
</svg>
