<?xml version="1.0" encoding="UTF-8"?>
<svg xmlns="http://www.w3.org/2000/svg" width="700" height="350" version="1.1">
<title>8.4.7 Вид транспортного средства</title>
<rect style="fill:#000000;" x="0" y="0" width="700" height="350" rx="45" ry="45"/>
<rect style="fill:#ffffff;" x="10" y="10" width="680" height="330" rx="35" ry="35"/>
<path style="fill:#000000;" d="m 368.742,238.453 c 1.500,1.143 3.334,1.762 5.220,1.762 l 41.843,0 c 5.255,37.853 37.619,66.035 75.836,66.035 c 42.284,0 76.562,-34.278 76.562,-76.563 c 0,-42.284 -34.278,-76.562 -76.562,-76.562 c -11.922,0 -23.680,2.784 -34.336,8.131 l -28.301,-40.416 l 7.420,-17.481 l 4.494,0 c 6.343,0 11.484,-5.141 11.484,-11.484 c 0,-6.343 -5.141,-11.484 -11.484,-11.484 l -52.637,0 c -6.342,0 -11.484,5.142 -11.484,11.484 c 0,6.343 5.142,11.484 11.484,11.484 l 33.588,0 l -4.469,10.528 l -131.980,0 c 0.604,-2.217 0.911,-4.505 0.911,-6.802 c 0,-9.286 -4.982,-17.858 -13.051,-22.453 l -5.048,-2.875 c -3.586,-2.043 -5.800,-5.852 -5.800,-9.979 c 0,-6.343 5.141,-11.484 11.484,-11.484 l 37.803,0 c 4.228,0 7.656,-3.428 7.656,-7.656 c 0,-4.228 -3.428,-7.656 -7.656,-7.656 l -37.803,0 c -14.800,0 -26.797,11.997 -26.797,26.797 c 0,9.630 5.167,18.519 13.534,23.285 l 5.048,2.875 c 3.288,1.872 5.317,5.365 5.317,9.148 c 0,1.537 -0.336,3.056 -0.986,4.449 l -24.012,51.494 c -11.490,-6.492 -24.463,-9.903 -37.661,-9.903 c -42.284,0 -76.562,34.278 -76.562,76.563 c 0,42.284 34.278,76.562 76.562,76.562 c 42.285,0 76.563,-34.278 76.563,-76.563 c 0,-22.102 -9.552,-43.127 -26.200,-57.666 l 5.980,-12.825 z m -160.383,56.313 c -35.941,0 -65.078,-29.137 -65.078,-65.079 c 0,-35.941 29.137,-65.078 65.078,-65.078 c 11.522,0 22.838,3.059 32.790,8.865 l -16.618,35.638 c -0.997,2.136 -2.626,3.914 -4.667,5.092 l -15.333,8.853 c -2.369,1.368 -3.828,3.895 -3.828,6.631 c 0,4.228 3.428,7.656 7.656,7.656 c 1.344,0 2.665,-0.354 3.829,-1.026 l 15.333,-8.853 c 4.762,-2.749 8.563,-6.897 10.887,-11.881 l 15.224,-32.647 c 12.659,12.259 19.806,29.128 19.806,46.750 c 0,35.942 -29.137,65.079 -65.079,65.079 z m 283.282,0 c -31.879,0 -59.065,-23.093 -64.221,-54.551 l 66.117,0 c 5.814,0 10.527,-4.713 10.527,-10.528 c 0,-2.160 -0.664,-4.268 -1.903,-6.038 l -37.302,-53.274 c 8.417,-3.800 17.547,-5.766 26.782,-5.766 c 35.941,0 65.078,29.137 65.078,65.078 c 0,35.942 -29.137,65.079 -65.078,65.079 z m -64.733,-71.778 c 1.759,-16.995 10.131,-32.616 23.308,-43.492 l 30.454,43.492 z m -37.105,0 l 34.735,-81.830 l 19.824,28.309 c -16.645,13.067 -27.139,32.441 -28.990,53.521 z m -17.302,-3.327 l -98.646,-75.148 l 6.828,-13.400 l 129.405,0 z"/>
</svg>