<?xml version="1.0" encoding="UTF-8" standalone="no"?>
<svg xmlns="http://www.w3.org/2000/svg" width="700" height="350" version="1.1">
  <title>8.9.2 Стоянка только для владельцев парковочных разрешений</title>
  <rect style="fill:#000000;" x="0" y="0" width="700" height="350" rx="45" ry="45"/>
  <rect style="fill:#ffffff;" x="10" y="10" width="680" height="330" rx="35" ry="35"/>
  <path style="fill:#000000;" transform="scale(1.09375)" d="m 40 140 h 7.50 v -28.12 h 13.12 v 28.12 h 7.50 v -35 h -28.12 z"/>
  <path style="fill:#000000;" transform="scale(1.09375)" d="m 94.75 103.75 c -9.37 0 -16.25 7.50 -16.25 18.75 c 0 11.25 6.87 18.75 16.25 18.75 c 9.37 0 16.25 -7.50 16.25 -18.75 c 0 -11.25 -6.87 -18.75 -16.25 -18.75 z m 0 6.25 c 5 0 8.75 5 8.75 12.50 c 0 7.50 -3.75 12.50 -8.75 12.50 c -5 0 -8.75 -5 -8.75 -12.50 c 0 -7.50 3.75 -12.50 8.75 -12.50 z"/>
  <path style="fill:#000000;" transform="scale(1.09375)" d="m 131.12 140 h 7.50 v -28.12 h 13.12 v 28.12 h 7.50 v -35 h -28.12 z"/>
  <path style="fill:#000000;" transform="scale(1.09375)" d="m 186.32 103.75 c -6.25 0 -11.25 2.50 -14.37 4.37 l 3.75 6.07 c 1.87 -1.70 5.62 -4.20 9.37 -4.20 c 4.37 0 7.50 3.12 7.50 5.62 v 1.87 c -5 1.25 -21.25 0.71 -21.25 12.50 v 0 c 0 7.50 6.25 11.25 11.25 11.25 c 5 0 8.75 -3.12 10 -5.62 c 0.62 5 3.12 5.62 7.50 5.62 l 3.12 -6.25 c -1.25 0 -3.12 0 -3.12 -3.12 v -15.62 c 0 -6.25 -5.62 -12.50 -13.75 -12.50 z m 6.25 19.37 v 6.25 c 0 0.62 -4.37 5.62 -8.12 5.62 c -1.25 0 -5 -1.25 -5 -5.62 c 0 -5.62 10 -5 13.12 -6.25 z"/>
  <path style="fill:#000000;" transform="scale(1.09375)" d="m 229.02 103.75 c -6.25 0 -8.75 5 -8.75 5 c -0.54 -0.98 -0.98 -2.23 -1.25 -3.75 h -6.25 v 50 h 7.50 v -18.12 c 0 0.62 3.75 4.37 8.75 4.37 c 3.75 0 15.62 -3.12 15.62 -18.75 c 0 -15 -9.37 -18.75 -15.62 -18.75 z m 0 6.87 c 4.37 0 8.12 4.37 8.12 11.87 c 0 7.50 -3.75 12.50 -8.12 12.50 c -3.21 0 -6.87 -1.87 -8.75 -5 v -13.12 c 1.87 -3.75 5.18 -6.25 8.75 -6.25 z"/>
  <path style="fill:#000000;" transform="scale(1.09375)" d="m 255.47 140 h 7.50 v -16.25 c 0.62 -0.09 1.34 -0.18 1.87 -0.18 c 7.23 0 9.11 9.29 13.75 16.43 h 9.37 c -6.61 -6.16 -7.77 -18.21 -16.25 -20 c 4.64 -1.07 6.61 -8.93 12.50 -9.37 l -1.87 -6.25 c -7.86 0.62 -12.86 13.21 -18.48 13.21 c -0.27 0 -0.62 0 -0.89 -0.09 v -12.50 h -7.50 z"/>
  <path style="fill:#000000;" transform="scale(1.09375)" d="m 312.55 103.75 c -9.37 0 -16.25 7.50 -16.25 18.75 c 0 11.25 6.87 18.75 16.25 18.75 c 9.37 0 16.25 -7.50 16.25 -18.75 c 0 -11.25 -6.87 -18.75 -16.25 -18.75 z m 0 6.25 c 5 0 8.75 5 8.75 12.50 c 0 7.50 -3.75 12.50 -8.75 12.50 c -5 0 -8.75 -5 -8.75 -12.50 c 0 -7.50 3.75 -12.50 8.75 -12.50 z"/>
  <path style="fill:#000000;" transform="scale(1.09375)" d="m 340.25 140 h 16.87 c 4.37 0 12.05 -1.25 12.05 -10 c 0 -3.12 -2.05 -6.43 -6.43 -7.68 c 4.37 -1.25 5.62 -4.20 5.62 -7.32 c 0 -5.62 -4.37 -10 -10.62 -10 h -17.50 z m 7.50 -20.62 v -7.50 h 9.37 c 2.50 0 3.75 1.87 3.75 3.75 c 0 1.87 -1.25 3.75 -3.75 3.75 z m 0 13.75 v -8.12 h 9.37 c 2.50 0 4.37 1.87 4.37 4.37 c 0 2.50 -1.87 3.75 -4.37 3.75 z"/>
  <path style="fill:#000000;" transform="scale(1.09375)" d="m 395.63 103.75 c -9.37 0 -16.25 7.50 -16.25 18.75 c 0 11.25 6.87 18.75 16.25 18.75 c 9.37 0 16.25 -7.50 16.25 -18.75 c 0 -11.25 -6.87 -18.75 -16.25 -18.75 z m 0 6.25 c 5 0 8.75 5 8.75 12.50 c 0 7.50 -3.75 12.50 -8.75 12.50 c -5 0 -8.75 -5 -8.75 -12.50 c 0 -7.50 3.75 -12.50 8.75 -12.50 z"/>
  <path style="fill:#000000;" transform="scale(1.09375)" d="m 422.70 120 c 0 6.87 5 9.37 10.62 9.37 c 3.12 0 6.25 -0.62 9.37 -2.50 v 13.12 h 7.50 v -35 h -7.50 v 15.62 c -1.25 0.62 -5 2.50 -8.75 2.50 c -1.61 0 -3.75 -1.25 -3.75 -3.12 v -15 h -7.50 z"/>
  <path style="fill:#000000;" transform="scale(1.09375)" d="m 464.15 140 h 7.50 v -15 h 13.12 v 15 h 7.50 v -35 h -7.50 v 13.12 h -13.12 v -13.12 h -7.50 z"/>
  <path style="fill:#000000;" transform="scale(1.09375)" d="m 540.42 140 h 7.50 v -35 h -7.50 z m -33.57 0 h 16.25 c 8.75 0 12.23 -5.62 12.23 -11.25 c 0 -5.62 -3.48 -11.25 -12.23 -11.25 h -8.75 v -12.50 h -7.50 z m 7.50 -6.87 v -8.75 h 9.37 c 2.50 0 4.37 2.32 4.37 4.37 c 0 2.05 -1.87 4.37 -4.37 4.37 z"/>
  <path style="fill:#000000;" transform="scale(1.09375)" d="m 561.25 140 h 7.50 l 1.87 -24.37 l 10 20 l 10 -20 l 1.87 24.37 h 7.50 l -3.12 -35 h -7.50 l -8.75 17.50 l -8.75 -17.50 h -7.50 z"/>
  <path style="fill:#000000;" transform="scale(1.09375)" d="m 105.75 183.75 c -6.25 0 -8.75 5 -8.75 5 c -0.54 -0.98 -0.98 -2.23 -1.25 -3.75 h -6.25 v 50 h 7.50 v -18.12 c 0 0.62 3.75 4.37 8.75 4.37 c 3.75 0 15.62 -3.12 15.62 -18.75 c 0 -15 -9.37 -18.75 -15.62 -18.75 z m 0 6.87 c 4.37 0 8.12 4.37 8.12 11.87 c 0 7.50 -3.75 12.50 -8.12 12.50 c -3.21 0 -6.87 -1.87 -8.75 -5 v -13.12 c 1.87 -3.75 5.18 -6.25 8.75 -6.25 z"/>
  <path style="fill:#000000;" transform="scale(1.09375)" d="m 144.92 183.75 c -6.25 0 -11.25 2.50 -14.37 4.37 l 3.75 6.07 c 1.87 -1.70 5.62 -4.20 9.37 -4.20 c 4.37 0 7.50 3.12 7.50 5.62 v 1.87 c -5 1.25 -21.25 0.71 -21.25 12.50 v 0 c 0 7.50 6.25 11.25 11.25 11.25 c 5 0 8.75 -3.12 10 -5.62 c 0.62 5 3.12 5.62 7.50 5.62 l 3.12 -6.25 c -1.25 0 -3.12 0 -3.12 -3.12 v -15.62 c 0 -6.25 -5.62 -12.50 -13.75 -12.50 z m 6.25 19.37 v 6.25 c 0 0.62 -4.37 5.62 -8.12 5.62 c -1.25 0 -5 -1.25 -5 -5.62 c 0 -5.62 10 -5 13.12 -6.25 z"/>
  <path style="fill:#000000;" transform="scale(1.09375)" d="m 183.47 184.38 c -5.09 0 -9.37 1.25 -12.50 3.12 l 3.39 6.61 c 2.23 -1.61 4.73 -3.48 9.11 -3.48 c 2.50 0 6.87 1.25 6.87 5 c 0 1.87 -1.25 3.75 -4.37 3.75 h -4.37 v 5.62 h 5 c 3.12 0 4.55 2.50 4.55 5 c 0 3.12 -3.30 5 -6.43 5 c -3.04 0 -8.12 -1.25 -11.25 -4.64 l -4.64 5.09 c 3.75 3.75 10.27 5.80 15.89 5.80 c 7.86 0 14.37 -3.12 14.37 -10.62 c 0 -5.62 -4.20 -7.86 -7.32 -8.48 c 2.95 -0.89 6.07 -4.02 6.07 -8.39 c 0 -5.98 -5.62 -9.37 -14.37 -9.37 z"/>
  <path style="fill:#000000;" transform="scale(1.09375)" d="m 226.04 183.75 c -6.25 0 -8.75 5 -8.75 5 c -0.54 -0.98 -0.98 -2.23 -1.25 -3.75 h -6.25 v 50 h 7.50 v -18.12 c 0 0.62 3.75 4.37 8.75 4.37 c 3.75 0 15.62 -3.12 15.62 -18.75 c 0 -15 -9.37 -18.75 -15.62 -18.75 z m 0 6.87 c 4.37 0 8.12 4.37 8.12 11.87 c 0 7.50 -3.75 12.50 -8.12 12.50 c -3.21 0 -6.87 -1.87 -8.75 -5 v -13.12 c 1.87 -3.75 5.18 -6.25 8.75 -6.25 z"/>
  <path style="fill:#000000;" transform="scale(1.09375)" d="m 266.47 190 c 3.75 0 8.12 3.84 8.12 7.50 c 0 0.62 -0.18 1.25 -0.62 1.25 h -15.62 c 0 -5 4.37 -8.75 8.12 -8.75 z m 14.37 15 c 1.07 0 1.87 -1.87 1.87 -3.75 c 0 -9.37 -7.50 -17.50 -16.25 -17.50 c -4.73 0 -9.82 2.50 -12.86 6.25 c -2.59 3.12 -3.57 7.23 -3.57 12.86 c 0 11.07 7.77 18.39 17.05 18.39 c 4.37 0 10.62 -1.87 14.37 -8.12 l -6.25 -3.48 c -2.50 3.12 -4.37 4.73 -7.50 4.73 c -3.12 0 -9.37 -1.87 -9.37 -9.37 z"/>
  <path style="fill:#000000;" transform="scale(1.09375)" d="m 293.77 220 h 43.75 v -35 h -7.50 v 28.12 h -10.62 v -28.12 h -7.50 v 28.12 h -10.62 v -28.12 h -7.50 z"/>
  <path style="fill:#000000;" transform="scale(1.09375)" d="m 364.82 190 c 3.75 0 8.12 3.84 8.12 7.50 c 0 0.62 -0.18 1.25 -0.62 1.25 h -15.62 c 0 -5 4.37 -8.75 8.12 -8.75 z m 14.37 15 c 1.07 0 1.87 -1.87 1.87 -3.75 c 0 -9.37 -7.50 -17.50 -16.25 -17.50 c -4.73 0 -9.82 2.50 -12.86 6.25 c -2.59 3.12 -3.57 7.23 -3.57 12.86 c 0 11.07 7.77 18.39 17.05 18.39 c 4.37 0 10.62 -1.87 14.37 -8.12 l -6.25 -3.48 c -2.50 3.12 -4.37 4.73 -7.50 4.73 c -3.12 0 -9.37 -1.87 -9.37 -9.37 z"/>
  <path style="fill:#000000;" transform="scale(1.09375)" d="m 392.74 220 h 7.50 v -15 h 13.12 v 15 h 7.50 v -35 h -7.50 v 13.12 h -13.12 v -13.12 h -7.50 z"/>
  <path style="fill:#000000;" transform="scale(1.09375)" d="m 433.79 220 h 8.12 l 14.37 -23.75 v 23.75 h 7.50 v -35 h -8.12 l -14.37 23.75 v -23.75 h -7.50 z"/>
  <path style="fill:#000000;" transform="scale(1.09375)" d="m 472.34 220 h 8.75 c 1.79 -2.86 3.75 -14.20 12.50 -14.20 c 1.25 0 1.70 0 2.50 0.27 v 13.93 h 7.50 v -35 h -15 c -8.75 0 -11.87 5.62 -11.87 10.62 c 0 4.11 3.75 7.50 7.50 8.48 c -6.25 0.89 -8.12 11.52 -11.87 15.89 z m 12.50 -24.20 c 0 -2.05 1.87 -3.93 4.37 -3.93 h 6.87 v 8.12 h -6.87 c -2.41 0 -4.37 -2.23 -4.37 -4.20 z"/>
  <path style="fill:#000000;" transform="scale(1.09375)" d="m 515.89 220 h 7.50 l 1.87 -24.37 l 10 20 l 10 -20 l 1.87 24.37 h 7.50 l -3.12 -35 h -7.50 l -8.75 17.50 l -8.75 -17.50 h -7.50 z"/>
</svg>
