<?xml version="1.0" encoding="UTF-8" standalone="no"?>
<!-- Created with Inkscape (http://www.inkscape.org/) -->

<svg
   xmlns:dc="http://purl.org/dc/elements/1.1/"
   xmlns:cc="http://creativecommons.org/ns#"
   xmlns:rdf="http://www.w3.org/1999/02/22-rdf-syntax-ns#"
   xmlns:svg="http://www.w3.org/2000/svg"
   xmlns="http://www.w3.org/2000/svg"
   xmlns:sodipodi="http://sodipodi.sourceforge.net/DTD/sodipodi-0.dtd"
   xmlns:inkscape="http://www.inkscape.org/namespaces/inkscape"
   width="600"
   height="300"
   id="svg2"
   version="1.1"
   inkscape:version="0.48.4 r9939"
   sodipodi:docname="8.4.4.svg">
  <title
     id="title3006">8.4.4 Вид транспортного средства</title>
  <defs
     id="defs4" />
  <sodipodi:namedview
     id="base"
     pagecolor="#ffffff"
     bordercolor="#666666"
     borderopacity="1.0"
     inkscape:pageopacity="0.0"
     inkscape:pageshadow="2"
     inkscape:zoom="1"
     inkscape:cx="324.69406"
     inkscape:cy="129.30468"
     inkscape:document-units="px"
     inkscape:current-layer="layer1"
     showgrid="false"
     inkscape:window-width="1920"
     inkscape:window-height="1024"
     inkscape:window-x="-4"
     inkscape:window-y="-4"
     inkscape:window-maximized="1"
     inkscape:snap-bbox="true"
     inkscape:bbox-paths="true"
     inkscape:bbox-nodes="true"
     inkscape:snap-bbox-edge-midpoints="true"
     inkscape:snap-bbox-midpoints="true"
     inkscape:object-paths="true"
     inkscape:snap-intersection-paths="true"
     inkscape:object-nodes="true"
     inkscape:snap-smooth-nodes="true"
     inkscape:snap-midpoints="true"
     inkscape:snap-object-midpoints="true" />
  <metadata
     id="metadata7">
    <rdf:RDF>
      <cc:Work
         rdf:about="">
        <dc:format>image/svg+xml</dc:format>
        <dc:type
           rdf:resource="http://purl.org/dc/dcmitype/StillImage" />
        <dc:title>8.4.4 Вид транспортного средства</dc:title>
        <cc:license
           rdf:resource="http://creativecommons.org/licenses/by-sa/3.0/" />
        <dc:description>ГОСТ Р 52290-2004
Размеры и пропорции по типоразмеру I</dc:description>
      </cc:Work>
      <cc:License
         rdf:about="http://creativecommons.org/licenses/by-sa/3.0/">
        <cc:permits
           rdf:resource="http://creativecommons.org/ns#Reproduction" />
        <cc:permits
           rdf:resource="http://creativecommons.org/ns#Distribution" />
        <cc:requires
           rdf:resource="http://creativecommons.org/ns#Notice" />
        <cc:requires
           rdf:resource="http://creativecommons.org/ns#Attribution" />
        <cc:permits
           rdf:resource="http://creativecommons.org/ns#DerivativeWorks" />
        <cc:requires
           rdf:resource="http://creativecommons.org/ns#ShareAlike" />
      </cc:License>
    </rdf:RDF>
  </metadata>
  <g
     inkscape:label="Layer 1"
     inkscape:groupmode="layer"
     id="layer1"
     transform="translate(0,-752.36218)">
    <rect
       y="752.36218"
       x="0"
       height="300"
       width="600"
       id="rect5622"
       style="opacity:1;color:#000000;fill:#000000;fill-opacity:1;fill-rule:nonzero;stroke:none;stroke-width:3.54299997999999980;marker:none;visibility:visible;display:inline;overflow:visible;enable-background:accumulate"
       rx="45"
       ry="45" />
    <rect
       y="762.36212"
       x="10"
       height="280"
       width="580"
       id="rect9537"
       style="color:#000000;fill:#ffffff;fill-opacity:1;fill-rule:nonzero;stroke:none;stroke-width:3.54299997999999980;marker:none;visibility:visible;display:inline;overflow:visible;enable-background:accumulate;opacity:1"
       rx="35"
       ry="35" />
    <path
       style="opacity:1;color:#000000;fill:#000000;fill-opacity:1;fill-rule:nonzero;stroke:none;stroke-width:1.27611935000000010;marker:none;visibility:visible;display:inline;overflow:visible;enable-background:accumulate"
       d="M 159.84375 56.25 C 153.69309 56.25 148.01288 59.51715 144.9375 64.84375 L 114.8125 117.03125 C 113.30144 119.64845 112.5 122.63435 112.5 125.65625 L 112.5 154.71875 L 112.5 188.8125 C 112.5 198.3501 120.18119 206.03125 129.71875 206.03125 L 138.3125 206.03125 C 138.3125 182.26105 157.60488 163 181.375 163 C 205.14531 163 224.40625 182.26105 224.40625 206.03125 L 362.125 206.03125 C 362.125 182.26105 381.38613 163 405.15625 163 C 428.92657 163 448.21875 182.26105 448.21875 206.03125 L 474.03125 206.03125 C 483.56881 206.03125 491.25 198.3501 491.25 188.8125 L 491.25 154.71875 L 491.25 125.65625 C 491.25 123.80595 490.96009 121.97415 490.375 120.21875 L 472.96875 68.03125 C 470.62537 61.00135 464.03519 56.25 456.625 56.25 L 159.84375 56.25 z M 161.84375 68.3125 L 172.75 68.3125 L 181.375 68.3125 C 186.14388 68.3125 189.96875 72.13745 189.96875 76.90625 L 189.96875 111.34375 C 189.96875 116.11255 186.14388 119.9375 181.375 119.9375 L 172.75 119.9375 L 141.9375 119.9375 C 137.18343 119.9375 133.34375 116.09775 133.34375 111.34375 C 133.34375 109.83265 133.74447 108.33985 134.5 107.03125 L 154.375 72.59375 C 155.91268 69.93035 158.76846 68.3125 161.84375 68.3125 z M 215.78125 68.3125 L 267.4375 68.3125 C 272.20631 68.3125 276.0625 72.137443 276.0625 76.90625 L 276.0625 111.34375 C 276.0625 116.11256 272.20631 119.9375 267.4375 119.9375 L 215.78125 119.9375 C 211.01244 119.9375 207.1875 116.11256 207.1875 111.34375 L 207.1875 76.90625 C 207.1875 72.137443 211.01244 68.3125 215.78125 68.3125 z M 301.875 68.3125 L 353.53125 68.3125 C 358.30006 68.3125 362.125 72.137443 362.125 76.90625 L 362.125 111.34375 C 362.125 116.11256 358.30006 119.9375 353.53125 119.9375 L 301.875 119.9375 C 297.10619 119.9375 293.28125 116.11256 293.28125 111.34375 L 293.28125 76.90625 C 293.28125 72.137443 297.10619 68.3125 301.875 68.3125 z M 387.96875 68.3125 L 413.78125 68.3125 L 437.03125 68.3125 C 440.84988 68.3125 444.20369 70.80535 445.28125 74.46875 L 455.40625 108.90625 C 456.74772 113.46705 454.12335 118.25235 449.5625 119.59375 C 448.77369 119.82585 447.97844 119.9375 447.15625 119.9375 L 413.78125 119.9375 L 387.96875 119.9375 C 383.19997 119.9375 379.34375 116.11255 379.34375 111.34375 L 379.34375 76.90625 C 379.34375 72.13745 383.19997 68.3125 387.96875 68.3125 z "
       transform="translate(0,752.36218)"
       id="path8067" />
    <path
       inkscape:connector-curvature="0"
       style="opacity:1;color:#000000;fill:#000000;fill-opacity:1;fill-rule:nonzero;stroke:none;stroke-width:1px;marker:none;visibility:visible;display:inline;overflow:visible;enable-background:accumulate"
       d="m 181.36363,923.9587 c -19.01616,0 -34.43175,15.4157 -34.43175,34.4319 0,19.0161 15.41559,34.4318 34.43175,34.4318 19.01625,0 34.43184,-15.4157 34.43184,-34.4318 0,-19.0162 -15.41559,-34.4319 -34.43184,-34.4319 z m 0,17.216 c 9.50813,0 17.21597,7.7078 17.21597,17.2159 0,9.5081 -7.70784,17.2158 -17.21597,17.2158 -9.50803,0 -17.21587,-7.7077 -17.21587,-17.2158 0,-9.5081 7.70784,-17.2159 17.21587,-17.2159 z"
       id="path8069" />
    <path
       inkscape:connector-curvature="0"
       style="opacity:1;color:#000000;fill:#000000;fill-opacity:1;fill-rule:nonzero;stroke:none;stroke-width:1px;marker:none;visibility:visible;display:inline;overflow:visible;enable-background:accumulate"
       d="m 405.17047,923.9587 c -19.01615,0 -34.43184,15.4157 -34.43184,34.4319 0,19.0161 15.41569,34.4318 34.43184,34.4318 19.01616,0 34.43185,-15.4157 34.43185,-34.4318 0,-19.0162 -15.41569,-34.4319 -34.43185,-34.4319 z m 0,17.216 c 9.50813,0 17.21597,7.7078 17.21597,17.2159 0,9.5081 -7.70784,17.2158 -17.21597,17.2158 -9.50803,0 -17.21587,-7.7077 -17.21587,-17.2158 0,-9.5081 7.70784,-17.2159 17.21587,-17.2159 z"
       id="path8081" />
  </g>
</svg>
