<?xml version="1.0" encoding="UTF-8" standalone="no"?>
<!-- Created with Inkscape (http://www.inkscape.org/) -->

<svg
   xmlns:dc="http://purl.org/dc/elements/1.1/"
   xmlns:cc="http://creativecommons.org/ns#"
   xmlns:rdf="http://www.w3.org/1999/02/22-rdf-syntax-ns#"
   xmlns:svg="http://www.w3.org/2000/svg"
   xmlns="http://www.w3.org/2000/svg"
   xmlns:sodipodi="http://sodipodi.sourceforge.net/DTD/sodipodi-0.dtd"
   xmlns:inkscape="http://www.inkscape.org/namespaces/inkscape"
   width="600"
   height="300"
   id="svg2"
   version="1.1"
   inkscape:version="0.48.4 r9939"
   sodipodi:docname="8.4.1.svg">
  <title
     id="title3006">8.4.6 Вид транспортного средства</title>
  <defs
     id="defs4" />
  <sodipodi:namedview
     id="base"
     pagecolor="#ffffff"
     bordercolor="#666666"
     borderopacity="1.0"
     inkscape:pageopacity="0.0"
     inkscape:pageshadow="2"
     inkscape:zoom="1.4142136"
     inkscape:cx="314.81198"
     inkscape:cy="175.41324"
     inkscape:document-units="px"
     inkscape:current-layer="layer1"
     showgrid="false"
     inkscape:window-width="1920"
     inkscape:window-height="1024"
     inkscape:window-x="-4"
     inkscape:window-y="-4"
     inkscape:window-maximized="1"
     inkscape:snap-bbox="true"
     inkscape:bbox-paths="true"
     inkscape:bbox-nodes="true"
     inkscape:snap-bbox-edge-midpoints="true"
     inkscape:snap-bbox-midpoints="true"
     inkscape:object-paths="true"
     inkscape:snap-intersection-paths="true"
     inkscape:object-nodes="true"
     inkscape:snap-smooth-nodes="true"
     inkscape:snap-midpoints="true"
     inkscape:snap-object-midpoints="true" />
  <metadata
     id="metadata7">
    <rdf:RDF>
      <cc:Work
         rdf:about="">
        <dc:format>image/svg+xml</dc:format>
        <dc:type
           rdf:resource="http://purl.org/dc/dcmitype/StillImage" />
        <dc:title>8.4.6 Вид транспортного средства</dc:title>
        <cc:license
           rdf:resource="http://creativecommons.org/licenses/by-sa/3.0/" />
        <dc:description>ГОСТ Р 52290-2004
Размеры и пропорции по типоразмеру I</dc:description>
      </cc:Work>
      <cc:License
         rdf:about="http://creativecommons.org/licenses/by-sa/3.0/">
        <cc:permits
           rdf:resource="http://creativecommons.org/ns#Reproduction" />
        <cc:permits
           rdf:resource="http://creativecommons.org/ns#Distribution" />
        <cc:requires
           rdf:resource="http://creativecommons.org/ns#Notice" />
        <cc:requires
           rdf:resource="http://creativecommons.org/ns#Attribution" />
        <cc:permits
           rdf:resource="http://creativecommons.org/ns#DerivativeWorks" />
        <cc:requires
           rdf:resource="http://creativecommons.org/ns#ShareAlike" />
      </cc:License>
    </rdf:RDF>
  </metadata>
  <g
     inkscape:label="Layer 1"
     inkscape:groupmode="layer"
     id="layer1"
     transform="translate(0,-752.36218)">
    <rect
       y="752.36218"
       x="0"
       height="300"
       width="600"
       id="rect5622"
       style="opacity:1;color:#000000;fill:#000000;fill-opacity:1;fill-rule:nonzero;stroke:none;stroke-width:3.54299997999999980;marker:none;visibility:visible;display:inline;overflow:visible;enable-background:accumulate"
       rx="45"
       ry="45" />
    <rect
       y="762.36212"
       x="10"
       height="280"
       width="580"
       id="rect9537"
       style="color:#000000;fill:#ffffff;fill-opacity:1;fill-rule:nonzero;stroke:none;stroke-width:3.54299997999999980;marker:none;visibility:visible;display:inline;overflow:visible;enable-background:accumulate;opacity:1"
       rx="35"
       ry="35" />
    <path
       id="path7595"
       d="m 202.54567,805.62704 c -1.98883,0 -3.6011,1.61226 -3.6011,3.6011 l 0,23.40705 c 0,1.98879 1.61227,3.60106 3.6011,3.60106 l 7.08961,0 -19.55274,48.92408 c -5.06948,-1.35943 -10.39694,-2.11001 -15.8954,-2.11001 -33.80998,0 -61.2184,27.40844 -61.2184,61.21834 0,33.81 27.40842,61.21854 61.2184,61.21854 33.80998,0 61.21842,-27.40854 61.21842,-61.21854 0,-23.20801 -12.9252,-43.38176 -31.95961,-53.76297 5.93547,-14.84533 11.87232,-29.69017 17.80848,-44.53524 l 30.13094,108.59511 c 2.19348,7.7517 9.2742,13.1103 17.33021,13.1103 l 85.15997,0 c -2.39772,-7.3717 -3.68547,-15.2357 -3.68547,-23.4072 0,-22.5772 9.91291,-42.86057 25.60144,-56.71697 0.77511,-0.68361 1.20973,-1.66731 1.20973,-2.7008 0,-1.98884 -1.61225,-3.6011 -3.6011,-3.6011 l -64.62253,0 -15.52968,31.03123 c -1.52501,3.04996 -4.63635,4.9796 -8.04617,4.9796 l -23.29452,0 c -4.04532,0 -7.61212,-2.68487 -8.69323,-6.58323 l -9.98736,-36.01083 c -1.32875,-4.79121 1.48254,-9.75585 6.27376,-11.08459 0.78347,-0.21725 1.60641,-0.33758 2.41948,-0.33758 l 39.75258,0 c 7.45809,0 13.50405,-6.04598 13.50405,-13.50409 0,-7.45805 -6.04596,-13.50405 -13.50405,-13.50405 l -69.32086,0 12.60378,-18.0054 14.40435,0 c 3.48045,0 6.30189,-2.82145 6.30189,-6.3019 0,-3.48042 -2.82144,-6.30191 -6.30189,-6.30191 l -46.81408,0 z m -28.35853,97.22925 c 2.89941,0 5.73689,0.30515 8.46819,0.87213 l -9.03087,22.56304 c -9.68346,0.2976 -17.44274,8.2216 -17.44274,17.9772 0,9.9442 8.06129,18.0055 18.00542,18.0055 9.94412,0 18.0054,-8.0613 18.0054,-18.0055 0,-4.9292 -1.96745,-9.4085 -5.17655,-12.66 3.0018,-7.5112 6.00016,-15.02392 9.00271,-22.53489 11.7505,7.30763 19.58089,20.33919 19.58089,35.19489 0,22.8716 -18.54098,41.4125 -41.41245,41.4125 -22.87148,0 -41.41245,-18.5409 -41.41245,-41.4125 0,-22.8714 18.54097,-41.41237 41.41245,-41.41237 z"
       style="opacity:1;color:#000000;fill:#000000;fill-opacity:1;stroke:none;stroke-width:1;marker:none;visibility:visible;display:inline;overflow:visible;enable-background:accumulate"
       inkscape:connector-curvature="0" />
    <path
       sodipodi:nodetypes="ssssccsssccscccsssscccsscccc"
       inkscape:connector-curvature="0"
       d="m 425.8128,902.85629 c 22.87148,0 41.41245,18.54097 41.41245,41.41237 0,22.8716 -18.54097,41.4125 -41.41245,41.4125 -22.87147,0 -41.41245,-18.5409 -41.41245,-41.4125 0,-14.8557 7.83039,-27.88725 19.58089,-35.19489 l 9.00271,22.53489 c -3.2091,3.2515 -5.17655,7.7308 -5.17655,12.66 0,9.9442 8.0613,18.0055 18.0054,18.0055 9.94413,0 18.00542,-8.0613 18.00542,-18.0055 0,-9.7556 -7.75928,-17.6796 -17.44274,-17.9772 l -9.03087,-22.56304 c 2.73131,-0.56698 5.56878,-0.87213 8.46819,-0.87213 z m -108.03249,-32.40977 70.73778,0 8.0359,20.05917 c -19.03441,10.38121 -31.95961,30.55496 -31.95961,53.76297 0,33.81 27.40844,61.21854 61.21842,61.21854 33.80998,0 61.2184,-27.40854 61.2184,-61.21854 0,-33.8099 -27.40842,-61.21834 -61.2184,-61.21834 -5.49846,0 -10.82591,0.75058 -15.8954,2.11001 l -5.88544,-14.71381 29.88327,0 0,-9.0027 c 0,-8.94969 -7.25516,-16.20488 -16.20487,-16.20488 l -56.10052,0 -25.66179,0 c -3.40996,0 -6.52729,1.92661 -8.05225,4.97658 z"
       style="opacity:1;color:#000000;fill:#000000;fill-opacity:1;stroke:none;stroke-width:1px;marker:none;visibility:visible;display:inline;overflow:visible;enable-background:accumulate"
       id="path7597" />
  </g>
</svg>
