<svg xmlns="http://www.w3.org/2000/svg" height="350" width="700">
    <title>
        8.4.3.1 Вид транспортного средства
    </title>
    <rect ry="45" rx="45" height="350" width="700"/>
    <rect ry="35" rx="35" height="330" width="680" y="10" x="10" fill="#fff"/>
    <path d="M303.611 99.458c-3.613 0-7.47 2.757-8.649 6.173l-4.368 12.667-9.055 26.235c-.01.024-.008.05-.016.073l-2.11 6.1a9.296 9.296 0 0 0-9.317 9.317v37.271a9.298 9.298 0 0 0 9.317 9.32H419.18a9.299 9.299 0 0 0 9.319-9.32v-37.271a9.298 9.298 0 0 0-9.319-9.317l-2.11-6.1c-.008-.024-.007-.049-.015-.073L408 118.298l-4.37-12.667c-1.177-3.416-5.033-6.173-8.646-6.173H303.61zm2.838 9.317h85.695c1.807 0 3.735 1.378 4.324 3.086l13.395 38.845H288.732l13.393-38.845c.589-1.708 2.518-3.086 4.324-3.086zm-27.038 102.496v18.636c0 7.719 6.258 13.976 13.977 13.976s13.976-6.257 13.976-13.976V211.27h-27.953zm111.813 0v18.636c0 7.719 6.257 13.976 13.976 13.976 7.72 0 13.979-6.257 13.979-13.976V211.27h-27.955z" style="marker:none" color="#000" overflow="visible"/>
    <path d="M194.969 35.537c-1.662 0-3 1.338-3 3v34.32c-5.328.182-9.563 4.41-9.563 9.649v32.297c0 5.354 4.423 9.666 9.916 9.666h18.662v51.2c0 76.53 62.04 138.57 138.569 138.571 76.53 0 138.57-62.04 138.57-138.57S426.083 37.1 349.553 37.102v25.03c62.704.001 113.537 50.833 113.537 113.538s-50.832 113.539-113.537 113.539c-62.706 0-113.538-50.834-113.537-113.54v-51.2h19.533c5.493 0 9.916-4.312 9.916-9.666V82.506c0-5.238-4.236-9.467-9.563-9.649v-34.32c0-1.662-1.338-3-3-3h-2.27c-1.661 0-3 1.338-3 3V72.84h-47.394V38.537c0-1.662-1.338-3-3-3h-2.27z"/>
</svg>
