<?xml version="1.0" encoding="UTF-8"?>
<svg xmlns="http://www.w3.org/2000/svg" width="834.116" height="734.423" version="1.1">
<title>1.24 Пересечение с велосипедной дорожкой или велопешеходной дорожкой</title>
<path style="fill:#ffffff;" d="m 0,689.423 c 0,24.853 20.147,45 45,45 l 744.116,0 c 24.853,0 45,-20.147 45,-45 c 0,-7.899 -2.079,-15.659 -6.029,-22.5 l -372.058,-644.423 c -8.038,-13.923 -22.894,-22.5 -38.971,-22.5 c -16.077,0 -30.933,8.577 -38.971,22.5 l -372.058,644.423 c -3.950,6.841 -6.029,14.601 -6.029,22.5 z"/>
<path style="fill:none;stroke:#000000;stroke-width:2px;" d="m 1,689.423 c 0,24.301 19.699,44 44,44 l 744.116,0 c 24.301,0 44,-19.699 44,-44 c 0,-7.724 -2.033,-15.311 -5.895,-22.0 l -372.058,-644.423 c -7.860,-13.614 -22.385,-22.0 -38.105,-22.0 c -15.720,0 -30.245,8.386 -38.105,22.0 l -372.058,644.423 c -3.862,6.689 -5.895,14.276 -5.895,22.0 z"/>
<path style="fill:#ff0000;" d="m 10,689.423 c 0,19.330 15.670,35 35,35 l 744.116,0 c 19.330,0 35,-15.670 35,-35 c 0,-6.144 -1.617,-12.179 -4.689,-17.5 l -372.058,-644.423 c -6.252,-10.829 -17.807,-17.5 -30.311,-17.5 c -12.504,0 -24.059,6.671 -30.311,17.5 l -372.058,644.423 c -3.072,5.321 -4.689,11.357 -4.689,17.5 z m 83.634,-33.852 c 0,-1.755 0.462,-3.480 1.340,-5.000 l 313.424,-542.866 c 1.786,-3.094 5.087,-5 8.660,-5.000 c 3.573,0 6.873,1.906 8.660,5.000 l 313.424,542.866 c 0.878,1.520 1.340,3.245 1.340,5.000 c 0,5.523 -4.477,10 -10,10 l -626.848,0 c -5.523,0 -10,-4.477 -10,-10 z"/>
<path style="fill:#000000;" d="m 437.412,568.994 c 1.629,1.241 3.620,1.913 5.668,1.913 l 45.442,0 c 5.707,41.108 40.854,71.713 82.356,71.713 c 45.920,0 83.146,-37.226 83.146,-83.146 c 0,-45.920 -37.226,-83.146 -83.146,-83.146 c -12.947,0 -25.715,3.024 -37.288,8.830 l -30.734,-43.891 l 8.058,-18.984 l 4.880,0 c 6.888,0 12.472,-5.584 12.472,-12.472 c 0,-6.888 -5.584,-12.472 -12.472,-12.472 l -57.163,0 c -6.888,0 -12.472,5.584 -12.472,12.472 c 0,6.888 5.584,12.472 12.472,12.472 l 36.476,0 l -4.853,11.433 l -143.330,0 c 0.657,-2.408 0.990,-4.892 0.990,-7.387 c 0,-10.084 -5.411,-19.393 -14.173,-24.384 l -5.482,-3.122 c -3.895,-2.219 -6.299,-6.356 -6.299,-10.838 c 0,-6.888 5.584,-12.471 12.472,-12.471 l 41.053,0 c 4.592,0 8.315,-3.723 8.315,-8.315 c 0,-4.592 -3.723,-8.315 -8.315,-8.315 l -41.053,0 c -16.073,0 -29.101,13.029 -29.101,29.101 c 0,10.458 5.611,20.111 14.698,25.287 l 5.482,3.123 c 3.569,2.033 5.774,5.825 5.774,9.934 c 0,1.669 -0.366,3.318 -1.071,4.831 l -26.077,55.923 c -12.479,-7.050 -26.567,-10.755 -40.899,-10.755 c -45.920,0 -83.146,37.226 -83.146,83.146 c 0,45.920 37.226,83.146 83.146,83.146 c 45.920,0 83.146,-37.226 83.146,-83.146 c 0,-24.003 -10.374,-46.836 -28.453,-62.625 l 6.495,-13.928 z m -174.174,61.154 c -39.032,0 -70.674,-31.642 -70.674,-70.674 c 0,-39.032 31.642,-70.674 70.674,-70.674 c 12.512,0 24.801,3.322 35.609,9.626 l -18.047,38.704 c -1.082,2.319 -2.851,4.250 -5.068,5.530 l -16.651,9.613 c -2.573,1.486 -4.158,4.231 -4.158,7.201 c 0,4.592 3.723,8.315 8.315,8.315 c 1.459,0 2.893,-0.385 4.157,-1.114 l 16.652,-9.614 c 5.172,-2.986 9.300,-7.491 11.824,-12.904 l 16.532,-35.453 c 13.748,13.313 21.509,31.633 21.509,50.770 c 0,39.032 -31.642,70.674 -70.674,70.674 z m 307.640,0 c -34.619,0 -64.143,-25.078 -69.743,-59.241 l 71.803,0 c 6.314,0 11.432,-5.119 11.432,-11.433 c 0,-2.346 -0.722,-4.635 -2.067,-6.557 l -40.509,-57.855 c 9.141,-4.127 19.055,-6.262 29.084,-6.262 c 39.032,0 70.674,31.642 70.674,70.674 c 0,39.032 -31.642,70.674 -70.674,70.674 z m -70.298,-77.949 c 1.910,-18.456 11.001,-35.421 25.312,-47.232 l 33.072,47.232 z m -40.296,0 l 37.722,-88.867 l 21.528,30.743 c -18.076,14.191 -29.472,35.231 -31.483,58.124 z m -18.790,-3.613 l -107.128,-81.610 l 7.414,-14.552 l 140.533,0 z"/>
</svg>