<?xml version="1.0" encoding="UTF-8"?>
<svg xmlns="http://www.w3.org/2000/svg" width="834.116" height="734.423" version="1.1">
<title>1.13 Крутой спуск</title>
<path style="fill:#ffffff;" d="m 0,689.423 c 0,24.853 20.147,45 45,45 l 744.116,0 c 24.853,0 45,-20.147 45,-45 c 0,-7.899 -2.079,-15.659 -6.029,-22.5 l -372.058,-644.423 c -8.038,-13.923 -22.894,-22.5 -38.971,-22.5 c -16.077,0 -30.933,8.577 -38.971,22.5 l -372.058,644.423 c -3.950,6.841 -6.029,14.601 -6.029,22.5 z"/>
<path style="fill:none;stroke:#000000;stroke-width:2px;" d="m 1,689.423 c 0,24.301 19.699,44 44,44 l 744.116,0 c 24.301,0 44,-19.699 44,-44 c 0,-7.724 -2.033,-15.311 -5.895,-22.0 l -372.058,-644.423 c -7.860,-13.614 -22.385,-22.0 -38.105,-22.0 c -15.720,0 -30.245,8.386 -38.105,22.0 l -372.058,644.423 c -3.862,6.689 -5.895,14.276 -5.895,22.0 z"/>
<path style="fill:#ff0000;" d="m 10,689.423 c 0,19.330 15.670,35 35,35 l 744.116,0 c 19.330,0 35,-15.670 35,-35 c 0,-6.144 -1.617,-12.179 -4.689,-17.5 l -372.058,-644.423 c -6.252,-10.829 -17.807,-17.5 -30.311,-17.5 c -12.504,0 -24.059,6.671 -30.311,17.5 l -372.058,644.423 c -3.072,5.321 -4.689,11.357 -4.689,17.5 z m 83.634,-33.852 c 0,-1.755 0.462,-3.480 1.340,-5.000 l 313.424,-542.866 c 1.786,-3.094 5.087,-5 8.660,-5.000 c 3.573,0 6.873,1.906 8.660,5.000 l 313.424,542.866 c 0.878,1.520 1.340,3.245 1.340,5.000 c 0,5.523 -4.477,10 -10,10 l -626.848,0 c -5.523,0 -10,-4.477 -10,-10 z"/>
<path style="fill:#000000;" d="m 112.141,650.672 l 124.699,-215.986 l 485.112,215.986 z"/>
<path style="fill:#000000;" d="m 319.884,338.098 l 0.173,12.349 l 21.586,-1.917 l -39.311,88.295 l 20.173,8.981 l 50.642,-113.743 l -19.552,-8.705 z"/>
<path style="fill:#000000;" d="m 390.347,453.331 l 47.716,21.245 l -12.463,17.135 l -69.441,-30.917 l 8.429,-18.931 c 14.962,-5.486 29.913,-10.946 44.852,-16.381 c 21.127,-8.753 33.429,-17.035 36.907,-24.846 c 2.142,-4.810 2.457,-9.381 0.945,-13.711 c -1.512,-4.330 -4.647,-7.554 -9.406,-9.673 c -6.104,-2.717 -15.935,-0.959 -29.495,5.275 l -5.369,-18.846 c 14.641,-6.992 28.531,-7.564 41.669,-1.715 c 23.224,10.340 30.185,25.959 20.881,46.856 c -3.731,8.379 -10.571,15.530 -20.520,21.450 c -4.969,2.808 -14.190,6.884 -27.663,12.227 c -6.026,2.399 -15.040,6.009 -27.041,10.830 z"/>
<path style="fill:#000000;" d="m 498.785,420.451 c 0,12.675 10.276,22.951 22.951,22.951 c 12.675,0 22.951,-10.276 22.951,-22.951 c 0,-12.675 -10.276,-22.951 -22.951,-22.951 c -12.675,0 -22.951,10.276 -22.951,22.951 z m 12.623,0 c 0,-5.704 4.624,-10.328 10.328,-10.328 c 5.704,0 10.328,4.624 10.328,10.328 c 0,5.704 -4.624,10.328 -10.328,10.328 c -5.704,0 -10.328,-4.624 -10.328,-10.328 z"/>
<path style="fill:#000000;" d="m 488.550,519.740 l -14.503,-6.457 l 92.041,-95.311 l 14.503,6.457 z"/>
<path style="fill:#000000;" d="m 509.955,517.251 c 0,12.675 10.276,22.951 22.951,22.951 c 12.675,0 22.951,-10.276 22.951,-22.951 c 0,-12.675 -10.276,-22.951 -22.951,-22.951 c -12.675,0 -22.951,10.276 -22.951,22.951 z m 12.623,0 c 0,-5.704 4.624,-10.328 10.328,-10.328 c 5.704,0 10.328,4.624 10.328,10.328 c 0,5.704 -4.624,10.328 -10.328,10.328 c -5.704,0 -10.328,-4.624 -10.328,-10.328 z"/>
</svg>