<?xml version="1.0" encoding="UTF-8"?>
<svg xmlns="http://www.w3.org/2000/svg" width="834.116" height="734.423" version="1.1">
<title>1.14 Крутой подъем</title>
<path style="fill:#ffffff;" d="m 0,689.423 c 0,24.853 20.147,45 45,45 l 744.116,0 c 24.853,0 45,-20.147 45,-45 c 0,-7.899 -2.079,-15.659 -6.029,-22.5 l -372.058,-644.423 c -8.038,-13.923 -22.894,-22.5 -38.971,-22.5 c -16.077,0 -30.933,8.577 -38.971,22.5 l -372.058,644.423 c -3.950,6.841 -6.029,14.601 -6.029,22.5 z"/>
<path style="fill:none;stroke:#000000;stroke-width:2px;" d="m 1,689.423 c 0,24.301 19.699,44 44,44 l 744.116,0 c 24.301,0 44,-19.699 44,-44 c 0,-7.724 -2.033,-15.311 -5.895,-22.0 l -372.058,-644.423 c -7.860,-13.614 -22.385,-22.0 -38.105,-22.0 c -15.720,0 -30.245,8.386 -38.105,22.0 l -372.058,644.423 c -3.862,6.689 -5.895,14.276 -5.895,22.0 z"/>
<path style="fill:#ff0000;" d="m 10,689.423 c 0,19.330 15.670,35 35,35 l 744.116,0 c 19.330,0 35,-15.670 35,-35 c 0,-6.144 -1.617,-12.179 -4.689,-17.5 l -372.058,-644.423 c -6.252,-10.829 -17.807,-17.5 -30.311,-17.5 c -12.504,0 -24.059,6.671 -30.311,17.5 l -372.058,644.423 c -3.072,5.321 -4.689,11.357 -4.689,17.5 z m 83.634,-33.852 c 0,-1.755 0.462,-3.480 1.340,-5.000 l 313.424,-542.866 c 1.786,-3.094 5.087,-5 8.660,-5.000 c 3.573,0 6.873,1.906 8.660,5.000 l 313.424,542.866 c 0.878,1.520 1.340,3.245 1.340,5.000 c 0,5.523 -4.477,10 -10,10 l -626.848,0 c -5.523,0 -10,-4.477 -10,-10 z"/>
<path style="fill:#000000;" d="m 112.152,650.653 l 485.112,-215.986 l 124.699,215.986 z"/>
<path style="fill:#000000;" d="m 240.811,459.822 l 9.293,8.134 l 13.019,-17.324 l 39.311,88.295 l 20.173,-8.981 l -50.642,-113.743 l -19.552,8.705 z"/>
<path style="fill:#000000;" d="m 407.486,423.916 c 7.093,15.931 9.528,31.179 7.304,45.742 c -2.224,14.563 -8.483,24.137 -18.776,28.719 c -10.035,4.468 -21.302,2.651 -33.803,-5.449 c -12.501,-8.101 -22.263,-20.039 -29.287,-35.815 c -7.070,-15.880 -9.493,-31.101 -7.269,-45.665 c 2.224,-14.563 8.508,-24.148 18.853,-28.754 c 10.138,-4.514 21.401,-2.742 33.790,5.316 c 12.388,8.058 22.118,20.026 29.188,35.906 z m -18.543,8.256 c -4.974,-11.173 -10.967,-19.691 -17.979,-25.556 c -7.012,-5.865 -13.078,-7.657 -18.199,-5.378 c -5.017,2.234 -7.714,7.975 -8.090,17.222 c -0.376,9.247 1.888,19.380 6.794,30.397 c 2.694,6.052 5.431,11.016 8.211,14.891 c 2.779,3.876 6.047,7.457 9.803,10.743 c 7.012,5.865 13.104,7.646 18.276,5.343 c 4.966,-2.211 7.619,-7.979 7.961,-17.304 c 0.342,-9.325 -1.917,-19.444 -6.776,-30.358 z"/>
<path style="fill:#000000;" d="m 414.256,364.866 c 0,12.675 10.276,22.951 22.951,22.951 c 12.675,0 22.951,-10.276 22.951,-22.951 c 0,-12.675 -10.276,-22.951 -22.951,-22.951 c -12.675,0 -22.951,10.276 -22.951,22.951 z m 12.623,0 c 0,-5.704 4.624,-10.328 10.328,-10.328 c 5.704,0 10.328,4.624 10.328,10.328 c 0,5.704 -4.624,10.328 -10.328,10.328 c -5.704,0 -10.328,-4.624 -10.328,-10.328 z"/>
<path style="fill:#000000;" d="m 488.783,455.959 l -14.503,6.457 l -9.243,-132.175 l 14.503,-6.457 z"/>
<path style="fill:#000000;" d="m 493.663,421.335 c 0,12.675 10.276,22.951 22.951,22.951 c 12.675,0 22.951,-10.276 22.951,-22.951 c 0,-12.675 -10.276,-22.951 -22.951,-22.951 c -12.675,0 -22.951,10.276 -22.951,22.951 z m 12.623,0 c 0,-5.704 4.624,-10.328 10.328,-10.328 c 5.704,0 10.328,4.624 10.328,10.328 c 0,5.704 -4.624,10.328 -10.328,10.328 c -5.704,0 -10.328,-4.624 -10.328,-10.328 z"/>
</svg>