<?xml version="1.0" encoding="UTF-8" standalone="no"?>
<svg xmlns="http://www.w3.org/2000/svg" width="700" height="700" version="1.1">
  <title>2.6 Преимущество встречного движения</title>
  <circle style="fill:#ffffff;" cx="350" cy="350" r="350"/>
  <circle style="fill:none;stroke:#000000;stroke-width:2;" cx="350" cy="350" r="349"/>
  <clipPath id="clipPath">
    <circle cx="350" cy="350" r="340"/>
  </clipPath>
  <g clip-path="url(#clipPath)">
    <path style="fill:#ff0000;" transform="scale(1.12903226)" d="m 310 620 a 310 310 0 0 0 310 -310 a 310 310 0 0 0 -310 -310 a 310 310 0 0 0 -310 310 a 310 310 0 0 0 310 310 z m 10 -60.20 a 250 250 0 0 1 -10 0.20 a 250 250 0 0 1 -250 -250 a 250 250 0 0 1 250 -250 a 250 250 0 0 1 250 250 a 250 250 0 0 1 -180 240 v -90 h 50 l -80 -140 l -80 140 h 50 z"/>
  </g>
  <path style="fill:#000000;" transform="scale(1.12903226)" d="m 220 100 v 180 h -50 l 80 140 l 80 -140 h -50 v -180 z"/>
</svg>
