<?xml version="1.0" encoding="UTF-8" standalone="no"?>
<!-- Created with Inkscape (http://www.inkscape.org/) -->

<svg
   xmlns:dc="http://purl.org/dc/elements/1.1/"
   xmlns:cc="http://creativecommons.org/ns#"
   xmlns:rdf="http://www.w3.org/1999/02/22-rdf-syntax-ns#"
   xmlns:svg="http://www.w3.org/2000/svg"
   xmlns="http://www.w3.org/2000/svg"
   xmlns:sodipodi="http://sodipodi.sourceforge.net/DTD/sodipodi-0.dtd"
   xmlns:inkscape="http://www.inkscape.org/namespaces/inkscape"
   width="700"
   height="700"
   id="svg2"
   version="1.1"
   inkscape:version="0.48.4 r9939"
   sodipodi:docname="3.17.3.svg">
  <title
     id="title3002">3.17.3 Контроль</title>
  <defs
     id="defs4" />
  <sodipodi:namedview
     id="base"
     pagecolor="#ffffff"
     bordercolor="#666666"
     borderopacity="1.0"
     inkscape:pageopacity="0.0"
     inkscape:pageshadow="2"
     inkscape:zoom="1"
     inkscape:cx="230.96311"
     inkscape:cy="344.87768"
     inkscape:document-units="px"
     inkscape:current-layer="layer1"
     showgrid="false"
     inkscape:window-width="1920"
     inkscape:window-height="1024"
     inkscape:window-x="-4"
     inkscape:window-y="-4"
     inkscape:window-maximized="1"
     showguides="true"
     inkscape:guide-bbox="true" />
  <metadata
     id="metadata7">
    <rdf:RDF>
      <cc:Work
         rdf:about="">
        <dc:format>image/svg+xml</dc:format>
        <dc:type
           rdf:resource="http://purl.org/dc/dcmitype/StillImage" />
        <dc:title>3.17.3 Контроль</dc:title>
        <cc:license
           rdf:resource="http://creativecommons.org/licenses/by-sa/3.0/" />
        <dc:description>ГОСТ Р 52290-2004
Размеры и пропорции по типоразмеру II</dc:description>
      </cc:Work>
      <cc:License
         rdf:about="http://creativecommons.org/licenses/by-sa/3.0/">
        <cc:permits
           rdf:resource="http://creativecommons.org/ns#Reproduction" />
        <cc:permits
           rdf:resource="http://creativecommons.org/ns#Distribution" />
        <cc:requires
           rdf:resource="http://creativecommons.org/ns#Notice" />
        <cc:requires
           rdf:resource="http://creativecommons.org/ns#Attribution" />
        <cc:permits
           rdf:resource="http://creativecommons.org/ns#DerivativeWorks" />
        <cc:requires
           rdf:resource="http://creativecommons.org/ns#ShareAlike" />
      </cc:License>
    </rdf:RDF>
  </metadata>
  <g
     inkscape:label="Layer 1"
     inkscape:groupmode="layer"
     id="layer1"
     transform="translate(0,-352.36218)">
    <path
       transform="matrix(2.8577184,0,0,3.7498086,1269.0072,-2310.3252)"
       d="m -199.11241,803.42432 a 122.47533,93.338097 0 1 1 -244.95065,0 122.47533,93.338097 0 1 1 244.95065,0 z"
       sodipodi:ry="93.338097"
       sodipodi:rx="122.47533"
       sodipodi:cy="803.42432"
       sodipodi:cx="-321.58774"
       id="path12388"
       style="opacity:1;color:#000000;fill:#ffffff;fill-opacity:1;fill-rule:nonzero;stroke:none;stroke-width:1px;marker:none;visibility:visible;display:inline;overflow:visible;enable-background:accumulate"
       sodipodi:type="arc" />
    <path
       sodipodi:type="arc"
       style="color:#000000;fill:none;stroke:#000000;stroke-width:0.61271476999999996;stroke-miterlimit:4;stroke-opacity:1;stroke-dasharray:none;marker:none;visibility:visible;display:inline;overflow:visible;enable-background:accumulate;opacity:1"
       id="path12442"
       sodipodi:cx="-321.58774"
       sodipodi:cy="803.42432"
       sodipodi:rx="122.47533"
       sodipodi:ry="93.338097"
       d="m -199.11241,803.42432 c 0,51.5492 -54.83407,93.33809 -122.47533,93.33809 -67.64125,0 -122.47532,-41.78889 -122.47532,-93.33809 0,-51.54921 54.83407,-93.3381 122.47532,-93.3381 67.64126,0 122.47533,41.78889 122.47533,93.3381 z"
       transform="matrix(2.8495535,0,0,3.7390949,1266.3815,-2301.7176)" />
    <path
       id="path8029"
       style="opacity:1;color:#000000;fill:#000000;fill-opacity:1;stroke:none;stroke-width:1px;marker:none;visibility:visible;display:inline;overflow:visible;enable-background:accumulate"
       d="m 137.17738,730.02349 c -15.2769,0 -27.6613,-12.38438 -27.6613,-27.66129 0,-15.27691 12.3844,-27.66129 27.6613,-27.66129 l 0,0 425.64511,0 c 15.277,0 27.6613,12.38438 27.6613,27.66129 0,15.2769 -12.3843,27.66129 -27.6613,27.66129 z"
       inkscape:connector-curvature="0"
       sodipodi:nodetypes="cscccscc" />
    <path
       inkscape:connector-curvature="0"
       style="opacity:1;color:#000000;fill:#ff0000;fill-opacity:1;fill-rule:nonzero;stroke:none;stroke-width:1px;marker:none;visibility:visible;display:inline;overflow:visible;enable-background:accumulate"
       d="m 349.99638,362.35924 c -187.7769,0 -340.0000026,152.22318 -340.0000026,340 0,187.77681 152.2231026,340.00006 340.0000026,340.00006 187.77681,0 340.00001,-152.22325 340.00001,-340.00006 0,-187.77682 -152.2232,-340 -340.00001,-340 z m 0,58.875 c 155.26321,0 281.12501,125.86172 281.12501,281.125 0,155.26327 -125.8618,281.125 -281.12501,281.125 -155.2633,0 -281.125003,-125.86173 -281.125003,-281.125 0,-155.26328 125.861703,-281.125 281.125003,-281.125 z"
       id="path8171" />
    <g
       style="font-size:141.95307922px;font-style:normal;font-variant:normal;font-weight:normal;font-stretch:normal;line-height:125%;letter-spacing:-0.90322578px;word-spacing:0px;fill:#000000;fill-opacity:1;stroke:none;font-family:Arial;-inkscape-font-specification:Arial"
       id="text7949-4">
      <path
         d="m 169.89338,596.44385 13.16947,9.35726 c 4.29737,1.98699 9.95793,2.98047 16.9817,2.98046 4.80564,10e-6 8.53698,-1.49022 11.19405,-4.47069 2.65693,-2.98044 3.98543,-6.48075 3.9855,-10.50093 -7e-5,-2.63386 -0.65855,-5.0136 -1.97542,-7.13924 -1.31702,-2.12556 -3.17692,-3.60424 -5.5797,-4.43603 l -19.96215,-5.12917 c -7.62447,-2.54142 -13.14641,-5.33705 -16.56582,-8.38687 -4.94435,-4.66702 -7.41651,-10.78966 -7.41649,-18.36795 -2e-5,-8.27128 3.5927,-15.32965 10.77817,-21.17513 7.18542,-5.8453 14.8445,-8.768 22.97727,-8.7681 8.08646,10e-5 15.02931,1.0629 20.82857,3.1884 5.79911,2.12569 11.42501,5.63755 16.87772,10.53558 l -11.78321,11.02077 -7.34719,-5.61436 c -3.74297,-2.77243 -9.01075,-4.15869 -15.80337,-4.15878 -4.89817,9e-5 -9.25333,1.59429 -13.0655,4.7826 -3.81226,3.18848 -5.71836,6.44619 -5.71833,9.77314 l 0.41588,2.56458 1.0397,2.21802 c 1.06276,1.47874 2.51833,2.81879 4.36672,4.02015 l 25.36857,7.76306 c 8.36369,3.32708 13.67768,5.84545 15.94199,7.55512 5.08287,4.0202 7.62434,10.07353 7.62444,18.16001 -1e-4,8.77968 -3.85852,16.49652 -11.57528,23.15056 -7.20863,6.3768 -15.34135,9.56519 -24.39819,9.56519 -7.99415,0 -15.50305,-1.52488 -22.52673,-4.57466 -5.86853,-2.63389 -12.59189,-6.88508 -20.17009,-12.75359 z"
         style="fill:#000000;font-family:IndorSoft RoadSign Letters;-inkscape-font-specification:IndorSoft RoadSign Letters"
         id="path14238" />
      <path
         d="m 263.11724,521.79372 76.45227,0 0,15.11024 -30.01254,0 0,86.50266 -16.35787,0 0,-86.50266 -30.08186,0 z"
         style="fill:#000000;font-family:IndorSoft RoadSign Letters;-inkscape-font-specification:IndorSoft RoadSign Letters"
         id="path14240" />
      <path
         d="m 384.55151,572.66948 c -3e-5,10.02733 2.17178,18.58748 6.51543,25.68048 4.34357,7.09305 9.63446,10.63956 15.87268,10.63955 6.14569,10e-6 11.41348,-3.5465 15.80337,-10.63955 4.38975,-7.093 6.58466,-15.65315 6.58474,-25.68048 -8e-5,-10.02722 -2.19499,-18.61048 -6.58474,-25.74979 -4.38989,-7.13916 -9.65768,-10.70877 -15.80337,-10.70886 -6.23822,9e-5 -11.52911,3.5697 -15.87268,10.70886 -4.34365,7.13931 -6.51546,15.72257 -6.51543,25.74979 z m -18.0907,-0.0693 c -10e-6,-14.6943 3.93927,-27.21684 11.81787,-37.56766 7.87855,-10.35065 17.36287,-15.52602 28.453,-15.52612 11.18244,10e-5 20.71297,5.17547 28.59162,15.52612 7.87849,10.35082 11.81778,22.87336 11.81787,37.56766 -9e-5,14.60198 -3.93938,27.07831 -11.81787,37.42903 -7.87865,10.35075 -17.40918,15.52612 -28.59162,15.52612 -11.09013,0 -20.57445,-5.17537 -28.453,-15.52612 -7.8786,-10.35072 -11.81788,-22.82705 -11.81787,-37.42903 z"
         style="fill:#000000;font-family:IndorSoft RoadSign Letters;-inkscape-font-specification:IndorSoft RoadSign Letters"
         id="path14242" />
      <path
         d="m 542.44443,552.29145 c -8e-5,7.99417 -2.2412,15.17961 -6.72336,21.55635 -5.26786,7.57827 -12.03743,11.36738 -20.30872,11.36734 l -24.39818,0 0,38.19148 -17.05101,0 0,-101.6129 41.44919,0 c 7.85541,10e-5 14.57877,3.25781 20.17009,9.77314 4.57458,5.961 6.86191,12.86919 6.86199,20.72459 z m -17.051,0.83176 c -7e-5,-4.20492 -0.94735,-7.87851 -2.84184,-11.02077 -2.58774,-3.51178 -6.58479,-5.26771 -11.99115,-5.26779 l -19.54627,0 0,33.13162 19.54627,0 c 4.62081,6e-5 8.34061,-1.8945 11.1594,-5.68367 2.44899,-3.14212 3.67352,-6.86192 3.67359,-11.15939 z"
         style="fill:#000000;font-family:IndorSoft RoadSign Letters;-inkscape-font-specification:IndorSoft RoadSign Letters"
         id="path14244" />
    </g>
    <g
       style="font-size:78.86282349px;font-style:normal;font-variant:normal;font-weight:normal;font-stretch:normal;line-height:125%;letter-spacing:0.62096775px;word-spacing:0px;fill:#000000;fill-opacity:1;stroke:none;font-family:Arial;-inkscape-font-specification:Arial"
       id="text13519">
      <path
         d="m 120.53769,781.39428 9.74233,0 0,20.87092 c 3.05489,-0.12832 5.99427,-2.06652 8.81816,-5.81459 2.4901,-3.46561 4.99307,-6.91842 7.50891,-10.35845 3.31159,-3.825 7.11096,-5.84021 11.39814,-6.04564 l 2.88805,9.5883 c -2.10511,0.17975 -3.42719,0.35945 -3.96625,0.53911 -1.10392,0.33377 -2.16928,1.15526 -3.1961,2.46446 l -7.85548,10.1274 c -0.94987,1.25794 -1.66868,2.09226 -2.1564,2.50297 -0.87286,0.77018 -1.84838,1.27077 -2.92655,1.50179 3.61965,0.53913 6.57186,2.45165 8.85666,5.73757 0.20534,0.30809 3.04203,4.95462 8.5101,13.93962 4.33843,7.16235 6.94409,10.96173 7.81697,11.39815 l -12.16829,0 c -1.10391,-1.15522 -3.11912,-4.37699 -6.04563,-9.66532 -1.95107,-3.46564 -3.91494,-6.94412 -5.89161,-10.43546 -1.54032,-2.49011 -3.13195,-4.14592 -4.7749,-4.96744 -1.4633,-0.74444 -3.73522,-1.15519 -6.81578,-1.23223 l 0,26.30045 -9.74233,0 z"
         style="fill:#000000;font-family:IndorSoft RoadSign Letters;-inkscape-font-specification:IndorSoft RoadSign Letters"
         id="path14247" />
      <path
         d="m 192.05048,809.65859 c -2e-5,5.57073 1.20654,10.32637 3.61968,14.26693 2.4131,3.94058 5.35248,5.91087 8.81816,5.91086 3.41427,1e-5 6.34082,-1.97028 8.77965,-5.91086 2.43875,-3.94056 3.65814,-8.6962 3.65819,-14.26693 -5e-5,-5.57068 -1.21944,-10.33916 -3.65819,-14.30544 -2.43883,-3.9662 -5.36538,-5.94932 -8.77965,-5.94937 -3.46568,5e-5 -6.40506,1.98317 -8.81816,5.94937 -2.41314,3.96628 -3.6197,8.73476 -3.61968,14.30544 z m -10.05039,-0.0385 c -1e-5,-8.1635 2.18849,-15.12046 6.56549,-20.87092 4.37697,-5.75036 9.64604,-8.62557 15.80722,-8.62562 6.21246,5e-5 11.5072,2.87526 15.88423,8.62562 4.37694,5.75046 6.56544,12.70742 6.56549,20.87092 -5e-5,8.11221 -2.18855,15.04351 -6.56549,20.79391 -4.37703,5.75042 -9.67177,8.62562 -15.88423,8.62562 -6.16118,0 -11.43025,-2.8752 -15.80722,-8.62562 -4.377,-5.7504 -6.5655,-12.6817 -6.56549,-20.79391 z"
         style="fill:#000000;font-family:IndorSoft RoadSign Letters;-inkscape-font-specification:IndorSoft RoadSign Letters"
         id="path14249" />
      <path
         d="m 274.22977,781.39428 9.31876,0 0,56.52862 -9.31876,0 0,-25.91537 -22.02614,0 0,25.91537 -9.35725,0 0,-56.52862 9.35725,0 0,22.29569 22.02614,0 z"
         style="fill:#000000;font-family:IndorSoft RoadSign Letters;-inkscape-font-specification:IndorSoft RoadSign Letters"
         id="path14251" />
      <path
         d="m 299.53389,781.39428 42.47348,0 0,8.39457 -16.67363,0 0,48.05704 -9.08771,0 0,-48.05704 -16.71214,0 z"
         style="fill:#000000;font-family:IndorSoft RoadSign Letters;-inkscape-font-specification:IndorSoft RoadSign Letters"
         id="path14253" />
      <path
         d="m 378.86364,789.78885 -11.82172,0 0,18.09841 11.82172,0 c 2.41309,3e-5 4.40263,-0.91131 5.96862,-2.73402 1.51459,-1.69428 2.27189,-3.78651 2.27193,-6.27668 -4e-5,-2.33606 -0.79585,-4.43471 -2.38745,-6.29593 -1.59166,-1.86114 -3.54269,-2.79173 -5.8531,-2.79178 z m -20.79391,-8.39457 21.83361,0 c 4.98023,5e-5 9.27379,1.71362 12.88067,5.14071 3.6068,3.42719 5.41022,7.61806 5.41027,12.57261 -5e-5,4.92897 -1.80347,9.06849 -5.41027,12.41859 -3.60688,3.35015 -7.87477,5.02521 -12.80366,5.02519 l -11.82172,0 0,21.29451 -10.0889,0 z"
         style="fill:#000000;font-family:IndorSoft RoadSign Letters;-inkscape-font-specification:IndorSoft RoadSign Letters"
         id="path14255" />
      <path
         d="m 424.34556,809.65859 c -2e-5,5.57073 1.20654,10.32637 3.61968,14.26693 2.41309,3.94058 5.35248,5.91087 8.81815,5.91086 3.41428,1e-5 6.34083,-1.97028 8.77965,-5.91086 2.43875,-3.94056 3.65815,-8.6962 3.65819,-14.26693 -4e-5,-5.57068 -1.21944,-10.33916 -3.65819,-14.30544 -2.43882,-3.9662 -5.36537,-5.94932 -8.77965,-5.94937 -3.46567,5e-5 -6.40506,1.98317 -8.81815,5.94937 -2.41314,3.96628 -3.6197,8.73476 -3.61968,14.30544 z m -10.05039,-0.0385 c -10e-6,-8.1635 2.18848,-15.12046 6.56548,-20.87092 4.37697,-5.75036 9.64604,-8.62557 15.80722,-8.62562 6.21247,5e-5 11.50721,2.87526 15.88424,8.62562 4.37694,5.75046 6.56543,12.70742 6.56548,20.87092 -5e-5,8.11221 -2.18854,15.04351 -6.56548,20.79391 -4.37703,5.75042 -9.67177,8.62562 -15.88424,8.62562 -6.16118,0 -11.43025,-2.8752 -15.80722,-8.62562 -4.377,-5.7504 -6.56549,-12.6817 -6.56548,-20.79391 z"
         style="fill:#000000;font-family:IndorSoft RoadSign Letters;-inkscape-font-specification:IndorSoft RoadSign Letters"
         id="path14257" />
      <path
         d="m 487.46377,781.39428 35.81173,0 0,56.45161 -10.24293,0 0,-47.71047 -15.36439,0 -0.46208,22.3342 c -0.17973,7.23938 -1.25793,12.82292 -3.23461,16.75064 -2.59285,4.95461 -7.03401,8.26623 -13.3235,9.93487 l -5.50654,-9.74233 c 4.92891,-1.20655 8.24053,-3.0934 9.93487,-5.66056 1.54027,-2.25908 2.31041,-6.01995 2.31043,-11.28262 -2e-5,-4.15876 0.0128,-9.33156 0.0385,-15.51842 0.0257,-10.44825 0.0385,-15.63388 0.0385,-15.55692 z"
         style="fill:#000000;font-family:IndorSoft RoadSign Letters;-inkscape-font-specification:IndorSoft RoadSign Letters"
         id="path14259" />
      <path
         d="m 561.24849,829.33579 c 2.28473,-0.10268 4.22934,-1.03327 5.83384,-2.79178 1.60443,-1.75848 2.40667,-3.86996 2.4067,-6.33444 -3e-5,-2.51578 -0.78943,-4.6401 -2.36819,-6.37295 -1.57883,-1.7328 -3.53628,-2.59921 -5.87235,-2.59924 l -11.78322,0 0,18.09841 11.43665,0 c 0.20534,10e-6 0.32086,10e-6 0.34657,0 z m -21.87212,8.5101 0,-56.45161 10.0889,0 0,21.37151 11.78322,0 c 4.98023,4e-5 9.22886,1.64301 12.74589,4.92893 3.64531,3.38866 5.46798,7.54744 5.46803,12.47634 -5e-5,4.92894 -1.80347,9.10697 -5.41027,12.53411 -3.60688,3.42715 -7.8876,5.14072 -12.84216,5.14072 z"
         style="fill:#000000;font-family:IndorSoft RoadSign Letters;-inkscape-font-specification:IndorSoft RoadSign Letters"
         id="path14261" />
    </g>
  </g>
</svg>
