<?xml version="1.0" encoding="UTF-8"?>
<svg xmlns="http://www.w3.org/2000/svg" width="700" height="700" version="1.1">
<title>3.9 Движение на велосипеде запрещено</title>
<circle style="fill:#ffffff;" cx="350" cy="350" r="350"/>
<circle style="fill:none;stroke:#000000;stroke-width:2px;" cx="350" cy="350" r="349"/>
<path style="fill:#ff0000;" d="m 350,690 c 187.777,0 340,-152.223 340,-340 c 0,-187.777 -152.223,-340 -340,-340 c -187.777,0 -340,152.223 -340,340 c 0,187.777 152.223,340 340,340 z m 0,-60 c -154.640,0 -280,-125.360 -280,-280 c 0,-154.640 125.360,-280 280,-280 c 154.640,0 280,125.360 280,280 c 0,154.640 -125.360,280 -280,280 z"/>
<path style="fill:#000000;" d="m 369.347,404.210 c 1.548,1.179 3.441,1.818 5.388,1.818 l 43.193,0 c 5.424,39.075 38.832,68.166 78.282,68.166 c 43.648,0 79.032,-35.384 79.032,-79.033 c 0,-43.648 -35.384,-79.032 -79.032,-79.032 c -12.307,0 -24.443,2.874 -35.443,8.393 l -29.214,-41.720 l 7.659,-18.044 l 4.639,0 c 6.547,0 11.855,-5.308 11.855,-11.855 c 0,-6.547 -5.308,-11.855 -11.855,-11.855 l -54.335,0 c -6.547,0 -11.855,5.308 -11.855,11.855 c 0,6.547 5.308,11.855 11.855,11.855 l 34.671,0 l -4.613,10.867 l -136.238,0 c 0.625,-2.288 0.941,-4.650 0.941,-7.021 c 0,-9.586 -5.143,-18.434 -13.472,-23.178 l -5.211,-2.968 c -3.701,-2.108 -5.987,-6.041 -5.987,-10.301 c 0,-6.547 5.307,-11.855 11.855,-11.855 l 39.022,0 c 4.365,0 7.903,-3.538 7.903,-7.903 c 0,-4.365 -3.538,-7.903 -7.903,-7.903 l -39.022,0 c -15.277,0 -27.662,12.384 -27.662,27.661 c 0,9.940 5.334,19.116 13.971,24.036 l 5.211,2.968 c 3.393,1.933 5.489,5.537 5.489,9.443 c 0,1.586 -0.348,3.154 -1.019,4.592 l -24.786,53.155 c -11.861,-6.701 -25.253,-10.222 -38.876,-10.222 c -43.648,0 -79.032,35.384 -79.032,79.032 c 0,43.649 35.384,79.033 79.032,79.033 c 43.649,0 79.033,-35.384 79.033,-79.033 c 0,-22.816 -9.861,-44.518 -27.046,-59.527 l 6.174,-13.238 z m -165.557,58.129 c -37.101,0 -67.177,-30.077 -67.177,-67.178 c 0,-37.101 30.076,-67.177 67.177,-67.177 c 11.894,0 23.574,3.158 33.848,9.150 l -17.155,36.788 c -1.028,2.205 -2.710,4.040 -4.817,5.257 l -15.827,9.138 c -2.446,1.412 -3.952,4.021 -3.952,6.844 c 0,4.365 3.538,7.904 7.903,7.904 c 1.388,0 2.750,-0.366 3.952,-1.059 l 15.828,-9.138 c 4.916,-2.839 8.840,-7.121 11.239,-12.266 l 15.714,-33.699 c 13.068,12.654 20.445,30.068 20.445,48.258 c 0,37.101 -30.077,67.178 -67.178,67.178 z m 292.420,0 c -32.907,0 -60.970,-23.837 -66.293,-56.311 l 68.250,0 c 6.002,0 10.867,-4.865 10.867,-10.867 c 0,-2.230 -0.686,-4.406 -1.965,-6.233 l -38.504,-54.992 c 8.688,-3.923 18.112,-5.952 27.645,-5.952 c 37.101,0 67.177,30.076 67.177,67.177 c 0,37.101 -30.076,67.178 -67.177,67.178 z m -66.821,-74.093 c 1.816,-17.543 10.458,-33.669 24.060,-44.895 l 31.436,44.895 z m -38.302,0 l 35.856,-84.470 l 20.463,29.222 c -17.182,13.489 -28.014,33.488 -29.925,55.248 z m -17.860,-3.434 l -101.828,-77.573 l 7.048,-13.832 l 133.579,0 z"/>
</svg>