<?xml version="1.0" encoding="UTF-8" standalone="no"?>
<svg xmlns="http://www.w3.org/2000/svg" width="700" height="700" version="1.1">
  <title>3.3 Движение механических транспортных средств запрещено</title>
  <circle style="fill:#ffffff;" cx="350" cy="350" r="350"/>
  <circle style="fill:none;stroke:#000000;stroke-width:2;" cx="350" cy="350" r="349"/>
  <path style="fill:#ff0000;" d="m 350 690 a 340 340 0 0 0 340 -340 a 340 340 0 0 0 -340 -340 a 340 340 0 0 0 -340 340 a 340 340 0 0 0 340 340 z m 0 -57.74 a 282.26 282.26 0 0 1 -282.26 -282.26 a 282.26 282.26 0 0 1 282.26 -282.26 a 282.26 282.26 0 0 1 282.26 282.26 a 282.26 282.26 0 0 1 -282.26 282.26 z"/>
  <path style="fill:#000000;" transform="scale(1.12903226)" d="m 460 380 a 20 20 0 0 0 20 -20 v -80 a 20 20 0 0 0 -20 -20 l -33.23 -97.98 a 17.71 17.71 0 0 0 -16.77 -12.02 h -200 a 17.71 17.71 0 0 0 -16.77 12.02 l -33.23 97.98 a 20 20 0 0 0 -20 20 v 80 a 20 20 0 0 0 20 20 z m -280 -120 l 28.48 -83.99 a 8.86 8.86 0 0 1 8.39 -6.01 h 186.26 a 8.86 8.86 0 0 1 8.39 6.01 l 28.48 83.99 z m 10 80 a 30 30 0 0 1 -30 -30 a 30 30 0 0 1 30 -30 a 30 30 0 0 1 30 30 a 30 30 0 0 1 -30 30 z m 240 0 a 30 30 0 0 1 -30 -30 a 30 30 0 0 1 30 -30 a 30 30 0 0 1 30 30 a 30 30 0 0 1 -30 30 z"/>
  <path style="fill:#000000;" transform="scale(1.12903226)" d="m 160 390 v 40 a 30 30 0 0 0 30 30 a 30 30 0 0 0 30 -30 v -40 z"/>
  <path style="fill:#000000;" transform="scale(1.12903226)" d="m 400 390 v 40 a 30 30 0 0 0 30 30 a 30 30 0 0 0 30 -30 v -40 z"/>
</svg>
