<?xml version="1.0" encoding="UTF-8"?>
<svg xmlns="http://www.w3.org/2000/svg" width="700" height="700" version="1.1">
<title>3.28 Стоянка запрещена</title>
<circle style="fill:#ffffff;" cx="350" cy="350" r="350"/>
<circle style="fill:none;stroke:#000000;stroke-width:2px;" cx="350" cy="350" r="349"/>
<path style="fill:#ff0000;" d="m 350,690 c 187.777,0 340,-152.223 340,-340 c 0,-187.777 -152.223,-340 -340,-340 c -187.777,0 -340,152.223 -340,340 c 0,187.777 152.223,340 340,340 z m 181.440,-126.740 c -50.638,43.083 -114.954,66.740 -181.440,66.740 c -154.640,0 -280,-125.360 -280,-280 c 0,-66.486 23.658,-130.802 66.740,-181.440 z m -362.880,-426.520 c 50.638,-43.083 114.954,-66.740 181.440,-66.740 c 154.640,0 280,125.360 280,280 c 0,66.486 -23.658,130.802 -66.740,181.440 z"/>
<path style="fill:#0d69e1;" d="m 137.488,183.450 c -37.247,47.526 -57.488,106.167 -57.488,166.550 c 0,149.117 120.883,270 270,270 c 60.383,0 119.023,-20.241 166.550,-57.488 z"/>
<path style="fill:#0d69e1;" d="m 562.512,516.550 c 37.247,-47.526 57.488,-106.167 57.488,-166.550 c 0,-149.117 -120.883,-270 -270,-270 c -60.383,0 -119.023,20.241 -166.550,57.488 z"/>
</svg>