<?xml version="1.0" encoding="UTF-8" standalone="no"?>
<!-- Created with Inkscape (http://www.inkscape.org/) -->

<svg
   xmlns:dc="http://purl.org/dc/elements/1.1/"
   xmlns:cc="http://creativecommons.org/ns#"
   xmlns:rdf="http://www.w3.org/1999/02/22-rdf-syntax-ns#"
   xmlns:svg="http://www.w3.org/2000/svg"
   xmlns="http://www.w3.org/2000/svg"
   xmlns:sodipodi="http://sodipodi.sourceforge.net/DTD/sodipodi-0.dtd"
   xmlns:inkscape="http://www.inkscape.org/namespaces/inkscape"
   width="700"
   height="700"
   id="svg2"
   version="1.1"
   inkscape:version="0.48.4 r9939"
   sodipodi:docname="4.5.5.svg">
  <title
     id="title3002">4.5.5 Пешеходная и велосипедная дорожка с разделением движения</title>
  <defs
     id="defs4" />
  <sodipodi:namedview
     id="base"
     pagecolor="#ffffff"
     bordercolor="#666666"
     borderopacity="1.0"
     inkscape:pageopacity="0.0"
     inkscape:pageshadow="2"
     inkscape:zoom="1"
     inkscape:cx="408.20782"
     inkscape:cy="337.71636"
     inkscape:document-units="px"
     inkscape:current-layer="layer1"
     showgrid="false"
     inkscape:window-width="1920"
     inkscape:window-height="1024"
     inkscape:window-x="-4"
     inkscape:window-y="-4"
     inkscape:window-maximized="1" />
  <metadata
     id="metadata7">
    <rdf:RDF>
      <cc:Work
         rdf:about="">
        <dc:format>image/svg+xml</dc:format>
        <dc:type
           rdf:resource="http://purl.org/dc/dcmitype/StillImage" />
        <dc:title>4.5.5 Пешеходная и велосипедная дорожка с разделением движения</dc:title>
        <cc:license
           rdf:resource="http://creativecommons.org/licenses/by-sa/3.0/" />
        <dc:description>ГОСТ Р 52290-2004
Размеры и пропорции по типоразмеру II</dc:description>
      </cc:Work>
      <cc:License
         rdf:about="http://creativecommons.org/licenses/by-sa/3.0/">
        <cc:permits
           rdf:resource="http://creativecommons.org/ns#Reproduction" />
        <cc:permits
           rdf:resource="http://creativecommons.org/ns#Distribution" />
        <cc:requires
           rdf:resource="http://creativecommons.org/ns#Notice" />
        <cc:requires
           rdf:resource="http://creativecommons.org/ns#Attribution" />
        <cc:permits
           rdf:resource="http://creativecommons.org/ns#DerivativeWorks" />
        <cc:requires
           rdf:resource="http://creativecommons.org/ns#ShareAlike" />
      </cc:License>
    </rdf:RDF>
  </metadata>
  <g
     inkscape:label="Layer 1"
     inkscape:groupmode="layer"
     id="layer1"
     transform="translate(0,-352.36218)">
    <path
       transform="matrix(15.832059,0,0,11.87835,1738.7986,-4432.173)"
       d="m -65.613615,432.25998 c 0,16.27327 -9.89766,29.46537 -22.107042,29.46537 -12.209383,0 -22.107043,-13.1921 -22.107043,-29.46537 0,-16.27328 9.89766,-29.46537 22.107043,-29.46537 12.209382,0 22.107042,13.19209 22.107042,29.46537 z"
       sodipodi:ry="29.465372"
       sodipodi:rx="22.107042"
       sodipodi:cy="432.25998"
       sodipodi:cx="-87.720657"
       id="path6124"
       style="opacity:1;color:#000000;fill:#ffffff;fill-opacity:1;fill-rule:nonzero;stroke:none;stroke-width:1px;marker:none;visibility:visible;display:inline;overflow:visible;enable-background:accumulate"
       sodipodi:type="arc" />
    <path
       sodipodi:type="arc"
       style="opacity:1;color:#000000;fill:none;stroke:#000000;stroke-width:0.14626010000000000;stroke-miterlimit:4;stroke-opacity:1;stroke-dasharray:none;marker:none;visibility:visible;display:inline;overflow:visible;enable-background:accumulate;fill-opacity:1"
       id="path6162"
       sodipodi:cx="-87.720657"
       sodipodi:cy="432.25998"
       sodipodi:rx="22.107042"
       sodipodi:ry="29.465372"
       d="m -65.613615,432.25998 c 0,16.27327 -9.89766,29.46537 -22.107042,29.46537 -12.209383,0 -22.107043,-13.1921 -22.107043,-29.46537 0,-16.27328 9.89766,-29.46537 22.107043,-29.46537 12.209382,0 22.107042,13.19209 22.107042,29.46537 z"
       transform="matrix(15.786825,0,0,11.844412,1734.8306,-4417.503)" />
    <path
       style="color:#000000;fill:#0d69e1;fill-opacity:1;fill-rule:nonzero;stroke:none;stroke-width:1px;marker:none;visibility:visible;display:inline;overflow:visible;enable-background:accumulate;opacity:1"
       d="M 338.71875 20.1875 C 161.68832 26.134802 20 171.52179 20 350 C 20 528.47821 161.68832 673.8652 338.71875 679.8125 L 338.71875 20.1875 z M 361.28125 20.1875 L 361.28125 679.8125 C 538.31168 673.8652 680 528.47821 680 350 C 680 171.52179 538.31168 26.134802 361.28125 20.1875 z M 206.4375 138.875 C 215.10287 138.875 229.53125 143.95723 229.53125 160.1875 C 229.53125 178.8365 199.35644 193.6875 189.875 193.6875 C 176.5211 193.6875 170.375 178.3407 170.375 168.84375 C 170.375 145.48602 199.10082 138.875 206.4375 138.875 z M 212.1875 197.8125 C 214.91089 197.81243 217.62226 198.49744 220.0625 199.90625 L 270.3125 228.9375 C 275.1929 231.75526 278.1875 236.95837 278.1875 242.59375 L 278.1875 297.8125 C 278.1875 304.34625 272.90875 309.625 266.375 309.625 C 259.84126 309.625 254.53125 304.34625 254.53125 297.8125 L 254.53125 247.15625 L 230.09375 233.03125 L 230.09375 299.21875 C 230.09375 301.31049 229.26028 303.30209 227.78125 304.78125 L 163.65625 368.9375 L 145.8125 440.25 C 143.8054 448.27888 135.65397 453.16354 127.625 451.15625 C 119.59603 449.14906 114.74289 440.99772 116.75 432.96875 L 138.65625 345.3125 C 139.01375 343.8784 139.78057 342.58912 140.84375 341.5625 L 180 302.375 L 180 218.5 C 180 215.68224 181.49726 213.03381 183.9375 211.625 L 204.28125 199.90625 C 206.72149 198.49744 209.46429 197.8125 212.1875 197.8125 z M 171.40625 252.59375 L 171.40625 286.0625 L 143.78125 313.65625 C 141.6402 315.79709 138.73562 317.125 135.46875 317.125 C 128.9348 317.125 123.625 311.84645 123.625 305.3125 C 123.625 302.04563 124.95298 299.07855 127.09375 296.9375 L 171.40625 252.59375 z M 471.8125 260.96875 L 496.78125 260.96875 C 499.64752 260.96875 502 263.28996 502 266.15625 C 502 269.02247 499.64752 271.34375 496.78125 271.34375 L 471.8125 271.34375 C 467.1549 271.34375 463.375 275.09236 463.375 279.75 C 463.375 282.79572 465.30779 285.5398 468.1875 286.53125 C 475.25592 288.96516 480 295.61792 480 303.09375 C 480 304.64313 479.80875 306.1699 479.40625 307.65625 L 568.5 307.65625 L 571.5625 300.53125 L 548.6875 300.53125 C 544.38815 300.53125 540.90625 297.04937 540.90625 292.75 C 540.90625 288.45057 544.38815 284.96875 548.6875 284.96875 L 584.375 284.96875 C 588.67435 284.96875 592.15625 288.45057 592.15625 292.75 C 592.15625 297.04937 588.67435 300.53125 584.375 300.53125 L 581.46875 300.53125 L 576.78125 311.5 L 596.28125 339.375 C 603.07769 336.10747 610.70452 334.25 618.75 334.25 C 647.41274 334.25 670.65625 357.49349 670.65625 386.15625 C 670.65625 414.81901 647.41274 438.0625 618.75 438.0625 C 592.50813 438.0625 570.82106 418.59857 567.34375 393.3125 L 536.9375 393.3125 L 465.28125 338.53125 L 461.15625 347.34375 C 471.85665 356.85042 478.625 370.71688 478.625 386.15625 C 478.625 414.81901 455.38149 438.0625 426.71875 438.0625 C 398.05601 438.0625 374.84375 414.81901 374.84375 386.15625 C 374.84375 357.49349 398.05601 334.25 426.71875 334.25 C 436.14301 334.25 444.97583 336.79659 452.59375 341.1875 L 468.21875 307.65625 L 468.96875 306.09375 C 469.40907 305.1494 469.625 304.13577 469.625 303.09375 C 469.625 300.04807 467.69221 297.33532 464.8125 296.34375 C 457.74397 293.9099 453 287.22582 453 279.75 C 453 269.35973 461.42224 260.96875 471.8125 260.96875 z M 225.53125 318.1875 L 288.34375 427 C 290.52177 429.60195 291.875 432.9664 291.875 436.625 C 291.875 444.90125 285.15122 451.625 276.875 451.625 C 271.28845 451.625 266.42085 448.56357 263.84375 444.03125 L 263.65625 444.09375 L 203.59375 340.125 L 225.53125 318.1875 z M 475.65625 319.34375 L 470.375 327.65625 L 537.9375 379.34375 L 563.5625 319.34375 L 475.65625 319.34375 z M 573.125 326.65625 L 549.6875 381.625 L 567.03125 381.625 C 568.29305 367.06165 575.61214 354.21783 586.40625 345.59375 L 573.125 326.65625 z M 425.59375 342.0625 C 401.75661 342.66645 382.625 362.17358 382.625 386.15625 C 382.625 410.51964 402.35548 430.28125 426.71875 430.28125 C 451.08214 430.28125 470.84375 410.51964 470.84375 386.15625 C 470.84375 373.87172 465.8208 362.77972 457.71875 354.78125 L 447.78125 376.0625 C 446.14957 379.56165 443.49976 382.47591 440.15625 384.40625 L 429.3125 390.65625 C 426.83021 392.08933 423.65172 391.23223 422.21875 388.75 C 420.78544 386.26771 421.64271 383.0894 424.125 381.65625 L 434.96875 375.40625 C 436.46754 374.54091 437.6435 373.22483 438.375 371.65625 L 449.3125 348.28125 C 442.70721 344.3384 434.97017 342.0625 426.71875 342.0625 C 426.33804 342.0625 425.97209 342.0523 425.59375 342.0625 z M 618.75 342.0625 C 612.36555 342.0625 606.32215 343.43489 600.84375 345.875 L 626.1875 382.0625 C 628.44805 385.29083 627.66585 389.73945 624.4375 392 C 623.2379 392.84 621.80822 393.3125 620.34375 393.3125 L 575.21875 393.3125 C 578.63306 414.27839 596.81912 430.28125 618.75 430.28125 C 643.11328 430.28125 662.875 410.51964 662.875 386.15625 C 662.875 361.79291 643.11328 342.0625 618.75 342.0625 z M 590.875 351.96875 C 582.07894 359.15642 576.09672 369.70246 574.875 381.625 L 611.625 381.625 L 590.875 351.96875 z "
       transform="translate(0,352.36218)"
       id="path16853" />
  </g>
</svg>
