<?xml version="1.0" encoding="UTF-8" standalone="no"?>
<!-- Created with Inkscape (http://www.inkscape.org/) -->

<svg
   xmlns:dc="http://purl.org/dc/elements/1.1/"
   xmlns:cc="http://creativecommons.org/ns#"
   xmlns:rdf="http://www.w3.org/1999/02/22-rdf-syntax-ns#"
   xmlns:svg="http://www.w3.org/2000/svg"
   xmlns="http://www.w3.org/2000/svg"
   xmlns:sodipodi="http://sodipodi.sourceforge.net/DTD/sodipodi-0.dtd"
   xmlns:inkscape="http://www.inkscape.org/namespaces/inkscape"
   width="700"
   height="700"
   id="svg2"
   version="1.1"
   inkscape:version="0.48.4 r9939"
   sodipodi:docname="4.5.2.svg">
  <title
     id="title3002">4.5.3 Конец пешеходной и велосипедной дорожки с совмещенным движением (конец велопешеходной дорожки с совмещенным движением)</title>
  <defs
     id="defs4" />
  <sodipodi:namedview
     id="base"
     pagecolor="#ffffff"
     bordercolor="#666666"
     borderopacity="1.0"
     inkscape:pageopacity="0.0"
     inkscape:pageshadow="2"
     inkscape:zoom="1"
     inkscape:cx="299.78373"
     inkscape:cy="335.35267"
     inkscape:document-units="px"
     inkscape:current-layer="layer1"
     showgrid="false"
     inkscape:window-width="1920"
     inkscape:window-height="1024"
     inkscape:window-x="-4"
     inkscape:window-y="-4"
     inkscape:window-maximized="1" />
  <metadata
     id="metadata7">
    <rdf:RDF>
      <cc:Work
         rdf:about="">
        <dc:format>image/svg+xml</dc:format>
        <dc:type
           rdf:resource="http://purl.org/dc/dcmitype/StillImage" />
        <dc:title>4.5.3 Конец пешеходной и велосипедной дорожки с совмещенным движением (конец велопешеходной дорожки с совмещенным движением)</dc:title>
        <cc:license
           rdf:resource="http://creativecommons.org/licenses/by-sa/3.0/" />
        <dc:description>ГОСТ Р 52290-2004
Размеры и пропорции по типоразмеру II</dc:description>
      </cc:Work>
      <cc:License
         rdf:about="http://creativecommons.org/licenses/by-sa/3.0/">
        <cc:permits
           rdf:resource="http://creativecommons.org/ns#Reproduction" />
        <cc:permits
           rdf:resource="http://creativecommons.org/ns#Distribution" />
        <cc:requires
           rdf:resource="http://creativecommons.org/ns#Notice" />
        <cc:requires
           rdf:resource="http://creativecommons.org/ns#Attribution" />
        <cc:permits
           rdf:resource="http://creativecommons.org/ns#DerivativeWorks" />
        <cc:requires
           rdf:resource="http://creativecommons.org/ns#ShareAlike" />
      </cc:License>
    </rdf:RDF>
  </metadata>
  <g
     inkscape:label="Layer 1"
     inkscape:groupmode="layer"
     id="layer1"
     transform="translate(0,-352.36218)">
    <path
       transform="matrix(15.832059,0,0,11.87835,1738.7986,-4432.173)"
       d="m -65.613615,432.25998 c 0,16.27327 -9.89766,29.46537 -22.107042,29.46537 -12.209383,0 -22.107043,-13.1921 -22.107043,-29.46537 0,-16.27328 9.89766,-29.46537 22.107043,-29.46537 12.209382,0 22.107042,13.19209 22.107042,29.46537 z"
       sodipodi:ry="29.465372"
       sodipodi:rx="22.107042"
       sodipodi:cy="432.25998"
       sodipodi:cx="-87.720657"
       id="path6124"
       style="opacity:1;color:#000000;fill:#ffffff;fill-opacity:1;fill-rule:nonzero;stroke:none;stroke-width:1px;marker:none;visibility:visible;display:inline;overflow:visible;enable-background:accumulate"
       sodipodi:type="arc" />
    <path
       sodipodi:type="arc"
       style="opacity:1;color:#000000;fill:none;stroke:#000000;stroke-width:0.14626010000000000;stroke-miterlimit:4;stroke-opacity:1;stroke-dasharray:none;marker:none;visibility:visible;display:inline;overflow:visible;enable-background:accumulate;fill-opacity:1"
       id="path6162"
       sodipodi:cx="-87.720657"
       sodipodi:cy="432.25998"
       sodipodi:rx="22.107042"
       sodipodi:ry="29.465372"
       d="m -65.613615,432.25998 c 0,16.27327 -9.89766,29.46537 -22.107042,29.46537 -12.209383,0 -22.107043,-13.1921 -22.107043,-29.46537 0,-16.27328 9.89766,-29.46537 22.107043,-29.46537 12.209382,0 22.107042,13.19209 22.107042,29.46537 z"
       transform="matrix(15.786825,0,0,11.844412,1734.8306,-4417.503)" />
    <path
       style="color:#000000;fill:#0d69e1;fill-opacity:1;fill-rule:nonzero;stroke:none;stroke-width:1px;marker:none;visibility:visible;display:inline;overflow:visible;enable-background:accumulate"
       d="M 350 20 C 167.74603 20 20 167.74603 20 350 C 20 532.25397 167.74603 680 350 680 C 532.25397 680 680 532.25397 680 350 C 680 167.74603 532.25397 20 350 20 z M 355.5 47.40625 C 364.13409 47.40625 378.53125 52.48457 378.53125 68.65625 C 378.53125 87.23793 348.44721 102.03125 339 102.03125 C 325.69431 102.03125 319.59375 86.74391 319.59375 77.28125 C 319.59375 54.00785 348.18981 47.40625 355.5 47.40625 z M 361.21875 106.15625 C 363.93231 106.15618 366.63108 106.84627 369.0625 108.25 L 419.15625 137.15625 C 424.01903 139.96384 427 145.16622 427 150.78125 L 427 205.78125 C 427 212.29141 421.72891 217.5625 415.21875 217.5625 C 408.70859 217.5625 403.4375 212.29141 403.4375 205.78125 L 403.4375 155.3125 L 379.0625 141.25 L 379.0625 207.1875 C 379.0625 209.27168 378.2237 211.24493 376.75 212.71875 L 312.875 276.65625 L 295.125 347.6875 C 293.12515 355.68739 284.99999 360.56254 277 358.5625 C 269.00002 356.56255 264.12515 348.43748 266.125 340.4375 L 287.96875 253.125 C 288.32497 251.69607 289.09691 250.39791 290.15625 249.375 L 329.1875 210.3125 L 329.1875 126.75 C 329.1875 123.94241 330.66232 121.34123 333.09375 119.9375 L 353.375 108.25 C 355.80643 106.84627 358.50538 106.15625 361.21875 106.15625 z M 320.59375 160.75 L 320.59375 194.09375 L 293.09375 221.5625 C 290.96043 223.69561 288.03633 225.03125 284.78125 225.03125 C 278.27089 225.03125 273 219.76036 273 213.25 C 273 209.99492 274.30445 207.07082 276.4375 204.9375 L 320.59375 160.75 z M 374.53125 226.09375 L 437.125 334.53125 C 439.29516 337.12382 440.625 340.44836 440.625 344.09375 C 440.625 352.34012 433.93385 359.03125 425.6875 359.03125 C 420.12112 359.03125 415.2553 355.98471 412.6875 351.46875 L 412.53125 351.5625 L 352.65625 247.9375 L 374.53125 226.09375 z M 290.96875 406 C 291.33348 405.98154 291.72444 406 292.09375 406 L 320.5 406 C 323.76005 406 326.40625 408.61486 326.40625 411.875 C 326.40625 415.13505 323.76005 417.78125 320.5 417.78125 L 292.09375 417.78125 C 286.79607 417.78125 282.46875 422.07739 282.46875 427.375 C 282.46875 430.83923 284.69333 433.93481 287.96875 435.0625 C 296.00843 437.83084 301.40625 445.40322 301.40625 453.90625 C 301.40625 455.66852 301.1453 457.40318 300.6875 459.09375 L 402.0625 459.09375 L 405.53125 450.96875 L 379.5 450.96875 C 374.60981 450.96875 370.65625 447.01513 370.65625 442.125 C 370.65625 437.23481 374.60981 433.28125 379.5 433.28125 L 420.09375 433.28125 C 424.98394 433.28125 428.96875 437.23481 428.96875 442.125 C 428.96875 447.01513 424.98394 450.96875 420.09375 450.96875 L 416.78125 450.96875 L 411.46875 463.46875 L 433.65625 495.15625 C 441.38651 491.4397 450.03658 489.34375 459.1875 489.34375 C 491.78865 489.34375 518.21875 515.7739 518.21875 548.375 C 518.21875 580.9762 491.78865 607.40625 459.1875 607.40625 C 429.33999 607.40625 404.67387 585.2605 400.71875 556.5 L 366.125 556.5 L 284.65625 494.1875 L 279.96875 504.25 C 292.1394 515.06301 299.8125 530.8142 299.8125 548.375 C 299.8125 580.9762 273.4136 607.40625 240.8125 607.40625 C 208.21134 607.40625 181.78125 580.9762 181.78125 548.375 C 181.78125 515.7739 208.21134 489.34375 240.8125 489.34375 C 251.5317 489.34375 261.55409 492.22447 270.21875 497.21875 L 288 459.09375 L 288.84375 457.34375 C 289.34463 456.26965 289.59375 455.09145 289.59375 453.90625 C 289.59375 450.44209 287.40036 447.34657 284.125 446.21875 C 276.08519 443.45047 270.6875 435.87805 270.6875 427.375 C 270.6875 415.92638 279.66219 406.57222 290.96875 406 z M 296.4375 472.375 L 290.4375 481.84375 L 367.3125 540.625 L 396.4375 472.375 L 296.4375 472.375 z M 407.3125 480.6875 L 380.625 543.21875 L 400.375 543.21875 C 401.81017 526.65445 410.129 512.05901 422.40625 502.25 L 407.3125 480.6875 z M 239.5 498.21875 C 212.38754 498.90565 190.625 521.0971 190.625 548.375 C 190.625 576.086 213.10153 598.5625 240.8125 598.5625 C 268.52347 598.5625 290.96875 576.086 290.96875 548.375 C 290.96875 534.4026 285.27783 521.785 276.0625 512.6875 L 264.75 536.90625 C 262.89407 540.88615 259.86547 544.1795 256.0625 546.375 L 243.75 553.5 C 240.92664 555.13 237.28619 554.16715 235.65625 551.34375 C 234.02606 548.52035 235.02033 544.91135 237.84375 543.28125 L 250.15625 536.15625 C 251.86101 535.17195 253.23048 533.69035 254.0625 531.90625 L 266.46875 505.28125 C 258.95597 500.79673 250.19769 498.21875 240.8125 498.21875 C 240.37953 498.21875 239.93035 498.20745 239.5 498.21875 z M 459.1875 498.21875 C 451.92591 498.21875 445.04363 499.75587 438.8125 502.53125 L 467.65625 543.71875 C 470.2274 547.39055 469.32809 552.46015 465.65625 555.03125 C 464.2917 555.98665 462.66577 556.5 461 556.5 L 409.6875 556.5 C 413.57085 580.3467 434.24325 598.5625 459.1875 598.5625 C 486.89847 598.5625 509.375 576.086 509.375 548.375 C 509.375 520.6641 486.89847 498.21875 459.1875 498.21875 z M 427.5 509.5 C 417.49532 517.67531 410.67087 529.65815 409.28125 543.21875 L 451.09375 543.21875 L 427.5 509.5 z "
       transform="translate(0,352.36218)"
       id="path16853" />
    <path
       style="color:#000000;fill:#ff0000;fill-opacity:1;fill-rule:nonzero;stroke:none;stroke-width:1px;marker:none;visibility:visible;display:inline;overflow:visible;enable-background:accumulate"
       d="M 559.6875 95.15625 L 95.15625 559.6875 C 108.51329 575.90119 123.41927 590.81594 139.59375 604.21875 L 604.84375 140.3125 C 591.28503 123.85399 576.14601 108.71497 559.6875 95.15625 z "
       transform="translate(0,352.36218)"
       id="path16853-0" />
  </g>
</svg>
