<?xml version="1.0" encoding="UTF-8" standalone="no"?>
<!-- Created with Inkscape (http://www.inkscape.org/) -->

<svg
   xmlns:dc="http://purl.org/dc/elements/1.1/"
   xmlns:cc="http://creativecommons.org/ns#"
   xmlns:rdf="http://www.w3.org/1999/02/22-rdf-syntax-ns#"
   xmlns:svg="http://www.w3.org/2000/svg"
   xmlns="http://www.w3.org/2000/svg"
   xmlns:sodipodi="http://sodipodi.sourceforge.net/DTD/sodipodi-0.dtd"
   xmlns:inkscape="http://www.inkscape.org/namespaces/inkscape"
   width="600"
   height="600"
   id="svg2"
   version="1.1"
   inkscape:version="0.48.4 r9939"
   sodipodi:docname="4.9.svg">
  <title
     id="title3002">4.9 Движение легковых автомобилей</title>
  <defs
     id="defs4" />
  <sodipodi:namedview
     id="base"
     pagecolor="#ffffff"
     bordercolor="#666666"
     borderopacity="1.0"
     inkscape:pageopacity="0.0"
     inkscape:pageshadow="2"
     inkscape:zoom="1"
     inkscape:cx="209.30237"
     inkscape:cy="350.44501"
     inkscape:document-units="px"
     inkscape:current-layer="layer1"
     showgrid="false"
     inkscape:window-width="1920"
     inkscape:window-height="1024"
     inkscape:window-x="-4"
     inkscape:window-y="-4"
     inkscape:window-maximized="1" />
  <metadata
     id="metadata7">
    <rdf:RDF>
      <cc:Work
         rdf:about="">
        <dc:format>image/svg+xml</dc:format>
        <dc:type
           rdf:resource="http://purl.org/dc/dcmitype/StillImage" />
        <dc:title>4.9 Движение легковых автомобилей</dc:title>
        <cc:license
           rdf:resource="http://creativecommons.org/licenses/by-sa/3.0/" />
        <dc:description>ГОСТ Р 52290-2004
Размеры и пропорции по типоразмеру I</dc:description>
      </cc:Work>
      <cc:License
         rdf:about="http://creativecommons.org/licenses/by-sa/3.0/">
        <cc:permits
           rdf:resource="http://creativecommons.org/ns#Reproduction" />
        <cc:permits
           rdf:resource="http://creativecommons.org/ns#Distribution" />
        <cc:requires
           rdf:resource="http://creativecommons.org/ns#Notice" />
        <cc:requires
           rdf:resource="http://creativecommons.org/ns#Attribution" />
        <cc:permits
           rdf:resource="http://creativecommons.org/ns#DerivativeWorks" />
        <cc:requires
           rdf:resource="http://creativecommons.org/ns#ShareAlike" />
      </cc:License>
    </rdf:RDF>
  </metadata>
  <g
     inkscape:label="Layer 1"
     inkscape:groupmode="layer"
     id="layer1"
     transform="translate(0,-452.36218)">
    <path
       transform="matrix(2.449473,0,0,3.2141217,1087.7204,-1829.9413)"
       d="m -199.11241,803.42432 c 0,51.5492 -54.83407,93.33809 -122.47533,93.33809 -67.64125,0 -122.47532,-41.78889 -122.47532,-93.33809 0,-51.54921 54.83407,-93.3381 122.47532,-93.3381 67.64126,0 122.47533,41.78889 122.47533,93.3381 z"
       sodipodi:ry="93.338097"
       sodipodi:rx="122.47533"
       sodipodi:cy="803.42432"
       sodipodi:cx="-321.58774"
       id="path7369"
       style="opacity:1;color:#000000;fill:#ffffff;fill-opacity:1;fill-rule:nonzero;stroke:none;stroke-width:1px;marker:none;visibility:visible;display:inline;overflow:visible;enable-background:accumulate"
       sodipodi:type="arc" />
    <path
       transform="matrix(13.525102,0,0,10.147505,1486.4308,-3633.998)"
       d="m -65.613615,432.25998 c 0,16.27327 -9.89766,29.46537 -22.107042,29.46537 -12.209383,0 -22.107043,-13.1921 -22.107043,-29.46537 0,-16.27328 9.89766,-29.46537 22.107043,-29.46537 12.209382,0 22.107042,13.19209 22.107042,29.46537 z"
       sodipodi:ry="29.465372"
       sodipodi:rx="22.107042"
       sodipodi:cy="432.25998"
       sodipodi:cx="-87.720657"
       id="path3003"
       style="color:#000000;fill:none;stroke:#000000;stroke-width:0.17071831000000001;stroke-miterlimit:4;stroke-opacity:1;stroke-dasharray:none;marker:none;visibility:visible;display:inline;overflow:visible;enable-background:accumulate;opacity:1"
       sodipodi:type="arc" />
    <path
       style="opacity:1;color:#000000;fill:#0d69e1;fill-opacity:1;fill-rule:nonzero;stroke:none;stroke-width:1px;marker:none;visibility:visible;display:inline;overflow:visible;enable-background:accumulate"
       d="M 300 20 C 145.36027 20 20 145.36028 20 300 C 20 454.63972 145.36027 580 300 580 C 454.63973 580 580 454.63972 580 300 C 580 145.36028 454.63973 20 300 20 z M 285.96875 193.5625 L 407.28125 193.5625 C 412.41575 193.5625 417.32165 195.78319 420.65625 199.6875 L 485.625 275.8125 C 489.09888 279.8799 490.55189 285.31179 489.53125 290.5625 L 480.34375 337.75 C 479.26552 343.29699 475.11452 347.75622 469.65625 349.21875 L 460.75 351.625 C 457.63393 328.86842 438.00566 311.3125 414.28125 311.3125 C 388.38986 311.3125 367.40625 332.2049 367.40625 357.96875 L 200.65625 357.96875 C 200.65625 332.2049 179.67264 311.3125 153.78125 311.3125 C 131.14605 311.3125 112.26781 327.28466 107.875 348.5 C 100.09939 348.27396 93.773068 342.07051 93.5 334.25 L 92.90625 300.9375 C 92.751518 292.07271 99.220177 284.48394 108 283.25 L 201.59375 270.09375 C 205.57578 269.53409 209.25758 267.62838 212 264.6875 L 273.125 199.125 C 276.44468 195.56509 281.10117 193.5625 285.96875 193.5625 z M 287.90625 207.40625 C 284.83201 207.40625 281.90915 208.68912 279.8125 210.9375 L 241.0625 252.5 C 239.14876 254.55224 238.0625 257.25642 238.0625 260.0625 C 238.0625 266.18461 243.03415 271.15625 249.15625 271.15625 L 414.03125 271.15625 C 414.75713 271.15625 415.47055 271.08231 416.1875 270.96875 C 423.74592 269.77162 428.91587 262.68339 427.71875 255.125 L 422 219.09375 C 420.93377 212.36185 415.1283 207.40625 408.3125 207.40625 L 287.90625 207.40625 z M 153.78125 319.1875 C 175.20863 319.1875 192.59375 336.54139 192.59375 357.96875 C 192.59375 379.3961 175.20863 396.78125 153.78125 396.78125 C 132.35394 396.78125 115 379.3961 115 357.96875 C 115 336.54139 132.35394 319.1875 153.78125 319.1875 z M 414.28125 319.1875 C 435.70861 319.1875 453.09375 336.54139 453.09375 357.96875 C 453.09375 379.3961 435.70861 396.78125 414.28125 396.78125 C 392.8539 396.78125 375.5 379.3961 375.5 357.96875 C 375.5 336.54139 392.8539 319.1875 414.28125 319.1875 z M 153.78125 334.875 C 141.02688 334.875 130.6875 345.21437 130.6875 357.96875 C 130.6875 370.72312 141.02688 381.0625 153.78125 381.0625 C 166.5356 381.0625 176.875 370.72312 176.875 357.96875 C 176.875 345.21437 166.5356 334.875 153.78125 334.875 z M 414.28125 334.875 C 401.52688 334.875 391.1875 345.21437 391.1875 357.96875 C 391.1875 370.72312 401.52688 381.0625 414.28125 381.0625 C 427.03563 381.0625 437.375 370.72312 437.375 357.96875 C 437.375 345.21437 427.03563 334.875 414.28125 334.875 z "
       transform="translate(0,452.36218)"
       id="path12367" />
  </g>
</svg>
