<?xml version="1.0" encoding="UTF-8" standalone="no"?>
<!-- Created with Inkscape (http://www.inkscape.org/) -->

<svg
   xmlns:dc="http://purl.org/dc/elements/1.1/"
   xmlns:cc="http://creativecommons.org/ns#"
   xmlns:rdf="http://www.w3.org/1999/02/22-rdf-syntax-ns#"
   xmlns:svg="http://www.w3.org/2000/svg"
   xmlns="http://www.w3.org/2000/svg"
   xmlns:sodipodi="http://sodipodi.sourceforge.net/DTD/sodipodi-0.dtd"
   xmlns:inkscape="http://www.inkscape.org/namespaces/inkscape"
   width="600"
   height="900"
   id="svg2"
   version="1.1"
   inkscape:version="0.48.4 r9939"
   sodipodi:docname="5.27.svg">
  <title
     id="title3004">5.29 Зона регулируемой стоянки</title>
  <defs
     id="defs4" />
  <sodipodi:namedview
     id="base"
     pagecolor="#ffffff"
     bordercolor="#666666"
     borderopacity="1.0"
     inkscape:pageopacity="0.0"
     inkscape:pageshadow="2"
     inkscape:zoom="0.5"
     inkscape:cx="106.65017"
     inkscape:cy="390.37462"
     inkscape:document-units="px"
     inkscape:current-layer="layer1"
     showgrid="false"
     inkscape:window-width="1920"
     inkscape:window-height="1024"
     inkscape:window-x="-4"
     inkscape:window-y="-4"
     inkscape:window-maximized="1" />
  <metadata
     id="metadata7">
    <rdf:RDF>
      <cc:Work
         rdf:about="">
        <dc:format>image/svg+xml</dc:format>
        <dc:type
           rdf:resource="http://purl.org/dc/dcmitype/StillImage" />
        <dc:title>5.29 Зона регулируемой стоянки</dc:title>
        <cc:license
           rdf:resource="http://creativecommons.org/licenses/by-sa/3.0/" />
        <dc:description>ГОСТ Р 52290-2004
Размеры и пропорции по типоразмеру I</dc:description>
      </cc:Work>
      <cc:License
         rdf:about="http://creativecommons.org/licenses/by-sa/3.0/">
        <cc:permits
           rdf:resource="http://creativecommons.org/ns#Reproduction" />
        <cc:permits
           rdf:resource="http://creativecommons.org/ns#Distribution" />
        <cc:requires
           rdf:resource="http://creativecommons.org/ns#Notice" />
        <cc:requires
           rdf:resource="http://creativecommons.org/ns#Attribution" />
        <cc:permits
           rdf:resource="http://creativecommons.org/ns#DerivativeWorks" />
        <cc:requires
           rdf:resource="http://creativecommons.org/ns#ShareAlike" />
      </cc:License>
    </rdf:RDF>
  </metadata>
  <g
     inkscape:label="Layer 1"
     inkscape:groupmode="layer"
     id="layer1"
     transform="translate(0,-152.36218)">
    <rect
       style="color:#000000;fill:#ffffff;fill-opacity:1;fill-rule:nonzero;stroke:none;stroke-width:4;marker:none;visibility:visible;display:inline;overflow:visible;enable-background:accumulate;opacity:1"
       id="rect3256"
       width="600"
       height="900"
       x="0"
       y="152.36218"
       rx="45"
       ry="45" />
    <rect
       ry="44"
       rx="44"
       y="153.36218"
       x="1"
       height="898"
       width="598"
       id="rect3041"
       style="color:#000000;fill:none;stroke:#000000;stroke-width:2;stroke-miterlimit:4;stroke-opacity:1;stroke-dasharray:none;marker:none;visibility:visible;display:inline;overflow:visible;enable-background:accumulate;opacity:1" />
    <path
       style="opacity:1;color:#000000;fill:#000000;fill-opacity:1;fill-rule:nonzero;stroke:none;stroke-width:3.54299997999999980;marker:none;visibility:visible;display:inline;overflow:visible;enable-background:accumulate"
       d="M 45 20 C 31.15 20 20 31.15 20 45 L 20 855 C 20 868.85 31.15 880 45 880 L 555 880 C 568.85 880 580 868.85 580 855 L 580 45 C 580 31.15 568.85 20 555 20 L 45 20 z M 45 30 L 555 30 C 563.31 30 570 36.69 570 45 L 570 855 C 570 863.31 563.31 870 555 870 L 45 870 C 36.69 870 30 863.31 30 855 L 30 45 C 30 36.69 36.69 30 45 30 z "
       transform="translate(0,152.36218)"
       id="rect8666" />
    <g
       style="font-size:154.01928710999999000px;font-style:normal;font-variant:normal;font-weight:normal;font-stretch:normal;line-height:125%;letter-spacing:-4.40625000000000000px;word-spacing:0px;opacity:1;fill:#000000;fill-opacity:1;stroke:none;font-family:Arial;-inkscape-font-specification:Arial"
       id="text8386">
      <path
         d="m 169.69022,271.0497 9.70309,0 c 3.88568,0.045 7.16496,1.30277 9.83785,3.77342 2.67279,2.47073 4.06536,5.88477 4.17772,10.24215 -0.13482,3.84083 -1.752,6.94043 -4.85154,9.2988 -3.09965,2.3584 -6.87307,3.57128 -11.32027,3.63866 -8.06349,-0.40429 -14.03807,-2.02147 -17.92377,-4.85155 -3.88575,-2.83005 -5.81738,-4.44723 -5.7949,-4.85154 l -9.70309,11.85933 c 0.20214,0.49415 3.30173,2.4707 9.29879,5.92966 5.99703,3.45898 13.67864,5.43553 23.04484,5.92967 10.30949,-0.40429 18.26062,-3.36912 23.85343,-8.8945 5.59269,-5.52535 8.42275,-11.18548 8.49021,-16.9804 -0.22635,-5.69671 -1.81025,-10.11568 -4.75172,-13.2569 -2.94161,-3.14115 -5.88315,-5.32401 -8.82463,-6.54859 -2.94159,-1.22449 -4.5255,-1.81013 -4.75171,-1.75694 0.18629,0.0599 1.49068,-0.41922 3.91318,-1.4375 2.42239,-1.01818 4.84483,-2.93483 7.26733,-5.74997 2.42238,-2.81504 3.72677,-6.88794 3.91319,-12.21871 -0.0899,-6.64834 -2.60553,-12.21863 -7.54685,-16.71088 -4.94145,-4.49208 -11.76954,-6.82801 -20.4843,-7.00778 -8.78544,0.40438 -15.8959,2.02156 -21.3314,4.85154 -5.43555,2.83015 -8.23352,4.44733 -8.39394,4.85155 l 8.16291,12.62942 c -0.0449,-0.34647 1.66209,-1.73263 5.12108,-4.15847 3.45894,-2.4257 8.93939,-3.81186 16.44135,-4.15847 5.77239,0.29207 9.59073,1.86433 11.45503,4.71679 1.8642,2.85259 2.71771,5.23344 2.56054,7.14255 0.0449,1.8643 -0.85357,4.06547 -2.6953,6.60349 -1.84185,2.53813 -4.89652,3.9307 -9.16403,4.17772 l -9.70309,0 z"
         style="fill:#000000;font-family:Russian Road Sign;-inkscape-font-specification:Russian Road Sign"
         id="path8875" />
      <path
         d="m 258.96605,221.45613 c -11.84012,0.32737 -20.6576,4.75536 -26.45248,13.28399 -5.79491,8.52878 -8.68273,19.19446 -8.66347,31.9971 -0.0193,12.80271 2.86856,23.4684 8.66347,31.99709 5.79488,8.52871 14.61236,12.95671 26.45248,13.28399 11.84002,-0.32729 20.6575,-4.75528 26.45247,-13.28399 5.79482,-8.52869 8.68264,-19.19438 8.66347,-31.99709 0.0192,-12.80264 -2.86865,-23.46833 -8.66347,-31.9971 -5.79497,-8.52863 -14.61245,-12.95662 -26.45247,-13.28399 z m 0,14.01557 c 6.04191,0.0899 10.93837,2.87506 14.68939,8.35544 3.7509,5.48051 5.68254,13.11719 5.79491,22.91008 -0.11237,9.79296 -2.044,17.42965 -5.7949,22.91007 -3.75102,5.48046 -8.64748,8.26561 -14.6894,8.35544 -6.04202,-0.0898 -10.93848,-2.87498 -14.68941,-8.35544 -3.75099,-5.48043 -5.68262,-13.11711 -5.79489,-22.91007 0.11228,-9.79289 2.04391,-17.42957 5.7949,-22.91008 3.75093,-5.48038 8.64739,-8.26552 14.6894,-8.35544 z"
         style="fill:#000000;font-family:Russian Road Sign;-inkscape-font-specification:Russian Road Sign"
         id="path8877" />
      <path
         d="m 313.84077,309.86206 15.0937,0 0,-38.81236 32.34363,0 0,38.81236 15.0937,0 0,-86.24969 -15.0937,0 0,34.49988 -32.34363,0 0,-34.49988 -15.0937,0 z"
         style="fill:#000000;font-family:Russian Road Sign;-inkscape-font-specification:Russian Road Sign"
         id="path8879" />
      <path
         d="m 422.62157,279.67467 10.78121,-36.65612 10.78122,36.65612 z m 2.15624,-56.0623 -28.03114,86.24969 16.17181,0 5.39061,-17.24994 30.18739,0 5.39061,17.24994 16.17181,0 -28.03115,-86.24969 z"
         style="fill:#000000;font-family:Russian Road Sign;-inkscape-font-specification:Russian Road Sign"
         id="path8881" />
    </g>
    <path
       inkscape:connector-curvature="0"
       style="opacity:1;color:#000000;fill:#0d69e1;fill-opacity:1;stroke:none;stroke-width:1.99999975999999990;marker:none;visibility:visible;display:inline;overflow:visible;enable-background:accumulate"
       d="m 116.25,364.23714 c -14.54251,0 -26.25,11.70751 -26.25,26.25001 l 0,367.49996 c 0,14.54251 11.70749,26.25 26.25,26.25 l 367.5,0 c 14.5425,0 26.25,-11.70749 26.25,-26.25 l 0,-367.49996 c 0,-14.5425 -11.7075,-26.25001 -26.25,-26.25001 l -367.5,0 z m 93.74999,45.00002 120,0 c 57.9899,0 105,47.01009 105,104.99998 0,57.98991 -47.0101,105 -105,105 l -75,0 0,120 -45,0 0,-329.99998 z m 45,44.99999 0,120 75,0 c 33.13709,0 60,-26.86292 60,-60.00001 0,-33.13707 -26.86291,-59.99999 -60,-59.99999 l -75,0 z"
       id="rect15300" />
    <path
       inkscape:connector-curvature="0"
       id="path9324"
       d="m 75,970.33095 0,35.15625 450,0 0,-56.25 -225,0 0,21.09375 z"
       style="opacity:1;fill:#000000;fill-opacity:1;stroke:none"
       sodipodi:nodetypes="ccccccc" />
    <path
       style="opacity:1;color:#000000;fill:#000000;fill-opacity:1;fill-rule:nonzero;stroke:none;stroke-width:3.54299997999999980;marker:none;visibility:visible;display:inline;overflow:visible;enable-background:accumulate"
       d="M 313.9375 666.5 C 313.5203 666.51271 313.11882 666.57121 312.71875 666.65625 L 272.25 675.25 L 231.78125 683.875 C 228.5807 684.5553 225.68147 687.72126 225.28125 690.96875 L 223.78125 703 L 220.71875 727.9375 C 220.71575 727.9605 220.72205 727.9772 220.71875 728 L 220 733.8125 C 215.42777 734.78435 212.52814 739.24028 213.5 743.8125 L 220.5 776.8125 C 221.47186 781.38474 225.959 784.28436 230.53125 783.3125 L 354.3125 757 C 358.88473 756.02814 361.78436 751.57222 360.8125 747 L 353.8125 714 C 352.84064 709.42777 348.35348 706.52814 343.78125 707.5 L 340.78125 702.5 C 340.76975 702.4802 340.7618 702.4572 340.75 702.4375 L 327.78125 680.90625 L 321.53125 670.5 C 320.05546 668.04656 316.85788 666.41102 313.9375 666.5 z M 312.5625 675.375 C 314.02265 675.33052 315.63717 676.14827 316.375 677.375 L 335.53125 709.25 L 281.90625 720.65625 L 228.25 732.0625 L 232.8125 695.125 C 233.01261 693.50126 234.46232 691.93388 236.0625 691.59375 L 274 683.5 L 311.9375 675.4375 C 312.13752 675.39498 312.35391 675.38135 312.5625 675.375 z "
       transform="translate(0,152.36218)"
       id="path9326" />
    <path
       id="path9328"
       d="m 231.3968,939.81493 3.5085,16.50621 c 1.45327,6.83718 8.17398,11.20162 15.01106,9.74831 6.83709,-1.45322 11.20158,-8.17397 9.74829,-15.01106 l -3.5085,-16.50622 -24.75935,5.26276 z"
       style="opacity:1;color:#000000;fill:#000000;fill-opacity:1;fill-rule:nonzero;stroke:none;stroke-width:1px;marker:none;visibility:visible;display:inline;overflow:visible;enable-background:accumulate"
       inkscape:connector-curvature="0" />
    <path
       inkscape:connector-curvature="0"
       style="opacity:1;color:#000000;fill:#000000;fill-opacity:1;fill-rule:nonzero;stroke:none;stroke-width:1px;marker:none;visibility:visible;display:inline;overflow:visible;enable-background:accumulate"
       d="m 330.43423,918.76387 3.50852,16.50625 c 1.45327,6.8371 8.17397,11.20157 15.01105,9.74829 6.83709,-1.45326 11.20157,-8.17396 9.74831,-15.01106 l -3.50851,-16.50624 -24.75937,5.26276 z"
       id="path9332" />
  </g>
</svg>
