<?xml version="1.0" encoding="UTF-8" standalone="no"?>
<!-- Created with Inkscape (http://www.inkscape.org/) -->

<svg
   xmlns:dc="http://purl.org/dc/elements/1.1/"
   xmlns:cc="http://creativecommons.org/ns#"
   xmlns:rdf="http://www.w3.org/1999/02/22-rdf-syntax-ns#"
   xmlns:svg="http://www.w3.org/2000/svg"
   xmlns="http://www.w3.org/2000/svg"
   xmlns:sodipodi="http://sodipodi.sourceforge.net/DTD/sodipodi-0.dtd"
   xmlns:inkscape="http://www.inkscape.org/namespaces/inkscape"
   width="600"
   height="900"
   id="svg2"
   version="1.1"
   inkscape:version="0.48.4 r9939"
   sodipodi:docname="5.18.svg">
  <title
     id="title3004">5.18 Место стоянки легковых такси</title>
  <defs
     id="defs4" />
  <sodipodi:namedview
     id="base"
     pagecolor="#ffffff"
     bordercolor="#666666"
     borderopacity="1.0"
     inkscape:pageopacity="0.0"
     inkscape:pageshadow="2"
     inkscape:zoom="1"
     inkscape:cx="454.85287"
     inkscape:cy="483.2877"
     inkscape:document-units="px"
     inkscape:current-layer="layer1"
     showgrid="false"
     inkscape:window-width="1920"
     inkscape:window-height="1024"
     inkscape:window-x="-4"
     inkscape:window-y="-4"
     inkscape:window-maximized="1" />
  <metadata
     id="metadata7">
    <rdf:RDF>
      <cc:Work
         rdf:about="">
        <dc:format>image/svg+xml</dc:format>
        <dc:type
           rdf:resource="http://purl.org/dc/dcmitype/StillImage" />
        <dc:title>5.18 Место стоянки легковых такси</dc:title>
        <cc:license
           rdf:resource="http://creativecommons.org/licenses/by-sa/3.0/" />
        <dc:contributor>
          <cc:Agent>
            <dc:title />
          </cc:Agent>
        </dc:contributor>
        <dc:description>ГОСТ Р 52290-2004
Размеры и пропорции по типоразмеру I</dc:description>
      </cc:Work>
      <cc:License
         rdf:about="http://creativecommons.org/licenses/by-sa/3.0/">
        <cc:permits
           rdf:resource="http://creativecommons.org/ns#Reproduction" />
        <cc:permits
           rdf:resource="http://creativecommons.org/ns#Distribution" />
        <cc:requires
           rdf:resource="http://creativecommons.org/ns#Notice" />
        <cc:requires
           rdf:resource="http://creativecommons.org/ns#Attribution" />
        <cc:permits
           rdf:resource="http://creativecommons.org/ns#DerivativeWorks" />
        <cc:requires
           rdf:resource="http://creativecommons.org/ns#ShareAlike" />
      </cc:License>
    </rdf:RDF>
  </metadata>
  <g
     inkscape:label="Layer 1"
     inkscape:groupmode="layer"
     id="layer1"
     transform="translate(0,-152.36218)">
    <rect
       y="152.36218"
       x="0"
       height="900"
       width="600"
       id="rect8073"
       style="opacity:1;color:#000000;fill:#ffffff;fill-opacity:1;fill-rule:nonzero;stroke:none;stroke-width:3.54299997999999980;marker:none;visibility:visible;display:inline;overflow:visible;enable-background:accumulate"
       rx="45"
       ry="45" />
    <path
       style="opacity:1;color:#000000;fill:#0d69e1;fill-opacity:1;fill-rule:nonzero;stroke:none;stroke-width:3.54299997999999980;marker:none;visibility:visible;display:inline;overflow:visible;enable-background:accumulate"
       d="M 45 20 C 31.15 20 20 31.15 20 45 L 20 855 C 20 868.85 31.15 880 45 880 L 555 880 C 568.85 880 580 868.85 580 855 L 580 45 C 580 31.15 568.85 20 555 20 L 45 20 z M 101.25 150 L 498.75 150 C 523.68 150 543.75 170.07 543.75 195 L 543.75 592.5 C 543.75 617.43 523.68 637.5 498.75 637.5 L 101.25 637.5 C 76.32 637.5 56.25 617.43 56.25 592.5 L 56.25 195 C 56.25 170.07 76.32 150 101.25 150 z "
       transform="translate(0,152.36218)"
       id="rect9536" />
    <rect
       ry="44"
       rx="44"
       y="153.36218"
       x="1"
       height="898"
       width="598"
       id="rect3041"
       style="color:#000000;fill:none;stroke:#000000;stroke-width:2;stroke-miterlimit:4;stroke-opacity:1;stroke-dasharray:none;marker:none;visibility:visible;display:inline;overflow:visible;enable-background:accumulate;opacity:1" />
    <path
       style="opacity:1;color:#000000;fill:#000000;fill-opacity:1;fill-rule:nonzero;stroke:none;stroke-width:3.54299997999999980;marker:none;visibility:visible;display:inline;overflow:visible;enable-background:accumulate"
       d="M 273.3125 365.625 L 262.5 384.375 L 231.875 384.375 C 226.48568 384.375 220.72563 388.49887 218.96875 393.59375 L 212.4375 412.46875 L 198.9375 451.59375 C 198.925 451.62975 198.91795 451.68288 198.90625 451.71875 L 195.78125 460.8125 C 188.08226 460.8125 181.875 467.01978 181.875 474.71875 L 181.875 530.28125 C 181.875 537.98022 188.08226 544.1875 195.78125 544.1875 L 404.21875 544.1875 C 411.91778 544.1875 418.125 537.98022 418.125 530.28125 L 418.125 474.71875 C 418.125 467.01978 411.91777 460.8125 404.21875 460.8125 L 401.09375 451.71875 C 401.08155 451.68285 401.0751 451.62972 401.0625 451.59375 L 387.5625 412.46875 L 381.03125 393.59375 C 379.27419 388.49887 373.51422 384.375 368.125 384.375 L 337.5 384.375 L 326.6875 365.625 L 273.3125 365.625 z M 236.09375 398.28125 L 300 398.28125 L 363.90625 398.28125 C 366.60072 398.28125 369.46532 400.32756 370.34375 402.875 L 390.34375 460.8125 L 300 460.8125 L 209.65625 460.8125 L 229.65625 402.875 C 230.5346 400.32756 233.39918 398.28125 236.09375 398.28125 z M 383.375 474 C 394.8877 474 404.21875 483.33105 404.21875 494.84375 C 404.21875 506.35645 394.8877 515.6875 383.375 515.6875 C 371.8623 515.6875 362.53125 506.35645 362.53125 494.84375 C 362.53125 483.33105 371.8623 474 383.375 474 z M 215.53125 474.71875 C 215.88655 474.70074 216.26523 474.71875 216.625 474.71875 C 228.1377 474.71875 237.46875 484.0498 237.46875 495.5625 C 237.46875 507.0752 228.1377 516.40625 216.625 516.40625 C 205.1123 516.40625 195.78125 507.0752 195.78125 495.5625 C 195.78125 484.40957 204.51707 475.27706 215.53125 474.71875 z "
       transform="translate(0,152.36218)"
       id="path8093" />
    <path
       id="path8095"
       d="m 195.77205,703.50192 0,27.79412 c 0,11.5127 9.33291,20.84558 20.84558,20.84558 11.5127,0 20.84561,-9.33288 20.84561,-20.84558 l 0,-27.79412 -41.69119,0 z"
       style="opacity:1;color:#000000;fill:#000000;fill-opacity:1;fill-rule:nonzero;stroke:none;stroke-width:1px;marker:none;visibility:visible;display:inline;overflow:visible;enable-background:accumulate"
       inkscape:connector-curvature="0" />
    <path
       inkscape:connector-curvature="0"
       style="opacity:1;color:#000000;fill:#000000;fill-opacity:1;fill-rule:nonzero;stroke:none;stroke-width:1px;marker:none;visibility:visible;display:inline;overflow:visible;enable-background:accumulate"
       d="m 362.53679,703.50192 0,27.79412 c 0,11.5127 9.33292,20.84558 20.84559,20.84558 11.5126,0 20.84551,-9.33288 20.84551,-20.84558 l 0,-27.79412 -41.6911,0 z"
       id="path8103" />
    <g
       style="font-size:143.49674988px;font-style:normal;font-variant:normal;font-weight:normal;font-stretch:normal;line-height:125%;letter-spacing:-5.60624981px;word-spacing:0px;fill:#000000;fill-opacity:1;stroke:none;font-family:Arial;-inkscape-font-specification:Arial"
       id="text8121">
      <path
         d="m 149.99759,396.11218 0,11.04911 16.9324,0 0,45.20089 12.05357,0 0,-45.20089 16.7889,0 0,-11.04911 z"
         style="fill:#000000;font-family:Russian Road Sign;-inkscape-font-specification:Russian Road Sign"
         id="path8293" />
      <path
         d="m 229.61688,394.10325 c -4.95958,0.10469 -9.10299,0.89989 -12.43025,2.38561 -3.3273,1.48582 -6.21514,3.03437 -8.6635,4.64564 l 6.02678,10.04465 c 1.56946,-1.61129 3.70394,-3.15984 6.40346,-4.64566 2.69948,-1.48572 5.58731,-2.28092 8.66351,-2.38559 3.13891,0.14653 5.90119,1.10914 8.28683,2.88783 2.38556,1.77878 3.64113,3.49474 3.76674,5.14788 l 0,4.01786 c -0.42167,-0.10537 -3.37306,0.21705 -8.85417,0.96726 -5.48118,0.75028 -10.96233,2.5608 -16.44345,5.43155 -5.48117,2.87081 -8.43255,7.4343 -8.85417,13.69047 0.25111,6.0268 2.26004,10.54688 6.02679,13.56027 3.76672,3.01339 7.78457,4.52009 12.05357,4.52009 4.05968,-0.12556 7.49159,-1.13002 10.29576,-3.01339 2.80409,-1.88337 4.72931,-3.8923 5.77567,-6.02679 0.50218,3.8923 1.75776,6.40346 3.76674,7.53348 2.00888,1.13002 4.77115,1.63226 8.28683,1.5067 l 5.02232,-10.04464 c -1.08823,0.10464 -2.1764,-0.10462 -3.26451,-0.62779 -1.08823,-0.52315 -1.67416,-1.988 -1.75781,-4.39453 l 0,-27.12054 c -0.37673,-5.14784 -3.139,-9.41681 -8.28683,-12.80692 -5.14792,-3.39002 -10.42136,-5.14783 -15.82031,-5.27344 z m 12.05357,31.1384 0,10.04464 c -0.16746,0.81614 -1.59044,2.44839 -4.26898,4.89676 -2.67861,2.44839 -5.60829,3.82953 -8.78906,4.14342 -1.21376,0.0628 -2.80416,-0.56501 -4.77121,-1.88338 -1.9671,-1.31834 -3.05527,-3.70394 -3.2645,-7.1568 0.16739,-2.93277 1.61828,-4.9913 4.35268,-6.1756 2.73434,-1.18426 5.74773,-1.97791 9.04017,-2.38095 3.29237,-0.403 5.85934,-0.89903 7.7009,-1.48809 z"
         style="fill:#000000;font-family:Russian Road Sign;-inkscape-font-specification:Russian Road Sign"
         id="path8295" />
      <path
         d="m 273.31097,396.11218 0,56.25 12.05358,0 0,-26.11607 c 0.51117,-0.0747 1.03134,-0.14048 1.5605,-0.19731 0.52911,-0.0568 1.01341,-0.0867 1.45289,-0.0897 5.53946,0.38268 9.74267,3.34824 12.60961,8.89668 2.86687,5.54849 6.02973,11.38394 9.4886,17.50638 l 15.06697,0 c -3.41294,-3.4607 -6.23323,-7.49273 -8.46089,-12.09609 -2.22777,-4.60333 -4.62289,-8.81606 -7.18537,-12.63818 -2.56258,-3.82207 -6.05252,-6.2916 -10.46981,-7.40859 2.42165,-0.71478 4.56167,-2.21882 6.42006,-4.51212 1.8583,-2.29322 3.82826,-4.53068 5.90987,-6.71237 2.0815,-2.18161 4.66795,-3.46243 7.75935,-3.84247 l -3.01339,-10.04464 c -4.17469,0.57846 -7.94276,2.56259 -11.30421,5.95238 -3.36154,3.38989 -6.52374,6.72393 -9.48661,10.00212 -2.96294,3.27827 -5.93381,5.03919 -8.91263,5.28274 -0.22124,0.003 -0.4604,-0.003 -0.71747,-0.0179 -0.25712,-0.0149 -0.49628,-0.0568 -0.71747,-0.12555 l 0,-20.08929 z"
         style="fill:#000000;font-family:Russian Road Sign;-inkscape-font-specification:Russian Road Sign"
         id="path8297" />
      <path
         d="m 363.11631,394.10325 c -7.72185,0.12562 -14.1253,2.88789 -19.21038,8.28683 -5.08511,5.39905 -7.72183,12.6814 -7.91015,21.8471 0.18833,9.16576 2.82504,16.44811 7.91015,21.8471 5.08508,5.399 11.48853,8.16127 19.21038,8.28683 5.65904,-0.0389 10.59167,-1.53958 14.79791,-4.50215 4.20614,-2.96257 7.30922,-7.15381 9.30924,-12.57374 l -11.3361,-4.30485 c -1.09719,3.67408 -2.7414,6.47821 -4.93264,8.41239 -2.19133,1.9342 -4.80413,2.90877 -7.83841,2.92371 -4.10159,-0.0837 -7.4498,-1.92522 -10.04464,-5.52456 -2.59489,-3.59931 -3.93418,-8.45422 -4.01786,-14.56473 0.0837,-6.11046 1.42297,-10.96536 4.01786,-14.56473 2.59484,-3.59929 5.94305,-5.4408 10.04464,-5.52455 3.03428,0.015 5.64708,0.98956 7.83841,2.9237 2.19124,1.93424 3.83545,4.73836 4.93264,8.41239 l 11.3361,-4.30484 c -2.00002,-5.41988 -5.1031,-9.61113 -9.30924,-12.57375 -4.20624,-2.96251 -9.13887,-4.46323 -14.79791,-4.50215 z"
         style="fill:#000000;font-family:Russian Road Sign;-inkscape-font-specification:Russian Road Sign"
         id="path8299" />
      <path
         d="m 401.78808,396.11218 0,56.25 13.05804,0.0205 23.10268,-38.1901 0,38.16964 12.05357,0 0,-56.25 -13.05803,0 -23.10268,38.16964 0,-38.16964 z"
         style="fill:#000000;font-family:Russian Road Sign;-inkscape-font-specification:Russian Road Sign"
         id="path8301" />
    </g>
  </g>
</svg>
