<?xml version="1.0" encoding="UTF-8" standalone="no"?>
<!-- Created with Inkscape (http://www.inkscape.org/) -->

<svg
   xmlns:dc="http://purl.org/dc/elements/1.1/"
   xmlns:cc="http://creativecommons.org/ns#"
   xmlns:rdf="http://www.w3.org/1999/02/22-rdf-syntax-ns#"
   xmlns:svg="http://www.w3.org/2000/svg"
   xmlns="http://www.w3.org/2000/svg"
   xmlns:sodipodi="http://sodipodi.sourceforge.net/DTD/sodipodi-0.dtd"
   xmlns:inkscape="http://www.inkscape.org/namespaces/inkscape"
   width="700"
   height="700"
   id="svg2"
   version="1.1"
   inkscape:version="0.48.4 r9939"
   sodipodi:docname="5.15.3 B.svg">
  <title
     id="title14100">5.15.3 Начало  полосы</title>
  <defs
     id="defs4" />
  <sodipodi:namedview
     id="base"
     pagecolor="#ffffff"
     bordercolor="#666666"
     borderopacity="1.0"
     inkscape:pageopacity="0.0"
     inkscape:pageshadow="2"
     inkscape:zoom="1"
     inkscape:cx="338.94239"
     inkscape:cy="354.00721"
     inkscape:document-units="px"
     inkscape:current-layer="layer1"
     showgrid="false"
     inkscape:window-width="1920"
     inkscape:window-height="1024"
     inkscape:window-x="-4"
     inkscape:window-y="-4"
     inkscape:window-maximized="1"
     inkscape:snap-bbox="false"
     inkscape:bbox-paths="true"
     inkscape:bbox-nodes="true"
     inkscape:snap-bbox-edge-midpoints="true"
     inkscape:snap-bbox-midpoints="true"
     inkscape:object-paths="false"
     inkscape:snap-intersection-paths="true"
     inkscape:object-nodes="false"
     inkscape:snap-smooth-nodes="false"
     inkscape:snap-nodes="true"
     showguides="true"
     inkscape:guide-bbox="true"
     inkscape:snap-object-midpoints="true"
     inkscape:snap-center="true" />
  <metadata
     id="metadata7">
    <rdf:RDF>
      <cc:Work
         rdf:about="">
        <dc:format>image/svg+xml</dc:format>
        <dc:type
           rdf:resource="http://purl.org/dc/dcmitype/StillImage" />
        <dc:title>5.15.3 Начало  полосы</dc:title>
        <cc:license
           rdf:resource="http://creativecommons.org/licenses/by-sa/3.0/" />
        <dc:description>ГОСТ Р 52290-2004
Размеры и пропорции по типоразмеру II</dc:description>
      </cc:Work>
      <cc:License
         rdf:about="http://creativecommons.org/licenses/by-sa/3.0/">
        <cc:permits
           rdf:resource="http://creativecommons.org/ns#Reproduction" />
        <cc:permits
           rdf:resource="http://creativecommons.org/ns#Distribution" />
        <cc:requires
           rdf:resource="http://creativecommons.org/ns#Notice" />
        <cc:requires
           rdf:resource="http://creativecommons.org/ns#Attribution" />
        <cc:permits
           rdf:resource="http://creativecommons.org/ns#DerivativeWorks" />
        <cc:requires
           rdf:resource="http://creativecommons.org/ns#ShareAlike" />
      </cc:License>
    </rdf:RDF>
  </metadata>
  <g
     inkscape:label="Layer 1"
     inkscape:groupmode="layer"
     id="layer1"
     transform="translate(0,-352.36218)">
    <rect
       ry="45"
       rx="45"
       style="color:#000000;fill:#ffffff;fill-opacity:1;stroke:none;stroke-width:2;marker:none;visibility:visible;display:inline;overflow:visible;enable-background:accumulate;opacity:1"
       id="rect7667"
       width="700"
       height="700"
       x="0"
       y="352.36218" />
    <rect
       y="353.36218"
       x="1"
       height="698"
       width="698"
       id="rect7101"
       style="color:#000000;fill:none;stroke:#000000;stroke-width:1.99999988000000010;stroke-miterlimit:4;stroke-opacity:1;stroke-dasharray:none;marker:none;visibility:visible;display:inline;overflow:visible;enable-background:accumulate;opacity:1"
       rx="44"
       ry="44" />
    <path
       style="opacity:1;color:#000000;fill:#0d69e1;fill-opacity:1;fill-rule:nonzero;stroke:none;stroke-width:3.54299997999999980;marker:none;visibility:visible;display:inline;overflow:visible;enable-background:accumulate"
       d="M 45 20 C 31.15 20 20 31.15 20 45 L 20 655 C 20 668.85 31.15 680 45 680 L 186.65625 680 L 186.65625 676.65625 L 186.65625 466.125 C 149.16836 451.9731 122.5 415.78487 122.5 373.34375 C 122.5 330.90263 149.16836 294.68315 186.65625 280.53125 L 186.65625 233.34375 L 128.34375 233.34375 L 221.65625 70 L 315 233.34375 L 256.65625 233.34375 L 256.65625 280.53125 C 294.14413 294.68315 320.84375 330.90263 320.84375 373.34375 C 320.84375 415.78487 294.14413 451.9731 256.65625 466.125 L 256.65625 548.6875 L 419.40625 385.9375 C 434.72172 370.62196 443.34375 349.84678 443.34375 328.1875 L 443.34375 233.34375 L 385 233.34375 L 478.34375 70 L 571.65625 233.34375 L 513.34375 233.34375 L 513.34375 328.1875 C 513.34375 368.41195 497.38049 406.99452 468.9375 435.4375 L 277.15625 627.15625 C 264.02871 640.28384 256.65625 658.09105 256.65625 676.65625 L 256.65625 680 L 655 680 C 668.85 680 680 668.85 680 655 L 680 45 C 680 31.15 668.85 20 655 20 L 361.65625 20 L 361.65625 93.34375 L 338.34375 93.34375 L 338.34375 20 L 45 20 z M 338.34375 116.65625 L 361.65625 116.65625 L 361.65625 186.65625 L 338.34375 186.65625 L 338.34375 116.65625 z M 338.34375 210 L 361.65625 210 L 361.65625 280 L 338.34375 280 L 338.34375 210 z M 221.65625 285.84375 C 173.33133 285.84375 134.15625 325.01878 134.15625 373.34375 C 134.15625 421.6686 173.33133 460.84375 221.65625 460.84375 C 269.98117 460.84375 309.15625 421.6686 309.15625 373.34375 C 309.15625 325.01878 269.98117 285.84375 221.65625 285.84375 z M 257.0625 335.0625 C 264.64576 335.33202 270.69997 339.06399 275.25 346.25 C 279.79992 353.43614 282.13327 362.4744 282.25 373.34375 C 282.13327 384.73817 279.79992 393.91393 275.25 400.875 C 270.69997 407.83609 264.64576 411.39931 257.0625 411.59375 C 249.47917 411.3993 243.39371 407.83608 238.84375 400.875 C 234.29376 393.91394 231.96041 384.73817 231.84375 373.34375 C 231.96041 361.9494 234.29376 352.77364 238.84375 345.8125 C 243.39371 338.85149 249.47917 335.25702 257.0625 335.0625 z M 197.46875 336 L 208.6875 336 L 208.6875 384.53125 L 218.9375 384.53125 L 214.6875 395.71875 L 209.625 395.71875 L 209.625 410.65625 L 196.5625 410.65625 L 196.5625 395.71875 L 161.09375 395.71875 L 161.09375 384.53125 L 197.46875 336 z M 256.375 346.65625 C 253.03224 346.85927 250.3333 348.98966 248.28125 353 C 246.09235 357.27781 244.96178 364.06606 244.90625 373.34375 C 244.96178 382.62151 246.09235 389.37851 248.28125 393.65625 C 250.4701 397.93402 253.40693 400.05557 257.0625 400 C 260.718 400.05556 263.62358 397.93402 265.8125 393.65625 C 268.00133 389.37851 269.1319 382.62152 269.1875 373.34375 C 269.1319 364.06605 268.00134 357.27781 265.8125 353 C 263.62358 348.7223 260.718 346.60076 257.0625 346.65625 C 256.83403 346.65278 256.59785 346.64272 256.375 346.65625 z M 196.5625 355.59375 L 175.09375 384.53125 L 196.5625 384.53125 L 196.5625 355.59375 z "
       transform="translate(0,352.36218)"
       id="rect9536" />
  </g>
</svg>
