<?xml version="1.0" encoding="UTF-8" standalone="no"?>
<!-- Created with Inkscape (http://www.inkscape.org/) -->

<svg
   xmlns:dc="http://purl.org/dc/elements/1.1/"
   xmlns:cc="http://creativecommons.org/ns#"
   xmlns:rdf="http://www.w3.org/1999/02/22-rdf-syntax-ns#"
   xmlns:svg="http://www.w3.org/2000/svg"
   xmlns="http://www.w3.org/2000/svg"
   xmlns:sodipodi="http://sodipodi.sourceforge.net/DTD/sodipodi-0.dtd"
   xmlns:inkscape="http://www.inkscape.org/namespaces/inkscape"
   width="700"
   height="700"
   id="svg2"
   version="1.1"
   inkscape:version="0.48.4 r9939"
   sodipodi:docname="5.13.1.svg">
  <title
     id="title3002">5.13.1 Выезд на дорогу с полосой для маршрутных транспортных средств</title>
  <defs
     id="defs4" />
  <sodipodi:namedview
     id="base"
     pagecolor="#ffffff"
     bordercolor="#666666"
     borderopacity="1.0"
     inkscape:pageopacity="0.0"
     inkscape:pageshadow="2"
     inkscape:zoom="0.70710678"
     inkscape:cx="608.50792"
     inkscape:cy="305.32657"
     inkscape:document-units="px"
     inkscape:current-layer="layer1"
     showgrid="false"
     inkscape:window-width="1920"
     inkscape:window-height="1024"
     inkscape:window-x="-4"
     inkscape:window-y="-4"
     inkscape:window-maximized="1"
     inkscape:snap-bbox="false"
     inkscape:bbox-paths="true"
     inkscape:bbox-nodes="true"
     inkscape:snap-bbox-edge-midpoints="true"
     inkscape:snap-bbox-midpoints="true"
     inkscape:object-paths="false"
     inkscape:snap-intersection-paths="true"
     inkscape:object-nodes="false"
     inkscape:snap-smooth-nodes="false"
     inkscape:snap-nodes="true"
     showguides="true"
     inkscape:guide-bbox="true"
     inkscape:snap-object-midpoints="true"
     inkscape:snap-center="true" />
  <metadata
     id="metadata7">
    <rdf:RDF>
      <cc:Work
         rdf:about="">
        <dc:format>image/svg+xml</dc:format>
        <dc:type
           rdf:resource="http://purl.org/dc/dcmitype/StillImage" />
        <dc:title>5.13.1 Выезд на дорогу с полосой для маршрутных транспортных средств</dc:title>
        <cc:license
           rdf:resource="http://creativecommons.org/licenses/by-sa/3.0/" />
        <dc:description>ГОСТ Р 52290-2004
Размеры и пропорции по типоразмеру II</dc:description>
      </cc:Work>
      <cc:License
         rdf:about="http://creativecommons.org/licenses/by-sa/3.0/">
        <cc:permits
           rdf:resource="http://creativecommons.org/ns#Reproduction" />
        <cc:permits
           rdf:resource="http://creativecommons.org/ns#Distribution" />
        <cc:requires
           rdf:resource="http://creativecommons.org/ns#Notice" />
        <cc:requires
           rdf:resource="http://creativecommons.org/ns#Attribution" />
        <cc:permits
           rdf:resource="http://creativecommons.org/ns#DerivativeWorks" />
        <cc:requires
           rdf:resource="http://creativecommons.org/ns#ShareAlike" />
      </cc:License>
    </rdf:RDF>
  </metadata>
  <g
     inkscape:label="Layer 1"
     inkscape:groupmode="layer"
     id="layer1"
     transform="translate(0,-352.36218)">
    <rect
       ry="45"
       rx="45"
       style="color:#000000;fill:#ffffff;fill-opacity:1;stroke:none;stroke-width:2;marker:none;visibility:visible;display:inline;overflow:visible;enable-background:accumulate;opacity:1"
       id="rect7667"
       width="700"
       height="700"
       x="0"
       y="352.36218" />
    <path
       style="opacity:1;color:#000000;fill:#0d69e1;fill-opacity:1;fill-rule:nonzero;stroke:none;stroke-width:3.54299997999999980;marker:none;visibility:visible;display:inline;overflow:visible;enable-background:accumulate"
       d="M 45 20 C 31.15 20 20 31.15 20 45 L 20 338.34375 L 680 338.34375 L 680 273 L 525 273 C 525 240.78344 498.87293 214.65625 466.65625 214.65625 C 434.43968 214.65625 408.34375 240.78344 408.34375 273 L 396.65625 273 C 383.72958 273 373.34375 262.58292 373.34375 249.65625 L 373.34375 203.46875 L 373.34375 164.0625 C 373.34375 159.96657 374.42078 155.95326 376.46875 152.40625 L 417.3125 81.65625 C 421.48065 74.4368 429.16382 70 437.5 70 L 680 70 L 680 45 C 680 31.15 668.85 20 655 20 L 45 20 z M 439.40625 86.34375 C 435.54157 86.601268 432.04773 88.772184 430.09375 92.15625 L 403.15625 138.84375 C 402.13227 140.61731 401.59375 142.6084 401.59375 144.65625 C 401.59375 151.09963 406.80673 156.34375 413.25 156.34375 L 455 156.34375 L 466.65625 156.34375 C 473.11958 156.34375 478.34375 151.11958 478.34375 144.65625 L 478.34375 98 C 478.34375 91.53667 473.11958 86.34375 466.65625 86.34375 L 455 86.34375 L 440.1875 86.34375 C 439.92699 86.34375 439.6639 86.326582 439.40625 86.34375 z M 513.34375 86.34375 C 506.88042 86.34375 501.65625 91.53667 501.65625 98 L 501.65625 144.65625 C 501.65625 151.11958 506.88042 156.34375 513.34375 156.34375 L 583.34375 156.34375 C 589.80709 156.34375 595 151.11958 595 144.65625 L 595 98 C 595 91.53667 589.80709 86.34375 583.34375 86.34375 L 513.34375 86.34375 z M 630 86.34375 C 623.53667 86.34375 618.34375 91.53667 618.34375 98 L 618.34375 144.65625 C 618.34375 151.11958 623.53667 156.34375 630 156.34375 L 680 156.34375 L 680 86.34375 L 630 86.34375 z M 233.34375 93.34375 L 233.34375 151.65625 L 350 151.65625 L 350 221.65625 L 233.34375 221.65625 L 233.34375 280 L 70 186.65625 L 233.34375 93.34375 z M 466.65625 226.34375 C 492.42955 226.34375 513.34375 247.22681 513.34375 273 C 513.34375 298.77353 492.42955 319.65625 466.65625 319.65625 C 440.88295 319.65625 420 298.77353 420 273 C 420 247.22681 440.88295 226.34375 466.65625 226.34375 z M 466.65625 249.65625 C 453.7696 249.65625 443.34375 260.11346 443.34375 273 C 443.34375 285.88688 453.7696 296.34375 466.65625 296.34375 C 479.5429 296.34375 490 285.88688 490 273 C 490 260.11346 479.5429 249.65625 466.65625 249.65625 z M 20 361.65625 L 20 490 L 466.65625 490 L 466.65625 431.65625 L 630 525 L 466.65625 618.34375 L 466.65625 560 L 20 560 L 20 655 C 20 668.85 31.15 680 45 680 L 655 680 C 668.85 680 680 668.85 680 655 L 680 361.65625 L 20 361.65625 z "
       transform="translate(0,352.36218)"
       id="rect9536" />
    <rect
       y="353.36218"
       x="1"
       height="698"
       width="698"
       id="rect7101"
       style="color:#000000;fill:none;stroke:#000000;stroke-width:2;stroke-miterlimit:4;stroke-opacity:1;stroke-dasharray:none;marker:none;visibility:visible;display:inline;overflow:visible;enable-background:accumulate;opacity:1"
       rx="44"
       ry="44" />
  </g>
</svg>
