<?xml version="1.0" encoding="UTF-8" standalone="no"?>
<!-- Created with Inkscape (http://www.inkscape.org/) -->

<svg
   xmlns:dc="http://purl.org/dc/elements/1.1/"
   xmlns:cc="http://creativecommons.org/ns#"
   xmlns:rdf="http://www.w3.org/1999/02/22-rdf-syntax-ns#"
   xmlns:svg="http://www.w3.org/2000/svg"
   xmlns="http://www.w3.org/2000/svg"
   xmlns:sodipodi="http://sodipodi.sourceforge.net/DTD/sodipodi-0.dtd"
   xmlns:inkscape="http://www.inkscape.org/namespaces/inkscape"
   width="1050"
   height="350"
   id="svg2"
   version="1.1"
   inkscape:version="0.48.4 r9939"
   sodipodi:docname="5.26.svg">
  <title
     id="title3006">5.25 Начало населенного пункта</title>
  <defs
     id="defs4" />
  <sodipodi:namedview
     id="base"
     pagecolor="#ffffff"
     bordercolor="#666666"
     borderopacity="1.0"
     inkscape:pageopacity="0.0"
     inkscape:pageshadow="2"
     inkscape:zoom="1"
     inkscape:cx="421.36054"
     inkscape:cy="189.92186"
     inkscape:document-units="px"
     inkscape:current-layer="layer1"
     showgrid="false"
     inkscape:window-width="1920"
     inkscape:window-height="1024"
     inkscape:window-x="-4"
     inkscape:window-y="-4"
     inkscape:window-maximized="1"
     inkscape:snap-bbox="true"
     inkscape:bbox-paths="true"
     inkscape:bbox-nodes="true"
     inkscape:snap-bbox-edge-midpoints="true"
     inkscape:snap-bbox-midpoints="true"
     inkscape:object-paths="true"
     inkscape:snap-intersection-paths="true"
     inkscape:object-nodes="true"
     inkscape:snap-smooth-nodes="true"
     inkscape:snap-midpoints="true"
     inkscape:snap-object-midpoints="true" />
  <metadata
     id="metadata7">
    <rdf:RDF>
      <cc:Work
         rdf:about="">
        <dc:format>image/svg+xml</dc:format>
        <dc:type
           rdf:resource="http://purl.org/dc/dcmitype/StillImage" />
        <dc:title>5.25 Начало населенного пункта</dc:title>
        <cc:license
           rdf:resource="http://creativecommons.org/licenses/by-sa/3.0/" />
        <dc:description>ГОСТ Р 52290-2004</dc:description>
      </cc:Work>
      <cc:License
         rdf:about="http://creativecommons.org/licenses/by-sa/3.0/">
        <cc:permits
           rdf:resource="http://creativecommons.org/ns#Reproduction" />
        <cc:permits
           rdf:resource="http://creativecommons.org/ns#Distribution" />
        <cc:requires
           rdf:resource="http://creativecommons.org/ns#Notice" />
        <cc:requires
           rdf:resource="http://creativecommons.org/ns#Attribution" />
        <cc:permits
           rdf:resource="http://creativecommons.org/ns#DerivativeWorks" />
        <cc:requires
           rdf:resource="http://creativecommons.org/ns#ShareAlike" />
      </cc:License>
    </rdf:RDF>
  </metadata>
  <g
     inkscape:label="Layer 1"
     inkscape:groupmode="layer"
     id="layer1"
     transform="translate(0,-702.36218)">
    <rect
       ry="45"
       rx="45"
       style="color:#000000;fill:#ffffff;fill-opacity:1;fill-rule:nonzero;stroke:none;stroke-width:3.54299997999999980;marker:none;visibility:visible;display:inline;overflow:visible;enable-background:accumulate;opacity:1"
       id="rect7863"
       width="1050"
       height="350"
       x="0"
       y="702.36218" />
    <path
       style="color:#000000;fill:#0d69e1;fill-opacity:1;fill-rule:nonzero;stroke:none;stroke-width:3.54299997999999980;marker:none;visibility:visible;display:inline;overflow:visible;enable-background:accumulate;opacity:1"
       d="M 45 10 C 25.61 10 10 25.61 10 45 L 10 305 C 10 324.39 25.61 340 45 340 L 1005 340 C 1024.39 340 1040 324.39 1040 305 L 1040 45 C 1040 25.61 1024.39 10 1005 10 L 45 10 z M 135.78125 96.25 C 156.37259 96.81935 171.70304 104.51136 181.78125 119.34375 C 191.8592 134.1764 196.87705 152.73455 196.84375 175 C 196.87709 197.2656 191.8592 215.82375 181.78125 230.65625 C 171.70305 245.48879 156.3726 253.1808 135.78125 253.75 C 115.18975 253.1808 99.828044 245.4888 89.75 230.65625 C 79.671891 215.82375 74.654 197.2656 74.6875 175 C 74.653997 152.73456 79.671889 134.17641 89.75 119.34375 C 99.828047 104.51136 115.18975 96.81935 135.78125 96.25 z M 606.625 96.25 C 627.21634 96.81935 642.5468 104.51136 652.625 119.34375 C 662.70296 134.1764 667.7208 152.73455 667.6875 175 C 667.72084 197.2656 662.70295 215.82375 652.625 230.65625 C 642.54679 245.48879 627.21634 253.1808 606.625 253.75 C 586.0335 253.1808 570.67179 245.4888 560.59375 230.65625 C 550.51564 215.82375 545.49775 197.2656 545.53125 175 C 545.49775 152.73456 550.51564 134.17641 560.59375 119.34375 C 570.67179 104.51136 586.0335 96.81935 606.625 96.25 z M 914.21875 96.25 C 934.8101 96.81935 950.17179 104.51136 960.25 119.34375 C 970.32795 134.1764 975.3458 152.73455 975.3125 175 C 975.34584 197.2656 970.32795 215.82375 960.25 230.65625 C 950.1718 245.48879 934.8101 253.1808 914.21875 253.75 C 893.62725 253.1808 878.29679 245.4888 868.21875 230.65625 C 858.14064 215.82375 853.12275 197.2656 853.15625 175 C 853.12274 152.73456 858.14064 134.17641 868.21875 119.34375 C 878.2968 104.51136 893.62725 96.81935 914.21875 96.25 z M 238.875 100 L 289.5 100 C 308.01546 100.85951 321.14054 106.6408 328.875 117.34375 C 336.60922 128.04696 340.35925 138.51577 340.125 148.75 C 339.89049 158.98442 335.20297 169.45324 326.0625 180.15625 C 316.92181 190.85939 304.73423 196.64069 289.5 197.5 L 265.125 197.5 L 265.125 250 L 238.875 250 L 238.875 100 z M 409.625 100 L 503.375 100 L 503.375 250 L 477.125 250 L 477.125 122.5 L 435.875 122.5 C 435.8864 123.07883 435.8703 128.17493 435.8125 137.78125 C 435.75455 147.3878 435.60988 158.02906 435.34375 169.71875 C 435.07748 181.40859 434.61336 190.67139 434 197.5 C 431.68844 214.72219 426.52571 227.35074 418.5 235.40625 C 410.47419 243.46178 402.74299 248.62154 395.3125 250.84375 C 387.88195 253.06596 383.90077 254.02777 383.375 253.75 L 379.09375 228.5625 C 379.38308 228.60715 381.60151 227.77382 385.75 226.0625 C 389.89844 224.35122 394.24585 221.50299 398.78125 217.5 C 403.31657 213.49708 406.2999 208.08037 407.75 201.25 C 408.36338 197.0834 408.82751 189.16669 409.09375 177.5 C 409.35991 165.83346 409.5046 152.91671 409.5625 138.75 C 409.6204 124.58351 409.6365 111.66676 409.625 100 z M 709.71875 100 L 767.84375 100 C 781.97865 100.48005 792.80461 104.87294 800.34375 113.1875 C 807.88267 121.50233 811.6773 130.85952 811.75 141.25 C 811.67733 147.07039 809.75767 152.78918 805.96875 158.375 C 802.17958 163.96101 796.97866 168.24227 790.34375 171.25 C 797.99986 174.06256 804.2499 178.28134 809.09375 183.90625 C 813.93736 189.53129 816.43737 196.56259 816.59375 205 C 816.31459 217.53905 811.6985 228.07036 802.78125 236.625 C 793.86376 245.17966 782.30119 249.64844 768.09375 250 L 709.71875 250 L 709.71875 100 z M 135.78125 120.625 C 125.27342 120.78138 116.7421 125.62516 110.21875 135.15625 C 103.69528 144.68758 100.35152 157.96891 100.15625 175 C 100.35152 192.03125 103.69529 205.31257 110.21875 214.84375 C 116.7421 224.37499 125.27341 229.21877 135.78125 229.375 C 146.28894 229.21877 154.78899 224.37499 161.3125 214.84375 C 167.83581 205.31258 171.21083 192.03125 171.40625 175 C 171.21083 157.96891 167.83581 144.68757 161.3125 135.15625 C 154.78899 125.62516 146.28893 120.78138 135.78125 120.625 z M 606.625 120.625 C 596.11716 120.78138 587.58586 125.62516 581.0625 135.15625 C 574.53904 144.68758 571.19527 157.96891 571 175 C 571.19526 192.03125 574.53904 205.31257 581.0625 214.84375 C 587.58585 224.37499 596.11715 229.21877 606.625 229.375 C 617.13268 229.21877 625.63274 224.37499 632.15625 214.84375 C 638.67955 205.31258 642.05457 192.03125 642.25 175 C 642.05457 157.96891 638.67956 144.68757 632.15625 135.15625 C 625.63274 125.62516 617.13268 120.78138 606.625 120.625 z M 914.21875 120.625 C 903.71092 120.78138 895.21085 125.62516 888.6875 135.15625 C 882.16404 144.68758 878.78902 157.96891 878.59375 175 C 878.78902 192.03125 882.16404 205.31257 888.6875 214.84375 C 895.21085 224.37499 903.71091 229.21877 914.21875 229.375 C 924.72644 229.21877 933.25774 224.37499 939.78125 214.84375 C 946.30456 205.31258 949.64832 192.03125 949.84375 175 C 949.64832 157.96891 946.30456 144.68757 939.78125 135.15625 C 933.25774 125.62516 924.72643 120.78138 914.21875 120.625 z M 265.125 122.5 L 265.125 175 L 282 175 C 289.81239 175.0782 296.68744 173.04694 302.625 168.90625 C 308.56239 164.76573 311.6874 158.04693 312 148.75 C 311.6874 139.45327 308.56238 132.73447 302.625 128.59375 C 296.68744 124.45326 289.8124 122.422 282 122.5 L 265.125 122.5 z M 735.96875 122.5 L 735.96875 161.0625 L 765.96875 161.0625 C 771.67176 160.96215 776.20304 159.17195 779.5625 155.65625 C 782.92176 152.14073 784.64055 147.50678 784.71875 141.78125 C 784.52334 135.23563 782.55457 130.38292 778.84375 127.21875 C 775.13273 124.05482 770.85146 122.4834 765.96875 122.5 L 735.96875 122.5 z M 735.96875 182.5 L 735.96875 227.5 L 767.84375 227.5 C 775.34364 227.23217 780.96867 224.83483 784.71875 220.28125 C 788.46863 215.72773 790.34365 210.62502 790.34375 205 C 790.34365 199.37508 788.46863 194.27236 784.71875 189.71875 C 780.96867 185.16526 775.34364 182.76792 767.84375 182.5 L 735.96875 182.5 z "
       transform="translate(0,702.36218)"
       id="rect7994" />
    <rect
       y="703.36218"
       x="1"
       height="348"
       width="1048"
       id="rect7867"
       style="color:#000000;fill:none;stroke:#000000;stroke-width:2;stroke-miterlimit:4;stroke-opacity:1;stroke-dasharray:none;marker:none;visibility:visible;display:inline;overflow:visible;enable-background:accumulate;opacity:1"
       rx="44"
       ry="44" />
  </g>
</svg>
