<?xml version="1.0" encoding="UTF-8" standalone="no"?>
<!-- Created with Inkscape (http://www.inkscape.org/) -->

<svg
   xmlns:dc="http://purl.org/dc/elements/1.1/"
   xmlns:cc="http://creativecommons.org/ns#"
   xmlns:rdf="http://www.w3.org/1999/02/22-rdf-syntax-ns#"
   xmlns:svg="http://www.w3.org/2000/svg"
   xmlns="http://www.w3.org/2000/svg"
   xmlns:sodipodi="http://sodipodi.sourceforge.net/DTD/sodipodi-0.dtd"
   xmlns:inkscape="http://www.inkscape.org/namespaces/inkscape"
   width="700"
   height="700"
   id="svg2"
   version="1.1"
   inkscape:version="0.48.4 r9939"
   sodipodi:docname="5.13.2.svg">
  <title
     id="title3002">5.13.2 Выезд на дорогу с полосой для маршрутных транспортных средств</title>
  <defs
     id="defs4" />
  <sodipodi:namedview
     id="base"
     pagecolor="#ffffff"
     bordercolor="#666666"
     borderopacity="1.0"
     inkscape:pageopacity="0.0"
     inkscape:pageshadow="2"
     inkscape:zoom="1"
     inkscape:cx="273.3138"
     inkscape:cy="340.09415"
     inkscape:document-units="px"
     inkscape:current-layer="layer1"
     showgrid="false"
     inkscape:window-width="1920"
     inkscape:window-height="1024"
     inkscape:window-x="-4"
     inkscape:window-y="-4"
     inkscape:window-maximized="1"
     inkscape:snap-bbox="false"
     inkscape:bbox-paths="false"
     inkscape:bbox-nodes="false"
     inkscape:snap-bbox-edge-midpoints="false"
     inkscape:snap-bbox-midpoints="false"
     inkscape:object-paths="true"
     inkscape:snap-intersection-paths="true"
     inkscape:object-nodes="true"
     inkscape:snap-smooth-nodes="true"
     inkscape:snap-nodes="true"
     showguides="true"
     inkscape:guide-bbox="true"
     inkscape:snap-object-midpoints="true"
     inkscape:snap-center="true"
     inkscape:snap-page="false"
     inkscape:snap-midpoints="true" />
  <metadata
     id="metadata7">
    <rdf:RDF>
      <cc:Work
         rdf:about="">
        <dc:format>image/svg+xml</dc:format>
        <dc:type
           rdf:resource="http://purl.org/dc/dcmitype/StillImage" />
        <dc:title>5.13.2 Выезд на дорогу с полосой для маршрутных транспортных средств</dc:title>
        <cc:license
           rdf:resource="http://creativecommons.org/licenses/by-sa/3.0/" />
        <dc:description>ГОСТ Р 52290-2004
Размеры и пропорции по типоразмеру II</dc:description>
      </cc:Work>
      <cc:License
         rdf:about="http://creativecommons.org/licenses/by-sa/3.0/">
        <cc:permits
           rdf:resource="http://creativecommons.org/ns#Reproduction" />
        <cc:permits
           rdf:resource="http://creativecommons.org/ns#Distribution" />
        <cc:requires
           rdf:resource="http://creativecommons.org/ns#Notice" />
        <cc:requires
           rdf:resource="http://creativecommons.org/ns#Attribution" />
        <cc:permits
           rdf:resource="http://creativecommons.org/ns#DerivativeWorks" />
        <cc:requires
           rdf:resource="http://creativecommons.org/ns#ShareAlike" />
      </cc:License>
    </rdf:RDF>
  </metadata>
  <g
     inkscape:label="Layer 1"
     inkscape:groupmode="layer"
     id="layer1"
     transform="translate(0,-352.36218)">
    <rect
       ry="45"
       rx="45"
       style="color:#000000;fill:#ffffff;fill-opacity:1;stroke:none;stroke-width:2;marker:none;visibility:visible;display:inline;overflow:visible;enable-background:accumulate;opacity:1"
       id="rect7667"
       width="700"
       height="700"
       x="0"
       y="352.36218" />
    <path
       style="opacity:1;color:#000000;fill:#0d69e1;fill-opacity:1;fill-rule:nonzero;stroke:none;stroke-width:3.54299997999999980;marker:none;visibility:visible;display:inline;overflow:visible;enable-background:accumulate"
       d="M 45 20 C 31.15 20 20 31.15 20 45 L 20 338.34375 L 680 338.34375 L 680 221.65625 L 233.34375 221.65625 L 233.34375 280 L 70 186.65625 L 233.34375 93.34375 L 233.34375 151.65625 L 680 151.65625 L 680 45 C 680 31.15 668.85 20 655 20 L 45 20 z M 20 361.65625 L 20 410.65625 L 262.5 410.65625 C 270.83618 410.65625 278.51935 415.1243 282.6875 422.34375 L 323.53125 493.0625 C 325.57921 496.60952 326.65625 500.62281 326.65625 504.71875 L 326.65625 544.125 L 326.65625 590.34375 C 326.65625 603.27043 316.27042 613.65625 303.34375 613.65625 L 291.65625 613.65625 C 291.65625 581.43967 265.56032 555.34375 233.34375 555.34375 C 201.12707 555.34375 175 581.43967 175 613.65625 L 20 613.65625 L 20 655 C 20 668.85 31.15 680 45 680 L 655 680 C 668.85 680 680 668.85 680 655 L 680 361.65625 L 20 361.65625 z M 20 427 L 20 497 L 70 497 C 76.46333 497 81.65625 491.80709 81.65625 485.34375 L 81.65625 438.65625 C 81.65625 432.19291 76.46333 427 70 427 L 20 427 z M 116.65625 427 C 110.19292 427 105 432.19291 105 438.65625 L 105 485.34375 C 105 491.80709 110.19292 497 116.65625 497 L 186.65625 497 C 193.11959 497 198.34375 491.80709 198.34375 485.34375 L 198.34375 438.65625 C 198.34375 432.19291 193.11959 427 186.65625 427 L 116.65625 427 z M 233.34375 427 C 226.88042 427 221.65625 432.19291 221.65625 438.65625 L 221.65625 485.34375 C 221.65625 491.80709 226.88042 497 233.34375 497 L 245 497 L 286.75 497 C 293.19327 497 298.40625 491.78714 298.40625 485.34375 C 298.40625 483.2959 297.86773 481.27357 296.84375 479.5 L 269.90625 432.84375 C 267.82223 429.23409 263.98065 427 259.8125 427 L 245 427 L 233.34375 427 z M 466.65625 431.65625 L 630 525 L 466.65625 618.34375 L 466.65625 560 L 350 560 L 350 490 L 466.65625 490 L 466.65625 431.65625 z M 233.34375 567 C 259.11705 567 280 587.88305 280 613.65625 C 280 639.42966 259.11705 660.34375 233.34375 660.34375 C 207.57045 660.34375 186.65625 639.42966 186.65625 613.65625 C 186.65625 587.88305 207.57045 567 233.34375 567 z M 233.34375 590.34375 C 220.4571 590.34375 210 600.76971 210 613.65625 C 210 626.54301 220.4571 637 233.34375 637 C 246.2304 637 256.65625 626.54301 256.65625 613.65625 C 256.65625 600.76971 246.2304 590.34375 233.34375 590.34375 z "
       transform="translate(0,352.36218)"
       id="rect9536" />
    <rect
       y="353.36218"
       x="1"
       height="698"
       width="698"
       id="rect7101"
       style="color:#000000;fill:none;stroke:#000000;stroke-width:2;stroke-miterlimit:4;stroke-opacity:1;stroke-dasharray:none;marker:none;visibility:visible;display:inline;overflow:visible;enable-background:accumulate;opacity:1"
       rx="44"
       ry="44" />
  </g>
</svg>
