<?xml version="1.0" encoding="UTF-8" standalone="no"?>
<!-- Created with Inkscape (http://www.inkscape.org/) -->

<svg
   width="600"
   height="900"
   id="svg2"
   version="1.1"
   inkscape:version="1.1.1 (3bf5ae0d25, 2021-09-20)"
   sodipodi:docname="5.33.1_Russian_road_sign.svg"
   xmlns:inkscape="http://www.inkscape.org/namespaces/inkscape"
   xmlns:sodipodi="http://sodipodi.sourceforge.net/DTD/sodipodi-0.dtd"
   xmlns="http://www.w3.org/2000/svg"
   xmlns:svg="http://www.w3.org/2000/svg"
   xmlns:rdf="http://www.w3.org/1999/02/22-rdf-syntax-ns#"
   xmlns:cc="http://creativecommons.org/ns#"
   xmlns:dc="http://purl.org/dc/elements/1.1/">
  <title
     id="title3004">5.33 Пешеходная зона</title>
  <defs
     id="defs4" />
  <sodipodi:namedview
     id="base"
     pagecolor="#ffffff"
     bordercolor="#666666"
     borderopacity="1.0"
     inkscape:pageopacity="0.0"
     inkscape:pageshadow="2"
     inkscape:zoom="0.70710678"
     inkscape:cx="-101.82338"
     inkscape:cy="561.44278"
     inkscape:document-units="px"
     inkscape:current-layer="layer1"
     showgrid="false"
     inkscape:window-width="2560"
     inkscape:window-height="1377"
     inkscape:window-x="-8"
     inkscape:window-y="-8"
     inkscape:window-maximized="1"
     inkscape:pagecheckerboard="0" />
  <metadata
     id="metadata7">
    <rdf:RDF>
      <cc:Work
         rdf:about="">
        <dc:format>image/svg+xml</dc:format>
        <dc:type
           rdf:resource="http://purl.org/dc/dcmitype/StillImage" />
        <dc:title>5.33 Пешеходная зона</dc:title>
        <cc:license
           rdf:resource="http://creativecommons.org/licenses/by-sa/4.0/" />
        <dc:description>ГОСТ Р 52290-2004
Размеры и пропорции по типоразмеру I</dc:description>
      </cc:Work>
      <cc:License
         rdf:about="http://creativecommons.org/licenses/by-sa/4.0/">
        <cc:permits
           rdf:resource="http://creativecommons.org/ns#Reproduction" />
        <cc:permits
           rdf:resource="http://creativecommons.org/ns#Distribution" />
        <cc:requires
           rdf:resource="http://creativecommons.org/ns#Notice" />
        <cc:requires
           rdf:resource="http://creativecommons.org/ns#Attribution" />
        <cc:permits
           rdf:resource="http://creativecommons.org/ns#DerivativeWorks" />
        <cc:requires
           rdf:resource="http://creativecommons.org/ns#ShareAlike" />
      </cc:License>
    </rdf:RDF>
  </metadata>
  <g
     inkscape:label="Layer 1"
     inkscape:groupmode="layer"
     id="layer1"
     transform="translate(0,-152.36218)">
    <rect
       style="color:#000000;fill:#ffffff;fill-opacity:1;fill-rule:nonzero;stroke:none;stroke-width:4;marker:none;visibility:visible;display:inline;overflow:visible;enable-background:accumulate;opacity:1"
       id="rect3256"
       width="600"
       height="900"
       x="0"
       y="152.36218"
       rx="45"
       ry="45" />
    <rect
       ry="44"
       rx="44"
       y="153.36218"
       x="1"
       height="898"
       width="598"
       id="rect3041"
       style="color:#000000;fill:none;stroke:#000000;stroke-width:2;stroke-miterlimit:4;stroke-opacity:1;stroke-dasharray:none;marker:none;visibility:visible;display:inline;overflow:visible;enable-background:accumulate;opacity:1" />
    <path
       style="opacity:1;color:#000000;fill:#000000;fill-opacity:1;fill-rule:nonzero;stroke:none;stroke-width:3.54299997999999980;marker:none;visibility:visible;display:inline;overflow:visible;enable-background:accumulate"
       d="M 45 20 C 31.15 20 20 31.15 20 45 L 20 855 C 20 868.85 31.15 880 45 880 L 555 880 C 568.85 880 580 868.85 580 855 L 580 45 C 580 31.15 568.85 20 555 20 L 45 20 z M 45 30 L 555 30 C 563.31 30 570 36.69 570 45 L 570 855 C 570 863.31 563.31 870 555 870 L 45 870 C 36.69 870 30 863.31 30 855 L 30 45 C 30 36.69 36.69 30 45 30 z "
       transform="translate(0,152.36218)"
       id="rect8666" />
    <g
       style="font-size:154.01928710999999000px;font-style:normal;font-variant:normal;font-weight:normal;font-stretch:normal;line-height:125%;letter-spacing:-4.40625000000000000px;word-spacing:0px;opacity:1;fill:#000000;fill-opacity:1;stroke:none;font-family:Arial;-inkscape-font-specification:Arial"
       id="text8386">
      <path
         d="m 169.69022,271.0497 9.70309,0 c 3.88568,0.045 7.16496,1.30277 9.83785,3.77342 2.67279,2.47073 4.06536,5.88477 4.17772,10.24215 -0.13482,3.84083 -1.752,6.94043 -4.85154,9.2988 -3.09965,2.3584 -6.87307,3.57128 -11.32027,3.63866 -8.06349,-0.40429 -14.03807,-2.02147 -17.92377,-4.85155 -3.88575,-2.83005 -5.81738,-4.44723 -5.7949,-4.85154 l -9.70309,11.85933 c 0.20214,0.49415 3.30173,2.4707 9.29879,5.92966 5.99703,3.45898 13.67864,5.43553 23.04484,5.92967 10.30949,-0.40429 18.26062,-3.36912 23.85343,-8.8945 5.59269,-5.52535 8.42275,-11.18548 8.49021,-16.9804 -0.22635,-5.69671 -1.81025,-10.11568 -4.75172,-13.2569 -2.94161,-3.14115 -5.88315,-5.32401 -8.82463,-6.54859 -2.94159,-1.22449 -4.5255,-1.81013 -4.75171,-1.75694 0.18629,0.0599 1.49068,-0.41922 3.91318,-1.4375 2.42239,-1.01818 4.84483,-2.93483 7.26733,-5.74997 2.42238,-2.81504 3.72677,-6.88794 3.91319,-12.21871 -0.0899,-6.64834 -2.60553,-12.21863 -7.54685,-16.71088 -4.94145,-4.49208 -11.76954,-6.82801 -20.4843,-7.00778 -8.78544,0.40438 -15.8959,2.02156 -21.3314,4.85154 -5.43555,2.83015 -8.23352,4.44733 -8.39394,4.85155 l 8.16291,12.62942 c -0.0449,-0.34647 1.66209,-1.73263 5.12108,-4.15847 3.45894,-2.4257 8.93939,-3.81186 16.44135,-4.15847 5.77239,0.29207 9.59073,1.86433 11.45503,4.71679 1.8642,2.85259 2.71771,5.23344 2.56054,7.14255 0.0449,1.8643 -0.85357,4.06547 -2.6953,6.60349 -1.84185,2.53813 -4.89652,3.9307 -9.16403,4.17772 l -9.70309,0 z"
         style="fill:#000000;font-family:Russian Road Sign;-inkscape-font-specification:Russian Road Sign"
         id="path8875" />
      <path
         d="m 258.96605,221.45613 c -11.84012,0.32737 -20.6576,4.75536 -26.45248,13.28399 -5.79491,8.52878 -8.68273,19.19446 -8.66347,31.9971 -0.0193,12.80271 2.86856,23.4684 8.66347,31.99709 5.79488,8.52871 14.61236,12.95671 26.45248,13.28399 11.84002,-0.32729 20.6575,-4.75528 26.45247,-13.28399 5.79482,-8.52869 8.68264,-19.19438 8.66347,-31.99709 0.0192,-12.80264 -2.86865,-23.46833 -8.66347,-31.9971 -5.79497,-8.52863 -14.61245,-12.95662 -26.45247,-13.28399 z m 0,14.01557 c 6.04191,0.0899 10.93837,2.87506 14.68939,8.35544 3.7509,5.48051 5.68254,13.11719 5.79491,22.91008 -0.11237,9.79296 -2.044,17.42965 -5.7949,22.91007 -3.75102,5.48046 -8.64748,8.26561 -14.6894,8.35544 -6.04202,-0.0898 -10.93848,-2.87498 -14.68941,-8.35544 -3.75099,-5.48043 -5.68262,-13.11711 -5.79489,-22.91007 0.11228,-9.79289 2.04391,-17.42957 5.7949,-22.91008 3.75093,-5.48038 8.64739,-8.26552 14.6894,-8.35544 z"
         style="fill:#000000;font-family:Russian Road Sign;-inkscape-font-specification:Russian Road Sign"
         id="path8877" />
      <path
         d="m 313.84077,309.86206 15.0937,0 0,-38.81236 32.34363,0 0,38.81236 15.0937,0 0,-86.24969 -15.0937,0 0,34.49988 -32.34363,0 0,-34.49988 -15.0937,0 z"
         style="fill:#000000;font-family:Russian Road Sign;-inkscape-font-specification:Russian Road Sign"
         id="path8879" />
      <path
         d="m 422.62157,279.67467 10.78121,-36.65612 10.78122,36.65612 z m 2.15624,-56.0623 -28.03114,86.24969 16.17181,0 5.39061,-17.24994 30.18739,0 5.39061,17.24994 16.17181,0 -28.03115,-86.24969 z"
         style="fill:#000000;font-family:Russian Road Sign;-inkscape-font-specification:Russian Road Sign"
         id="path8881" />
    </g>
    <path
       style="opacity:1;color:#000000;fill:#0d69e1;fill-opacity:1;fill-rule:nonzero;stroke:none;stroke-width:1px;marker:none;visibility:visible;display:inline;overflow:visible;enable-background:accumulate"
       d="m 300.00005,416.0406 c -113.25788,0 -205.07147,91.8136 -205.07147,205.0714 0,113.2579 91.81359,205.0715 205.07147,205.0715 113.25778,0 205.07137,-91.8136 205.07137,-205.0715 0,-113.2578 -91.81359,-205.0714 -205.07137,-205.0714 z"
       id="path6156" />
    <path
       sodipodi:type="arc"
       style="color:#000000;fill:none;stroke:#000000;stroke-width:0.23577261999999999;stroke-miterlimit:4;stroke-opacity:1;stroke-dasharray:none;marker:none;visibility:visible;display:inline;overflow:visible;enable-background:accumulate;opacity:1"
       id="path11396"
       sodipodi:cx="-87.720657"
       sodipodi:cy="432.25998"
       sodipodi:rx="22.107042"
       sodipodi:ry="29.465372"
       d="m -65.613615,432.25998 a 22.107042,29.465372 0 1 1 -44.214085,0 22.107042,29.465372 0 1 1 44.214085,0 z"
       transform="matrix(9.7932594,0,0,7.3476083,1159.0712,-2554.9648)" />
    <path
       inkscape:connector-curvature="0"
       style="opacity:1;color:#000000;fill:#ff0000;fill-opacity:1;fill-rule:nonzero;stroke:none;stroke-width:1px;marker:none;visibility:visible;display:inline;overflow:visible;enable-background:accumulate"
       d="m 300,857.3622 c -6.72172,0 -13.23491,0.90009 -19.43359,2.55853 l 8.4961,53.49609 -42.07032,-34.10156 c -9.1865,9.17991 -16.00063,20.7286 -19.45308,33.65231 l 50.58589,19.39454 -50.5859,19.39453 c 3.45041,12.92587 10.26807,24.47231 19.45309,33.65231 l 42.07032,-34.10147 -8.4961,53.51572 c 6.19682,1.6576 12.71358,2.539 19.43359,2.539 6.72171,0 13.2349,-0.9001 19.43358,-2.5585 l -8.4961,-53.49622 42.0703,34.10147 c 9.1865,-9.17981 16.00064,-20.72841 19.45311,-33.65231 l -50.5859,-19.39453 50.5859,-19.39454 c -3.45246,-12.92371 -10.26661,-24.4724 -19.45311,-33.65231 l -42.0703,34.10156 8.4961,-53.49609 C 313.2349,858.26229 306.7217,857.3622 300,857.3622 z"
       id="path14544-7" />
    <path
       id="path3834"
       style="color:#000000;display:inline;overflow:visible;visibility:visible;fill:#ffffff;fill-opacity:1;fill-rule:nonzero;stroke:none;stroke-width:2.36047;marker:none;enable-background:accumulate"
       d="m 244.16307,582.83304 -6.14184,9.63957 78.36577,59.91941 29.68904,-69.55898 z m 113.00993,8.47366 -27.19067,63.75026 h 20.13276 c 1.46303,-16.88613 9.92805,-31.76495 22.44375,-41.76454 z m -171.07638,17.8634 c -27.639,0.70023 -49.8218,23.32569 -49.8218,51.13345 0,28.24916 22.90512,51.15427 51.15427,51.15427 28.24909,0 51.15427,-22.90511 51.15427,-51.15427 0,-14.2438 -5.82498,-27.11886 -15.21928,-36.39303 l -11.51335,24.6923 c -1.89193,4.05721 -4.99241,7.42214 -8.86924,9.66039 l -12.55435,7.26611 c -2.87821,1.66169 -6.56213,0.67124 -8.22382,-2.2069 -1.66176,-2.87814 -0.67132,-6.56214 2.2069,-8.22382 l 12.55434,-7.2453 c 1.73789,-1.00335 3.12848,-2.53259 3.97659,-4.35134 l 12.65844,-27.12821 c -7.65859,-4.57172 -16.60305,-7.20365 -26.1705,-7.20365 -0.44139,0 -0.89375,-0.0111 -1.33247,0 z m 223.97952,0 c -7.4027,0 -14.42599,1.58447 -20.77817,4.4138 l 29.39757,41.97273 c 2.62112,3.74325 1.70291,8.91306 -2.04034,11.53418 -1.39096,0.97395 -3.04891,1.49902 -4.74692,1.49902 h -52.29936 c 3.95875,24.30982 25.03851,42.86799 50.46722,42.86799 28.24909,0 51.15427,-22.90511 51.15427,-51.15427 0,-28.24916 -22.90518,-51.13345 -51.15427,-51.13345 z m -32.33316,11.51335 c -10.19893,8.33407 -17.13384,20.54943 -18.55046,34.37351 h 42.61816 z M 239.70763,515.14784 h 28.96036 c 3.32337,0 6.01693,2.69348 6.01693,6.01693 0,3.32344 -2.69356,6.01692 -6.01693,6.01692 h -28.96036 c -5.40057,0 -9.78531,4.36392 -9.78531,9.76449 0,3.53143 2.2407,6.67858 5.57971,7.82825 8.1959,2.8221 13.69944,10.54856 13.69944,19.21668 0,1.79656 -0.24106,3.58569 -0.70788,5.30906 h 103.32872 l 3.53937,-8.28629 h -26.52444 c -4.9852,0 -9.01498,-4.02985 -9.01498,-9.01498 0,-4.98513 4.02978,-9.03579 9.01498,-9.03579 h 41.36896 c 4.98513,0 9.0358,4.05066 9.0358,9.03579 0,4.98513 -6.78416,13.46264 -9.0358,9.01498 h -3.3728 l -5.43398,12.72091 22.63114,32.31233 c 7.88034,-3.78867 16.71695,-5.91282 26.04558,-5.91282 33.23421,0 60.16925,26.93496 60.16925,60.16925 0,33.23429 -26.93504,60.1901 -60.16925,60.1901 -30.42715,0 -55.57517,-22.58481 -59.60712,-51.90382 h -35.26875 l -83.07105,-63.52124 -4.76773,10.24335 c 12.407,11.02296 20.23685,27.08978 20.23685,44.99161 0,33.23429 -26.93504,60.1901 -60.16925,60.1901 -33.23428,0 -60.16925,-26.95581 -60.16925,-60.1901 0,-33.23429 26.93497,-60.16925 60.16925,-60.16925 10.92736,0 21.16849,2.92444 30.00135,8.01563 l 18.11323,-38.84976 0.85361,-1.81133 c 0.5106,-1.09499 0.77034,-2.28948 0.77034,-3.49773 0,-3.53142 -2.24062,-6.67851 -5.57971,-7.82824 -8.19589,-2.82204 -13.69944,-10.54857 -13.69944,-19.21669 0,-12.04746 9.77171,-21.79834 21.81916,-21.79834 z" />
  </g>
</svg>
