<svg xmlns="http://www.w3.org/2000/svg" width="600" height="900">
    <title>
        5.37 Конец зоны с ограничением экологического класса механических транспортных средств
    </title>
    <rect ry="45" rx="45" height="900" width="600" style="marker:none" overflow="visible" color="#000" fill="#fff"/>
    <rect style="marker:none" width="598" height="898" x="1" y="1" rx="44" ry="44" overflow="visible" color="#000" fill="none" stroke="#000" stroke-width="2"/>
    <path d="M169.69 118.688h9.703c3.886.045 7.165 1.302 9.838 3.773 2.673 2.47 4.066 5.885 4.178 10.242-.135 3.841-1.752 6.94-4.852 9.3-3.1 2.357-6.873 3.57-11.32 3.638-8.063-.405-14.038-2.022-17.924-4.852-3.885-2.83-5.817-4.447-5.795-4.851l-9.703 11.859c.202.494 3.302 2.47 9.3 5.93 5.996 3.459 13.678 5.435 23.044 5.93 10.31-.405 18.26-3.37 23.853-8.895 5.593-5.526 8.423-11.186 8.49-16.98-.226-5.697-1.81-10.116-4.751-13.257-2.942-3.142-5.883-5.325-8.825-6.55-2.941-1.224-4.525-1.81-4.751-1.756.186.06 1.49-.42 3.913-1.438 2.422-1.018 4.845-2.934 7.267-5.75 2.422-2.815 3.727-6.887 3.913-12.218-.09-6.649-2.605-12.219-7.547-16.711-4.941-4.492-11.77-6.828-20.484-7.008-8.785.405-15.896 2.022-21.331 4.852-5.436 2.83-8.234 4.447-8.394 4.851l8.163 12.63c-.045-.347 1.662-1.733 5.12-4.159 3.46-2.426 8.94-3.812 16.442-4.158 5.772.292 9.59 1.864 11.455 4.716 1.864 2.853 2.718 5.234 2.56 7.143.046 1.864-.853 4.066-2.695 6.604-1.842 2.538-4.896 3.93-9.164 4.177h-9.703zm89.276-49.594c-11.84.328-20.658 4.755-26.452 13.284-5.795 8.529-8.683 19.195-8.664 31.997-.02 12.803 2.869 23.469 8.664 31.997 5.794 8.529 14.612 12.957 26.452 13.284 11.84-.327 20.658-4.755 26.453-13.284 5.794-8.528 8.682-19.194 8.663-31.997.02-12.802-2.869-23.468-8.663-31.997-5.795-8.529-14.613-12.957-26.453-13.284zm0 14.016c6.042.09 10.938 2.875 14.69 8.355 3.75 5.48 5.682 13.117 5.794 22.91-.112 9.793-2.044 17.43-5.795 22.91-3.75 5.48-8.647 8.266-14.689 8.356-6.042-.09-10.938-2.875-14.69-8.356-3.75-5.48-5.682-13.117-5.794-22.91.112-9.793 2.044-17.43 5.795-22.91 3.75-5.48 8.647-8.265 14.69-8.355zm54.874 74.39h15.094v-38.812h32.344V157.5h15.094V71.25h-15.094v34.5h-32.344v-34.5h-15.093zm108.782-30.187l10.78-36.656 10.782 36.656zm2.156-56.063l-28.031 86.25h16.171l5.391-17.25h30.187l5.391 17.25h16.172l-28.031-86.25z" font-weight="400" font-family="Russian Road Sign" letter-spacing="-4.406" word-spacing="0"/>
    <path d="M300 252.25c-119.57 0-216.5 96.93-216.5 216.5s96.93 216.5 216.5 216.5 216.5-96.93 216.5-216.5-96.93-216.5-216.5-216.5zm0 43.428c95.585 0 173.072 77.487 173.072 173.072 0 95.585-77.487 173.072-173.072 173.072-95.585 0-173.072-77.487-173.072-173.072 0-95.585 77.487-173.072 173.072-173.072z" style="marker:none" overflow="visible" color="#000" fill="#7f7f7f"/>
    <path d="M229.847 353.857h140.306c5.549 0 11.466 4.214 13.275 9.46l6.718 19.475 13.91 40.304c.012.036-.012.082 0 .119l3.26 9.34a14.278 14.278 0 0 1 14.309 14.31v57.234a14.278 14.278 0 0 1-14.309 14.31H192.684a14.278 14.278 0 0 1-14.309-14.31v-57.235a14.278 14.278 0 0 1 14.309-14.309l3.26-9.34c.012-.037-.014-.082 0-.12l13.91-40.303 6.718-19.475c1.809-5.246 7.726-9.46 13.275-9.46zm4.332 14.309c-2.774 0-5.733 2.107-6.637 4.73l-20.55 59.66h186.015l-20.588-59.66c-.905-2.623-3.824-4.73-6.598-4.73H300zm151.674 77.983c-11.854 0-21.463 9.61-21.463 21.463 0 11.854 9.61 21.463 21.463 21.463 11.854 0 21.463-9.61 21.463-21.463 0-11.854-9.61-21.463-21.463-21.463zm-171.706.715c-11.854 0-21.463 9.61-21.463 21.463 0 11.854 9.61 21.464 21.463 21.464 11.854 0 21.463-9.61 21.463-21.464 0-11.853-9.61-21.463-21.463-21.463zm-21.463 78.699h42.926v28.617c0 11.854-9.61 21.464-21.463 21.464-11.854 0-21.463-9.61-21.463-21.464zm171.706 0h42.926v28.617c0 11.854-9.61 21.464-21.463 21.464-11.854 0-21.463-9.61-21.463-21.464z" fill="#7f7f7f"/>
    <path word-spacing="0" letter-spacing="0" font-size="173.971" font-weight="400" d="M311.162 725.769l-47.494 63.326v14.613h46.276v19.485h17.05v-19.485h6.61l5.567-14.613h-13.395v-63.327h-14.614zm-1.218 25.574v37.752h-28.01z" font-family="Russian Road Sign"/>
    <path d="M299.999 697.768a143.543 77.428 0 0 0-143.541 77.427 143.543 77.428 0 0 0 143.541 77.428 143.543 77.428 0 0 0 143.543-77.428 143.543 77.428 0 0 0-143.543-77.427zm0 16.86a126.708 60.57 0 0 1 126.709 60.567 126.708 60.57 0 0 1-126.709 60.57 126.708 60.57 0 0 1-126.707-60.57 126.708 60.57 0 0 1 126.707-60.568z" fill="#127f15"/>
    <path d="M45 20c-13.85 0-25 11.15-25 25v810c0 13.85 11.15 25 25 25h510c13.85 0 25-11.15 25-25V45c0-13.85-11.15-25-25-25zm0 10h510c7.78 0 14.158 5.87 14.938 13.438L30 647.594V45c0-8.31 6.69-15 15-15zm525 34.906v25.313L30 694.468v-25.313l540-604.25zm0 46.875v25.313L30 741.344v-25.313zm0 46.875v25.313L30 788.218v-25.313l540-604.25zm0 46.875v25.313L30 835.094v-25.313zm0 46.875V855c0 8.31-6.69 15-15 15H45c-7.78 0-14.158-5.87-14.938-13.437z" style="marker:none" overflow="visible" color="#000"/>
</svg>
