<?xml version="1.0" encoding="UTF-8" standalone="no"?>
<!-- Created with Inkscape (http://www.inkscape.org/) -->

<svg
   xmlns:dc="http://purl.org/dc/elements/1.1/"
   xmlns:cc="http://creativecommons.org/ns#"
   xmlns:rdf="http://www.w3.org/1999/02/22-rdf-syntax-ns#"
   xmlns:svg="http://www.w3.org/2000/svg"
   xmlns="http://www.w3.org/2000/svg"
   xmlns:sodipodi="http://sodipodi.sourceforge.net/DTD/sodipodi-0.dtd"
   xmlns:inkscape="http://www.inkscape.org/namespaces/inkscape"
   width="700"
   height="700"
   id="svg2"
   version="1.1"
   inkscape:version="0.48.4 r9939"
   sodipodi:docname="5.14.2.svg">
  <title
     id="title3002">5.14.2 Полоса для велосипедистов</title>
  <defs
     id="defs4" />
  <sodipodi:namedview
     id="base"
     pagecolor="#ffffff"
     bordercolor="#666666"
     borderopacity="1.0"
     inkscape:pageopacity="0.0"
     inkscape:pageshadow="2"
     inkscape:zoom="1"
     inkscape:cx="209.22002"
     inkscape:cy="371.66155"
     inkscape:document-units="px"
     inkscape:current-layer="layer1"
     showgrid="false"
     inkscape:window-width="1920"
     inkscape:window-height="1024"
     inkscape:window-x="-4"
     inkscape:window-y="-4"
     inkscape:window-maximized="1"
     inkscape:snap-bbox="false"
     inkscape:bbox-paths="true"
     inkscape:bbox-nodes="true"
     inkscape:snap-bbox-edge-midpoints="true"
     inkscape:snap-bbox-midpoints="true"
     inkscape:object-paths="false"
     inkscape:snap-intersection-paths="true"
     inkscape:object-nodes="false"
     inkscape:snap-smooth-nodes="false"
     inkscape:snap-nodes="true"
     showguides="true"
     inkscape:guide-bbox="true"
     inkscape:snap-object-midpoints="true"
     inkscape:snap-center="true" />
  <metadata
     id="metadata7">
    <rdf:RDF>
      <cc:Work
         rdf:about="">
        <dc:format>image/svg+xml</dc:format>
        <dc:type
           rdf:resource="http://purl.org/dc/dcmitype/StillImage" />
        <dc:title>5.14.2 Полоса для велосипедистов</dc:title>
        <cc:license
           rdf:resource="http://creativecommons.org/licenses/by-sa/4.0/" />
        <dc:description>ГОСТ Р 52290-2004
Размеры и пропорции по типоразмеру II</dc:description>
      </cc:Work>
      <cc:License
         rdf:about="http://creativecommons.org/licenses/by-sa/4.0/">
        <cc:permits
           rdf:resource="http://creativecommons.org/ns#Reproduction" />
        <cc:permits
           rdf:resource="http://creativecommons.org/ns#Distribution" />
        <cc:requires
           rdf:resource="http://creativecommons.org/ns#Notice" />
        <cc:requires
           rdf:resource="http://creativecommons.org/ns#Attribution" />
        <cc:permits
           rdf:resource="http://creativecommons.org/ns#DerivativeWorks" />
        <cc:requires
           rdf:resource="http://creativecommons.org/ns#ShareAlike" />
      </cc:License>
    </rdf:RDF>
  </metadata>
  <g
     inkscape:label="Layer 1"
     inkscape:groupmode="layer"
     id="layer1"
     transform="translate(0,-352.36218)">
    <rect
       ry="45"
       rx="45"
       style="color:#000000;fill:#ffffff;fill-opacity:1;stroke:none;stroke-width:2;marker:none;visibility:visible;display:inline;overflow:visible;enable-background:accumulate;opacity:1"
       id="rect7667"
       width="700"
       height="700"
       x="0"
       y="352.36218" />
    <path
       style="color:#000000;display:inline;overflow:visible;visibility:visible;fill:#0d69e1;fill-opacity:1;fill-rule:nonzero;stroke:none;stroke-width:3.54299998;marker:none;enable-background:accumulate"
       d="M 45,20 C 31.15,20 20,31.15 20,45 v 610 c 0,13.85 11.15,25 25,25 h 610 c 13.85,0 25,-11.15 25,-25 V 45 C 680,31.15 668.85,20 655,20 Z m 305,50 93.34375,163.34375 H 385 V 310 h -70 v -76.65625 h -58.34375 z m -88.625,272.58963 h 43.46875 c 4.98829,0 9.03125,4.04285 9.03125,9.03125 0,4.98841 -4.04296,9.03125 -9.03125,9.03125 H 261.375 c -8.10612,0 -14.6875,6.55013 -14.6875,14.65625 0,5.30058 3.36323,10.02437 8.375,11.75 12.30183,4.2359 20.5625,15.83312 20.5625,28.84374 0,2.69659 -0.36182,5.38203 -1.0625,7.96876 h 155.09375 l 5.3125,-12.4375 h -39.8125 c -7.48266,0 -13.53125,-6.04871 -13.53125,-13.53125 0,-7.48256 6.04859,-13.5625 13.53125,-13.5625 H 457.25 c 7.48255,0 13.5625,6.07994 13.5625,13.5625 0,7.48254 -10.18286,20.20707 -13.5625,13.53125 h -5.0625 L 444.03125,430.52713 478,479.02712 c 11.82819,-5.68671 25.09172,-8.87499 39.09375,-8.87499 49.88369,0 90.3125,40.42868 90.3125,90.31249 0,49.88381 -40.42881,90.34375 -90.3125,90.34375 -45.67037,0 -83.41691,-33.89917 -89.46875,-77.90625 H 374.6875 L 250,477.55837 l -7.15625,15.375 c 18.6226,16.54518 30.375,40.66107 30.375,67.53125 0,49.88381 -40.4288,90.34375 -90.3125,90.34375 -49.8838,0 -90.3125,-40.45994 -90.3125,-90.34375 0,-49.88381 40.4287,-90.31249 90.3125,-90.31249 16.40168,0 31.77336,4.3895 45.03125,12.03124 l 27.1875,-58.31249 1.28125,-2.71875 c 0.76639,-1.64355 1.15625,-3.43645 1.15625,-5.25001 0,-5.30057 -3.36311,-10.02427 -8.375,-11.74999 -12.30182,-4.2358 -20.5625,-15.83312 -20.5625,-28.84375 0,-18.08293 14.66708,-32.71875 32.75,-32.71875 z m 6.6875,101.59375 -9.21875,14.46874 117.625,89.9375 44.5625,-104.40624 z m 169.625,12.71874 -40.8125,95.6875 h 30.21875 c 2.19597,-25.34564 14.90175,-47.67837 33.6875,-62.6875 z m -256.78125,26.8125 c -41.48543,1.05104 -74.78125,35.01126 -74.78125,76.75 0,42.40126 34.38,76.78125 76.78125,76.78125 42.40115,0 76.78125,-34.37999 76.78125,-76.78125 0,-21.37958 -8.74315,-40.70471 -22.84375,-54.625 l -17.28125,37.0625 c -2.83974,6.08977 -7.49347,11.14045 -13.3125,14.5 l -18.84375,10.90625 c -4.32013,2.49415 -9.8496,1.00751 -12.34375,-3.3125 -2.49426,-4.32002 -1.00763,-9.84961 3.3125,-12.34375 l 18.84375,-10.875 c 2.60852,-1.50601 4.69576,-3.80136 5.96875,-6.53125 l 19,-40.71875 c -11.49535,-6.86203 -24.92075,-10.8125 -39.28125,-10.8125 -0.66252,0 -1.3415,-0.0167 -2,0 z m 336.1875,0 c -11.11126,0 -21.65304,2.37826 -31.1875,6.625 l 44.125,63 c 3.93423,5.61852 2.55602,13.37827 -3.0625,17.3125 -2.0878,1.46187 -4.57633,2.25 -7.125,2.25 h -78.5 c 5.94198,36.48841 37.58216,64.34375 75.75,64.34375 42.40115,0 76.78125,-34.37999 76.78125,-76.78125 0,-42.40126 -34.3801,-76.75 -76.78125,-76.75 z m -48.53125,17.28125 c -15.30832,12.50923 -25.71745,30.84417 -27.84375,51.59375 h 63.96875 z"
       transform="translate(0,352.36218)"
       id="rect8228"
       inkscape:connector-curvature="0"
       sodipodi:nodetypes="sssssssssccccccccsssssscscccsssssscccsssccccsssscccscsscccccccccccssscccccccccscscccscssscccc" />
    <rect
       y="353.36218"
       x="1"
       height="698"
       width="698"
       id="rect7101"
       style="color:#000000;fill:none;stroke:#000000;stroke-width:2;stroke-miterlimit:4;stroke-opacity:1;stroke-dasharray:none;marker:none;visibility:visible;display:inline;overflow:visible;enable-background:accumulate;opacity:1"
       rx="44"
       ry="44" />
  </g>
</svg>
