<?xml version="1.0" encoding="UTF-8" standalone="no"?>
<!-- Created with Inkscape (http://www.inkscape.org/) -->

<svg
   xmlns:dc="http://purl.org/dc/elements/1.1/"
   xmlns:cc="http://creativecommons.org/ns#"
   xmlns:rdf="http://www.w3.org/1999/02/22-rdf-syntax-ns#"
   xmlns:svg="http://www.w3.org/2000/svg"
   xmlns="http://www.w3.org/2000/svg"
   xmlns:sodipodi="http://sodipodi.sourceforge.net/DTD/sodipodi-0.dtd"
   xmlns:inkscape="http://www.inkscape.org/namespaces/inkscape"
   width="600"
   height="900"
   id="svg2"
   version="1.1"
   inkscape:version="0.48.4 r9939"
   sodipodi:docname="5.28.svg">
  <title
     id="title3004">5.34 Конец пешеходной зоны</title>
  <defs
     id="defs4" />
  <sodipodi:namedview
     id="base"
     pagecolor="#ffffff"
     bordercolor="#666666"
     borderopacity="1.0"
     inkscape:pageopacity="0.0"
     inkscape:pageshadow="2"
     inkscape:zoom="1"
     inkscape:cx="328.87841"
     inkscape:cy="591.96474"
     inkscape:document-units="px"
     inkscape:current-layer="layer1"
     showgrid="false"
     inkscape:window-width="1920"
     inkscape:window-height="1024"
     inkscape:window-x="-4"
     inkscape:window-y="-4"
     inkscape:window-maximized="1" />
  <metadata
     id="metadata7">
    <rdf:RDF>
      <cc:Work
         rdf:about="">
        <dc:format>image/svg+xml</dc:format>
        <dc:type
           rdf:resource="http://purl.org/dc/dcmitype/StillImage" />
        <dc:title>5.34 Конец пешеходной зоны</dc:title>
        <cc:license
           rdf:resource="http://creativecommons.org/licenses/by-sa/3.0/" />
        <dc:description>ГОСТ Р 52290-2004
Размеры и пропорции по типоразмеру I</dc:description>
      </cc:Work>
      <cc:License
         rdf:about="http://creativecommons.org/licenses/by-sa/3.0/">
        <cc:permits
           rdf:resource="http://creativecommons.org/ns#Reproduction" />
        <cc:permits
           rdf:resource="http://creativecommons.org/ns#Distribution" />
        <cc:requires
           rdf:resource="http://creativecommons.org/ns#Notice" />
        <cc:requires
           rdf:resource="http://creativecommons.org/ns#Attribution" />
        <cc:permits
           rdf:resource="http://creativecommons.org/ns#DerivativeWorks" />
        <cc:requires
           rdf:resource="http://creativecommons.org/ns#ShareAlike" />
      </cc:License>
    </rdf:RDF>
  </metadata>
  <g
     inkscape:label="Layer 1"
     inkscape:groupmode="layer"
     id="layer1"
     transform="translate(0,-152.36218)">
    <rect
       style="color:#000000;fill:#ffffff;fill-opacity:1;fill-rule:nonzero;stroke:none;stroke-width:4;marker:none;visibility:visible;display:inline;overflow:visible;enable-background:accumulate;opacity:1"
       id="rect3256"
       width="600"
       height="900"
       x="0"
       y="152.36218"
       rx="45"
       ry="45" />
    <rect
       ry="44"
       rx="44"
       y="153.36218"
       x="1"
       height="898"
       width="598"
       id="rect3041"
       style="color:#000000;fill:none;stroke:#000000;stroke-width:2;stroke-miterlimit:4;stroke-opacity:1;stroke-dasharray:none;marker:none;visibility:visible;display:inline;overflow:visible;enable-background:accumulate;opacity:1" />
    <g
       style="font-size:154.01928710999999000px;font-style:normal;font-variant:normal;font-weight:normal;font-stretch:normal;line-height:125%;letter-spacing:-4.40625000000000000px;word-spacing:0px;opacity:1;fill:#000000;fill-opacity:1;stroke:none;font-family:Arial;-inkscape-font-specification:Arial"
       id="text8386">
      <path
         d="m 169.69022,271.0497 9.70309,0 c 3.88568,0.045 7.16496,1.30277 9.83785,3.77342 2.67279,2.47073 4.06536,5.88477 4.17772,10.24215 -0.13482,3.84083 -1.752,6.94043 -4.85154,9.2988 -3.09965,2.3584 -6.87307,3.57128 -11.32027,3.63866 -8.06349,-0.40429 -14.03807,-2.02147 -17.92377,-4.85155 -3.88575,-2.83005 -5.81738,-4.44723 -5.7949,-4.85154 l -9.70309,11.85933 c 0.20214,0.49415 3.30173,2.4707 9.29879,5.92966 5.99703,3.45898 13.67864,5.43553 23.04484,5.92967 10.30949,-0.40429 18.26062,-3.36912 23.85343,-8.8945 5.59269,-5.52535 8.42275,-11.18548 8.49021,-16.9804 -0.22635,-5.69671 -1.81025,-10.11568 -4.75172,-13.2569 -2.94161,-3.14115 -5.88315,-5.32401 -8.82463,-6.54859 -2.94159,-1.22449 -4.5255,-1.81013 -4.75171,-1.75694 0.18629,0.0599 1.49068,-0.41922 3.91318,-1.4375 2.42239,-1.01818 4.84483,-2.93483 7.26733,-5.74997 2.42238,-2.81504 3.72677,-6.88794 3.91319,-12.21871 -0.0899,-6.64834 -2.60553,-12.21863 -7.54685,-16.71088 -4.94145,-4.49208 -11.76954,-6.82801 -20.4843,-7.00778 -8.78544,0.40438 -15.8959,2.02156 -21.3314,4.85154 -5.43555,2.83015 -8.23352,4.44733 -8.39394,4.85155 l 8.16291,12.62942 c -0.0449,-0.34647 1.66209,-1.73263 5.12108,-4.15847 3.45894,-2.4257 8.93939,-3.81186 16.44135,-4.15847 5.77239,0.29207 9.59073,1.86433 11.45503,4.71679 1.8642,2.85259 2.71771,5.23344 2.56054,7.14255 0.0449,1.8643 -0.85357,4.06547 -2.6953,6.60349 -1.84185,2.53813 -4.89652,3.9307 -9.16403,4.17772 l -9.70309,0 z"
         style="fill:#000000;font-family:Russian Road Sign;-inkscape-font-specification:Russian Road Sign"
         id="path8875" />
      <path
         d="m 258.96605,221.45613 c -11.84012,0.32737 -20.6576,4.75536 -26.45248,13.28399 -5.79491,8.52878 -8.68273,19.19446 -8.66347,31.9971 -0.0193,12.80271 2.86856,23.4684 8.66347,31.99709 5.79488,8.52871 14.61236,12.95671 26.45248,13.28399 11.84002,-0.32729 20.6575,-4.75528 26.45247,-13.28399 5.79482,-8.52869 8.68264,-19.19438 8.66347,-31.99709 0.0192,-12.80264 -2.86865,-23.46833 -8.66347,-31.9971 -5.79497,-8.52863 -14.61245,-12.95662 -26.45247,-13.28399 z m 0,14.01557 c 6.04191,0.0899 10.93837,2.87506 14.68939,8.35544 3.7509,5.48051 5.68254,13.11719 5.79491,22.91008 -0.11237,9.79296 -2.044,17.42965 -5.7949,22.91007 -3.75102,5.48046 -8.64748,8.26561 -14.6894,8.35544 -6.04202,-0.0898 -10.93848,-2.87498 -14.68941,-8.35544 -3.75099,-5.48043 -5.68262,-13.11711 -5.79489,-22.91007 0.11228,-9.79289 2.04391,-17.42957 5.7949,-22.91008 3.75093,-5.48038 8.64739,-8.26552 14.6894,-8.35544 z"
         style="fill:#000000;font-family:Russian Road Sign;-inkscape-font-specification:Russian Road Sign"
         id="path8877" />
      <path
         d="m 313.84077,309.86206 15.0937,0 0,-38.81236 32.34363,0 0,38.81236 15.0937,0 0,-86.24969 -15.0937,0 0,34.49988 -32.34363,0 0,-34.49988 -15.0937,0 z"
         style="fill:#000000;font-family:Russian Road Sign;-inkscape-font-specification:Russian Road Sign"
         id="path8879" />
      <path
         d="m 422.62157,279.67467 10.78121,-36.65612 10.78122,36.65612 z m 2.15624,-56.0623 -28.03114,86.24969 16.17181,0 5.39061,-17.24994 30.18739,0 5.39061,17.24994 16.17181,0 -28.03115,-86.24969 z"
         style="fill:#000000;font-family:Russian Road Sign;-inkscape-font-specification:Russian Road Sign"
         id="path8881" />
    </g>
    <g
       style="font-size:154.01928711px;font-style:normal;font-variant:normal;font-weight:normal;font-stretch:normal;line-height:125%;letter-spacing:-4.40625px;word-spacing:0px;fill:#000000;fill-opacity:1;stroke:none;font-family:Arial;-inkscape-font-specification:Arial"
       id="text8386-5"
       transform="translate(0,-2.6171874e-6)">
      <path
         inkscape:connector-curvature="0"
         d="m 169.69022,271.0497 9.70309,0 c 3.88568,0.045 7.16496,1.30277 9.83785,3.77342 2.67279,2.47073 4.06536,5.88477 4.17772,10.24215 -0.13482,3.84083 -1.752,6.94043 -4.85154,9.2988 -3.09965,2.3584 -6.87307,3.57128 -11.32027,3.63866 -8.06349,-0.40429 -14.03807,-2.02147 -17.92377,-4.85155 -3.88575,-2.83005 -5.81738,-4.44723 -5.7949,-4.85154 l -9.70309,11.85933 c 0.20214,0.49415 3.30173,2.4707 9.29879,5.92966 5.99703,3.45898 13.67864,5.43553 23.04484,5.92967 10.30949,-0.40429 18.26062,-3.36912 23.85343,-8.8945 5.59269,-5.52535 8.42275,-11.18548 8.49021,-16.9804 -0.22635,-5.69671 -1.81025,-10.11568 -4.75172,-13.2569 -2.94161,-3.14115 -5.88315,-5.32401 -8.82463,-6.54859 -2.94159,-1.22449 -4.5255,-1.81013 -4.75171,-1.75694 0.18629,0.0599 1.49068,-0.41922 3.91318,-1.4375 2.42239,-1.01818 4.84483,-2.93483 7.26733,-5.74997 2.42238,-2.81504 3.72677,-6.88794 3.91319,-12.21871 -0.0899,-6.64834 -2.60553,-12.21863 -7.54685,-16.71088 -4.94145,-4.49208 -11.76954,-6.82801 -20.4843,-7.00778 -8.78544,0.40438 -15.8959,2.02156 -21.3314,4.85154 -5.43555,2.83015 -8.23352,4.44733 -8.39394,4.85155 l 8.16291,12.62942 c -0.0449,-0.34647 1.66209,-1.73263 5.12108,-4.15847 3.45894,-2.4257 8.93939,-3.81186 16.44135,-4.15847 5.77239,0.29207 9.59073,1.86433 11.45503,4.71679 1.8642,2.85259 2.71771,5.23344 2.56054,7.14255 0.0449,1.8643 -0.85357,4.06547 -2.6953,6.60349 -1.84185,2.53813 -4.89652,3.9307 -9.16403,4.17772 l -9.70309,0 z"
         style="fill:#000000;font-family:Russian Road Sign;-inkscape-font-specification:Russian Road Sign"
         id="path8875-7" />
      <path
         inkscape:connector-curvature="0"
         d="m 258.96605,221.45613 c -11.84012,0.32737 -20.6576,4.75536 -26.45248,13.28399 -5.79491,8.52878 -8.68273,19.19446 -8.66347,31.9971 -0.0193,12.80271 2.86856,23.4684 8.66347,31.99709 5.79488,8.52871 14.61236,12.95671 26.45248,13.28399 11.84002,-0.32729 20.6575,-4.75528 26.45247,-13.28399 5.79482,-8.52869 8.68264,-19.19438 8.66347,-31.99709 0.0192,-12.80264 -2.86865,-23.46833 -8.66347,-31.9971 -5.79497,-8.52863 -14.61245,-12.95662 -26.45247,-13.28399 z m 0,14.01557 c 6.04191,0.0899 10.93837,2.87506 14.68939,8.35544 3.7509,5.48051 5.68254,13.11719 5.79491,22.91008 -0.11237,9.79296 -2.044,17.42965 -5.7949,22.91007 -3.75102,5.48046 -8.64748,8.26561 -14.6894,8.35544 -6.04202,-0.0898 -10.93848,-2.87498 -14.68941,-8.35544 -3.75099,-5.48043 -5.68262,-13.11711 -5.79489,-22.91007 0.11228,-9.79289 2.04391,-17.42957 5.7949,-22.91008 3.75093,-5.48038 8.64739,-8.26552 14.6894,-8.35544 z"
         style="fill:#000000;font-family:Russian Road Sign;-inkscape-font-specification:Russian Road Sign"
         id="path8877-6" />
      <path
         inkscape:connector-curvature="0"
         d="m 313.84077,309.86206 15.0937,0 0,-38.81236 32.34363,0 0,38.81236 15.0937,0 0,-86.24969 -15.0937,0 0,34.49988 -32.34363,0 0,-34.49988 -15.0937,0 z"
         style="fill:#000000;font-family:Russian Road Sign;-inkscape-font-specification:Russian Road Sign"
         id="path8879-1" />
      <path
         inkscape:connector-curvature="0"
         d="m 422.62157,279.67467 10.78121,-36.65612 10.78122,36.65612 z m 2.15624,-56.0623 -28.03114,86.24969 16.17181,0 5.39061,-17.24994 30.18739,0 5.39061,17.24994 16.17181,0 -28.03115,-86.24969 z"
         style="fill:#000000;font-family:Russian Road Sign;-inkscape-font-specification:Russian Road Sign"
         id="path8881-8" />
    </g>
    <path
       inkscape:connector-curvature="0"
       style="color:#000000;fill:#7f7f7f;fill-opacity:1;fill-rule:nonzero;stroke:none;stroke-width:1px;marker:none;visibility:visible;display:inline;overflow:visible;enable-background:accumulate"
       d="m 300.00005,416.0406 c -113.25788,0 -205.07147,91.8136 -205.07147,205.0714 0,113.2579 91.81359,205.0715 205.07147,205.0715 113.25778,0 205.07137,-91.8136 205.07137,-205.0715 0,-113.2578 -91.81359,-205.0714 -205.07137,-205.0714 z m -7.01053,60.1815 c 6.5265,0 32.06184,5.8848 32.06184,26.6632 0,8.4482 -5.46253,22.0995 -17.34178,22.0995 -8.43441,0 -35.28544,-13.2196 -35.28544,-29.8091 0,-14.4381 12.85697,-18.9536 20.56538,-18.9536 z m -5.10741,52.433 c 2.42259,0 4.83966,0.611 7.01053,1.8643 l 18.07969,10.4284 c 2.17078,1.2532 3.51497,3.5911 3.51497,6.0978 l 0,74.6102 36.31472,36.3342 19.9634,79.8535 c 1.78547,7.1425 -2.54794,14.391 -9.69037,16.1766 -7.14253,1.7855 -14.3911,-2.5675 -16.17666,-9.7098 l -15.84637,-63.4246 -57.05494,-57.0743 c -1.31578,-1.3158 -2.05847,-3.0913 -2.05847,-4.952 l 0,-58.8804 -21.75,12.5645 0,45.0536 c 0,5.8123 -4.71309,10.5254 -10.5255,10.5254 -5.81231,0 -10.52541,-4.7131 -10.52541,-10.5254 l 0,-49.1123 c 0,-5.0132 2.66888,-9.6306 7.01053,-12.1373 l 44.70404,-25.8281 c 2.17078,-1.2533 4.60715,-1.8644 7.02984,-1.8643 z m 36.2565,48.7433 39.42187,39.4413 c 1.90435,1.9047 3.08775,4.5316 3.08775,7.4378 0,5.8123 -4.71309,10.5254 -10.5255,10.5254 -2.90615,0 -5.51371,-1.2027 -7.41825,-3.1072 l -24.56587,-24.5269 0,-29.7704 z m -48.14128,58.3366 19.51669,19.5168 -53.44285,92.4957 -0.15534,-0.078 c -2.29247,4.0318 -6.62391,6.7581 -11.5935,6.7581 -7.36228,0 -13.34128,-5.979 -13.34128,-13.3413 0,-3.2546 1.18903,-6.2301 3.12656,-8.5446 l 55.88972,-96.807 z"
       id="path6156" />
    <path
       sodipodi:type="arc"
       style="color:#000000;fill:none;stroke:#7f7f7f;stroke-width:0.23577261999999999;stroke-miterlimit:4;stroke-opacity:1;stroke-dasharray:none;marker:none;visibility:visible;display:inline;overflow:visible;enable-background:accumulate"
       id="path11396"
       sodipodi:cx="-87.720657"
       sodipodi:cy="432.25998"
       sodipodi:rx="22.107042"
       sodipodi:ry="29.465372"
       d="m -65.613615,432.25998 a 22.107042,29.465372 0 1 1 -44.214085,0 22.107042,29.465372 0 1 1 44.214085,0 z"
       transform="matrix(9.7932594,0,0,7.3476083,1159.0712,-2554.9648)" />
    <path
       inkscape:connector-curvature="0"
       style="color:#000000;fill:#ff0000;fill-opacity:1;fill-rule:nonzero;stroke:none;stroke-width:1px;marker:none;visibility:visible;display:inline;overflow:visible;enable-background:accumulate"
       d="m 300,857.3622 c -6.72172,0 -13.23491,0.9001 -19.43359,2.5585 l 8.4961,53.4961 -42.07032,-34.1015 c -9.1865,9.1799 -16.00063,20.7286 -19.45308,33.6523 l 50.58589,19.3945 -50.5859,19.3945 c 3.45041,12.9259 10.26807,24.4723 19.45309,33.6523 l 42.07032,-34.1014 -8.4961,53.5157 c 6.19682,1.6576 12.71358,2.539 19.43359,2.539 6.72171,0 13.2349,-0.9001 19.43358,-2.5585 l -8.4961,-53.4962 42.0703,34.1014 c 9.1865,-9.1798 16.00064,-20.7284 19.45311,-33.6523 l -50.5859,-19.3945 50.5859,-19.3945 c -3.45246,-12.9237 -10.26661,-24.4724 -19.45311,-33.6523 l -42.0703,34.1015 8.4961,-53.4961 C 313.2349,858.2623 306.7217,857.3622 300,857.3622 z"
       id="path14544-7" />
    <path
       style="opacity:1;color:#000000;fill:#000000;fill-opacity:1;fill-rule:nonzero;stroke:none;stroke-width:3.54299997999999980;marker:none;visibility:visible;display:inline;overflow:visible;enable-background:accumulate"
       d="M 45 20 C 31.15 20 20 31.15 20 45 L 20 855 C 20 868.85 31.15 880 45 880 L 555 880 C 568.85 880 580 868.85 580 855 L 580 45 C 580 31.15 568.85 20 555 20 L 45 20 z M 45 30 L 555 30 C 562.7801 30 569.15801 35.870134 569.9375 43.4375 L 30 647.59375 L 30 45 C 30 36.69 36.69 30 45 30 z M 570 64.90625 L 570 90.21875 L 30 694.46875 L 30 669.15625 L 570 64.90625 z M 570 111.78125 L 570 137.09375 L 30 741.34375 L 30 716.03125 L 570 111.78125 z M 570 158.65625 L 570 183.96875 L 30 788.21875 L 30 762.90625 L 570 158.65625 z M 570 205.53125 L 570 230.84375 L 30 835.09375 L 30 809.78125 L 570 205.53125 z M 570 252.40625 L 570 855 C 570 863.31 563.31 870 555 870 L 45 870 C 37.219903 870 30.841994 864.12987 30.0625 856.5625 L 570 252.40625 z "
       transform="translate(0,152.36218)"
       id="rect8666" />
  </g>
</svg>
