<?xml version="1.0" encoding="UTF-8" standalone="no"?>
<!-- Created with Inkscape (http://www.inkscape.org/) -->

<svg
   xmlns:dc="http://purl.org/dc/elements/1.1/"
   xmlns:cc="http://creativecommons.org/ns#"
   xmlns:rdf="http://www.w3.org/1999/02/22-rdf-syntax-ns#"
   xmlns:svg="http://www.w3.org/2000/svg"
   xmlns="http://www.w3.org/2000/svg"
   xmlns:sodipodi="http://sodipodi.sourceforge.net/DTD/sodipodi-0.dtd"
   xmlns:inkscape="http://www.inkscape.org/namespaces/inkscape"
   width="700"
   height="700"
   id="svg2"
   version="1.1"
   inkscape:version="0.48.4 r9939"
   sodipodi:docname="5.12.svg">
  <title
     id="title3002">5.12 Конец дороги с полосой для маршрутных транспортных средств</title>
  <defs
     id="defs4" />
  <sodipodi:namedview
     id="base"
     pagecolor="#ffffff"
     bordercolor="#666666"
     borderopacity="1.0"
     inkscape:pageopacity="0.0"
     inkscape:pageshadow="2"
     inkscape:zoom="1"
     inkscape:cx="311.12211"
     inkscape:cy="371.07566"
     inkscape:document-units="px"
     inkscape:current-layer="layer1"
     showgrid="false"
     inkscape:window-width="1920"
     inkscape:window-height="1024"
     inkscape:window-x="-4"
     inkscape:window-y="-4"
     inkscape:window-maximized="1"
     inkscape:snap-bbox="true"
     inkscape:bbox-paths="false"
     inkscape:bbox-nodes="false"
     inkscape:snap-bbox-edge-midpoints="false"
     inkscape:snap-bbox-midpoints="false"
     inkscape:object-paths="false"
     inkscape:snap-intersection-paths="true"
     inkscape:object-nodes="false"
     inkscape:snap-smooth-nodes="false"
     inkscape:snap-nodes="true"
     showguides="true"
     inkscape:guide-bbox="true"
     inkscape:snap-object-midpoints="false"
     inkscape:snap-center="false" />
  <metadata
     id="metadata7">
    <rdf:RDF>
      <cc:Work
         rdf:about="">
        <dc:format>image/svg+xml</dc:format>
        <dc:type
           rdf:resource="http://purl.org/dc/dcmitype/StillImage" />
        <dc:title>5.12 Конец дороги с полосой для маршрутных транспортных средств</dc:title>
        <cc:license
           rdf:resource="http://creativecommons.org/licenses/by-sa/3.0/" />
        <dc:description>ГОСТ Р 52290-2004
Размеры и пропорции по типоразмеру II</dc:description>
      </cc:Work>
      <cc:License
         rdf:about="http://creativecommons.org/licenses/by-sa/3.0/">
        <cc:permits
           rdf:resource="http://creativecommons.org/ns#Reproduction" />
        <cc:permits
           rdf:resource="http://creativecommons.org/ns#Distribution" />
        <cc:requires
           rdf:resource="http://creativecommons.org/ns#Notice" />
        <cc:requires
           rdf:resource="http://creativecommons.org/ns#Attribution" />
        <cc:permits
           rdf:resource="http://creativecommons.org/ns#DerivativeWorks" />
        <cc:requires
           rdf:resource="http://creativecommons.org/ns#ShareAlike" />
      </cc:License>
    </rdf:RDF>
  </metadata>
  <g
     inkscape:label="Layer 1"
     inkscape:groupmode="layer"
     id="layer1"
     transform="translate(0,-352.36218)">
    <rect
       ry="45"
       rx="45"
       style="color:#000000;fill:#ffffff;fill-opacity:1;stroke:none;stroke-width:2;marker:none;visibility:visible;display:inline;overflow:visible;enable-background:accumulate;opacity:1"
       id="rect7667"
       width="700"
       height="700"
       x="0"
       y="352.36218" />
    <path
       inkscape:connector-curvature="0"
       style="color:#000000;fill:#0d69e1;fill-opacity:1;fill-rule:nonzero;stroke:none;stroke-width:3.54299998;marker:none;visibility:visible;display:inline;overflow:visible;enable-background:accumulate"
       d="m 45,372.36216 c -13.85,0 -25,11.15 -25,25 l 0,610.00004 c 0,13.85 11.15,25 25,25 l 293.34375,0 0,-660.00004 -293.34375,0 z m 316.65625,0 0,660.00004 128.34375,0 0,-446.65629 -58.3437,0 L 525,422.36216 l 93.3438,163.34375 -58.3438,0 0,446.65629 95,0 c 13.85,0 25,-11.15 25,-25 l 0,-610.00004 c 0,-13.85 -11.15,-25 -25,-25 l -293.34375,0 z m -256.65625,50 140,0 c 19.39,0 35,15.61 35,35 l 0,163.34375 c 0,6.46333 -5.19292,11.65625 -11.65625,11.65625 l -186.6875,0 C 75.19292,632.36216 70,627.16924 70,620.70591 l 0,-163.34375 c 0,-19.39 15.61001,-35 35,-35 z m -7,15.15625 c -6.46334,0 -11.65625,5.22416 -11.65625,11.6875 l 0,54.8125 c 0,6.46334 5.19291,11.6875 11.65625,11.6875 l 156.34375,0 c 6.46334,0 11.65625,-5.22416 11.65625,-11.6875 l 0,-54.8125 c 0,-6.46334 -5.19291,-11.6875 -11.65625,-11.6875 l -156.34375,0 z m 8.15625,132.4375 c -9.02065,0 -16.3125,7.29184 -16.3125,16.3125 0,9.02065 7.29185,16.34375 16.3125,16.34375 9.02065,0 16.34375,-7.3231 16.34375,-16.34375 0,-9.02066 -7.3231,-16.3125 -16.34375,-16.3125 z m 137.6875,0 c -9.02065,0 -16.34375,7.29184 -16.34375,16.3125 0,9.02065 7.3231,16.34375 16.34375,16.34375 9.02066,0 16.3125,-7.3231 16.3125,-16.34375 0,-9.02066 -7.29184,-16.3125 -16.3125,-16.3125 z m -164.5,74.0625 28,0 0,21 c 0,7.73199 -6.26801,14 -14,14 -7.73199,0 -14,-6.26801 -14,-14 l 0,-21 z m 163.3125,0 28,0 0,21 c 0,7.73199 -6.26802,14 -14,14 -7.73199,0 -14,-6.26801 -14,-14 l 0,-21 z M 140,702.36216 l 70,0 0,116.65625 58.34375,0 L 175,982.36216 81.65625,819.01841 l 58.34375,0 0,-116.65625 z"
       id="rect8136" />
    <rect
       y="353.36218"
       x="1"
       height="698"
       width="698"
       id="rect7101"
       style="color:#000000;fill:none;stroke:#000000;stroke-width:2;stroke-miterlimit:4;stroke-opacity:1;stroke-dasharray:none;marker:none;visibility:visible;display:inline;overflow:visible;enable-background:accumulate;opacity:1"
       rx="44"
       ry="44" />
    <path
       style="opacity:1;color:#000000;fill:#ff0000;fill-opacity:1;fill-rule:nonzero;stroke:none;stroke-width:3.54299997999999980;marker:none;visibility:visible;display:inline;overflow:visible;enable-background:accumulate"
       d="M 625.5625 20 L 20 625.5625 L 20 655 C 20 668.85 31.15 680 45 680 L 74.4375 680 L 680 74.4375 L 680 45 C 680 31.15 668.85 20 655 20 L 625.5625 20 z "
       transform="translate(0,352.36218)"
       id="rect8086" />
  </g>
</svg>
