<?xml version="1.0" encoding="UTF-8"?>
<svg xmlns="http://www.w3.org/2000/svg" width="700" height="700" version="1.1">
<title>5.20 Искусственная неровность</title>
<rect style="fill:#ffffff;" x="0" y="0" width="700" height="700" rx="45" ry="45"/>
<rect style="fill:none;stroke:#000000;stroke-width:2px;" x="1" y="1" width="698" height="698" rx="44" ry="44"/>
<path style="fill:#0d69e1;" d="m 20,655 c 0,13.807 11.193,25 25,25 l 610,0 c 13.807,0 25,-11.193 25,-25 l 0,-610 c 0,-13.807 -11.193,-25 -25,-25 l -610,0 c -13.807,0 -25,11.193 -25,25 z m 31.325,-96.250 c 0,-1.755 0.462,-3.480 1.340,-5 l 288.675,-500 c 1.786,-3.094 5.088,-5 8.660,-5 c 3.573,0 6.874,1.906 8.660,5 l 288.675,500 c 0.878,1.520 1.340,3.245 1.340,5 c 0,5.523 -4.477,10 -10,10 l -577.350,0 c -5.523,0 -10,-4.477 -10,-10 z"/>
<path style="fill:#000000;" d="m 575.806,496.774 l 0,-22.580 l -56.451,0 c -43.468,0 -59.839,-67.742 -169.355,-67.742 c -109.516,0 -125.887,67.742 -169.355,67.742 l -56.451,0 l 0,22.580 z"/>
</svg>