<?xml version="1.0" encoding="UTF-8" standalone="no"?>
<!-- Created with Inkscape (http://www.inkscape.org/) -->

<svg
   xmlns:dc="http://purl.org/dc/elements/1.1/"
   xmlns:cc="http://creativecommons.org/ns#"
   xmlns:rdf="http://www.w3.org/1999/02/22-rdf-syntax-ns#"
   xmlns:svg="http://www.w3.org/2000/svg"
   xmlns="http://www.w3.org/2000/svg"
   xmlns:sodipodi="http://sodipodi.sourceforge.net/DTD/sodipodi-0.dtd"
   xmlns:inkscape="http://www.inkscape.org/namespaces/inkscape"
   width="600"
   height="900"
   id="svg2"
   version="1.1"
   inkscape:version="0.48.4 r9939"
   sodipodi:docname="5.21.svg">
  <title
     id="title3004">5.27 Зона с ограничениями стоянки</title>
  <defs
     id="defs4" />
  <sodipodi:namedview
     id="base"
     pagecolor="#ffffff"
     bordercolor="#666666"
     borderopacity="1.0"
     inkscape:pageopacity="0.0"
     inkscape:pageshadow="2"
     inkscape:zoom="1"
     inkscape:cx="366.05377"
     inkscape:cy="502.90232"
     inkscape:document-units="px"
     inkscape:current-layer="layer1"
     showgrid="false"
     inkscape:window-width="1920"
     inkscape:window-height="1024"
     inkscape:window-x="-4"
     inkscape:window-y="-4"
     inkscape:window-maximized="1" />
  <metadata
     id="metadata7">
    <rdf:RDF>
      <cc:Work
         rdf:about="">
        <dc:format>image/svg+xml</dc:format>
        <dc:type
           rdf:resource="http://purl.org/dc/dcmitype/StillImage" />
        <dc:title>5.27 Зона с ограничениями стоянки</dc:title>
        <cc:license
           rdf:resource="http://creativecommons.org/licenses/by-sa/3.0/" />
        <dc:description>ГОСТ Р 52290-2004
Размеры и пропорции по типоразмеру I</dc:description>
      </cc:Work>
      <cc:License
         rdf:about="http://creativecommons.org/licenses/by-sa/3.0/">
        <cc:permits
           rdf:resource="http://creativecommons.org/ns#Reproduction" />
        <cc:permits
           rdf:resource="http://creativecommons.org/ns#Distribution" />
        <cc:requires
           rdf:resource="http://creativecommons.org/ns#Notice" />
        <cc:requires
           rdf:resource="http://creativecommons.org/ns#Attribution" />
        <cc:permits
           rdf:resource="http://creativecommons.org/ns#DerivativeWorks" />
        <cc:requires
           rdf:resource="http://creativecommons.org/ns#ShareAlike" />
      </cc:License>
    </rdf:RDF>
  </metadata>
  <g
     inkscape:label="Layer 1"
     inkscape:groupmode="layer"
     id="layer1"
     transform="translate(0,-152.36218)">
    <rect
       style="color:#000000;fill:#ffffff;fill-opacity:1;fill-rule:nonzero;stroke:none;stroke-width:4;marker:none;visibility:visible;display:inline;overflow:visible;enable-background:accumulate;opacity:1"
       id="rect3256"
       width="600"
       height="900"
       x="0"
       y="152.36218"
       rx="45"
       ry="45" />
    <rect
       ry="44"
       rx="44"
       y="153.36218"
       x="1"
       height="898"
       width="598"
       id="rect3041"
       style="color:#000000;fill:none;stroke:#000000;stroke-width:2;stroke-miterlimit:4;stroke-opacity:1;stroke-dasharray:none;marker:none;visibility:visible;display:inline;overflow:visible;enable-background:accumulate;opacity:1" />
    <path
       style="opacity:1;color:#000000;fill:#000000;fill-opacity:1;fill-rule:nonzero;stroke:none;stroke-width:3.54299997999999980;marker:none;visibility:visible;display:inline;overflow:visible;enable-background:accumulate"
       d="M 45 20 C 31.15 20 20 31.15 20 45 L 20 855 C 20 868.85 31.15 880 45 880 L 555 880 C 568.85 880 580 868.85 580 855 L 580 45 C 580 31.15 568.85 20 555 20 L 45 20 z M 45 30 L 555 30 C 563.31 30 570 36.69 570 45 L 570 855 C 570 863.31 563.31 870 555 870 L 45 870 C 36.69 870 30 863.31 30 855 L 30 45 C 30 36.69 36.69 30 45 30 z "
       transform="translate(0,152.36218)"
       id="rect8666" />
    <g
       style="font-size:154.01928710999999000px;font-style:normal;font-variant:normal;font-weight:normal;font-stretch:normal;line-height:125%;letter-spacing:-4.40625000000000000px;word-spacing:0px;opacity:1;fill:#000000;fill-opacity:1;stroke:none;font-family:Arial;-inkscape-font-specification:Arial"
       id="text8386">
      <path
         d="m 169.69022,271.0497 9.70309,0 c 3.88568,0.045 7.16496,1.30277 9.83785,3.77342 2.67279,2.47073 4.06536,5.88477 4.17772,10.24215 -0.13482,3.84083 -1.752,6.94043 -4.85154,9.2988 -3.09965,2.3584 -6.87307,3.57128 -11.32027,3.63866 -8.06349,-0.40429 -14.03807,-2.02147 -17.92377,-4.85155 -3.88575,-2.83005 -5.81738,-4.44723 -5.7949,-4.85154 l -9.70309,11.85933 c 0.20214,0.49415 3.30173,2.4707 9.29879,5.92966 5.99703,3.45898 13.67864,5.43553 23.04484,5.92967 10.30949,-0.40429 18.26062,-3.36912 23.85343,-8.8945 5.59269,-5.52535 8.42275,-11.18548 8.49021,-16.9804 -0.22635,-5.69671 -1.81025,-10.11568 -4.75172,-13.2569 -2.94161,-3.14115 -5.88315,-5.32401 -8.82463,-6.54859 -2.94159,-1.22449 -4.5255,-1.81013 -4.75171,-1.75694 0.18629,0.0599 1.49068,-0.41922 3.91318,-1.4375 2.42239,-1.01818 4.84483,-2.93483 7.26733,-5.74997 2.42238,-2.81504 3.72677,-6.88794 3.91319,-12.21871 -0.0899,-6.64834 -2.60553,-12.21863 -7.54685,-16.71088 -4.94145,-4.49208 -11.76954,-6.82801 -20.4843,-7.00778 -8.78544,0.40438 -15.8959,2.02156 -21.3314,4.85154 -5.43555,2.83015 -8.23352,4.44733 -8.39394,4.85155 l 8.16291,12.62942 c -0.0449,-0.34647 1.66209,-1.73263 5.12108,-4.15847 3.45894,-2.4257 8.93939,-3.81186 16.44135,-4.15847 5.77239,0.29207 9.59073,1.86433 11.45503,4.71679 1.8642,2.85259 2.71771,5.23344 2.56054,7.14255 0.0449,1.8643 -0.85357,4.06547 -2.6953,6.60349 -1.84185,2.53813 -4.89652,3.9307 -9.16403,4.17772 l -9.70309,0 z"
         style="fill:#000000;font-family:Russian Road Sign;-inkscape-font-specification:Russian Road Sign"
         id="path8875" />
      <path
         d="m 258.96605,221.45613 c -11.84012,0.32737 -20.6576,4.75536 -26.45248,13.28399 -5.79491,8.52878 -8.68273,19.19446 -8.66347,31.9971 -0.0193,12.80271 2.86856,23.4684 8.66347,31.99709 5.79488,8.52871 14.61236,12.95671 26.45248,13.28399 11.84002,-0.32729 20.6575,-4.75528 26.45247,-13.28399 5.79482,-8.52869 8.68264,-19.19438 8.66347,-31.99709 0.0192,-12.80264 -2.86865,-23.46833 -8.66347,-31.9971 -5.79497,-8.52863 -14.61245,-12.95662 -26.45247,-13.28399 z m 0,14.01557 c 6.04191,0.0899 10.93837,2.87506 14.68939,8.35544 3.7509,5.48051 5.68254,13.11719 5.79491,22.91008 -0.11237,9.79296 -2.044,17.42965 -5.7949,22.91007 -3.75102,5.48046 -8.64748,8.26561 -14.6894,8.35544 -6.04202,-0.0898 -10.93848,-2.87498 -14.68941,-8.35544 -3.75099,-5.48043 -5.68262,-13.11711 -5.79489,-22.91007 0.11228,-9.79289 2.04391,-17.42957 5.7949,-22.91008 3.75093,-5.48038 8.64739,-8.26552 14.6894,-8.35544 z"
         style="fill:#000000;font-family:Russian Road Sign;-inkscape-font-specification:Russian Road Sign"
         id="path8877" />
      <path
         d="m 313.84077,309.86206 15.0937,0 0,-38.81236 32.34363,0 0,38.81236 15.0937,0 0,-86.24969 -15.0937,0 0,34.49988 -32.34363,0 0,-34.49988 -15.0937,0 z"
         style="fill:#000000;font-family:Russian Road Sign;-inkscape-font-specification:Russian Road Sign"
         id="path8879" />
      <path
         d="m 422.62157,279.67467 10.78121,-36.65612 10.78122,36.65612 z m 2.15624,-56.0623 -28.03114,86.24969 16.17181,0 5.39061,-17.24994 30.18739,0 5.39061,17.24994 16.17181,0 -28.03115,-86.24969 z"
         style="fill:#000000;font-family:Russian Road Sign;-inkscape-font-specification:Russian Road Sign"
         id="path8881" />
    </g>
    <path
       inkscape:connector-curvature="0"
       style="opacity:1;color:#000000;fill:#ff0000;fill-opacity:1;fill-rule:nonzero;stroke:none;stroke-width:1px;marker:none;visibility:visible;display:inline;overflow:visible;enable-background:accumulate"
       d="m 299.99994,403.61196 c -120.12194,0 -217.500006,97.37807 -217.500006,217.50001 0,120.12192 97.378066,217.50004 217.500006,217.50004 120.12197,0 217.5,-97.37812 217.5,-217.50004 0,-120.12194 -97.37803,-217.50001 -217.5,-217.50001 z m 0,36.77344 c 99.81216,0 180.72657,80.91446 180.72657,180.72657 0,44.68186 -16.21125,85.57307 -43.07813,117.11723 L 182.88276,483.46353 C 214.4269,456.5967 255.31808,440.3854 299.99994,440.3854 z m -137.64843,63.60938 254.76562,254.76567 c -31.54416,26.86678 -72.43533,43.07812 -117.11719,43.07812 -99.81211,0 -180.72656,-80.9145 -180.72656,-180.7266 0,-44.68186 16.21129,-85.57305 43.07813,-117.11719 z"
       id="path7632" />
    <path
       inkscape:connector-curvature="0"
       style="opacity:1;color:#000000;fill:#0d69e1;fill-opacity:1;fill-rule:nonzero;stroke:none;stroke-width:1px;marker:none;visibility:visible;display:inline;overflow:visible;enable-background:accumulate"
       d="m 299.99994,446.92446 c -40.51405,0 -77.80158,13.83334 -107.39062,37.03125 l 244.54687,244.54693 c 23.19788,-29.5891 37.03125,-66.87661 37.03125,-107.39067 0,-96.20444 -77.98303,-174.18751 -174.1875,-174.18751 z"
       id="path8956" />
    <path
       inkscape:connector-curvature="0"
       style="opacity:1;color:#000000;fill:#0d69e1;fill-opacity:1;fill-rule:nonzero;stroke:none;stroke-width:1px;marker:none;visibility:visible;display:inline;overflow:visible;enable-background:accumulate"
       d="m 162.84369,513.72134 c -23.19791,29.58904 -37.03125,66.87657 -37.03125,107.39063 0,96.20442 77.98306,174.18754 174.1875,174.18754 40.51404,0 77.80154,-13.83337 107.39063,-37.03125 L 162.84369,513.72134 z"
       id="path7644" />
    <g
       style="font-size:100.44771575999999000px;font-style:normal;font-variant:normal;font-weight:normal;font-stretch:normal;line-height:125%;letter-spacing:-5.34375000000000000px;word-spacing:0px;opacity:1;fill:#000000;fill-opacity:1;stroke:none;font-family:Arial;-inkscape-font-specification:Arial"
       id="text8633">
      <path
         d="m 105.47202,917.12769 26.01562,0 c -3.99905,6.41605 -7.77834,13.62308 -11.33789,21.62109 -3.55959,7.99806 -6.10841,16.25977 -7.64649,24.78516 l 10.54688,0 c 2.16794,-10.06347 4.86325,-18.94041 8.08593,-26.63086 3.22263,-7.6904 6.62106,-14.98531 10.19532,-21.88477 l 0,-7.03125 -33.75,0 z"
         style="fill:#000000;font-family:Russian Road Sign;-inkscape-font-specification:Russian Road Sign"
         id="path8884" />
      <path
         d="m 157.70662,958.61206 c -0.0439,-1.73502 -0.64236,-3.179 -1.79528,-4.33195 -1.15296,-1.15293 -2.59694,-1.75136 -4.33195,-1.79528 -1.73504,0.0439 -3.17902,0.64235 -4.33195,1.79528 -1.15295,1.15295 -1.75138,2.59693 -1.79528,4.33195 0.0439,1.73503 0.64233,3.17901 1.79528,4.33195 1.15293,1.15294 2.59691,1.75137 4.33195,1.79528 1.73501,-0.0439 3.17899,-0.64234 4.33195,-1.79528 1.15292,-1.15294 1.75135,-2.59692 1.79528,-4.33195 z"
         style="fill:#000000;font-family:Russian Road Sign;-inkscape-font-specification:Russian Road Sign"
         id="path8886" />
    </g>
    <g
       style="font-size:83.70643615999999600px;font-style:normal;font-variant:normal;font-weight:normal;font-stretch:normal;line-height:125%;letter-spacing:-4.12500000000000000px;word-spacing:0px;opacity:1;fill:#000000;fill-opacity:1;stroke:none;font-family:Arial;-inkscape-font-specification:Arial"
       id="text8637">
      <path
         d="m 185.90475,916.77612 c -4.76075,0.12212 -8.56934,2.36821 -11.42578,6.73828 -2.85645,4.37016 -4.32129,10.13187 -4.39453,17.28516 0.0732,7.15334 1.53808,12.91505 4.39453,17.28516 2.85644,4.37011 6.66503,6.61621 11.42578,6.73828 4.76072,-0.12207 8.56931,-2.36816 11.42579,-6.73828 2.85641,-4.37011 4.32125,-10.13183 4.39453,-17.28516 -0.0733,-6.8237 -1.53812,-12.49124 -4.39453,-17.00265 -2.85648,-4.51133 -6.66507,-6.85159 -11.42579,-7.02079 z m 0,7.28237 c 2.2949,-0.0348 4.12944,1.29049 5.50363,3.976 1.37414,2.68558 2.07866,6.9406 2.11356,12.76507 -0.0349,5.82452 -0.73942,10.07953 -2.11356,12.76507 -1.37419,2.68555 -3.20873,4.01088 -5.50363,3.976 -2.29494,0.0349 -4.12948,-1.29045 -5.50362,-3.976 -1.37418,-2.68554 -2.0787,-6.94056 -2.11356,-12.76507 0.0349,-5.82447 0.73938,-10.07949 2.11356,-12.76507 1.37414,-2.68551 3.20868,-4.01084 5.50362,-3.976 z"
         style="fill:#000000;font-family:Russian Road Sign;-inkscape-font-specification:Russian Road Sign"
         id="path8889" />
      <path
         d="m 223.95995,916.77612 c -4.76076,0.12212 -8.56935,2.36821 -11.42578,6.73828 -2.85646,4.37016 -4.3213,10.13187 -4.39453,17.28516 0.0732,7.15334 1.53807,12.91505 4.39453,17.28516 2.85643,4.37011 6.66502,6.61621 11.42578,6.73828 4.76072,-0.12207 8.5693,-2.36816 11.42578,-6.73828 2.85641,-4.37011 4.32125,-10.13183 4.39453,-17.28516 -0.0733,-6.8237 -1.53812,-12.49124 -4.39453,-17.00265 -2.85648,-4.51133 -6.66506,-6.85159 -11.42578,-7.02079 z m 0,7.28237 c 2.2949,-0.0348 4.12944,1.29049 5.50363,3.976 1.37413,2.68558 2.07865,6.9406 2.11356,12.76507 -0.0349,5.82452 -0.73943,10.07953 -2.11356,12.76507 -1.37419,2.68555 -3.20873,4.01088 -5.50363,3.976 -2.29494,0.0349 -4.12948,-1.29045 -5.50363,-3.976 -1.37418,-2.68554 -2.07869,-6.94056 -2.11356,-12.76507 0.0349,-5.82447 0.73938,-10.07949 2.11356,-12.76507 1.37415,-2.68551 3.20869,-4.01084 5.50363,-3.976 z"
         style="fill:#000000;font-family:Russian Road Sign;-inkscape-font-specification:Russian Road Sign"
         id="path8891" />
    </g>
    <g
       style="font-size:100.44771575999999000px;font-style:normal;font-variant:normal;font-weight:normal;font-stretch:normal;line-height:125%;letter-spacing:-5.34375000000000000px;word-spacing:0px;opacity:1;fill:#ff0000;fill-opacity:1;stroke:none;font-family:Arial;-inkscape-font-specification:Arial"
       id="text8651">
      <path
         d="m 325.0414,921.0451 3.31474,4.3192 7.53348,-4.72099 0,43.59375 9.84375,0 0,-56.25 -8.4375,0 z"
         style="fill:#000000;font-family:Russian Road Sign;-inkscape-font-specification:Russian Road Sign"
         id="path8899" />
      <path
         d="m 372.05734,965.24152 c 8.01266,-0.27622 13.78414,-3.49051 17.31445,-9.64285 3.53023,-6.15233 5.25874,-13.58536 5.18555,-22.29911 -0.10259,-8.79948 -2.00688,-15.43313 -5.71289,-19.90095 -3.70609,-4.46771 -8.59867,-6.70683 -14.67774,-6.71735 -4.70216,0.17165 -8.65724,2.26428 -11.86523,6.2779 -3.20802,4.01372 -4.87794,8.91885 -5.00977,14.7154 0.32226,6.51858 2.13867,10.88381 5.44922,13.0957 3.31053,2.21194 6.18162,3.23733 8.61328,3.07618 2.49021,-0.0586 4.89255,-0.64451 7.20703,-1.75782 2.31443,-1.11326 4.36521,-2.40232 6.15235,-3.86718 0.0694,0.22944 -0.14761,1.83534 -0.65104,4.8177 -0.50351,2.98241 -1.71011,5.9648 -3.6198,8.94718 -1.90975,2.9824 -4.93926,4.5883 -9.08854,4.81771 -3.28336,-0.13811 -6.13352,-0.69057 -8.5505,-1.65737 -2.417,-0.96679 -3.68514,-1.51924 -3.80441,-1.65737 l 1.10491,8.6384 c 0.14648,0.12974 1.43554,0.64871 3.86719,1.55691 2.43162,0.90821 5.12693,1.42718 8.08594,1.55692 z m 1.40625,-29.83258 c -1.52346,3e-5 -3.0469,-0.7031 -4.57032,-2.10938 -1.52345,-1.40622 -2.34376,-3.51559 -2.46093,-6.32812 -0.008,-2.61575 0.73659,-5.09343 2.23493,-7.43304 1.49831,-2.33952 3.8002,-3.61184 6.90569,-3.81696 2.22034,0.072 3.95148,0.94374 5.19345,2.61532 1.24191,1.67167 2.13229,3.51071 2.67114,5.51712 0.53878,2.00648 0.86368,3.5479 0.9747,4.62425 -0.0168,0.28882 -0.96265,1.44395 -2.83762,3.4654 -1.87502,2.02152 -4.5787,3.17665 -8.11104,3.46541 z"
         style="fill:#000000;font-family:Russian Road Sign;-inkscape-font-specification:Russian Road Sign"
         id="path8901" />
      <path
         d="m 415.3008,958.61206 c -0.0439,-1.73502 -0.64236,-3.179 -1.79528,-4.33195 -1.15296,-1.15293 -2.59694,-1.75136 -4.33195,-1.79528 -1.73504,0.0439 -3.17902,0.64235 -4.33195,1.79528 -1.15295,1.15295 -1.75138,2.59693 -1.79528,4.33195 0.0439,1.73503 0.64233,3.17901 1.79528,4.33195 1.15293,1.15294 2.59691,1.75137 4.33195,1.79528 1.73501,-0.0439 3.17899,-0.64234 4.33195,-1.79528 1.15292,-1.15294 1.75135,-2.59692 1.79528,-4.33195 z"
         style="fill:#000000;font-family:Russian Road Sign;-inkscape-font-specification:Russian Road Sign"
         id="path8903" />
    </g>
    <g
       style="font-size:83.70643615999999600px;font-style:normal;font-variant:normal;font-weight:normal;font-stretch:normal;line-height:125%;letter-spacing:-4.12500000000000000px;word-spacing:0px;opacity:1;fill:#000000;fill-opacity:1;stroke:none;font-family:Arial;-inkscape-font-specification:Arial"
       id="text8655">
      <path
         d="m 440.34583,916.77612 c -4.76076,0.12212 -8.56935,2.36821 -11.42579,6.73828 -2.85645,4.37016 -4.32129,10.13187 -4.39453,17.28516 0.0732,7.15334 1.53808,12.91505 4.39453,17.28516 2.85644,4.37011 6.66503,6.61621 11.42579,6.73828 4.76071,-0.12207 8.5693,-2.36816 11.42578,-6.73828 2.85641,-4.37011 4.32125,-10.13183 4.39453,-17.28516 -0.0733,-6.8237 -1.53812,-12.49124 -4.39453,-17.00265 -2.85648,-4.51133 -6.66507,-6.85159 -11.42578,-7.02079 z m 0,7.28237 c 2.29489,-0.0348 4.12943,1.29049 5.50362,3.976 1.37414,2.68558 2.07866,6.9406 2.11356,12.76507 -0.0349,5.82452 -0.73942,10.07953 -2.11356,12.76507 -1.37419,2.68555 -3.20873,4.01088 -5.50362,3.976 -2.29495,0.0349 -4.12949,-1.29045 -5.50363,-3.976 -1.37418,-2.68554 -2.0787,-6.94056 -2.11356,-12.76507 0.0349,-5.82447 0.73938,-10.07949 2.11356,-12.76507 1.37414,-2.68551 3.20869,-4.01084 5.50363,-3.976 z"
         style="fill:#000000;font-family:Russian Road Sign;-inkscape-font-specification:Russian Road Sign"
         id="path8894" />
      <path
         d="m 478.40102,916.77612 c -4.76076,0.12212 -8.56935,2.36821 -11.42578,6.73828 -2.85645,4.37016 -4.3213,10.13187 -4.39453,17.28516 0.0732,7.15334 1.53808,12.91505 4.39453,17.28516 2.85643,4.37011 6.66502,6.61621 11.42578,6.73828 4.76072,-0.12207 8.56931,-2.36816 11.42578,-6.73828 2.85641,-4.37011 4.32125,-10.13183 4.39453,-17.28516 -0.0733,-6.8237 -1.53812,-12.49124 -4.39453,-17.00265 -2.85647,-4.51133 -6.66506,-6.85159 -11.42578,-7.02079 z m 0,7.28237 c 2.2949,-0.0348 4.12944,1.29049 5.50363,3.976 1.37413,2.68558 2.07865,6.9406 2.11356,12.76507 -0.0349,5.82452 -0.73943,10.07953 -2.11356,12.76507 -1.37419,2.68555 -3.20873,4.01088 -5.50363,3.976 -2.29494,0.0349 -4.12948,-1.29045 -5.50363,-3.976 -1.37417,-2.68554 -2.07869,-6.94056 -2.11356,-12.76507 0.0349,-5.82447 0.73939,-10.07949 2.11356,-12.76507 1.37415,-2.68551 3.20869,-4.01084 5.50363,-3.976 z"
         style="fill:#000000;font-family:Russian Road Sign;-inkscape-font-specification:Russian Road Sign"
         id="path8896" />
    </g>
    <rect
       y="936.19574"
       x="263.4375"
       height="9.375"
       width="35.625"
       id="rect8662"
       style="opacity:1;color:#000000;fill:#000000;fill-opacity:1;fill-rule:nonzero;stroke:none;stroke-width:3.54299997999999980;marker:none;visibility:visible;display:inline;overflow:visible;enable-background:accumulate" />
  </g>
</svg>
