<svg xmlns="http://www.w3.org/2000/svg" width="600" height="900">
    <title>
        5.36 Зона с ограничением экологического класса грузовых автомобилей
    </title>
    <rect ry="45" rx="45" height="900" width="600" style="marker:none" overflow="visible" color="#000" fill="#fff"/>
    <rect style="marker:none" width="598" height="898" x="1" y="1" rx="44" ry="44" overflow="visible" color="#000" fill="none" stroke="#000" stroke-width="2"/>
    <path d="M45 20c-13.85 0-25 11.15-25 25v810c0 13.85 11.15 25 25 25h510c13.85 0 25-11.15 25-25V45c0-13.85-11.15-25-25-25zm0 10h510c8.31 0 15 6.69 15 15v810c0 8.31-6.69 15-15 15H45c-8.31 0-15-6.69-15-15V45c0-8.31 6.69-15 15-15z" style="marker:none" overflow="visible" color="#000"/>
    <path d="M177.236 69.094c-8.785.405-15.895 2.021-21.33 4.851-5.436 2.83-8.234 4.448-8.394 4.852l8.164 12.63c-.045-.346 1.66-1.733 5.119-4.16 3.46-2.425 8.94-3.812 16.441-4.158 5.772.292 9.59 1.865 11.455 4.717 1.864 2.853 2.719 5.234 2.56 7.143.047 1.864-.852 4.065-2.694 6.603-1.842 2.538-4.896 3.931-9.164 4.178h-9.704v12.938h9.704c3.886.044 7.164 1.302 9.837 3.773 2.673 2.47 4.066 5.885 4.178 10.242-.135 3.841-1.751 6.94-4.851 9.3-3.1 2.358-6.874 3.57-11.32 3.638-8.064-.405-14.038-2.022-17.924-4.852-3.885-2.83-5.817-4.447-5.795-4.851l-9.704 11.859c.202.494 3.303 2.47 9.301 5.93 5.996 3.459 13.677 5.434 23.043 5.93 10.31-.406 18.26-3.37 23.854-8.895 5.593-5.526 8.423-11.187 8.49-16.98-.226-5.698-1.81-10.116-4.75-13.257-2.942-3.142-5.884-5.325-8.826-6.55-2.941-1.224-4.524-1.81-4.75-1.756.186.06 1.489-.42 3.912-1.438 2.422-1.018 4.845-2.934 7.267-5.75 2.422-2.815 3.727-6.888 3.913-12.219-.09-6.648-2.605-12.218-7.547-16.71-4.941-4.492-11.77-6.828-20.485-7.008zm81.73 0c-11.84.328-20.658 4.756-26.452 13.285-5.795 8.529-8.683 19.194-8.664 31.996-.02 12.803 2.869 23.468 8.664 31.996 5.794 8.53 14.613 12.958 26.453 13.285 11.84-.327 20.658-4.756 26.453-13.285 5.794-8.528 8.681-19.193 8.662-31.996.02-12.802-2.868-23.467-8.662-31.996-5.795-8.53-14.613-12.958-26.453-13.285zm54.876 2.156l-.002 86.25h15.094v-38.813h32.343V157.5h15.094V71.25h-15.094v34.5h-32.343v-34.5h-15.092zm110.935 0l-28.03 86.25h16.171l5.39-17.25h30.188l5.39 17.25h16.173l-28.032-86.25h-17.25zm-165.81 11.86c6.042.09 10.937 2.875 14.69 8.355 3.75 5.48 5.68 13.117 5.792 22.91-.112 9.793-2.044 17.43-5.795 22.91-3.75 5.48-8.645 8.266-14.687 8.356-6.042-.09-10.94-2.875-14.692-8.356-3.75-5.48-5.68-13.117-5.793-22.91.112-9.793 2.044-17.43 5.795-22.91 3.75-5.48 8.647-8.266 14.69-8.356zm174.435 7.546l10.782 36.656H422.62l10.781-36.656z" style="line-height:125%;-inkscape-font-specification:'Russian Road Sign'" font-weight="400" font-family="Russian Road Sign" letter-spacing="-4.406" word-spacing="0"/>
    <path d="M300 252.25c-119.57 0-216.5 96.93-216.5 216.5s96.93 216.5 216.5 216.5 216.5-96.93 216.5-216.5-96.93-216.5-216.5-216.5zm0 43.428c95.585 0 173.072 77.487 173.072 173.072 0 95.585-77.487 173.072-173.072 173.072-95.585 0-173.072-77.487-173.072-173.072 0-95.585 77.487-173.072 173.072-173.072z" style="marker:none" overflow="visible" color="#000" fill="red"/>
    <path word-spacing="0" letter-spacing="0" font-size="173.971" font-weight="400" d="M311.162 725.769l-47.494 63.326v14.613h46.276v19.485h17.05v-19.485h6.61l5.567-14.613h-13.395v-63.327h-14.614zm-1.218 25.574v37.752h-28.01z" font-family="Russian Road Sign"/>
    <path d="M299.999 697.768a143.543 77.428 0 0 0-143.541 77.427 143.543 77.428 0 0 0 143.541 77.428 143.543 77.428 0 0 0 143.543-77.428 143.543 77.428 0 0 0-143.543-77.427zm0 16.86a126.708 60.57 0 0 1 126.709 60.567 126.708 60.57 0 0 1-126.709 60.57 126.708 60.57 0 0 1-126.707-60.57 126.708 60.57 0 0 1 126.707-60.568z" fill="#127f15"/>
    <path d="M268.553 379.264a13.72 13.72 0 0 0-13.74 13.74v96.078H433.27v-96.078c0-7.605-6.113-13.74-13.718-13.74h-151zm54.789 24.068c5.862.028 10.488 1.607 13.873 4.744 3.137 2.973 4.72 6.752 4.72 11.348 0 5.422-3.206 9.936-9.619 13.541 4.156 3.137 6.757 5.322 7.803 6.56 2.284 2.725 3.412 6.206 3.412 10.417 0 4.293-1.56 7.881-4.697 10.771-3.66 3.358-8.861 5.031-15.604 5.031-6.302 0-11.312-1.689-15.027-5.074-3.33-3-5.008-6.573-5.008-10.728 0-4.211 1.134-7.703 3.39-10.483 1.13-1.403 3.729-3.588 7.802-6.56-6.303-3.358-9.442-7.81-9.442-13.342 0-4.734 1.545-8.58 4.655-11.526 3.357-3.164 7.935-4.726 13.742-4.699zm0 9.131c-2.477 0-4.438.557-5.897 1.686-1.458 1.128-2.193 2.565-2.193 4.298 0 3.606 2.696 6.797 8.09 9.577 5.421-2.725 8.133-5.92 8.133-9.553 0-1.734-.721-3.159-2.194-4.3-1.472-1.143-3.462-1.708-5.94-1.708zm-129.352 7.986a13.742 13.742 0 0 0-11.39 6.047l-21.534 31.916a13.724 13.724 0 0 0-2.337 7.678v42.211c0 7.581 6.145 13.728 13.726 13.728h12.397c.718-15.28 13.326-27.455 28.785-27.455s28.064 12.174 28.783 27.455h107.156c.515-10.945 7.12-20.285 16.516-24.709h-119.51v-63.144c0-7.581-6.147-13.727-13.728-13.727zm163.35.504h34.908v8.422h-12.635v35.416h-9.351v-35.416H357.34zm-162.621 7.73h31.271a6.865 6.865 0 0 1 6.864 6.866v19.217a6.863 6.863 0 0 1-6.864 6.863h-44.248a6.863 6.863 0 0 1-6.863-6.863c0-1.368.415-2.706 1.18-3.84l12.955-19.217a6.89 6.89 0 0 1 5.705-3.025zm128.799 9.07c-6.165 3.522-9.243 7.498-9.243 11.901 0 4.376 3.012 6.561 9.067 6.561 6.082 0 9.13-2.235 9.13-6.693 0-4.349-2.982-8.275-8.954-11.77zm67.11 59.567c9.396 4.424 16.002 13.764 16.517 24.71h26.125v-24.71h-42.641zm-176.991 2.745c-12.888 0-23.336 10.447-23.336 23.336 0 12.888 10.448 23.336 23.336 23.336 12.888 0 23.336-10.448 23.336-23.336 0-12.889-10.448-23.336-23.336-23.336zm164.724 0c-12.888 0-23.336 10.447-23.336 23.336 0 12.888 10.448 23.336 23.336 23.336 12.888 0 23.336-10.448 23.336-23.336 0-12.889-10.448-23.336-23.336-23.336zm-164.724 10.982c6.823 0 12.353 5.53 12.353 12.354 0 6.823-5.53 12.355-12.353 12.355-6.823 0-12.356-5.532-12.356-12.355 0-6.824 5.533-12.354 12.356-12.354zm164.724 0c6.823 0 12.354 5.53 12.354 12.354 0 6.823-5.53 12.355-12.354 12.355-6.823 0-12.355-5.532-12.355-12.355 0-6.824 5.532-12.354 12.355-12.354z" style="marker:none" overflow="visible" color="#000"/>
</svg>
