<?xml version="1.0" encoding="UTF-8" standalone="no"?>
<!-- Created with Inkscape (http://www.inkscape.org/) -->

<svg
   xmlns:dc="http://purl.org/dc/elements/1.1/"
   xmlns:cc="http://creativecommons.org/ns#"
   xmlns:rdf="http://www.w3.org/1999/02/22-rdf-syntax-ns#"
   xmlns:svg="http://www.w3.org/2000/svg"
   xmlns="http://www.w3.org/2000/svg"
   xmlns:sodipodi="http://sodipodi.sourceforge.net/DTD/sodipodi-0.dtd"
   xmlns:inkscape="http://www.inkscape.org/namespaces/inkscape"
   width="2500"
   height="1500"
   id="svg2"
   version="1.1"
   inkscape:version="0.48.4 r9939"
   sodipodi:docname="6.9.1 B.svg">
  <title
     id="title3006">6.9.1 Предварительный указатель направлений</title>
  <defs
     id="defs4" />
  <sodipodi:namedview
     id="base"
     pagecolor="#ffffff"
     bordercolor="#666666"
     borderopacity="1.0"
     inkscape:pageopacity="0.0"
     inkscape:pageshadow="2"
     inkscape:zoom="1"
     inkscape:cx="867.00287"
     inkscape:cy="392.75567"
     inkscape:document-units="px"
     inkscape:current-layer="layer1"
     showgrid="false"
     inkscape:window-width="1920"
     inkscape:window-height="1024"
     inkscape:window-x="-4"
     inkscape:window-y="-4"
     inkscape:window-maximized="1"
     inkscape:snap-bbox="true"
     inkscape:bbox-paths="true"
     inkscape:bbox-nodes="true"
     inkscape:snap-bbox-edge-midpoints="true"
     inkscape:snap-bbox-midpoints="true"
     inkscape:object-paths="true"
     inkscape:snap-intersection-paths="true"
     inkscape:object-nodes="true"
     inkscape:snap-smooth-nodes="true"
     inkscape:snap-midpoints="true"
     inkscape:snap-object-midpoints="true"
     showguides="true"
     inkscape:guide-bbox="true" />
  <metadata
     id="metadata7">
    <rdf:RDF>
      <cc:Work
         rdf:about="">
        <dc:format>image/svg+xml</dc:format>
        <dc:type
           rdf:resource="http://purl.org/dc/dcmitype/StillImage" />
        <dc:title>6.9.1 Предварительный указатель направлений</dc:title>
        <cc:license
           rdf:resource="http://creativecommons.org/licenses/by-sa/3.0/" />
        <dc:description>ГОСТ Р 52290-2004</dc:description>
      </cc:Work>
      <cc:License
         rdf:about="http://creativecommons.org/licenses/by-sa/3.0/">
        <cc:permits
           rdf:resource="http://creativecommons.org/ns#Reproduction" />
        <cc:permits
           rdf:resource="http://creativecommons.org/ns#Distribution" />
        <cc:requires
           rdf:resource="http://creativecommons.org/ns#Notice" />
        <cc:requires
           rdf:resource="http://creativecommons.org/ns#Attribution" />
        <cc:permits
           rdf:resource="http://creativecommons.org/ns#DerivativeWorks" />
        <cc:requires
           rdf:resource="http://creativecommons.org/ns#ShareAlike" />
      </cc:License>
    </rdf:RDF>
  </metadata>
  <g
     inkscape:label="Layer 1"
     inkscape:groupmode="layer"
     id="layer1"
     transform="translate(0,447.63782)">
    <rect
       rx="45"
       ry="45"
       y="-447.63782"
       x="0"
       height="1500"
       width="2500"
       id="rect16437"
       style="color:#000000;fill:#ffffff;fill-opacity:1;fill-rule:nonzero;stroke:none;stroke-width:3.54299998;marker:none;visibility:visible;display:inline;overflow:visible;enable-background:accumulate" />
    <path
       inkscape:connector-curvature="0"
       style="color:#000000;fill:#00a500;fill-opacity:1;fill-rule:nonzero;stroke:none;stroke-width:3.54299998;marker:none;visibility:visible;display:inline;overflow:visible;enable-background:accumulate"
       d="m 45,-435.63783 c -18.282,0 -33,14.718 -33,33 l 0,1410.00003 c 0,18.282 14.718,33 33,33 l 145.40625,0 0,-1241.62503 -70.40625,0 110,-190.53125 110,190.53125 -70.40625,0 0,192.8749954 c 21.09098,-11.3150104 45.20304,-17.7187494 70.8125,-17.7187494 l 144.46875,1.812499 c 82.84271,0 150,67.15728 150,150.000005 0,53.58983 -28.58984,103.11133 -75,129.90625 l 35.21875,60.96875 -220,0 110,-190.53125 35.1875,60.96875 c 21.90559,-12.6472 35.375,-36.0181 35.375,-61.3125 0,-39.101763 -31.67949,-70.812505 -70.78125,-70.812505 l -144.46875,-1.8125 c -39.10176,0 -70.8125,31.710742 -70.8125,70.812505 l 0,516.46876 192.34375,-111.09376 -35.1875,-60.96875 220,0 -110,190.53121 -35.21875,-60.9687 L 305,711.3309 c -21.9056,12.6472 -35.40625,36.0494 -35.40625,61.3438 l 0,267.6875 2185.40625,0 c 18.282,0 33,-14.718 33,-33 l 0,-1410.00003 c 0,-18.282 -14.718,-33 -33,-33 l -2410,0 z m 505,63 250,0 c 13.85,0 25,11.15 25,25 l 0,100 c 0,13.85 -11.15,25 -25,25 l -250,0 c -13.85,0 -25,-11.15 -25,-25 l 0,-100 c 0,-13.85 11.15,-25 25,-25 z m 786.25,17.5 c 13.7276,0.37957 23.9378,5.51795 30.6562,15.40625 6.7191,9.88847 10.0535,22.25006 10.0313,37.09375 0.022,14.84378 -3.3122,27.20538 -10.0313,37.09375 -6.7184,9.8884 -16.9286,15.02678 -30.6562,15.40625 -13.7277,-0.37947 -23.9688,-5.51785 -30.6875,-15.40625 -6.7188,-9.88837 -10.0532,-22.24997 -10.0313,-37.09375 -0.022,-14.84368 3.3125,-27.20528 10.0313,-37.09375 6.7187,-9.8883 16.9598,-15.02668 30.6875,-15.40625 z m 193.0625,0 c 13.7276,0.37957 23.9687,5.51795 30.6875,15.40625 6.7187,9.88847 10.0539,22.25006 10.0312,37.09375 0.023,14.84378 -3.3125,27.20538 -10.0312,37.09375 -6.7188,9.8884 -16.9599,15.02678 -30.6875,15.40625 -13.7277,-0.37947 -23.9371,-5.51785 -30.6563,-15.40625 -6.7183,-9.88837 -10.0852,-22.24997 -10.0624,-37.09375 -0.023,-14.84368 3.3441,-27.20528 10.0624,-37.09375 6.7192,-9.8883 16.9286,-15.02668 30.6563,-15.40625 z m -600.125,2.5 63.75,0 0,15 -46.25,0 0,25 21.25,0 c 12.2916,0.46881 20.83326,3.90631 25.625,10.3125 4.79158,6.40629 7.0832,12.96878 6.875,19.6875 0.1041,6.71877 -2.60425,13.28127 -8.125,19.6875 -5.52091,6.40625 -14.47923,9.84375 -26.875,10.3125 l -36.25,0 0,-100 z m 95.125,0 62.5,0 0,16.25 -45,0 0,23.75 36.25,0 0,15 -36.25,0 0,30 46.25,0 0,15 -63.75,0 0,-100 z m 104.0313,0 62.5,0 0,100 -17.5,0 0,-85 -27.5,0 c 0.01,0.38588 -0.024,3.78326 -0.063,10.1875 -0.038,6.40439 -0.1354,13.4881 -0.3124,21.28125 -0.178,7.79326 -0.4665,13.97882 -0.875,18.53125 -1.5415,11.4815 -4.9933,19.91089 -10.3438,25.28125 -5.3506,5.37038 -10.5147,8.79977 -15.4688,10.28125 -4.9533,1.48148 -7.5869,2.12268 -7.9374,1.9375 l -2.875,-16.78125 c 0.1924,0.0298 1.6722,-0.51536 4.4374,-1.65625 2.7661,-1.14086 5.6635,-3.05008 8.6876,-5.71875 3.0231,-2.66863 5.0328,-6.29015 6,-10.84375 0.4085,-2.77774 0.6971,-8.06593 0.875,-15.84375 0.177,-7.77772 0.2742,-16.36799 0.3124,-25.8125 0.039,-9.44436 0.07,-18.06588 0.063,-25.84375 z m 89.0624,0 62.5,0 0,15 -45,0 0,85 -17.5,0 0,-100 z m 181.5626,0 33.75,0 c 12.3432,0.57301 21.0932,4.42718 26.25,11.5625 5.1557,7.1355 7.6557,14.11466 7.5,20.9375 -0.1568,6.82298 -3.2818,13.80213 -9.375,20.9375 -6.0943,7.13546 -14.2193,10.98962 -24.375,11.5625 l -16.25,0 0,35 -17.5,0 0,-100 z m 208.0937,0 58.75,0 0,7.5 0,77.5 11.25,0 0,32.5 -15,0 0,-17.5 -62.5,0 0,17.5 -15,0 0,-32.5 11.25,0 c 1.7129,-4.35294 3.412,-10.46564 5.125,-18.34375 1.7129,-7.87805 3.1551,-16.39468 4.3125,-25.5625 1.1574,-9.1677 1.7662,-17.87167 1.8125,-26.09375 l 0,-15 z m -270.8125,13.75 c -7.0052,0.10425 -12.6825,3.33342 -17.0312,9.6875 -4.3494,6.35424 -6.5886,15.20839 -6.7188,26.5625 0.1302,11.3542 2.3694,20.20836 6.7188,26.5625 4.3487,6.35418 10.0259,9.58335 17.0312,9.6875 7.0051,-0.10415 12.6825,-3.33332 17.0312,-9.6875 4.3493,-6.35414 6.5885,-15.20829 6.7188,-26.5625 -0.1303,-11.35411 -2.3695,-20.20826 -6.7188,-26.5625 -4.3487,-6.35408 -10.0261,-9.58325 -17.0312,-9.6875 z m 193.0625,0 c -7.0052,0.10425 -12.6819,3.33342 -17.0313,9.6875 -4.3487,6.35424 -6.5885,15.20839 -6.7187,26.5625 0.1302,11.3542 2.37,20.20836 6.7187,26.5625 4.3494,6.35418 10.026,9.58335 17.0313,9.6875 7.0051,-0.10415 12.6818,-3.33332 17.0313,-9.6875 4.3487,-6.35414 6.5884,-15.20829 6.7187,-26.5625 -0.1303,-11.35411 -2.37,-20.20826 -6.7187,-26.5625 -4.3495,-6.35408 -10.0262,-9.58325 -17.0313,-9.6875 z m -112.8437,1.25 0,35 11.25,0 c 5.2078,0.0521 9.7912,-1.30203 13.75,-4.0625 3.9578,-2.76036 6.0412,-7.23952 6.25,-13.4375 -0.2088,-6.19784 -2.2922,-10.67701 -6.25,-13.4375 -3.9588,-2.76033 -8.5422,-4.1145 -13.75,-4.0625 l -11.25,0 z m 208.0937,0 c -0.067,12.29174 -1.2099,24.8959 -3.375,37.8125 -2.1652,12.9167 -4.9777,23.64585 -8.4375,32.1875 l 35.5625,0 0,-70 -23.75,0 z m -677.875,40 0,30 17.5,0 c 5.70307,2e-5 10.23431,-1.24998 13.59375,-3.75 3.35931,-2.49998 5.07806,-6.24997 5.15625,-11.25 -0.0782,-4.99997 -1.79694,-8.74996 -5.15625,-11.25 -3.35944,-2.49996 -7.89068,-3.74995 -13.59375,-3.75 l -17.5,0 z m -396.6875,95 250,0 c 13.85,0 25,11.15 25,25 l 0,99.999995 c 0,13.85 -11.15,25 -25,25 l -250,0 c -13.85,0 -25,-11.15 -25,-25 l 0,-99.999995 c 0,-13.85 11.15,-25 25,-25 z m 703.8438,17.5 c 9.4006,0.13031 17.0226,2.68239 22.875,7.65625 5.8515,4.97405 10.3128,11.58863 13.375,19.84375 l -16.7813,6.25 c -1.8714,-6.19784 -4.4231,-10.67701 -7.6563,-13.4375 -3.2326,-2.76033 -7.1737,-4.11449 -11.8124,-4.0625 -7.0056,0.10425 -12.6824,3.33342 -17.0313,9.6875 -4.349,6.35424 -6.5889,15.20839 -6.7187,26.5625 0.1298,11.3542 2.3697,20.20836 6.7187,26.5625 4.3489,6.354175 10.0257,9.583345 17.0313,9.687495 3.0725,0.0261 5.6773,-0.33853 7.8124,-1.09375 2.1357,-0.75519 4.1143,-2.05728 5.9376,-3.906245 2.4475,-2.31769 4.1142,-4.55727 5,-6.71875 0.885,-2.16143 1.3017,-5.33851 1.25,-9.53125 l -17.5,0 0,-15 36.25,0 0,49.999995 -15,0 -3.75,-8.75 c -2.106,3.125 -4.7787,5.76339 -8,7.90625 -3.2221,2.14286 -7.2162,3.25446 -12,3.34375 -13.795,-0.37947 -24.2813,-5.51785 -31.4688,-15.40625 -7.1875,-9.888365 -10.7988,-22.249965 -10.8438,-37.093745 0.045,-14.84368 3.6563,-27.20528 10.8438,-37.09375 7.1875,-9.8883 17.6738,-15.02668 31.4688,-15.40625 z m 101.5,0 c 13.7273,0.37957 23.9374,5.51795 30.6562,15.40625 6.7187,9.88847 10.0538,22.25006 10.0312,37.09375 0.023,14.84378 -3.3125,27.20538 -10.0312,37.093745 -6.7188,9.8884 -16.9289,15.02678 -30.6562,15.40625 -13.7281,-0.37947 -23.9685,-5.51785 -30.6876,-15.40625 -6.7184,-9.888365 -10.0535,-22.249965 -10.0312,-37.093745 -0.022,-14.84368 3.3128,-27.20528 10.0312,-37.09375 6.7191,-9.8883 16.9595,-15.02668 30.6876,-15.40625 z m 212.8437,0 c 13.7276,0.37957 23.9371,5.51795 30.6563,15.40625 6.7183,9.88847 10.0534,22.25006 10.0312,37.09375 0.022,14.84378 -3.3129,27.20538 -10.0312,37.093745 -6.7192,9.8884 -16.9287,15.02678 -30.6563,15.40625 -13.7277,-0.37947 -23.9688,-5.51785 -30.6875,-15.40625 -6.7188,-9.888365 -10.0539,-22.249965 -10.0312,-37.093745 -0.023,-14.84368 3.3124,-27.20528 10.0312,-37.09375 6.7187,-9.8883 16.9598,-15.02668 30.6875,-15.40625 z m -636.4375,2.5 38.75,0 c 9.4233,0.32004 16.66138,3.23819 21.6875,8.78125 5.02596,5.54324 7.5453,11.79174 7.59375,18.71875 -0.0485,3.88027 -1.31779,7.68236 -3.84375,11.40625 -2.52612,3.72402 -6.01421,6.58859 -10.4375,8.59375 5.10409,1.87505 9.27075,4.68755 12.5,8.4375 3.2291,3.75004 4.8957,8.43753 5,14.0625 -0.1861,8.3594 -3.24265,15.390635 -9.1875,21.093745 -5.94501,5.70313 -13.65334,8.67188 -23.125,8.90625 l -38.9375,0 0,-99.999995 z m 99.0938,0 62.5,0 0,16.25 -45,0 0,23.75 36.25,0 0,15 -36.25,0 0,29.999995 46.25,0 0,15 -63.75,0 0,-99.999995 z m 95.2812,0 17.5,0 0,84.999995 45,0 0,15 -62.5,0 0,-99.999995 z m 298.1875,0 33.75,0 c 12.2395,0.52093 20.5728,3.85426 25,10 4.427,6.14592 6.5103,11.97925 6.25,17.5 -0.1563,6.87506 -2.0313,12.50006 -5.625,16.875 -3.5938,4.37505 -7.9688,7.50005 -13.125,9.375 5.3086,1.65899 9.6991,5.82605 13.1563,12.53125 3.4565,6.70527 6.6299,13.49963 9.5312,20.343745 2.9011,6.84414 6.1704,11.29938 9.8125,13.375 l -21.25,0 c -1.9059,-2.74585 -3.7622,-6.39835 -5.5937,-10.96875 -1.8322,-4.57038 -3.9033,-9.173875 -6.1876,-13.812495 -1.9367,-4.26365 -4.1014,-7.83749 -6.5,-10.71875 -2.3983,-2.88119 -6.3064,-4.38467 -11.7187,-4.5 l -10,0 0,39.999995 -17.5,0 0,-99.999995 z m 211.5937,0 33.75,0 c 13.8321,0.2754 24.4583,4.99712 31.9063,14.15625 7.4478,9.1593 11.2306,21.10423 11.3125,35.84375 -0.082,14.73962 -3.8647,26.68455 -11.3125,35.843745 -7.448,9.15923 -18.0742,13.88095 -31.9063,14.15625 l -33.75,0 0,-99.999995 z m -280.5624,13.75 c -7.0056,0.10425 -12.6824,3.33342 -17.0313,9.6875 -4.349,6.35424 -6.5889,15.20839 -6.7187,26.5625 0.1298,11.3542 2.3697,20.20836 6.7187,26.5625 4.3489,6.354175 10.0257,9.583345 17.0313,9.687495 7.0048,-0.10415 12.6822,-3.33332 17.0312,-9.687495 4.3489,-6.35414 6.5882,-15.20829 6.7188,-26.5625 -0.1306,-11.35411 -2.3699,-20.20826 -6.7188,-26.5625 -4.349,-6.35408 -10.0264,-9.58325 -17.0312,-9.6875 z m 212.8437,0 c -7.0052,0.10425 -12.682,3.33342 -17.0313,9.6875 -4.3487,6.35424 -6.5885,15.20839 -6.7187,26.5625 0.1302,11.3542 2.37,20.20836 6.7187,26.5625 4.3493,6.354175 10.026,9.583345 17.0313,9.687495 7.0051,-0.10415 12.6819,-3.33332 17.0313,-9.687495 4.3487,-6.35414 6.5884,-15.20829 6.7187,-26.5625 -0.1303,-11.35411 -2.37,-20.20826 -6.7187,-26.5625 -4.3494,-6.35408 -10.0262,-9.58325 -17.0313,-9.6875 z m -618.9375,1.25 0,25.71875 20,0 c 3.80202,-0.0669 6.82285,-1.28119 9.0625,-3.625 2.23952,-2.34369 3.38535,-5.43297 3.4375,-9.25 -0.13028,-4.36376 -1.43236,-7.57805 -3.90625,-9.6875 -2.47402,-2.10929 -5.3386,-3.16732 -8.59375,-3.15625 l -20,0 z m 492.5625,0 0,30 11.25,0 c 5.1562,0.0447 9.5312,-1.10262 13.125,-3.46875 3.5937,-2.36601 5.4687,-6.21869 5.625,-11.53125 -0.1563,-5.31243 -2.0313,-9.1651 -5.625,-11.53125 -3.5938,-2.36599 -7.9688,-3.51331 -13.125,-3.46875 l -11.25,0 z m 211.5937,0 0,69.999995 15,0 c 7.1097,0.0261 13.2031,-2.838515 18.2813,-8.593745 5.0781,-5.75518 7.7346,-14.55726 7.9687,-26.40625 -0.2341,-11.84889 -2.8906,-20.65097 -7.9687,-26.40625 -5.0782,-5.75513 -11.1716,-8.61971 -18.2813,-8.59375 l -15,0 z m -704.1562,40 0,29.999995 21.25,0 c 4.99994,-0.17856 8.74994,-1.77677 11.25,-4.812495 2.49993,-3.03569 3.74993,-6.43747 3.75,-10.1875 -7e-5,-3.74997 -1.25007,-7.15175 -3.75,-10.1875 -2.50006,-3.03567 -6.25006,-4.63388 -11.25,-4.8125 l -21.25,0 z M 685,-47.637835 l 1490,0 c 13.85,0 25,11.15 25,25 l 0,390.000005 c 0,13.85 -11.15,25 -25,25 l -1490,0 c -13.85,0 -25,-11.15 -25,-25 l 0,-390.000005 c 0,-13.85 11.15,-25 25,-25 z m 0,455.000005 1490,0 c 13.85,0 25,11.15 25,25 l 0,390.00003 c 0,13.85 -11.15,25 -25,25 l -1490,0 c -13.85,0 -25,-11.15 -25,-25 l 0,-390.00003 c 0,-13.85 11.15,-25 25,-25 z m 453,475.65623 c 7.4218,10e-5 13.8023,1.9211 19.1562,5.7813 5.3538,3.8604 8.1535,9.6545 8.4063,17.375 -0.1907,5.1063 -1.5219,9.131 -4,12.0312 -2.4783,2.9004 -4.9593,4.9404 -7.4375,6.125 -2.4783,1.1847 -3.8094,1.7597 -4,1.7188 0.2178,-0.014 1.7302,0.7426 4.5625,2.2812 2.8322,1.5387 5.6677,3.9332 8.5,7.1875 2.8322,3.2544 4.3758,7.4604 4.5937,12.5938 0.1378,5.8824 -2.0754,11.4816 -6.625,16.8125 -4.5496,5.3309 -12.2647,8.1636 -23.1562,8.5312 -10.8916,-0.3676 -18.6066,-3.2003 -23.1562,-8.5312 -4.5497,-5.3309 -6.7629,-10.9301 -6.625,-16.8125 0.2178,-5.1334 1.7302,-9.3394 4.5624,-12.5938 2.8323,-3.2543 5.6678,-5.6488 8.5,-7.1875 2.8323,-1.5386 4.3447,-2.2948 4.5626,-2.2812 -0.1907,0.041 -1.5219,-0.5341 -4,-1.7188 -2.4783,-1.1846 -4.9594,-3.2246 -7.4376,-6.125 -2.4782,-2.9002 -3.8093,-6.9249 -4,-12.0312 0.2528,-7.7205 3.0524,-13.5146 8.4063,-17.375 5.3538,-3.8602 11.7656,-5.7812 19.1875,-5.7813 z m 69.375,0 c 8.9613,0.3185 16.1544,4.7269 21.5312,13.2188 5.3768,8.492 8.1121,19.1554 8.25,32 -0.1379,13.4651 -2.8732,24.3051 -8.25,32.5312 -5.3768,8.2261 -12.5699,12.4578 -21.5312,12.6875 -8.9614,-0.2297 -16.1232,-4.4614 -21.5,-12.6875 -5.3769,-8.226 -8.1121,-19.0661 -8.25,-32.5312 0.1379,-13.465 2.8731,-24.3051 8.25,-32.5313 5.3768,-8.226 12.5386,-12.4576 21.5,-12.6875 z m 69.4062,0 c 8.9614,0.3185 16.1232,4.7269 21.5,13.2188 5.3768,8.492 8.1434,19.1554 8.2813,32 -0.1379,13.4651 -2.9045,24.3051 -8.2813,32.5312 -5.3768,8.2261 -12.5386,12.4578 -21.5,12.6875 -8.9614,-0.2297 -16.1231,-4.4614 -21.5,-12.6875 -5.3768,-8.226 -8.1433,-19.0661 -8.2812,-32.5312 0.1379,-13.465 2.9044,-24.3051 8.2812,-32.5313 5.3769,-8.226 12.5386,-12.4576 21.5,-12.6875 z m -140.0312,12.625 c -2.855,0.1459 -5.302,0.9476 -7.3125,2.375 -2.2978,1.6315 -3.5019,4.3387 -3.5937,8.1563 0.5054,3.4467 2.5551,6.5056 6.0937,9.125 3.5386,2.6195 5.5569,3.9872 6.0625,4.125 0.5055,-0.1378 2.5239,-1.5055 6.0625,-4.125 3.5386,-2.6194 5.5569,-5.6783 6.0625,-9.125 -0.092,-3.8176 -1.296,-6.5248 -3.5938,-8.1563 -2.2978,-1.6313 -5.1305,-2.4176 -8.5312,-2.375 -0.4251,0 -0.8421,-0.021 -1.25,0 z m 69.8438,1.0938 c -3.9484,0.2385 -7.1376,2.7296 -9.5626,7.4687 -2.5866,5.0552 -3.9031,13.0676 -3.9687,24.0313 0.066,10.9638 1.3821,18.9761 3.9687,24.0312 2.5867,5.0552 6.0239,7.5657 10.3438,7.5 4.3198,0.066 7.7883,-2.4448 10.375,-7.5 2.5866,-5.0551 3.903,-13.0674 3.9688,-24.0312 -0.066,-10.9637 -1.3822,-18.9761 -3.9688,-24.0313 -2.5867,-5.055 -6.0552,-7.5343 -10.375,-7.4687 -0.27,0 -0.518,-0.016 -0.7812,0 z m 69.4062,0 c -3.9483,0.2385 -7.1375,2.7296 -9.5625,7.4687 -2.5867,5.0552 -3.9344,13.0676 -4,24.0313 0.066,10.9638 1.4133,18.9761 4,24.0312 2.5866,5.0552 6.0239,7.5657 10.3437,7.5 4.3199,0.066 7.7883,-2.4448 10.375,-7.5 2.5867,-5.0551 3.9031,-13.0674 3.9688,-24.0312 -0.066,-10.9637 -1.3821,-18.9761 -3.9688,-24.0313 -2.5867,-5.055 -6.0551,-7.5343 -10.375,-7.4687 -0.2699,0 -0.518,-0.016 -0.7812,0 z m 53.125,13.875 13.25,0 15.4375,30.875 15.4375,-30.875 13.2188,0 5.5312,61.75 -13.25,0 -3.3125,-43 -17.625,35.2812 -17.6563,-35.2812 -3.3124,43 -13.2188,0 5.5,-61.75 z M 1138,932.6434 c -0.1771,0.061 -1.4176,0.9394 -3.7188,2.5938 -2.3012,1.6544 -4.605,3.7378 -6.9062,6.25 -2.3012,2.5123 -3.5418,5.084 -3.7188,7.7187 0.1838,3.8374 1.7463,6.637 4.6876,8.4063 2.9411,1.7693 6.1635,2.648 9.6562,2.625 3.4926,0.023 6.715,-0.8557 9.6562,-2.625 2.9412,-1.7693 4.5037,-4.5689 4.6876,-8.4063 -0.1771,-2.982 -1.4177,-5.7269 -3.7188,-8.2187 -2.3012,-2.4918 -4.6051,-4.4885 -6.9062,-6 -2.3013,-1.5114 -3.5418,-2.3029 -3.7188,-2.3438 z"
       id="rect16439" />
    <path
       style="color:#000000;fill:#0d69e1;fill-opacity:1;fill-rule:nonzero;stroke:none;stroke-width:3.54299998;marker:none;visibility:visible;display:inline;overflow:visible;enable-background:accumulate"
       d="M 685 865 C 676.69 865 670 871.69 670 880 L 670 1270 C 670 1278.31 676.69 1285 685 1285 L 2175 1285 C 2183.31 1285 2190 1278.31 2190 1270 L 2190 880 C 2190 871.69 2183.31 865 2175 865 L 685 865 z M 1163.75 892.5 L 1167.5 910 C 1162.8841 910.0719 1159.429 911.26384 1157.1562 913.5625 C 1154.8845 915.86133 1152.5067 918.83604 1150 922.5 C 1147.4928 925.9758 1144.5854 929.66675 1141.2812 933.59375 C 1137.9778 937.52087 1135.0525 939.66325 1132.5 940 C 1138.5208 940.76197 1143.0624 943.11015 1146.125 947.0625 C 1149.1874 951.01495 1152.1458 955.75009 1155 961.25 C 1158.5822 967.79095 1162.1465 974.15296 1165.6875 980.34375 C 1169.2283 986.53457 1173.1641 991.42255 1177.5 995 L 1155.7188 995 C 1153.8918 991.5625 1151.0275 986.56251 1147.125 980 C 1143.2224 973.43752 1139.5944 967.18753 1136.25 961.25 C 1134.1265 957.28194 1131.7939 954.19973 1129.2812 952.03125 C 1126.7694 949.86286 1123.6847 948.77841 1120 948.75 C 1118.5909 948.7724 1117.03 948.87504 1115.3125 949.03125 C 1113.5949 949.18755 1112.6558 949.25898 1112.5 949.28125 L 1112.5 995 L 1095 995 L 1095 895 L 1112.5 895 L 1112.5 932.3125 C 1112.6495 932.4278 1112.8063 932.51063 1112.9688 932.5625 C 1113.13 932.6145 1113.3893 932.66857 1113.75 932.6875 C 1119.7839 932.57512 1124.9434 929.42549 1129.2188 923.28125 C 1133.4926 917.13715 1138.1739 910.82234 1143.2812 904.28125 C 1148.3899 897.74034 1155.216 893.80301 1163.75 892.5 z M 1206.2188 895 L 1268.7188 895 L 1268.7188 995 L 1251.2188 995 L 1251.2188 910 L 1223.7188 910 C 1223.7286 910.38588 1223.6964 913.78326 1223.6562 920.1875 C 1223.6182 926.59189 1223.5204 933.6756 1223.3438 941.46875 C 1223.1654 949.26201 1222.8773 955.44757 1222.4688 960 C 1220.9271 971.4815 1217.4755 979.91089 1212.125 985.28125 C 1206.7744 990.65163 1201.6107 994.08102 1196.6562 995.5625 C 1191.7033 997.04398 1189.0693 997.68518 1188.7188 997.5 L 1185.8438 980.71875 C 1186.0358 980.74855 1187.5163 980.20339 1190.2812 979.0625 C 1193.0477 977.92164 1195.9443 976.01242 1198.9688 973.34375 C 1201.9915 970.67512 1204.0014 967.0536 1204.9688 962.5 C 1205.3773 959.72226 1205.6655 954.43407 1205.8438 946.65625 C 1206.0204 938.87853 1206.1182 930.28826 1206.1562 920.84375 C 1206.1953 911.39939 1206.2256 902.77787 1206.2188 895 z M 1292.5 895 L 1310 895 L 1310 963.75 L 1346.25 895 L 1365 895 L 1365 995 L 1347.5 995 L 1347.5 926.25 L 1311.25 995 L 1292.5 995 L 1292.5 895 z M 1388.7188 895 L 1406.2188 895 L 1406.2188 935 L 1443.7188 935 L 1443.7188 895 L 1461.2188 895 L 1461.2188 995 L 1443.7188 995 L 1443.7188 950 L 1406.2188 950 L 1406.2188 995 L 1388.7188 995 L 1388.7188 895 z M 720 1000 L 1020 1000 C 1033.85 1000 1045 1011.15 1045 1025 L 1045 1125 C 1045 1138.85 1033.85 1150 1020 1150 L 720 1150 C 706.15 1150 695 1138.85 695 1125 L 695 1025 C 695 1011.15 706.15 1000 720 1000 z M 1246.8125 1027.3125 C 1253.3973 1027.3985 1259.4381 1029.4636 1264.9062 1033.5 C 1270.3756 1037.5365 1273.2901 1043.0395 1273.625 1050 C 1273.4166 1056.9792 1271.3333 1062.7084 1267.375 1067.1875 C 1263.4166 1071.6667 1258.8333 1074.2709 1253.625 1075 C 1255.8924 1075.4013 1258.9055 1076.5548 1262.6875 1078.4375 C 1266.4694 1080.3202 1269.9124 1083.0131 1273 1086.5625 C 1276.0875 1090.1119 1277.7228 1094.5988 1277.9062 1100 C 1277.8582 1107.9167 1274.6825 1115.2083 1268.4062 1121.875 C 1262.1309 1128.5417 1253.0483 1132.0833 1241.125 1132.5 C 1235.686 1132.3214 1230.1659 1131.5938 1224.5938 1130.3438 C 1219.0204 1129.0938 1216.0015 1128.3972 1215.5625 1128.2188 L 1213.4375 1110.7188 C 1216.6295 1112.7463 1220.553 1114.187 1225.2188 1115.0312 C 1229.8833 1115.8759 1234.3616 1116.276 1238.625 1116.25 C 1244.4285 1116.284 1249.361 1114.9799 1253.4688 1112.3125 C 1257.5752 1109.6451 1259.764 1105.4264 1260.0312 1099.6562 C 1260.3102 1097.1713 1259.3912 1094.186 1257.2812 1090.7188 C 1255.1725 1087.2514 1250.2209 1085.3423 1242.375 1085 C 1240.8385 1084.974 1239.2957 1085.0261 1237.7812 1085.1562 C 1236.2678 1085.2867 1234.8936 1085.6511 1233.625 1086.25 L 1233.625 1072.5 C 1240.0312 1071.0938 1245.3437 1068.5938 1249.5625 1065 C 1253.7812 1061.4063 1255.9687 1057.6563 1256.125 1053.75 C 1255.9947 1050.5469 1254.6925 1047.8909 1252.2188 1045.7812 C 1249.744 1043.6721 1246.8802 1042.5782 1243.625 1042.5 C 1238.7738 1042.478 1234.7121 1043.1385 1231.4688 1044.5 C 1228.2242 1045.8617 1224.8909 1048.0492 1221.4688 1051.0625 L 1214.875 1036.25 C 1218.3162 1034.2374 1223.1614 1032.2761 1229.4375 1030.375 C 1235.7135 1028.474 1241.4962 1027.4502 1246.8125 1027.3125 z M 1522.375 1027.3125 L 1526.125 1044.8125 C 1521.5091 1044.8844 1518.0533 1046.0763 1515.7812 1048.375 C 1513.5093 1050.6738 1511.1317 1053.6485 1508.625 1057.3125 C 1506.1178 1060.7883 1503.2097 1064.5105 1499.9062 1068.4375 C 1496.6028 1072.3646 1493.6775 1074.4758 1491.125 1074.8125 C 1497.1458 1075.5745 1501.6874 1077.954 1504.75 1081.9062 C 1507.8124 1085.8588 1510.7708 1090.5626 1513.625 1096.0625 C 1517.2072 1102.6035 1520.7715 1108.9656 1524.3125 1115.1562 C 1527.8533 1121.3472 1531.7891 1126.235 1536.125 1129.8125 L 1514.3438 1129.8125 C 1512.5169 1126.375 1509.6525 1121.375 1505.75 1114.8125 C 1501.8474 1108.25 1498.2194 1102 1494.875 1096.0625 C 1492.7515 1092.0944 1490.4189 1089.0435 1487.9062 1086.875 C 1485.3937 1084.7066 1482.3097 1083.5909 1478.625 1083.5625 C 1477.2159 1083.5849 1475.655 1083.6874 1473.9375 1083.8438 C 1472.2199 1083.9999 1471.2808 1084.0714 1471.125 1084.0938 L 1471.125 1129.8125 L 1453.625 1129.8125 L 1453.625 1029.8125 L 1471.125 1029.8125 L 1471.125 1067.1562 C 1471.2745 1067.2716 1471.432 1067.3545 1471.5938 1067.4062 C 1471.7552 1067.4583 1472.0143 1067.4811 1472.375 1067.5 C 1478.4089 1067.3876 1483.5689 1064.2692 1487.8438 1058.125 C 1492.1183 1051.9809 1496.7983 1045.6347 1501.9062 1039.0938 C 1507.0143 1032.5527 1513.841 1028.6155 1522.375 1027.3125 z M 1362.5312 1029.8125 L 1381.2812 1029.8125 L 1405.0312 1082.3125 L 1425.0312 1029.8125 L 1443.7812 1029.8125 L 1411.2812 1113.5625 C 1409.2436 1118.3649 1405.915 1122.3242 1401.3125 1125.4062 C 1396.7099 1128.4885 1392.1218 1130.0827 1387.5312 1130.1875 C 1385.0574 1130.1838 1383.1302 1130.0975 1381.75 1129.9375 C 1380.3698 1129.7775 1379.3803 1129.5529 1378.7812 1129.2812 L 1375.0312 1113.5625 C 1375.1354 1113.6146 1376.1772 1113.8229 1378.1562 1114.1875 C 1380.1354 1114.5521 1382.4272 1114.7604 1385.0312 1114.8125 C 1388.256 1114.6302 1391.0224 1113.4322 1393.3438 1111.2188 C 1395.6648 1109.0051 1396.8909 1106.8698 1397 1104.8125 C 1396.8205 1103.5137 1395.0041 1099.0997 1391.5938 1091.5312 C 1388.1831 1083.963 1384.2375 1075.4084 1379.75 1065.9062 C 1375.2624 1056.4044 1371.3169 1048.0997 1367.9062 1041 C 1364.4958 1033.9005 1362.7108 1030.1739 1362.5312 1029.8125 z M 1545.8438 1029.8125 L 1579.5938 1029.8125 C 1591.9373 1030.3855 1600.6873 1034.2397 1605.8438 1041.375 C 1610.9998 1048.5105 1613.4998 1055.4897 1613.3438 1062.3125 C 1613.1873 1069.1355 1610.0623 1076.1146 1603.9688 1083.25 C 1597.8748 1090.3855 1589.7498 1094.2396 1579.5938 1094.8125 L 1563.3438 1094.8125 L 1563.3438 1129.8125 L 1545.8438 1129.8125 L 1545.8438 1029.8125 z M 1660.7188 1029.8125 L 1680.7188 1029.8125 L 1713.2188 1129.8125 L 1694.4688 1129.8125 L 1688.2188 1109.8125 L 1653.2188 1109.8125 L 1646.9688 1129.8125 L 1628.2188 1129.8125 L 1660.7188 1029.8125 z M 1727.8125 1029.8125 L 1745.3125 1029.8125 L 1745.3125 1098.5625 L 1781.5625 1029.8125 L 1800.3125 1029.8125 L 1800.3125 1129.8125 L 1782.8125 1129.8125 L 1782.8125 1061.0625 L 1746.5625 1129.8125 L 1727.8125 1129.8125 L 1727.8125 1029.8125 z M 1818.8125 1029.8125 L 1836.3125 1029.8125 L 1836.3125 1069.8125 L 1873.8125 1069.8125 L 1873.8125 1029.8125 L 1891.3125 1029.8125 L 1891.3125 1129.8125 L 1873.8125 1129.8125 L 1873.8125 1084.8125 L 1836.3125 1084.8125 L 1836.3125 1129.8125 L 1818.8125 1129.8125 L 1818.8125 1029.8125 z M 1938.5312 1029.8125 L 1958.5312 1029.8125 L 1991.0312 1129.8125 L 1972.2812 1129.8125 L 1966.0312 1109.8125 L 1931.0312 1109.8125 L 1924.7812 1129.8125 L 1906.0312 1129.8125 L 1938.5312 1029.8125 z M 1101.25 1030 L 1118.75 1030 L 1141.25 1078.75 L 1163.75 1030 L 1181.25 1030 L 1192.5 1130 L 1173.75 1130 L 1167.5 1056.25 L 1141.25 1115 L 1115 1056.25 L 1108.75 1130 L 1090 1130 L 1101.25 1030 z M 1319.2812 1030 C 1320.5392 1030.015 1321.7197 1030.2575 1322.8438 1030.7188 C 1323.9668 1031.1801 1324.9747 1031.7709 1325.875 1032.5 C 1326.5074 1032.8498 1327.305 1033.8914 1328.25 1035.625 C 1329.1949 1037.3587 1329.7157 1040.3782 1329.8125 1044.6562 C 1329.2544 1050.9586 1327.0312 1055.8542 1323.125 1059.3438 C 1319.2187 1062.8334 1316.9648 1064.6044 1316.4062 1064.6562 L 1315.1562 1061.5938 C 1315.4841 1061.5227 1316.8021 1060.4638 1319.0938 1058.4062 C 1321.385 1056.3492 1322.7043 1053.7271 1323.0312 1050.5312 L 1323.0312 1049.2812 C 1322.4849 1049.5456 1321.8768 1049.736 1321.2188 1049.8438 C 1320.5598 1049.9516 1319.9179 1050.0038 1319.2812 1050 C 1316.4432 1049.929 1314.0662 1048.9413 1312.1875 1047.0625 C 1310.3088 1045.1838 1309.3519 1042.8386 1309.2812 1040 C 1309.3523 1037.1615 1310.3088 1034.8163 1312.1875 1032.9375 C 1314.0662 1031.0588 1316.4432 1030.0708 1319.2812 1030 z M 1342.875 1030 C 1344.1324 1030.015 1345.314 1030.2575 1346.4375 1030.7188 C 1347.561 1031.1801 1348.5684 1031.7709 1349.4688 1032.5 C 1350.101 1032.8498 1350.8983 1033.8914 1351.8438 1035.625 C 1352.7885 1037.3587 1353.3099 1040.3782 1353.4062 1044.6562 C 1352.8486 1050.9586 1350.6245 1055.8542 1346.7188 1059.3438 C 1342.812 1062.8334 1340.558 1064.6044 1340 1064.6562 L 1338.75 1061.5938 C 1339.0774 1061.5227 1340.3958 1060.4638 1342.6875 1058.4062 C 1344.9791 1056.3492 1346.2976 1053.7271 1346.625 1050.5312 L 1346.625 1049.2812 C 1346.0781 1049.5456 1345.471 1049.736 1344.8125 1049.8438 C 1344.154 1049.9516 1343.5111 1050.0038 1342.875 1050 C 1340.0364 1049.929 1337.6605 1048.9413 1335.7812 1047.0625 C 1333.9026 1045.1838 1332.9457 1042.8386 1332.875 1040 C 1332.946 1037.1615 1333.9026 1034.8163 1335.7812 1032.9375 C 1337.6605 1031.0588 1340.0364 1030.0708 1342.875 1030 z M 1994.0625 1030 C 1995.3199 1030.015 1996.5015 1030.2575 1997.625 1030.7188 C 1998.7485 1031.1801 1999.7559 1031.7709 2000.6562 1032.5 C 2001.2887 1032.8498 2002.0863 1033.8914 2003.0312 1035.625 C 2003.9762 1037.3587 2004.497 1040.378 2004.5938 1044.6562 C 2004.0357 1050.9584 2001.7812 1055.8542 1997.875 1059.3438 C 1993.9687 1062.8334 1991.7455 1064.6042 1991.1875 1064.6562 L 1989.9375 1061.5938 C 1990.2649 1061.5231 1991.5833 1060.4636 1993.875 1058.4062 C 1996.1666 1056.349 1997.4851 1053.727 1997.8125 1050.5312 L 1997.8125 1049.2812 C 1997.2656 1049.5454 1996.6585 1049.7359 1996 1049.8438 C 1995.3415 1049.9517 1994.6986 1050.0038 1994.0625 1050 C 1991.2239 1049.9294 1988.8475 1048.9413 1986.9688 1047.0625 C 1985.09 1045.1838 1984.1332 1042.8386 1984.0625 1040 C 1984.1332 1037.1615 1985.09 1034.8163 1986.9688 1032.9375 C 1988.8475 1031.0589 1991.2239 1030.0708 1994.0625 1030 z M 2017.6562 1030 C 2018.9137 1030.015 2020.0952 1030.2575 2021.2188 1030.7188 C 2022.3422 1031.1801 2023.3497 1031.7709 2024.25 1032.5 C 2024.8824 1032.8498 2025.68 1033.8914 2026.625 1035.625 C 2027.5699 1037.3587 2028.0907 1040.378 2028.1875 1044.6562 C 2027.6294 1050.9584 2025.4062 1055.8542 2021.5 1059.3438 C 2017.5937 1062.8334 2015.3393 1064.6042 2014.7812 1064.6562 L 2013.5312 1061.5938 C 2013.8586 1061.5231 2015.1771 1060.4636 2017.4688 1058.4062 C 2019.7604 1056.349 2021.0788 1053.727 2021.4062 1050.5312 L 2021.4062 1049.2812 C 2020.8594 1049.5454 2020.2522 1049.7359 2019.5938 1049.8438 C 2018.9352 1049.9517 2018.2924 1050.0038 2017.6562 1050 C 2014.8177 1049.9294 2012.4412 1048.9413 2010.5625 1047.0625 C 2008.6838 1045.1838 2007.7269 1042.8386 2007.6562 1040 C 2007.7269 1037.1615 2008.6838 1034.8163 2010.5625 1032.9375 C 2012.4412 1031.0589 2014.8177 1030.0708 2017.6562 1030 z M 1563.3438 1044.8125 L 1563.3438 1079.8125 L 1574.5938 1079.8125 C 1579.8019 1079.8646 1584.3853 1078.5105 1588.3438 1075.75 C 1592.3019 1072.9896 1594.3853 1068.5105 1594.5938 1062.3125 C 1594.3853 1056.1147 1592.3019 1051.6355 1588.3438 1048.875 C 1584.3853 1046.1147 1579.8019 1044.7605 1574.5938 1044.8125 L 1563.3438 1044.8125 z M 1670.7188 1052.3125 L 1658.2188 1094.8125 L 1683.2188 1094.8125 L 1670.7188 1052.3125 z M 1948.5312 1052.3125 L 1936.0312 1094.8125 L 1961.0312 1094.8125 L 1948.5312 1052.3125 z M 1950.375 1162.5 C 1959.8065 1162.6303 1967.4429 1165.1825 1973.2812 1170.1562 C 1979.12 1175.1304 1983.5675 1181.7449 1986.625 1190 L 1969.8438 1196.25 C 1967.9715 1190.0521 1965.3923 1185.573 1962.1562 1182.8125 C 1958.9207 1180.0522 1955.0076 1178.698 1950.375 1178.75 C 1943.3698 1178.8542 1937.6925 1182.0834 1933.3438 1188.4375 C 1928.9942 1194.7917 1926.7552 1203.6459 1926.625 1215 C 1926.7552 1226.3542 1928.9942 1235.2083 1933.3438 1241.5625 C 1937.6925 1247.9167 1943.3697 1251.1458 1950.375 1251.25 C 1955.0076 1251.302 1958.9207 1249.9479 1962.1562 1247.1875 C 1965.3924 1244.4271 1967.9715 1239.9479 1969.8438 1233.75 L 1986.625 1240 C 1983.5675 1248.2552 1979.12 1254.8698 1973.2812 1259.8438 C 1967.4428 1264.8176 1959.8065 1267.3698 1950.375 1267.5 C 1936.6473 1267.1247 1926.4062 1262.0009 1919.6875 1252.125 C 1912.9687 1242.2491 1909.6345 1229.8728 1909.6562 1215 C 1909.6344 1200.1272 1912.9687 1187.751 1919.6875 1177.875 C 1926.4062 1167.9991 1936.6473 1162.8754 1950.375 1162.5 z M 1101.25 1165 L 1118.75 1165 L 1141.25 1213.75 L 1163.75 1165 L 1181.25 1165 L 1192.5 1265 L 1173.75 1265 L 1167.5 1191.25 L 1141.25 1250 L 1115 1191.25 L 1108.75 1265 L 1090 1265 L 1101.25 1165 z M 1234.2812 1165 L 1249.2812 1165 L 1249.2812 1265 L 1231.7812 1265 L 1231.7812 1187.5 L 1218.4062 1195.9062 L 1212.5 1188.2188 L 1234.2812 1165 z M 1317.4375 1165 C 1318.6949 1165.015 1319.8765 1165.2575 1321 1165.7188 C 1322.1235 1166.18 1323.1313 1166.7709 1324.0312 1167.5 C 1324.6641 1167.8498 1325.4615 1168.8914 1326.4062 1170.625 C 1327.3516 1172.3587 1327.8717 1175.3782 1327.9688 1179.6562 C 1327.4104 1185.9585 1325.1879 1190.8541 1321.2812 1194.3438 C 1317.3754 1197.8333 1315.1205 1199.6043 1314.5625 1199.6562 L 1313.3125 1196.5938 C 1313.6399 1196.5226 1314.9583 1195.4637 1317.25 1193.4062 C 1319.5416 1191.3492 1320.8601 1188.7271 1321.1875 1185.5312 L 1321.1875 1184.2812 C 1320.6406 1184.5455 1320.0335 1184.736 1319.375 1184.8438 C 1318.7165 1184.9516 1318.0736 1185.0038 1317.4375 1185 C 1314.5989 1184.929 1312.2224 1183.9413 1310.3438 1182.0625 C 1308.4647 1180.1838 1307.5082 1177.8386 1307.4375 1175 C 1307.5085 1172.1615 1308.4646 1169.8163 1310.3438 1167.9375 C 1312.2224 1166.0588 1314.5989 1165.0708 1317.4375 1165 z M 1341.0312 1165 C 1342.2891 1165.015 1343.4698 1165.2575 1344.5938 1165.7188 C 1345.7168 1166.18 1346.7247 1166.7709 1347.625 1167.5 C 1348.2574 1167.8498 1349.055 1168.8914 1350 1170.625 C 1350.9449 1172.3587 1351.4657 1175.3782 1351.5625 1179.6562 C 1351.0044 1185.9585 1348.7812 1190.8541 1344.875 1194.3438 C 1340.9687 1197.8333 1338.7455 1199.6043 1338.1875 1199.6562 L 1336.9375 1196.5938 C 1337.2649 1196.5226 1338.5521 1195.4637 1340.8438 1193.4062 C 1343.1351 1191.3492 1344.4542 1188.7271 1344.7812 1185.5312 L 1344.7812 1184.2812 C 1344.2348 1184.5455 1343.6269 1184.736 1342.9688 1184.8438 C 1342.3099 1184.9516 1341.6677 1185.0038 1341.0312 1185 C 1338.1931 1184.929 1335.8474 1183.9413 1333.9688 1182.0625 C 1332.0897 1180.1838 1331.1019 1177.8386 1331.0312 1175 C 1331.1023 1172.1615 1332.0897 1169.8163 1333.9688 1167.9375 C 1335.8474 1166.0588 1338.193 1165.0708 1341.0312 1165 z M 1359.6875 1165 L 1423.4375 1165 L 1423.4375 1180 L 1377.1875 1180 L 1377.1875 1205 L 1398.4375 1205 C 1410.7291 1205.4688 1419.2708 1208.9063 1424.0625 1215.3125 C 1428.8541 1221.7188 1431.1457 1228.2813 1430.9375 1235 C 1431.0416 1241.7188 1428.3332 1248.2813 1422.8125 1254.6875 C 1417.2916 1261.0937 1408.3333 1264.5312 1395.9375 1265 L 1359.6875 1265 L 1359.6875 1165 z M 1450.5312 1165 L 1513.0312 1165 L 1513.0312 1181.25 L 1468.0312 1181.25 L 1468.0312 1205 L 1504.2812 1205 L 1504.2812 1220 L 1468.0312 1220 L 1468.0312 1250 L 1514.2812 1250 L 1514.2812 1265 L 1450.5312 1265 L 1450.5312 1165 z M 1550.2188 1165 L 1612.7188 1165 L 1612.7188 1265 L 1595.2188 1265 L 1595.2188 1180 L 1567.7188 1180 C 1567.7286 1180.3859 1567.7285 1183.7832 1567.6875 1190.1875 C 1567.6485 1196.5919 1567.5206 1203.6755 1567.3438 1211.4688 C 1567.1656 1219.262 1566.8773 1225.4476 1566.4688 1230 C 1564.9271 1241.4815 1561.4755 1249.911 1556.125 1255.2812 C 1550.7744 1260.6517 1545.6412 1264.081 1540.6875 1265.5625 C 1535.7338 1267.044 1533.0693 1267.6852 1532.7188 1267.5 L 1529.875 1250.7188 C 1530.0679 1250.7486 1531.5468 1250.2034 1534.3125 1249.0625 C 1537.0781 1247.9216 1539.9764 1246.0123 1543 1243.3438 C 1546.0236 1240.6751 1548.0014 1237.0536 1548.9688 1232.5 C 1549.3773 1229.7222 1549.6658 1224.4342 1549.8438 1216.6562 C 1550.0206 1208.8786 1550.1489 1200.2881 1550.1875 1190.8438 C 1550.2265 1181.3993 1550.2267 1172.7779 1550.2188 1165 z M 1663.7188 1165 L 1683.7188 1165 L 1716.2188 1265 L 1697.4688 1265 L 1691.2188 1245 L 1656.2188 1245 L 1649.9688 1265 L 1631.2188 1265 L 1663.7188 1165 z M 1734.5312 1165 L 1768.2812 1165 C 1780.6255 1165.573 1789.3755 1169.4272 1794.5312 1176.5625 C 1799.688 1183.698 1802.188 1190.6771 1802.0312 1197.5 C 1801.8755 1204.323 1798.7505 1211.3021 1792.6562 1218.4375 C 1786.563 1225.5729 1778.438 1229.4271 1768.2812 1230 L 1752.0312 1230 L 1752.0312 1265 L 1734.5312 1265 L 1734.5312 1165 z M 1818.0625 1165 L 1836.8125 1165 L 1860.5625 1217.5 L 1880.5625 1165 L 1899.3125 1165 L 1866.8125 1248.75 C 1864.7747 1253.5524 1861.4775 1257.4803 1856.875 1260.5625 C 1852.2724 1263.6446 1847.6529 1265.2389 1843.0625 1265.3438 C 1840.5885 1265.3438 1838.662 1265.2847 1837.2812 1265.125 C 1835.9016 1264.965 1834.9114 1264.7403 1834.3125 1264.4688 L 1830.5625 1248.75 C 1830.6666 1248.802 1831.7083 1249.0104 1833.6875 1249.375 C 1835.6666 1249.7396 1837.9583 1249.9479 1840.5625 1250 C 1843.7871 1249.8177 1846.5856 1248.62 1848.9062 1246.4062 C 1851.2278 1244.1928 1852.4227 1242.0573 1852.5312 1240 C 1852.3519 1238.7012 1850.5673 1234.2559 1847.1562 1226.6875 C 1843.7459 1219.1192 1839.8 1210.5956 1835.3125 1201.0938 C 1830.8249 1191.5918 1826.8791 1183.2872 1823.4688 1176.1875 C 1820.0576 1169.088 1818.242 1165.3614 1818.0625 1165 z M 2003.9062 1165 L 2021.4062 1165 L 2021.4062 1203.75 L 2042.6562 1203.75 C 2054.8958 1204.1667 2063.2297 1207.3959 2067.6562 1213.4375 C 2072.0833 1219.4792 2074.1672 1225.8334 2073.9062 1232.5 C 2074.0624 1239.3229 2071.5624 1246.3021 2066.4062 1253.4375 C 2061.2499 1260.5729 2052.4999 1264.4271 2040.1562 1265 L 2003.9062 1265 L 2003.9062 1165 z M 2082.25 1165 C 2083.5074 1165.015 2084.7202 1165.2575 2085.8438 1165.7188 C 2086.967 1166.18 2087.9747 1166.7709 2088.875 1167.5 C 2089.5074 1167.8498 2090.305 1168.8914 2091.25 1170.625 C 2092.1949 1172.3587 2092.7157 1175.3782 2092.8125 1179.6562 C 2092.2544 1185.9585 2089.9998 1190.8541 2086.0938 1194.3438 C 2082.1873 1197.8333 2079.9644 1199.6043 2079.4062 1199.6562 L 2078.1562 1196.5938 C 2078.4838 1196.5226 2079.802 1195.4637 2082.0938 1193.4062 C 2084.3854 1191.3492 2085.6726 1188.7271 2086 1185.5312 L 2086 1184.2812 C 2085.4531 1184.5455 2084.8771 1184.736 2084.2188 1184.8438 C 2083.5601 1184.9516 2082.8861 1185.0038 2082.25 1185 C 2079.4114 1184.929 2077.0662 1183.9413 2075.1875 1182.0625 C 2073.3088 1180.1838 2072.3207 1177.8386 2072.25 1175 C 2072.321 1172.1615 2073.3088 1169.8163 2075.1875 1167.9375 C 2077.0662 1166.0588 2079.4114 1165.0708 2082.25 1165 z M 2105.8438 1165 C 2107.101 1165.015 2108.314 1165.2575 2109.4375 1165.7188 C 2110.561 1166.18 2111.5684 1166.7709 2112.4688 1167.5 C 2113.101 1167.8498 2113.8987 1168.8914 2114.8438 1170.625 C 2115.7885 1172.3587 2116.3097 1175.3782 2116.4062 1179.6562 C 2115.8484 1185.9585 2113.5937 1190.8541 2109.6875 1194.3438 C 2105.7812 1197.8333 2103.558 1199.6043 2103 1199.6562 L 2101.75 1196.5938 C 2102.0774 1196.5226 2103.3958 1195.4637 2105.6875 1193.4062 C 2107.9791 1191.3492 2109.2661 1188.7271 2109.5938 1185.5312 L 2109.5938 1184.2812 C 2109.0468 1184.5455 2108.471 1184.736 2107.8125 1184.8438 C 2107.154 1184.9516 2106.4797 1185.0038 2105.8438 1185 C 2103.005 1184.929 2100.6602 1183.9413 2098.7812 1182.0625 C 2096.9026 1180.1838 2095.9144 1177.8386 2095.8438 1175 C 2095.9146 1172.1615 2096.9026 1169.8163 2098.7812 1167.9375 C 2100.66 1166.0588 2103.005 1165.0708 2105.8438 1165 z M 1752.0312 1180 L 1752.0312 1215 L 1763.2812 1215 C 1768.49 1215.052 1773.0729 1213.698 1777.0312 1210.9375 C 1780.99 1208.1771 1783.0729 1203.698 1783.2812 1197.5 C 1783.0729 1191.3021 1780.99 1186.823 1777.0312 1184.0625 C 1773.0729 1181.3022 1768.49 1179.948 1763.2812 1180 L 1752.0312 1180 z M 1673.7188 1187.5 L 1661.2188 1230 L 1686.2188 1230 L 1673.7188 1187.5 z M 2021.4062 1218.75 L 2021.4062 1250 L 2038.9062 1250 C 2044.5575 1250 2048.8801 1248.75 2051.875 1246.25 C 2054.8697 1243.75 2056.3801 1240 2056.4062 1235 C 2056.3803 1229.9479 2054.8697 1225.9896 2051.875 1223.125 C 2048.8801 1220.2604 2044.5575 1218.8021 2038.9062 1218.75 L 2021.4062 1218.75 z M 1377.1875 1220 L 1377.1875 1250 L 1394.6875 1250 C 1400.3906 1250 1404.9224 1248.75 1408.2812 1246.25 C 1411.6411 1243.75 1413.3593 1240 1413.4375 1235 C 1413.3595 1230 1411.6412 1226.25 1408.2812 1223.75 C 1404.9224 1221.25 1400.3906 1220 1394.6875 1220 L 1377.1875 1220 z "
       transform="translate(0,-447.63782)"
       id="rect16612" />
    <path
       inkscape:connector-curvature="0"
       style="color:#000000;fill:#0d69e1;fill-opacity:1;fill-rule:nonzero;stroke:none;stroke-width:3.54299998;marker:none;visibility:visible;display:inline;overflow:visible;enable-background:accumulate"
       d="m 685,-37.637835 c -8.31,0 -15,6.69 -15,15 l 0,390.000005 c 0,8.31 6.69,15 15,15 l 1490,0 c 8.31,0 15,-6.69 15,-15 l 0,-390.000005 c 0,-8.31 -6.69,-15 -15,-15 l -1490,0 z m 537.8438,27.5 c 13.727,0.3795604 23.9692,5.5179504 30.6874,15.4062504 6.7193,9.8884696 10.0535,22.2500596 10.0313,37.0937496 0.022,14.84378 -3.312,27.20538 -10.0313,37.093752 -6.7182,9.88839 -16.9604,15.02678 -30.6874,15.40625 -13.7283,-0.37947 -23.9376,-5.51786 -30.6563,-15.40625 -6.7188,-9.888382 -10.0848,-22.249972 -10.0625,-37.093752 -0.022,-14.84369 3.3437,-27.20528 10.0625,-37.0937496 6.7187,-9.8883 16.928,-15.02669 30.6563,-15.4062504 z m 96.5,0 c 9.4308,0.1303 17.0673,2.6823904 22.9062,7.6562504 5.8388,4.97405 10.2858,11.58862 13.3438,19.8437496 l -16.8126,6.25 c -1.8716,-6.19784 -4.4206,-10.67701 -7.6562,-13.4375 -3.2357,-2.7603296 -7.149,-4.1144996 -11.7812,-4.0624996 -7.0059,0.10425 -12.6824,3.33341 -17.0313,9.6874996 -4.349,6.35423 -6.5892,15.20839 -6.7187,26.5625 0.1295,11.3542 2.3697,20.20836 6.7187,26.5625 4.3489,6.354182 10.0254,9.583342 17.0313,9.687502 4.6322,0.0521 8.5455,-1.30207 11.7812,-4.0625 3.2356,-2.760402 5.7846,-7.239562 7.6562,-13.437502 l 16.8126,6.25 c -3.058,8.255222 -7.505,14.869802 -13.3438,19.843752 -5.8389,4.97396 -13.4754,7.52604 -22.9062,7.65625 -13.7283,-0.37532 -23.9682,-5.49907 -30.6876,-15.375 -6.7181,-9.875912 -10.0535,-22.252152 -10.0312,-37.125002 -0.022,-14.87276 3.3131,-27.24899 10.0312,-37.1249996 6.7194,-9.87584 16.9593,-14.99959 30.6876,-15.3750004 z m 122.8437,0 3.75,17.5000004 c -4.6159,0.0719 -8.072,1.26383 -10.3437,3.5624996 -2.2727,2.29882 -4.6496,5.27354 -7.1563,8.9375 -2.5072,3.4758 -5.416,7.16674 -8.7187,11.09375 -3.3042,3.92712 -6.2288,6.0695 -8.7813,6.40625 6.0208,0.76196 10.5624,3.11015 13.625,7.0625 3.0624,3.95244 6.0208,8.68758 8.875,14.1875 3.5822,6.54095 7.1465,12.90296 10.6875,19.093752 3.5408,6.19081 7.4766,11.07879 11.8125,14.65625 l -21.7813,0 c -1.8261,-3.4375 -4.6912,-8.4375 -8.5937,-15 -3.9026,-6.562482 -7.5306,-12.812472 -10.875,-18.750002 -2.1235,-3.96806 -4.4568,-7.05028 -6.9687,-9.21875 -2.5127,-2.16839 -5.5966,-3.25284 -9.2813,-3.28125 -1.4091,0.0224 -2.97,0.12504 -4.6875,0.28125 -1.7176,0.1563 -2.6567,0.22772 -2.8125,0.25 l 0,45.718752 -17.5,0 0,-100.0000016 17.5,0 0,37.3124996 c 0.1495,0.1153 0.3075,0.19812 0.4687,0.25 0.1622,0.052 0.4206,0.10607 0.7813,0.125 6.0339,-0.11238 11.1946,-3.26201 15.4687,-9.40625 4.2753,-6.1441 8.9539,-12.4589096 14.0626,-18.9999996 5.1073,-6.54091 11.9347,-10.47824 20.4687,-11.7812504 z m 244.5937,0 c 9.4321,0.1303 17.0674,2.6823904 22.9063,7.6562504 5.8388,4.97405 10.2869,11.58862 13.3437,19.8437496 l -16.7812,6.25 c -1.8723,-6.19784 -4.4519,-10.67701 -7.6875,-13.4375 -3.2357,-2.7603296 -7.1481,-4.1144996 -11.7813,-4.0624996 -7.0046,0.10425 -12.6823,3.33341 -17.0312,9.6874996 -4.349,6.35423 -6.588,15.20839 -6.7188,26.5625 0.1308,11.3542 2.3698,20.20836 6.7188,26.5625 4.3489,6.354182 10.0266,9.583342 17.0312,9.687502 4.6332,0.0521 8.5456,-1.30207 11.7813,-4.0625 3.2356,-2.760402 5.8152,-7.239562 7.6875,-13.437502 l 16.7812,6.25 c -3.0568,8.255222 -7.5049,14.869802 -13.3437,19.843752 -5.8389,4.97396 -13.4742,7.52604 -22.9063,7.65625 -13.7271,-0.37532 -23.9693,-5.49907 -30.6874,-15.375 -6.7194,-9.875912 -10.0536,-22.252152 -10.0313,-37.125002 -0.022,-14.87276 3.3119,-27.24899 10.0313,-37.1249996 6.7181,-9.87584 16.9603,-14.99959 30.6874,-15.3750004 z m 275.8438,0 c 9.4315,0.1303 17.0679,2.6823904 22.9062,7.6562504 5.8388,4.97405 10.2863,11.58862 13.3438,19.8437496 l -16.7812,6.25 c -1.8723,-6.19784 -4.4514,-10.67701 -7.6876,-13.4375 -3.2355,-2.7603296 -7.1486,-4.1144996 -11.7812,-4.0624996 -7.0052,0.10425 -12.6825,3.33341 -17.0312,9.6874996 -4.3496,6.35423 -6.5886,15.20839 -6.7188,26.5625 0.1302,11.3542 2.3692,20.20836 6.7188,26.5625 4.3487,6.354182 10.0259,9.583342 17.0312,9.687502 4.6326,0.0521 8.5457,-1.30207 11.7812,-4.0625 3.2362,-2.760402 5.8153,-7.239562 7.6876,-13.437502 l 16.7812,6.25 c -3.0575,8.255222 -7.505,14.869802 -13.3438,19.843752 -5.8383,4.97396 -13.4747,7.52604 -22.9062,7.65625 -13.7277,-0.37532 -23.9688,-5.49907 -30.6875,-15.375 -6.7188,-9.875912 -10.053,-22.252152 -10.0313,-37.125002 -0.022,-14.87276 3.3125,-27.24899 10.0313,-37.1249996 6.7187,-9.87584 16.9598,-14.99959 30.6875,-15.3750004 z m 122.8438,0 3.75,17.5000004 c -4.616,0.0719 -8.0719,1.26383 -10.3438,3.5624996 -2.2721,2.29882 -4.6499,5.27354 -7.1562,8.9375 -2.5074,3.4758 -5.4154,7.16674 -8.7188,11.09375 -3.3035,3.92712 -6.2288,6.0695 -8.7812,6.40625 6.0207,0.76196 10.5623,3.11015 13.625,7.0625 3.0623,3.95244 6.0207,8.68758 8.875,14.1875 3.5821,6.54095 7.1467,12.90296 10.6874,19.093752 3.5409,6.19081 7.4765,11.07879 11.8126,14.65625 l -21.7813,0 c -1.8267,-3.4375 -4.6917,-8.4375 -8.5937,-15 -3.9026,-6.562482 -7.5308,-12.812472 -10.875,-18.750002 -2.1236,-3.96806 -4.4563,-7.05028 -6.9688,-9.21875 -2.5126,-2.16839 -5.5972,-3.25284 -9.2812,-3.28125 -1.4097,0.0224 -2.9694,0.12504 -4.6876,0.28125 -1.7169,0.1563 -2.6572,0.22772 -2.8124,0.25 l 0,45.718752 -17.5,0 0,-100.0000016 17.5,0 0,37.3124996 c 0.1488,0.1153 0.3071,0.19812 0.4687,0.25 0.1615,0.052 0.42,0.10607 0.7813,0.125 6.0335,-0.11238 11.194,-3.26201 15.4687,-9.40625 4.2746,-6.1441 8.9544,-12.4589096 14.0625,-18.9999996 5.108,-6.54091 11.9342,-10.47824 20.4688,-11.7812504 z M 1095,-7.6378346 l 38.75,0 c 9.4233,0.32004 16.6614,3.23819 21.6875,8.78125 5.026,5.54324 7.5457,11.7917396 7.5937,18.7187496 -0.048,3.88027 -1.3177,7.68235 -3.8437,11.40625 -2.5261,3.72401 -6.0142,6.58859 -10.4375,8.59375 5.1041,1.87505 9.2708,4.68754 12.5,8.4375 3.2291,3.75004 4.8957,8.43753 5,14.0625 -0.1861,8.35939 -3.2426,15.390642 -9.1875,21.093752 -5.945,5.70313 -13.6533,8.67187 -23.125,8.90625 l -38.9375,0 0,-100.0000016 z m 376.1562,0 33.75,0 c 12.3443,0.57301 21.0943,4.42717 26.25,11.5625 5.1568,7.1354996 7.6568,14.1146496 7.5,20.9374996 -0.1557,6.82297 -3.2807,13.80213 -9.375,20.9375 -6.0932,7.13546 -14.2182,10.98962 -24.375,11.5625 l -16.25,0 0,35.000002 -17.5,0 0,-100.0000016 z m 91.5938,0 62.5,0 0,16.25 -45,0 0,23.7499996 36.25,0 0,15 -36.25,0 0,30.000002 46.25,0 0,15 -63.75,0 0,-100.0000016 z m 179.375,0 62.5,0 0,16.25 -45,0 0,23.7499996 36.25,0 0,15 -36.25,0 0,30.000002 46.25,0 0,15 -63.75,0 0,-100.0000016 z m 87.75,0 17.5,0 0,39.9999996 37.5,0 0,-39.9999996 17.5,0 0,100.0000016 -17.5,0 0,-45.000002 -37.5,0 0,45.000002 -17.5,0 0,-100.0000016 z m -607.0312,13.75 c -7.0059,0.10425 -12.6824,3.33341 -17.0313,9.6874996 -4.349,6.35423 -6.5892,15.20839 -6.7187,26.5625 0.1295,11.3542 2.3697,20.20836 6.7187,26.5625 4.3489,6.354182 10.0254,9.583342 17.0313,9.687502 7.0045,-0.10416 12.6822,-3.33332 17.0312,-9.687502 4.3489,-6.35414 6.5879,-15.2083 6.7188,-26.5625 -0.1309,-11.35411 -2.3699,-20.20827 -6.7188,-26.5625 -4.349,-6.3540896 -10.0267,-9.5832496 -17.0312,-9.6874996 z m -110.3438,1.25 0,25.7187496 20,0 c 3.802,-0.0669 6.8229,-1.28119 9.0625,-3.625 2.2395,-2.34369 3.3854,-5.43297 3.4375,-9.25 -0.1303,-4.36376 -1.4325,-7.57805 -3.9062,-9.6875 -2.4747,-2.1092896 -5.3386,-3.1673296 -8.5938,-3.1562496 l -20,0 z m 376.1562,0 0,34.9999996 11.25,0 c 5.2089,0.0521 9.7917,-1.30204 13.75,-4.0625 3.9589,-2.76036 6.0417,-7.23953 6.25,-13.4375 -0.2083,-6.19785 -2.2911,-10.67701 -6.25,-13.4375 -3.9583,-2.7603396 -8.5411,-4.1144996 -13.75,-4.0624996 l -11.25,0 z M 1112.5,47.362165 l 0,30.000002 21.25,0 c 4.9999,-0.17856 8.7499,-1.77677 11.25,-4.812502 2.4999,-3.03569 3.7499,-6.43748 3.75,-10.1875 -10e-5,-3.74997 -1.2501,-7.15175 -3.75,-10.1875 -2.5001,-3.03567 -6.2501,-4.63389 -11.25,-4.8125 l -21.25,0 z M 720,97.362167 l 300,0 c 13.85,0 25,11.150003 25,25.000003 l 0,100 c 0,13.85 -11.15,25 -25,25 l -300,0 c -13.85,0 -25,-11.15 -25,-25 l 0,-100 c 0,-13.85 11.15,-25.000003 25,-25.000003 z m 591.8438,23.656253 c 1.2572,0.015 2.4391,0.25752 3.5624,0.71875 1.1237,0.46139 2.131,1.05216 3.0313,1.78125 0.6324,0.34977 1.43,1.39144 2.375,3.125 0.9449,1.7337 1.4657,4.72179 1.5625,9 -0.5581,6.30214 -2.7813,11.19797 -6.6875,14.6875 -3.9063,3.48963 -6.1609,5.26046 -6.7187,5.3125 l -1.25,-3.03125 c 0.3271,-0.0706 1.646,-1.13016 3.9374,-3.1875 2.2917,-2.05724 3.6099,-4.67926 3.9376,-7.875 l 0,-1.25 c -0.5471,0.26419 -1.1539,0.45467 -1.8126,0.5625 -0.6585,0.10794 -1.3015,0.16003 -1.9374,0.15625 -2.8388,-0.0706 -5.2151,-1.05872 -7.0938,-2.9375 -1.8787,-1.87866 -2.8358,-4.2239 -2.9062,-7.0625 0.07,-2.83848 1.0275,-5.21496 2.9062,-7.09375 1.8787,-1.87864 4.255,-2.83549 7.0938,-2.90625 z m 23.5937,0 c 1.2574,0.015 2.439,0.25752 3.5625,0.71875 1.1235,0.46139 2.1311,1.05216 3.0312,1.78125 0.6327,0.34977 1.4303,1.39144 2.375,3.125 0.9452,1.7337 1.4656,4.72179 1.5626,9 -0.5583,6.30214 -2.7811,11.19797 -6.6876,14.6875 -3.906,3.48963 -6.1296,5.26046 -6.6874,5.3125 l -1.25,-3.03125 c 0.3271,-0.0706 1.6145,-1.13016 3.9062,-3.1875 2.2916,-2.05724 3.6101,-4.67926 3.9375,-7.875 l 0,-1.25 c -0.5469,0.26419 -1.154,0.45467 -1.8125,0.5625 -0.6585,0.10794 -1.3014,0.16003 -1.9375,0.15625 -2.8386,-0.0706 -5.1838,-1.05872 -7.0625,-2.9375 -1.8787,-1.87866 -2.8668,-4.2239 -2.9375,-7.0625 0.071,-2.83848 1.0588,-5.21496 2.9375,-7.09375 1.8787,-1.87864 4.2239,-2.83549 7.0625,-2.90625 z m 385,0 c 1.2574,0.015 2.439,0.25752 3.5625,0.71875 1.1235,0.46139 2.131,1.05216 3.0312,1.78125 0.6326,0.34977 1.4302,1.39144 2.375,3.125 0.9451,1.7337 1.4657,4.72179 1.5626,9 -0.5582,6.30214 -2.8126,11.19797 -6.7188,14.6875 -3.9063,3.48963 -6.1295,5.26046 -6.6875,5.3125 l -1.25,-3.03125 c 0.3274,-0.0706 1.6458,-1.13016 3.9375,-3.1875 2.2916,-2.05724 3.6101,-4.67926 3.9375,-7.875 l 0,-1.25 c -0.5469,0.26419 -1.154,0.45467 -1.8125,0.5625 -0.6585,0.10794 -1.3014,0.16003 -1.9375,0.15625 -2.8386,-0.0706 -5.2151,-1.05872 -7.0937,-2.9375 -1.8789,-1.87866 -2.8356,-4.2239 -2.9063,-7.0625 0.071,-2.83848 1.0274,-5.21496 2.9063,-7.09375 1.8786,-1.87864 4.2551,-2.83549 7.0937,-2.90625 z m 23.5937,0 c 1.2576,0.015 2.4389,0.25752 3.5626,0.71875 1.1233,0.46139 2.1309,1.05216 3.0312,1.78125 0.6324,0.34977 1.43,1.39144 2.375,3.125 0.9449,1.7337 1.4657,4.72179 1.5625,9 -0.5581,6.30214 -2.8126,11.19797 -6.7187,14.6875 -3.9064,3.48963 -6.1294,5.26046 -6.6876,5.3125 l -1.25,-3.03125 c 0.3275,-0.0706 1.6459,-1.13016 3.9376,-3.1875 2.2915,-2.05724 3.6101,-4.67926 3.9374,-7.875 l 0,-1.25 c -0.5467,0.26419 -1.1541,0.45467 -1.8124,0.5625 -0.6587,0.10794 -1.3013,0.16003 -1.9376,0.15625 -2.8384,-0.0706 -5.215,-1.05872 -7.0937,-2.9375 -1.8787,-1.87866 -2.8356,-4.2239 -2.9063,-7.0625 0.071,-2.83848 1.0276,-5.21496 2.9063,-7.09375 1.8787,-1.87864 4.2553,-2.83549 7.0937,-2.90625 z m -642.5,6.34375 17.5,0 22.5,48.75 22.5,-48.75 17.5,0 11.25,100 -18.75,0 -6.25,-73.75 -26.25,58.75 -26.25,-58.75 -6.25,73.75 -18.75,0 11.25,-100 z m 102.5313,0 57.5,0 -5,16.25 -36.25,0 0,23.75 c 1.9605,-2.44785 4.4407,-4.11452 7.4063,-5 2.9644,-0.88535 5.9009,-1.30202 8.8437,-1.25 7.2656,0.0521 13.9838,2.76048 20.1563,8.125 6.1713,5.36464 9.453,13.07296 9.8437,23.125 -0.1303,10.26044 -3.62,18.8021 -10.4687,25.625 -6.8496,6.82292 -16.2761,10.36458 -28.2813,10.625 -5.9115,-0.20834 -11.2766,-1.04167 -16.0937,-2.5 -4.8183,-1.45833 -7.3699,-2.29166 -7.6563,-2.5 l -2.5,-16.25 c 3.1324,2.00523 6.8457,3.34302 11.0937,4.03125 4.249,0.68826 8.4524,1.01713 12.6563,0.96875 5.3125,2e-5 10.3125,-1.56248 15,-4.6875 4.6874,-3.12498 7.1874,-7.81247 7.5,-14.0625 -0.026,-4.60934 -1.536,-8.82808 -4.5313,-12.65625 -2.9943,-3.82807 -7.3177,-5.85932 -12.9687,-6.09375 -3.75,0.23443 -6.875,1.32818 -9.375,3.28125 -2.5,1.95317 -4.375,3.35942 -5.625,4.21875 l -11.25,-6.25 0,-48.75 z m 146.2813,0 18.75,0 23.75,52.5 20,-52.5 18.75,0 -32.5,83.75 c -2.0383,4.80239 -5.3663,8.73036 -9.9688,11.8125 -4.6026,3.08214 -9.1913,4.67649 -13.7812,4.78125 -2.4745,-0.004 -4.4011,-0.0588 -5.7813,-0.21875 -1.3802,-0.15997 -2.37,-0.38467 -2.9687,-0.65625 l -3.75,-15.71875 c 0.1036,0.0521 1.1458,0.26043 3.125,0.625 1.9786,0.3646 4.2708,0.57293 6.875,0.625 3.2246,-0.18228 5.9917,-1.38019 8.3124,-3.59375 2.3216,-2.21352 3.5472,-4.34894 3.6563,-6.40625 -0.1795,-1.29881 -1.9645,-5.74411 -5.375,-13.3125 -3.4106,-7.56831 -7.3875,-16.09174 -11.875,-25.59375 -4.4876,-9.50188 -8.4334,-17.80656 -11.8437,-24.90625 -3.4111,-7.09952 -5.1957,-10.82607 -5.375,-11.1875 z m 92.7812,0 33.75,0 c 12.3437,0.57301 21.0937,4.42717 26.25,11.5625 5.1562,7.1355 7.6562,14.11466 7.5,20.9375 -0.1563,6.82298 -3.2813,13.80213 -9.375,20.9375 -6.0938,7.13546 -14.2188,10.98962 -24.375,11.5625 l -16.25,0 0,35 -17.5,0 0,-100 z m 115.25,0 20,0 32.5,100 -18.75,0 -6.25,-20 -35,0 -6.25,20 -18.75,0 32.5,-100 z m 81.2812,0 62.5,0 0,100 -17.5,0 0,-85 -27.5,0 c 0.01,0.38588 0.01,3.78326 -0.031,10.1875 -0.039,6.40439 -0.1658,13.4881 -0.3438,21.28125 -0.1775,7.79326 -0.4655,13.97882 -0.875,18.53125 -1.5405,11.4815 -4.9625,19.91089 -10.3124,25.28125 -5.3511,5.37038 -10.5151,8.79977 -15.4688,10.28125 -4.9537,1.48148 -7.6177,2.12268 -7.9688,1.9375 l -2.8437,-16.78125 c 0.1929,0.0298 1.6718,-0.51536 4.4375,-1.65625 2.7656,-1.14086 5.6639,-3.05008 8.6875,-5.71875 3.0236,-2.66863 5.0025,-6.29015 5.9687,-10.84375 0.4095,-2.77774 0.6981,-8.06593 0.875,-15.84375 0.178,-7.77772 0.3052,-16.36799 0.3438,-25.8125 0.039,-9.44436 0.039,-18.06589 0.031,-25.84375 z m -179.0312,15 0,35 11.25,0 c 5.2083,0.0521 9.7916,-1.30203 13.75,-4.0625 3.9583,-2.76036 6.0416,-7.23952 6.25,-13.4375 -0.2084,-6.19784 -2.2917,-10.67701 -6.25,-13.4375 -3.9584,-2.76034 -8.5417,-4.1145 -13.75,-4.0625 l -11.25,0 z m 107.75,7.5 -12.5,42.5 25,0 -12.5,-42.5 z m -247.9688,110 c 1.2578,0.015 2.4387,0.25752 3.5626,0.71875 1.1231,0.46139 2.1309,1.05216 3.0312,1.78125 0.6324,0.34978 1.43,1.39144 2.375,3.125 0.9449,1.7337 1.4657,4.75304 1.5625,9.03125 -0.5581,6.30214 -2.7813,11.19797 -6.6875,14.6875 -3.9063,3.48963 -6.1604,5.26046 -6.7188,5.3125 l -1.25,-3.0625 c 0.3277,-0.0706 1.6459,-1.13016 3.9376,-3.1875 2.2913,-2.05724 3.6103,-4.67926 3.9374,-7.875 l 0,-1.25 c -0.5465,0.2642 -1.1543,0.45467 -1.8124,0.5625 -0.6589,0.10795 -1.3011,0.16003 -1.9376,0.15625 -2.8382,-0.0706 -5.215,-1.05872 -7.0937,-2.9375 -1.8787,-1.87865 -2.8356,-4.22389 -2.9063,-7.0625 0.071,-2.83847 1.0276,-5.18371 2.9063,-7.0625 1.8787,-1.87864 4.2555,-2.86673 7.0937,-2.9375 z m 23.5938,0 c 1.2574,0.015 2.439,0.25752 3.5625,0.71875 1.1235,0.46139 2.1309,1.05216 3.0313,1.78125 0.6322,0.34978 1.4297,1.39144 2.375,3.125 0.9447,1.7337 1.466,4.75304 1.5624,9.03125 -0.5577,6.30214 -2.7815,11.19797 -6.6874,14.6875 -3.9066,3.48963 -6.1608,5.26046 -6.7188,5.3125 l -1.25,-3.0625 c 0.3274,-0.0706 1.6458,-1.13016 3.9375,-3.1875 2.2916,-2.05724 3.6101,-4.67926 3.9375,-7.875 l 0,-1.25 c -0.5469,0.2642 -1.154,0.45467 -1.8125,0.5625 -0.6585,0.10795 -1.3014,0.16003 -1.9375,0.15625 -2.8386,-0.0706 -5.2147,-1.05872 -7.0938,-2.9375 -1.8786,-1.87865 -2.8355,-4.22389 -2.9062,-7.0625 0.071,-2.83847 1.0276,-5.18371 2.9062,-7.0625 1.8791,-1.87864 4.2552,-2.86673 7.0938,-2.9375 z m 161.0625,0 c 13.7276,0.37957 23.937,5.51795 30.6563,15.40625 6.7182,9.88847 10.0851,22.25006 10.0624,37.09375 0.023,14.84378 -3.3442,27.20538 -10.0624,37.09375 -6.7193,9.8884 -16.9287,15.02678 -30.6563,15.40625 -13.7277,-0.37947 -23.9688,-5.51785 -30.6875,-15.40625 -6.7188,-9.88837 -10.054,-22.24997 -10.0312,-37.09375 -0.023,-14.84368 3.3124,-27.20528 10.0312,-37.09375 6.7187,-9.8883 16.9598,-15.02668 30.6875,-15.40625 z m 155.7813,0 c 1.2574,0.015 2.4389,0.25752 3.5624,0.71875 1.1235,0.46139 2.131,1.05216 3.0313,1.78125 0.6324,0.34978 1.43,1.39144 2.375,3.125 0.9449,1.7337 1.4657,4.75304 1.5625,9.03125 -0.5581,6.30214 -2.7813,11.19797 -6.6875,14.6875 -3.9063,3.48963 -6.1295,5.26046 -6.6875,5.3125 l -1.25,-3.0625 c 0.3274,-0.0706 1.6146,-1.13016 3.9062,-3.1875 2.2917,-2.05724 3.6101,-4.67926 3.9376,-7.875 l 0,-1.25 c -0.5469,0.2642 -1.1541,0.45467 -1.8126,0.5625 -0.6585,0.10795 -1.3013,0.16003 -1.9374,0.15625 -2.8386,-0.0706 -5.1838,-1.05872 -7.0626,-2.9375 -1.8787,-1.87865 -2.8668,-4.22389 -2.9374,-7.0625 0.071,-2.83847 1.0587,-5.18371 2.9374,-7.0625 1.8788,-1.87864 4.224,-2.86673 7.0626,-2.9375 z m 23.5937,0 c 1.2574,0.015 2.439,0.25752 3.5625,0.71875 1.1235,0.46139 2.1622,1.05216 3.0625,1.78125 0.6324,0.34978 1.3988,1.39144 2.3437,3.125 0.945,1.7337 1.4658,4.75304 1.5626,9.03125 -0.5581,6.30214 -2.7813,11.19797 -6.6876,14.6875 -3.9062,3.48963 -6.1294,5.26046 -6.6874,5.3125 l -1.25,-3.0625 c 0.3273,-0.0706 1.6145,-1.13016 3.9062,-3.1875 2.2916,-2.05724 3.6101,-4.67926 3.9375,-7.875 l 0,-1.25 c -0.5469,0.2642 -1.154,0.45467 -1.8125,0.5625 -0.6585,0.10795 -1.3014,0.16003 -1.9375,0.15625 -2.8386,-0.0706 -5.1838,-1.05872 -7.0625,-2.9375 -1.8787,-1.87865 -2.8668,-4.22389 -2.9375,-7.0625 0.071,-2.83847 1.0588,-5.18371 2.9375,-7.0625 1.8787,-1.87864 4.2239,-2.86673 7.0625,-2.9375 z m -583.1875,2.5 17.5,0 22.5,48.75 22.5,-48.75 17.5,0 11.25,100 -18.75,0 -6.25,-73.75 -26.25,58.75 -26.25,-58.75 -6.25,73.75 -18.75,0 11.25,-100 z m 148.3125,0 15,0 0,65 13.75,0 -5.7187,15 -6.7813,0 0,20 -17.5,0 0,-20 -47.5,0 0,-15 48.75,-65 z m 134.6875,0 58.75,0 0,7.5 0,77.5 11.25,0 0,32.5 -15,0 0,-17.5 -62.5,0 0,17.5 -15,0 0,-32.5 11.25,0 c 1.7129,-4.35294 3.412,-10.46564 5.125,-18.34375 1.7129,-7.87805 3.1551,-16.39468 4.3125,-25.5625 1.1574,-9.1677 1.7662,-17.87167 1.8125,-26.09375 l 0,-15 z m 179.2188,0 17.5,0 0,40 37.5,0 0,-40 17.5,0 0,100 -17.5,0 0,-45 -37.5,0 0,45 -17.5,0 0,-100 z m -58.4063,13.75 c -7.0052,0.10425 -12.6819,3.33342 -17.0313,9.6875 -4.3487,6.35424 -6.5885,15.20839 -6.7187,26.5625 0.1302,11.3542 2.37,20.20836 6.7187,26.5625 4.3494,6.35418 10.026,9.58335 17.0313,9.6875 7.0051,-0.10415 12.6818,-3.33332 17.0313,-9.6875 4.3487,-6.35414 6.5884,-15.20829 6.7187,-26.5625 -0.1303,-11.35411 -2.37,-20.20826 -6.7187,-26.5625 -4.3495,-6.35408 -10.0262,-9.58325 -17.0313,-9.6875 z m -103.3125,1.25 c -0.067,12.29174 -1.1782,24.8959 -3.3438,37.8125 -2.1648,12.9167 -4.9781,23.64585 -8.4374,32.1875 l 35.5312,0 0,-70 -23.75,0 z m -153.4375,11.25 -28.75,38.75 28.75,0 0,-38.75 z"
       id="rect16610" />
    <path
       inkscape:connector-curvature="0"
       style="color:#000000;fill:#0d69e1;fill-opacity:1;fill-rule:nonzero;stroke:none;stroke-width:3.54299998;marker:none;visibility:visible;display:inline;overflow:visible;enable-background:accumulate"
       d="m 550,-362.63783 c -8.31,0 -15,6.69 -15,15 l 0,100 c 0,8.31 6.69,15 15,15 l 250,0 c 8.31,0 15,-6.69 15,-15 l 0,-100 c 0,-8.31 -6.69,-15 -15,-15 l -250,0 z m 176.78125,19.78125 c 6.36484,0.13795 12.09462,2.35119 17.21875,6.625 5.12402,4.27398 7.82622,9.77581 8.125,16.53125 0.0328,5.28499 -0.53053,9.36797 -1.71875,12.25 -1.18835,2.88214 -3.19675,5.95094 -6,9.1875 -3.51896,4.37898 -7.75058,9.06148 -12.6875,14.03125 -4.93701,4.96983 -10.24399,10.42045 -15.96875,16.375 l 36.375,0 c -7e-5,1.70038 -0.26109,3.81619 -0.8125,6.34375 -0.55153,2.52758 -1.39712,5.19669 -2.5,8 l -52.9375,0 0,-13.25 c 6.02677,-5.47858 11.66726,-10.94733 16.90625,-16.40625 5.23894,-5.45887 10.32612,-11.12745 15.25,-17 2.73105,-3.01991 4.94927,-5.95005 6.65625,-8.8125 1.70688,-2.86233 2.57243,-6.43822 2.625,-10.71875 -0.0493,-2.89187 -1.19398,-5.49166 -3.46875,-7.8125 -2.27486,-2.3207 -5.37176,-3.55284 -9.28125,-3.6875 -3.28588,0.13466 -6.37779,1.3668 -9.25,3.6875 -2.87227,2.32084 -5.6719,4.92063 -8.40625,7.8125 l -8.8125,-9.9375 c 3.26285,-3.86022 7.20219,-6.99519 11.84375,-9.4375 4.64152,-2.44214 10.27203,-3.70238 16.84375,-3.78125 z m -119.03125,1.09375 15.4375,0 19.84375,43.03125 19.84375,-43.03125 15.46875,0 9.90625,88.25 -16.53125,0 -5.53125,-65.09375 -23.15625,51.84375 -23.15625,-51.84375 -5.5,65.09375 -16.5625,0 9.9375,-88.25 z"
       id="rect16352" />
    <path
       inkscape:connector-curvature="0"
       style="color:#000000;fill:#00a500;fill-opacity:1;fill-rule:nonzero;stroke:none;stroke-width:3.54299998;marker:none;visibility:visible;display:inline;overflow:visible;enable-background:accumulate"
       d="m 550,-192.63783 c -8.31,0 -15,6.69 -15,15 l 0,99.999995 c 0,8.31 6.69,15 15,15 l 250,0 c 8.31,0 15,-6.69 15,-15 l 0,-99.999995 c 0,-8.31 -6.69,-15 -15,-15 l -250,0 z m 123.34375,18.84375 c 9.5358,0.0165 17.21778,3.52307 23.03125,10.53125 5.81335,7.00834 8.80784,17.41563 8.96875,31.21875 0.11482,13.66863 -2.58738,25.31804 -8.125,34.968745 -5.53774,9.65074 -14.58736,14.6917 -27.15625,15.125 -4.64157,-0.20352 -8.87319,-1.01287 -12.6875,-2.4375 -3.81435,-1.42463 -5.83274,-2.23398 -6.0625,-2.4375 l -1.75,-13.562495 c 0.18709,0.21666 2.17738,1.077215 5.96875,2.593745 3.79134,1.51656 8.25588,2.40836 13.40625,2.625 6.50868,-0.35986 11.25431,-2.88422 14.25,-7.562495 2.99559,-4.67824 4.89769,-9.35296 5.6875,-14.03125 0.78971,-4.67822 1.14013,-7.2026 1.03125,-7.5625 -2.80336,2.29783 -6.02578,4.31621 -9.65625,6.0625 -3.63056,1.74636 -7.40629,2.65812 -11.3125,2.75 -3.81437,0.25279 -8.30701,-1.3428 -13.5,-4.8125 -5.19303,-3.46963 -8.05699,-10.33727 -8.5625,-20.5625 0.20679,-9.09264 2.84282,-16.76647 7.875,-23.0625 5.03215,-6.29587 11.2178,-9.57449 18.59375,-9.84375 z m -95.96875,2.03125 55.125,0 0,14.34375 -39.6875,0 0,20.96875 31.96875,0 0,13.21875 -31.96875,0 0,26.468745 40.8125,0 0,13.25 -56.25,0 0,-88.249995 z m 140.125,0 50.71875,0 -4.40625,14.34375 -31.96875,0 0,20.96875 c 1.72988,-2.15987 3.88377,-3.65619 6.5,-4.4375 2.61617,-0.78119 5.21595,-1.13965 7.8125,-1.09375 6.41079,0.046 12.33542,2.4541 17.78125,7.1875 5.44571,4.7335 8.34276,11.5368 8.6875,20.40625 -0.11496,9.05333 -3.17561,16.573535 -9.21875,22.593745 -6.04325,6.02023 -14.37597,9.14522 -24.96875,9.375 -5.21602,-0.18383 -9.93661,-0.93199 -14.1875,-2.21875 -4.25093,-1.28676 -6.49725,-2.00367 -6.75,-2.1875 l -2.21875,-14.343745 c 2.76391,1.769315 6.03255,2.955235 9.78125,3.562495 3.74866,0.60729 7.47818,0.88644 11.1875,0.84375 4.68746,10e-6 9.08268,-1.36763 13.21875,-4.124995 4.13598,-2.75733 6.34922,-6.89152 6.625,-12.40625 -0.023,-4.06706 -1.35759,-7.80971 -4,-11.1875 -2.64251,-3.37771 -6.45133,-5.16815 -11.4375,-5.375 -3.30886,0.20685 -6.0754,1.18295 -8.28125,2.90625 -2.20591,1.72339 -3.86584,2.96052 -4.96875,3.71875 l -9.90625,-5.5 0,-43.03125 z m -41.9375,12.125 c -4.87136,0.32177 -8.49347,2.33017 -10.84375,6 -2.35034,3.66997 -3.51315,7.55311 -3.5,11.65625 0.1838,4.41182 1.48527,7.73167 3.875,9.9375 2.38968,2.20593 4.76651,3.31255 7.15625,3.3125 5.54092,-0.45295 9.77753,-2.2665 12.71875,-5.4375 2.94113,-3.1709 4.44244,-4.98445 4.46875,-5.4375 -0.17415,-1.6884 -0.6861,-4.10257 -1.53125,-7.25 -0.84525,-3.1473 -2.23941,-6.03402 -4.1875,-8.65625 -1.94819,-2.62208 -4.67337,-4.0121 -8.15625,-4.125 z"
       id="rect16356" />
    <path
       inkscape:connector-curvature="0"
       style="color:#000000;fill:#0d69e1;fill-opacity:1;fill-rule:nonzero;stroke:none;stroke-width:3.54299998;marker:none;visibility:visible;display:inline;overflow:visible;enable-background:accumulate"
       d="m 720.15625,107.36217 c -8.3948,0 -15.15625,6.69 -15.15625,15 l 0,100 c 0,8.31 6.76145,15 15.15625,15 l 299.68755,0 c 8.3947,0 15.1562,-6.69 15.1562,-15 l 0,-100 c 0,-8.31 -6.7615,-15 -15.1562,-15 l -299.68755,0 z M 899.5,127.14342 c 8.96135,0.31849 16.12311,4.72684 21.5,13.21875 5.37677,8.49206 8.14331,19.15539 8.28125,32 -0.13794,13.4651 -2.90448,24.30516 -8.28125,32.53125 -5.37689,8.22611 -12.53865,12.45772 -21.5,12.6875 -8.96143,-0.22978 -16.12319,-4.46139 -21.5,-12.6875 -5.37685,-8.22608 -8.14339,-19.06615 -8.28125,-32.53125 0.13786,-13.46502 2.9044,-24.30508 8.28125,-32.53125 5.37681,-8.22602 12.53857,-12.45764 21.5,-12.6875 z m 71.40625,0 c 7.42183,8e-5 13.80233,1.92104 19.15625,5.78125 5.3538,3.86037 8.15343,9.65448 8.40625,17.375 -0.1907,5.10627 -1.52185,9.09973 -4,12 -2.47827,2.90038 -4.95935,4.97166 -7.4375,6.15625 -2.47827,1.18469 -3.80942,1.7284 -4,1.6875 0.21781,-0.0136 1.76145,0.77387 4.59375,2.3125 2.83218,1.53871 5.63644,3.93318 8.46875,7.1875 2.83218,3.25439 4.37585,7.42909 4.59375,12.5625 0.1378,5.88237 -2.07544,11.51288 -6.625,16.84375 -4.54969,5.33089 -12.26475,8.1636 -23.15625,8.53125 -10.89157,-0.36765 -18.60664,-3.20037 -23.15625,-8.53125 -4.54964,-5.33087 -6.76288,-10.96138 -6.625,-16.84375 0.21785,-5.13341 1.73025,-9.30811 4.5625,-12.5625 2.83223,-3.25432 5.66774,-5.64879 8.5,-7.1875 2.83222,-1.53862 4.37586,-2.32607 4.59375,-2.3125 -0.19066,0.0409 -1.52181,-0.50281 -4,-1.6875 -2.47823,-1.18459 -4.95931,-3.25587 -7.4375,-6.15625 -2.47823,-2.90027 -3.80938,-6.89373 -4,-12 0.25274,-7.72052 3.05238,-13.51463 8.40625,-17.375 5.35383,-3.86021 11.73434,-5.78116 19.15625,-5.78125 z m -203.125,1.09375 17.65625,0 28.6875,88.25 -16.5625,0 -5.5,-17.65625 -30.90625,0 -5.5,17.65625 -16.53125,0 28.65625,-88.25 z m 70.1875,0 13.25,0 0,88.25 -15.4375,0 0,-68.375 -11.8125,7.40625 -5.21875,-6.78125 19.21875,-20.5 z m 132.9375,11.5 c -3.40077,-0.0426 -6.26474,0.77489 -8.5625,2.40625 -2.29782,1.6315 -3.47062,4.3387 -3.5625,8.15625 0.50548,3.44675 2.52387,6.47432 6.0625,9.09375 3.53857,2.61954 5.55694,4.01843 6.0625,4.15625 0.50547,-0.13782 2.52385,-1.53671 6.0625,-4.15625 3.53855,-2.61942 5.55693,-5.647 6.0625,-9.09375 -0.092,-3.81755 -1.29601,-6.52475 -3.59375,-8.15625 -2.29784,-1.63136 -5.13056,-2.44885 -8.53125,-2.40625 z m -72.1875,1.125 c -3.94834,0.23856 -7.13754,2.72961 -9.5625,7.46875 -2.58669,5.05521 -3.93437,13.06754 -4,24.03125 0.0656,10.96379 1.41331,18.97613 4,24.03125 2.58663,5.05516 6.02386,7.53441 10.34375,7.46875 4.31981,0.0657 7.78829,-2.41359 10.375,-7.46875 2.58661,-5.05512 3.90304,-13.06746 3.96875,-24.03125 -0.0657,-10.96371 -1.38214,-18.97604 -3.96875,-24.03125 -2.58671,-5.05507 -6.05519,-7.53433 -10.375,-7.46875 -0.26999,-0.004 -0.51803,-0.0159 -0.78125,0 z m -122.09375,7.25 -11.03125,37.5 22.03125,0 -11,-37.5 z m 194.28125,28.65625 c -0.17706,0.0613 -1.41759,0.93938 -3.71875,2.59375 -2.30123,1.65445 -4.60508,3.73778 -6.90625,6.25 -2.30122,2.51228 -3.54176,5.08397 -3.71875,7.71875 0.18379,3.83733 1.74629,6.63696 4.6875,8.40625 2.94114,1.76932 6.16357,2.64799 9.65625,2.625 3.4926,0.023 6.71503,-0.85569 9.65625,-2.625 2.94113,-1.76928 4.50362,-4.56892 4.6875,-8.40625 -0.17707,-2.982 -1.4176,-5.72689 -3.71875,-8.21875 -2.30125,-2.49179 -4.6051,-4.48853 -6.90625,-6 -2.30124,-1.5114 -3.54177,-2.30286 -3.71875,-2.34375 z"
       id="rect16360" />
    <path
       inkscape:connector-curvature="0"
       style="color:#000000;fill:#0d69e1;fill-opacity:1;fill-rule:nonzero;stroke:none;stroke-width:3.54299998;marker:none;visibility:visible;display:inline;overflow:visible;enable-background:accumulate"
       d="m 720.15625,562.36218 c -8.3948,0 -15.15625,6.69 -15.15625,15 l 0,100 c 0,8.31 6.76145,15 15.15625,15 l 299.68755,0 c 8.3947,0 15.1562,-6.69 15.1562,-15 l 0,-100 c 0,-8.31 -6.7615,-15 -15.1562,-15 l -299.68755,0 z M 899.5,582.14338 c 8.96135,0.3185 16.12311,4.7269 21.5,13.2188 5.37677,8.492 8.14331,19.1554 8.28125,32 -0.13794,13.4651 -2.90448,24.3051 -8.28125,32.5312 -5.37689,8.2261 -12.53865,12.4578 -21.5,12.6875 -8.96143,-0.2297 -16.12319,-4.4614 -21.5,-12.6875 -5.37685,-8.226 -8.14339,-19.0661 -8.28125,-32.5312 0.13786,-13.465 2.9044,-24.3051 8.28125,-32.5313 5.37681,-8.226 12.53857,-12.4576 21.5,-12.6875 z m 71.40625,0 c 7.42183,10e-5 13.80233,1.9211 19.15625,5.7813 5.3538,3.8604 8.15343,9.6545 8.40625,17.375 -0.1907,5.1063 -1.52185,9.0997 -4,12 -2.47827,2.9004 -4.95935,4.9716 -7.4375,6.1562 -2.47827,1.1847 -3.80942,1.7284 -4,1.6875 0.21781,-0.014 1.76145,0.7739 4.59375,2.3125 2.83218,1.5387 5.63644,3.9332 8.46875,7.1875 2.83218,3.2544 4.37585,7.4291 4.59375,12.5625 0.1378,5.8824 -2.07544,11.5129 -6.625,16.8438 -4.54969,5.3309 -12.26475,8.1636 -23.15625,8.5312 -10.89157,-0.3676 -18.60664,-3.2003 -23.15625,-8.5312 -4.54964,-5.3309 -6.76288,-10.9614 -6.625,-16.8438 0.21785,-5.1334 1.73025,-9.3081 4.5625,-12.5625 2.83223,-3.2543 5.66774,-5.6488 8.5,-7.1875 2.83222,-1.5386 4.37586,-2.326 4.59375,-2.3125 -0.19066,0.041 -1.52181,-0.5028 -4,-1.6875 -2.47823,-1.1846 -4.95931,-3.2558 -7.4375,-6.1562 -2.47823,-2.9003 -3.80938,-6.8937 -4,-12 0.25274,-7.7205 3.05238,-13.5146 8.40625,-17.375 5.35383,-3.8602 11.73434,-5.7812 19.15625,-5.7813 z m -203.125,1.0938 17.65625,0 28.6875,88.25 -16.5625,0 -5.5,-17.6563 -30.90625,0 -5.5,17.6563 -16.53125,0 28.65625,-88.25 z m 70.1875,0 13.25,0 0,88.25 -15.4375,0 0,-68.375 -11.8125,7.4062 -5.21875,-6.7812 19.21875,-20.5 z m 132.9375,11.5 c -3.40077,-0.043 -6.26474,0.7749 -8.5625,2.4062 -2.29782,1.6315 -3.47062,4.3387 -3.5625,8.1563 0.50548,3.4467 2.52387,6.4743 6.0625,9.0937 3.53857,2.6196 5.55694,4.0185 6.0625,4.1563 0.50547,-0.1378 2.52385,-1.5367 6.0625,-4.1563 3.53855,-2.6194 5.55693,-5.647 6.0625,-9.0937 -0.092,-3.8176 -1.29601,-6.5248 -3.59375,-8.1563 -2.29784,-1.6313 -5.13056,-2.4488 -8.53125,-2.4062 z m -72.1875,1.125 c -3.94834,0.2385 -7.13754,2.7296 -9.5625,7.4687 -2.58669,5.0552 -3.93437,13.0676 -4,24.0313 0.0656,10.9638 1.41331,18.9761 4,24.0312 2.58663,5.0552 6.02386,7.5344 10.34375,7.4688 4.31981,0.066 7.78829,-2.4136 10.375,-7.4688 2.58661,-5.0551 3.90304,-13.0674 3.96875,-24.0312 -0.0657,-10.9637 -1.38214,-18.9761 -3.96875,-24.0313 -2.58671,-5.055 -6.05519,-7.5343 -10.375,-7.4687 -0.26999,0 -0.51803,-0.016 -0.78125,0 z m -122.09375,7.25 -11.03125,37.5 22.03125,0 -11,-37.5 z m 194.28125,28.6562 c -0.17706,0.061 -1.41759,0.9394 -3.71875,2.5938 -2.30123,1.6544 -4.60508,3.7378 -6.90625,6.25 -2.30122,2.5123 -3.54176,5.084 -3.71875,7.7187 0.18379,3.8374 1.74629,6.637 4.6875,8.4063 2.94114,1.7693 6.16357,2.648 9.65625,2.625 3.4926,0.023 6.71503,-0.8557 9.65625,-2.625 2.94113,-1.7693 4.50362,-4.5689 4.6875,-8.4063 -0.17707,-2.982 -1.4176,-5.7269 -3.71875,-8.2187 -2.30125,-2.4918 -4.6051,-4.4885 -6.90625,-6 -2.30124,-1.5114 -3.54177,-2.3029 -3.71875,-2.3438 z"
       id="rect16379" />
    <rect
       style="color:#000000;fill:none;stroke:#000000;stroke-width:1.9978689;stroke-miterlimit:4;stroke-opacity:1;stroke-dasharray:none;marker:none;visibility:visible;display:inline;overflow:visible;enable-background:accumulate"
       id="rect16658"
       width="2498.002"
       height="1498.0021"
       x="0.9989624"
       y="-446.63885"
       ry="44"
       rx="44" />
  </g>
</svg>
