<?xml version="1.0" encoding="UTF-8" standalone="no"?>
<!-- Created with Inkscape (http://www.inkscape.org/) -->

<svg
   xmlns:dc="http://purl.org/dc/elements/1.1/"
   xmlns:cc="http://creativecommons.org/ns#"
   xmlns:rdf="http://www.w3.org/1999/02/22-rdf-syntax-ns#"
   xmlns:svg="http://www.w3.org/2000/svg"
   xmlns="http://www.w3.org/2000/svg"
   xmlns:sodipodi="http://sodipodi.sourceforge.net/DTD/sodipodi-0.dtd"
   xmlns:inkscape="http://www.inkscape.org/namespaces/inkscape"
   width="1700"
   height="790"
   id="svg2"
   version="1.1"
   inkscape:version="0.48.4 r9939"
   sodipodi:docname="6.9.2 A.svg">
  <title
     id="title3006">6.9.2 Предварительный указатель направления</title>
  <defs
     id="defs4" />
  <sodipodi:namedview
     id="base"
     pagecolor="#ffffff"
     bordercolor="#666666"
     borderopacity="1.0"
     inkscape:pageopacity="0.0"
     inkscape:pageshadow="2"
     inkscape:zoom="1"
     inkscape:cx="869.48954"
     inkscape:cy="398.87109"
     inkscape:document-units="px"
     inkscape:current-layer="layer1"
     showgrid="false"
     inkscape:window-width="1920"
     inkscape:window-height="1024"
     inkscape:window-x="-4"
     inkscape:window-y="-4"
     inkscape:window-maximized="1"
     inkscape:snap-bbox="true"
     inkscape:bbox-paths="true"
     inkscape:bbox-nodes="true"
     inkscape:snap-bbox-edge-midpoints="true"
     inkscape:snap-bbox-midpoints="true"
     inkscape:object-paths="true"
     inkscape:snap-intersection-paths="true"
     inkscape:object-nodes="true"
     inkscape:snap-smooth-nodes="true"
     inkscape:snap-midpoints="true"
     inkscape:snap-object-midpoints="true"
     showguides="true"
     inkscape:guide-bbox="true" />
  <metadata
     id="metadata7">
    <rdf:RDF>
      <cc:Work
         rdf:about="">
        <dc:format>image/svg+xml</dc:format>
        <dc:type
           rdf:resource="http://purl.org/dc/dcmitype/StillImage" />
        <dc:title>6.9.2 Предварительный указатель направления</dc:title>
        <cc:license
           rdf:resource="http://creativecommons.org/licenses/by-sa/3.0/" />
        <dc:description>ГОСТ Р 52290-2004</dc:description>
      </cc:Work>
      <cc:License
         rdf:about="http://creativecommons.org/licenses/by-sa/3.0/">
        <cc:permits
           rdf:resource="http://creativecommons.org/ns#Reproduction" />
        <cc:permits
           rdf:resource="http://creativecommons.org/ns#Distribution" />
        <cc:requires
           rdf:resource="http://creativecommons.org/ns#Notice" />
        <cc:requires
           rdf:resource="http://creativecommons.org/ns#Attribution" />
        <cc:permits
           rdf:resource="http://creativecommons.org/ns#DerivativeWorks" />
        <cc:requires
           rdf:resource="http://creativecommons.org/ns#ShareAlike" />
      </cc:License>
    </rdf:RDF>
  </metadata>
  <g
     inkscape:label="Layer 1"
     inkscape:groupmode="layer"
     id="layer1"
     transform="translate(0,-262.36218)">
    <rect
       ry="45"
       rx="45"
       y="262.36218"
       x="0"
       height="790"
       width="1700"
       id="rect13572"
       style="opacity:1;color:#000000;fill:#ffffff;fill-opacity:1;fill-rule:nonzero;stroke:none;stroke-width:3.54299997999999980;marker:none;visibility:visible;display:inline;overflow:visible;enable-background:accumulate" />
    <path
       inkscape:connector-curvature="0"
       style="opacity:1;color:#000000;fill:#0d69e1;fill-opacity:1;fill-rule:nonzero;stroke:none;stroke-width:3.54299997999999980;marker:none;visibility:visible;display:inline;overflow:visible;enable-background:accumulate"
       d="m 45,280.36215 c -14.958,0 -27,12.042 -27,27 l 0,700.00005 c 0,14.958 12.042,27 27,27 l 1610,0 c 14.958,0 27,-12.042 27,-27 l 0,-700.00005 c 0,-14.958 -12.042,-27 -27,-27 l -1610,0 z m 102.5,47 305,0 c 20.775,0 37.5,16.725 37.5,37.5 l 0,175 c 0,20.775 -16.725,37.5 -37.5,37.5 l -305,0 c -20.775,0 -37.5,-16.725 -37.5,-37.5 l 0,-175 c 0,-20.775 16.725,-37.5 37.5,-37.5 z m 0,15 c -12.465,0 -22.5,10.035 -22.5,22.5 l 0,175 c 0,12.465 10.035,22.5 22.5,22.5 l 305,0 c 12.465,0 22.5,-10.035 22.5,-22.5 l 0,-175 c 0,-12.465 -10.035,-22.5 -22.5,-22.5 l -305,0 z m 505.625,26.25 5.625,26.25 c -6.92387,0.10783 -12.0921,1.89576 -15.5,5.34375 -3.40813,3.44824 -6.98989,7.91031 -10.75,13.40625 -3.76082,5.2137 -8.1074,10.76575 -13.0625,16.65625 -4.95528,5.89069 -9.3587,9.08863 -13.1875,9.59375 9.03116,1.14295 15.84363,4.66523 20.4375,10.59375 4.59367,5.92867 9.03119,13.03138 13.3125,21.28125 5.37329,9.81143 10.71972,19.37007 16.03125,28.65625 5.31127,9.28623 11.21483,16.60257 17.71875,21.96875 l -32.6875,0 c -2.74007,-5.15625 -7.02131,-12.65624 -12.875,-22.5 -5.85389,-9.84372 -11.29585,-19.21871 -16.3125,-28.125 -3.18531,-5.95209 -6.66875,-10.55978 -10.4375,-13.8125 -3.7689,-3.25259 -8.41046,-4.89488 -13.9375,-4.9375 -2.11365,0.0335 -4.45499,0.17194 -7.03125,0.40625 -2.57637,0.23445 -3.98503,0.37284 -4.21875,0.40625 l 0,68.5625 -26.25,0 0,-150 26.25,0 0,55.96875 c 0.22421,0.17295 0.44508,0.29719 0.6875,0.375 0.24232,0.078 0.64645,0.15911 1.1875,0.1875 9.05087,-0.16856 16.7754,-4.87739 23.1875,-14.09375 6.41196,-9.21615 13.46288,-18.71962 21.125,-28.53125 7.66193,-9.81136 17.88646,-15.70173 30.6875,-17.65625 z m 98.59375,0 c 20.59142,0.56935 35.92176,8.26131 46,23.09375 10.07799,14.8327 15.09584,33.39072 15.0625,55.65625 0.0333,22.26568 -4.98451,40.8237 -15.0625,55.65625 -10.07824,14.83259 -25.40858,22.52455 -46,23.09375 -20.59158,-0.5692 -35.92192,-8.26115 -46,-23.09375 -10.07815,-14.83256 -15.096,-33.39057 -15.0625,-55.65625 -0.0335,-22.26553 4.98435,-40.82354 15.0625,-55.65625 10.07808,-14.83245 25.40842,-22.5244 46,-23.09375 z m 296.71875,0 c 20.5914,0.56935 35.9218,8.26131 46,23.09375 10.078,14.8327 15.0958,33.39072 15.0625,55.65625 0.033,22.26568 -4.9845,40.8237 -15.0625,55.65625 -10.0782,14.83259 -25.4086,22.52455 -46,23.09375 -20.5916,-0.5692 -35.9532,-8.26115 -46.0313,-23.09375 -10.07795,-14.83256 -15.09595,-33.39057 -15.06245,-55.65625 -0.0335,-22.26553 4.9845,-40.82354 15.06245,-55.65625 10.0781,-14.83245 25.4397,-22.5244 46.0313,-23.09375 z m -876.5625,3.75 26.25,0 33.75,73.125 33.75,-73.125 26.25,0 16.875,150 -28.125,0 -9.375,-110.625 -39.375,88.125 -39.375,-88.125 -9.375,110.625 -28.125,0 16.875,-150 z m 174.15625,0 86.25,0 -7.5,24.375 -54.375,0 0,35.625 c 2.9408,-3.67178 6.64615,-6.17178 11.09375,-7.5 4.44749,-1.32803 8.86712,-1.95303 13.28125,-1.875 10.89835,0.0782 20.99209,4.14072 30.25,12.1875 9.25771,8.04696 14.16395,19.60944 14.75,34.6875 -0.19543,15.39066 -5.41417,28.20314 -15.6875,38.4375 -10.27353,10.23438 -24.42977,15.54688 -42.4375,15.9375 -8.86724,-0.3125 -16.89848,-1.5625 -24.125,-3.75 -7.22659,-2.18749 -11.07033,-3.43749 -11.5,-3.75 l -3.75,-24.375 c 4.69864,3.00784 10.25221,5.03016 16.625,6.0625 6.37273,1.03239 12.69415,1.51007 19,1.4375 7.96869,2e-5 15.46868,-2.34373 22.5,-7.03125 7.03117,-4.68747 10.78117,-11.71871 11.25,-21.09375 -0.0392,-6.91401 -2.28915,-13.25775 -6.78125,-19 -4.49226,-5.74211 -10.99226,-8.77336 -19.46875,-9.125 -5.62505,0.35164 -10.31255,1.97664 -14.0625,4.90625 -3.75004,2.92976 -6.56254,5.05475 -8.4375,6.34375 l -16.875,-9.375 0,-73.125 z m 517.40625,0 93.75,0 0,150 -26.25,0 0,-127.5 -41.25,0 c 0.0115,0.57883 -0.005,5.67489 -0.0625,15.28125 -0.0579,9.60658 -0.23387,20.24777 -0.5,31.9375 -0.26627,11.68989 -0.69915,20.95261 -1.3125,27.78125 -2.31158,17.22225 -7.47426,29.85072 -15.5,37.90625 -8.02584,8.05556 -15.75699,13.21528 -23.1875,15.4375 -7.43058,2.22222 -11.41173,3.18402 -11.9375,2.90625 l -4.28125,-25.1875 c 0.28933,0.0447 2.50775,-0.78867 6.65625,-2.5 4.14846,-1.71128 8.49584,-4.5595 13.03125,-8.5625 4.53535,-4.00294 7.51864,-9.4196 8.96875,-16.25 0.61338,-4.16662 1.04625,-12.08327 1.3125,-23.75 0.26616,-11.66658 0.44208,-24.58324 0.5,-38.75 0.0578,-14.16654 0.074,-27.0832 0.0625,-38.75 z m 285.4687,0 26.25,0 33.75,73.125 33.75,-73.125 26.25,0 16.875,150 -28.125,0 -9.375,-110.625 -39.375,88.125 -39.375,-88.125 -9.375,110.625 -28.125,0 16.875,-150 z m 165.9063,0 26.25,0 0,60 56.25,0 0,-60 26.25,0 0,150 -26.25,0 0,-67.5 -56.25,0 0,67.5 -26.25,0 0,-150 z m 188.5937,0 30,0 48.75,150 -28.125,0 -9.375,-30 -52.5,0 -9.375,30 -28.125,0 48.75,-150 z m -751.68745,20.625 c -10.50787,0.15638 -19.00787,5.00012 -25.53125,14.53125 -6.52349,9.53136 -9.89848,22.81259 -10.09375,39.84375 0.19527,17.0313 3.57027,30.31254 10.09375,39.84375 6.52338,9.53128 15.02336,14.37502 25.53125,14.53125 10.50772,-0.15623 19.03896,-4.99998 25.5625,-14.53125 6.52333,-9.5312 9.86707,-22.81244 10.0625,-39.84375 -0.19543,-17.03116 -3.53917,-30.3124 -10.0625,-39.84375 -6.52354,-9.53112 -15.05478,-14.37487 -25.5625,-14.53125 z m 296.71875,0 c -10.5079,0.15638 -19.0391,5.00012 -25.5625,14.53125 -6.5235,9.53136 -9.8672,22.81259 -10.0625,39.84375 0.1953,17.0313 3.539,30.31254 10.0625,39.84375 6.5234,9.53128 15.0546,14.37502 25.5625,14.53125 10.5077,-0.15623 19.0077,-4.99998 25.5313,-14.53125 6.5231,-9.5312 9.8983,-22.81244 10.0937,-39.84375 -0.1954,-17.03116 -3.5707,-30.3124 -10.0937,-39.84375 -6.5236,-9.53112 -15.0236,-14.37487 -25.5313,-14.53125 z m 469.9687,13.125 -18.75,63.75 37.5,0 -18.75,-63.75 z m -637.9062,172.5 c 15.15616,0.31265 27.03115,4.37515 35.625,12.1875 8.59364,7.81263 12.96863,17.50012 13.125,29.0625 -0.3242,9.27094 -2.59966,16.35427 -6.8125,21.25 -4.21307,4.89592 -8.41214,8.22925 -12.625,10 -4.21306,1.77092 -6.48852,2.60424 -6.8125,2.5 0.39342,-0.0925 3.13416,0.93295 8.25,3.0625 5.11563,2.12971 10.22789,5.91211 15.34375,11.375 5.11562,5.46302 7.88761,13.15514 8.28125,23.0625 -0.11731,10.07816 -5.05481,19.9219 -14.78125,29.53125 -9.72666,9.60938 -23.53915,14.76562 -41.46875,15.46875 -16.28912,-0.85938 -29.6641,-4.29687 -40.09375,-10.3125 -10.42971,-6.01561 -15.8047,-9.45311 -16.15625,-10.3125 l 16.875,-20.625 c -0.0391,0.70316 3.30465,3.51566 10.0625,8.4375 6.75777,4.9219 17.164,7.7344 31.1875,8.4375 7.73429,-0.11717 14.29679,-2.24217 19.6875,-6.34375 5.39053,-4.10153 8.20302,-9.47653 8.4375,-16.15625 -0.19541,-7.57808 -2.63291,-13.51557 -7.28125,-17.8125 -4.64852,-4.29681 -10.33602,-6.48431 -17.09375,-6.5625 l -16.875,0 0,-22.5 16.875,0 c 7.42179,-0.4296 12.73428,-2.86709 15.9375,-7.28125 3.20303,-4.41396 4.76553,-8.22646 4.6875,-11.46875 0.27334,-3.3202 -1.22666,-7.47645 -4.46875,-12.4375 -3.24228,-4.96081 -9.86727,-7.67955 -19.90625,-8.1875 -13.04693,0.6028 -22.57817,3.00012 -28.59375,7.21875 -6.01566,4.21887 -8.98441,6.64744 -8.90625,7.25 l -14.1875,-21.96875 c 0.27899,-0.70299 5.1406,-3.51549 14.59375,-8.4375 9.45308,-4.92172 21.81468,-7.73422 37.09375,-8.4375 z m -330.5,3.75 50.625,0 c 18.51553,0.85952 31.64052,6.64076 39.375,17.34375 7.73426,10.70325 11.48425,21.17198 11.25,31.40625 -0.2345,10.23446 -4.92199,20.7032 -14.0625,31.40625 -9.14073,10.70319 -21.32822,16.48443 -36.5625,17.34375 l -24.375,0 0,52.5 -26.25,0 0,-150 z m 192.53125,0 54.375,0 0,150 -26.25,0 0,-60 -16.875,0 c -8.11858,0.17299 -13.99589,2.42822 -17.59375,6.75 -3.598,4.32189 -6.84461,9.66702 -9.75,16.0625 -3.40101,6.62502 -6.57752,12.86191 -9.5625,18.71875 -2.98508,5.85688 -6.30963,12.01962 -9.96875,18.46875 l -31.875,0 c 1.88607,-1.18031 4.65566,-4.80063 8.34375,-10.875 3.68805,-6.07435 7.42304,-12.72598 11.15625,-19.96875 3.73315,-7.24271 6.60355,-13.22074 8.625,-17.90625 2.21437,-4.8462 5.542,-9.37335 9.96875,-13.5625 4.42665,-4.18902 8.59902,-6.81364 12.53125,-7.875 -9.5313,-1.95864 -17.18755,-6.25773 -22.96875,-12.9375 -5.78128,-6.6796 -8.75003,-15.2287 -8.90625,-25.625 -0.31253,-8.28113 3.12497,-17.03113 10.3125,-26.25 7.18745,-9.2186 19.99994,-14.2186 38.4375,-15 z m 264.53125,0 30,0 48.75,150 -28.125,0 -9.375,-30 -52.5,0 -9.375,30 -28.125,0 48.75,-150 z m 109.6563,0 26.25,0 0,60 56.25,0 0,-60 26.25,0 0,150 -26.25,0 0,-67.5 -56.25,0 0,67.5 -26.25,0 0,-150 z m 145.4687,0 26.25,0 0,58.125 31.875,0 c 18.3593,0.62509 30.8593,5.46883 37.5,14.53125 6.6405,9.06257 9.7655,18.59381 9.375,28.59375 0.2342,10.23441 -3.5158,20.70315 -11.25,31.40625 -7.7345,10.70314 -20.8595,16.48438 -39.375,17.34375 l -54.375,0 0,-150 z M 300,597.5184 l 112.5,194.84378 -72,0 0,153.00002 -81,0 0,-153.00002 -72,0 L 300,597.5184 z m 276.25,7.34375 0,52.5 16.875,0 c 7.81242,0.0782 14.68742,-1.95305 20.625,-6.09375 5.93741,-4.14054 9.06241,-10.85928 9.375,-20.15625 -0.3126,-9.29676 -3.4376,-16.01551 -9.375,-20.15625 -5.93758,-4.1405 -12.81257,-6.17174 -20.625,-6.09375 l -16.875,0 z m 173.78125,0 c -7.81258,-0.0668 -14.68757,1.66976 -20.625,5.21875 -5.93756,3.54923 -9.06255,9.31261 -9.375,17.28125 0.23432,7.96884 3.04681,13.73223 8.4375,17.28125 5.39056,3.5492 11.95305,5.2858 19.6875,5.21875 l 22.5,0 0,-45 -20.625,0 z m 272.03125,11.25 -18.75,63.75 37.5,0 -18.75,-63.75 z m 266.375,46.875 0,46.875 26.25,0 c 8.4765,2e-5 14.9765,-1.87498 19.4687,-5.625 4.4921,-3.74997 6.7421,-9.37496 6.7813,-16.875 -0.039,-7.57808 -2.2892,-13.51557 -6.7813,-17.8125 -4.4922,-4.2968 -10.9922,-6.48431 -19.4687,-6.5625 l -26.25,0 z M 611.125,788.61218 c 14.14724,0.1954 25.58536,4.0079 34.34375,11.4687 8.75816,7.4611 15.44502,17.3986 20.03125,29.7813 l -25.1875,9.375 c -2.80841,-9.2968 -6.6466,-16.0155 -11.5,-20.1563 -4.85359,-4.1405 -10.73861,-6.1717 -17.6875,-6.0937 -10.50787,0.1564 -19.03912,5.0001 -25.5625,14.5312 -6.52349,9.5314 -9.86723,22.8126 -10.0625,39.8438 0.19527,17.0313 3.53902,30.31252 10.0625,39.84372 6.52338,9.5313 15.05461,14.375 25.5625,14.5313 6.94889,0.078 12.83391,-1.9531 17.6875,-6.0938 4.8534,-4.1406 8.69158,-10.8593 11.5,-20.15622 L 665.5,904.8622 c -4.58622,12.3828 -11.27309,22.2891 -20.03125,29.75 -8.75839,7.4609 -20.1965,11.3047 -34.34375,11.5 -20.59158,-0.563 -35.92192,-8.2486 -46,-23.0625 -10.07815,-14.8139 -15.096,-33.37822 -15.0625,-55.68752 -0.0335,-22.3092 4.98435,-40.8735 15.0625,-55.6875 10.07808,-14.8138 25.40842,-22.4994 46,-23.0625 z m 126.90625,3.75 30,0 48.75,150.00002 -28.125,0 -9.375,-30 -52.5,0 -9.375,30 -28.125,0 48.75,-150.00002 z m 119.03125,0 26.25,0 33.75,73.125 33.75,-73.125 26.25,0 16.875,150.00002 -28.125,0 -9.375,-110.62502 -39.375,88.12502 -39.375,-88.12502 -9.375,110.62502 -28.125,0 16.875,-150.00002 z m 209.0625,0 30,0 48.75,150.00002 -28.125,0 -9.375,-30 -52.5,0 -9.375,30 -28.125,0 48.75,-150.00002 z m 109.6562,0 50.625,0 c 18.5156,0.8595 31.6406,6.6407 39.375,17.3437 7.7344,10.7033 11.4844,21.172 11.25,31.4063 -0.2345,10.2344 -4.922,20.7032 -14.0624,31.4062 -9.1408,10.7032 -21.3282,16.4845 -36.5626,17.3438 l -24.375,0 0,52.50002 -26.25,0 0,-150.00002 z m 181.2813,0 30,0 48.75,150.00002 -28.125,0 -9.375,-30 -52.5,0 -9.375,30 -28.125,0 48.75,-150.00002 z m -155.0313,22.5 0,52.5 16.875,0 c 7.8126,0.078 14.6876,-1.9531 20.625,-6.0938 5.9376,-4.1405 9.0626,-10.8593 9.375,-20.1562 -0.3124,-9.2968 -3.4374,-16.0155 -9.375,-20.1563 -5.9374,-4.1405 -12.8124,-6.1717 -20.625,-6.0937 l -16.875,0 z m -448.99995,11.25 -18.75,63.75 37.5,0 -18.75,-63.75 z m 328.09375,0 -18.75,63.75 37.5,0 -18.75,-63.75 z m 290.9375,0 -18.75,63.75 37.5,0 -18.75,-63.75 z"
       id="rect13576" />
    <rect
       style="opacity:1;color:#000000;fill:none;stroke:#000000;stroke-width:2;stroke-miterlimit:4;stroke-opacity:1;stroke-dasharray:none;marker:none;visibility:visible;display:inline;overflow:visible;enable-background:accumulate"
       id="rect13658"
       width="1698"
       height="788"
       x="1"
       y="263.36215"
       rx="44"
       ry="44" />
  </g>
</svg>
