<?xml version="1.0" encoding="UTF-8" standalone="no"?>
<!-- Created with Inkscape (http://www.inkscape.org/) -->

<svg
   xmlns:dc="http://purl.org/dc/elements/1.1/"
   xmlns:cc="http://creativecommons.org/ns#"
   xmlns:rdf="http://www.w3.org/1999/02/22-rdf-syntax-ns#"
   xmlns:svg="http://www.w3.org/2000/svg"
   xmlns="http://www.w3.org/2000/svg"
   xmlns:sodipodi="http://sodipodi.sourceforge.net/DTD/sodipodi-0.dtd"
   xmlns:inkscape="http://www.inkscape.org/namespaces/inkscape"
   width="2015"
   height="370"
   id="svg2"
   version="1.1"
   inkscape:version="0.48.4 r9939"
   sodipodi:docname="6.10.1 E.svg">
  <title
     id="title3006">6.10.1 Указатель направления</title>
  <defs
     id="defs4" />
  <sodipodi:namedview
     id="base"
     pagecolor="#ffffff"
     bordercolor="#666666"
     borderopacity="1.0"
     inkscape:pageopacity="0.0"
     inkscape:pageshadow="2"
     inkscape:zoom="1"
     inkscape:cx="864.32268"
     inkscape:cy="214.45659"
     inkscape:document-units="px"
     inkscape:current-layer="layer1"
     showgrid="false"
     inkscape:window-width="1920"
     inkscape:window-height="1024"
     inkscape:window-x="-4"
     inkscape:window-y="-4"
     inkscape:window-maximized="1"
     inkscape:snap-bbox="true"
     inkscape:bbox-paths="true"
     inkscape:bbox-nodes="true"
     inkscape:snap-bbox-edge-midpoints="true"
     inkscape:snap-bbox-midpoints="true"
     inkscape:object-paths="true"
     inkscape:snap-intersection-paths="true"
     inkscape:object-nodes="true"
     inkscape:snap-smooth-nodes="true"
     inkscape:snap-midpoints="true"
     inkscape:snap-object-midpoints="true"
     showguides="true"
     inkscape:guide-bbox="true" />
  <metadata
     id="metadata7">
    <rdf:RDF>
      <cc:Work
         rdf:about="">
        <dc:format>image/svg+xml</dc:format>
        <dc:type
           rdf:resource="http://purl.org/dc/dcmitype/StillImage" />
        <dc:title>6.10.1 Указатель направления</dc:title>
        <cc:license
           rdf:resource="http://creativecommons.org/licenses/by-sa/3.0/" />
        <dc:description>ГОСТ Р 52290-2004</dc:description>
      </cc:Work>
      <cc:License
         rdf:about="http://creativecommons.org/licenses/by-sa/3.0/">
        <cc:permits
           rdf:resource="http://creativecommons.org/ns#Reproduction" />
        <cc:permits
           rdf:resource="http://creativecommons.org/ns#Distribution" />
        <cc:requires
           rdf:resource="http://creativecommons.org/ns#Notice" />
        <cc:requires
           rdf:resource="http://creativecommons.org/ns#Attribution" />
        <cc:permits
           rdf:resource="http://creativecommons.org/ns#DerivativeWorks" />
        <cc:requires
           rdf:resource="http://creativecommons.org/ns#ShareAlike" />
      </cc:License>
    </rdf:RDF>
  </metadata>
  <g
     inkscape:label="Layer 1"
     inkscape:groupmode="layer"
     id="layer1"
     transform="translate(0,-682.36218)">
    <rect
       transform="matrix(0,-1,1,0,0,0)"
       y="0"
       x="-1052.3622"
       height="2015"
       width="370"
       id="rect14064"
       style="opacity:1;color:#000000;fill:#ffffff;fill-opacity:1;fill-rule:nonzero;stroke:none;stroke-width:3.54299997999999980;marker:none;visibility:visible;display:inline;overflow:visible;enable-background:accumulate"
       rx="45"
       ry="45" />
    <path
       inkscape:connector-curvature="0"
       style="opacity:1;color:#000000;fill:#00a500;fill-opacity:1;fill-rule:nonzero;stroke:none;stroke-width:3.54299997999999980;marker:none;visibility:visible;display:inline;overflow:visible;enable-background:accumulate"
       d="m 45,700.3622 c -14.958,0 -27,12.042 -27,27 l 0,280 c 0,14.958 12.042,27 27,27 l 1925,0 c 14.958,0 27,-12.042 27,-27 l 0,-280 c 0,-14.958 -12.042,-27 -27,-27 l -1925,0 z m 237.8438,54.5 0,72 144.1562,0 0,81 -144.1562,0 0,72 L 88,867.3622 l 194.8438,-112.5 z m 282.75,4 7.1875,0 -2.375,54.5312 -16.7813,0 11.9688,-54.5312 z m 12,0 7.1562,0 11.9688,54.5312 -16.7813,0 -2.3437,-54.5312 z m 375.375,39.75 c 20.5914,0.5693 35.9217,8.2613 46,23.0937 10.0779,14.8327 15.0959,33.3908 15.0624,55.6563 0.034,22.2657 -4.9845,40.8237 -15.0624,55.6562 -10.0783,14.8326 -25.4086,22.5246 -46,23.0938 -20.5916,-0.5692 -35.922,-8.2612 -46,-23.0938 -10.0782,-14.8325 -15.096,-33.3905 -15.0625,-55.6562 -0.034,-22.2655 4.9843,-40.8235 15.0625,-55.6563 10.078,-14.8324 25.4084,-22.5244 46,-23.0937 z m 146.2812,0 c 14.1472,0.1955 25.5853,4.008 34.3438,11.4687 8.758,7.4611 15.445,17.3986 20.0312,29.7813 l -25.1875,9.375 c -2.8084,-9.2968 -6.6466,-16.0155 -11.5,-20.1563 -4.8536,-4.1405 -10.7386,-6.1717 -17.6875,-6.0937 -10.5079,0.1564 -19.0391,5.0001 -25.5625,14.5312 -6.5235,9.5314 -9.8672,22.8126 -10.0625,39.8438 0.1953,17.0313 3.539,30.3125 10.0625,39.8437 6.5234,9.5313 15.0546,14.3751 25.5625,14.5313 6.9489,0.078 12.8339,-1.9531 17.6875,-6.0938 4.8534,-4.1405 8.6916,-10.8593 11.5,-20.1562 l 25.1875,9.375 c -4.5862,12.3828 -11.2732,22.2891 -20.0312,29.75 -8.7585,7.4609 -20.1966,11.3047 -34.3438,11.5 -20.5916,-0.563 -35.9219,-8.2486 -46,-23.0625 -10.0781,-14.8139 -15.1271,-33.3782 -15.0938,-55.6875 -0.034,-22.3091 5.0157,-40.8735 15.0938,-55.6875 10.0781,-14.8138 25.4084,-22.4994 46,-23.0625 z m 185.8125,0 5.625,26.25 c -6.9239,0.1078 -12.0921,1.8958 -15.5,5.3437 -3.4081,3.4483 -6.9899,7.9104 -10.75,13.4063 -3.7608,5.2137 -8.1074,10.7657 -13.0625,16.6562 -4.9553,5.8907 -9.3587,9.0887 -13.1875,9.5938 9.0312,1.1429 15.8436,4.6652 20.4375,10.5937 4.5937,5.9287 9.0312,13.0314 13.3125,21.2813 5.3733,9.8114 10.7197,19.3701 16.0313,28.6562 5.3111,9.2863 11.2148,16.6026 17.7187,21.9688 l -32.6875,0 c -2.7401,-5.1563 -7.0213,-12.6562 -12.875,-22.5 -5.8539,-9.8437 -11.2958,-19.2187 -16.3125,-28.125 -3.1853,-5.9521 -6.6687,-10.5598 -10.4375,-13.8125 -3.7689,-3.2526 -8.4105,-4.8949 -13.9375,-4.9375 -2.1136,0.034 -4.4549,0.1719 -7.0313,0.4062 -2.5762,0.2345 -3.985,0.3729 -4.2187,0.4063 l 0,68.5625 -26.25,0 0,-150 26.25,0 0,55.9687 c 0.2242,0.173 0.4451,0.2972 0.6875,0.375 0.2423,0.078 0.6465,0.1592 1.1875,0.1875 9.0509,-0.1685 16.7754,-4.8773 23.1875,-14.0937 6.412,-9.2162 13.4629,-18.7196 21.125,-28.5313 7.6619,-9.8113 17.8865,-15.7017 30.6875,-17.6562 z m 504.625,1.875 c 10.8202,0.2345 20.5702,3.9845 29.2813,11.25 8.7108,7.2658 13.3358,16.6407 13.8437,28.125 0.056,8.9845 -0.9488,15.913 -2.9687,20.8125 -2.0202,4.8996 -5.3908,10.1228 -10.1563,15.625 -5.9822,7.4443 -13.1697,15.3951 -21.5625,23.8437 -8.3929,8.4488 -17.4554,17.7211 -27.1875,27.8438 l 61.875,0 c -10e-5,2.8906 -0.4689,6.4844 -1.4063,10.7812 -0.9376,4.2969 -2.3438,8.8282 -4.2187,13.5938 l -90,0 0,-22.5 c 10.2455,-9.3136 19.8125,-18.6261 28.7187,-27.9063 8.9062,-9.28 17.5357,-18.8916 25.9063,-28.875 4.6428,-5.1338 8.4106,-10.1338 11.3125,-15 2.9017,-4.8659 4.4106,-10.9418 4.5,-18.2187 -0.084,-4.9162 -2.0704,-9.3358 -5.9375,-13.2813 -3.8673,-3.9451 -9.1039,-6.0523 -15.75,-6.2812 -5.586,0.2289 -10.836,2.3361 -15.7187,6.2812 -4.8829,3.9455 -9.6329,8.3651 -14.2813,13.2813 l -15,-16.875 c 5.5469,-6.5624 12.2656,-11.9106 20.1563,-16.0625 7.8905,-4.1516 17.4218,-6.3034 28.5937,-6.4375 z m -1057.8125,1.875 26.25,0 33.75,73.125 33.75,-73.125 26.25,0 16.875,150 -28.125,0 -9.375,-110.625 -39.375,88.125 -39.375,-88.125 -9.375,110.625 -28.125,0 16.875,-150 z m 598.2188,0 58.125,0 c 14.1348,0.4801 24.9607,4.8729 32.5,13.1875 7.5389,8.3149 11.3335,17.672 11.4062,28.0625 -0.073,5.8204 -1.9923,11.5079 -5.7812,17.0937 -3.7893,5.5861 -8.9902,9.8986 -15.625,12.9063 7.656,2.8126 13.906,7.0313 18.75,12.6562 4.8435,5.6251 7.3435,12.6563 7.5,21.0938 -0.2793,12.5391 -4.8952,23.0703 -13.8126,31.625 -8.9174,8.5547 -20.48,13.0234 -34.6874,13.375 l -58.375,0 0,-150 z m 182.0624,0 30,0 48.75,150 -28.125,0 -9.375,-30 -52.5,0 -9.375,30 -28.125,0 48.75,-150 z m 170.5313,0 22.5,0 0,150 -26.25,0 0,-116.25 -20.0937,12.5937 -8.8438,-11.5312 32.6875,-34.8125 z M 502,820.6747 l 146.3438,0 0,9.6562 -20.5,0 0,16.9063 -9.5625,0 -4.8125,-16.9063 -76.5938,0 -4.75,16.9063 -9.625,0 0,-16.9063 -20.5,0 0,-9.6562 z m 450.9688,2.3125 c -10.5079,0.1564 -19.0392,5.0001 -25.5625,14.5312 -6.5235,9.5314 -9.8673,22.8126 -10.0625,39.8438 0.1952,17.0313 3.539,30.3125 10.0625,39.8437 6.5233,9.5313 15.0546,14.3751 25.5625,14.5313 10.5077,-0.1562 19.0077,-5 25.5312,-14.5313 6.5233,-9.5312 9.8983,-22.8124 10.0938,-39.8437 -0.1955,-17.0312 -3.5705,-30.3124 -10.0938,-39.8438 -6.5235,-9.5311 -15.0235,-14.3748 -25.5312,-14.5312 z m 403.375,1.875 0,38.5625 30,0 c 5.7029,-0.1004 10.2342,-1.8905 13.5937,-5.4063 3.3593,-3.5155 5.0779,-8.1494 5.1563,-13.875 -0.1956,-6.5456 -2.1643,-11.3983 -5.875,-14.5625 -3.7111,-3.1639 -7.9924,-4.7353 -12.875,-4.7187 l -30,0 z m 170.8124,11.25 -18.75,63.75 37.5,0 -18.75,-63.75 z m -980.6874,1.4375 23.9375,0 -4.8125,146.3125 -57.4375,0 38.3125,-146.3125 z m 33.4687,0 23.9688,0 38.2812,146.3125 -57.4375,0 -4.8125,-146.3125 z m 776.4063,47.3125 0,45 31.875,0 c 7.4998,-0.2678 13.1248,-2.6652 16.875,-7.2188 3.7497,-4.5535 5.6247,-9.6562 5.625,-15.2812 -3e-4,-5.625 -1.8753,-10.7276 -5.625,-15.2813 -3.7502,-4.5535 -9.3752,-6.9508 -16.875,-7.2187 l -31.875,0 z"
       id="rect15930" />
    <rect
       style="color:#000000;fill:none;stroke:#000000;stroke-width:2;stroke-miterlimit:4;stroke-opacity:1;stroke-dasharray:none;marker:none;visibility:visible;display:inline;overflow:visible;enable-background:accumulate;opacity:1"
       id="rect11795-9-7-3"
       width="368"
       height="2013"
       x="-1051.3622"
       y="1"
       transform="matrix(0,-1,1,0,0,0)"
       rx="44"
       ry="44" />
  </g>
</svg>
