<?xml version="1.0" encoding="UTF-8" standalone="no"?>
<!-- Created with Inkscape (http://www.inkscape.org/) -->

<svg
   xmlns:dc="http://purl.org/dc/elements/1.1/"
   xmlns:cc="http://creativecommons.org/ns#"
   xmlns:rdf="http://www.w3.org/1999/02/22-rdf-syntax-ns#"
   xmlns:svg="http://www.w3.org/2000/svg"
   xmlns="http://www.w3.org/2000/svg"
   xmlns:sodipodi="http://sodipodi.sourceforge.net/DTD/sodipodi-0.dtd"
   xmlns:inkscape="http://www.inkscape.org/namespaces/inkscape"
   width="1500"
   height="2000"
   id="svg2"
   version="1.1"
   inkscape:version="0.48.4 r9939"
   sodipodi:docname="6.19.2.svg">
  <title
     id="title3002">6.19.2 Предварительный указатель перестроения на другую проезжую часть</title>
  <defs
     id="defs4" />
  <sodipodi:namedview
     id="base"
     pagecolor="#ffffff"
     bordercolor="#666666"
     borderopacity="1.0"
     inkscape:pageopacity="0.0"
     inkscape:pageshadow="2"
     inkscape:zoom="1"
     inkscape:cx="850.53388"
     inkscape:cy="1649.1385"
     inkscape:document-units="px"
     inkscape:current-layer="layer1"
     showgrid="false"
     inkscape:window-width="1920"
     inkscape:window-height="1024"
     inkscape:window-x="-4"
     inkscape:window-y="-4"
     inkscape:window-maximized="1"
     inkscape:snap-bbox="false"
     inkscape:bbox-paths="true"
     inkscape:bbox-nodes="true"
     inkscape:snap-bbox-edge-midpoints="true"
     inkscape:snap-bbox-midpoints="true"
     showguides="true"
     inkscape:guide-bbox="true" />
  <metadata
     id="metadata7">
    <rdf:RDF>
      <cc:Work
         rdf:about="">
        <dc:format>image/svg+xml</dc:format>
        <dc:type
           rdf:resource="http://purl.org/dc/dcmitype/StillImage" />
        <dc:title>6.19.2 Предварительный указатель перестроения на другую проезжую часть</dc:title>
        <cc:license
           rdf:resource="http://creativecommons.org/licenses/by-sa/3.0/" />
        <dc:description>ГОСТ Р 52290-2004
Размеры и пропорции по типоразмеру IV</dc:description>
      </cc:Work>
      <cc:License
         rdf:about="http://creativecommons.org/licenses/by-sa/3.0/">
        <cc:permits
           rdf:resource="http://creativecommons.org/ns#Reproduction" />
        <cc:permits
           rdf:resource="http://creativecommons.org/ns#Distribution" />
        <cc:requires
           rdf:resource="http://creativecommons.org/ns#Notice" />
        <cc:requires
           rdf:resource="http://creativecommons.org/ns#Attribution" />
        <cc:permits
           rdf:resource="http://creativecommons.org/ns#DerivativeWorks" />
        <cc:requires
           rdf:resource="http://creativecommons.org/ns#ShareAlike" />
      </cc:License>
    </rdf:RDF>
  </metadata>
  <g
     inkscape:label="Layer 1"
     inkscape:groupmode="layer"
     id="layer1"
     transform="translate(0,947.6378)">
    <rect
       style="color:#000000;fill:#ffffff;fill-opacity:1;fill-rule:nonzero;stroke:none;stroke-width:3.54299997999999980;marker:none;visibility:visible;display:inline;overflow:visible;enable-background:accumulate;opacity:1"
       id="rect10858"
       width="1500"
       height="2000"
       x="0"
       y="-947.63782"
       rx="45"
       ry="45" />
    <rect
       ry="25"
       rx="25"
       y="-927.63782"
       x="20"
       height="1960"
       width="1460"
       id="rect14407"
       style="opacity:1;color:#000000;fill:#ffcc00;fill-opacity:1;fill-rule:nonzero;stroke:none;stroke-width:3.54299997999999980;marker:none;visibility:visible;display:inline;overflow:visible;enable-background:accumulate" />
    <rect
       ry="44"
       rx="44"
       y="-946.63782"
       x="1"
       height="1998"
       width="1498"
       id="rect13604"
       style="opacity:1;color:#000000;fill:none;fill-opacity:1;fill-rule:nonzero;stroke:#000000;stroke-width:2;marker:none;visibility:visible;display:inline;overflow:visible;enable-background:accumulate;stroke-opacity:1;stroke-miterlimit:4;stroke-dasharray:none" />
    <path
       style="opacity:1;color:#000000;fill:#000000;fill-opacity:1;fill-rule:nonzero;stroke:none;stroke-width:3.54299997999999980;marker:none;visibility:visible;display:inline;overflow:visible;enable-background:accumulate"
       d="M 45 10 C 25.61 10 10 25.61 10 45 L 10 1955 C 10 1974.39 25.61 1990 45 1990 L 1455 1990 C 1474.39 1990 1490 1974.39 1490 1955 L 1490 45 C 1490 25.61 1474.39 10 1455 10 L 45 10 z M 45 20 L 791.65625 20 L 791.65625 575 C 791.65625 602.7 813.95625 625 841.65625 625 L 950 625 C 977.7 625 1000 602.7 1000 575 L 1000 20 L 1455 20 C 1468.85 20 1480 31.15 1480 45 L 1480 1955 C 1480 1968.85 1468.85 1980 1455 1980 L 1000 1980 L 1000 1425 C 1000 1397.3 977.7 1375 950 1375 L 841.65625 1375 C 813.95625 1375 791.65625 1397.3 791.65625 1425 L 791.65625 1980 L 604.15625 1980 L 604.15625 1375 C 604.15625 1347.3733 615.1525 1320.91 634.6875 1301.375 L 926.375 1009.6875 L 1000.0312 1083.3438 L 1086.4688 761.21875 L 764.3125 847.625 L 838 921.28125 L 546.28125 1212.9688 C 503.30417 1255.9458 479.15625 1314.2212 479.15625 1375 L 479.15625 1980 L 45 1980 C 31.15 1980 20 1968.85 20 1955 L 20 45 C 20 31.15 31.15 20 45 20 z "
       transform="translate(0,-947.6378)"
       id="rect13449" />
    <path
       inkscape:connector-curvature="0"
       style="opacity:1;color:#000000;fill:#ff0000;fill-opacity:1;fill-rule:nonzero;stroke:none;stroke-width:1px;marker:none;visibility:visible;display:inline;overflow:visible;enable-background:accumulate"
       d="m 416.6668,-691.38772 c -134.61957,0 -243.75009,109.1306 -243.75009,243.75 0,134.6194 109.13052,243.75 243.75009,243.75 134.61943,0 243.74984,-109.1306 243.74984,-243.75 0,-134.6194 -109.13041,-243.75 -243.74984,-243.75 z m -171.44122,193.2045 342.88231,0 c 4.66709,0 8.43334,3.7662 8.43334,8.4334 l 0,84.2243 c 0,4.6672 -3.76625,8.4333 -8.43334,8.4333 l -342.88231,0 c -4.66718,0 -8.43331,-3.7661 -8.43331,-8.4333 l 0,-84.2243 c 0,-4.6672 3.76613,-8.4334 8.43331,-8.4334 z"
       id="path22613-8" />
    <rect
       style="opacity:1;color:#000000;fill:#ffffff;fill-opacity:1;fill-rule:nonzero;stroke:none;stroke-width:3.54299997999999980;marker:none;visibility:visible;display:inline;overflow:visible;enable-background:accumulate"
       id="rect15408"
       width="359.74884"
       height="101.09097"
       x="236.79224"
       y="-498.18307"
       ry="8.4245377" />
  </g>
</svg>
