<?xml version="1.0" encoding="UTF-8" standalone="no"?>
<!-- Created with Inkscape (http://www.inkscape.org/) -->

<svg
   xmlns:dc="http://purl.org/dc/elements/1.1/"
   xmlns:cc="http://creativecommons.org/ns#"
   xmlns:rdf="http://www.w3.org/1999/02/22-rdf-syntax-ns#"
   xmlns:svg="http://www.w3.org/2000/svg"
   xmlns="http://www.w3.org/2000/svg"
   xmlns:sodipodi="http://sodipodi.sourceforge.net/DTD/sodipodi-0.dtd"
   xmlns:inkscape="http://www.inkscape.org/namespaces/inkscape"
   width="1750"
   height="1000"
   id="svg2"
   version="1.1"
   inkscape:version="0.48.4 r9939"
   sodipodi:docname="6.9.1 D.svg">
  <title
     id="title3006">6.9.1 Предварительный указатель направлений</title>
  <defs
     id="defs4" />
  <sodipodi:namedview
     id="base"
     pagecolor="#ffffff"
     bordercolor="#666666"
     borderopacity="1.0"
     inkscape:pageopacity="0.0"
     inkscape:pageshadow="2"
     inkscape:zoom="1"
     inkscape:cx="886.12344"
     inkscape:cy="398.92461"
     inkscape:document-units="px"
     inkscape:current-layer="layer1"
     showgrid="false"
     inkscape:window-width="1920"
     inkscape:window-height="1024"
     inkscape:window-x="-4"
     inkscape:window-y="-4"
     inkscape:window-maximized="1"
     inkscape:snap-bbox="true"
     inkscape:bbox-paths="true"
     inkscape:bbox-nodes="true"
     inkscape:snap-bbox-edge-midpoints="true"
     inkscape:snap-bbox-midpoints="true"
     inkscape:object-paths="true"
     inkscape:snap-intersection-paths="true"
     inkscape:object-nodes="true"
     inkscape:snap-smooth-nodes="true"
     inkscape:snap-midpoints="true"
     inkscape:snap-object-midpoints="true"
     showguides="true"
     inkscape:guide-bbox="true" />
  <metadata
     id="metadata7">
    <rdf:RDF>
      <cc:Work
         rdf:about="">
        <dc:format>image/svg+xml</dc:format>
        <dc:type
           rdf:resource="http://purl.org/dc/dcmitype/StillImage" />
        <dc:title>6.9.1 Предварительный указатель направлений</dc:title>
        <cc:license
           rdf:resource="http://creativecommons.org/licenses/by-sa/3.0/" />
        <dc:description>ГОСТ Р 52290-2004</dc:description>
      </cc:Work>
      <cc:License
         rdf:about="http://creativecommons.org/licenses/by-sa/3.0/">
        <cc:permits
           rdf:resource="http://creativecommons.org/ns#Reproduction" />
        <cc:permits
           rdf:resource="http://creativecommons.org/ns#Distribution" />
        <cc:requires
           rdf:resource="http://creativecommons.org/ns#Notice" />
        <cc:requires
           rdf:resource="http://creativecommons.org/ns#Attribution" />
        <cc:permits
           rdf:resource="http://creativecommons.org/ns#DerivativeWorks" />
        <cc:requires
           rdf:resource="http://creativecommons.org/ns#ShareAlike" />
      </cc:License>
    </rdf:RDF>
  </metadata>
  <g
     inkscape:label="Layer 1"
     inkscape:groupmode="layer"
     id="layer1"
     transform="translate(0,-52.36218)">
    <rect
       rx="45"
       ry="45"
       y="52.362179"
       x="0"
       height="1000"
       width="1750"
       id="rect12587"
       style="opacity:1;color:#000000;fill:#ffffff;fill-opacity:1;fill-rule:nonzero;stroke:none;stroke-width:3.54299997999999980;marker:none;visibility:visible;display:inline;overflow:visible;enable-background:accumulate" />
    <path
       inkscape:connector-curvature="0"
       style="opacity:1;color:#000000;fill:#000000;fill-opacity:1;fill-rule:nonzero;stroke:none;stroke-width:3.54299997999999980;marker:none;visibility:visible;display:inline;overflow:visible;enable-background:accumulate"
       d="m 114.99998,462.36217 c -16.620001,0 -30.000001,13.38 -30.000001,30 l 0,180 c 0,16.62 13.38,30 30.000001,30 l 915.00002,0 c 16.62,0 30,-13.38 30,-30 l 0,-180 c 0,-16.62 -13.38,-30 -30,-30 l -915.00002,0 z m 0,5 915.00002,0 c 13.85,0 25,11.15 25,25 l 0,180 c 0,13.85 -11.15,25 -25,25 l -915.00002,0 c -13.85,0 -25.000001,-11.15 -25.000001,-25 l 0,-180 c 0,-13.85 11.150001,-25 25.000001,-25 z"
       id="rect12493" />
    <path
       inkscape:connector-curvature="0"
       style="opacity:1;color:#000000;fill:#0d69e1;fill-opacity:1;fill-rule:nonzero;stroke:none;stroke-width:3.54299997999999980;marker:none;visibility:visible;display:inline;overflow:visible;enable-background:accumulate"
       d="m 114.99998,477.36217 c -8.31,0 -15.000001,6.69 -15.000001,15 l 0,180 c 0,8.31 6.690001,15 15.000001,15 l 915.00002,0 c 8.31,0 15,-6.69 15,-15 l 0,-180 c 0,-8.31 -6.69,-15 -15,-15 l -915.00002,0 z m 147.625,23.71875 24.8125,0.78125 -40.9375,68.8125 21.5,0.0937 12.3438,-14.84375 22.1875,-2.03125 -15.5938,28.4688 15.5938,28.46875 -22.1875,-2.03125 -12.3438,-14.84375 -21.5,0.0937 40.9375,68.8125 -24.8125,0.78125 -57.7187,-69.40625 -51.2188,0.21875 -0.125,0 c -0.01,-10e-5 -0.021,0 -0.031,0 -6.6102,-0.0516 -12.029,-5.54298 -12,-12.15625 0.031,-6.62256 5.5341,-12.0907 12.1563,-12.0625 l 51.2187,0.25 57.7188,-69.40625 z m 435.06251,28.78125 3.75,17.5 c -4.6159,0.0719 -8.07183,1.26385 -10.34375,3.5625 -2.27208,2.29882 -4.64952,5.27355 -7.15625,8.9375 -2.50721,3.47579 -5.41536,7.16676 -8.71875,11.09375 -3.30351,3.92711 -6.22872,6.0695 -8.78125,6.40625 6.02075,0.76196 10.56243,3.11017 13.625,7.0625 3.06243,3.95243 6.0208,8.68761 8.875,14.1875 3.58218,6.54093 7.1465,12.90298 10.6875,19.09375 3.54083,6.1908 7.47657,11.07881 11.8125,14.65625 l -21.78125,0 c -1.8267,-3.43748 -4.69131,-8.43752 -8.59375,-15 -3.90258,-6.56245 -7.53058,-12.81249 -10.875,-18.75 -2.12354,-3.96804 -4.45626,-7.05028 -6.96875,-9.21875 -2.51259,-2.16838 -5.59657,-3.25284 -9.28125,-3.28125 -1.40909,0.0224 -2.97,0.12504 -4.6875,0.28125 -1.71757,0.1563 -2.65669,0.22773 -2.8125,0.25 l 0,45.71875 -17.5,0 0,-100 17.5,0 0,37.3125 c 0.14947,0.1153 0.30714,0.19813 0.46875,0.25 0.16155,0.052 0.42055,0.10607 0.78125,0.125 6.03389,-0.11237 11.19403,-3.26203 15.46875,-9.40625 4.27462,-6.14408 8.95444,-12.45893 14.0625,-19 5.10794,-6.54088 11.93475,-10.47824 20.46875,-11.78125 z m 67.71875,0 c 13.72756,0.37956 23.9687,5.51799 30.6875,15.40625 6.71864,9.88843 10.05348,22.25012 10.03125,37.09375 0.0222,14.84373 -3.31262,27.20542 -10.03125,37.09375 -6.7188,9.88836 -16.95994,15.02678 -30.6875,15.40625 -13.72767,-0.37946 -23.93755,-5.51789 -30.65625,-15.40625 -6.71874,-9.88834 -10.08483,-22.25002 -10.0625,-37.09375 -0.0223,-14.84363 3.34376,-27.20531 10.0625,-37.09375 6.7187,-9.88826 16.92858,-15.02669 30.65625,-15.40625 z m 193.09375,0 c 13.72756,0.37956 23.93745,5.51799 30.65625,15.40625 6.71864,9.88843 10.08473,22.25012 10.0625,37.09375 0.0222,14.84373 -3.34387,27.20542 -10.0625,37.09375 -6.7188,9.88836 -16.92869,15.02678 -30.65625,15.40625 -13.72767,-0.37946 -23.9688,-5.51789 -30.6875,-15.40625 -6.71874,-9.88834 -10.05358,-22.25002 -10.03125,-37.09375 -0.0223,-14.84363 3.31251,-27.20531 10.03125,-37.09375 6.7187,-9.88826 16.95983,-15.02669 30.6875,-15.40625 z m -615.5,2.5 38.75,0 c 9.42326,0.32004 16.6614,3.23821 21.6875,8.78125 5.02594,5.54322 7.5453,11.79177 7.59375,18.71875 -0.0485,3.88026 -1.3178,7.68237 -3.84375,11.40625 -2.52611,3.724 -6.01423,6.5886 -10.4375,8.59375 5.10407,1.87504 9.27076,4.68756 12.5,8.4375 3.22907,3.75003 4.89575,8.43755 5,14.0625 -0.1861,8.35937 -3.24267,15.39066 -9.1875,21.09375 -5.94499,5.70311 -13.65337,8.67188 -23.125,8.90625 l -38.9375,0 0,-100 z m 94.09375,0 17.5,0 0,40 37.5,0 0,-40 17.5,0 0,100 -17.5,0 0,-45 -37.5,0 0,45 -17.5,0 0,-100 z m 92.75,0 18.75,0 23.75,52.5 20,-52.5 18.75,0 -32.5,83.75 c -2.03775,4.80237 -5.36624,8.73038 -9.96875,11.8125 -4.60261,3.08213 -9.19084,4.67649 -13.78125,4.78125 -2.47398,-0.004 -4.40108,-0.0588 -5.78125,-0.21875 -1.38023,-0.15997 -2.36982,-0.38467 -2.96875,-0.65625 l -3.75,-15.71875 c 0.10414,0.0521 1.14582,0.26043 3.125,0.625 1.97913,0.3646 4.27081,0.57293 6.875,0.625 3.22464,-0.18228 5.99125,-1.3802 8.3125,-3.59375 2.32117,-2.21351 3.5159,-4.34894 3.625,-6.40625 -0.17955,-1.2988 -1.96453,-5.74414 -5.375,-13.3125 -3.41055,-7.56828 -7.35626,-16.09178 -11.84375,-25.59375 -4.48754,-9.50185 -8.43325,-17.80659 -11.84375,-24.90625 -3.41053,-7.09949 -5.19551,-10.82607 -5.375,-11.1875 z m 298.3125,0 38.75,0 c 9.42326,0.32004 16.63015,3.23821 21.65625,8.78125 5.02594,5.54322 7.57655,11.79177 7.625,18.71875 -0.0485,3.88026 -1.34905,7.68237 -3.875,11.40625 -2.52611,3.724 -5.98298,6.5886 -10.40625,8.59375 5.10407,1.87504 9.27076,4.68756 12.5,8.4375 3.22907,3.75003 4.89575,8.43755 5,14.0625 -0.1861,8.35937 -3.27392,15.39066 -9.21875,21.09375 -5.94499,5.70311 -13.65337,8.67188 -23.125,8.90625 l -38.90625,0 0,-100 z m -62.75,13.75 c -7.00522,0.10425 -12.68235,3.33344 -17.03125,9.6875 -4.34898,6.35421 -6.58857,15.20844 -6.71875,26.5625 0.13018,11.35416 2.36978,20.20839 6.71875,26.5625 4.3489,6.35416 10.02602,9.58335 17.03125,9.6875 7.00512,-0.10415 12.68224,-3.33334 17.03125,-9.6875 4.34887,-6.35411 6.58846,-15.20834 6.71875,-26.5625 -0.13029,-11.35406 -2.36988,-20.20829 -6.71875,-26.5625 -4.34901,-6.35406 -10.02613,-9.58325 -17.03125,-9.6875 z m 193.09375,0 c -7.00522,0.10425 -12.68235,3.33344 -17.03125,9.6875 -4.34898,6.35421 -6.58857,15.20844 -6.71875,26.5625 0.13018,11.35416 2.36978,20.20839 6.71875,26.5625 4.3489,6.35416 10.02602,9.58335 17.03125,9.6875 7.00512,-0.10415 12.68224,-3.33334 17.03125,-9.6875 4.34887,-6.35411 6.58846,-15.20834 6.71875,-26.5625 -0.13029,-11.35406 -2.36988,-20.20829 -6.71875,-26.5625 -4.34901,-6.35406 -10.02613,-9.58325 -17.03125,-9.6875 z m -598,1.25 0,25.71875 20,0 c 3.80201,-0.0669 6.82286,-1.2812 9.0625,-3.625 2.23951,-2.34368 3.38535,-5.43298 3.4375,-9.25 -0.13028,-4.36374 -1.43237,-7.57805 -3.90625,-9.6875 -2.47401,-2.10928 -5.33861,-3.16732 -8.59375,-3.15625 l -20,0 z m 485.15625,0 0,25.71875 20,0 c 3.80201,-0.0669 6.82286,-1.2812 9.0625,-3.625 2.23951,-2.34368 3.38535,-5.43298 3.4375,-9.25 -0.13028,-4.36374 -1.43237,-7.57805 -3.90625,-9.6875 -2.47401,-2.10928 -5.33861,-3.16732 -8.59375,-3.15625 l -20,0 z m -485.15625,40 0,30 21.25,0 c 4.99992,-0.17856 8.74995,-1.77678 11.25,-4.8125 2.49992,-3.03568 3.74993,-6.43749 3.75,-10.1875 -7e-5,-3.74995 -1.25008,-7.15176 -3.75,-10.1875 -2.50005,-3.03566 -6.25008,-4.63388 -11.25,-4.8125 l -21.25,0 z m 485.15625,0 0,30 21.25,0 c 4.99992,-0.17856 8.74995,-1.77678 11.25,-4.8125 2.49992,-3.03568 3.74993,-6.43749 3.75,-10.1875 -7e-5,-3.74995 -1.25008,-7.15176 -3.75,-10.1875 -2.50005,-3.03566 -6.25008,-4.63388 -11.25,-4.8125 l -21.25,0 z"
       id="rect12503" />
    <g
       style="font-size:178.57307434px;font-style:normal;font-variant:normal;font-weight:normal;font-stretch:normal;line-height:125%;letter-spacing:-7px;word-spacing:0px;fill:#000000;fill-opacity:1;stroke:none;font-family:Arial;-inkscape-font-specification:Arial"
       id="text7949-7">
      <path
         d="m 294.99994,172.36244 0,69.99974 14.99995,0 0,-56.24979 26.2499,0 0,56.24979 14.99994,0 0,-69.99974 z"
         style="fill:#000000;font-family:Russian Road Sign;-inkscape-font-specification:Russian Road Sign"
         id="path13520" />
      <path
         d="m 407.83882,169.86245 c -6.19794,0.41674 -10.67709,2.08339 -13.43746,4.99998 -2.76044,2.91672 -4.1146,4.58338 -4.06248,4.99998 -1.10121,-1.96421 -1.93454,-4.4642 -2.49999,-7.49997 l -12.49996,0 0,99.99963 14.99995,0 0,-36.24986 c 0.10414,0.91146 1.7708,2.52603 4.99998,4.84373 3.22912,2.31769 7.39576,3.61977 12.49996,3.90623 2.74685,0.11574 6.55856,-0.81018 11.43513,-2.77777 4.87647,-1.96758 9.33632,-5.67127 13.37959,-11.11107 4.04312,-5.43977 6.18817,-13.31011 6.43516,-23.61102 -0.52091,-14.68739 -4.16673,-24.68735 -10.93746,-29.99989 -6.77087,-5.31241 -13.54167,-7.8124 -20.31242,-7.49997 z m 0,13.74995 c 4.50513,0.0521 8.3072,2.13546 11.4062,6.24997 3.09889,4.11462 4.71346,9.94793 4.84374,17.49994 -0.13028,7.60417 -1.74485,13.64581 -4.84374,18.12493 -3.099,4.47916 -6.90107,6.77082 -11.4062,6.87498 -3.30733,-0.026 -6.5588,-0.91144 -9.75443,-2.65624 -3.19571,-1.74477 -5.77755,-4.19268 -7.74551,-7.34372 l 0,-26.24991 c 1.92332,-3.80202 4.41587,-6.82284 7.47765,-9.06247 3.06171,-2.23952 6.40246,-3.38534 10.02229,-3.43748 z"
         style="fill:#000000;font-family:Russian Road Sign;-inkscape-font-specification:Russian Road Sign"
         id="path13522" />
      <path
         d="m 454.42793,216.11228 34.99987,0 0,-16.24994 -34.99987,0 z"
         style="fill:#000000;font-family:Russian Road Sign;-inkscape-font-specification:Russian Road Sign"
         id="path13524" />
      <path
         d="m 503.84591,172.36244 0,13.74995 21.07135,0 0,56.24979 14.99995,0 0,-56.24979 20.89278,0 0,-13.74995 z"
         style="fill:#000000;font-family:Russian Road Sign;-inkscape-font-specification:Russian Road Sign"
         id="path13526" />
      <path
         d="m 614.15405,142.36255 0,99.99963 38.92843,0 c 9.47163,-0.23437 17.17993,-3.20311 23.12492,-8.90621 5.94483,-5.70309 9.01029,-12.73431 9.19639,-21.09368 -0.10425,-5.62494 -1.77091,-10.31242 -4.99998,-14.06245 -3.22923,-3.74994 -7.39588,-6.56242 -12.49995,-8.43747 4.42327,-2.00514 7.89795,-4.86972 10.42406,-8.59372 2.52595,-3.72388 3.81315,-7.52594 3.8616,-11.4062 -0.0485,-6.92698 -2.58564,-13.16207 -7.61158,-18.70529 -5.0261,-5.54304 -12.25077,-8.47457 -21.67403,-8.79461 z m 17.49994,14.99994 19.99993,0 c 3.25514,-0.0111 6.11971,1.03803 8.59371,3.14732 2.47389,2.10944 3.77597,5.34604 3.90624,9.70978 -0.0521,3.81702 -1.19798,6.89736 -3.43749,9.24104 -2.23964,2.3438 -5.26045,3.54915 -9.06246,3.61606 l -19.99993,0 z m 0,39.99986 21.24992,0 c 4.99992,0.17861 8.74991,1.78575 11.24996,4.82141 2.49992,3.03574 3.74992,6.42858 3.74999,10.17853 -7e-5,3.75001 -1.25007,7.14286 -3.74999,10.17854 -2.50005,3.03572 -6.25004,4.64285 -11.24996,4.82141 l -21.24992,0 z"
         style="fill:#000000;font-family:Russian Road Sign;-inkscape-font-specification:Russian Road Sign"
         id="path13528" />
      <path
         d="m 707.25263,242.36218 63.74976,0 0,-14.99994 -46.24983,0 0,-29.99989 36.24987,0 0,-14.99995 -36.24987,0 0,-23.74991 44.99984,0 0,-16.24994 -62.49977,0 z"
         style="fill:#000000;font-family:Russian Road Sign;-inkscape-font-specification:Russian Road Sign"
         id="path13530" />
      <path
         d="m 796.51468,142.36255 0,99.99963 17.49994,0 0,-34.99987 16.24994,0 c 10.15615,-0.57288 18.28111,-4.42702 24.37491,-11.56246 6.09364,-7.13534 9.21863,-14.11447 9.37496,-20.93742 0.15617,-6.82282 -2.34382,-13.80196 -7.49997,-20.93743 -5.1563,-7.1353 -13.90626,-10.98944 -26.2499,-11.56245 z m 17.49994,14.99994 11.24996,0 c 5.20826,-0.052 9.79157,1.30217 13.74995,4.06249 3.95825,2.76048 6.04157,7.23963 6.24997,13.43745 -0.20839,6.19795 -2.29172,10.6771 -6.24997,13.43745 -3.95838,2.76045 -8.54169,4.11462 -13.74995,4.06249 l -11.24996,0 z"
         style="fill:#000000;font-family:Russian Road Sign;-inkscape-font-specification:Russian Road Sign"
         id="path13532" />
      <path
         d="m 889.61328,242.36218 17.49994,0 0,-44.99983 37.49986,0 0,44.99983 17.49994,0 0,-99.99963 -17.49994,0 0,39.99985 -37.49986,0 0,-39.99985 -17.49994,0 z"
         style="fill:#000000;font-family:Russian Road Sign;-inkscape-font-specification:Russian Road Sign"
         id="path13534" />
      <path
         d="m 1013.8446,207.36231 12.4999,-42.49984 12.5,42.49984 z m 2.5,-64.99976 -32.49992,99.99963 18.74992,0 6.25,-19.99992 34.9999,0 6.2499,19.99992 18.75,0 -32.4999,-99.99963 z"
         style="fill:#000000;font-family:Russian Road Sign;-inkscape-font-specification:Russian Road Sign"
         id="path13536" />
      <path
         d="m 1105.4589,142.36255 0,14.99994 c -0.046,8.22205 -0.6481,16.91689 -1.8055,26.08456 -1.1575,9.16778 -2.5926,17.69067 -4.3056,25.56869 -1.7129,7.87808 -3.4259,13.99357 -5.1388,18.3465 l -11.25,0 0,32.49988 15,0 0,-17.49994 62.4997,0 0,17.49994 15,0 0,-32.49988 -11.25,0 0,-77.49972 0,-7.49997 z m 17.5,14.99994 23.7499,0 0,69.99975 -35.5356,0 c 3.4598,-8.54162 6.2722,-19.27074 8.4375,-32.18739 2.1651,-12.91656 3.2812,-25.52066 3.3482,-37.81236 z"
         style="fill:#000000;font-family:Russian Road Sign;-inkscape-font-specification:Russian Road Sign"
         id="path13538" />
      <path
         d="m 1229.5732,139.86256 c -13.7277,0.37541 -23.9509,5.50101 -30.6696,15.37681 -6.7187,9.87597 -10.0669,22.25029 -10.0446,37.123 -0.022,14.87279 3.3259,27.24711 10.0446,37.12299 6.7187,9.8759 16.9419,15.0015 30.6696,15.37681 9.4314,-0.1302 17.0666,-2.68228 22.9055,-7.65622 5.8388,-4.97393 10.2869,-11.58848 13.3443,-19.84368 l -16.7856,-6.24997 c -1.8723,6.19792 -4.4262,10.67706 -7.6618,13.43745 -3.2357,2.76042 -7.1699,4.11458 -11.8024,4.06248 -7.0053,-0.10415 -12.6823,-3.3333 -17.0312,-9.68746 -4.349,-6.35412 -6.5886,-15.20824 -6.7187,-26.5624 0.1301,-11.35407 2.3697,-20.2082 6.7187,-26.56241 4.3489,-6.35406 10.0259,-9.58321 17.0312,-9.68746 4.6326,-0.052 8.5667,1.30217 11.8024,4.06249 3.2356,2.76048 5.7895,7.23963 7.6618,13.43744 l 16.7856,-6.24997 c -3.0574,-8.2551 -7.5055,-14.86965 -13.3443,-19.84368 -5.8389,-4.97384 -13.4741,-7.52591 -22.9055,-7.65622 z"
         style="fill:#000000;font-family:Russian Road Sign;-inkscape-font-specification:Russian Road Sign"
         id="path13540" />
      <path
         d="m 1285.1719,142.36255 0,99.99963 17.4999,0 0,-45.71412 c 0.1558,-0.0223 1.0925,-0.11156 2.8101,-0.26785 1.7175,-0.15621 3.2808,-0.2455 4.6899,-0.26786 3.6847,0.0284 6.7833,1.12681 9.2959,3.29519 2.5125,2.16847 4.8305,5.23672 6.954,9.20477 3.3445,5.9375 6.9679,12.18747 10.8705,18.74993 3.9025,6.56248 6.767,11.56246 8.5937,14.99994 l 21.7857,0 c -4.336,-3.57744 -8.2743,-8.46155 -11.8152,-14.65234 -3.541,-6.19077 -7.1026,-12.55661 -10.6847,-19.09753 -2.8542,-5.4999 -5.8125,-10.22605 -8.875,-14.17848 -3.0625,-3.95234 -7.6042,-6.30948 -13.625,-7.07145 2.5526,-0.33674 5.4806,-2.46867 8.7841,-6.39578 3.3034,-3.92698 6.2087,-7.62837 8.7159,-11.10415 2.5067,-3.66395 4.8961,-6.64533 7.1682,-8.94414 2.2719,-2.29866 5.7158,-3.48393 10.3317,-3.55582 l -3.75,-17.49993 c -8.534,1.303 -15.3549,5.22494 -20.4629,11.76583 -5.108,6.54106 -9.7994,12.88363 -14.074,19.0277 -4.2747,6.14422 -9.429,9.27252 -15.4629,9.38489 -0.3607,-0.0189 -0.6218,-0.0544 -0.7834,-0.10638 -0.1616,-0.0519 -0.3171,-0.13546 -0.4666,-0.25076 l 0,-37.32129 z"
         style="fill:#000000;font-family:Russian Road Sign;-inkscape-font-specification:Russian Road Sign"
         id="path13542" />
      <path
         d="m 1420.6531,139.86256 c -13.7276,0.37956 -23.9508,5.51347 -30.6695,15.40173 -6.7187,9.88843 -10.0669,22.25445 -10.0446,37.09808 -0.022,14.84373 3.3259,27.20974 10.0446,37.09807 6.7187,9.88837 16.9419,15.02227 30.6695,15.40173 13.7276,-0.37946 23.9508,-5.51337 30.6696,-15.40173 6.7186,-9.88833 10.0668,-22.25434 10.0446,-37.09807 0.022,-14.84364 -3.326,-27.20965 -10.0446,-37.09809 -6.7188,-9.88825 -16.942,-15.02216 -30.6696,-15.40172 z m 0,16.24994 c 7.0051,0.10425 12.6822,3.3334 17.0312,9.68746 4.3489,6.35422 6.5885,15.20834 6.7187,26.56241 -0.1302,11.35416 -2.3698,20.20829 -6.7187,26.5624 -4.349,6.35416 -10.026,9.58331 -17.0312,9.68746 -7.0052,-0.10415 -12.6823,-3.3333 -17.0312,-9.68746 -4.3489,-6.35412 -6.5885,-15.20824 -6.7187,-26.5624 0.1302,-11.35407 2.3698,-20.2082 6.7187,-26.56241 4.3489,-6.35406 10.026,-9.58321 17.0312,-9.68746 z"
         style="fill:#000000;font-family:Russian Road Sign;-inkscape-font-specification:Russian Road Sign"
         id="path13544" />
      <path
         d="m 1482.3847,242.36218 17.4999,0 0,-84.99969 44.9999,0 0,-14.99994 -62.4998,0 z"
         style="fill:#000000;font-family:Russian Road Sign;-inkscape-font-specification:Russian Road Sign"
         id="path13546" />
      <path
         d="m 1600.2236,139.86256 c -13.7277,0.37956 -23.9509,5.51347 -30.6696,15.40173 -6.7187,9.88843 -10.0669,22.25445 -10.0446,37.09808 -0.022,14.84373 3.3259,27.20974 10.0446,37.09807 6.7187,9.88837 16.9419,15.02227 30.6696,15.40173 13.7275,-0.37946 23.9507,-5.51337 30.6695,-15.40173 6.7186,-9.88833 10.0668,-22.25434 10.0446,-37.09807 0.022,-14.84364 -3.326,-27.20965 -10.0446,-37.09809 -6.7188,-9.88825 -16.942,-15.02216 -30.6695,-15.40172 z m 0,16.24994 c 7.0051,0.10425 12.6821,3.3334 17.0311,9.68746 4.3489,6.35422 6.5885,15.20834 6.7188,26.56241 -0.1303,11.35416 -2.3699,20.20829 -6.7188,26.5624 -4.349,6.35416 -10.026,9.58331 -17.0311,9.68746 -7.0053,-0.10415 -12.6823,-3.3333 -17.0312,-9.68746 -4.349,-6.35412 -6.5886,-15.20824 -6.7188,-26.5624 0.1302,-11.35407 2.3698,-20.2082 6.7188,-26.56241 4.3489,-6.35406 10.0259,-9.58321 17.0312,-9.68746 z"
         style="fill:#000000;font-family:Russian Road Sign;-inkscape-font-specification:Russian Road Sign"
         id="path13548" />
    </g>
    <g
       style="font-size:178.57307434px;font-style:normal;font-variant:normal;font-weight:normal;font-stretch:normal;line-height:125%;letter-spacing:-4px;word-spacing:0px;fill:#000000;fill-opacity:1;stroke:none;font-family:Arial;-inkscape-font-specification:Arial"
       id="text12481">
      <path
         d="m 1200,632.36218 68.7497,0 0,19.99993 15,0 0,-34.99987 -11.25,0 0,-84.99969 -17.4999,0 0,84.99969 -37.4999,0 0,-84.99969 -17.4999,0 z"
         style="fill:#000000;font-family:Russian Road Sign;-inkscape-font-specification:Russian Road Sign"
         id="path13551" />
      <path
         d="m 1305.9814,632.36218 63.7497,0 0,-14.99994 -46.2498,0 0,-29.99989 36.2499,0 0,-14.99995 -36.2499,0 0,-23.74991 44.9998,0 0,-16.24994 -62.4997,0 z"
         style="fill:#000000;font-family:Russian Road Sign;-inkscape-font-specification:Russian Road Sign"
         id="path13553" />
      <path
         d="m 1398.2434,632.36218 17.5,0 0,-44.99983 37.4998,0 0,44.99983 17.5,0 0,-99.99963 -17.5,0 0,39.99985 -37.4998,0 0,-39.99985 -17.5,0 z"
         style="fill:#000000;font-family:Russian Road Sign;-inkscape-font-specification:Russian Road Sign"
         id="path13555" />
      <path
         d="m 1494.2249,532.36255 0,14.99994 27.4999,0 0,84.99969 17.4999,0 0,-84.99969 27.4999,0 0,-14.99994 z"
         style="fill:#000000;font-family:Russian Road Sign;-inkscape-font-specification:Russian Road Sign"
         id="path13557" />
      <path
         d="m 1590.0918,532.36255 0,99.99963 17.4999,0 0,-34.99987 16.25,0 c 10.1561,-0.57288 18.2811,-4.42702 24.3749,-11.56246 6.0936,-7.13534 9.2186,-14.11447 9.375,-20.93742 0.1561,-6.82282 -2.3439,-13.80196 -7.5,-20.93743 -5.1563,-7.1353 -13.9063,-10.98944 -26.2499,-11.56245 z m 17.4999,14.99994 11.25,0 c 5.2083,-0.052 9.7916,1.30217 13.7499,4.06249 3.9583,2.76048 6.0416,7.23963 6.25,13.43745 -0.2084,6.19795 -2.2917,10.6771 -6.25,13.43745 -3.9583,2.76045 -8.5416,4.11462 -13.7499,4.06249 l -11.25,0 z"
         style="fill:#000000;font-family:Russian Road Sign;-inkscape-font-specification:Russian Road Sign"
         id="path13559" />
    </g>
    <g
       style="font-size:133.93029785px;font-style:normal;font-variant:normal;font-weight:normal;font-stretch:normal;line-height:125%;letter-spacing:0px;word-spacing:0px;fill:#000000;fill-opacity:1;stroke:none;font-family:Arial;-inkscape-font-specification:Arial"
       id="text12508">
      <path
         d="m 706.47321,906.7729 4.41965,5.75892 10.04464,-6.29464 0,58.125 13.125,0 0,-75 -11.25,0 z"
         style="fill:#000000;font-family:Russian Road Sign;-inkscape-font-specification:Russian Road Sign"
         id="path13562" />
      <path
         d="m 797.84863,901.54968 3.75,-12.1875 -43.125,0 0,36.5625 8.4375,4.6875 c 0.93748,-0.6445 2.34373,-1.69919 4.21875,-3.16406 1.87498,-1.46481 4.21873,-2.28512 7.03125,-2.46094 4.23825,0.17582 7.48043,1.69926 9.72656,4.57032 2.24605,2.87112 3.37887,6.03518 3.39844,9.49218 -0.23441,4.68752 -2.10941,8.20314 -5.625,10.54688 -3.51566,2.34376 -7.26565,3.51563 -11.25,3.51562 -3.15292,0.0363 -6.32256,-0.20367 -9.50893,-0.71986 -3.18639,-0.51618 -5.95425,-1.52622 -8.30357,-3.03014 l 1.875,12.1875 c 0.21484,0.15626 2.1289,0.78126 5.74219,1.875 3.61326,1.09375 7.6367,1.71875 12.07031,1.875 9.00387,-0.19531 16.07417,-2.85156 21.21094,-7.96875 5.13666,-5.11718 7.75385,-11.52342 7.85156,-19.21875 -0.29302,-7.53903 -2.75396,-13.32027 -7.38281,-17.34375 -4.62896,-4.02339 -9.66801,-6.05464 -15.11719,-6.09375 -2.20706,-0.039 -4.42246,0.27349 -6.6462,0.9375 -2.2238,0.66411 -4.0709,1.91411 -5.5413,3.75 l 0,-17.8125 z"
         style="fill:#000000;font-family:Russian Road Sign;-inkscape-font-specification:Russian Road Sign"
         id="path13564" />
      <path
         d="m 847.82995,888.42468 c -7.61722,0.19539 -13.71096,3.78913 -18.28125,10.78125 -4.57033,6.99225 -6.91407,16.21099 -7.03125,27.65625 0.11718,11.44534 2.46092,20.66408 7.03125,27.65625 4.57029,6.99219 10.66403,10.58594 18.28125,10.78125 7.61714,-0.19531 13.71089,-3.78906 18.28125,-10.78125 4.57025,-6.99217 6.914,-16.21091 7.03125,-27.65625 -0.11725,-10.91792 -2.461,-19.98599 -7.03125,-27.20424 -4.57036,-7.21812 -10.66411,-10.96254 -18.28125,-11.23326 z m 0,11.65179 c 3.67184,-0.0557 6.6071,2.06479 8.8058,6.3616 2.19862,4.29693 3.32585,11.10496 3.3817,20.42411 -0.0559,9.31923 -1.18308,16.12726 -3.3817,20.42411 -2.1987,4.29688 -5.13396,6.41742 -8.8058,6.36161 -3.67191,0.0558 -6.60717,-2.06472 -8.80581,-6.36161 -2.19868,-4.29686 -3.32591,-11.10489 -3.38169,-20.42411 0.0558,-9.31915 1.18301,-16.12718 3.3817,-20.42411 2.19863,-4.29681 5.13389,-6.41734 8.8058,-6.3616 z"
         style="fill:#000000;font-family:Russian Road Sign;-inkscape-font-specification:Russian Road Sign"
         id="path13566" />
      <path
         d="m 900.43076,964.36218 11.25,0 2.8125,-36.5625 15,30 15,-30 2.8125,36.5625 11.25,0 -4.6875,-52.5 -11.25,0 -13.125,26.25 -13.125,-26.25 -11.25,0 z"
         style="fill:#000000;font-family:Russian Road Sign;-inkscape-font-specification:Russian Road Sign"
         id="path13568" />
    </g>
    <path
       style="opacity:1;color:#000000;fill:#000000;fill-opacity:1;fill-rule:nonzero;stroke:none;stroke-width:3.54299997999999980;marker:none;visibility:visible;display:inline;overflow:visible;enable-background:accumulate"
       d="M 45 12 C 26.718 12 12 26.718 12 45 L 12 955 C 12 973.282 26.718 988 45 988 L 1705 988 C 1723.282 988 1738 973.282 1738 955 L 1738 45 C 1738 26.718 1723.282 12 1705 12 L 45 12 z M 45 18 L 1705 18 C 1719.958 18 1732 30.042 1732 45 L 1732 955 C 1732 969.958 1719.958 982 1705 982 L 1154.5 982 L 1154.5 829 C 1154.5 799.17662 1178.6766 775 1208.5 775 L 1375 775 L 1375 823 L 1504.9062 748 L 1375 673 L 1375 721 L 1208.5 721 C 1188.823 721 1170.3884 726.27478 1154.5 735.46875 L 1154.5 369.9375 L 1202.5 369.9375 L 1127.5 240.0625 L 1052.5 369.9375 L 1100.5 369.9375 L 1100.5 735.46875 C 1084.6116 726.27478 1066.177 721 1046.5 721 L 370 721 L 370 673 L 240.09375 748 L 370 823 L 370 775 L 1046.5 775 C 1076.3234 775 1100.5 799.17662 1100.5 829 L 1100.5 982 L 45 982 C 30.042 982 18 969.958 18 955 L 18 45 C 18 30.042 30.042 18 45 18 z "
       transform="translate(0,52.36218)"
       id="rect12591" />
    <rect
       style="opacity:1;color:#000000;fill:none;fill-opacity:1;fill-rule:nonzero;stroke:#000000;stroke-width:2;marker:none;visibility:visible;display:inline;overflow:visible;enable-background:accumulate;stroke-opacity:1;stroke-miterlimit:4;stroke-dasharray:none"
       id="rect12728"
       width="1748"
       height="998"
       x="1"
       y="53.362179"
       ry="44"
       rx="44" />
  </g>
</svg>
