<?xml version="1.0" encoding="UTF-8" standalone="no"?>
<!-- Created with Inkscape (http://www.inkscape.org/) -->

<svg
   xmlns:dc="http://purl.org/dc/elements/1.1/"
   xmlns:cc="http://creativecommons.org/ns#"
   xmlns:rdf="http://www.w3.org/1999/02/22-rdf-syntax-ns#"
   xmlns:svg="http://www.w3.org/2000/svg"
   xmlns="http://www.w3.org/2000/svg"
   xmlns:sodipodi="http://sodipodi.sourceforge.net/DTD/sodipodi-0.dtd"
   xmlns:inkscape="http://www.inkscape.org/namespaces/inkscape"
   width="1250"
   height="350"
   id="svg2"
   version="1.1"
   inkscape:version="0.48.4 r9939"
   sodipodi:docname="5.23.1.svg">
  <title
     id="title3006">6.11 Наименование объекта</title>
  <defs
     id="defs4" />
  <sodipodi:namedview
     id="base"
     pagecolor="#ffffff"
     bordercolor="#666666"
     borderopacity="1.0"
     inkscape:pageopacity="0.0"
     inkscape:pageshadow="2"
     inkscape:zoom="1"
     inkscape:cx="664.6068"
     inkscape:cy="178.24167"
     inkscape:document-units="px"
     inkscape:current-layer="layer1"
     showgrid="false"
     inkscape:window-width="1920"
     inkscape:window-height="1024"
     inkscape:window-x="-4"
     inkscape:window-y="-4"
     inkscape:window-maximized="1"
     inkscape:snap-bbox="true"
     inkscape:bbox-paths="true"
     inkscape:bbox-nodes="true"
     inkscape:snap-bbox-edge-midpoints="true"
     inkscape:snap-bbox-midpoints="true"
     inkscape:object-paths="true"
     inkscape:snap-intersection-paths="true"
     inkscape:object-nodes="true"
     inkscape:snap-smooth-nodes="true"
     inkscape:snap-midpoints="true"
     inkscape:snap-object-midpoints="true" />
  <metadata
     id="metadata7">
    <rdf:RDF>
      <cc:Work
         rdf:about="">
        <dc:format>image/svg+xml</dc:format>
        <dc:type
           rdf:resource="http://purl.org/dc/dcmitype/StillImage" />
        <dc:title>6.11 Наименование объекта</dc:title>
        <cc:license
           rdf:resource="http://creativecommons.org/licenses/by-sa/3.0/" />
        <dc:description>ГОСТ Р 52290-2004</dc:description>
      </cc:Work>
      <cc:License
         rdf:about="http://creativecommons.org/licenses/by-sa/3.0/">
        <cc:permits
           rdf:resource="http://creativecommons.org/ns#Reproduction" />
        <cc:permits
           rdf:resource="http://creativecommons.org/ns#Distribution" />
        <cc:requires
           rdf:resource="http://creativecommons.org/ns#Notice" />
        <cc:requires
           rdf:resource="http://creativecommons.org/ns#Attribution" />
        <cc:permits
           rdf:resource="http://creativecommons.org/ns#DerivativeWorks" />
        <cc:requires
           rdf:resource="http://creativecommons.org/ns#ShareAlike" />
      </cc:License>
    </rdf:RDF>
  </metadata>
  <g
     inkscape:label="Layer 1"
     inkscape:groupmode="layer"
     id="layer1"
     transform="translate(0,-702.36218)">
    <rect
       y="702.36218"
       x="0"
       height="350"
       width="1250"
       id="rect8314"
       style="color:#000000;fill:#ffffff;fill-opacity:1;fill-rule:nonzero;stroke:none;stroke-width:3.54299997999999980;marker:none;visibility:visible;display:inline;overflow:visible;enable-background:accumulate;opacity:1"
       rx="45"
       ry="45" />
    <path
       style="color:#000000;fill:#1a1a1a;fill-opacity:1;fill-rule:nonzero;stroke:none;stroke-width:3.54299997999999980;marker:none;visibility:visible;display:inline;overflow:visible;enable-background:accumulate;opacity:1"
       d="m 45.00001,712.36219 c -19.39,0 -35,15.61 -35,35 l 0,260.00011 c 0,19.39 15.61,35 35,35 l 1159.99999,0 c 19.39,0 35,-15.61 35,-35 l 0,-260.00011 c 0,-19.39 -15.61,-35 -35,-35 z m 0,10 1159.99999,0 c 13.85,0 25,11.15 25,25 l 0,260.00011 c 0,13.85 -11.15,25 -25,25 l -1159.99999,0 c -13.85,0 -25,-11.15 -25,-25 l 0,-260.00011 c 0,-13.85 11.15,-25 25,-25 z"
       id="rect8316"
       inkscape:connector-curvature="0"
       sodipodi:nodetypes="ssssssssssssssssss" />
    <rect
       ry="44"
       rx="44"
       style="color:#000000;fill:none;stroke:#000000;stroke-width:2;stroke-miterlimit:4;stroke-opacity:1;stroke-dasharray:none;marker:none;visibility:visible;display:inline;overflow:visible;enable-background:accumulate;opacity:1"
       id="rect8382"
       width="1248"
       height="348"
       x="1"
       y="703.36218" />
    <g
       style="font-size:267.86059569999998000px;font-style:normal;font-variant:normal;font-weight:normal;font-stretch:normal;line-height:125%;letter-spacing:0px;word-spacing:0px;opacity:1;fill:#000000;fill-opacity:1;stroke:none;font-family:Arial;-inkscape-font-specification:Arial"
       id="text7949">
      <path
         d="m 72.01941,974.86212 7.232142,21.42857 c 2.784564,0.51335 4.581437,0.82585 5.390624,0.9375 0.80912,0.11156 1.60153,0.1562 2.377234,0.13393 5.820273,-0.0391 11.523393,-1.83598 17.10938,-5.39063 5.58588,-3.55473 9.88275,-8.63284 12.89062,-15.23437 l 43.125,-129.375 -26.25,0 -20.625,69.375 -24.375,-69.375 -26.250001,0 40.178571,105 c -1.39997,5.66146 -3.710026,11.05134 -6.930166,16.16965 -3.220229,5.11828 -8.053025,7.8534 -14.498404,8.20535 -0.976595,0.039 -2.304719,-0.0391 -3.984377,-0.23437 -1.679711,-0.19534 -3.476583,-0.74221 -5.390623,-1.64063 z"
         style="fill:#000000;font-family:Russian Road Sign;-inkscape-font-specification:Russian Road Sign"
         id="path11463" />
      <path
         d="m 208.69925,847.36212 c 0.0115,7.24216 -0.16043,16.00207 -0.51588,26.27976 -0.35553,10.27785 -0.96399,19.87109 -1.8254,28.77976 -0.86147,8.90877 -2.04533,14.93059 -3.55158,18.06548 -2.39958,4.27458 -5.36833,7.57815 -8.90625,9.91072 -3.53797,2.3326 -6.9085,3.76117 -10.1116,4.28571 l 4.28571,21.42857 c 15.23144,-4.00463 25.6018,-10.78703 31.1111,-20.34723 5.50921,-9.56016 8.51847,-20.37033 9.02778,-32.43055 0.50921,-12.06013 0.87958,-23.84252 1.11112,-35.34722 l 30,0 0,84.375 22.5,0 0,-105 z"
         style="fill:#000000;font-family:Russian Road Sign;-inkscape-font-specification:Russian Road Sign"
         id="path11465" />
      <path
         d="m 352.51516,937.36212 c -0.11714,-4.62671 -1.71295,-8.47733 -4.78741,-11.55187 -3.07455,-3.07448 -6.92517,-4.67029 -11.55188,-4.78741 -4.62675,0.11713 -8.47737,1.71294 -11.55187,4.78742 -3.07452,3.07453 -4.67033,6.92515 -4.78741,11.55186 0.11709,4.62674 1.71289,8.47736 4.78742,11.55187 3.07449,3.07451 6.92511,4.67031 11.55186,4.78742 4.62671,-0.1171 8.47732,-1.71291 11.55187,-4.78742 3.07447,-3.07451 4.67027,-6.92513 4.78742,-11.55187 z"
         style="fill:#000000;font-family:Russian Road Sign;-inkscape-font-specification:Russian Road Sign"
         id="path11467" />
      <path
         d="m 494.02017,899.86212 18.75,-63.75 18.75,63.75 z m 3.75,-97.5 -48.75,150 28.125,0 9.375,-30 52.5,0 9.375,30 28.125,0 -48.75,-150 z"
         style="fill:#000000;font-family:Russian Road Sign;-inkscape-font-specification:Russian Road Sign"
         id="path11469" />
      <path
         d="m 619.4422,802.36212 0,150 26.25,0 0,-52.5 24.375,0 c 15.23428,-0.85932 27.42177,-6.64056 36.5625,-17.34375 9.1405,-10.70305 13.828,-21.17179 14.0625,-31.40625 0.23425,-10.23427 -3.51574,-20.70301 -11.25,-31.40626 -7.73448,-10.70298 -20.85947,-16.48423 -39.375,-17.34374 z m 26.25,22.5 16.875,0 c 7.81243,-0.078 14.68742,1.95326 20.625,6.09375 5.9374,4.14074 9.0624,10.85949 9.375,20.15625 -0.31259,9.29697 -3.43759,16.01571 -9.375,20.15625 -5.93758,4.1407 -12.81258,6.17195 -20.625,6.09375 l -16.875,0 z"
         style="fill:#000000;font-family:Russian Road Sign;-inkscape-font-specification:Russian Road Sign"
         id="path11471" />
      <path
         d="m 769.59064,952.36212 54.375,0 c 18.59365,-0.70312 32.03114,-5.85937 40.3125,-15.46875 8.28112,-9.60935 12.34361,-19.45309 12.1875,-29.53125 0.31237,-10.07808 -3.12513,-19.92182 -10.3125,-29.53126 -7.18762,-9.60929 -20.0001,-14.76553 -38.4375,-15.46874 l -31.875,0 0,-37.5 69.375,0 0,-22.5 -95.625,0 z m 26.25,-22.5 0,-45 26.25,0 c 8.5546,7e-5 15.35147,1.87507 20.39062,5.625 5.03896,3.75006 7.61709,9.37505 7.73438,16.875 -0.11729,7.50004 -2.69541,13.12503 -7.73437,16.875 -5.03916,3.75003 -11.83603,5.62502 -20.39063,5.625 z"
         style="fill:#000000;font-family:Russian Road Sign;-inkscape-font-specification:Russian Road Sign"
         id="path11473" />
      <path
         d="m 960.68353,899.86212 18.75,-63.75 18.75,63.75 z m 3.75,-97.5 -48.75,150 28.125,0 9.375,-30 52.49997,0 9.375,30 28.125,0 -48.74997,-150 z"
         style="fill:#000000;font-family:Russian Road Sign;-inkscape-font-specification:Russian Road Sign"
         id="path11475" />
      <path
         d="m 1078.6056,802.36212 0,22.5 41.25,0 0,127.5 26.25,0 0,-127.5 41.25,0 0,-22.5 z"
         style="fill:#000000;font-family:Russian Road Sign;-inkscape-font-specification:Russian Road Sign"
         id="path11477" />
    </g>
  </g>
</svg>
