<?xml version="1.0" encoding="UTF-8" standalone="no"?>
<!-- Created with Inkscape (http://www.inkscape.org/) -->

<svg
   xmlns:dc="http://purl.org/dc/elements/1.1/"
   xmlns:cc="http://creativecommons.org/ns#"
   xmlns:rdf="http://www.w3.org/1999/02/22-rdf-syntax-ns#"
   xmlns:svg="http://www.w3.org/2000/svg"
   xmlns="http://www.w3.org/2000/svg"
   xmlns:sodipodi="http://sodipodi.sourceforge.net/DTD/sodipodi-0.dtd"
   xmlns:inkscape="http://www.inkscape.org/namespaces/inkscape"
   width="1850"
   height="1580"
   id="svg2"
   version="1.1"
   inkscape:version="0.48.4 r9939"
   sodipodi:docname="6.9.1 B.svg">
  <title
     id="title3006">6.9.1 Предварительный указатель направлений</title>
  <defs
     id="defs4" />
  <sodipodi:namedview
     id="base"
     pagecolor="#ffffff"
     bordercolor="#666666"
     borderopacity="1.0"
     inkscape:pageopacity="0.0"
     inkscape:pageshadow="2"
     inkscape:zoom="0.35355339"
     inkscape:cx="800.28073"
     inkscape:cy="808.88054"
     inkscape:document-units="px"
     inkscape:current-layer="layer1"
     showgrid="false"
     inkscape:window-width="1920"
     inkscape:window-height="1024"
     inkscape:window-x="-4"
     inkscape:window-y="-4"
     inkscape:window-maximized="1"
     inkscape:snap-bbox="true"
     inkscape:bbox-paths="true"
     inkscape:bbox-nodes="true"
     inkscape:snap-bbox-edge-midpoints="true"
     inkscape:snap-bbox-midpoints="true"
     inkscape:object-paths="true"
     inkscape:snap-intersection-paths="true"
     inkscape:object-nodes="true"
     inkscape:snap-smooth-nodes="true"
     inkscape:snap-midpoints="true"
     inkscape:snap-object-midpoints="true"
     showguides="true"
     inkscape:guide-bbox="true" />
  <metadata
     id="metadata7">
    <rdf:RDF>
      <cc:Work
         rdf:about="">
        <dc:format>image/svg+xml</dc:format>
        <dc:type
           rdf:resource="http://purl.org/dc/dcmitype/StillImage" />
        <dc:title>6.9.1 Предварительный указатель направлений</dc:title>
        <cc:license
           rdf:resource="http://creativecommons.org/licenses/by-sa/3.0/" />
        <dc:description>ГОСТ Р 52290-2004</dc:description>
      </cc:Work>
      <cc:License
         rdf:about="http://creativecommons.org/licenses/by-sa/3.0/">
        <cc:permits
           rdf:resource="http://creativecommons.org/ns#Reproduction" />
        <cc:permits
           rdf:resource="http://creativecommons.org/ns#Distribution" />
        <cc:requires
           rdf:resource="http://creativecommons.org/ns#Notice" />
        <cc:requires
           rdf:resource="http://creativecommons.org/ns#Attribution" />
        <cc:permits
           rdf:resource="http://creativecommons.org/ns#DerivativeWorks" />
        <cc:requires
           rdf:resource="http://creativecommons.org/ns#ShareAlike" />
      </cc:License>
    </rdf:RDF>
  </metadata>
  <g
     inkscape:label="Layer 1"
     inkscape:groupmode="layer"
     id="layer1"
     transform="translate(0,527.63782)">
    <rect
       rx="45"
       ry="45"
       y="-527.63782"
       x="0"
       height="1580"
       width="1850"
       id="rect15323"
       style="color:#000000;fill:#ffffff;fill-opacity:1;fill-rule:nonzero;stroke:none;stroke-width:3.54299998;marker:none;visibility:visible;display:inline;overflow:visible;enable-background:accumulate" />
    <path
       inkscape:connector-curvature="0"
       style="color:#000000;fill:#0d69e1;fill-opacity:1;fill-rule:nonzero;stroke:none;stroke-width:3.54299998;marker:none;visibility:visible;display:inline;overflow:visible;enable-background:accumulate"
       d="m 44.999982,-509.63778 c -14.958,0 -27,12.042 -27,27 l 0,1489.99998 c 0,14.958 12.042,27 27,27 l 1388.593718,0 0,-229.93749 -254.5313,-129.6875 c -9.8459,5.2852 -21.1056,8.2813 -33.0625,8.2813 -38.6599,0 -70,-31.3401 -70,-70 0,-23.7763 11.8795,-44.7549 30,-57.4063 l 0,-393.65623 c -18.1205,-12.65138 -30,-33.62996 -30,-57.40625 0,-38.659941 31.3401,-70.000001 70,-70.000001 11.947,0 23.1917,3.00426 33.0312,8.28125 l 254.5626,-129.71875 0,-156.749999 -73.5938,0 115,-199.18751 115,199.18751 -73.5938,0 0,1277.99997 288.5938,0 c 14.958,0 27,-12.042 27,-27 l 0,-1489.99998 c 0,-14.958 -12.042,-27 -27,-27 l -1759.999918,0 z M 1090.2811,-396.38777 c 20.5915,0.56935 35.9221,8.26131 46,23.09375 10.0783,14.8327 15.1271,33.39072 15.0938,55.65625 0.033,22.26568 -5.0155,40.8237 -15.0938,55.65625 -10.0779,14.83259 -25.4085,22.52455 -46,23.09375 -20.5912,-0.5692 -35.9216,-8.26115 -46,-23.09375 -10.0778,-14.83256 -15.0962,-33.39057 -15.0624,-55.65625 -0.034,-22.26553 4.9846,-40.82354 15.0624,-55.65625 10.0784,-14.83245 25.4088,-22.5244 46,-23.09375 z m -634.28116,3.75 108.75,0 0,150 -26.25,0 0,-127.5 -56.25,0 0,127.5 -26.25,0 0,-150 z m 153.875,0 93.75,0 0,24.375 -67.5,0 0,35.625 54.375,0 0,22.5 -54.375,0 0,45 69.375,0 0,22.5 -95.625,0 0,-150 z m 133.28125,0 108.75,0 0,22.5 -41.25,0 0,127.5 -26.25,0 0,-127.5 -41.25,0 0,-22.5 z m 146.21875,0 50.625,0 c 18.51553,0.85952 31.64052,6.64076 39.375,17.34375 7.73426,10.70325 11.48425,21.17198 11.25,31.40625 -0.2345,10.23446 -4.92199,20.7032 -14.0625,31.40625 -9.14073,10.70319 -21.32822,16.48443 -36.5625,17.34375 l -24.375,0 0,52.5 -26.25,0 0,-150 z m 300.40616,0 58.125,0 c 14.135,0.48006 24.9921,4.87291 32.5313,13.1875 7.5389,8.31486 11.3333,17.67199 11.4063,28.0625 -0.073,5.82041 -1.9924,11.50791 -5.7813,17.09375 -3.7892,5.58602 -9.0213,9.89851 -15.6563,12.90625 7.6565,2.81257 13.9065,7.03132 18.75,12.65625 4.844,5.62506 7.344,12.6563 7.5,21.09375 -0.2788,12.5391 -4.8639,23.07033 -13.7812,31.625 -8.9175,8.55469 -20.48,13.02344 -34.6875,13.375 l -58.4063,0 0,-150 z m -99.5,20.625 c -10.5075,0.15638 -19.0078,5.00012 -25.5312,14.53125 -6.5235,9.53136 -9.8982,22.81259 -10.0938,39.84375 0.1956,17.0313 3.5703,30.31254 10.0938,39.84375 6.5234,9.53128 15.0237,14.37502 25.5312,14.53125 10.5081,-0.15623 19.039,-4.99998 25.5626,-14.53125 6.523,-9.5312 9.8673,-22.81244 10.0624,-39.84375 -0.1951,-17.03116 -3.5394,-30.3124 -10.0624,-39.84375 -6.5236,-9.53112 -15.0545,-14.37487 -25.5626,-14.53125 z m -174.65616,1.875 0,52.5 16.875,0 c 7.81242,0.0782 14.68742,-1.95305 20.625,-6.09375 5.93741,-4.14054 9.06241,-10.85928 9.375,-20.15625 -0.3126,-9.29676 -3.4376,-16.01551 -9.375,-20.15625 -5.93758,-4.1405 -12.81257,-6.17174 -20.625,-6.09375 l -16.875,0 z m 300.40616,0 0,38.5625 30,0 c 5.7034,-0.10036 10.2343,-1.89053 13.5938,-5.40625 3.3593,-3.51553 5.0783,-8.14945 5.1562,-13.875 -0.1951,-6.54564 -2.1329,-11.39832 -5.8437,-14.5625 -3.711,-3.16394 -8.0232,-4.73536 -12.9063,-4.71875 l -30,0 z m 0,60 0,45 31.875,0 c 7.5,-0.26783 13.125,-2.66515 16.875,-7.21875 3.75,-4.55354 5.625,-9.65621 5.625,-15.28125 0,-5.62495 -1.875,-10.72762 -5.625,-15.28125 -3.75,-4.55351 -9.375,-6.95083 -16.875,-7.21875 l -31.875,0 z M 1433.5937,2.8934787 1215.3124,114.11223 c -2.7058,19.78598 -13.6669,36.92028 -29.3125,47.84375 l 0,393.65623 c 15.6456,10.9235 26.6067,28.0578 29.3125,47.8438 l 218.2813,111.1875 0,-711.7500313 z M 323.46868,18.612229 c 20.5914,0.56935 35.9218,8.2613 46,23.09375 10.078,14.8327 15.0959,33.39072 15.0625,55.65625 0.033,22.265671 -4.9845,40.823691 -15.0625,55.656251 -10.0782,14.83259 -25.4086,22.52455 -46,23.09375 -20.5916,-0.5692 -35.9219,-8.26115 -46,-23.09375 -10.0781,-14.83256 -15.1272,-33.39058 -15.0937,-55.656251 -0.034,-22.26553 5.0156,-40.82355 15.0937,-55.65625 10.0781,-14.83245 25.4084,-22.5244 46,-23.09375 z m -181.4687,3.75 93.75,0 0,22.5 -67.5,0 0,127.500001 -26.25,0 0,-150.000001 z m 278.75,0 50.62496,0 c 18.51553,0.85951 31.64052,6.64076 39.375,17.34375 7.73426,10.70325 11.48425,21.17198 11.25,31.40625 -0.2345,10.23446 -4.92199,20.7032 -14.0625,31.406251 -9.14073,10.70319 -21.32822,16.48443 -36.5625,17.34375 l -24.375,0 0,52.5 -26.24996,0 0,-150.000001 z m 144.34371,0 26.25,0 0,103.125001 54.375,-103.125001 28.125,0 0,150.000001 -26.25,0 0,-103.125001 -54.375,103.125001 -28.125,0 0,-150.000001 z m 144.1875,0 26.25,0 0,127.500001 56.25,0 0,-127.500001 26.25,0 0,127.500001 16.875,0 0,52.5 -22.5,0 0,-30 -103.125,0 0,-150.000001 z m 159.15625,0 26.25,0 0,58.125 31.875,0 c 18.35927,0.62508 30.85926,5.46883 37.5,14.53125 6.6405,9.062571 9.7655,18.593811 9.375,28.593751 0.23424,10.23441 -3.51575,20.70315 -11.25,31.40625 -7.73448,10.70314 -20.85947,16.48438 -39.375,17.34375 l -54.375,0 0,-150.000001 z m 116.25,0 26.24996,0 0,150.000001 -26.24996,0 0,-150.000001 z m -661.21876,20.625 c -10.5079,0.15637 -19.0391,5.00012 -25.5625,14.53125 -6.5235,9.53135 -9.8672,22.81259 -10.0625,39.84375 0.1953,17.031301 3.539,30.312541 10.0625,39.843751 6.5234,9.53127 15.0546,14.37502 25.5625,14.53125 10.5077,-0.15623 19.0077,-4.99998 25.5313,-14.53125 6.5233,-9.53121 9.8983,-22.81244 10.0937,-39.843751 -0.1954,-17.03116 -3.5704,-30.3124 -10.0937,-39.84375 -6.5236,-9.53113 -15.0236,-14.37487 -25.5313,-14.53125 z m 123.53126,1.875 0,52.5 16.875,0 c 7.81242,0.0782 14.68742,-1.95305 20.625,-6.09375 5.93741,-4.14054 9.06241,-10.85929 9.375,-20.15625 -0.3126,-9.29677 -3.4376,-16.01551 -9.375,-20.15625 -5.93758,-4.1405 -12.81257,-6.17175 -20.625,-6.09375 l -16.875,0 z m 698.99996,17.1875 c -23.4721,0 -42.5,19.02789 -42.5,42.500001 0,19.57424 13.2421,36.03393 31.25,40.96875 l 24.5,-0.59375 c 16.9782,-5.57101 29.25,-21.53358 29.25,-40.375 0,-23.472111 -19.0279,-42.500001 -42.5,-42.500001 z m -251.31246,40.937501 0,46.875 26.25,0 c 8.47647,2e-5 14.97647,-1.87498 19.46875,-5.625 4.49209,-3.74997 6.74208,-9.37496 6.78125,-16.875 -0.0392,-7.57808 -2.28916,-13.51557 -6.78125,-17.8125 -4.49228,-4.29681 -10.99228,-6.48431 -19.46875,-6.5625 l -26.25,0 z m -92.28125,429.62498 c 20.59142,0.5694 35.92176,8.2613 46,23.0938 10.07799,14.8327 15.09584,33.3907 15.0625,55.6562 0.0333,22.2657 -4.98451,40.8237 -15.0625,55.6563 -10.07824,14.8326 -25.40858,22.5245 -46,23.0937 -20.59158,-0.5692 -35.95317,-8.2611 -46.03125,-23.0937 -10.07815,-14.8326 -15.096,-33.3906 -15.0625,-55.6563 -0.0335,-22.2655 4.98435,-40.8235 15.0625,-55.6562 10.07808,-14.8325 25.43967,-22.5244 46.03125,-23.0938 z m -692.40621,3.75 50.625,0 c 18.5155,0.8595 31.6405,6.6408 39.375,17.3438 7.7342,10.7032 11.4842,21.1719 11.25,31.4062 -0.2345,10.2345 -4.922,20.7032 -14.0625,31.4063 -9.1408,10.7032 -21.3283,16.4844 -36.5625,17.3437 l -24.375,0 0,52.5 -26.25,0 0,-150 z m 146.9375,0 26.25,0 0,58.125 31.875,0 c 18.3592,0.6251 30.8592,5.4688 37.5,14.5313 6.6405,9.0625 9.7655,18.5938 9.375,28.5937 0.2342,10.2344 -3.5158,20.7032 -11.25,31.4063 -7.7345,10.7031 -20.8595,16.4843 -39.375,17.3437 l -54.375,0 0,-150 z m 116.25,0 26.25,0 0,150 -26.25,0 0,-150 z m 72.03121,0 95.625,0 0,22.5 -69.375,0 0,37.5 31.875,0 c 18.4374,0.7032 31.24989,5.8595 38.4375,15.4688 7.18737,9.6094 10.62487,19.4531 10.3125,29.5312 0.15611,10.0782 -3.90638,19.9219 -12.1875,29.5313 -8.28136,9.6093 -21.71885,14.7656 -40.3125,15.4687 l -54.375,0 0,-150 z m 148.53125,0 26.25,0 0,60 56.25,0 0,-60 26.25,0 0,150 -26.25,0 0,-67.5 -56.25,0 0,67.5 -26.25,0 0,-150 z m 308.53125,0 93.75,0 0,24.375 -67.5,0 0,35.625 54.375,0 0,22.5 -54.375,0 0,45 69.375,0 0,22.5 -95.625,0 0,-150 z m -99.875,20.625 c -10.50787,0.1564 -19.03912,5.0001 -25.5625,14.5313 -6.52349,9.5313 -9.86723,22.8126 -10.0625,39.8437 0.19527,17.0313 3.53902,30.3126 10.0625,39.8438 6.52338,9.5312 15.05461,14.375 25.5625,14.5312 10.50772,-0.1562 19.00771,-5 25.53125,-14.5312 6.52333,-9.5312 9.89832,-22.8125 10.09375,-39.8438 -0.19543,-17.0311 -3.57042,-30.3124 -10.09375,-39.8437 -6.52354,-9.5312 -15.02353,-14.3749 -25.53125,-14.5313 z m -666.15621,1.875 0,52.5 16.875,0 c 7.8124,0.078 14.6874,-1.953 20.625,-6.0937 5.9374,-4.1406 9.0624,-10.8593 9.375,-20.1563 -0.3126,-9.2967 -3.4376,-16.0155 -9.375,-20.1562 -5.9376,-4.1405 -12.8126,-6.1718 -20.625,-6.0938 l -16.875,0 z m 1009.74992,11.6563 c -23.4721,0 -42.5,19.0279 -42.5,42.5 0,23.4721 19.0279,42.5 42.5,42.5 23.4721,0 42.5,-19.0279 42.5,-42.5 0,-23.4721 -19.0279,-42.5 -42.5,-42.5 z m -862.81242,46.4687 0,46.875 26.25,0 c 8.4764,0 14.9764,-1.875 19.4687,-5.625 4.4921,-3.75 6.7421,-9.3749 6.7813,-16.875 -0.039,-7.5781 -2.2892,-13.5156 -6.7813,-17.8125 -4.4923,-4.2968 -10.9923,-6.4843 -19.4687,-6.5625 l -26.25,0 z m 188.28121,1.875 0,45 26.25,0 c 8.5546,0 15.36709,-1.875 20.40625,-5.625 5.03896,-3.75 7.60146,-9.3749 7.71875,-16.875 -0.11729,-7.4999 -2.67979,-13.1249 -7.71875,-16.875 -5.03916,-3.7499 -11.85165,-5.6249 -20.40625,-5.625 l -26.25,0 z m 387.96875,244.8125 c 6.58477,0.086 12.62494,2.1512 18.09375,6.1875 5.46869,4.0366 8.35261,9.5395 8.6875,16.5 -0.2084,6.9793 -2.29174,12.7084 -6.25,17.1875 -3.95839,4.4792 -8.54172,7.0834 -13.75,7.8125 2.26736,0.4013 5.31173,1.5549 9.09375,3.4375 3.7819,1.8828 7.19366,4.57572 10.28125,8.12502 3.08745,3.5494 4.72209,8.0363 4.90625,13.4375 -0.0484,7.9167 -3.19278,15.2084 -9.46875,21.875 -6.2761,6.6667 -15.38919,10.2083 -27.3125,10.625 -5.43902,-0.1786 -10.92711,-0.9062 -16.5,-2.1562 -5.57293,-1.25 -8.59228,-1.9465 -9.03125,-2.125 l -2.15625,-17.5 c 3.19195,2.0275 7.14731,3.468 11.8125,4.3125 4.66515,0.8445 9.11158,1.2448 13.375,1.2187 5.80353,0.034 10.76781,-1.2701 14.875,-3.9375 4.10709,-2.6674 6.29458,-6.8861 6.5625,-12.6562 0.27896,-2.4851 -0.64068,-5.4702 -2.75,-8.9375 -2.10943,-3.4673 -7.09157,-5.3765 -14.9375,-5.7188 -1.53649,-0.026 -3.0484,0.026 -4.5625,0.1563 -1.51417,0.1302 -2.91893,0.4948 -4.1875,1.0937 l 0,-13.75002 c 6.40621,-1.4062 11.71871,-3.9062 15.9375,-7.5 4.2187,-3.5937 6.4062,-7.3437 6.5625,-11.25 -0.13026,-3.203 -1.43234,-5.8593 -3.90625,-7.9687 -2.474,-2.1093 -5.33859,-3.2031 -8.59375,-3.2813 -4.85123,-0.022 -8.88099,0.6385 -12.125,2 -3.24407,1.3617 -6.5774,3.5492 -10,6.5625 l -6.625,-14.8125 c 3.4412,-2.0125 8.31769,-3.9738 14.59375,-5.875 6.27601,-1.9009 12.05874,-2.9247 17.375,-3.0625 z m 86.84375,1.4375 c 10.15619,0.361 18.28119,5.3446 24.375,14.9688 6.09368,9.6243 9.21867,21.724 9.375,36.2812 -0.15633,15.26052 -3.28132,27.55212 -9.375,36.87502 -6.09381,9.3229 -14.21881,14.1146 -24.375,14.375 -10.15629,-0.2604 -18.28128,-5.0521 -24.375,-14.375 -6.09377,-9.3229 -9.21876,-21.6145 -9.375,-36.87502 0.15624,-15.2603 3.28123,-27.552 9.375,-36.875 6.09372,-9.3228 14.21871,-14.1145 24.375,-14.375 z m 87.84371,0 c 10.1562,0.361 18.2812,5.3446 24.375,14.9688 6.0937,9.6243 9.2187,21.724 9.375,36.2812 -0.1563,15.26052 -3.2813,27.55212 -9.375,36.87502 -6.0938,9.3229 -14.2188,14.1146 -24.375,14.375 -10.1563,-0.2604 -18.2813,-5.0521 -24.375,-14.375 -6.0938,-9.3229 -9.2188,-21.6145 -9.375,-36.87502 0.1562,-15.2603 3.2812,-27.552 9.375,-36.875 6.0937,-9.3228 14.2187,-14.1145 24.375,-14.375 z m -87.84371,15.5313 c -4.89587,-0.074 -8.81849,2.7709 -11.75,8.5 -2.93158,5.7292 -4.42562,14.7932 -4.5,27.2187 0.0744,12.42562 1.56842,21.48962 4.5,27.21882 2.93151,5.7291 6.85412,8.5744 11.75,8.5 4.89578,0.074 8.8184,-2.7709 11.75,-8.5 2.93149,-5.7292 4.42553,-14.7932 4.5,-27.21882 -0.0745,-12.4255 -1.56851,-21.4895 -4.5,-27.2187 -2.9316,-5.7291 -6.85422,-8.5744 -11.75,-8.5 z m 87.84371,0 c -4.8959,-0.074 -8.7872,2.7709 -11.7188,8.5 -2.9315,5.7292 -4.4568,14.7932 -4.5312,27.2187 0.074,12.42562 1.5997,21.48962 4.5312,27.21882 2.9316,5.7291 6.8229,8.5744 11.7188,8.5 4.8958,0.074 8.8184,-2.7709 11.75,-8.5 2.9315,-5.7292 4.4255,-14.7932 4.5,-27.21882 -0.074,-12.4255 -1.5685,-21.4895 -4.5,-27.2187 -2.9316,-5.7291 -6.8542,-8.5744 -11.75,-8.5 z m 102.875,15.7187 15,0 17.5,35.00002 17.5,-35.00002 15,0 6.25,70.00002 -15,0 -3.75,-48.75002 -20,40.00002 -20,-40.00002 -3.75,48.75002 -15,0 6.25,-70.00002 z"
       id="rect15325" />
    <path
       transform="matrix(10.177752,0,0,7.6360819,2367.799,-2948.4104)"
       d="m -65.613615,432.25998 c 0,16.27327 -9.89766,29.46537 -22.107042,29.46537 -12.209383,0 -22.107043,-13.1921 -22.107043,-29.46537 0,-16.27328 9.89766,-29.46537 22.107043,-29.46537 12.209382,0 22.107042,13.19209 22.107042,29.46537 z"
       sodipodi:ry="29.465372"
       sodipodi:rx="22.107042"
       sodipodi:cy="432.25998"
       sodipodi:cx="-87.720657"
       id="path15321"
       style="color:#000000;fill:#ffffff;fill-opacity:1;fill-rule:nonzero;stroke:none;stroke-width:1px;marker:none;visibility:visible;display:inline;overflow:visible;enable-background:accumulate"
       sodipodi:type="arc" />
    <path
       id="path15290"
       d="m 1474.9999,127.36223 c -124.2641,0 -225,100.73593 -225,225 0,124.26408 100.7359,224.99998 225,224.99998 124.2641,0 225,-100.7359 225,-224.99998 0,-124.26407 -100.7359,-225 -225,-225 z m 0,38.04149 c 103.2539,0 186.9585,83.70461 186.9585,186.95851 0,103.2539 -83.7046,186.95848 -186.9585,186.95848 -103.2539,0 -186.9586,-83.70458 -186.9586,-186.95848 0,-103.2539 83.7047,-186.95851 186.9586,-186.95851 z"
       style="color:#000000;fill:#ff0000;fill-opacity:1;fill-rule:nonzero;stroke:none;stroke-width:1px;marker:none;visibility:visible;display:inline;overflow:visible;enable-background:accumulate"
       inkscape:connector-curvature="0" />
    <path
       sodipodi:nodetypes="cccc"
       inkscape:connector-curvature="0"
       id="path15292"
       d="M 1429.9499,179.67028 1475,224.72034 1520.05,179.67028 z"
       style="fill:#000000;fill-opacity:1;stroke:none" />
    <path
       style="fill:#000000;fill-opacity:1;stroke:none"
       d="m 1429.9499,525.05401 45.0501,-45.05 45.05,45.05 z"
       id="path15294"
       inkscape:connector-curvature="0"
       sodipodi:nodetypes="cccc" />
    <g
       id="g15296"
       style="font-size:293.78259277px;font-style:normal;font-variant:normal;font-weight:normal;font-stretch:normal;line-height:125%;letter-spacing:-17.8064518px;word-spacing:0px;fill:#000000;fill-opacity:1;stroke:none;font-family:Arial;-inkscape-font-specification:Arial"
       transform="matrix(0.77586207,0,0,0.77586207,1242.2413,-231.36705)">
      <path
         id="path15298"
         style="fill:#000000;font-family:Russian Road Sign;-inkscape-font-specification:Russian Road Sign"
         d="m 166.86646,607.83534 10.86982,24.38364 c 5.63073,-4.95739 11.11459,-8.55617 16.45161,-10.79638 5.33693,-2.23992 11.99591,-3.34159 19.97696,-3.305 5.35527,0.12867 10.06797,1.92806 14.13811,5.39818 4.06997,3.47039 6.21211,7.84035 6.42641,13.10988 -0.25714,6.42653 -3.85593,12.59588 -10.79637,18.50807 -6.9406,5.9124 -15.68051,10.0253 -26.21976,12.33871 l 0,22.62097 c 2.087,-0.98532 4.37602,-1.58512 6.86708,-1.7994 2.49094,-0.21414 5.0003,-0.29983 7.52808,-0.25706 12.90783,0.56315 21.0969,3.69679 24.56725,9.40093 3.47016,5.70426 4.97578,10.60057 4.51685,14.68894 -0.44076,9.49276 -4.03955,16.43328 -10.79637,20.82157 -6.75698,4.38834 -14.90934,6.55496 -24.45708,6.49986 -7.01403,0.0429 -14.35849,-0.63038 -22.03342,-2.01973 -7.67499,-1.3893 -14.13812,-3.75177 -19.3894,-7.08742 l 3.52535,28.79033 c 0.72218,0.29378 5.66745,1.46889 14.83582,3.52534 9.16831,2.05645 18.22648,3.23156 27.17455,3.52535 19.61577,-0.68549 34.58624,-6.5121 44.91143,-17.47985 10.32498,-10.96772 15.52731,-22.96367 15.607,-35.9879 -0.30296,-8.88584 -2.99412,-16.24844 -8.07347,-22.08782 -5.07958,-5.83923 -10.73029,-10.30756 -16.95213,-13.40502 -6.22204,-3.09728 -11.19814,-4.97601 -14.92831,-5.63619 8.56846,-1.19951 16.10877,-5.48378 22.62096,-12.85283 6.51199,-7.36884 9.9394,-16.79423 10.28226,-28.2762 -0.55094,-11.45112 -5.32484,-20.49705 -14.32171,-27.13783 -8.99708,-6.64046 -18.9121,-10.03115 -29.74511,-10.17208 -8.7461,0.22662 -18.28166,1.90361 -28.60671,5.03096 -10.32514,3.12768 -18.31836,6.34701 -23.9797,9.65798 z"
         inkscape:connector-curvature="0" />
      <path
         id="path15300"
         style="fill:#000000;font-family:Russian Road Sign;-inkscape-font-specification:Russian Road Sign"
         d="m 306.90371,727.69709 c -5.07676,0.12815 -9.30067,1.87774 -12.67173,5.24878 -3.3711,3.37111 -5.12069,7.59501 -5.24878,12.67173 0.0986,4.63262 1.58572,8.57633 4.46134,11.83116 2.87558,3.25483 6.54795,5.22953 11.01713,5.9241 l -16.06603,25.43023 13.51383,0 c 2.05948,-2.99539 5.72559,-8.82926 10.99834,-17.50165 5.27267,-8.67241 8.60828,-14.54989 10.00684,-17.63247 0.49798,-1.2647 0.9358,-2.56166 1.31346,-3.89089 0.37757,-1.3292 0.57627,-2.71603 0.5961,-4.16048 -0.12815,-5.07671 -1.87775,-9.30062 -5.24879,-12.67173 -3.37112,-3.37105 -7.59502,-5.12064 -12.67171,-5.24878 z"
         inkscape:connector-curvature="0" />
      <path
         id="path15302"
         style="fill:#000000;font-family:Russian Road Sign;-inkscape-font-specification:Russian Road Sign"
         d="m 431.1723,624.28695 8.2258,-26.73387 -94.59677,0 0,80.20162 18.50806,10.28225 c 2.0564,-1.41374 5.14108,-3.72725 9.25403,-6.94053 4.11285,-3.21312 9.25398,-5.01251 15.42339,-5.39818 9.2968,0.38568 16.40869,3.72741 21.33568,10.02521 4.92682,6.29795 7.4117,13.23847 7.45465,20.82157 -0.51421,10.2823 -4.62711,17.99399 -12.33871,23.13508 -7.71177,5.14116 -15.93757,7.71172 -24.67742,7.71169 -6.9161,0.0796 -13.86886,-0.44676 -20.8583,-1.57906 -6.98951,-1.13224 -13.06094,-3.34782 -18.21429,-6.64674 l 4.11291,26.73387 c 0.47125,0.34275 4.66983,1.71372 12.59577,4.1129 7.92586,2.39919 16.75145,3.77016 26.47681,4.11291 19.75042,-0.42843 35.25947,-6.25504 46.52721,-17.47985 11.26753,-11.22478 17.00845,-25.27718 17.22279,-42.15725 -0.64276,-16.53723 -6.04095,-29.21867 -16.19456,-38.04436 -10.15384,-8.82551 -21.20725,-13.28115 -33.16028,-13.36693 -4.8413,-0.0856 -9.70089,0.5999 -14.57877,2.05645 -4.87801,1.45676 -8.92971,4.19869 -12.1551,8.2258 l 0,-39.07258 z"
         inkscape:connector-curvature="0" />
    </g>
    <g
       id="g15304"
       style="font-size:224.65725708px;font-style:normal;font-variant:normal;font-weight:normal;font-stretch:normal;line-height:125%;letter-spacing:0px;word-spacing:0px;fill:#000000;fill-opacity:1;stroke:none;font-family:Arial;-inkscape-font-specification:Arial"
       transform="matrix(0.77586207,0,0,0.77586207,1242.2413,-231.36705)">
      <path
         id="path15306"
         style="fill:#000000;font-family:Russian Road Sign;-inkscape-font-specification:Russian Road Sign"
         d="m 251.25005,888.8136 18.87096,0 4.71774,-61.33064 25.16129,50.32257 25.16129,-50.32257 4.71774,61.33064 18.87097,0 -7.8629,-88.06451 -18.87097,0 -22.01613,44.03225 -22.01612,-44.03225 -18.87097,0 z"
         inkscape:connector-curvature="0" />
    </g>
    <rect
       style="color:#000000;fill:none;stroke:#000000;stroke-width:2;stroke-miterlimit:4;stroke-opacity:1;stroke-dasharray:none;marker:none;visibility:visible;display:inline;overflow:visible;enable-background:accumulate"
       id="rect15332"
       width="1848"
       height="1578"
       x="1"
       y="-526.63782"
       ry="44"
       rx="44" />
  </g>
</svg>
