<?xml version="1.0" encoding="UTF-8" standalone="no"?>
<!-- Created with Inkscape (http://www.inkscape.org/) -->

<svg
   xmlns:dc="http://purl.org/dc/elements/1.1/"
   xmlns:cc="http://creativecommons.org/ns#"
   xmlns:rdf="http://www.w3.org/1999/02/22-rdf-syntax-ns#"
   xmlns:svg="http://www.w3.org/2000/svg"
   xmlns="http://www.w3.org/2000/svg"
   xmlns:sodipodi="http://sodipodi.sourceforge.net/DTD/sodipodi-0.dtd"
   xmlns:inkscape="http://www.inkscape.org/namespaces/inkscape"
   width="1050"
   height="350"
   id="svg2"
   version="1.1"
   inkscape:version="0.48.4 r9939"
   sodipodi:docname="5.25.svg">
  <title
     id="title3006">6.11 Наименование объекта</title>
  <defs
     id="defs4" />
  <sodipodi:namedview
     id="base"
     pagecolor="#ffffff"
     bordercolor="#666666"
     borderopacity="1.0"
     inkscape:pageopacity="0.0"
     inkscape:pageshadow="2"
     inkscape:zoom="0.70710678"
     inkscape:cx="386.0351"
     inkscape:cy="269.3908"
     inkscape:document-units="px"
     inkscape:current-layer="layer1"
     showgrid="false"
     inkscape:window-width="1920"
     inkscape:window-height="1024"
     inkscape:window-x="-4"
     inkscape:window-y="-4"
     inkscape:window-maximized="1"
     inkscape:snap-bbox="true"
     inkscape:bbox-paths="true"
     inkscape:bbox-nodes="true"
     inkscape:snap-bbox-edge-midpoints="true"
     inkscape:snap-bbox-midpoints="true"
     inkscape:object-paths="true"
     inkscape:snap-intersection-paths="true"
     inkscape:object-nodes="true"
     inkscape:snap-smooth-nodes="true"
     inkscape:snap-midpoints="true"
     inkscape:snap-object-midpoints="true" />
  <metadata
     id="metadata7">
    <rdf:RDF>
      <cc:Work
         rdf:about="">
        <dc:format>image/svg+xml</dc:format>
        <dc:type
           rdf:resource="http://purl.org/dc/dcmitype/StillImage" />
        <dc:title>6.11 Наименование объекта</dc:title>
        <cc:license
           rdf:resource="http://creativecommons.org/licenses/by-sa/3.0/" />
        <dc:description>ГОСТ Р 52290-2004</dc:description>
      </cc:Work>
      <cc:License
         rdf:about="http://creativecommons.org/licenses/by-sa/3.0/">
        <cc:permits
           rdf:resource="http://creativecommons.org/ns#Reproduction" />
        <cc:permits
           rdf:resource="http://creativecommons.org/ns#Distribution" />
        <cc:requires
           rdf:resource="http://creativecommons.org/ns#Notice" />
        <cc:requires
           rdf:resource="http://creativecommons.org/ns#Attribution" />
        <cc:permits
           rdf:resource="http://creativecommons.org/ns#DerivativeWorks" />
        <cc:requires
           rdf:resource="http://creativecommons.org/ns#ShareAlike" />
      </cc:License>
    </rdf:RDF>
  </metadata>
  <g
     inkscape:label="Layer 1"
     inkscape:groupmode="layer"
     id="layer1"
     transform="translate(0,-702.36218)">
    <rect
       ry="45"
       rx="45"
       style="color:#000000;fill:#ffffff;fill-opacity:1;fill-rule:nonzero;stroke:none;stroke-width:3.54299997999999980;marker:none;visibility:visible;display:inline;overflow:visible;enable-background:accumulate;opacity:1"
       id="rect7863"
       width="1050"
       height="350"
       x="0"
       y="702.36218" />
    <path
       style="color:#000000;fill:#0d69e1;fill-opacity:1;fill-rule:nonzero;stroke:none;stroke-width:3.54299998;marker:none;visibility:visible;display:inline;overflow:visible;enable-background:accumulate"
       d="M 45 10 C 25.61 10 10 25.61 10 45 L 10 305 C 10 324.39 25.61 340 45 340 L 1005 340 C 1024.39 340 1040 324.39 1040 305 L 1040 45 C 1040 25.61 1024.39 10 1005 10 L 45 10 z M 357.28125 104 L 383.53125 104 L 383.53125 164 L 439.78125 164 L 439.78125 104 L 466.03125 104 L 466.03125 254 L 439.78125 254 L 439.78125 186.5 L 383.53125 186.5 L 383.53125 254 L 357.28125 254 L 357.28125 104 z M 557.875 104 L 587.875 104 L 636.625 254 L 608.5 254 L 599.125 224 L 546.625 224 L 537.25 254 L 509.125 254 L 557.875 104 z M 679.5625 104 L 730.1875 104 C 748.70303 104.85952 761.82802 110.64076 769.5625 121.34375 C 777.29676 132.047 781.04675 142.51573 780.8125 152.75 C 780.578 162.98446 775.89051 173.4532 766.75 184.15625 C 757.60927 194.85944 745.42178 200.64068 730.1875 201.5 L 705.8125 201.5 L 705.8125 254 L 679.5625 254 L 679.5625 104 z M 872.8125 104 L 902.8125 104 L 951.5625 254 L 923.4375 254 L 914.0625 224 L 861.5625 224 L 852.1875 254 L 824.0625 254 L 872.8125 104 z M 705.8125 126.5 L 705.8125 179 L 722.6875 179 C 730.49992 179.0782 737.37492 177.04695 743.3125 172.90625 C 749.24991 168.76571 752.37491 162.04697 752.6875 152.75 C 752.3749 143.45324 749.2499 136.73449 743.3125 132.59375 C 737.37492 128.45325 730.49993 126.42201 722.6875 126.5 L 705.8125 126.5 z M 572.875 137.75 L 554.125 201.5 L 591.625 201.5 L 572.875 137.75 z M 887.8125 137.75 L 869.0625 201.5 L 906.5625 201.5 L 887.8125 137.75 z M 149.09375 145.21875 C 158.61516 145.27377 168.13468 149.02939 177.65625 156.5 C 187.81239 164.46884 193.28113 179.46883 194.0625 201.5 C 193.69201 216.95143 190.47095 228.74655 184.40625 236.90625 C 178.34133 245.06598 171.65847 250.64236 164.34375 253.59375 C 157.02886 256.54514 151.30779 257.92361 147.1875 257.75 C 139.53118 257.32031 133.28119 255.35156 128.4375 251.875 C 123.5937 248.39845 121.09371 245.9922 120.9375 244.625 L 120.9375 299 L 98.4375 299 L 98.4375 149 L 117.1875 149 C 118.03567 153.55367 119.28567 157.30367 120.9375 160.25 C 120.85932 159.62509 122.89058 157.1251 127.03125 152.75 C 131.17182 148.37511 137.89056 145.87511 147.1875 145.25 C 147.82226 145.22071 148.45899 145.21508 149.09375 145.21875 z M 147.1875 165.875 C 141.75775 165.95321 136.74883 167.67196 132.15625 171.03125 C 127.56356 174.39071 123.82249 178.92195 120.9375 184.625 L 120.9375 224 C 123.88946 228.72659 127.73767 232.38284 132.53125 235 C 137.32472 237.6172 142.2265 238.96095 147.1875 239 C 153.94523 238.84376 159.63273 235.40626 164.28125 228.6875 C 168.9296 221.96879 171.36709 212.90629 171.5625 201.5 C 171.36709 190.17194 168.92959 181.42195 164.28125 175.25 C 159.63273 169.07821 153.94523 165.95321 147.1875 165.875 z M 238.8125 222.65625 C 243.4392 222.77338 247.30045 224.36302 250.375 227.4375 C 253.44947 230.51204 255.03911 234.37329 255.15625 239 C 255.0391 243.62674 253.44946 247.48799 250.375 250.5625 C 247.30045 253.63701 243.4392 255.22665 238.8125 255.34375 C 234.18574 255.22665 230.32449 253.63701 227.25 250.5625 C 224.17547 247.488 222.58584 243.62674 222.46875 239 C 222.58583 234.37329 224.17547 230.51203 227.25 227.4375 C 230.32449 224.36302 234.18574 222.77338 238.8125 222.65625 z "
       transform="translate(0,702.36218)"
       id="rect7994" />
    <rect
       y="703.36218"
       x="1"
       height="348"
       width="1048"
       id="rect7867"
       style="color:#000000;fill:none;stroke:#000000;stroke-width:2;stroke-miterlimit:4;stroke-opacity:1;stroke-dasharray:none;marker:none;visibility:visible;display:inline;overflow:visible;enable-background:accumulate;opacity:1"
       rx="44"
       ry="44" />
  </g>
</svg>
