<?xml version="1.0" encoding="UTF-8" standalone="no"?>
<!-- Created with Inkscape (http://www.inkscape.org/) -->

<svg
   xmlns:dc="http://purl.org/dc/elements/1.1/"
   xmlns:cc="http://creativecommons.org/ns#"
   xmlns:rdf="http://www.w3.org/1999/02/22-rdf-syntax-ns#"
   xmlns:svg="http://www.w3.org/2000/svg"
   xmlns="http://www.w3.org/2000/svg"
   xmlns:sodipodi="http://sodipodi.sourceforge.net/DTD/sodipodi-0.dtd"
   xmlns:inkscape="http://www.inkscape.org/namespaces/inkscape"
   width="600"
   height="300"
   id="svg2"
   version="1.1"
   inkscape:version="0.48.4 r9939"
   sodipodi:docname="8.23.svg">
  <title
     id="title3006">8.23 Фотовидеофиксация</title>
  <defs
     id="defs4" />
  <sodipodi:namedview
     id="base"
     pagecolor="#ffffff"
     bordercolor="#666666"
     borderopacity="1.0"
     inkscape:pageopacity="0.0"
     inkscape:pageshadow="2"
     inkscape:zoom="1"
     inkscape:cx="193.5256"
     inkscape:cy="115.75633"
     inkscape:document-units="px"
     inkscape:current-layer="layer1"
     showgrid="false"
     inkscape:window-width="1920"
     inkscape:window-height="1024"
     inkscape:window-x="-4"
     inkscape:window-y="-4"
     inkscape:window-maximized="1"
     inkscape:snap-bbox="true"
     inkscape:bbox-paths="true"
     inkscape:bbox-nodes="true"
     inkscape:snap-bbox-edge-midpoints="true"
     inkscape:snap-bbox-midpoints="true"
     inkscape:object-paths="true"
     inkscape:snap-intersection-paths="true"
     inkscape:object-nodes="true"
     inkscape:snap-smooth-nodes="true"
     inkscape:snap-midpoints="true"
     inkscape:snap-object-midpoints="true"
     showguides="true"
     inkscape:guide-bbox="true" />
  <metadata
     id="metadata7">
    <rdf:RDF>
      <cc:Work
         rdf:about="">
        <dc:format>image/svg+xml</dc:format>
        <dc:type
           rdf:resource="http://purl.org/dc/dcmitype/StillImage" />
        <dc:title>8.23 Фотовидеофиксация</dc:title>
        <cc:license
           rdf:resource="http://creativecommons.org/licenses/by-sa/3.0/" />
        <dc:description>ГОСТ Р 52290-2004
Размеры и пропорции по типоразмеру I</dc:description>
      </cc:Work>
      <cc:License
         rdf:about="http://creativecommons.org/licenses/by-sa/3.0/">
        <cc:permits
           rdf:resource="http://creativecommons.org/ns#Reproduction" />
        <cc:permits
           rdf:resource="http://creativecommons.org/ns#Distribution" />
        <cc:requires
           rdf:resource="http://creativecommons.org/ns#Notice" />
        <cc:requires
           rdf:resource="http://creativecommons.org/ns#Attribution" />
        <cc:permits
           rdf:resource="http://creativecommons.org/ns#DerivativeWorks" />
        <cc:requires
           rdf:resource="http://creativecommons.org/ns#ShareAlike" />
      </cc:License>
    </rdf:RDF>
  </metadata>
  <g
     inkscape:label="Layer 1"
     inkscape:groupmode="layer"
     id="layer1"
     transform="translate(0,-752.36218)">
    <rect
       y="752.36218"
       x="0"
       height="300"
       width="600"
       id="rect5622"
       style="opacity:1;color:#000000;fill:#000000;fill-opacity:1;fill-rule:nonzero;stroke:none;stroke-width:3.54299997999999980;marker:none;visibility:visible;display:inline;overflow:visible;enable-background:accumulate"
       rx="45"
       ry="45" />
    <rect
       y="762.36212"
       x="10"
       height="280"
       width="580"
       id="rect9537"
       style="color:#000000;fill:#ffffff;fill-opacity:1;fill-rule:nonzero;stroke:none;stroke-width:3.54299997999999980;marker:none;visibility:visible;display:inline;overflow:visible;enable-background:accumulate;opacity:1"
       rx="35"
       ry="35" />
    <path
       inkscape:connector-curvature="0"
       style="opacity:1;color:#000000;fill:#000000;fill-opacity:1;fill-rule:nonzero;stroke:none;stroke-width:1px;marker:none;visibility:visible;display:inline;overflow:visible;enable-background:accumulate"
       d="m 364.6875,856.42467 c -41.42136,0 -75,33.57864 -75,75 0,41.42136 33.57864,75.00003 75,75.00003 41.42136,0 75,-33.57867 75,-75.00003 0,-41.42136 -33.57864,-75 -75,-75 z m 0,15 c 33.13708,0 60,26.86292 60,60 0,33.13708 -26.86292,60.00003 -60,60.00003 -33.13708,0 -60,-26.86295 -60,-60.00003 0,-33.13708 26.86292,-60 60,-60 z"
       id="path21141" />
    <path
       inkscape:connector-curvature="0"
       style="opacity:1;color:#000000;fill:#000000;fill-opacity:1;fill-rule:nonzero;stroke:none;stroke-width:1px;marker:none;visibility:visible;display:inline;overflow:visible;enable-background:accumulate"
       d="m 364.6875,880.79967 c -27.95942,0 -50.625,22.66558 -50.625,50.625 0,27.95942 22.66558,50.625 50.625,50.625 27.95942,0 50.625,-22.66558 50.625,-50.625 0,-27.95942 -22.66558,-50.625 -50.625,-50.625 z m 0,14.0625 c 20.19291,0 36.5625,16.36959 36.5625,36.5625 0,20.19292 -16.36959,36.5625 -36.5625,36.5625 -20.19291,0 -36.5625,-16.36958 -36.5625,-36.5625 0,-20.19291 16.36959,-36.5625 36.5625,-36.5625 z"
       id="path21145" />
    <path
       inkscape:connector-curvature="0"
       style="opacity:1;color:#000000;fill:#000000;fill-opacity:1;fill-rule:nonzero;stroke:none;stroke-width:1px;marker:none;visibility:visible;display:inline;overflow:visible;enable-background:accumulate"
       d="m 423.36914,779.78405 c -1.29441,0 -2.34375,1.04933 -2.34375,2.34375 l 0,31.64062 -27.53906,0.17578 c -1.28051,0.0161 -2.31446,1.05941 -2.31446,2.34375 0,0.93472 0.55615,1.73309 1.34766,2.10938 l 0,0.0292 c 0.0264,0.0124 0.0609,0.018 0.0878,0.0293 l 22.61719,10.34179 -16.52344,16.43555 c -0.0244,0.0244 -0.0354,0.0626 -0.0586,0.0878 l -4.89253,-3.25177 0,-14.70703 -30.9375,0 0,17.37305 c -19.19681,0.40959 -36.85491,7.0484 -51.03516,17.98828 L 151.875,862.04967 c -11.39081,-0.0469 -20.625,9.23409 -20.625,20.625 l 0,126.56253 c 0,7.2487 5.87625,13.125 13.125,13.125 l 288.75,0 c 11.39091,0 20.625,-9.2341 20.625,-20.625 l 0,-119.67776 -22.41211,-14.94141 c 0.0273,-0.0398 0.0631,-0.0757 0.0878,-0.11719 l 12.89063,-21.65039 22.00195,12.74414 c 0.37407,0.25272 0.83295,0.38086 1.31836,0.38086 1.29442,0 2.34375,-1.04933 2.34375,-2.34375 0,-0.31389 -0.0638,-0.6053 -0.17578,-0.8789 l -7.20703,-17.90039 15.82031,-7.06055 c 0.84121,-0.3558 1.43555,-1.19716 1.43555,-2.16797 0,-1.08965 -0.75039,-1.99332 -1.75781,-2.25586 l 0,-0.0292 -21.18164,-5.27344 8.61328,-17.10937 c 0.25271,-0.37406 0.41015,-0.83295 0.41015,-1.31836 0,-1.29442 -1.04933,-2.34375 -2.34375,-2.34375 -0.3236,0 -0.62779,0.0864 -0.9082,0.20508 l 0,-0.0292 -22.17773,9.16992 -15,-27.91992 c -0.0305,-0.072 -0.0507,-0.13694 -0.0878,-0.20508 l -0.0293,0 c -0.39979,-0.72061 -1.139,-1.23047 -2.02148,-1.23047 z m 2.34375,11.71875 11.57227,21.5332 c 0.3558,0.84121 1.19716,1.43555 2.16797,1.43555 0.31389,0 0.6053,-0.0639 0.8789,-0.17579 l 18.31055,-7.58789 -7.20703,14.35547 c -0.1623,0.31879 -0.23438,0.67245 -0.23438,1.05469 0,1.13261 0.80699,2.0959 1.875,2.31445 l 17.28516,4.33594 -11.74805,5.21484 0,0.0293 c -0.80932,0.36932 -1.37695,1.16168 -1.37695,2.10938 0,0.39709 0.0893,0.78554 0.26367,1.11328 l 5.41992,13.44727 -18.10547,-10.48828 c -0.37406,-0.25272 -0.83295,-0.38086 -1.31836,-0.38086 -0.97081,0 -1.81216,0.56504 -2.16796,1.40625 l -9.63868,16.14262 -0.0878,-15.20508 c 0,-1.29441 -1.04934,-2.34375 -2.34375,-2.34375 -0.19417,0 -0.37622,0.0141 -0.55664,0.0586 l -21.50391,3.51562 13.74019,-13.65234 c 0.42413,-0.42414 0.70313,-1.02271 0.70313,-1.66992 0,-0.94633 -0.56953,-1.7393 -1.37696,-2.10938 l -0.0586,-0.0293 c -0.008,-0.004 -0.0208,0.004 -0.0292,0 l -16.05469,-7.35351 19.24805,-0.11719 c 1.29441,0 2.34375,-1.04934 2.34375,-2.34375 l 0,-24.60938 z m 1.23047,53.4082 0.11719,19.33594 -23.34961,-15.52735 23.23242,-3.80859 z m -62.25586,4.48242 c 45.30459,0 82.03125,36.72666 82.03125,82.03125 0,45.30459 -36.72666,82.03123 -82.03125,82.03123 -45.30459,0 -82.03125,-36.72664 -82.03125,-82.03123 0,-45.30459 36.72666,-82.03125 82.03125,-82.03125 z m -185.625,31.40625 c 15.01528,0 27.1875,6.29597 27.1875,14.0625 0,7.76653 -12.17222,14.0625 -27.1875,14.0625 -15.01528,0 -27.1875,-6.29597 -27.1875,-14.0625 0,-7.76653 12.17222,-14.0625 27.1875,-14.0625 z"
       id="path10271" />
    <path
       transform="matrix(1.2298118,0,0,0.92269326,472.56739,532.58125)"
       d="m -65.613615,432.25998 a 22.107042,29.465372 0 1 1 -44.214085,0 22.107042,29.465372 0 1 1 44.214085,0 z"
       sodipodi:ry="29.465372"
       sodipodi:rx="22.107042"
       sodipodi:cy="432.25998"
       sodipodi:cx="-87.720657"
       id="path21149"
       style="opacity:1;color:#000000;fill:#000000;fill-opacity:1;fill-rule:nonzero;stroke:none;stroke-width:1px;marker:none;visibility:visible;display:inline;overflow:visible;enable-background:accumulate"
       sodipodi:type="arc" />
    <path
       sodipodi:type="arc"
       style="opacity:1;color:#000000;fill:#000000;fill-opacity:1;fill-rule:nonzero;stroke:none;stroke-width:1px;marker:none;visibility:visible;display:inline;overflow:visible;enable-background:accumulate"
       id="path12022"
       sodipodi:cx="-87.720657"
       sodipodi:cy="432.25998"
       sodipodi:rx="22.107042"
       sodipodi:ry="29.465372"
       d="m -65.613615,432.25998 a 22.107042,29.465372 0 1 1 -44.214085,0 22.107042,29.465372 0 1 1 44.214085,0 z"
       transform="matrix(0.88825239,0,0,0.2237249,257.03145,798.18449)" />
  </g>
</svg>
