<?xml version="1.0" encoding="UTF-8" standalone="no"?>
<!-- Created with Inkscape (http://www.inkscape.org/) -->

<svg
   xmlns:dc="http://purl.org/dc/elements/1.1/"
   xmlns:cc="http://creativecommons.org/ns#"
   xmlns:rdf="http://www.w3.org/1999/02/22-rdf-syntax-ns#"
   xmlns:svg="http://www.w3.org/2000/svg"
   xmlns="http://www.w3.org/2000/svg"
   xmlns:sodipodi="http://sodipodi.sourceforge.net/DTD/sodipodi-0.dtd"
   xmlns:inkscape="http://www.inkscape.org/namespaces/inkscape"
   width="1500"
   height="1150"
   id="svg2"
   version="1.1"
   inkscape:version="0.48.4 r9939"
   sodipodi:docname="6.9.1 E.svg">
  <title
     id="title3006">6.9.1 Предварительный указатель направлений</title>
  <defs
     id="defs4" />
  <sodipodi:namedview
     id="base"
     pagecolor="#ffffff"
     bordercolor="#666666"
     borderopacity="1.0"
     inkscape:pageopacity="0.0"
     inkscape:pageshadow="2"
     inkscape:zoom="1"
     inkscape:cx="828.44917"
     inkscape:cy="368.10588"
     inkscape:document-units="px"
     inkscape:current-layer="layer1"
     showgrid="false"
     inkscape:window-width="1920"
     inkscape:window-height="1024"
     inkscape:window-x="-4"
     inkscape:window-y="-4"
     inkscape:window-maximized="1"
     inkscape:snap-bbox="true"
     inkscape:bbox-paths="true"
     inkscape:bbox-nodes="true"
     inkscape:snap-bbox-edge-midpoints="true"
     inkscape:snap-bbox-midpoints="true"
     inkscape:object-paths="true"
     inkscape:snap-intersection-paths="true"
     inkscape:object-nodes="true"
     inkscape:snap-smooth-nodes="true"
     inkscape:snap-midpoints="true"
     inkscape:snap-object-midpoints="true"
     showguides="true"
     inkscape:guide-bbox="true" />
  <metadata
     id="metadata7">
    <rdf:RDF>
      <cc:Work
         rdf:about="">
        <dc:format>image/svg+xml</dc:format>
        <dc:type
           rdf:resource="http://purl.org/dc/dcmitype/StillImage" />
        <dc:title>6.9.1 Предварительный указатель направлений</dc:title>
        <cc:license
           rdf:resource="http://creativecommons.org/licenses/by-sa/3.0/" />
        <dc:description>ГОСТ Р 52290-2004</dc:description>
      </cc:Work>
      <cc:License
         rdf:about="http://creativecommons.org/licenses/by-sa/3.0/">
        <cc:permits
           rdf:resource="http://creativecommons.org/ns#Reproduction" />
        <cc:permits
           rdf:resource="http://creativecommons.org/ns#Distribution" />
        <cc:requires
           rdf:resource="http://creativecommons.org/ns#Notice" />
        <cc:requires
           rdf:resource="http://creativecommons.org/ns#Attribution" />
        <cc:permits
           rdf:resource="http://creativecommons.org/ns#DerivativeWorks" />
        <cc:requires
           rdf:resource="http://creativecommons.org/ns#ShareAlike" />
      </cc:License>
    </rdf:RDF>
  </metadata>
  <g
     inkscape:label="Layer 1"
     inkscape:groupmode="layer"
     id="layer1"
     transform="translate(0,97.63782)">
    <rect
       rx="45"
       ry="45"
       y="-97.637817"
       x="0"
       height="1150"
       width="1500"
       id="rect7953"
       style="opacity:1;color:#000000;fill:#ffffff;fill-opacity:1;fill-rule:nonzero;stroke:none;stroke-width:3.54299997999999980;marker:none;visibility:visible;display:inline;overflow:visible;enable-background:accumulate" />
    <path
       inkscape:connector-curvature="0"
       style="opacity:1;color:#000000;fill:#000000;fill-opacity:1;fill-rule:nonzero;stroke:none;stroke-width:3.54299997999999980;marker:none;visibility:visible;display:inline;overflow:visible;enable-background:accumulate"
       d="m 45,-85.637823 c -18.282,0 -33,14.718 -33,33 L 12,1007.3622 c 0,18.282 14.718,33 33,33 l 1410,0 c 18.282,0 33,-14.718 33,-33 l 0,-1060.000023 c 0,-18.282 -14.718,-33 -33,-33 l -1410,0 z m 0,6 1410,0 c 14.958,0 27,12.042 27,27 l 0,1060.000023 c 0,14.958 -12.042,27 -27,27 l -1257.125,0 0,-197.2813 799.1875,-424.9375 22.5313,42.375 79.5,-127.18747 -149.9063,-5.25 22.53125,42.375 -773.84375,411.46877 0,-613.56252 48,0 -75,-129.906253 -75,129.906253 48,0 0,872.00002 -98.875,0 c -14.958,0 -27,-12.042 -27,-27 L 18,-52.637823 c 0,-14.958 12.042,-27 27,-27 z"
       id="rect7955" />
    <path
       sodipodi:type="arc"
       style="opacity:1;color:#000000;fill:#ffffff;fill-opacity:1;fill-rule:nonzero;stroke:none;stroke-width:1px;marker:none;visibility:visible;display:inline;overflow:visible;enable-background:accumulate"
       id="path7951"
       sodipodi:cx="-87.720657"
       sodipodi:cy="432.25998"
       sodipodi:rx="22.107042"
       sodipodi:ry="29.465372"
       d="m -65.613615,432.25998 c 0,16.27327 -9.89766,29.46537 -22.107042,29.46537 -12.209383,0 -22.107043,-13.1921 -22.107043,-29.46537 0,-16.27328 9.89766,-29.46537 22.107043,-29.46537 12.209382,0 22.107042,13.19209 22.107042,29.46537 z"
       transform="matrix(5.6379783,0,0,4.2300169,889.5671,-1126.1048)" />
    <g
       style="font-size:178.57307434px;font-style:normal;font-variant:normal;font-weight:normal;font-stretch:normal;line-height:125%;letter-spacing:-4px;word-spacing:0px;fill:#000000;fill-opacity:1;stroke:none;font-family:Arial;-inkscape-font-specification:Arial"
       id="text7949-1">
      <path
         d="m 290,62.362439 0,69.999741 14.99995,0 0,-56.249792 26.2499,0 0,56.249792 14.99995,0 0,-69.999741 z"
         style="fill:#000000;font-family:Russian Road Sign;-inkscape-font-specification:Russian Road Sign"
         id="path9738" />
      <path
         d="m 383.33896,62.362439 c 0.008,4.828089 -0.10695,10.668009 -0.34392,17.519776 -0.23702,6.851872 -0.64266,13.247344 -1.21693,19.186435 -0.57431,5.93916 -1.36355,9.95369 -2.36771,12.04361 -1.59971,2.84971 -3.57887,5.05208 -5.93748,6.60712 -2.35864,1.55507 -4.60565,2.50744 -6.74104,2.85713 l 2.85713,14.28566 c 10.15426,-2.66974 17.0678,-7.19133 20.74066,-13.56477 3.67279,-6.37341 5.67895,-13.58017 6.0185,-21.620287 0.33947,-8.040052 0.58638,-15.894953 0.74074,-23.564725 l 19.99993,0 0,56.249792 14.99994,0 0,-69.999741 z"
         style="fill:#000000;font-family:Russian Road Sign;-inkscape-font-specification:Russian Road Sign"
         id="path9740" />
      <path
         d="m 475.21588,122.36222 c -0.0781,-3.08446 -1.14196,-5.65153 -3.1916,-7.70122 -2.04969,-2.04965 -4.61676,-3.11351 -7.70122,-3.1916 -3.08449,0.0781 -5.65156,1.14196 -7.70122,3.1916 -2.04967,2.04969 -3.11354,4.61676 -3.1916,7.70122 0.0781,3.08448 1.14193,5.65155 3.19161,7.70121 2.04965,2.04967 4.61672,3.11354 7.70121,3.19161 3.08446,-0.0781 5.65153,-1.14193 7.70122,-3.1916 2.04963,-2.04967 3.1135,-4.61674 3.1916,-7.70122 z"
         style="fill:#000000;font-family:Russian Road Sign;-inkscape-font-specification:Russian Road Sign"
         id="path9742" />
      <path
         d="m 531.68227,32.362548 0,99.999632 17.49993,0 0,-84.999686 37.49987,0 0,84.999686 17.49993,0 0,-99.999632 z"
         style="fill:#000000;font-family:Russian Road Sign;-inkscape-font-specification:Russian Road Sign"
         id="path9744" />
      <path
         d="m 642.66366,131.82647 c 0.59893,0.27158 1.58851,0.48735 2.96874,0.64732 1.38017,0.15996 3.30725,0.24181 5.78123,0.24553 4.59041,-0.10476 9.18691,-1.69821 13.78952,-4.78034 4.60252,-3.08212 7.92264,-7.02436 9.96039,-11.82674 l 32.49988,-83.749692 -18.74993,0 -19.99992,52.499808 -23.74992,-52.499808 -18.74993,0 c 0.17949,0.361428 1.9745,4.091879 5.38502,11.191365 3.4105,7.099664 7.35951,15.400406 11.84706,24.902252 4.48748,9.501974 8.4365,18.037089 11.84705,25.605372 3.41047,7.568363 5.20548,12.001933 5.38503,13.300733 -0.1091,2.05731 -1.32424,4.19272 -3.64541,6.40623 -2.32125,2.21355 -5.09419,3.41146 -8.31883,3.59374 -2.60419,-0.0521 -4.89585,-0.2604 -6.87498,-0.625 -1.97918,-0.36457 -3.02084,-0.5729 -3.12498,-0.625 z"
         style="fill:#000000;font-family:Russian Road Sign;-inkscape-font-specification:Russian Road Sign"
         id="path9746" />
      <path
         d="m 727.51227,132.36218 109.9996,0 0,-99.999632 -17.49993,0 0,84.999692 -28.7499,0 0,-84.999692 -17.49993,0 0,84.821122 -28.7499,0.17857 0,-84.999692 -17.49994,0 z"
         style="fill:#000000;font-family:Russian Road Sign;-inkscape-font-specification:Russian Road Sign"
         id="path9748" />
      <path
         d="m 863.37128,32.362548 0,99.999632 17.49994,0 0,-45.714116 c 0.15581,-0.02227 1.0925,-0.11156 2.81008,-0.267859 1.7175,-0.156206 3.2808,-0.24549 4.68989,-0.267853 3.68468,0.02841 6.78331,1.126808 9.2959,3.29519 2.5125,2.168469 4.83051,5.236721 6.95404,9.204764 3.34443,5.937504 6.96792,12.187474 10.8705,18.749934 3.90244,6.56248 6.76701,11.56246 8.59372,14.99994 l 21.78563,0 c -4.33593,-3.57744 -8.27431,-8.46155 -11.81514,-14.65234 -3.541,-6.19077 -7.10259,-12.55661 -10.68478,-19.097534 -2.8542,-5.499892 -5.81251,-10.226046 -8.87494,-14.178476 -3.06257,-3.952335 -7.60422,-6.309481 -13.62497,-7.071446 2.55252,-0.336746 5.48054,-2.468671 8.78405,-6.395781 3.30338,-3.926988 6.20867,-7.628369 8.71588,-11.104155 2.50673,-3.663948 4.89613,-6.645325 7.16821,-8.944143 2.27192,-2.298654 5.71583,-3.483924 10.33173,-3.555811 l -3.74999,-17.499936 c -8.53399,1.303006 -15.35495,5.224946 -20.46289,11.765831 -5.10806,6.541066 -9.7994,12.883628 -14.07402,19.027705 -4.27472,6.14422 -9.42902,9.272513 -15.46291,9.384888 -0.36069,-0.01893 -0.62182,-0.05439 -0.78336,-0.106385 -0.16162,-0.05187 -0.31716,-0.135457 -0.46663,-0.250757 l 0,-37.321292 z"
         style="fill:#000000;font-family:Russian Road Sign;-inkscape-font-specification:Russian Road Sign"
         id="path9750" />
      <path
         d="m 1038.1025,132.36218 0,-99.999632 -18.75,0 -36.24984,68.749752 0,-68.749752 -17.49994,0 0,99.999632 18.74994,0 36.24984,-68.749746 0,68.749746 z"
         style="fill:#000000;font-family:Russian Road Sign;-inkscape-font-specification:Russian Road Sign"
         id="path9752" />
      <path
         d="m 1066.5842,132.36218 17.4999,0 0,-44.999833 37.4999,0 0,44.999833 17.4999,0 0,-99.999632 -17.4999,0 0,39.999854 -37.4999,0 0,-39.999854 -17.4999,0 z"
         style="fill:#000000;font-family:Russian Road Sign;-inkscape-font-specification:Russian Road Sign"
         id="path9754" />
      <path
         d="m 1193.8155,97.362311 12.5,-42.499845 12.4999,42.499845 z m 2.5,-64.999763 -32.4999,99.999632 18.75,0 6.2499,-19.99992 34.9999,0 6.25,19.99992 18.7499,0 -32.4999,-99.999632 z"
         style="fill:#000000;font-family:Russian Road Sign;-inkscape-font-specification:Russian Road Sign"
         id="path9756" />
    </g>
    <g
       style="font-size:178.57307434px;font-style:normal;font-variant:normal;font-weight:normal;font-stretch:normal;line-height:125%;letter-spacing:-4.5px;word-spacing:0px;fill:#000000;fill-opacity:1;stroke:none;font-family:Arial;-inkscape-font-specification:Arial"
       id="text7949-4">
      <path
         d="m 626.24995,747.36213 4.82141,14.28566 c 1.85637,0.34223 3.05428,0.55056 3.59374,0.62499 0.53941,0.0744 1.06768,0.10414 1.58481,0.0893 3.88017,-0.0261 7.68224,-1.22398 11.40621,-3.59374 3.72391,-2.36981 6.58848,-5.75521 8.59372,-10.15621 l 28.74989,-86.24968 -17.49993,0 -13.74995,46.24983 -16.24994,-46.24983 -17.49994,0 26.78562,69.99974 c -0.93331,3.7743 -2.47334,7.36753 -4.6201,10.77973 -2.14681,3.41217 -5.36866,5.23558 -9.66556,5.47021 -0.65106,0.026 -1.53648,-0.0261 -2.65624,-0.15624 -1.11981,-0.13023 -2.31772,-0.49481 -3.59374,-1.09375 z"
         style="fill:#000000;font-family:Russian Road Sign;-inkscape-font-specification:Russian Road Sign"
         id="path9759" />
      <path
         d="m 712.86951,662.36244 c 0.008,4.82809 -0.10695,10.66801 -0.34392,17.51977 -0.23702,6.85188 -0.64266,13.24735 -1.21693,19.18644 -0.57431,5.93916 -1.36355,9.95369 -2.36771,12.04361 -1.59972,2.84971 -3.57887,5.05208 -5.93748,6.60712 -2.35864,1.55507 -4.60565,2.50744 -6.74105,2.85713 l 2.85714,14.28566 c 10.15426,-2.66974 17.0678,-7.19133 20.74066,-13.56477 3.67279,-6.37341 5.67895,-13.58017 6.0185,-21.62029 0.33946,-8.04005 0.58638,-15.89495 0.74074,-23.56472 l 19.99992,0 0,56.24979 14.99995,0 0,-69.99974 z"
         style="fill:#000000;font-family:Russian Road Sign;-inkscape-font-specification:Russian Road Sign"
         id="path9761" />
      <path
         d="m 804.24643,722.36222 c -0.0781,-3.08446 -1.14196,-5.65153 -3.1916,-7.70122 -2.04969,-2.04965 -4.61676,-3.11351 -7.70122,-3.1916 -3.08449,0.0781 -5.65156,1.14196 -7.70122,3.1916 -2.04968,2.04969 -3.11354,4.61676 -3.1916,7.70122 0.0781,3.08448 1.14193,5.65155 3.19161,7.70121 2.04965,2.04967 4.61672,3.11354 7.70121,3.19161 3.08446,-0.0781 5.65153,-1.14193 7.70122,-3.1916 2.04963,-2.04967 3.1135,-4.61674 3.1916,-7.70122 z"
         style="fill:#000000;font-family:Russian Road Sign;-inkscape-font-specification:Russian Road Sign"
         id="path9763" />
      <path
         d="m 860.21282,732.36218 17.49993,0 0,-84.99969 44.99984,0 0,-14.99994 -62.49977,0 z"
         style="fill:#000000;font-family:Russian Road Sign;-inkscape-font-specification:Russian Road Sign"
         id="path9765" />
      <path
         d="m 980.55166,629.86256 c -13.72767,0.37956 -23.95084,5.51347 -30.66954,15.40173 -6.71874,9.88843 -10.06693,22.25445 -10.0446,37.09808 -0.0223,14.84373 3.32587,27.20974 10.04461,37.09807 6.71869,9.88837 16.94186,15.02227 30.66953,15.40173 13.72756,-0.37946 23.95074,-5.51337 30.66954,-15.40173 6.7186,-9.88833 10.0668,-22.25434 10.0446,-37.09807 0.022,-14.84364 -3.326,-27.20965 -10.0446,-37.09809 -6.7188,-9.88825 -16.94198,-15.02216 -30.66954,-15.40172 z m 0,16.24994 c 7.00512,0.10425 12.68217,3.3334 17.03118,9.68746 4.34886,6.35422 6.58846,15.20834 6.71876,26.56241 -0.1303,11.35416 -2.3699,20.20829 -6.71876,26.5624 -4.349,6.35416 -10.02606,9.58331 -17.03118,9.68746 -7.00523,-0.10415 -12.68229,-3.3333 -17.03119,-9.68746 -4.34898,-6.35412 -6.58855,-15.20824 -6.71873,-26.5624 0.13018,-11.35407 2.36976,-20.2082 6.71873,-26.56241 4.34891,-6.35406 10.02596,-9.58321 17.03119,-9.68746 z"
         style="fill:#000000;font-family:Russian Road Sign;-inkscape-font-specification:Russian Road Sign"
         id="path9767" />
      <path
         d="m 1044.7832,732.36218 17.5,0 0,-84.99969 44.9998,0 0,-14.99994 -62.4998,0 z"
         style="fill:#000000;font-family:Russian Road Sign;-inkscape-font-specification:Russian Road Sign"
         id="path9769" />
      <path
         d="m 1165.1221,629.86256 c -13.7277,0.37956 -23.9508,5.51347 -30.6695,15.40173 -6.7188,9.88843 -10.067,22.25445 -10.0446,37.09808 -0.022,14.84373 3.3258,27.20974 10.0446,37.09807 6.7187,9.88837 16.9418,15.02227 30.6695,15.40173 13.7276,-0.37946 23.9507,-5.51337 30.6695,-15.40173 6.7187,-9.88833 10.0669,-22.25434 10.0446,-37.09807 0.022,-14.84364 -3.3259,-27.20965 -10.0446,-37.09809 -6.7188,-9.88825 -16.9419,-15.02216 -30.6695,-15.40172 z m 0,16.24994 c 7.0051,0.10425 12.6822,3.3334 17.0312,9.68746 4.3488,6.35422 6.5884,15.20834 6.7187,26.56241 -0.1303,11.35416 -2.3699,20.20829 -6.7187,26.5624 -4.349,6.35416 -10.0261,9.58331 -17.0312,9.68746 -7.0052,-0.10415 -12.6823,-3.3333 -17.0312,-9.68746 -4.349,-6.35412 -6.5885,-15.20824 -6.7187,-26.5624 0.1302,-11.35407 2.3697,-20.2082 6.7187,-26.56241 4.3489,-6.35406 10.026,-9.58321 17.0312,-9.68746 z"
         style="fill:#000000;font-family:Russian Road Sign;-inkscape-font-specification:Russian Road Sign"
         id="path9771" />
      <path
         d="m 1243.1036,632.36255 c 0.01,7.77784 -0.01,16.38891 -0.046,25.83323 -0.039,9.44448 -0.1466,18.05555 -0.3241,25.83324 -0.1775,7.77779 -0.4707,13.05555 -0.8796,15.83328 -0.9667,4.55358 -2.9619,8.16468 -5.9854,10.83329 -3.0236,2.66866 -5.9182,4.57341 -8.6839,5.71426 -2.7656,1.14089 -4.2449,1.69644 -4.4378,1.66667 l 2.8572,16.78565 c 0.3505,0.18518 3.0026,-0.46296 7.9563,-1.94444 4.9536,-1.48147 10.1057,-4.90738 15.4563,-10.27774 5.3504,-5.37033 8.7962,-13.79622 10.3372,-25.27768 0.4089,-4.55241 0.7021,-10.72522 0.8797,-18.51845 0.1774,-7.79312 0.2854,-14.89186 0.324,-21.29622 0.039,-6.40422 0.054,-9.79926 0.046,-10.18515 l 27.4999,0 0,84.99969 17.5,0 0,-99.99963 z"
         style="fill:#000000;font-family:Russian Road Sign;-inkscape-font-specification:Russian Road Sign"
         id="path9773" />
      <path
         d="m 1406.1714,632.36255 -36.2499,0 c -12.2917,0.52093 -20.8333,3.85425 -25.6249,9.99996 -4.7917,6.1459 -7.0833,11.9792 -6.875,17.49994 0.1042,6.93084 2.0833,12.62277 5.9375,17.07582 3.8541,4.45316 8.9583,7.33262 15.3124,8.63837 -2.6214,0.70757 -5.4077,2.45769 -8.3588,5.25036 -2.9512,2.79275 -5.1649,5.80452 -6.6411,9.0353 -1.3476,3.12367 -3.2658,7.09972 -5.7546,11.92817 -2.4888,4.8285 -4.9625,9.26752 -7.4212,13.31707 -2.4587,4.04956 -4.3168,6.46777 -5.5741,7.25464 l 21.2499,0 c 2.4394,-4.2994 4.6541,-8.40138 6.6442,-12.30596 1.9899,-3.90454 4.1186,-8.06514 6.3859,-12.4818 1.9369,-4.26365 4.1047,-7.83609 6.5034,-10.71734 2.3985,-2.88117 6.304,-4.37942 11.7164,-4.49475 l 11.2499,0 0,39.99985 17.5,0 z m -17.5,14.99994 0,29.99989 -14.9999,0 c -5.1563,0.0447 -9.5313,-1.11601 -13.125,-3.48213 -3.5937,-2.366 -5.4687,-6.20527 -5.6249,-11.51781 0.2083,-5.31241 2.2916,-9.15167 6.2499,-11.51782 3.9583,-2.36598 8.5416,-3.52669 13.75,-3.48213 z"
         style="fill:#000000;font-family:Russian Road Sign;-inkscape-font-specification:Russian Road Sign"
         id="path9775" />
    </g>
    <g
       style="font-size:133.93029785px;font-style:normal;font-variant:normal;font-weight:normal;font-stretch:normal;line-height:125%;letter-spacing:-4px;word-spacing:0px;fill:#000000;fill-opacity:1;stroke:none;font-family:Arial;-inkscape-font-specification:Arial"
       id="text7949-9">
      <path
         d="m 691.04645,904.54919 3.75,-12.1875 -43.125,0 0,36.5625 8.4375,4.6875 c 0.93748,-0.6445 2.34372,-1.69918 4.21875,-3.16406 1.87497,-1.46481 4.21872,-2.28512 7.03125,-2.46094 4.23824,0.17583 7.48043,1.69926 9.72656,4.57032 2.24605,2.87112 3.37886,6.03518 3.39844,9.49218 -0.23442,4.68752 -2.10942,8.20315 -5.625,10.54688 -3.51566,2.34376 -7.26566,3.51564 -11.25,3.51562 -3.15293,0.0363 -6.32257,-0.20367 -9.50893,-0.71986 -3.1864,-0.51617 -5.95425,-1.52622 -8.30357,-3.03014 l 1.875,12.1875 c 0.21483,0.15626 2.12889,0.78126 5.74219,1.875 3.61326,1.09375 7.63669,1.71875 12.07031,1.875 9.00386,-0.19531 16.07417,-2.85156 21.21093,-7.96875 5.13667,-5.11718 7.75385,-11.52342 7.85157,-19.21875 -0.29303,-7.53903 -2.75396,-13.32027 -7.38282,-17.34375 -4.62895,-4.02339 -9.66801,-6.05464 -15.11718,-6.09375 -2.20707,-0.039 -4.42247,0.27349 -6.64621,0.9375 -2.2238,0.66411 -4.07089,1.91411 -5.54129,3.75 l 0,-17.8125 z"
         style="fill:#000000;font-family:Russian Road Sign;-inkscape-font-specification:Russian Road Sign"
         id="path9778" />
      <path
         d="m 737.02776,891.42419 c -7.61721,0.19539 -13.71096,3.78914 -18.28125,10.78125 -4.57032,6.99225 -6.91407,16.21099 -7.03125,27.65625 0.11718,11.44534 2.46093,20.66408 7.03125,27.65625 4.57029,6.99219 10.66404,10.58594 18.28125,10.78125 7.61715,-0.19531 13.71089,-3.78906 18.28125,-10.78125 4.57026,-6.99217 6.91401,-16.21091 7.03125,-27.65625 -0.11724,-10.91792 -2.46099,-19.98599 -7.03125,-27.20424 -4.57036,-7.21812 -10.6641,-10.96254 -18.28125,-11.23326 z m 0,11.65179 c 3.67184,-0.0557 6.60711,2.06479 8.80581,6.3616 2.19861,4.29693 3.32585,11.10496 3.38169,20.42411 -0.0558,9.31923 -1.18308,16.12726 -3.38169,20.42411 -2.1987,4.29689 -5.13397,6.41742 -8.80581,6.36161 -3.6719,0.0558 -6.60717,-2.06472 -8.8058,-6.36161 -2.19868,-4.29686 -3.32592,-11.10488 -3.3817,-20.42411 0.0558,-9.31915 1.18302,-16.12718 3.3817,-20.42411 2.19863,-4.29681 5.1339,-6.41734 8.8058,-6.3616 z"
         style="fill:#000000;font-family:Russian Road Sign;-inkscape-font-specification:Russian Road Sign"
         id="path9780" />
      <path
         d="m 792.07858,967.36169 11.25,0 2.8125,-36.5625 15,30 15,-30 2.8125,36.5625 11.25,0 -4.6875,-52.5 -11.25,0 -13.125,26.25 -13.125,-26.25 -11.25,0 z"
         style="fill:#000000;font-family:Russian Road Sign;-inkscape-font-specification:Russian Road Sign"
         id="path9782" />
    </g>
    <path
       inkscape:connector-curvature="0"
       style="color:#000000;fill:#000000;fill-opacity:1;stroke:none;stroke-width:1px;marker:none;visibility:visible;display:inline;overflow:visible;enable-background:accumulate;opacity:1"
       d="m 315.5993,667.3232 c -3.3281,0 -6.4451,1.6521 -8.3061,4.4112 l -15.705,23.2758 c -1.1155,1.6538 -1.705,3.6051 -1.705,5.6 l 0,30.7842 c 0,5.529 4.4822,10.0111 10.0112,10.0111 l 9.0412,0 c 0.524,-11.1447 9.7178,-20.0222 20.9921,-20.0222 11.2743,0 20.4681,8.8775 20.9921,20.0222 l 78.1493,0 c 0.3754,-7.9825 5.1926,-14.7936 12.0447,-18.02 l -87.1594,0 0,-46.0512 c 0,-5.529 -4.4821,-10.0111 -10.0111,-10.0111 l -28.344,0 z m 0.5318,6.0067 22.8066,0 c 2.7645,0 5.0056,2.241 5.0056,5.0055 l 0,14.0156 c 0,2.7645 -2.2411,5.0056 -5.0056,5.0056 l -32.2702,0 c -2.7645,0 -5.0056,-2.2411 -5.0056,-5.0056 0,-0.9974 0.3026,-1.973 0.8604,-2.8 l 9.4479,-14.0155 c 0.9306,-1.3796 2.4969,-2.2056 4.1609,-2.2056 z"
       id="path7050" />
    <path
       inkscape:connector-curvature="0"
       style="color:#000000;fill:#000000;fill-opacity:1;fill-rule:nonzero;stroke:none;stroke-width:3.54299997999999980;marker:none;visibility:visible;display:inline;overflow:visible;enable-background:accumulate;opacity:1"
       d="m 369.9722,637.2899 c -5.5461,0 -10.0111,4.4649 -10.0111,10.0111 l 0,70.0778 130.1446,0 0,-70.0778 c 0,-5.5462 -4.465,-10.0111 -10.0111,-10.0111 z"
       id="rect6193"
       sodipodi:nodetypes="sccccss" />
    <path
       inkscape:connector-curvature="0"
       style="color:#000000;fill:#000000;fill-opacity:1;fill-rule:nonzero;stroke:none;stroke-width:1px;marker:none;visibility:visible;display:inline;overflow:visible;enable-background:accumulate;opacity:1"
       d="m 450.0612,725.3877 c -9.3993,0 -17.0189,7.6196 -17.0189,17.019 0,9.3992 7.6196,17.0189 17.0189,17.0189 9.3993,0 17.0189,-7.6197 17.0189,-17.0189 0,-9.3994 -7.6196,-17.019 -17.0189,-17.019 z m 0,8.0089 c 4.9761,0 9.01,4.0339 9.01,9.0101 0,4.976 -4.0339,9.0099 -9.01,9.0099 -4.9761,0 -9.01,-4.0339 -9.01,-9.0099 0,-4.9762 4.0339,-9.0101 9.01,-9.0101 z"
       id="path7038" />
    <path
       id="rect7057"
       style="color:#000000;fill:#000000;fill-opacity:1;stroke:none;stroke-width:3.54299997999999980;marker:none;visibility:visible;display:inline;overflow:visible;enable-background:accumulate;opacity:1"
       d="m 471.0533,741.4055 c -0.3753,-7.9825 -5.1926,-14.7936 -12.0447,-18.02 l 31.0971,0 0,18.02 z"
       inkscape:connector-curvature="0"
       sodipodi:nodetypes="ccccc" />
    <path
       id="path7062"
       d="m 329.9277,725.3877 c -9.3993,0 -17.0189,7.6196 -17.0189,17.019 0,9.3992 7.6196,17.0189 17.0189,17.0189 9.3993,0 17.0189,-7.6197 17.0189,-17.0189 0,-9.3994 -7.6196,-17.019 -17.0189,-17.019 z m 0,8.0089 c 4.9761,0 9.01,4.0339 9.01,9.0101 0,4.976 -4.0339,9.0099 -9.01,9.0099 -4.9761,0 -9.01,-4.0339 -9.01,-9.0099 0,-4.9762 4.0339,-9.0101 9.01,-9.0101 z"
       style="color:#000000;fill:#000000;fill-opacity:1;fill-rule:nonzero;stroke:none;stroke-width:1px;marker:none;visibility:visible;display:inline;overflow:visible;enable-background:accumulate;opacity:1"
       inkscape:connector-curvature="0" />
    <path
       inkscape:connector-curvature="0"
       style="color:#000000;fill:#ff0000;fill-opacity:1;fill-rule:nonzero;stroke:none;stroke-width:1px;marker:none;visibility:visible;display:inline;overflow:visible;enable-background:accumulate;opacity:1"
       d="m 395,552.3622 c -82.8427,0 -150,67.1573 -150,150 0,82.8427 67.1573,150 150,150 82.8427,0 150,-67.1573 150,-150 0,-82.8427 -67.1573,-150 -150,-150 z m 0,25.3609 c 68.8359,0 124.639,55.8032 124.639,124.6391 0,68.8359 -55.8031,124.639 -124.639,124.639 -68.8359,0 -124.639,-55.8031 -124.639,-124.639 0,-68.8359 55.8031,-124.6391 124.639,-124.6391 z"
       id="path4775-9" />
    <rect
       style="opacity:1;color:#000000;fill:none;stroke:#000000;stroke-width:2;stroke-miterlimit:4;stroke-opacity:1;stroke-dasharray:none;marker:none;visibility:visible;display:inline;overflow:visible;enable-background:accumulate"
       id="rect7960"
       width="1498"
       height="1148"
       x="1"
       y="-96.637817"
       ry="44"
       rx="44" />
  </g>
</svg>
