<?xml version="1.0" encoding="UTF-8" standalone="no"?>
<!-- Created with Inkscape (http://www.inkscape.org/) -->

<svg
   xmlns:dc="http://purl.org/dc/elements/1.1/"
   xmlns:cc="http://creativecommons.org/ns#"
   xmlns:rdf="http://www.w3.org/1999/02/22-rdf-syntax-ns#"
   xmlns:svg="http://www.w3.org/2000/svg"
   xmlns="http://www.w3.org/2000/svg"
   xmlns:sodipodi="http://sodipodi.sourceforge.net/DTD/sodipodi-0.dtd"
   xmlns:inkscape="http://www.inkscape.org/namespaces/inkscape"
   width="1700"
   height="550"
   id="svg2"
   version="1.1"
   inkscape:version="0.48.4 r9939"
   sodipodi:docname="6.12 C.svg">
  <title
     id="title3006">6.10.1 Указатель направления</title>
  <defs
     id="defs4" />
  <sodipodi:namedview
     id="base"
     pagecolor="#ffffff"
     bordercolor="#666666"
     borderopacity="1.0"
     inkscape:pageopacity="0.0"
     inkscape:pageshadow="2"
     inkscape:zoom="0.70710678"
     inkscape:cx="761.1178"
     inkscape:cy="324.51858"
     inkscape:document-units="px"
     inkscape:current-layer="layer1"
     showgrid="false"
     inkscape:window-width="1920"
     inkscape:window-height="1024"
     inkscape:window-x="-4"
     inkscape:window-y="-4"
     inkscape:window-maximized="1"
     inkscape:snap-bbox="true"
     inkscape:bbox-paths="true"
     inkscape:bbox-nodes="true"
     inkscape:snap-bbox-edge-midpoints="true"
     inkscape:snap-bbox-midpoints="true"
     inkscape:object-paths="true"
     inkscape:snap-intersection-paths="true"
     inkscape:object-nodes="true"
     inkscape:snap-smooth-nodes="true"
     inkscape:snap-midpoints="true"
     inkscape:snap-object-midpoints="true"
     showguides="true"
     inkscape:guide-bbox="true" />
  <metadata
     id="metadata7">
    <rdf:RDF>
      <cc:Work
         rdf:about="">
        <dc:format>image/svg+xml</dc:format>
        <dc:type
           rdf:resource="http://purl.org/dc/dcmitype/StillImage" />
        <dc:title>6.10.1 Указатель направления</dc:title>
        <cc:license
           rdf:resource="http://creativecommons.org/licenses/by-sa/3.0/" />
        <dc:description>ГОСТ Р 52290-2004</dc:description>
      </cc:Work>
      <cc:License
         rdf:about="http://creativecommons.org/licenses/by-sa/3.0/">
        <cc:permits
           rdf:resource="http://creativecommons.org/ns#Reproduction" />
        <cc:permits
           rdf:resource="http://creativecommons.org/ns#Distribution" />
        <cc:requires
           rdf:resource="http://creativecommons.org/ns#Notice" />
        <cc:requires
           rdf:resource="http://creativecommons.org/ns#Attribution" />
        <cc:permits
           rdf:resource="http://creativecommons.org/ns#DerivativeWorks" />
        <cc:requires
           rdf:resource="http://creativecommons.org/ns#ShareAlike" />
      </cc:License>
    </rdf:RDF>
  </metadata>
  <g
     inkscape:label="Layer 1"
     inkscape:groupmode="layer"
     id="layer1"
     transform="translate(0,-502.36218)">
    <rect
       transform="matrix(0,-1,1,0,0,0)"
       y="0"
       x="-1052.3622"
       height="1700"
       width="550"
       id="rect14064"
       style="color:#000000;fill:#ffffff;fill-opacity:1;fill-rule:nonzero;stroke:none;stroke-width:3.54299998;marker:none;visibility:visible;display:inline;overflow:visible;enable-background:accumulate"
       rx="45"
       ry="45" />
    <path
       inkscape:connector-curvature="0"
       style="color:#000000;fill:#0d69e1;fill-opacity:1;fill-rule:nonzero;stroke:none;stroke-width:3.54299998;marker:none;visibility:visible;display:inline;overflow:visible;enable-background:accumulate"
       d="m 45,511.3622 c -19.944,0 -36,16.056 -36,36 l 0,225 1682,0 0,-225 c 0,-19.944 -16.056,-36 -36,-36 l -1610,0 z m 536.6562,49.125 c 10.2957,0.28156 17.9609,4.12437 23,11.53125 5.039,7.40701 7.5479,16.68919 7.5313,27.84375 0.017,11.15464 -2.4923,20.43681 -7.5313,27.84375 -5.0391,7.40696 -12.7043,11.24976 -23,11.53125 -9.5467,-0.22432 -16.8211,-3.57705 -21.8437,-10.03125 -5.0227,-6.45419 -7.8723,-14.66395 -8.5313,-24.65625 l -12.75,0 0,32.8125 -13.125,0 0,-75 13.125,0 0,30.9375 12.9063,0 c 0.906,-9.51413 3.8753,-17.29619 8.875,-23.375 4.9996,-6.07867 12.104,-9.23409 21.3437,-9.4375 z m -135.9375,1.875 9.375,0 c 0.5078,2.36336 1.6016,4.19148 3.2813,5.5 1.6797,1.30866 3.7109,1.98054 6.0937,2 2.3242,-0.0195 4.2461,-0.69134 5.75,-2 1.5039,-1.30852 2.707,-3.13665 3.625,-5.5 l 9.375,0 c 0.081,0.18526 -0.272,1.46767 -1.0937,3.875 -0.8218,2.40748 -2.5845,4.84266 -5.2813,7.25 -2.6968,2.40747 -6.831,3.68987 -12.375,3.875 -5.544,-0.18513 -9.647,-1.46753 -12.3437,-3.875 -2.6968,-2.40734 -4.4595,-4.84252 -5.2813,-7.25 -0.8217,-2.40733 -1.206,-3.68974 -1.125,-3.875 z m 230.6875,0 15,0 24.375,75 -14.0625,0 -4.6875,-15 -26.25,0 -4.6875,15 -14.0625,0 24.375,-75 z m 80.9063,0 46.875,0 0,11.25 -33.75,0 0,63.75 -13.125,0 0,-75 z m 79.5,0 15,0 24.375,75 -14.0625,0 -4.6875,-15 -26.25,0 -4.6875,15 -14.0625,0 24.375,-75 z m 52.3437,0 46.875,0 0,11.25 -33.75,0 0,63.75 -13.125,0 0,-75 z m 79.5,0 15,0 24.375,75 -14.0625,0 -4.6875,-15 -26.25,0 -4.6875,15 -14.0625,0 24.375,-75 z m 52.3438,0 25.3125,0 c 9.2578,0.42976 15.8203,3.30476 19.6875,8.65625 3.8671,5.35163 5.7421,10.60162 5.625,15.71875 -0.1173,5.11723 -2.4615,10.33598 -7.0312,15.6875 -4.5707,5.35159 -10.6642,8.25784 -18.2813,8.6875 l -12.1875,0 0,26.25 -13.125,0 0,-75 z m 66.5625,0 13.125,0 0,51.5625 27.1875,-51.5625 14.0625,0 0,75 -13.125,0 0,-51.5625 -27.1875,51.5625 -14.0625,0 0,-75 z m 70.25,0 13.125,0 0,30 28.125,0 0,-30 13.125,0 0,75 -13.125,0 0,-33.75 -28.125,0 0,33.75 -13.125,0 0,-75 z m 91.7813,0 15,0 24.375,75 -14.0626,0 -4.6874,-15 -26.25,0 -4.6876,15 -14.0624,0 24.375,-75 z m -1138.3438,7.5625 56.25,97.4375 -36,0 0,75 -40.5,0 0,-75 -36,0 56.25,-97.4375 z m 470.4062,2.75 c -5.2539,0.0782 -9.5195,2.48444 -12.7812,7.25 -3.2618,4.76568 -4.9336,11.42192 -5.0313,19.9375 0.098,8.51565 1.7695,15.14065 5.0313,19.90625 3.2617,4.76564 7.5273,7.20313 12.7812,7.28125 5.2539,-0.0781 9.5195,-2.51561 12.7813,-7.28125 3.2616,-4.7656 4.9335,-11.3906 5.0312,-19.90625 -0.098,-8.51558 -1.7696,-15.17182 -5.0312,-19.9375 -3.2618,-4.76556 -7.5274,-7.17181 -12.7813,-7.25 z m 452.4688,0.9375 0,26.25 8.4375,0 c 3.9062,0.0391 7.3437,-0.99215 10.3125,-3.0625 2.9687,-2.07027 4.5312,-5.41402 4.6875,-10.0625 -0.1563,-4.64838 -1.7188,-8.02338 -4.6875,-10.09375 -2.9688,-2.07025 -6.4063,-3.07025 -10.3125,-3.03125 l -8.4375,0 z m -350.2188,5.625 -9.375,31.875 18.75,0 -9.375,-31.875 z m 160.4063,0 -9.375,31.875 18.75,0 -9.375,-31.875 z m 131.8437,0 -9.375,31.875 18.75,0 -9.375,-31.875 z m 280.9376,0 -9.375,31.875 18.75,0 -9.375,-31.875 z M 402,582.9872 c 6.7578,0.21489 12.4453,2.82427 17.0937,7.84375 4.6484,5.01957 7.0859,11.16019 7.2813,18.40625 -0.017,1.46487 -0.2936,2.76174 -0.8125,3.875 -0.519,1.11331 -1.1797,1.69143 -2,1.75 l -33.75,0 c 0.2929,5.50783 2.0586,9.25782 5.2812,11.25 3.2227,1.9922 6.1445,2.9297 8.7813,2.8125 2.2851,-0.003 4.2695,-0.58984 5.9687,-1.78125 1.6992,-1.19139 3.4648,-2.96595 5.2813,-5.3125 l 9.0937,5.21875 c -3.3092,4.19923 -6.6797,7.27735 -10.1562,9.25 -3.4766,1.97265 -6.8784,2.95703 -10.1875,2.9375 -7.274,-0.11719 -13.4771,-2.71094 -18.625,-7.75 -5.1479,-5.03905 -7.7974,-11.8203 -7.9063,-20.375 0.039,-4.06247 0.4721,-7.62943 1.2813,-10.6875 0.8091,-3.058 2.1797,-5.74103 4.0937,-8.0625 2.3521,-2.85152 5.2472,-5.13276 8.6875,-6.8125 3.4403,-1.67963 6.9693,-2.52338 10.5938,-2.5625 z m -61,0.9375 c 6.6406,0.0252 11.8593,1.23722 15.6875,3.65625 3.8281,2.41913 5.7968,5.89457 5.875,10.40625 -0.1033,3.31198 -1.0787,6.05974 -2.9063,8.25 -1.8276,2.19032 -3.9057,3.64344 -6.2187,4.34375 2.5083,0.41297 4.9257,1.57815 7.25,3.53125 2.3242,1.95315 3.5853,5.02457 3.75,9.1875 -0.1619,5.58595 -2.2958,9.64844 -6.375,12.1875 -4.0793,2.53906 -9.1329,3.78906 -15.1875,3.75 -4.0402,-0.0112 -8.3081,-0.76563 -12.75,-2.25 -4.442,-1.48437 -8.125,-3.64509 -11.0938,-6.46875 l 6.9688,-7.625 c 2.0591,2.57535 4.76,4.38561 8.125,5.4375 3.3649,1.05191 6.289,1.56753 8.75,1.53125 2.0312,-0.0195 4.0625,-0.6914 6.0937,-2 2.0313,-1.30858 3.125,-3.13671 3.2813,-5.5 0.02,-1.95311 -0.4961,-3.67186 -1.5313,-5.15625 -1.0351,-1.48435 -2.707,-2.2656 -5.0312,-2.34375 l -7.5,0 0,-8.4375 7.5,0 c 1.875,-0.0586 3.2812,-0.63669 4.2187,-1.75 0.9375,-1.11325 1.4063,-2.41012 1.4063,-3.875 -0.1954,-2.7734 -1.4454,-4.74215 -3.75,-5.875 -2.3047,-1.13277 -4.4922,-1.66402 -6.5625,-1.625 -3.2311,0.067 -5.9364,0.64736 -8.0625,1.71875 -2.1261,1.07147 -4.0011,2.22772 -5.625,3.5 L 322.25,588.6122 c 2.3549,-1.42573 5.0915,-2.56636 8.25,-3.40625 3.1585,-0.83979 6.6718,-1.26166 10.5,-1.28125 z m -131,0.9375 11.25,0 13.125,26.25 13.125,-26.25 11.25,0 4.6875,52.5 -11.25,0 -2.8125,-36.5625 -15,30 -15,-30 -2.8125,36.5625 -11.25,0 4.6875,-52.5 z m 51.7187,0 13.125,0 12.1875,34.6875 10.3125,-34.6875 13.125,0 -21.5625,64.6875 c -1.5039,3.3008 -3.6445,5.8476 -6.4375,7.625 -2.7929,1.7773 -5.6523,2.6679 -8.5625,2.6875 -0.3878,0.011 -0.7829,-0.01 -1.1875,-0.062 -0.4045,-0.056 -1.3264,-0.2121 -2.7187,-0.4688 l -3.5938,-10.7187 c 0.9571,0.4492 1.8477,0.7148 2.6875,0.8125 0.8399,0.098 1.5117,0.1445 2,0.125 3.2227,-0.176 5.6399,-1.5346 7.25,-4.0938 1.6101,-2.55911 2.7688,-5.26297 3.4688,-8.0937 l -20.0938,-52.5 z m 180.25,0 11.25,0 0,35.625 21.5625,-35.625 12.1875,0 0,52.5 -11.25,0 0,-35.625 -21.5625,35.625 -12.1875,0 0,-52.5 z m -39.9687,7.5 c -3.1446,0.0782 -5.9191,1.1362 -8.3438,3.15625 -2.4246,2.02013 -3.7126,5.33709 -3.8437,9.96875 l 23.4375,0 c 0.332,-0.0195 0.5708,-0.22262 0.7187,-0.59375 0.1479,-0.37106 0.2215,-0.79294 0.2188,-1.28125 -0.1647,-2.8878 -1.5062,-5.47931 -4.0313,-7.78125 -2.5251,-2.30185 -5.2461,-3.46033 -8.1562,-3.46875 z m 935.5,20.75 c 8.1054,0.014 14.621,3.01179 19.5625,8.96875 4.9414,5.95709 7.4882,14.7986 7.625,26.53125 0.098,11.6183 -2.1979,21.5156 -6.9063,29.7187 -4.7065,8.2032 -12.4101,12.5067 -23.0937,12.875 -3.9453,-0.173 -7.5385,-0.8828 -10.7813,-2.0937 -3.2418,-1.2109 -4.9609,-1.8895 -5.1562,-2.0625 l -1.4688,-11.5313 c 0.1605,0.1842 1.8385,0.9297 5.0626,2.2188 3.2219,1.2891 7.0284,2.0346 11.4062,2.2187 5.5324,-0.3058 9.5787,-2.4609 12.125,-6.4375 2.5463,-3.9765 4.1412,-7.9297 4.8125,-11.9062 0.6713,-3.9765 0.9675,-6.1316 0.875,-6.4375 -2.3829,1.9532 -5.1016,3.6719 -8.1875,5.1562 -3.086,1.4844 -6.3047,2.2657 -9.625,2.3438 -3.2422,0.2149 -7.0539,-1.1445 -11.4688,-4.0938 -4.4139,-2.9491 -6.8515,-8.7773 -7.2812,-17.4687 0.1758,-7.72874 2.4101,-14.27338 6.6875,-19.625 4.2773,-5.35149 9.5429,-8.14613 15.8125,-8.375 z m 72.75,1.75 11.25,0 0,48.75 10.3125,0 -4.3125,11.25 -5.0625,0 0,15 -13.125,0 0,-15 -35.625,0 0,-11.25 36.5625,-48.75 z m -777.6875,6.84375 c 2.3133,0.0586 4.244,0.83776 5.7812,2.375 1.5373,1.53727 2.3165,3.46789 2.375,5.78125 -0.059,2.31337 -0.8377,4.244 -2.375,5.78125 -1.5372,1.53726 -3.4679,2.31645 -5.7812,2.375 -2.3134,-0.0585 -4.244,-0.83774 -5.7813,-2.375 -1.5372,-1.53725 -2.3164,-3.46788 -2.375,-5.78125 0.059,-2.31336 0.8378,-4.24398 2.375,-5.78125 1.5373,-1.53724 3.4679,-2.31643 5.7813,-2.375 z m 102.4687,0 c 2.3134,0.0586 4.244,0.83776 5.7813,2.375 1.5372,1.53727 2.3477,3.46789 2.4062,5.78125 -0.059,2.31337 -0.869,4.244 -2.4062,5.78125 -1.5373,1.53726 -3.4679,2.31645 -5.7813,2.375 -2.3133,-0.0585 -4.2127,-0.83774 -5.75,-2.375 -1.5372,-1.53725 -2.3477,-3.46788 -2.4062,-5.78125 0.059,-2.31336 0.869,-4.24398 2.4062,-5.78125 1.5373,-1.53724 3.4367,-2.31643 5.75,-2.375 z m 604.3438,3.46875 c -4.1407,0.2735 -7.2206,1.97439 -9.2188,5.09375 -1.9963,3.11948 -2.9799,6.41858 -2.9687,9.90625 0.1562,3.75 1.2486,6.5625 3.2813,8.4375 2.0298,1.875 4.0624,2.8125 6.0937,2.8125 4.7098,-0.385 8.3125,-1.9297 10.8125,-4.625 2.5,-2.6953 3.7595,-4.23991 3.7812,-4.625 -0.1476,-1.43514 -0.5628,-3.48093 -1.2812,-6.15625 -0.7185,-2.67521 -1.9066,-5.11486 -3.5625,-7.34375 -1.656,-2.22877 -3.9771,-3.40404 -6.9375,-3.5 z m 69.9375,9.375 -21.5625,29.0625 21.5625,0 0,-29.0625 z M 236.25,665.4872 c 7.0507,0.098 12.7672,2.0196 17.1562,5.75 4.3889,3.7305 7.7349,8.6837 10.0313,14.875 l -12.5938,4.6875 c -1.4035,-4.6484 -3.3253,-8.0234 -5.75,-10.0938 -2.4247,-2.0702 -5.3644,-3.0702 -8.8437,-3.0312 -5.2539,0.078 -9.5196,2.4844 -12.7813,7.25 -3.2617,4.7657 -4.9336,11.4219 -5.0312,19.9375 0.098,8.5156 1.7695,15.1406 5.0312,19.9062 3.2617,4.7657 7.5274,7.2032 12.7813,7.2813 2.3046,0.019 4.2421,-0.2461 5.8437,-0.8125 1.6016,-0.5664 3.1016,-1.5508 4.4688,-2.9375 1.8359,-1.7383 3.0859,-3.4101 3.75,-5.0313 0.664,-1.621 0.9765,-4.0117 0.9375,-7.1562 l -13.125,0 0,-11.25 27.1875,0 0,37.5 -11.25,0 -2.8125,-6.5625 c -1.5793,2.3437 -3.5838,4.3304 -6,5.9375 -2.4163,1.6071 -5.4119,2.433 -9,2.5 -10.346,-0.2846 -18.2032,-4.1462 -23.5938,-11.5625 -5.3906,-7.4163 -8.1227,-16.6797 -8.1562,-27.8125 0.034,-11.1328 2.7656,-20.3962 8.1562,-27.8125 5.3906,-7.4162 13.2478,-11.2778 23.5938,-11.5625 z m 151.125,0 c 7.0507,0.098 12.7672,2.0196 17.1562,5.75 4.3889,3.7305 7.7349,8.6837 10.0313,14.875 l -12.5938,4.6875 c -1.4035,-4.6484 -3.2941,-8.0234 -5.7187,-10.0938 -2.4247,-2.0702 -5.3957,-3.0702 -8.875,-3.0312 -5.2539,0.078 -9.4883,2.4844 -12.75,7.25 -3.2618,4.7657 -4.9649,11.4219 -5.0625,19.9375 0.098,8.5156 1.8008,15.1406 5.0625,19.9062 3.2617,4.7657 7.4961,7.2032 12.75,7.2813 2.3046,0.019 4.2734,-0.2461 5.875,-0.8125 1.6015,-0.5664 3.0703,-1.5508 4.4375,-2.9375 1.8359,-1.7383 3.0859,-3.4101 3.75,-5.0313 0.664,-1.621 0.9765,-4.0117 0.9375,-7.1562 l -13.125,0 0,-11.25 27.1875,0 0,37.5 -11.25,0 -2.8125,-6.5625 c -1.5793,2.3437 -3.5525,4.3304 -5.9688,5.9375 -2.4163,1.6071 -5.4431,2.433 -9.0312,2.5 -10.346,-0.2846 -18.2032,-4.1462 -23.5938,-11.5625 -5.3906,-7.4163 -8.0915,-16.6797 -8.125,-27.8125 0.034,-11.1328 2.7344,-20.3962 8.125,-27.8125 5.3906,-7.4162 13.2478,-11.2778 23.5938,-11.5625 z m -84.875,1.875 15,0 24.375,75 -14.0625,0 -4.6875,-15 -26.25,0 -4.6875,15 -14.0625,0 24.375,-75 z m 151.125,0 15,0 24.375,75 -14.0625,0 -4.6875,-15 -26.25,0 -4.6875,15 -14.0625,0 24.375,-75 z m 56.7812,0 25.3125,0 c 9.1797,0.3907 15.4297,2.8907 18.75,7.5 3.3203,4.6094 4.8828,8.9844 4.6875,13.125 -0.1172,5.1563 -1.5235,9.375 -4.2187,12.6562 -2.6954,3.2813 -5.9766,5.6251 -9.8438,7.0313 3.9815,1.2442 7.2511,4.3773 9.8438,9.4062 2.5925,5.029 4.9803,10.117 7.1562,15.25 2.1759,5.1332 4.6435,8.4746 7.375,10.0313 l -15.9375,0 c -1.4294,-2.0594 -2.8449,-4.791 -4.2187,-8.2188 -1.3739,-3.4277 -2.912,-6.896 -4.625,-10.375 -1.4528,-3.1977 -3.0761,-5.8703 -4.875,-8.0312 -1.799,-2.1609 -4.722,-3.2885 -8.7813,-3.375 l -7.5,0 0,30 -13.125,0 0,-75 z m 76.4375,0 13.125,0 0,75 -13.125,0 0,-75 z m 31.4688,0 15,0 28.125,53.4375 0,-53.4375 13.125,0 0,75 -15,0 -28.125,-54.375 0,54.375 -13.125,0 0,-75 z m -94.7813,11.25 0,22.5 8.4375,0 c 3.8672,0.034 7.1484,-0.8504 9.8438,-2.625 2.6953,-1.7745 4.1015,-4.6406 4.2187,-8.625 -0.1172,-3.9843 -1.5234,-6.8504 -4.2187,-8.625 -2.6954,-1.7745 -5.9766,-2.6584 -9.8438,-2.625 l -8.4375,0 z M 310,684.2372 l -9.375,31.875 18.75,0 -9.375,-31.875 z m 151.125,0 -9.375,31.875 18.75,0 -9.375,-31.875 z m 292.5,3.75 c 6.3923,0 11.0487,3.2058 13.625,7.7812 4.846,-4.5329 10.9456,-7.7812 16.375,-7.7812 10.1406,0 15.9375,8.0549 15.9375,16.875 l 0,37.5 -11.25,0 0,-37.5 c 0,-3.5488 -3.4167,-6 -7.125,-6 -5.68,0 -11.625,4.5317 -11.625,9.75 l 0,33.75 -11.25,0 0,-37.5 c 0,-3.5488 -3.4167,-6 -7.125,-6 -5.68,0 -11.625,4.5317 -11.625,9.75 l 0,33.75 -11.25,0 0,-52.5 9.2812,0 1.3125,3.9062 c 4.5893,-3.4661 9.9109,-5.7812 14.7188,-5.7812 z m 138.5312,0 c 8.7929,0 14.8049,1.1831 20.625,6.375 l -6.3437,7.3125 c -4.6173,-3.2272 -6.5315,-4.875 -12.375,-4.875 -4.9942,0 -9.9375,3.2658 -9.9375,5.5625 0,3.0128 1.9941,4.2646 2.4062,4.375 l 18.75,5.625 c 5.3813,1.4419 8.5625,8.2291 8.5625,14.1562 0,10.705 -13.7101,17.7188 -21.4375,17.7188 -9.0318,0 -18.1027,-3.9777 -23.5,-9.375 l 8.125,-8.25 c 3.8961,3.8961 10.0223,6.9687 14.375,6.9687 4.5637,0 10.125,-3.5591 10.125,-6.9687 0,-2.763 -1.5321,-4.2807 -3.75,-4.875 l -15,-4.5 c -4.7736,-1.5984 -10.9375,-6.7226 -10.9375,-13.6563 0,-8.7313 8.4736,-15.5937 20.3125,-15.5937 z m 57.5313,0 c 13.125,0 24.375,12.1875 24.375,26.25 0,2.8125 -1.25,5.625 -2.8125,5.625 l -33.75,0 c 0,11.25 9.375,14.0625 14.0625,14.0625 4.6875,0 7.5,-2.4063 11.25,-7.0938 l 9.0937,5.2188 c -6.5625,8.4375 -13.7812,12.1875 -20.3437,12.1875 -14.0625,0 -26.785,-11.2519 -26.5313,-28.125 0.122,-8.1118 1.5579,-14.0147 5.375,-18.75 4.5646,-5.6628 12.1334,-9.375 19.2813,-9.375 z m 119.3125,0 c 6.3923,0 11.0488,3.2058 13.625,7.7812 4.8461,-4.5329 10.9456,-7.7812 16.375,-7.7812 10.1406,0 15.9375,8.0549 15.9375,16.875 l 0,37.5 -11.25,0 0,-37.5 c 0,-3.5488 -3.4167,-6 -7.125,-6 -5.68,0 -11.625,4.5317 -11.625,9.75 l 0,33.75 -11.25,0 0,-37.5 c 0,-3.5488 -3.4167,-6 -7.125,-6 -5.68,0 -11.625,4.5317 -11.625,9.75 l 0,33.75 -11.25,0 0,-52.5 9.3125,0 1.3125,3.9062 c 4.5893,-3.4662 9.8796,-5.7812 14.6875,-5.7812 z m -256,1.875 11.75,0 0,37.5 c 0,3.5488 3.5918,6 7.4687,6 5.9382,0 12.1563,-4.5317 12.1563,-9.75 l 0,-33.75 11.75,0 0,52.5 -10.4688,0 -1.2812,-3.9063 c -4.5892,3.4662 -9.9109,5.7813 -14.7188,5.7813 -10.6016,0 -16.6562,-8.0549 -16.6562,-16.875 l 0,-37.5 z m 174.125,0 11.75,0 0,37.5 c 0,3.5488 3.5919,6 7.4688,6 5.9382,0 12.1562,-4.5317 12.1562,-9.75 l 0,-33.75 11.75,0 0,52.5 -10.4688,0 -1.3124,-3.9063 c -4.5893,3.4662 -9.8796,5.7813 -14.6876,5.7813 -10.6008,0 -16.6562,-8.0549 -16.6562,-16.875 l 0,-37.5 z m -37.4375,7.5 c -5.9659,0.2298 -12.1875,3.75 -12.1875,13.125 l 23.4375,0 c 0.6696,0 0.9375,-0.9375 0.9375,-1.875 0,-5.5287 -6.6629,-11.4628 -12.1875,-11.25 z m -940.6875,85 0,225 c 0,19.944 16.056,36 36,36 l 1610,0 c 19.944,0 36,-16.056 36,-36 l 0,-225 -1682,0 z m 652.375,28.125 c 10.2957,0.2847 17.9609,4.1463 23,11.5625 5.039,7.4163 7.5479,16.6797 7.5312,27.8125 0.017,11.1328 -2.4922,20.3962 -7.5312,27.8125 -5.0391,7.4163 -12.7043,11.2779 -23,11.5625 -10.2958,-0.2846 -17.961,-4.1462 -23,-11.5625 -5.0391,-7.4163 -7.548,-16.6797 -7.5313,-27.8125 -0.017,-11.1328 2.4922,-20.3962 7.5313,-27.8125 5.039,-7.4162 12.7042,-11.2778 23,-11.5625 z m 149.0625,0 c 10.2957,0.2847 17.9921,4.1463 23.0312,11.5625 5.039,7.4163 7.548,16.6797 7.5313,27.8125 0.017,11.1328 -2.4923,20.3962 -7.5313,27.8125 -5.0391,7.4163 -12.7355,11.2779 -23.0312,11.5625 -10.2958,-0.2846 -17.961,-4.1462 -23,-11.5625 -5.0391,-7.4163 -7.548,-16.6797 -7.5313,-27.8125 -0.017,-11.1328 2.4922,-20.3962 7.5313,-27.8125 5.039,-7.4162 12.7042,-11.2778 23,-11.5625 z m 309.1563,0 c 10.2948,0.2847 17.9601,4.1463 23,11.5625 5.0389,7.4163 7.5479,16.6797 7.5312,27.8125 0.017,11.1328 -2.4923,20.3962 -7.5312,27.8125 -5.0399,7.4163 -12.7052,11.2779 -23,11.5625 -10.2962,-0.2846 -17.9923,-4.1462 -23.0313,-11.5625 -5.0391,-7.4163 -7.5476,-16.6797 -7.5313,-27.8125 -0.016,-11.1328 2.4922,-20.3962 7.5313,-27.8125 5.039,-7.4162 12.7351,-11.2778 23.0313,-11.5625 z m -674.0938,1.875 9.375,0 c 0.5078,2.3634 1.6015,4.1915 3.2812,5.5 1.6797,1.3087 3.7109,1.9805 6.0938,2 2.3242,-0.02 4.2461,-0.6913 5.75,-2 1.5039,-1.3085 2.707,-3.1367 3.625,-5.5 l 9.375,0 c 0.081,0.1853 -0.272,1.4677 -1.0938,3.875 -0.8218,2.4075 -2.5845,4.8427 -5.2812,7.25 -2.6968,2.4075 -6.8311,3.6899 -12.375,3.875 -5.544,-0.1851 -9.647,-1.4675 -12.3438,-3.875 -2.6967,-2.4073 -4.4595,-4.8425 -5.2812,-7.25 -0.8218,-2.4073 -1.206,-3.6897 -1.125,-3.875 z m 81.0625,0 c 0.9431,0.011 1.8448,0.1853 2.6875,0.5312 0.8426,0.3461 1.606,0.797 2.2812,1.3438 0.4744,0.2623 1.0413,1.0436 1.75,2.3437 0.7087,1.3003 1.115,3.5414 1.1875,6.75 -0.4185,4.7267 -2.1015,8.4141 -5.0312,11.0313 -2.9297,2.6172 -4.5815,3.9297 -5,3.9687 l -0.9375,-2.25 c 0.2455,-0.053 1.2187,-0.8632 2.9375,-2.4062 1.7187,-1.5429 2.6919,-3.5095 2.9375,-5.9063 l 0,-0.9375 c -0.4102,0.1982 -0.8499,0.3254 -1.3438,0.4063 -0.4938,0.081 -0.9916,0.1278 -1.4687,0.125 -2.1289,-0.053 -3.9035,-0.7784 -5.3125,-2.1875 -1.4091,-1.409 -2.1345,-3.1835 -2.1875,-5.3125 0.053,-2.1289 0.7784,-3.9034 2.1875,-5.3125 1.409,-1.409 3.1836,-2.1344 5.3125,-2.1875 z m 17.6875,0 c 0.9431,0.011 1.8448,0.1853 2.6875,0.5312 0.8426,0.3461 1.606,0.797 2.2812,1.3438 0.4744,0.2623 1.0726,1.0436 1.7813,2.3437 0.7087,1.3003 1.0837,3.5414 1.1562,6.75 -0.4185,4.7267 -2.0703,8.4141 -5,11.0313 -2.9297,2.6172 -4.6127,3.9297 -5.0312,3.9687 l -0.9375,-2.25 c 0.2455,-0.053 1.2187,-0.8632 2.9375,-2.4062 1.7187,-1.5429 2.6919,-3.5095 2.9375,-5.9063 l 0,-0.9375 c -0.4102,0.1982 -0.8499,0.3254 -1.3438,0.4063 -0.4938,0.081 -0.9916,0.1278 -1.4687,0.125 -2.1289,-0.053 -3.8722,-0.7784 -5.2813,-2.1875 -1.409,-1.409 -2.1657,-3.1835 -2.2187,-5.3125 0.053,-2.1289 0.8097,-3.9034 2.2187,-5.3125 1.4091,-1.409 3.1524,-2.1344 5.2813,-2.1875 z m 16.4687,0 47.8125,0 0,11.25 -34.6875,0 0,18.75 15.9375,0 c 9.2187,0.3516 15.625,2.9141 19.2188,7.7187 3.5937,4.8048 5.3124,9.7423 5.1562,14.7813 0.078,5.0391 -1.9531,9.9453 -6.0937,14.75 -4.1407,4.8047 -10.8594,7.3984 -20.1563,7.75 l -27.1875,0 0,-75 z m 149.8438,0 25.3125,0 c 9.2578,0.4298 15.8203,3.3048 19.6875,8.6562 3.8671,5.3517 5.7421,10.6017 5.625,15.7188 -0.1173,5.1172 -2.461,10.336 -7.0313,15.6875 -4.5703,5.3516 -10.6641,8.2578 -18.2812,8.6875 l -12.1875,0 0,26.25 -13.125,0 0,-75 z m 160.3125,0 44.0625,0 0,5.625 0,58.125 8.4375,0 0,24.375 -11.25,0 0,-13.125 -46.875,0 0,13.125 -11.25,0 0,-24.375 8.4375,0 c 1.2847,-3.2647 2.5903,-7.8414 3.875,-13.75 1.2847,-5.9085 2.3507,-12.3116 3.2187,-19.1875 0.8681,-6.8758 1.3091,-13.3959 1.3438,-19.5625 l 0,-11.25 z m 68.7812,0 13.125,0 0,51.5625 27.1875,-51.5625 14.0625,0 0,75 -13.125,0 0,-51.5625 -27.1875,51.5625 -14.0625,0 0,-75 z m 76.375,0 13.125,0 0,30 28.125,0 0,-30 13.125,0 0,75 -13.125,0 0,-33.75 -28.125,0 0,33.75 -13.125,0 0,-75 z m 154.4063,0 c 0.9431,0.011 1.8448,0.1853 2.6875,0.5312 0.8426,0.3461 1.6064,0.797 2.2812,1.3438 0.4754,0.2623 1.0417,1.0436 1.75,2.3437 0.7097,1.3003 1.1142,3.5414 1.1876,6.75 -0.4194,4.7267 -2.1016,8.4141 -5.0313,11.0313 -2.9297,2.6172 -4.5815,3.9297 -5,3.9687 l -0.9375,-2.25 c 0.2455,-0.053 1.2187,-0.8632 2.9375,-2.4062 1.7187,-1.5429 2.6919,-3.5095 2.9375,-5.9063 l 0,-0.9375 c -0.4102,0.1982 -0.8492,0.3254 -1.3438,0.4063 -0.4928,0.081 -0.9916,0.1278 -1.4687,0.125 -2.1289,-0.053 -3.9035,-0.7784 -5.3125,-2.1875 -1.409,-1.409 -2.1345,-3.1835 -2.1875,-5.3125 0.053,-2.1289 0.7785,-3.9034 2.1875,-5.3125 1.409,-1.409 3.1836,-2.1344 5.3125,-2.1875 z m 17.6875,0 c 0.9431,0.011 1.8448,0.1853 2.6875,0.5312 0.8426,0.3461 1.605,0.797 2.2813,1.3438 0.4737,0.2623 1.0725,1.0436 1.7812,2.3437 0.7087,1.3003 1.0847,3.5414 1.1562,6.75 -0.4175,4.7267 -2.0697,8.4141 -5,11.0313 -2.9293,2.6172 -4.6127,3.9297 -5.0312,3.9687 l -0.9375,-2.25 c 0.2455,-0.053 1.2187,-0.8632 2.9375,-2.4062 1.7187,-1.5429 2.6919,-3.5095 2.9375,-5.9063 l 0,-0.9375 c -0.4102,0.1982 -0.8509,0.3254 -1.3437,0.4063 -0.4946,0.081 -0.9917,0.1278 -1.4688,0.125 -2.1289,-0.053 -3.8727,-0.7784 -5.2812,-2.1875 -1.4101,-1.409 -2.1658,-3.1835 -2.2188,-5.3125 0.053,-2.1289 0.8087,-3.9034 2.2188,-5.3125 1.4085,-1.409 3.1523,-2.1344 5.2812,-2.1875 z m -526.75,10.3125 c -5.2539,0.078 -9.5196,2.4844 -12.7813,7.25 -3.2617,4.7657 -4.9336,11.4219 -5.0312,19.9375 0.098,8.5156 1.7695,15.1406 5.0312,19.9062 3.2617,4.7657 7.5274,7.2032 12.7813,7.2813 5.2539,-0.078 9.5195,-2.5156 12.7812,-7.2813 3.2617,-4.7656 4.9336,-11.3906 5.0313,-19.9062 -0.098,-8.5156 -1.7696,-15.1718 -5.0313,-19.9375 -3.2617,-4.7656 -7.5273,-7.1718 -12.7812,-7.25 z m 149.0625,0 c -5.2539,0.078 -9.4883,2.4844 -12.75,7.25 -3.2617,4.7657 -4.9649,11.4219 -5.0625,19.9375 0.098,8.5156 1.8008,15.1406 5.0625,19.9062 3.2617,4.7657 7.4961,7.2032 12.75,7.2813 5.2539,-0.078 9.5195,-2.5156 12.7812,-7.2813 3.2617,-4.7656 4.9336,-11.3906 5.0313,-19.9062 -0.098,-8.5156 -1.7696,-15.1718 -5.0313,-19.9375 -3.2617,-4.7656 -7.5273,-7.1718 -12.7812,-7.25 z m 309.1563,0 c -5.2549,0.078 -9.5196,2.4844 -12.7813,7.25 -3.2617,4.7657 -4.9327,11.4219 -5.0313,19.9375 0.099,8.5156 1.7696,15.1406 5.0313,19.9062 3.2617,4.7657 7.5264,7.2032 12.7813,7.2813 5.2536,-0.078 9.4882,-2.5156 12.75,-7.2813 3.2607,-4.7656 4.9655,-11.3906 5.0624,-19.9062 -0.097,-8.5156 -1.8017,-15.1718 -5.0624,-19.9375 -3.2618,-4.7656 -7.4964,-7.1718 -12.75,-7.25 z m -395.9063,0.9375 0,26.25 8.4375,0 c 3.9062,0.039 7.3437,-0.9922 10.3125,-3.0625 2.9687,-2.0703 4.5312,-5.414 4.6875,-10.0625 -0.1563,-4.6484 -1.7188,-8.0234 -4.6875,-10.0938 -2.9688,-2.0702 -6.4063,-3.0702 -10.3125,-3.0312 l -8.4375,0 z m 160.3125,0 c -0.05,9.2188 -0.8762,18.6563 -2.5,28.3437 -1.6239,9.6876 -3.7489,17.7501 -6.3438,24.1563 l 26.6563,0 0,-52.5 -17.8125,0 z m -479,9.375 c 6.7578,0.2149 12.4453,2.8243 17.0937,7.8437 4.6484,5.0196 7.0859,11.1602 7.2813,18.4063 -0.017,1.4649 -0.2936,2.7617 -0.8125,3.875 -0.519,1.1133 -1.1797,1.6914 -2,1.75 l -33.75,0 c 0.2929,5.5078 2.0273,9.2578 5.25,11.25 3.2226,1.9922 6.1757,2.9297 8.8125,2.8125 2.2851,0 4.2695,-0.5898 5.9687,-1.7813 1.6992,-1.1913 3.4648,-2.9659 5.2813,-5.3125 l 9.0937,5.2188 c -3.3092,4.1992 -6.7109,7.2773 -10.1875,9.25 -3.4766,1.9726 -6.8471,2.957 -10.1562,2.9375 -7.274,-0.1172 -13.5084,-2.7109 -18.6563,-7.75 -5.1478,-5.0391 -7.7661,-11.8203 -7.875,-20.375 0.039,-4.0625 0.4721,-7.6294 1.2813,-10.6875 0.8091,-3.058 2.1484,-5.741 4.0625,-8.0625 2.3521,-2.8515 5.2472,-5.1328 8.6875,-6.8125 3.4403,-1.6796 7.0005,-2.5234 10.625,-2.5625 z m -57.8125,0.9375 c 6.6406,0.025 11.8906,1.2372 15.7187,3.6562 3.8281,2.4192 5.7656,5.8946 5.8438,10.4063 -0.1033,3.312 -1.0475,6.0597 -2.875,8.25 -1.8276,2.1903 -3.9057,3.6434 -6.2188,4.3437 2.5084,0.413 4.9258,1.5782 7.25,3.5313 2.3242,1.9531 3.5541,5.0246 3.7188,9.1875 -0.1619,5.5859 -2.2646,9.6484 -6.3438,12.1875 -4.0792,2.5391 -9.1641,3.7891 -15.2187,3.75 -4.0402,-0.011 -8.2768,-0.7656 -12.7188,-2.25 -4.4419,-1.4844 -8.125,-3.6451 -11.0937,-6.4688 l 6.9375,-7.625 c 2.0591,2.5754 4.7913,4.3857 8.1562,5.4375 3.365,1.052 6.2578,1.5676 8.7188,1.5313 2.0312,-0.02 4.0625,-0.6914 6.0937,-2 2.0313,-1.3086 3.125,-3.1367 3.2813,-5.5 0.02,-1.9531 -0.4649,-3.6719 -1.5,-5.1563 -1.0352,-1.4843 -2.7383,-2.2656 -5.0625,-2.3437 l -7.5,0 0,-8.4375 7.5,0 c 1.875,-0.059 3.2812,-0.6367 4.2187,-1.75 0.9375,-1.1133 1.4063,-2.4101 1.4063,-3.875 -0.1954,-2.7734 -1.4454,-4.7422 -3.75,-5.875 -2.3047,-1.1328 -4.4922,-1.664 -6.5625,-1.625 -3.2311,0.067 -5.9052,0.6474 -8.0313,1.7187 -2.1261,1.0715 -4.0011,2.2278 -5.625,3.5 l -5.0937,-9.9062 c 2.3549,-1.4257 5.1227,-2.5664 8.2812,-3.4063 3.1585,-0.8397 6.6406,-1.2616 10.4688,-1.2812 z M 210,834.8622 l 11.25,0 13.125,26.25 13.125,-26.25 11.25,0 4.6875,52.5 -11.25,0 -2.8125,-36.5625 -15,30 -15,-30 -2.8125,36.5625 -11.25,0 4.6875,-52.5 z m 61.1562,0 13.125,0 12.1875,34.6875 10.3125,-34.6875 13.125,0 -21.5625,64.6875 c -1.5039,3.3008 -3.6758,5.8476 -6.4687,7.625 -2.793,1.7773 -5.6211,2.6679 -8.5313,2.6875 -0.3878,0.011 -0.8141,-0.01 -1.2187,-0.062 -0.4046,-0.056 -1.2952,-0.2121 -2.6875,-0.4688 l -3.5938,-10.7187 c 0.9571,0.4492 1.8477,0.7148 2.6875,0.8125 0.8399,0.098 1.5117,0.1445 2,0.125 3.2227,-0.176 5.6087,-1.5346 7.2188,-4.0938 1.6101,-2.5591 2.7688,-5.263 3.4687,-8.0937 l -20.0625,-52.5 z m 170.5938,0 11.25,0 0,35.625 21.5625,-35.625 12.1875,0 0,52.5 -11.25,0 0,-35.625 -21.5625,35.625 -12.1875,0 0,-52.5 z m 1093.25,7 97.4375,56.25 -97.4375,56.25 0,-36 -75,0 0,-40.5 75,0 0,-36 z m -1130,0.5 c -3.1446,0.078 -5.9504,1.1362 -8.375,3.1562 -2.4247,2.0202 -3.6814,5.3371 -3.8125,9.9688 l 23.4375,0 c 0.332,-0.02 0.5708,-0.2226 0.7187,-0.5938 0.1479,-0.371 0.2215,-0.7929 0.2188,-1.2812 -0.1647,-2.8878 -1.5374,-5.4793 -4.0625,-7.7813 -2.5252,-2.3018 -5.2149,-3.4603 -8.125,-3.4687 z m 168.8437,11.25 0,22.5 13.125,0 c 4.2773,0 7.668,-0.9375 10.1875,-2.8125 2.5195,-1.875 3.8164,-4.6875 3.875,-8.4375 -0.059,-3.75 -1.3555,-6.5625 -3.875,-8.4375 -2.5195,-1.875 -5.9102,-2.8125 -10.1875,-2.8125 l -13.125,0 z m 766.4688,9.5937 c 5.4101,0.1173 10.3003,1.9923 14.6563,5.625 4.3542,3.6329 6.6522,8.3204 6.9062,14.0625 0.028,4.4923 -0.4588,7.9566 -1.4688,10.4063 -1.0088,2.4498 -2.7109,5.0302 -5.0937,7.7812 -2.9911,3.7222 -6.5847,7.7132 -10.7813,11.9375 -4.1952,4.2244 -8.7277,8.8762 -13.5937,13.9375 l 30.9375,0 c -10e-5,1.4454 -0.2188,3.2266 -0.6875,5.375 -0.4688,2.1485 -1.1876,4.4297 -2.125,6.8125 l -45,0 0,-11.25 c 5.1228,-4.6567 9.9219,-9.3286 14.375,-13.9687 4.4531,-4.64 8.7522,-9.4458 12.9375,-14.4375 2.3214,-2.5669 4.2065,-5.0669 5.6562,-7.5 1.4511,-2.433 2.2066,-5.4553 2.25,-9.0938 -0.041,-2.458 -1.0351,-4.6835 -2.9687,-6.6562 -1.9336,-1.9726 -4.5519,-3.0105 -7.875,-3.125 -2.793,0.1145 -5.4026,1.1524 -7.8437,3.125 -2.4427,1.9727 -4.8321,4.1982 -7.1563,6.6562 l -7.5,-8.4375 c 2.7734,-3.2811 6.149,-5.9865 10.0937,-8.0625 3.9457,-2.0758 8.6953,-3.1204 14.2813,-3.1875 z m 59.6563,0 c 7.6168,0.2708 13.7108,4.0007 18.2812,11.2188 4.5703,7.2182 6.9144,16.3008 7.0312,27.2187 -0.1168,11.4454 -2.4609,20.6641 -7.0312,27.6563 -4.5704,6.9922 -10.6644,10.5859 -18.2812,10.7812 -7.6178,-0.1953 -13.711,-3.789 -18.2813,-10.7812 -4.5703,-6.9922 -6.9135,-16.2109 -7.0313,-27.6563 0.1178,-11.4452 2.461,-20.664 7.0313,-27.6562 4.5703,-6.9921 10.6635,-10.5859 18.2813,-10.7813 z m -0.6876,11.625 c -3.3557,0.2043 -6.0634,2.3468 -8.125,6.375 -2.1974,4.297 -3.3188,11.1184 -3.375,20.4375 0.056,9.3193 1.1776,16.1094 3.375,20.4063 2.1993,4.2969 5.1394,6.4308 8.8126,6.375 3.6706,0.056 6.6149,-2.0781 8.8124,-6.375 2.1993,-4.2969 3.3204,-11.087 3.375,-20.4063 -0.055,-9.3191 -1.1757,-16.1405 -3.375,-20.4375 -2.1975,-4.2968 -5.1418,-6.4307 -8.8124,-6.375 -0.2301,0 -0.4627,-0.014 -0.6876,0 z m -622.875,38.7813 c 10.2958,0.2847 17.9609,4.1463 23,11.5625 5.039,7.4163 7.548,16.6797 7.5313,27.8125 0.017,11.1328 -2.4923,20.3962 -7.5313,27.8125 -5.0391,7.4163 -12.7042,11.2779 -23,11.5625 -10.2957,-0.2846 -17.9609,-4.1462 -23,-11.5625 -5.039,-7.4163 -7.548,-16.6797 -7.5312,-27.8125 -0.017,-11.1328 2.4922,-20.3962 7.5312,-27.8125 5.0391,-7.4162 12.7043,-11.2778 23,-11.5625 z m 158.3438,0 c 10.2957,0.2847 17.9609,4.1463 23,11.5625 5.039,7.4163 7.5479,16.6797 7.5312,27.8125 0.017,11.1328 -2.4922,20.3962 -7.5312,27.8125 -5.0391,7.4163 -12.7043,11.2779 -23,11.5625 -10.2958,-0.2846 -17.9922,-4.1462 -23.0313,-11.5625 -5.039,-7.4163 -7.548,-16.6797 -7.5312,-27.8125 -0.017,-11.1328 2.4922,-20.3962 7.5312,-27.8125 5.0391,-7.4162 12.7355,-11.2778 23.0313,-11.5625 z m 268,0 c 10.2957,0.2847 17.9609,4.1463 23,11.5625 5.039,7.4163 7.5487,16.6797 7.5312,27.8125 0.018,11.1328 -2.4922,20.3962 -7.5312,27.8125 -5.0391,7.4163 -12.7043,11.2779 -23,11.5625 -10.2958,-0.2846 -17.961,-4.1462 -23,-11.5625 -5.0391,-7.4163 -7.5488,-16.6797 -7.5312,-27.8125 -0.018,-11.1328 2.4921,-20.3962 7.5312,-27.8125 5.039,-7.4162 12.7042,-11.2778 23,-11.5625 z m -527.2188,1.875 29.0625,0 c 7.0675,0.24 12.4805,2.4365 16.25,6.5937 3.7695,4.1575 5.6825,8.836 5.7188,14.0313 -0.036,2.9102 -1.0118,5.7696 -2.9063,8.5625 -1.8945,2.793 -4.495,4.9336 -7.8125,6.4375 3.8281,1.4063 6.9531,3.5 9.375,6.3125 2.4219,2.8125 3.6719,6.3438 3.75,10.5625 -0.1395,6.2695 -2.4163,11.5352 -6.875,15.8125 -4.4587,4.2774 -10.24,6.5117 -17.3437,6.6875 l -29.2188,0 0,-75 z m 151.9688,0 25.3125,0 c 9.1796,0.3907 15.4296,2.8907 18.75,7.5 3.3202,4.6094 4.8827,8.9844 4.6875,13.125 -0.1173,5.1563 -1.5235,9.375 -4.2188,12.6562 -2.6953,3.2813 -5.9766,5.6251 -9.8437,7.0313 3.9814,1.2442 7.2511,4.3773 9.8437,9.4062 2.5926,5.029 4.9803,10.117 7.1563,15.2501 2.1759,5.1331 4.6434,8.4745 7.375,10.0312 l -15.9375,0 c -1.4294,-2.0594 -2.8449,-4.7909 -4.2188,-8.2187 -1.3739,-3.4278 -2.912,-6.8961 -4.625,-10.375 -1.4527,-3.1978 -3.076,-5.8704 -4.875,-8.0313 -1.799,-2.1609 -4.722,-3.2885 -8.7812,-3.375 l -7.5,0 0,30 -13.125,0 0,-75 z m 157.375,0 25.3125,0 c 10.3738,0.2065 18.3515,3.7556 23.9375,10.625 5.5859,6.8695 8.4072,15.8204 8.4688,26.875 -0.062,11.0547 -2.8829,20.0056 -8.4688,26.875 -5.586,6.8694 -13.5637,10.4185 -23.9375,10.625 l -25.3125,0 0,-75 z m 77.3438,0 13.125,0 0,75 -13.125,0 0,-75 z m 35.0624,0 15,0 28.125,53.4375 0,-53.4375 13.125,0 0,75 -15,0 -28.125,-54.375 0,54.375 -13.125,0 0,-75 z m -458.8437,1.875 c 0.9431,0.011 1.8448,0.1853 2.6875,0.5312 0.8426,0.3461 1.5748,0.797 2.25,1.3438 0.4743,0.2623 1.0725,1.0436 1.7812,2.3437 0.7087,1.3003 1.115,3.5414 1.1875,6.75 -0.4185,4.7267 -2.1015,8.4141 -5.0312,11.0313 -2.9297,2.6172 -4.6127,3.9297 -5.0313,3.9687 l -0.9375,-2.25 c 0.2456,-0.053 1.25,-0.8632 2.9688,-2.4062 1.7187,-1.5429 2.6919,-3.5095 2.9375,-5.9063 l 0,-0.9375 c -0.4102,0.1982 -0.8812,0.3254 -1.375,0.4063 -0.4939,0.081 -0.9604,0.1278 -1.4375,0.125 -2.1289,-0.053 -3.9035,-0.7784 -5.3125,-2.1875 -1.4091,-1.409 -2.1345,-3.1835 -2.1875,-5.3125 0.053,-2.1289 0.7784,-3.9034 2.1875,-5.3125 1.409,-1.409 3.1836,-2.1344 5.3125,-2.1875 z m 17.6875,0 c 0.9431,0.011 1.8448,0.1853 2.6875,0.5312 0.8426,0.3461 1.606,0.797 2.2812,1.3438 0.4744,0.2623 1.0413,1.0436 1.75,2.3437 0.7087,1.3003 1.115,3.5414 1.1875,6.75 -0.4185,4.7267 -2.1015,8.4141 -5.0312,11.0313 -2.9297,2.6172 -4.5815,3.9297 -5,3.9687 l -0.9375,-2.25 c 0.2455,-0.053 1.2187,-0.8632 2.9375,-2.4062 1.7187,-1.5429 2.6919,-3.5095 2.9375,-5.9063 l 0,-0.9375 c -0.4102,0.1982 -0.8499,0.3254 -1.3438,0.4063 -0.4938,0.081 -0.9916,0.1278 -1.4687,0.125 -2.1289,-0.053 -3.9035,-0.7784 -5.3125,-2.1875 -1.4091,-1.409 -2.1345,-3.1835 -2.1875,-5.3125 0.053,-2.1289 0.7784,-3.9034 2.1875,-5.3125 1.409,-1.409 3.1836,-2.1344 5.3125,-2.1875 z m 597.3125,0 c 0.9431,0.011 1.8448,0.1853 2.6875,0.5312 0.8426,0.3461 1.5748,0.797 2.25,1.3438 0.4743,0.2623 1.0729,1.0436 1.7812,2.3437 0.7098,1.3003 1.1142,3.5414 1.1876,6.75 -0.4194,4.7267 -2.1016,8.4141 -5.0313,11.0313 -2.9297,2.6172 -4.6119,3.9297 -5.0313,3.9687 l -0.9374,-2.25 c 0.2444,-0.053 1.2499,-0.8632 2.9687,-2.4062 1.7187,-1.5429 2.6919,-3.5095 2.9375,-5.9063 l 0,-0.9375 c -0.4102,0.1982 -0.8812,0.3254 -1.375,0.4063 -0.4939,0.081 -0.9604,0.1278 -1.4375,0.125 -2.1289,-0.053 -3.9035,-0.7784 -5.3125,-2.1875 -1.409,-1.409 -2.1345,-3.1835 -2.1875,-5.3125 0.053,-2.1289 0.7785,-3.9034 2.1875,-5.3125 1.409,-1.409 3.1836,-2.1344 5.3125,-2.1875 z m 17.6875,0 c 0.9431,0.011 1.8448,0.1853 2.6875,0.5312 0.8426,0.3461 1.6049,0.797 2.2813,1.3438 0.4737,0.2623 1.0401,1.0436 1.75,2.3437 0.7083,1.3003 1.116,3.5414 1.1874,6.75 -0.4174,4.7267 -2.1015,8.4141 -5.0312,11.0313 -2.9297,2.6172 -4.5815,3.9297 -5,3.9687 l -0.9375,-2.25 c 0.2455,-0.053 1.2187,-0.8632 2.9375,-2.4062 1.7187,-1.5429 2.6919,-3.5095 2.9375,-5.9063 l 0,-0.9375 c -0.4102,0.1982 -0.851,0.3254 -1.3437,0.4063 -0.4946,0.081 -0.9917,0.1278 -1.4688,0.125 -2.1289,-0.053 -3.9035,-0.7784 -5.3125,-2.1875 -1.409,-1.409 -2.1345,-3.1835 -2.1875,-5.3125 0.053,-2.1289 0.7785,-3.9034 2.1875,-5.3125 1.409,-1.409 3.1836,-2.1344 5.3125,-2.1875 z m -494.7188,8.4375 c -5.2539,0.078 -9.5195,2.4844 -12.7812,7.25 -3.2617,4.7657 -4.9336,11.4219 -5.0313,19.9375 0.098,8.5156 1.7696,15.1406 5.0313,19.9063 3.2617,4.7656 7.5273,7.2031 12.7812,7.2812 5.2539,-0.078 9.5195,-2.5156 12.7813,-7.2812 3.2617,-4.7657 4.9335,-11.3907 5.0312,-19.9063 -0.098,-8.5156 -1.7695,-15.1718 -5.0312,-19.9375 -3.2618,-4.7656 -7.5274,-7.1718 -12.7813,-7.25 z m 158.3438,0 c -5.2539,0.078 -9.5196,2.4844 -12.7813,7.25 -3.2617,4.7657 -4.9336,11.4219 -5.0312,19.9375 0.098,8.5156 1.7695,15.1406 5.0312,19.9063 3.2617,4.7656 7.5274,7.2031 12.7813,7.2812 5.2539,-0.078 9.4882,-2.5156 12.75,-7.2812 3.2617,-4.7657 4.9648,-11.3907 5.0625,-19.9063 -0.098,-8.5156 -1.8008,-15.1718 -5.0625,-19.9375 -3.2618,-4.7656 -7.4961,-7.1718 -12.75,-7.25 z m 268,0 c -5.2539,0.078 -9.5204,2.4844 -12.7812,7.25 -3.2618,4.7657 -4.9337,11.4219 -5.0313,19.9375 0.098,8.5156 1.7695,15.1406 5.0313,19.9063 3.2608,4.7656 7.5273,7.2031 12.7812,7.2812 5.2539,-0.078 9.5203,-2.5156 12.7812,-7.2812 3.2618,-4.7657 4.9336,-11.3907 5.0313,-19.9063 -0.098,-8.5156 -1.7695,-15.1718 -5.0313,-19.9375 -3.2609,-4.7656 -7.5273,-7.1718 -12.7812,-7.25 z m -514.0938,0.9375 0,19.2812 15,0 c 2.8516,-0.05 5.1328,-0.9608 6.8125,-2.7187 1.6797,-1.7578 2.5234,-4.0435 2.5625,-6.9063 -0.098,-3.2728 -1.082,-5.6991 -2.9375,-7.2812 -1.8555,-1.582 -3.9961,-2.3833 -6.4375,-2.375 l -15,0 z m 151.9688,0 0,22.5 8.4375,0 c 3.8671,0.034 7.1484,-0.8504 9.8437,-2.625 2.6953,-1.7745 4.1016,-4.6406 4.2188,-8.625 -0.1172,-3.9843 -1.5235,-6.8504 -4.2188,-8.625 -2.6953,-1.7745 -5.9766,-2.6584 -9.8437,-2.625 l -8.4375,0 z m 157.375,0 0,52.5 11.25,0 c 5.332,0.019 9.9101,-2.1211 13.7188,-6.4375 3.8085,-4.3164 5.7929,-10.9258 5.9687,-19.8125 -0.1758,-8.8867 -2.1602,-15.496 -5.9687,-19.8125 -3.8087,-4.3164 -8.3868,-6.457 -13.7188,-6.4375 l -11.25,0 z m -767.375,11.25 c 6.3923,0 11.0487,3.2058 13.625,7.7812 4.846,-4.5329 10.9456,-7.7812 16.375,-7.7812 10.1406,0 15.9375,8.0549 15.9375,16.875 l 0,37.5 -11.25,0 0,-37.5 c 0,-3.5488 -3.4167,-6 -7.125,-6 -5.68,0 -11.625,4.5317 -11.625,9.75 l 0,33.75 -11.25,0 0,-37.5 c 0,-3.5488 -3.4167,-6 -7.125,-6 -5.68,0 -11.625,4.5317 -11.625,9.75 l 0,33.75 -11.25,0 0,-52.5 9.3125,0 1.3125,3.9062 c 4.5893,-3.4661 9.8796,-5.7812 14.6875,-5.7812 z m 138.5312,0 c 8.7929,0 14.8049,1.1831 20.625,6.375 l -6.3437,7.3125 c -4.6173,-3.2272 -6.5315,-4.875 -12.375,-4.875 -4.9942,0 -9.9375,3.2658 -9.9375,5.5625 0,3.0128 1.9941,4.2646 2.4062,4.375 l 18.75,5.625 c 5.3813,1.4419 8.5625,8.2291 8.5625,14.1563 0,10.7049 -13.7101,17.7187 -21.4375,17.7187 -9.0318,0 -18.1027,-3.9777 -23.5,-9.375 l 8.125,-8.25 c 3.8961,3.8961 10.0223,6.9688 14.375,6.9688 4.5637,0 10.125,-3.5592 10.125,-6.9688 0,-2.763 -1.5321,-4.2807 -3.75,-4.875 l -15,-4.5 c -4.7736,-1.5984 -10.9375,-6.7226 -10.9375,-13.6563 0,-8.7313 8.4736,-15.5937 20.3125,-15.5937 z m 57.5313,0 c 13.125,0 24.375,12.1875 24.375,26.25 0,2.8125 -1.25,5.625 -2.8125,5.625 l -33.75,0 c 0,11.25 9.375,14.0625 14.0625,14.0625 4.6875,0 7.5,-2.4063 11.25,-7.0937 l 9.125,5.2187 c -6.5625,8.4375 -13.8125,12.1875 -20.375,12.1875 -14.0625,0 -26.7537,-11.2519 -26.5,-28.125 0.122,-8.1118 1.5266,-14.0147 5.3437,-18.75 4.5646,-5.6628 12.1334,-9.375 19.2813,-9.375 z m 119.3437,0 c 6.3923,0 11.0488,3.2058 13.625,7.7812 4.8461,-4.5329 10.9456,-7.7812 16.375,-7.7812 10.1406,0 15.9375,8.0549 15.9375,16.875 l 0,37.5 -11.25,0 0,-37.5 c 0,-3.5488 -3.4167,-6 -7.125,-6 -5.68,0 -11.625,4.5317 -11.625,9.75 l 0,33.75 -11.25,0 0,-37.5 c 0,-3.5488 -3.4167,-6 -7.125,-6 -5.68,0 -11.625,4.5317 -11.625,9.75 l 0,33.75 -11.25,0 0,-52.5 9.2813,0 1.3125,3.9062 c 4.5893,-3.4662 9.9108,-5.7812 14.7187,-5.7812 z M 290,939.8622 l 11.7812,0 0,37.5 c 0,3.5488 3.5606,6 7.4375,6 5.9382,0 12.1563,-4.5317 12.1563,-9.75 l 0,-33.75 11.75,0 0,52.5 -10.4375,0 -1.3125,-3.9062 c -4.5892,3.4662 -9.9109,5.7812 -14.7188,5.7812 -10.6016,0 -16.6562,-8.0549 -16.6562,-16.875 l 0,-37.5 z m 174.125,0 11.7812,0 0,37.5 c 0,3.5488 3.5606,6 7.4375,6 5.9382,0 12.1563,-4.5317 12.1563,-9.75 l 0,-33.75 11.75,0 0,52.5 -10.4375,0 -1.3125,-3.9062 c -4.5892,3.4662 -9.9109,5.7812 -14.7188,5.7812 -10.6016,0 -16.6562,-8.0549 -16.6562,-16.875 l 0,-37.5 z m -37.4375,7.5 c -5.9659,0.2298 -12.1875,3.75 -12.1875,13.125 l 23.4375,0 c 0.6696,0 0.9375,-0.9375 0.9375,-1.875 0,-5.5287 -6.6629,-11.4628 -12.1875,-11.25 z m 261.9687,9.375 0,22.5 15.9375,0 c 3.75,-0.1339 6.5625,-1.3482 8.4375,-3.625 1.875,-2.2768 2.8125,-4.8125 2.8125,-7.625 0,-2.8125 -0.9375,-5.3482 -2.8125,-7.625 -1.875,-2.2768 -4.6875,-3.491 -8.4375,-3.625 l -15.9375,0 z"
       id="rect14098" />
    <rect
       style="color:#000000;fill:none;stroke:#000000;stroke-width:2;stroke-miterlimit:4;stroke-opacity:1;stroke-dasharray:none;marker:none;visibility:visible;display:inline;overflow:visible;enable-background:accumulate"
       id="rect11795-9-7-3"
       width="548"
       height="1698"
       x="-1051.3622"
       y="1"
       transform="matrix(0,-1,1,0,0,0)"
       rx="44"
       ry="44" />
  </g>
</svg>
