<?xml version="1.0" encoding="UTF-8" standalone="no"?>
<!-- Created with Inkscape (http://www.inkscape.org/) -->

<svg
   xmlns:dc="http://purl.org/dc/elements/1.1/"
   xmlns:cc="http://creativecommons.org/ns#"
   xmlns:rdf="http://www.w3.org/1999/02/22-rdf-syntax-ns#"
   xmlns:svg="http://www.w3.org/2000/svg"
   xmlns="http://www.w3.org/2000/svg"
   xmlns:sodipodi="http://sodipodi.sourceforge.net/DTD/sodipodi-0.dtd"
   xmlns:inkscape="http://www.inkscape.org/namespaces/inkscape"
   width="1050"
   height="350"
   id="svg2"
   version="1.1"
   inkscape:version="0.48.4 r9939"
   sodipodi:docname="6.21.1.svg">
  <title
     id="title3006">6.21.1 Направление движения к аварийному выходу</title>
  <defs
     id="defs4" />
  <sodipodi:namedview
     id="base"
     pagecolor="#ffffff"
     bordercolor="#666666"
     borderopacity="1.0"
     inkscape:pageopacity="0.0"
     inkscape:pageshadow="2"
     inkscape:zoom="1"
     inkscape:cx="716.30181"
     inkscape:cy="210.42811"
     inkscape:document-units="px"
     inkscape:current-layer="layer1"
     showgrid="false"
     inkscape:window-width="1920"
     inkscape:window-height="1024"
     inkscape:window-x="-4"
     inkscape:window-y="-4"
     inkscape:window-maximized="1"
     inkscape:snap-bbox="true"
     inkscape:bbox-paths="true"
     inkscape:bbox-nodes="true"
     inkscape:snap-bbox-edge-midpoints="true"
     inkscape:snap-bbox-midpoints="true"
     inkscape:object-paths="true"
     inkscape:snap-intersection-paths="true"
     inkscape:object-nodes="true"
     inkscape:snap-smooth-nodes="true"
     inkscape:snap-midpoints="true"
     inkscape:snap-object-midpoints="true" />
  <metadata
     id="metadata7">
    <rdf:RDF>
      <cc:Work
         rdf:about="">
        <dc:format>image/svg+xml</dc:format>
        <dc:type
           rdf:resource="http://purl.org/dc/dcmitype/StillImage" />
        <dc:title>6.21.1 Направление движения к аварийному выходу</dc:title>
        <cc:license
           rdf:resource="http://creativecommons.org/licenses/by-sa/3.0/" />
        <dc:description>ГОСТ Р 52290-2004
Размеры и пропорции по типоразмеру II</dc:description>
      </cc:Work>
      <cc:License
         rdf:about="http://creativecommons.org/licenses/by-sa/3.0/">
        <cc:permits
           rdf:resource="http://creativecommons.org/ns#Reproduction" />
        <cc:permits
           rdf:resource="http://creativecommons.org/ns#Distribution" />
        <cc:requires
           rdf:resource="http://creativecommons.org/ns#Notice" />
        <cc:requires
           rdf:resource="http://creativecommons.org/ns#Attribution" />
        <cc:permits
           rdf:resource="http://creativecommons.org/ns#DerivativeWorks" />
        <cc:requires
           rdf:resource="http://creativecommons.org/ns#ShareAlike" />
      </cc:License>
    </rdf:RDF>
  </metadata>
  <g
     inkscape:label="Layer 1"
     inkscape:groupmode="layer"
     id="layer1"
     transform="translate(0,-702.36218)">
    <rect
       style="color:#000000;fill:#ffffff;fill-opacity:1;stroke:none;stroke-width:1.99999975999999990;marker:none;visibility:visible;display:inline;overflow:visible;enable-background:accumulate;opacity:1"
       id="rect6880"
       width="1050"
       height="350"
       x="0"
       y="702.36218"
       ry="45"
       rx="45" />
    <path
       style="color:#000000;fill:#00a500;fill-opacity:1;fill-rule:nonzero;stroke:none;stroke-width:3.54299998;marker:none;visibility:visible;display:inline;overflow:visible;enable-background:accumulate"
       d="M 278.65625 10 L 0 175 L 278.65625 340 L 1005 340 C 1024.39 340 1040 324.39 1040 305 L 1040 45 C 1040 25.61 1024.39 10 1005 10 L 278.65625 10 z M 280 52.5 L 402.5 52.5 L 402.5 297.5 L 280 297.5 L 280 52.5 z M 828.21875 60.375 C 836.7759 60.375 842.33973 67.55063 842.59375 78.34375 C 842.59375 91.36498 831.3737 114.71875 821.34375 114.71875 C 814.78282 114.71875 801.65625 106.34084 801.65625 90.5625 C 801.65625 74.69568 816.5739 60.375 828.21875 60.375 z M 842.9375 104.34375 C 843.11994 104.32975 843.31572 104.34375 843.5 104.34375 L 900.21875 104.34375 C 902.04365 104.34375 903.77213 105.12907 905.0625 106.5625 L 932.5 137.03125 C 936.53077 141.5088 936.53077 148.77245 932.5 153.25 C 928.46922 157.72755 921.93703 157.72755 917.90625 153.25 L 893.125 125.75 L 863.3125 125.75 L 887 171.3125 C 890.8003 178.62426 888.55094 187.96606 881.96875 192.1875 L 833.65625 223.15625 L 833.65625 287.03125 C 833.65625 293.78555 828.70537 299.25 822.625 299.25 C 816.54462 299.25 811.625 293.78546 811.625 287.03125 L 811.625 214.34375 C 811.625 211.06679 813.19535 208.04468 815.75 206.40625 L 854.28125 181.71875 L 828.75 132.65625 C 827.27502 129.81836 827.27502 126.30672 828.75 123.46875 L 836.34375 108.9375 C 837.7266 106.27698 840.2019 104.54605 842.9375 104.34375 z M 823.59375 136.46875 L 834.71875 157.84375 L 818.40625 189.09375 C 816.5061 192.74968 812.29114 194.01693 809 191.90625 L 775.15625 170.21875 C 770.21959 167.05265 768.52487 160.01505 771.375 154.53125 C 774.22523 149.04727 780.53218 147.17766 785.46875 150.34375 L 808.65625 165.21875 L 823.59375 136.46875 z M 512.75 144.375 L 512.75 164.0625 L 700 164.0625 L 700 185.9375 L 512.75 185.9375 L 512.75 205.625 L 472.5 175 L 512.75 144.375 z M 951.1875 195.03125 C 955.09178 194.91859 958.94112 197.1035 961.03125 201.125 C 964.07143 206.97455 962.26575 214.46651 957 217.84375 L 899.8125 254.46875 C 896.52137 256.57969 892.30631 255.31217 890.40625 251.65625 L 868.5625 209.625 L 887.625 197.40625 L 901.9375 224.90625 L 945.96875 196.65625 C 947.6143 195.60086 949.41283 195.08246 951.1875 195.03125 z M 545.40625 217.875 C 552.51558 218.12767 558.20308 221.63809 562.46875 228.375 C 566.73432 235.11203 568.92182 243.55994 569.03125 253.75 C 568.92182 264.43231 566.73432 273.03647 562.46875 279.5625 C 558.20308 286.08855 552.51558 289.44271 545.40625 289.625 C 538.29685 289.44271 532.60936 286.08854 528.34375 279.5625 C 524.07811 273.03647 521.89062 264.43231 521.78125 253.75 C 521.89062 243.06775 524.07811 234.4636 528.34375 227.9375 C 532.60936 221.41153 538.29685 218.05736 545.40625 217.875 z M 604.78125 217.875 C 611.89058 218.12767 617.57808 221.63809 621.84375 228.375 C 626.10932 235.11203 628.29682 243.55994 628.40625 253.75 C 628.29682 264.43231 626.10932 273.03647 621.84375 279.5625 C 617.57808 286.08855 611.89058 289.44271 604.78125 289.625 C 597.67185 289.44271 591.98436 286.08854 587.71875 279.5625 C 583.45311 273.03647 581.26562 264.43231 581.15625 253.75 C 581.26562 243.06775 583.45311 234.4636 587.71875 227.9375 C 591.98436 221.41153 597.67185 218.05736 604.78125 217.875 z M 493.84375 218.75 L 504.34375 218.75 L 504.34375 288.75 L 492.09375 288.75 L 492.09375 234.5 L 482.71875 240.375 L 478.59375 235 L 493.84375 218.75 z M 545.40625 228.75 C 541.97914 228.69797 539.23956 230.67714 537.1875 234.6875 C 535.13539 238.69797 534.08331 245.05213 534.03125 253.75 C 534.08331 262.44794 535.1354 268.8021 537.1875 272.8125 C 539.23956 276.82293 541.97914 278.80209 545.40625 278.75 C 548.8333 278.80209 551.57288 276.82293 553.625 272.8125 C 555.67704 268.80211 556.72912 262.44794 556.78125 253.75 C 556.72912 245.05212 555.67704 238.69796 553.625 234.6875 C 551.57288 230.67714 548.8333 228.69798 545.40625 228.75 z M 604.78125 228.75 C 601.35414 228.69797 598.61456 230.67714 596.5625 234.6875 C 594.51039 238.69797 593.45831 245.05213 593.40625 253.75 C 593.45831 262.44794 594.5104 268.8021 596.5625 272.8125 C 598.61456 276.82293 601.35414 278.80209 604.78125 278.75 C 608.2083 278.80209 610.94788 276.82293 613 272.8125 C 615.05204 268.80211 616.10412 262.44794 616.15625 253.75 C 616.10412 245.05212 615.05204 238.69796 613 234.6875 C 610.94788 230.67714 608.2083 228.69798 604.78125 228.75 z M 646.6875 239.75 L 657.1875 239.75 L 669.4375 264.25 L 681.6875 239.75 L 692.1875 239.75 L 696.5625 288.75 L 686.0625 288.75 L 683.4375 254.625 L 669.4375 282.625 L 655.4375 254.625 L 652.8125 288.75 L 642.3125 288.75 L 646.6875 239.75 z "
       transform="translate(0,702.36218)"
       id="rect14198" />
    <rect
       rx="44"
       ry="44"
       y="703.36218"
       x="1"
       height="348"
       width="1048"
       id="rect14124"
       style="color:#000000;fill:none;stroke:#000000;stroke-width:2;stroke-miterlimit:4;stroke-opacity:1;stroke-dasharray:none;marker:none;visibility:visible;display:inline;overflow:visible;enable-background:accumulate;opacity:1" />
  </g>
</svg>
