<?xml version="1.0" encoding="UTF-8" standalone="no"?>
<!-- Created with Inkscape (http://www.inkscape.org/) -->

<svg
   xmlns:dc="http://purl.org/dc/elements/1.1/"
   xmlns:cc="http://creativecommons.org/ns#"
   xmlns:rdf="http://www.w3.org/1999/02/22-rdf-syntax-ns#"
   xmlns:svg="http://www.w3.org/2000/svg"
   xmlns="http://www.w3.org/2000/svg"
   xmlns:sodipodi="http://sodipodi.sourceforge.net/DTD/sodipodi-0.dtd"
   xmlns:inkscape="http://www.inkscape.org/namespaces/inkscape"
   width="1160"
   height="275"
   id="svg2"
   version="1.1"
   inkscape:version="0.48.4 r9939"
   sodipodi:docname="6.11 B.svg">
  <title
     id="title3006">6.11 Наименование объекта</title>
  <defs
     id="defs4" />
  <sodipodi:namedview
     id="base"
     pagecolor="#ffffff"
     bordercolor="#666666"
     borderopacity="1.0"
     inkscape:pageopacity="0.0"
     inkscape:pageshadow="2"
     inkscape:zoom="1"
     inkscape:cx="612.32251"
     inkscape:cy="161.25971"
     inkscape:document-units="px"
     inkscape:current-layer="layer1"
     showgrid="false"
     inkscape:window-width="1920"
     inkscape:window-height="1024"
     inkscape:window-x="-4"
     inkscape:window-y="-4"
     inkscape:window-maximized="1"
     inkscape:snap-bbox="true"
     inkscape:bbox-paths="true"
     inkscape:bbox-nodes="true"
     inkscape:snap-bbox-edge-midpoints="true"
     inkscape:snap-bbox-midpoints="true"
     inkscape:object-paths="true"
     inkscape:snap-intersection-paths="true"
     inkscape:object-nodes="true"
     inkscape:snap-smooth-nodes="true"
     inkscape:snap-midpoints="true"
     inkscape:snap-object-midpoints="true" />
  <metadata
     id="metadata7">
    <rdf:RDF>
      <cc:Work
         rdf:about="">
        <dc:format>image/svg+xml</dc:format>
        <dc:type
           rdf:resource="http://purl.org/dc/dcmitype/StillImage" />
        <dc:title>6.11 Наименование объекта</dc:title>
        <cc:license
           rdf:resource="http://creativecommons.org/licenses/by-sa/3.0/" />
        <dc:description>ГОСТ Р 52290-2004</dc:description>
      </cc:Work>
      <cc:License
         rdf:about="http://creativecommons.org/licenses/by-sa/3.0/">
        <cc:permits
           rdf:resource="http://creativecommons.org/ns#Reproduction" />
        <cc:permits
           rdf:resource="http://creativecommons.org/ns#Distribution" />
        <cc:requires
           rdf:resource="http://creativecommons.org/ns#Notice" />
        <cc:requires
           rdf:resource="http://creativecommons.org/ns#Attribution" />
        <cc:permits
           rdf:resource="http://creativecommons.org/ns#DerivativeWorks" />
        <cc:requires
           rdf:resource="http://creativecommons.org/ns#ShareAlike" />
      </cc:License>
    </rdf:RDF>
  </metadata>
  <g
     inkscape:label="Layer 1"
     inkscape:groupmode="layer"
     id="layer1"
     transform="translate(0,-777.36218)">
    <rect
       style="color:#000000;fill:#ffffff;fill-opacity:1;fill-rule:nonzero;stroke:none;stroke-width:3.54299998;marker:none;visibility:visible;display:inline;overflow:visible;enable-background:accumulate"
       id="rect3393"
       width="1160"
       height="275"
       x="0"
       y="777.36218"
       rx="45"
       ry="45" />
    <path
       inkscape:connector-curvature="0"
       style="color:#000000;fill:#0d69e1;fill-opacity:1;fill-rule:nonzero;stroke:none;stroke-width:3.54299998;marker:none;visibility:visible;display:inline;overflow:visible;enable-background:accumulate"
       d="m 45,786.36217 c -19.944,0 -36.0000005,16.056 -36.0000005,36 l 0,184.99993 c 0,19.944 16.0560005,36 36.0000005,36 l 1070,0 c 19.944,0 36,-16.056 36,-36 l 0,-184.99993 c 0,-19.944 -16.056,-36 -36,-36 l -1070,0 z m 379.59376,39.125 c 10.29568,0.28156 17.96085,4.12437 23,11.53125 5.03897,7.40701 7.54789,16.68919 7.53125,27.84375 0.0166,11.15464 -2.49228,20.43681 -7.53125,27.84375 -5.03915,7.40696 -12.70432,11.24976 -23,11.53125 -9.54679,-0.22432 -16.82111,-3.57705 -21.84375,-10.03125 -5.02273,-6.45419 -7.87233,-14.66395 -8.53125,-24.65625 l -12.75,0 0,32.8125 -13.125,0 0,-75 13.125,0 0,30.9375 12.90625,0 c 0.90603,-9.51413 3.87531,-17.29619 8.875,-23.375 4.9996,-6.07867 12.10398,-9.23409 21.34375,-9.4375 z m -138.53125,1.875 9.375,0 c 0.50779,2.36336 1.60154,4.19148 3.28125,5.5 1.67966,1.30866 3.7109,1.98054 6.09375,2 2.32418,-0.0195 4.24606,-0.69134 5.75,-2 1.50386,-1.30852 2.70699,-3.13665 3.625,-5.5 l 9.375,0 c 0.081,0.18526 -0.27204,1.46767 -1.09375,3.875 -0.82181,2.40748 -2.58454,4.84266 -5.28125,7.25 -2.6968,2.40747 -6.83106,3.68987 -12.375,3.875 -5.54401,-0.18513 -9.64701,-1.46753 -12.34375,-3.875 -2.69678,-2.40734 -4.45951,-4.84252 -5.28125,-7.25 -0.82177,-2.40733 -1.20603,-3.68974 -1.125,-3.875 z m 233.28125,0 15,0 24.375,75 -14.0625,0 -4.6875,-15 -26.25,0 -4.6875,15 -14.0625,0 24.375,-75 z m 80.90625,0 46.875,0 0,11.25 -33.75,0 0,63.75 -13.125,0 0,-75 z m 78,0 15,0 24.375,75 -14.0625,0 -4.6875,-15 -26.25,0 -4.6875,15 -14.0625,0 24.375,-75 z m 50.84375,0 46.875,0 0,11.25 -33.75,0 0,63.75 -13.125,0 0,-75 z m 78,0 15,0 24.375,75 -14.0625,0 -4.6875,-15 -26.25,0 -4.6875,15 -14.0625,0 24.375,-75 z m 50.84375,0 25.3125,0 c 9.25776,0.42976 15.82026,3.30476 19.6875,8.65625 3.86713,5.35163 5.74213,10.60162 5.625,15.71875 -0.11725,5.11723 -2.461,10.33598 -7.03125,15.6875 -4.57036,5.35159 -10.66411,8.25784 -18.28125,8.6875 l -12.1875,0 0,26.25 -13.125,0 0,-75 z m 65.0625,0 13.125,0 0,51.5625 27.18752,-51.5625 14.0625,0 0,75 -13.125,0 0,-51.5625 -27.18752,51.5625 -14.0625,0 0,-75 z m 68.74999,0 13.125,0 0,30 28.125,0 0,-30 13.125,0 0,75 -13.125,0 0,-33.75 -28.125,0 0,33.75 -13.125,0 0,-75 z m 90.2812,0 15,0 24.375,75 -14.0624,0 -4.6876,-15 -26.25,0 -4.6874,15 -14.0626,0 24.375,-75 z m -657.43744,10.3125 c -5.25397,0.0782 -9.51959,2.48444 -12.78125,7.25 -3.26177,4.76568 -4.93364,11.42192 -5.03125,19.9375 0.0976,8.51565 1.76948,15.14065 5.03125,19.90625 3.26166,4.76564 7.52728,7.20313 12.78125,7.28125 5.25383,-0.0781 9.51945,-2.51561 12.78125,-7.28125 3.26163,-4.7656 4.93351,-11.3906 5.03125,-19.90625 -0.0977,-8.51558 -1.76961,-15.17182 -5.03125,-19.9375 -3.2618,-4.76556 -7.52742,-7.17181 -12.78125,-7.25 z m 446.46875,0.9375 0,26.25 8.4375,0 c 3.90621,0.0391 7.34371,-0.99215 10.3125,-3.0625 2.9687,-2.07027 4.5312,-5.41402 4.6875,-10.0625 -0.1563,-4.64838 -1.7188,-8.02338 -4.6875,-10.09375 -2.96879,-2.07025 -6.40629,-3.07025 -10.3125,-3.03125 l -8.4375,0 z m -344.21875,5.625 -9.375,31.875 18.75,0 -9.375,-31.875 z m 158.90625,0 -9.375,31.875 18.75,0 -9.375,-31.875 z m 128.84375,0 -9.375,31.875 18.75,0 -9.375,-31.875 z m 274.93744,0 -9.375,31.875 18.75,0 -9.375,-31.875 z m -841.68744,3.75 c 6.75777,0.21489 12.44527,2.82427 17.09375,7.84375 4.64838,5.01957 7.08588,11.16019 7.28125,18.40625 -0.0168,1.46487 -0.29359,2.76174 -0.8125,3.875 -0.51903,1.11331 -1.17974,1.69143 -2,1.75 l -33.75,0 c 0.29294,5.50783 2.02732,9.25782 5.25,11.25 3.22263,1.9922 6.17575,2.9297 8.8125,2.8125 2.28512,-0.003 4.26949,-0.58984 5.96875,-1.78125 1.69918,-1.19139 3.4648,-2.96595 5.28125,-5.3125 l 9.09375,5.21875 c -3.3092,4.19923 -6.71099,7.27735 -10.1875,9.25 -3.47661,1.97265 -6.84714,2.95703 -10.15625,2.9375 -7.27402,-0.11719 -13.50839,-2.71094 -18.65625,-7.75 -5.14789,-5.03905 -7.76619,-11.8203 -7.875,-20.375 0.0391,-4.06247 0.47209,-7.62943 1.28125,-10.6875 0.80914,-3.058 2.17967,-5.74103 4.09375,-8.0625 2.3521,-2.85152 5.24719,-5.13276 8.6875,-6.8125 3.44026,-1.67963 6.96928,-2.52338 10.59375,-2.5625 z m -55.53125,0.9375 c 6.64059,0.0252 11.89058,1.23722 15.71875,3.65625 3.82807,2.41913 5.76557,5.89457 5.84375,10.40625 -0.10329,3.31198 -1.04748,6.05974 -2.875,8.25 -1.82761,2.19032 -3.90574,3.64344 -6.21875,4.34375 2.50833,0.41297 4.92573,1.57815 7.25,3.53125 2.32417,1.95315 3.55408,5.02457 3.71875,9.1875 -0.16188,5.58595 -2.26456,9.64844 -6.34375,12.1875 -4.07928,2.53906 -9.1641,3.78906 -15.21875,3.75 -4.04021,-0.0112 -8.27681,-0.76563 -12.71875,-2.25 -4.44198,-1.48437 -8.12501,-3.64509 -11.09375,-6.46875 l 6.9375,-7.625 c 2.05913,2.57535 4.79127,4.38561 8.15625,5.4375 3.36493,1.05191 6.25778,1.56753 8.71875,1.53125 2.03121,-0.0195 4.06246,-0.6914 6.09375,-2 2.03121,-1.30858 3.12496,-3.13671 3.28125,-5.5 0.0195,-1.95311 -0.46488,-3.67186 -1.5,-5.15625 -1.03519,-1.48435 -2.73832,-2.2656 -5.0625,-2.34375 l -7.5,0 0,-8.4375 7.5,0 c 1.87496,-0.0586 3.28121,-0.63669 4.21875,-1.75 0.93746,-1.11325 1.40621,-2.41012 1.40625,-3.875 -0.19535,-2.7734 -1.44535,-4.74215 -3.75,-5.875 -2.30472,-1.13277 -4.49222,-1.66402 -6.5625,-1.625 -3.23105,0.067 -5.90516,0.64736 -8.03125,1.71875 -2.12614,1.07147 -4.00114,2.22772 -5.625,3.5 l -5.09375,-9.90625 c 2.3549,-1.42573 5.12275,-2.56636 8.28125,-3.40625 3.15846,-0.83979 6.6406,-1.26166 10.46875,-1.28125 z m -132.62501,0.9375 11.250004,0 13.125002,26.25 13.125,-26.25 11.250004,0 4.6875,52.5 -11.25,0 -2.812504,-36.5625 -15,30 -15.000002,-30 -2.8125,36.5625 -11.250004,0 4.6875,-52.5 z m 58.87501,0 13.125,0 12.1875,34.6875 10.3125,-34.6875 13.125,0 -21.5625,64.6875 c -1.50394,3.30076 -3.67581,5.84764 -6.46875,7.625 -2.79299,1.77732 -5.62111,2.66795 -8.53125,2.6875 -0.38785,0.0111 -0.78294,-0.007 -1.1875,-0.0625 -0.40459,-0.0558 -1.32647,-0.21208 -2.71875,-0.46875 l -3.59375,-10.71875 c 0.95702,0.44921 1.84764,0.71483 2.6875,0.8125 0.83983,0.0976 1.5117,0.14452 2,0.125 3.22269,-0.17598 5.63989,-1.53461 7.25,-4.09375 1.61007,-2.55916 2.73751,-5.26302 3.4375,-8.09375 l -20.0625,-52.5 z m 163.75,0 11.25,0 0,35.625 21.5625,-35.625 12.1875,0 0,52.5 -11.25,0 0,-35.625 -21.5625,35.625 -12.1875,0 0,-52.5 z m -34.46875,7.5 c -3.14456,0.0782 -5.95036,1.1362 -8.375,3.15625 -2.42469,2.02013 -3.68138,5.33709 -3.8125,9.96875 l 23.4375,0 c 0.33198,-0.0195 0.57082,-0.22262 0.71875,-0.59375 0.14784,-0.37106 0.2215,-0.79294 0.21875,-1.28125 -0.16467,-2.8878 -1.50618,-5.47931 -4.03125,-7.78125 -2.52515,-2.30185 -5.24613,-3.46033 -8.15625,-3.46875 z m 222.65625,29.34375 c 2.31335,0.0586 4.24398,0.83776 5.78125,2.375 1.53723,1.53727 2.34768,3.46789 2.40625,5.78125 -0.0586,2.31337 -0.86902,4.244 -2.40625,5.78125 -1.53727,1.53726 -3.4679,2.31645 -5.78125,2.375 -2.31338,-0.0585 -4.24401,-0.83774 -5.78125,-2.375 -1.53726,-1.53725 -2.31646,-3.46788 -2.375,-5.78125 0.0585,-2.31336 0.83774,-4.24398 2.375,-5.78125 1.53725,-1.53724 3.46787,-2.31643 5.78125,-2.375 z m 102.46875,0 c 2.31335,0.0586 4.24398,0.83776 5.78125,2.375 1.53723,1.53727 2.34768,3.46789 2.40625,5.78125 -0.0586,2.31337 -0.86902,4.244 -2.40625,5.78125 -1.53727,1.53726 -3.4679,2.31645 -5.78125,2.375 -2.31338,-0.0585 -4.21276,-0.83774 -5.75,-2.375 -1.53726,-1.53725 -2.34771,-3.46788 -2.40625,-5.78125 0.0585,-2.31336 0.86899,-4.24398 2.40625,-5.78125 1.53725,-1.53724 3.43662,-2.31643 5.75,-2.375 z M 86.750006,925.48717 c 7.05073,0.0977 12.76724,2.0196 17.156254,5.75 4.38889,3.73054 7.73487,8.68366 10.03125,14.875 l -12.59375,4.6875 c -1.403524,-4.64838 -3.325394,-8.02338 -5.750004,-10.09375 -2.42472,-2.07025 -5.36444,-3.07025 -8.84375,-3.03125 -5.253942,0.0782 -9.519572,2.48444 -12.781252,7.25 -3.26175,4.76568 -4.93362,11.42188 -5.03125,19.93748 0.0976,8.5157 1.7695,15.1407 5.03125,19.9063 3.26168,4.7656 7.5273,7.2031 12.781252,7.2812 2.30464,0.019 4.24214,-0.2461 5.84375,-0.8125 1.60151,-0.5664 3.10151,-1.5508 4.46875,-2.9375 1.83588,-1.7383 3.085884,-3.4101 3.750004,-5.0312 0.66401,-1.6211 0.97651,-4.0117 0.9375,-7.1563 l -13.125004,0 0,-11.25 27.187504,0 0,37.49995 -11.25,0 -2.8125,-6.56245 c -1.5793,2.3438 -3.583764,4.33035 -6.000004,5.93745 -2.41635,1.6071 -5.41188,2.433 -9,2.5 -10.346012,-0.2846 -18.234402,-4.1462 -23.625002,-11.56245 -5.390642,-7.4163 -8.091531,-16.6797 -8.125004,-27.8125 0.03347,-11.1328 2.734363,-20.39613 8.125004,-27.81248 5.3906,-7.41622 13.27898,-11.27783 23.625002,-11.5625 z m 148.718754,0 c 7.05073,0.0977 12.76724,2.0196 17.15625,5.75 4.38889,3.73054 7.73487,8.68366 10.03125,14.875 l -12.59375,4.6875 c -1.40351,-4.64838 -3.29414,-8.02338 -5.71875,-10.09375 -2.42471,-2.07025 -5.39569,-3.07025 -8.875,-3.03125 -5.25394,0.0782 -9.51956,2.48444 -12.78125,7.25 -3.26175,4.76568 -4.93362,11.42188 -5.03125,19.93748 0.0976,8.5157 1.76951,15.1407 5.03125,19.9063 3.26169,4.7656 7.52731,7.2031 12.78125,7.2812 2.30464,0.019 4.27339,-0.2461 5.875,-0.8125 1.60151,-0.5664 3.07026,-1.5508 4.4375,-2.9375 1.83588,-1.7383 3.08588,-3.4101 3.75,-5.0312 0.66401,-1.6211 0.97651,-4.0117 0.9375,-7.1563 l -13.125,0 0,-11.25 27.1875,0 0,37.49995 -11.25,0 -2.8125,-6.56245 c -1.5793,2.3438 -3.58376,4.33035 -6,5.93745 -2.41634,1.6071 -5.41188,2.433 -9,2.5 -10.34601,-0.2846 -18.20315,-4.1462 -23.59375,-11.56245 -5.39064,-7.4163 -8.09153,-16.6797 -8.125,-27.8125 0.0335,-11.1328 2.73436,-20.39613 8.125,-27.81248 5.3906,-7.41622 13.24773,-11.27783 23.59375,-11.5625 z m -83.6875,1.875 15,0 24.375,74.99993 -14.0625,0 -4.6875,-14.99995 -26.25,0 -4.6875,14.99995 -14.0625,0 24.375,-74.99993 z m 148.71875,0 15,0 24.375,74.99993 -14.0625,0 -4.6875,-14.99995 -26.25,0 -4.6875,14.99995 -14.0625,0 24.375,-74.99993 z m 55.59375,0 25.3125,0 c 9.17964,0.3907 15.42963,2.8907 18.75,7.5 3.32025,4.60944 4.88275,8.98444 4.6875,13.125 -0.11725,5.15628 -1.5235,9.37498 -4.21875,12.65628 -2.69537,3.2812 -5.97662,5.625 -9.84375,7.0312 3.98143,1.2443 7.2511,4.3773 9.84375,9.4063 2.59253,5.0289 4.98026,10.1169 7.15625,15.25 2.17586,5.1331 4.64345,8.47445 7.375,10.03115 l -15.9375,0 c -1.4294,-2.0594 -2.84494,-4.79085 -4.21875,-8.21865 -1.37392,-3.4278 -2.91204,-6.8961 -4.625,-10.375 -1.45278,-3.1978 -3.07608,-5.8704 -4.875,-8.0313 -1.79901,-2.1609 -4.72204,-3.2885 -8.78125,-3.375 l -7.5,0 0,29.99995 -13.125,0 0,-74.99993 z m 75.25,0 13.125,0 0,74.99993 -13.125,0 0,-74.99993 z m 30.28125,0 15,0 28.125,53.43748 0,-53.43748 13.125,0 0,74.99993 -15,0 -28.125,-54.37493 0,54.37493 -13.125,0 0,-74.99993 z m -92.40625,11.25 0,22.49998 8.4375,0 c 3.86715,0.034 7.1484,-0.8504 9.84375,-2.625 2.69527,-1.7745 4.10151,-4.6406 4.21875,-8.62498 -0.11724,-3.98432 -1.52348,-6.85039 -4.21875,-8.625 -2.69535,-1.77449 -5.9766,-2.65842 -9.84375,-2.625 l -8.4375,0 z m -209.9375,5.625 -9.375,31.87498 18.75,0 -9.375,-31.87498 z m 148.71875,0 -9.375,31.87498 18.75,0 -9.375,-31.87498 z m 285.59375,3.75 c 6.39233,0 11.04875,3.2058 13.625,7.78128 4.84603,-4.53298 10.94562,-7.78128 16.375,-7.78128 10.14064,0 15.9375,8.05488 15.9375,16.87498 l 0,37.49995 -11.25,0 0,-37.49995 c 0,-3.5488 -3.4167,-6 -7.125,-6 -5.68001,0 -11.625,4.5317 -11.625,9.75 l 0,33.74995 -11.25,0 0,-37.49995 c 0,-3.5488 -3.4167,-6 -7.125,-6 -5.68001,0 -11.625,4.5317 -11.625,9.75 l 0,33.74995 -11.25,0 0,-52.49993 9.3125,0 1.3125,3.90628 c 4.58925,-3.46618 9.87961,-5.78128 14.6875,-5.78128 z m 137.90625,0 c 8.79291,0 14.80491,1.1831 20.625,6.37498 l -6.34375,7.3125 c -4.61735,-3.2272 -6.53158,-4.875 -12.375,-4.875 -4.99421,0 -9.9375,3.2658 -9.9375,5.5625 0,3.0128 1.99417,4.2646 2.40625,4.375 l 18.75,5.625 c 5.38131,1.442 8.5625,8.2291 8.5625,14.1563 0,10.705 -13.71016,17.71865 -21.4375,17.71865 -9.03186,0 -18.10272,-3.9776 -23.5,-9.37495 l 8.125,-8.25 c 3.89613,3.8961 10.02232,6.9688 14.375,6.9688 4.56373,0 10.125,-3.5592 10.125,-6.9688 0,-2.763 -1.53206,-4.2807 -3.75,-4.875 l -15,-4.5 c -4.77365,-1.5984 -10.9375,-6.7226 -10.9375,-13.6562 0,-8.7313 8.47357,-15.59378 20.3125,-15.59378 z m 58.90625,0 c 13.125,0 24.375,12.18748 24.375,26.24998 0,2.8125 -1.25001,5.625 -2.8125,5.625 l -33.75,0 c 0,11.25 9.375,14.0625 14.0625,14.0625 4.6875,0 7.5,-2.4062 11.25,-7.0937 l 9.09375,5.2187 c -6.5625,8.43735 -13.78125,12.18745 -20.34375,12.18745 -14.0625,0 -26.78498,-11.25185 -26.53125,-28.12495 0.12198,-8.1118 1.55797,-14.0146 5.375,-18.75 4.56467,-5.6628 12.13339,-9.37498 19.28125,-9.37498 z m 122.40625,0 c 6.39232,0 11.04875,3.2058 13.625,7.78128 4.84604,-4.53288 10.94562,-7.78128 16.375,-7.78128 10.14064,0 15.9375,8.05488 15.9375,16.87498 l 0,37.49995 -11.25,0 0,-37.49995 c 0,-3.5487 -3.4167,-6 -7.125,-6 -5.68001,0 -11.625,4.5318 -11.625,9.75 l 0,33.74995 -11.25,0 0,-37.49995 c 0,-3.5487 -3.4167,-6 -7.125,-6 -5.68001,0 -11.625,4.5318 -11.625,9.75 l 0,33.74995 -11.25,0 0,-52.49993 9.3125,0 1.3125,3.90628 c 4.58925,-3.46618 9.87961,-5.78128 14.6875,-5.78128 z m -261.8125,1.875 11.75,0 0,37.49998 c 0,3.5488 3.56064,6 7.4375,6 5.93818,0 12.15625,-4.5317 12.15625,-9.75 l 0,-33.74998 11.78125,0 0,52.49993 -10.46875,0 -1.3125,-3.90615 c -4.58925,3.46615 -9.87961,5.78115 -14.6875,5.78115 -10.60159,0 -16.65625,-8.05475 -16.65625,-16.87495 l 0,-37.49998 z m 178.25,0 11.75,0 0,37.49998 c 0,3.5488 3.59188,6 7.46875,6 5.93818,0 12.15625,-4.5317 12.15625,-9.75 l 0,-33.74998 11.75,0 0,52.49993 -10.46875,0 -1.28125,-3.90615 c -4.58925,3.46615 -9.91085,5.78115 -14.71875,5.78115 -10.60158,0 -16.65625,-8.05485 -16.65625,-16.87495 l 0,-37.49998 z m -38.84375,7.49998 c -5.96588,0.2298 -12.1875,3.75 -12.1875,13.125 l 23.4375,0 c 0.66964,0 0.9375,-0.9375 0.9375,-1.875 0,-5.5287 -6.66291,-11.4628 -12.1875,-11.25 z"
       id="rect10607" />
    <rect
       ry="44"
       rx="44"
       y="778.36218"
       x="1"
       height="273"
       width="1158"
       id="rect10645"
       style="color:#000000;fill:none;stroke:#000000;stroke-width:2;stroke-miterlimit:4;stroke-opacity:1;stroke-dasharray:none;marker:none;visibility:visible;display:inline;overflow:visible;enable-background:accumulate" />
  </g>
</svg>
