<?xml version="1.0" encoding="UTF-8" standalone="no"?>
<!-- Created with Inkscape (http://www.inkscape.org/) -->

<svg
   xmlns:dc="http://purl.org/dc/elements/1.1/"
   xmlns:cc="http://creativecommons.org/ns#"
   xmlns:rdf="http://www.w3.org/1999/02/22-rdf-syntax-ns#"
   xmlns:svg="http://www.w3.org/2000/svg"
   xmlns="http://www.w3.org/2000/svg"
   xmlns:sodipodi="http://sodipodi.sourceforge.net/DTD/sodipodi-0.dtd"
   xmlns:inkscape="http://www.inkscape.org/namespaces/inkscape"
   width="1050"
   height="350"
   id="svg2"
   version="1.1"
   inkscape:version="0.48.4 r9939"
   sodipodi:docname="6.14.2 A.svg">
  <title
     id="title3002">6.14.2 Номер маршрута</title>
  <defs
     id="defs4" />
  <sodipodi:namedview
     id="base"
     pagecolor="#ffffff"
     bordercolor="#666666"
     borderopacity="1.0"
     inkscape:pageopacity="0.0"
     inkscape:pageshadow="2"
     inkscape:zoom="1"
     inkscape:cx="557.33892"
     inkscape:cy="184.70869"
     inkscape:document-units="px"
     inkscape:current-layer="layer1"
     showgrid="false"
     inkscape:window-width="1920"
     inkscape:window-height="1024"
     inkscape:window-x="-4"
     inkscape:window-y="-4"
     inkscape:window-maximized="1"
     inkscape:snap-bbox="true"
     inkscape:bbox-paths="true"
     inkscape:bbox-nodes="true"
     inkscape:snap-bbox-edge-midpoints="true"
     inkscape:snap-bbox-midpoints="true"
     inkscape:object-paths="true"
     inkscape:snap-intersection-paths="true"
     inkscape:object-nodes="true"
     inkscape:snap-smooth-nodes="true" />
  <metadata
     id="metadata7">
    <rdf:RDF>
      <cc:Work
         rdf:about="">
        <dc:format>image/svg+xml</dc:format>
        <dc:type
           rdf:resource="http://purl.org/dc/dcmitype/StillImage" />
        <dc:title>6.14.2 Номер маршрута</dc:title>
        <cc:license
           rdf:resource="http://creativecommons.org/licenses/by-sa/3.0/" />
        <dc:description>ГОСТ Р 52290-2004
Размеры и пропорции по типоразмеру II</dc:description>
      </cc:Work>
      <cc:License
         rdf:about="http://creativecommons.org/licenses/by-sa/3.0/">
        <cc:permits
           rdf:resource="http://creativecommons.org/ns#Reproduction" />
        <cc:permits
           rdf:resource="http://creativecommons.org/ns#Distribution" />
        <cc:requires
           rdf:resource="http://creativecommons.org/ns#Notice" />
        <cc:requires
           rdf:resource="http://creativecommons.org/ns#Attribution" />
        <cc:permits
           rdf:resource="http://creativecommons.org/ns#DerivativeWorks" />
        <cc:requires
           rdf:resource="http://creativecommons.org/ns#ShareAlike" />
      </cc:License>
    </rdf:RDF>
  </metadata>
  <g
     inkscape:label="Layer 1"
     inkscape:groupmode="layer"
     id="layer1"
     transform="translate(0,-702.36218)">
    <rect
       y="702.36218"
       x="0"
       height="350"
       width="1050"
       id="rect7193"
       style="color:#000000;fill:#ffffff;fill-opacity:1;fill-rule:nonzero;stroke:none;stroke-width:3.54299997999999980;marker:none;visibility:visible;display:inline;overflow:visible;enable-background:accumulate;opacity:1"
       rx="45"
       ry="45" />
    <rect
       y="703.36218"
       x="1"
       height="348"
       width="1048"
       id="rect7101"
       style="color:#000000;fill:none;stroke:#000000;stroke-width:2;stroke-miterlimit:4;stroke-opacity:1;stroke-dasharray:none;marker:none;visibility:visible;display:inline;overflow:visible;enable-background:accumulate"
       rx="44"
       ry="44" />
    <path
       style="opacity:1;color:#000000;fill:#0d69e1;fill-opacity:1;fill-rule:nonzero;stroke:none;stroke-width:3.54299997999999980;marker:none;visibility:visible;display:inline;overflow:visible;enable-background:accumulate"
       d="M 45 10 C 25.61 10 10 25.61 10 45 L 10 305 C 10 324.39 25.61 340 45 340 L 310 340 C 329.39 340 345 324.39 345 305 L 345 45 C 345 25.61 329.39 10 310 10 L 45 10 z M 179.53125 97.28125 L 179.53125 153.46875 L 310.09375 153.46875 L 310.09375 196.53125 L 179.53125 196.53125 L 179.53125 252.71875 L 44.90625 175 L 179.53125 97.28125 z "
       transform="translate(0,702.36218)"
       id="rect11403" />
    <path
       style="opacity:1;color:#000000;fill:#0d69e1;fill-opacity:1;fill-rule:nonzero;stroke:none;stroke-width:3.54299997999999980;marker:none;visibility:visible;display:inline;overflow:visible;enable-background:accumulate"
       d="M 390 10 C 370.61 10 355 25.61 355 45 L 355 305 C 355 324.39 370.61 340 390 340 L 1005 340 C 1024.39 340 1040 324.39 1040 305 L 1040 45 C 1040 25.61 1024.39 10 1005 10 L 390 10 z M 513.0625 98.28125 L 539.90625 98.28125 L 574.4375 173.09375 L 608.96875 98.28125 L 635.8125 98.28125 L 653.09375 251.71875 L 624.3125 251.71875 L 614.71875 138.5625 L 574.4375 228.71875 L 534.15625 138.5625 L 524.5625 251.71875 L 495.78125 251.71875 L 513.0625 98.28125 z M 680.875 98.28125 L 769.125 98.28125 L 761.4375 123.21875 L 705.8125 123.21875 L 705.8125 159.65625 C 708.82116 155.89974 712.60602 153.32762 717.15625 151.96875 C 721.70637 150.61008 726.23401 149.98267 730.75 150.0625 C 741.89985 150.14252 752.21595 154.29877 761.6875 162.53125 C 771.15885 170.76391 776.18167 182.60524 776.78125 198.03125 C 776.58131 213.77707 771.22916 226.87322 760.71875 237.34375 C 750.20814 247.81431 735.7358 253.25661 717.3125 253.65625 C 708.24064 253.33653 700.01829 252.05048 692.625 249.8125 C 685.23165 247.57453 681.31459 246.28847 680.875 245.96875 L 677.03125 221.03125 C 681.83832 224.1085 687.51139 226.19384 694.03125 227.25 C 700.55104 228.30621 707.04863 228.79299 713.5 228.71875 C 721.65258 228.71877 729.30642 226.32695 736.5 221.53125 C 743.69343 216.73561 747.52035 209.52889 748 199.9375 C 747.95994 192.86394 745.65827 186.37476 741.0625 180.5 C 736.46657 174.62538 729.82835 171.51601 721.15625 171.15625 C 715.40139 171.516 710.61774 173.19028 706.78125 176.1875 C 702.94467 179.18487 700.04322 181.36875 698.125 182.6875 L 680.875 173.09375 L 680.875 98.28125 z M 805.375 98.28125 L 893.625 98.28125 L 885.96875 123.21875 L 830.3125 123.21875 L 830.3125 159.65625 C 833.32116 155.89974 837.10602 153.32762 841.65625 151.96875 C 846.20637 150.61008 850.73401 149.98267 855.25 150.0625 C 866.39985 150.14252 876.71595 154.29877 886.1875 162.53125 C 895.65885 170.76391 900.71292 182.60524 901.3125 198.03125 C 901.11256 213.77707 895.76041 226.87322 885.25 237.34375 C 874.73939 247.81431 860.26705 253.25661 841.84375 253.65625 C 832.77189 253.33653 824.51829 252.05048 817.125 249.8125 C 809.73165 247.57453 805.81459 246.28847 805.375 245.96875 L 801.5625 221.03125 C 806.36957 224.1085 812.01139 226.19384 818.53125 227.25 C 825.05104 228.30621 831.54863 228.79299 838 228.71875 C 846.15258 228.71877 853.83767 226.32695 861.03125 221.53125 C 868.22468 216.73561 872.0516 209.52889 872.53125 199.9375 C 872.49119 192.86394 870.15827 186.37476 865.5625 180.5 C 860.96657 174.62538 854.3596 171.51601 845.6875 171.15625 C 839.93264 171.516 835.11774 173.19028 831.28125 176.1875 C 827.44467 179.18487 824.57447 181.36875 822.65625 182.6875 L 805.375 173.09375 L 805.375 98.28125 z "
       transform="translate(0,702.36218)"
       id="rect11405" />
  </g>
</svg>
