<?xml version="1.0" encoding="UTF-8" standalone="no"?>
<!-- Created with Inkscape (http://www.inkscape.org/) -->

<svg
   xmlns:dc="http://purl.org/dc/elements/1.1/"
   xmlns:cc="http://creativecommons.org/ns#"
   xmlns:rdf="http://www.w3.org/1999/02/22-rdf-syntax-ns#"
   xmlns:svg="http://www.w3.org/2000/svg"
   xmlns="http://www.w3.org/2000/svg"
   xmlns:sodipodi="http://sodipodi.sourceforge.net/DTD/sodipodi-0.dtd"
   xmlns:inkscape="http://www.inkscape.org/namespaces/inkscape"
   width="600"
   height="600"
   id="svg2"
   version="1.1"
   inkscape:version="0.48.4 r9939"
   sodipodi:docname="6.20.2.svg">
  <title
     id="title3006">6.20.1 Аварийный выход</title>
  <defs
     id="defs4" />
  <sodipodi:namedview
     id="base"
     pagecolor="#ffffff"
     bordercolor="#666666"
     borderopacity="1.0"
     inkscape:pageopacity="0.0"
     inkscape:pageshadow="2"
     inkscape:zoom="1"
     inkscape:cx="103.63206"
     inkscape:cy="299.3846"
     inkscape:document-units="px"
     inkscape:current-layer="layer1"
     showgrid="false"
     inkscape:window-width="1920"
     inkscape:window-height="1024"
     inkscape:window-x="-4"
     inkscape:window-y="-4"
     inkscape:window-maximized="1"
     inkscape:snap-bbox="true"
     inkscape:bbox-paths="true"
     inkscape:bbox-nodes="true"
     inkscape:snap-bbox-edge-midpoints="true"
     inkscape:snap-bbox-midpoints="true"
     inkscape:object-paths="true"
     inkscape:snap-intersection-paths="true"
     inkscape:object-nodes="true"
     inkscape:snap-smooth-nodes="true"
     inkscape:snap-midpoints="true"
     inkscape:snap-object-midpoints="true" />
  <metadata
     id="metadata7">
    <rdf:RDF>
      <cc:Work
         rdf:about="">
        <dc:format>image/svg+xml</dc:format>
        <dc:type
           rdf:resource="http://purl.org/dc/dcmitype/StillImage" />
        <dc:title>6.20.1 Аварийный выход</dc:title>
        <cc:license
           rdf:resource="http://creativecommons.org/licenses/by-sa/3.0/" />
        <dc:description>ГОСТ Р 52290-2004
Размеры и пропорции по типоразмеру I</dc:description>
      </cc:Work>
      <cc:License
         rdf:about="http://creativecommons.org/licenses/by-sa/3.0/">
        <cc:permits
           rdf:resource="http://creativecommons.org/ns#Reproduction" />
        <cc:permits
           rdf:resource="http://creativecommons.org/ns#Distribution" />
        <cc:requires
           rdf:resource="http://creativecommons.org/ns#Notice" />
        <cc:requires
           rdf:resource="http://creativecommons.org/ns#Attribution" />
        <cc:permits
           rdf:resource="http://creativecommons.org/ns#DerivativeWorks" />
        <cc:requires
           rdf:resource="http://creativecommons.org/ns#ShareAlike" />
      </cc:License>
    </rdf:RDF>
  </metadata>
  <g
     inkscape:label="Layer 1"
     inkscape:groupmode="layer"
     id="layer1"
     transform="translate(0,-452.36218)">
    <rect
       style="color:#000000;fill:#ffffff;fill-opacity:1;stroke:none;stroke-width:1.99999975999999990;marker:none;visibility:visible;display:inline;overflow:visible;enable-background:accumulate;opacity:1"
       id="rect6880"
       width="600"
       height="600"
       x="0"
       y="452.36218"
       ry="45"
       rx="45" />
    <path
       style="color:#000000;fill:#00a500;fill-opacity:1;fill-rule:nonzero;stroke:none;stroke-width:3.54299998;marker:none;visibility:visible;display:inline;overflow:visible;enable-background:accumulate"
       d="m 555,462.36218 c 19.39,0 35,15.61 35,35 l 0,510.00002 c 0,19.39 -15.61,35 -35,35 l -510,0 c -19.39,0 -35,-15.61 -35,-35 l 0,-510.00002 c 0,-19.39 15.61,-35 35,-35 l 510,0 z m -348.75,46.25 -168.75,0 0,487.5 168.75,0 0,-487.5 z m 119.09375,69.375 c -20.35263,0 -46.4375,25.25872 -46.4375,53.21875 0,27.80405 22.9391,42.5625 34.40625,42.5625 17.5301,0 37.15625,-41.17938 37.15625,-64.125 -0.44399,-19.01927 -10.1688,-31.65625 -25.125,-31.65625 z m 125.8125,77.46875 -99.125,0 c -0.32226,0 -0.65001,-0.0242 -0.96875,0 -4.7812,0.35654 -9.11442,3.40543 -11.53125,8.09375 l -13.21875,25.625 c -2.57795,5.00106 -2.57795,11.15532 0,16.15625 l 44.5625,86.46875 -67.3125,43.5 c -4.46513,2.88718 -7.21875,8.25663 -7.21875,14.03125 l 0,128.03125 c 0,11.9023 8.62289,21.5625 19.25,21.5625 10.62707,0 19.21875,-9.6602 19.21875,-21.5625 l 0,-112.5 84.5,-54.59375 c 11.50415,-7.43891 15.42318,-23.89663 8.78125,-36.78125 l -41.4375,-80.3125 52.15625,0 43.28125,48.5 c 7.04484,7.89023 18.48642,7.89023 25.53125,0 7.04483,-7.89023 7.04483,-20.70353 0,-28.59375 l -47.9375,-53.6875 c -2.25537,-2.52601 -5.34169,-3.9375 -8.53125,-3.9375 z m -133.90625,56.625 -26.09375,50.65625 -40.5,-26.1875 c -8.62813,-5.57932 -19.67473,-2.28866 -24.65625,7.375 -4.9814,9.6634 -2.00313,22.01456 6.625,27.59375 l 59.125,38.25 c 5.75205,3.71932 13.08527,1.5048 16.40625,-4.9375 l 28.53125,-55.0625 -19.4375,-37.6875 z m 223.96875,103.1875 c -3.40344,-0.0854 -6.89885,0.82929 -10.0625,2.875 l -76.96875,49.78125 -25,-48.46875 -33.3125,21.53125 38.15625,74.09375 c 3.32097,6.44231 10.68541,8.62598 16.4375,4.90625 l 99.9375,-64.5 c 9.20333,-5.95119 12.37604,-19.16101 7.0625,-29.46875 -3.48701,-6.76446 -9.75252,-10.58695 -16.25,-10.75 z"
       id="rect12154"
       inkscape:connector-curvature="0" />
    <rect
       rx="44"
       ry="44"
       y="453.36218"
       x="1"
       height="598"
       width="598"
       id="rect3844-6"
       style="color:#000000;fill:none;stroke:#000000;stroke-width:2;stroke-miterlimit:4;stroke-opacity:1;stroke-dasharray:none;marker:none;visibility:visible;display:inline;overflow:visible;enable-background:accumulate;opacity:1" />
  </g>
</svg>
