<?xml version="1.0" encoding="UTF-8" standalone="no"?>
<!-- Created with Inkscape (http://www.inkscape.org/) -->

<svg
   xmlns:dc="http://purl.org/dc/elements/1.1/"
   xmlns:cc="http://creativecommons.org/ns#"
   xmlns:rdf="http://www.w3.org/1999/02/22-rdf-syntax-ns#"
   xmlns:svg="http://www.w3.org/2000/svg"
   xmlns="http://www.w3.org/2000/svg"
   xmlns:sodipodi="http://sodipodi.sourceforge.net/DTD/sodipodi-0.dtd"
   xmlns:inkscape="http://www.inkscape.org/namespaces/inkscape"
   width="700"
   height="1050"
   id="svg2"
   version="1.1"
   inkscape:version="0.48.4 r9939"
   sodipodi:docname="7.4.svg">
  <title
     id="title3002">7.13 Полиция</title>
  <defs
     id="defs4" />
  <sodipodi:namedview
     id="base"
     pagecolor="#ffffff"
     bordercolor="#666666"
     borderopacity="1.0"
     inkscape:pageopacity="0.0"
     inkscape:pageshadow="2"
     inkscape:zoom="1"
     inkscape:cx="299.8152"
     inkscape:cy="684.54946"
     inkscape:document-units="px"
     inkscape:current-layer="layer1"
     showgrid="false"
     inkscape:window-width="1920"
     inkscape:window-height="1024"
     inkscape:window-x="-4"
     inkscape:window-y="-4"
     inkscape:window-maximized="1" />
  <metadata
     id="metadata7">
    <rdf:RDF>
      <cc:Work
         rdf:about="">
        <dc:format>image/svg+xml</dc:format>
        <dc:type
           rdf:resource="http://purl.org/dc/dcmitype/StillImage" />
        <dc:title>7.13 Полиция</dc:title>
        <cc:license
           rdf:resource="http://creativecommons.org/licenses/by-sa/3.0/" />
        <dc:description>ГОСТ Р 52290-2004
Размеры и пропорции по типоразмеру II</dc:description>
      </cc:Work>
      <cc:License
         rdf:about="http://creativecommons.org/licenses/by-sa/3.0/">
        <cc:permits
           rdf:resource="http://creativecommons.org/ns#Reproduction" />
        <cc:permits
           rdf:resource="http://creativecommons.org/ns#Distribution" />
        <cc:requires
           rdf:resource="http://creativecommons.org/ns#Notice" />
        <cc:requires
           rdf:resource="http://creativecommons.org/ns#Attribution" />
        <cc:permits
           rdf:resource="http://creativecommons.org/ns#DerivativeWorks" />
        <cc:requires
           rdf:resource="http://creativecommons.org/ns#ShareAlike" />
      </cc:License>
    </rdf:RDF>
  </metadata>
  <g
     inkscape:label="Layer 1"
     inkscape:groupmode="layer"
     id="layer1"
     transform="translate(0,-2.362183)">
    <rect
       style="color:#000000;fill:#ffffff;fill-opacity:1;fill-rule:nonzero;stroke:none;stroke-width:3.54299997999999980;marker:none;visibility:visible;display:inline;overflow:visible;enable-background:accumulate;opacity:1"
       id="rect10481"
       width="700"
       height="1050"
       x="0"
       y="2.3621831"
       rx="45"
       ry="45" />
    <path
       inkscape:connector-curvature="0"
       style="color:#000000;fill:#0d69e1;fill-opacity:1;fill-rule:nonzero;stroke:none;stroke-width:3.54299997999999980;marker:none;visibility:visible;display:inline;overflow:visible;enable-background:accumulate;opacity:1"
       d="m 45.000009,22.362155 c -13.85,0 -25,11.15 -25,25 l 0,960.000045 c 0,13.85 11.15,25 25,25 l 610.000001,0 c 13.85,0 25,-11.15 25,-25 l 0,-960.000045 c 0,-13.85 -11.15,-25 -25,-25 l -610.000001,0 z m 65.625001,155.000005 478.75,0 c 24.93,0 45,20.07 45,45 l 0,478.75 c 0,24.93 -20.07,45 -45,45 l -478.75,0 c -24.930001,0 -45.000001,-20.07 -45.000001,-45 l 0,-478.75 c 0,-24.93 20.07,-45 45.000001,-45 z"
       id="rect10483" />
    <rect
       ry="44"
       rx="44"
       y="3.3621678"
       x="1.0000153"
       height="1048"
       width="698"
       id="rect10490"
       style="color:#000000;fill:none;stroke:#000000;stroke-width:1.99999988000000010;stroke-miterlimit:4;stroke-opacity:1;stroke-dasharray:none;marker:none;visibility:visible;display:inline;overflow:visible;enable-background:accumulate;opacity:1" />
    <g
       style="font-size:195.31430054000000000px;font-style:normal;font-variant:normal;font-weight:normal;font-stretch:normal;line-height:125%;letter-spacing:-13.01562500000000000px;word-spacing:0px;opacity:1;fill:#ffffff;fill-opacity:1;stroke:none;font-family:Arial;-inkscape-font-specification:Arial"
       id="text10249">
      <path
         d="m 91.778,859.00311 6.445289,8.39841 14.648381,-9.17965 0,84.76531 19.14056,0 0,-109.3746 -16.40619,0 z"
         style="fill:#ffffff;font-family:Russian Road Sign;-inkscape-font-specification:Russian Road Sign"
         id="path11301" />
      <path
         d="m 188.7756,832.2454 c -11.1084,0.28494 -19.99508,5.5258 -26.66006,15.7226 -6.66503,10.19698 -10.08298,23.64093 -10.25387,40.33188 0.17089,16.69106 3.58884,30.13501 10.25387,40.33188 6.66498,10.19691 15.55166,15.43777 26.66006,15.72261 11.10829,-0.28483 19.99497,-5.5257 26.66006,-15.72261 6.66493,-10.19688 10.08288,-23.64083 10.25387,-40.33188 -0.17099,-15.92191 -3.58894,-29.14613 -10.25387,-39.67271 -6.66509,-10.52638 -15.55177,-15.98697 -26.66006,-16.38177 z m 0,16.99213 c 5.35474,-0.0813 9.63532,3.01114 12.84175,9.2773 3.2063,6.26633 4.85018,16.19467 4.93162,29.78505 -0.0814,13.59049 -1.72532,23.51883 -4.93162,29.78505 -3.20643,6.26627 -7.48701,9.3587 -12.84175,9.27731 -5.35485,0.0814 -9.63543,-3.01104 -12.84175,-9.27731 -3.2064,-6.26623 -4.85028,-16.19456 -4.93162,-29.78505 0.0813,-13.59038 1.72522,-23.51872 4.93162,-29.78505 3.20633,-6.26616 7.48691,-9.35859 12.84175,-9.2773 z"
         style="fill:#ffffff;font-family:Russian Road Sign;-inkscape-font-specification:Russian Road Sign"
         id="path11303" />
      <path
         d="m 274.18008,832.2454 c -11.1084,0.28494 -19.99508,5.5258 -26.66006,15.7226 -6.66503,10.19698 -10.08298,23.64093 -10.25387,40.33188 0.17089,16.69106 3.58884,30.13501 10.25387,40.33188 6.66498,10.19691 15.55166,15.43777 26.66006,15.72261 11.10829,-0.28483 19.99497,-5.5257 26.66006,-15.72261 6.66493,-10.19688 10.08288,-23.64083 10.25387,-40.33188 -0.17099,-15.92191 -3.58894,-29.14613 -10.25387,-39.67271 -6.66509,-10.52638 -15.55177,-15.98697 -26.66006,-16.38177 z m 0,16.99213 c 5.35474,-0.0813 9.63532,3.01114 12.84175,9.2773 3.2063,6.26633 4.85018,16.19467 4.93162,29.78505 -0.0814,13.59049 -1.72532,23.51883 -4.93162,29.78505 -3.20643,6.26627 -7.48701,9.3587 -12.84175,9.27731 -5.35485,0.0814 -9.63543,-3.01104 -12.84175,-9.27731 -3.2064,-6.26623 -4.85028,-16.19456 -4.93162,-29.78505 0.0813,-13.59038 1.72522,-23.51872 4.93162,-29.78505 3.20633,-6.26616 7.48691,-9.35859 12.84175,-9.2773 z"
         style="fill:#ffffff;font-family:Russian Road Sign;-inkscape-font-specification:Russian Road Sign"
         id="path11305" />
      <path
         d="m 340.17061,942.98718 16.40619,0 4.10154,-53.32011 21.87492,43.74984 21.87492,-43.74984 4.10155,53.32011 16.40619,0 -6.83591,-76.56222 -16.40619,0 -19.14056,38.28111 -19.14055,-38.28111 -16.40619,0 z"
         style="fill:#ffffff;font-family:Russian Road Sign;-inkscape-font-specification:Russian Road Sign"
         id="path11307" />
    </g>
    <path
       id="path11266"
       style="opacity:1;color:#000000;fill:#ffffff;fill-opacity:1;fill-rule:nonzero;stroke:none;stroke-width:1px;marker:none;visibility:visible;display:inline;overflow:visible;enable-background:accumulate"
       d="m 524.99998,866.4247 0,-32.81261 94.79168,54.6875 -94.79169,54.6875 0,-32.81239 -43.74997,0 0,-43.75 z"
       inkscape:connector-curvature="0"
       sodipodi:nodetypes="cccccccc" />
    <g
       transform="scale(0.93534589,1.0691232)"
       style="font-size:182.68644713999998000px;font-style:normal;font-variant:normal;font-weight:normal;font-stretch:normal;line-height:125%;letter-spacing:-10.22656250000000000px;word-spacing:0px;opacity:1;fill:#000000;fill-opacity:1;stroke:none;font-family:Arial;-inkscape-font-specification:Arial"
       id="text11637">
      <path
         d="m 93.548279,370.5023 0,102.30309 17.903041,0 0,-86.95763 38.36366,0 0,86.95763 17.90304,0 0,-102.30309 z"
         style="fill:#000000;font-family:Russian Road Sign;-inkscape-font-specification:Russian Road Sign"
         id="path11852" />
      <path
         d="m 220.13351,398.63565 c -9.77745,0.15992 -17.71659,3.67659 -23.81745,10.55001 -6.1009,6.87354 -9.24458,16.14475 -9.43106,27.81365 0.18648,11.66897 3.33017,20.94017 9.43107,27.81365 6.10086,6.87349 14.04,10.39015 23.81744,10.55001 9.77734,-0.15985 17.71648,-3.67652 23.81743,-10.55001 6.10081,-6.87348 9.2445,-16.14468 9.43107,-27.81365 -0.18657,-11.6689 -3.33025,-20.94011 -9.43107,-27.81366 -6.10095,-6.87342 -14.04009,-10.39009 -23.81743,-10.55 z m 0,12.78788 c 5.22167,0.10663 9.48429,2.45107 12.78788,7.03334 3.30348,4.58237 5.00853,10.76318 5.11516,18.54244 -0.10663,7.77932 -1.81168,13.96013 -5.11516,18.54243 -3.30359,4.58234 -7.56622,6.92678 -12.78788,7.03334 -5.22176,-0.10656 -9.48439,-2.451 -12.78789,-7.03334 -3.30357,-4.58231 -5.00862,-10.76311 -5.11515,-18.54243 0.10653,-7.77926 1.81158,-13.96006 5.11515,-18.54244 3.3035,-4.58227 7.56612,-6.92671 12.78789,-7.03334 z"
         style="fill:#000000;font-family:Russian Road Sign;-inkscape-font-specification:Russian Road Sign"
         id="path11854" />
      <path
         d="m 281.50316,401.19322 c 0.008,4.93931 -0.10942,10.91375 -0.35184,17.92334 -0.24248,7.00971 -0.65747,13.55249 -1.24496,19.62839 -0.58754,6.07597 -1.39496,10.18297 -2.42225,12.32103 -1.63657,2.91536 -3.66132,5.16846 -6.07425,6.75931 -2.41297,1.59089 -4.71174,2.5652 -6.89632,2.92295 l 2.92294,14.61473 c 10.38816,-2.73124 17.46096,-7.35698 21.21842,-13.87723 3.75739,-6.52023 5.80976,-13.89299 6.15713,-22.11831 0.34729,-8.22525 0.59989,-16.26109 0.7578,-24.10753 l 20.46062,0 0,57.54549 15.34546,0 0,-71.61217 z"
         style="fill:#000000;font-family:Russian Road Sign;-inkscape-font-specification:Russian Road Sign"
         id="path11856" />
      <path
         d="m 353.10314,401.19322 0,71.61217 16.62425,0.026 29.41214,-48.62002 0,48.59397 15.34547,0 0,-71.61217 -16.62426,0 -29.41214,48.59397 0,-48.59397 z"
         style="fill:#000000;font-family:Russian Road Sign;-inkscape-font-specification:Russian Road Sign"
         id="path11858" />
      <path
         d="m 434.9334,401.19322 0,71.61217 56.2667,0 0,15.34546 15.34547,0 0,-29.41214 -14.06668,0 0,-57.54549 -15.34546,0 0,57.54549 -26.85457,0 0,-57.54549 z"
         style="fill:#000000;font-family:Russian Road Sign;-inkscape-font-specification:Russian Road Sign"
         id="path11860" />
      <path
         d="m 516.76369,401.19322 0,71.61217 16.62425,0.026 29.41214,-48.62002 0,48.59397 15.34547,0 0,-71.61217 -16.62425,0 -29.41214,48.59397 0,-48.59397 z"
         style="fill:#000000;font-family:Russian Road Sign;-inkscape-font-specification:Russian Road Sign"
         id="path11862" />
      <path
         d="m 654.86065,472.80539 0,-71.61217 -30.69092,0 c -8.84499,0.26649 -15.13237,2.61093 -18.86214,7.03334 -3.72982,4.42254 -5.54143,9.32456 -5.43485,14.70607 0.15984,4.27409 1.75832,7.96583 4.79546,11.07522 3.0371,3.10947 6.55376,5.20273 10.55001,6.27977 -4.18372,0.81084 -7.60961,3.22858 -10.27768,7.25324 -2.66811,4.0247 -5.05202,8.4452 -7.15174,13.26151 -2.09975,4.81633 -4.38894,8.81733 -6.86757,12.00302 l 17.90304,0 c 1.13442,-2.19897 2.55981,-5.57524 4.27617,-10.12882 1.71629,-4.55356 4.22425,-8.78235 7.52387,-12.6864 3.29955,-3.904 7.89146,-5.98118 13.77574,-6.23155 1.22926,-0.0114 2.19596,0.0114 2.90011,0.0685 0.70404,0.0571 1.44238,0.21697 2.21504,0.47955 l 0,28.49872 z m -15.34546,-40.92124 -14.06667,0 c -2.62232,-0.11033 -4.77647,-1.07703 -6.46246,-2.90011 -1.68605,-1.82299 -2.51574,-3.84012 -2.48907,-6.05141 0.13318,-1.99805 1.00854,-3.75639 2.62608,-5.275 1.61748,-1.51851 3.72596,-2.31775 6.32545,-2.39773 l 14.06667,0 z"
         style="fill:#000000;font-family:Russian Road Sign;-inkscape-font-specification:Russian Road Sign"
         id="path11864" />
    </g>
  </g>
</svg>
