<?xml version="1.0" encoding="UTF-8" standalone="no"?>
<!-- Created with Inkscape (http://www.inkscape.org/) -->

<svg
   xmlns:dc="http://purl.org/dc/elements/1.1/"
   xmlns:cc="http://creativecommons.org/ns#"
   xmlns:rdf="http://www.w3.org/1999/02/22-rdf-syntax-ns#"
   xmlns:svg="http://www.w3.org/2000/svg"
   xmlns="http://www.w3.org/2000/svg"
   xmlns:sodipodi="http://sodipodi.sourceforge.net/DTD/sodipodi-0.dtd"
   xmlns:inkscape="http://www.inkscape.org/namespaces/inkscape"
   width="700"
   height="1050"
   id="svg2"
   version="1.1"
   inkscape:version="0.48.4 r9939"
   sodipodi:docname="7.5.svg">
  <title
     id="title3002">7.17 Бассейн или пляж</title>
  <defs
     id="defs4" />
  <sodipodi:namedview
     id="base"
     pagecolor="#ffffff"
     bordercolor="#666666"
     borderopacity="1.0"
     inkscape:pageopacity="0.0"
     inkscape:pageshadow="2"
     inkscape:zoom="1"
     inkscape:cx="361.63609"
     inkscape:cy="656.07252"
     inkscape:document-units="px"
     inkscape:current-layer="layer1"
     showgrid="false"
     inkscape:window-width="1920"
     inkscape:window-height="1024"
     inkscape:window-x="-4"
     inkscape:window-y="-4"
     inkscape:window-maximized="1"
     showguides="true"
     inkscape:guide-bbox="true" />
  <metadata
     id="metadata7">
    <rdf:RDF>
      <cc:Work
         rdf:about="">
        <dc:format>image/svg+xml</dc:format>
        <dc:type
           rdf:resource="http://purl.org/dc/dcmitype/StillImage" />
        <dc:title>7.17 Бассейн или пляж</dc:title>
        <cc:license
           rdf:resource="http://creativecommons.org/licenses/by-sa/3.0/" />
        <dc:description>ГОСТ Р 52290-2004
Размеры и пропорции по типоразмеру II</dc:description>
      </cc:Work>
      <cc:License
         rdf:about="http://creativecommons.org/licenses/by-sa/3.0/">
        <cc:permits
           rdf:resource="http://creativecommons.org/ns#Reproduction" />
        <cc:permits
           rdf:resource="http://creativecommons.org/ns#Distribution" />
        <cc:requires
           rdf:resource="http://creativecommons.org/ns#Notice" />
        <cc:requires
           rdf:resource="http://creativecommons.org/ns#Attribution" />
        <cc:permits
           rdf:resource="http://creativecommons.org/ns#DerivativeWorks" />
        <cc:requires
           rdf:resource="http://creativecommons.org/ns#ShareAlike" />
      </cc:License>
    </rdf:RDF>
  </metadata>
  <g
     inkscape:label="Layer 1"
     inkscape:groupmode="layer"
     id="layer1"
     transform="translate(0,-2.362183)">
    <rect
       style="color:#000000;fill:#ffffff;fill-opacity:1;fill-rule:nonzero;stroke:none;stroke-width:3.54299997999999980;marker:none;visibility:visible;display:inline;overflow:visible;enable-background:accumulate;opacity:1"
       id="rect10481"
       width="700"
       height="1050"
       x="0"
       y="2.3621831"
       rx="45"
       ry="45" />
    <path
       inkscape:connector-curvature="0"
       style="color:#000000;fill:#0d69e1;fill-opacity:1;fill-rule:nonzero;stroke:none;stroke-width:3.54299997999999980;marker:none;visibility:visible;display:inline;overflow:visible;enable-background:accumulate;opacity:1"
       d="m 45.000009,22.362155 c -13.85,0 -25,11.15 -25,25 l 0,960.000045 c 0,13.85 11.15,25 25,25 l 610.000001,0 c 13.85,0 25,-11.15 25,-25 l 0,-960.000045 c 0,-13.85 -11.15,-25 -25,-25 l -610.000001,0 z m 65.625001,155.000005 478.75,0 c 24.93,0 45,20.07 45,45 l 0,478.75 c 0,24.93 -20.07,45 -45,45 l -478.75,0 c -24.930001,0 -45.000001,-20.07 -45.000001,-45 l 0,-478.75 c 0,-24.93 20.07,-45 45.000001,-45 z"
       id="rect10483" />
    <rect
       ry="44"
       rx="44"
       y="3.3621678"
       x="1.0000153"
       height="1048"
       width="698"
       id="rect10490"
       style="color:#000000;fill:none;stroke:#000000;stroke-width:1.99999988000000010;stroke-miterlimit:4;stroke-opacity:1;stroke-dasharray:none;marker:none;visibility:visible;display:inline;overflow:visible;enable-background:accumulate;opacity:1" />
    <path
       id="path10910"
       style="opacity:1;color:#000000;fill:#000000;fill-opacity:1;stroke:none;stroke-width:1;marker:none;visibility:visible;display:inline;overflow:visible;enable-background:accumulate"
       d="m 590.62499,560.17468 c -6.68401,0.003 -13.36804,2.9449 -20.05206,8.00878 -6.6841,5.06391 -13.36813,12.17643 -20.05161,19.33498 -6.68348,7.15853 -13.36749,14.27105 -20.0516,19.33497 -6.68401,5.06387 -13.36805,8.00549 -20.05207,8.00877 -6.68411,0 -13.36812,-2.94887 -20.05215,-8.00877 -6.68408,-5.05986 -13.36813,-12.17644 -20.05214,-19.33497 -6.68401,-7.15855 -13.36806,-14.27513 -20.05215,-19.33498 -6.68403,-5.05991 -13.36804,-8.00878 -20.05215,-8.00878 -6.68401,0.003 -13.36805,2.9449 -20.05206,8.00878 -6.68411,5.06391 -13.36813,12.17643 -20.05216,19.33498 -6.68403,7.15853 -13.36804,14.27105 -20.05214,19.33497 -6.68402,5.06387 -13.36806,8.00549 -20.05207,8.00877 -6.68412,0 -13.36813,-2.94887 -20.05216,-8.00877 -6.68408,-5.05986 -13.36813,-12.17644 -20.05214,-19.33497 -6.68401,-7.15855 -13.36806,-14.27513 -20.05215,-19.33498 -6.68403,-5.05991 -13.36804,-8.00878 -20.05216,-8.00878 -6.684,0.003 -13.36804,2.9449 -20.05206,8.00878 -6.6841,5.06391 -13.36813,12.17643 -20.05215,19.33498 -6.68403,7.15853 -13.36805,14.27105 -20.05215,19.33497 -6.68401,5.06387 -13.36805,8.00549 -20.05207,8.00877 -6.68411,0 -13.36813,-2.94887 -20.05215,-8.00877 -6.68409,-5.05986 -13.36813,-12.17644 -20.05215,-19.33497 -6.684,-7.15855 -13.36805,-14.27513 -20.05214,-19.33498 -6.68403,-5.05991 -13.36805,-8.00878 -20.05216,-8.00878 l 0,-32.81252 c 6.68411,0 13.36813,2.94887 20.05216,8.00877 6.68409,5.05986 13.36814,12.17644 20.05214,19.33499 6.68402,7.15853 13.36806,14.27511 20.05215,19.33497 6.68402,5.0599 13.36804,8.00877 20.05215,8.00877 6.68402,-0.003 13.36806,-2.9449 20.05207,-8.00877 6.6841,-5.06392 13.36812,-12.17644 20.05215,-19.33497 6.68402,-7.15855 13.36805,-14.27108 20.05215,-19.33499 6.68402,-5.06387 13.36806,-8.00594 20.05206,-8.00877 6.68412,0 13.36813,2.94887 20.05216,8.00877 6.68409,5.05986 13.36814,12.17644 20.05215,19.33499 6.68401,7.15853 13.36806,14.27511 20.05214,19.33497 6.68403,5.0599 13.36804,8.00877 20.05216,8.00877 6.68401,-0.003 13.36805,-2.9449 20.05207,-8.00877 6.6841,-5.06392 13.36811,-12.17644 20.05214,-19.33497 6.68403,-7.15855 13.36805,-14.27108 20.05216,-19.33499 6.68401,-5.06387 13.36805,-8.00594 20.05206,-8.00877 6.68411,0 13.36812,2.94887 20.05215,8.00877 6.68409,5.05986 13.36814,12.17644 20.05215,19.33499 6.68401,7.15853 13.36806,14.27511 20.05214,19.33497 6.68403,5.0599 13.36804,8.00877 20.05215,8.00877 6.68402,-0.003 13.36806,-2.9449 20.05207,-8.00877 6.68411,-5.06392 13.36812,-12.17644 20.0516,-19.33497 6.68348,-7.15855 13.36751,-14.27108 20.05161,-19.33499 6.68402,-5.06387 13.36805,-8.00594 20.05206,-8.00877 z"
       inkscape:connector-curvature="0"
       sodipodi:nodetypes="cssscssscssscssscssscsssccssscssscssscssscssscssscc" />
    <path
       sodipodi:nodetypes="cssscssscssscssscssscsssccssscssscssscssscssscssscc"
       inkscape:connector-curvature="0"
       d="m 590.62499,625.79968 c -6.68401,0.003 -13.36804,2.9449 -20.05206,8.00878 -6.6841,5.06391 -13.36813,12.17643 -20.05161,19.33498 -6.68348,7.15853 -13.36749,14.27105 -20.0516,19.33497 -6.68401,5.06387 -13.36805,8.00549 -20.05207,8.00877 -6.68411,0 -13.36812,-2.94887 -20.05215,-8.00877 -6.68408,-5.05986 -13.36813,-12.17644 -20.05214,-19.33497 -6.68401,-7.15855 -13.36806,-14.27513 -20.05215,-19.33498 -6.68403,-5.05991 -13.36804,-8.00878 -20.05215,-8.00878 -6.68401,0.003 -13.36805,2.9449 -20.05206,8.00878 -6.68411,5.06391 -13.36813,12.17643 -20.05216,19.33498 -6.68403,7.15853 -13.36804,14.27105 -20.05214,19.33497 -6.68402,5.06387 -13.36806,8.00549 -20.05207,8.00877 -6.68412,0 -13.36813,-2.94887 -20.05216,-8.00877 -6.68408,-5.05986 -13.36813,-12.17644 -20.05214,-19.33497 -6.68401,-7.15855 -13.36806,-14.27513 -20.05215,-19.33498 -6.68403,-5.05991 -13.36804,-8.00878 -20.05216,-8.00878 -6.684,0.003 -13.36804,2.9449 -20.05206,8.00878 -6.6841,5.06391 -13.36813,12.17643 -20.05215,19.33498 -6.68403,7.15853 -13.36805,14.27105 -20.05215,19.33497 -6.68401,5.06387 -13.36805,8.00549 -20.05207,8.00877 -6.68411,0 -13.36813,-2.94887 -20.05215,-8.00877 -6.68409,-5.05986 -13.36813,-12.17644 -20.05215,-19.33497 -6.684,-7.15855 -13.36805,-14.27513 -20.05214,-19.33498 -6.68403,-5.05991 -13.36805,-8.00878 -20.05216,-8.00878 l 0,-32.81252 c 6.68411,0 13.36813,2.94887 20.05216,8.00877 6.68409,5.05986 13.36814,12.17644 20.05214,19.33499 6.68402,7.15853 13.36806,14.27511 20.05215,19.33497 6.68402,5.0599 13.36804,8.00877 20.05215,8.00877 6.68402,-0.003 13.36806,-2.9449 20.05207,-8.00877 6.6841,-5.06392 13.36812,-12.17644 20.05215,-19.33497 6.68402,-7.15855 13.36805,-14.27108 20.05215,-19.33499 6.68402,-5.06387 13.36806,-8.00594 20.05206,-8.00877 6.68412,0 13.36813,2.94887 20.05216,8.00877 6.68409,5.05986 13.36814,12.17644 20.05215,19.33499 6.68401,7.15853 13.36806,14.27511 20.05214,19.33497 6.68403,5.0599 13.36804,8.00877 20.05216,8.00877 6.68401,-0.003 13.36805,-2.9449 20.05207,-8.00877 6.6841,-5.06392 13.36811,-12.17644 20.05214,-19.33497 6.68403,-7.15855 13.36805,-14.27108 20.05216,-19.33499 6.68401,-5.06387 13.36805,-8.00594 20.05206,-8.00877 6.68411,0 13.36812,2.94887 20.05215,8.00877 6.68409,5.05986 13.36814,12.17644 20.05215,19.33499 6.68401,7.15853 13.36806,14.27511 20.05214,19.33497 6.68403,5.0599 13.36804,8.00877 20.05215,8.00877 6.68402,-0.003 13.36806,-2.9449 20.05207,-8.00877 6.68411,-5.06392 13.36812,-12.17644 20.0516,-19.33497 6.68348,-7.15855 13.36751,-14.27108 20.05161,-19.33499 6.68402,-5.06387 13.36805,-8.00594 20.05206,-8.00877 z"
       style="opacity:1;color:#000000;fill:#000000;fill-opacity:1;stroke:none;stroke-width:1;marker:none;visibility:visible;display:inline;overflow:visible;enable-background:accumulate"
       id="path10913" />
    <path
       inkscape:connector-curvature="0"
       style="opacity:1;fill:#000000;fill-opacity:1;stroke:none"
       d="m 362.33886,231.16101 c -44.31149,0 -88.04687,11.66549 -88.04687,73.58887 0,7.19997 2.19465,18.41217 1.43554,19.55078 -15.82677,24.67623 -28.02296,18.23872 -4.61426,39.78515 -5.14571,4.50513 -4.90182,10.94819 -0.13671,13.33008 -3.25467,1.87909 -3.86872,8.0465 1.43554,9.46777 -4.18963,4.18962 -4.61426,8.30058 -4.61426,10.49317 0,14.05744 19.33339,17.86053 25.25879,19.44824 0,0 24.65121,5.38117 23.68653,18.25195 0,5.22601 -5.91285,11.58692 -10.01465,11.58692 -2.07785,0 -59.04318,3.29609 -71.43555,15.68847 -16.46804,16.46803 -26.48837,57.43995 -32.60742,83.33008 2.31545,-1.21092 4.62301,-2.68915 6.93847,-4.44336 6.68411,-5.06392 13.37945,-12.18717 20.06348,-19.3457 6.68403,-7.15855 13.37937,-14.28179 20.06348,-19.3457 6.68401,-5.06388 13.34529,-7.99522 20.0293,-7.99805 6.68411,0 13.37945,2.93814 20.06347,7.99805 6.6841,5.05985 13.37947,12.18715 20.06348,19.3457 6.68398,7.15855 13.34524,14.28581 20.0293,19.3457 6.68397,5.0599 13.37941,7.99805 20.06347,7.99805 6.68397,-0.003 13.37951,-2.9342 20.06348,-7.99805 6.68406,-5.06393 13.34531,-12.18715 20.0293,-19.3457 6.68402,-7.15855 13.37937,-14.28179 20.06347,-19.3457 6.68402,-5.06388 13.37947,-7.99522 20.06348,-7.99805 6.68411,0 13.34527,2.93814 20.0293,7.99805 6.68409,5.05985 13.37947,12.18715 20.06347,19.3457 6.68402,7.15853 13.3794,14.28584 20.06348,19.3457 2.35986,1.78645 4.71533,3.28843 7.07519,4.51172 -0.008,-45.84478 -15.96381,-62.96089 -27.68554,-74.68262 -31.0198,-31.0198 -64.77051,-11.11868 -64.77051,-37.59765 0,-7.59931 2.4225,-16.7721 11.14258,-21.80664 35.92286,-18.09862 37.06962,-63.43145 37.42676,-85.79102 0,-77.05789 -51.71912,-94.71191 -91.22559,-94.71191 z"
       id="path10918" />
  </g>
</svg>
