<?xml version="1.0" encoding="UTF-8" standalone="no"?>
<!-- Created with Inkscape (http://www.inkscape.org/) -->

<svg
   xmlns:dc="http://purl.org/dc/elements/1.1/"
   xmlns:cc="http://creativecommons.org/ns#"
   xmlns:rdf="http://www.w3.org/1999/02/22-rdf-syntax-ns#"
   xmlns:svg="http://www.w3.org/2000/svg"
   xmlns="http://www.w3.org/2000/svg"
   xmlns:sodipodi="http://sodipodi.sourceforge.net/DTD/sodipodi-0.dtd"
   xmlns:inkscape="http://www.inkscape.org/namespaces/inkscape"
   width="700"
   height="1050"
   id="svg2"
   version="1.1"
   inkscape:version="0.48.4 r9939"
   sodipodi:docname="7.8.svg">
  <title
     id="title3002">7.8 Питьевая вода</title>
  <defs
     id="defs4" />
  <sodipodi:namedview
     id="base"
     pagecolor="#ffffff"
     bordercolor="#666666"
     borderopacity="1.0"
     inkscape:pageopacity="0.0"
     inkscape:pageshadow="2"
     inkscape:zoom="1"
     inkscape:cx="243.18799"
     inkscape:cy="663.44565"
     inkscape:document-units="px"
     inkscape:current-layer="layer1"
     showgrid="false"
     inkscape:window-width="1920"
     inkscape:window-height="1024"
     inkscape:window-x="-4"
     inkscape:window-y="-4"
     inkscape:window-maximized="1"
     showguides="true"
     inkscape:guide-bbox="true" />
  <metadata
     id="metadata7">
    <rdf:RDF>
      <cc:Work
         rdf:about="">
        <dc:format>image/svg+xml</dc:format>
        <dc:type
           rdf:resource="http://purl.org/dc/dcmitype/StillImage" />
        <dc:title>7.8 Питьевая вода</dc:title>
        <cc:license
           rdf:resource="http://creativecommons.org/licenses/by-sa/3.0/" />
        <dc:description>ГОСТ Р 52290-2004
Размеры и пропорции по типоразмеру II</dc:description>
      </cc:Work>
      <cc:License
         rdf:about="http://creativecommons.org/licenses/by-sa/3.0/">
        <cc:permits
           rdf:resource="http://creativecommons.org/ns#Reproduction" />
        <cc:permits
           rdf:resource="http://creativecommons.org/ns#Distribution" />
        <cc:requires
           rdf:resource="http://creativecommons.org/ns#Notice" />
        <cc:requires
           rdf:resource="http://creativecommons.org/ns#Attribution" />
        <cc:permits
           rdf:resource="http://creativecommons.org/ns#DerivativeWorks" />
        <cc:requires
           rdf:resource="http://creativecommons.org/ns#ShareAlike" />
      </cc:License>
    </rdf:RDF>
  </metadata>
  <g
     inkscape:label="Layer 1"
     inkscape:groupmode="layer"
     id="layer1"
     transform="translate(0,-2.362183)">
    <rect
       style="color:#000000;fill:#ffffff;fill-opacity:1;fill-rule:nonzero;stroke:none;stroke-width:3.54299997999999980;marker:none;visibility:visible;display:inline;overflow:visible;enable-background:accumulate;opacity:1"
       id="rect10481"
       width="700"
       height="1050"
       x="0"
       y="2.3621831"
       rx="45"
       ry="45" />
    <path
       inkscape:connector-curvature="0"
       style="color:#000000;fill:#0d69e1;fill-opacity:1;fill-rule:nonzero;stroke:none;stroke-width:3.54299997999999980;marker:none;visibility:visible;display:inline;overflow:visible;enable-background:accumulate;opacity:1"
       d="m 45.000009,22.362155 c -13.85,0 -25,11.15 -25,25 l 0,960.000045 c 0,13.85 11.15,25 25,25 l 610.000001,0 c 13.85,0 25,-11.15 25,-25 l 0,-960.000045 c 0,-13.85 -11.15,-25 -25,-25 l -610.000001,0 z m 65.625001,155.000005 478.75,0 c 24.93,0 45,20.07 45,45 l 0,478.75 c 0,24.93 -20.07,45 -45,45 l -478.75,0 c -24.930001,0 -45.000001,-20.07 -45.000001,-45 l 0,-478.75 c 0,-24.93 20.07,-45 45.000001,-45 z"
       id="rect10483" />
    <rect
       ry="44"
       rx="44"
       y="3.3621678"
       x="1.0000153"
       height="1048"
       width="698"
       id="rect10490"
       style="color:#000000;fill:none;stroke:#000000;stroke-width:1.99999988000000010;stroke-miterlimit:4;stroke-opacity:1;stroke-dasharray:none;marker:none;visibility:visible;display:inline;overflow:visible;enable-background:accumulate;opacity:1" />
    <path
       id="path10593"
       style="opacity:1;color:#000000;fill:#000000;fill-opacity:1;fill-rule:nonzero;stroke:none;stroke-width:0.46528846000000001;marker:none;visibility:visible;display:inline;overflow:visible;enable-background:accumulate"
       d="m 459.37499,439.8622 c -7.70701,0 -13.75084,5.46725 -20.54805,12.26446 -12.81408,12.81407 -33.5898,12.81409 -46.40389,2e-5 l 1e-5,-0.0806 C 381.17177,440.71424 365.91173,434.39333 350,434.39334 c -24.40797,5e-5 -47.81627,10.03362 -65.07537,27.89346 -14.35825,14.35823 -22.42465,33.83225 -22.42465,54.13786 l 2e-5,32.81251 -65.625,0 0,-32.81256 c 0,-78.528 63.65952,-142.18747 142.1875,-142.18747 l 2.1875,0 c 10.87311,0 19.6875,-8.8144 19.6875,-19.6875 l 0,-13.12495 c 0,-6.04063 4.89688,-10.93751 10.9375,-10.93751 l 21.875,-1.1e-4 0,-43.75 -43.75,7e-5 c -12.08123,0 -21.875,-9.79378 -21.875,-21.87501 0,-12.08123 9.79377,-21.875 21.875,-21.875 l 131.25,0 c 12.08123,0 21.875,9.79377 21.875,21.875 0,12.08123 -9.79377,21.87501 -21.875,21.87501 l -43.75,-7e-5 0,43.75 21.875,1.1e-4 c 6.04062,0 10.9375,4.89688 10.9375,10.93751 l 0,13.12496 0,0 c 0,10.87311 8.8144,19.68749 19.6875,19.68749 l 78.75,-6e-5 0,-21.87501 c 0,-12.08122 9.79378,-21.875 21.875,-21.875 l 10e-6,153.125 c -12.08123,0 -21.875,-9.79377 -21.875,-21.87501 l -10e-6,-21.875 z"
       inkscape:connector-curvature="0"
       sodipodi:nodetypes="ccccccccccccccccccsccsccccccccccccccc" />
    <rect
       style="opacity:1;color:#000000;fill:#000000;fill-opacity:1;fill-rule:nonzero;stroke:none;stroke-width:3.54299997999999980;marker:none;visibility:visible;display:inline;overflow:visible;enable-background:accumulate"
       id="rect10171"
       width="8.75"
       height="140"
       x="225.3125"
       y="562.36218" />
    <path
       sodipodi:nodetypes="ccccc"
       inkscape:connector-curvature="0"
       id="path10204"
       d="m 214.375,562.36215 -8.75,0 -17.5,140 8.75,0 z"
       style="opacity:1;fill:#000000;fill-opacity:1;stroke:none" />
    <path
       style="opacity:1;fill:#000000;fill-opacity:1;stroke:none"
       d="m 244.96549,562.36215 8.78451,0 17.5,140 -8.78451,0 z"
       id="path10210"
       inkscape:connector-curvature="0"
       sodipodi:nodetypes="ccccc" />
  </g>
</svg>
