<?xml version="1.0" encoding="UTF-8" standalone="no"?>
<svg xmlns="http://www.w3.org/2000/svg" width="700" height="1050" version="1.1">
  <title>7.1 Пункт медицинской помощи</title>
  <rect style="fill:#ffffff;" x="0" y="0" width="700" height="1050" rx="45" ry="45"/>
  <rect style="fill:none;stroke:#000000;stroke-width:2;" x="1" y="1" width="698" height="1048" rx="44" ry="44"/>
  <path style="fill:#0d69e1;" d="m 655 1030 a 25 25 0 0 0 25 -25 l 0 -960 a 25 25 0 0 0 -25 -25 l -610 0 a 25 25 0 0 0 -25 25 l 0 960 a 25 25 0 0 0 25 25 z m -544.38 -286.25 a 45 45 0 0 1 -45 -45 l 0 -478.75 a 45 45 0 0 1 45 -45 l 478.75 0 a 45 45 0 0 1 45 45 l 0 478.75 a 45 45 0 0 1 -45 45 z"/>
  <path style="fill:#ff0000;" transform="scale(1.09375)" d="m 360 550 v -90 h 90 v -80 h -90 v -90 h -80 v 90 h -90 v 80 h 90 v 90 z"/>
</svg>
