<svg xmlns="http://www.w3.org/2000/svg" width="700" height="1050">
    <title>
        7.21 Автозаправочная станция с возможностью зарядки электромобилей
    </title>
    <rect ry="45" rx="45" height="1050" width="700" style="marker:none" overflow="visible" color="#000" fill="#fff"/>
    <path d="M45 20c-13.85 0-25 11.15-25 25v960c0 13.85 11.15 25 25 25h610c13.85 0 25-11.15 25-25V45c0-13.85-11.15-25-25-25zm65.625 155h478.75c24.93 0 45 20.07 45 45v478.75c0 24.93-20.07 45-45 45h-478.75c-24.93 0-45-20.07-45-45V220c0-24.93 20.07-45 45-45z" style="marker:none" overflow="visible" color="#000" fill="#0d69e1"/>
    <rect style="marker:none" width="698" height="1048" x="1" y="1" rx="44" ry="44" overflow="visible" color="#000" fill="none" stroke="#000" stroke-width="2"/>
    <path d="M365.309 222.282a19.508 19.508 0 0 0-19.552 19.551v335.925h177.738V241.833a19.508 19.508 0 0 0-19.551-19.551zm-46.212 26.66c-14.725 0-26.661 11.937-26.661 26.661v35.548a48.876 48.876 0 0 1-12.72 32.888l-90.882 99.919a79.983 79.983 0 0 0-20.814 53.818c0 44.172 35.809 79.982 79.982 79.982 44.172 0 79.982-35.81 79.982-79.982V391.133a8.887 8.887 0 0 1 8.886-8.887v-17.774c-14.724 0-26.66 11.937-26.66 26.661v106.643c0 34.356-27.852 62.208-62.208 62.208-34.357 0-62.209-27.852-62.209-62.208a62.21 62.21 0 0 1 16.189-41.86L292.864 356a66.653 66.653 0 0 0 17.346-44.85v-35.547a8.887 8.887 0 0 1 8.887-8.887h17.773v-17.773zm62.208 8.888h106.643a8.867 8.867 0 0 1 8.886 8.886v88.87a8.867 8.867 0 0 1-8.886 8.886H381.305a8.867 8.867 0 0 1-8.887-8.887v-88.869a8.867 8.867 0 0 1 8.887-8.886z" style="marker:none" overflow="visible" color="#000"/>
    <path word-spacing="0" letter-spacing="0" font-weight="400" font-size="195.314" d="M190.86 829.883c-9.2 0-17.12 2.393-23.756 7.178-6.637 4.785-10.111 11.963-10.424 21.533.236 6.33 1.89 11.292 4.963 14.887 3.071 3.595 6.142 6.127 9.214 7.595 3.072 1.469 4.727 2.178 4.963 2.127-.27-.016-2.16.929-5.672 2.836-3.51 1.908-7.02 4.878-10.53 8.912-3.512 4.034-5.403 9.233-5.673 15.596-.17 7.292 2.564 14.242 8.203 20.85 5.64 6.608 15.21 10.14 28.711 10.595 13.501-.455 23.072-3.987 28.711-10.595 5.64-6.608 8.374-13.558 8.203-20.85-.27-6.363-2.16-11.562-5.671-15.596-3.511-4.034-7.021-7.004-10.532-8.912-3.51-1.907-5.402-2.853-5.672-2.836.237.051 1.891-.658 4.963-2.127 3.072-1.468 6.143-4 9.215-7.595 3.072-3.595 4.727-8.557 4.963-14.887-.313-9.57-3.79-16.748-10.426-21.533s-14.554-7.178-23.754-7.178zm98.42 0c-11.11.285-19.996 5.526-26.66 15.723-6.666 10.197-10.084 23.64-10.255 40.332.171 16.69 3.59 30.135 10.254 40.332 6.665 10.197 15.552 15.438 26.66 15.722 11.109-.284 19.995-5.525 26.66-15.722 6.665-10.197 10.083-23.641 10.254-40.332-.17-15.922-3.589-29.146-10.254-39.672-6.665-10.527-15.551-15.988-26.66-16.383zm98.42 0c-11.11.285-19.996 5.526-26.66 15.723-6.666 10.197-10.084 23.64-10.255 40.332.171 16.69 3.589 30.135 10.254 40.332 6.665 10.197 15.552 15.438 26.66 15.722 11.109-.284 19.995-5.525 26.66-15.722 6.665-10.197 10.083-23.641 10.254-40.332-.17-15.922-3.589-29.146-10.254-39.672-6.665-10.527-15.551-15.988-26.66-16.383zm-196.84 15.625c4.215-.053 7.747.933 10.595 2.955 2.848 2.022 4.33 5.399 4.443 10.13-.626 4.273-3.133 8.033-7.52 11.28-4.386 3.247-6.892 4.956-7.519 5.127-.626-.17-3.133-1.88-7.52-5.127-4.386-3.247-6.892-7.007-7.519-11.28.114-4.731 1.595-8.108 4.444-10.13 2.848-2.022 6.38-3.008 10.595-2.955zm98.42 1.367c5.354-.081 9.635 3.011 12.841 9.278 3.206 6.266 4.85 16.194 4.932 29.785-.082 13.59-1.726 23.519-4.932 29.785-3.206 6.266-7.487 9.359-12.842 9.277-5.355.082-9.635-3.01-12.841-9.277-3.207-6.266-4.85-16.195-4.932-29.785.081-13.59 1.725-23.52 4.932-29.785 3.206-6.267 7.486-9.36 12.841-9.278zm98.42 0c5.354-.081 9.635 3.011 12.841 9.278 3.206 6.266 4.85 16.194 4.932 29.785-.082 13.59-1.726 23.519-4.932 29.785-3.206 6.266-7.487 9.359-12.842 9.277-5.355.082-9.635-3.01-12.842-9.277-3.206-6.266-4.85-16.195-4.931-29.785.081-13.59 1.725-23.52 4.931-29.785 3.207-6.267 7.487-9.36 12.842-9.278zm80.591 17.188l-6.836 76.562h16.406l4.102-53.32 21.875 43.75 21.875-43.75 4.101 53.32h16.407l-6.836-76.562h-16.406l-19.141 38.28-19.14-38.28H468.29zm-277.432 27.343c.22.051 1.755 1.014 4.608 2.887 2.852 1.874 5.706 4.355 8.558 7.444 2.853 3.088 4.388 6.48 4.608 10.177-.228 4.757-2.165 8.233-5.81 10.426-3.647 2.193-7.634 3.275-11.964 3.246-4.33.029-8.317-1.053-11.963-3.246-3.645-2.193-5.582-5.67-5.81-10.426.22-3.266 1.755-6.456 4.607-9.57 2.853-3.114 5.706-5.697 8.559-7.748 2.852-2.05 4.388-3.114 4.607-3.19z" font-family="Russian Road Sign" fill="#fff"/>
    <path d="M263.945 619.07c-5.12 0-9.253 4.14-9.431 9.348h-33.55a2.926 2.926 0 0 0-2.93 2.932v2.218a2.927 2.927 0 0 0 2.93 2.934h33.532v46.328h-33.531a2.926 2.926 0 0 0-2.932 2.932v2.22a2.926 2.926 0 0 0 2.932 2.93h33.549c.178 5.208 4.31 9.35 9.431 9.35h31.57c5.236 0 9.45-4.325 9.45-9.694V673.5H323.5v-9.57c4.48.212 9.49.368 14.375-.301 3.953-.542 7.887-1.637 11.256-4.031 3.368-2.395 5.965-6.202 6.937-11.028 1.808-8.97 6.353-11.77 10.02-11.691 3.667.08 8.023 3.131 9.31 11.502.91 5.918 1.996 13.853 5.446 20.793 3.45 6.94 10.16 12.976 20.156 12.976 9.541 0 16.717-4.07 20.828-10.41 4.111-6.34 5.578-14.385 6.307-23.146.626-7.528 4.481-11.105 9.056-11.547 4.576-.443 11.151 2.536 16.663 12.683 4.158 7.657 9.442 11.914 16.212 13.278 6.771 1.364 14.574.642 26.434.642v-8.3c-12.14 0-19.99.49-24.795-.479-4.805-.968-7.02-2.587-10.559-9.101-6.543-12.05-15.967-17.835-24.753-16.985-8.786.85-15.654 8.623-16.528 19.121-.681 8.193-2.213 15.021-5 19.319-2.786 4.297-6.406 6.625-13.865 6.625-7.004 0-10.13-3.154-12.725-8.371-2.593-5.218-3.758-12.407-4.673-18.36-1.713-11.136-9.037-18.358-17.334-18.539-8.298-.18-16.002 6.771-18.336 18.35-.611 3.032-1.806 4.622-3.61 5.904-1.803 1.282-4.42 2.14-7.572 2.572-4.015.55-8.698.373-13.25.174V646h-18.535v-17.236c0-5.37-4.214-9.694-9.45-9.694h-31.57z"/>
</svg>
