<?xml version="1.0" encoding="UTF-8" standalone="no"?>
<!-- Created with Inkscape (http://www.inkscape.org/) -->

<svg
   xmlns:dc="http://purl.org/dc/elements/1.1/"
   xmlns:cc="http://creativecommons.org/ns#"
   xmlns:rdf="http://www.w3.org/1999/02/22-rdf-syntax-ns#"
   xmlns:svg="http://www.w3.org/2000/svg"
   xmlns="http://www.w3.org/2000/svg"
   xmlns:sodipodi="http://sodipodi.sourceforge.net/DTD/sodipodi-0.dtd"
   xmlns:inkscape="http://www.inkscape.org/namespaces/inkscape"
   width="700"
   height="1050"
   id="svg2"
   version="1.1"
   inkscape:version="0.48.4 r9939"
   sodipodi:docname="7.1.svg">
  <title
     id="title3002">7.6 Телефон</title>
  <defs
     id="defs4" />
  <sodipodi:namedview
     id="base"
     pagecolor="#ffffff"
     bordercolor="#666666"
     borderopacity="1.0"
     inkscape:pageopacity="0.0"
     inkscape:pageshadow="2"
     inkscape:zoom="1"
     inkscape:cx="446.88586"
     inkscape:cy="727.16138"
     inkscape:document-units="px"
     inkscape:current-layer="layer1"
     showgrid="false"
     inkscape:window-width="1920"
     inkscape:window-height="1024"
     inkscape:window-x="-4"
     inkscape:window-y="-4"
     inkscape:window-maximized="1"
     showguides="true"
     inkscape:guide-bbox="true" />
  <metadata
     id="metadata7">
    <rdf:RDF>
      <cc:Work
         rdf:about="">
        <dc:format>image/svg+xml</dc:format>
        <dc:type
           rdf:resource="http://purl.org/dc/dcmitype/StillImage" />
        <dc:title>7.6 Телефон</dc:title>
        <cc:license
           rdf:resource="http://creativecommons.org/licenses/by-sa/3.0/" />
        <dc:description>ГОСТ Р 52290-2004
Размеры и пропорции по типоразмеру II</dc:description>
      </cc:Work>
      <cc:License
         rdf:about="http://creativecommons.org/licenses/by-sa/3.0/">
        <cc:permits
           rdf:resource="http://creativecommons.org/ns#Reproduction" />
        <cc:permits
           rdf:resource="http://creativecommons.org/ns#Distribution" />
        <cc:requires
           rdf:resource="http://creativecommons.org/ns#Notice" />
        <cc:requires
           rdf:resource="http://creativecommons.org/ns#Attribution" />
        <cc:permits
           rdf:resource="http://creativecommons.org/ns#DerivativeWorks" />
        <cc:requires
           rdf:resource="http://creativecommons.org/ns#ShareAlike" />
      </cc:License>
    </rdf:RDF>
  </metadata>
  <g
     inkscape:label="Layer 1"
     inkscape:groupmode="layer"
     id="layer1"
     transform="translate(0,-2.362183)">
    <rect
       style="color:#000000;fill:#ffffff;fill-opacity:1;fill-rule:nonzero;stroke:none;stroke-width:3.54299997999999980;marker:none;visibility:visible;display:inline;overflow:visible;enable-background:accumulate;opacity:1"
       id="rect10481"
       width="700"
       height="1050"
       x="0"
       y="2.3621831"
       rx="45"
       ry="45" />
    <path
       inkscape:connector-curvature="0"
       style="color:#000000;fill:#0d69e1;fill-opacity:1;fill-rule:nonzero;stroke:none;stroke-width:3.54299997999999980;marker:none;visibility:visible;display:inline;overflow:visible;enable-background:accumulate;opacity:1"
       d="m 45.000009,22.362155 c -13.85,0 -25,11.15 -25,25 l 0,960.000045 c 0,13.85 11.15,25 25,25 l 610.000001,0 c 13.85,0 25,-11.15 25,-25 l 0,-960.000045 c 0,-13.85 -11.15,-25 -25,-25 l -610.000001,0 z m 65.625001,155.000005 478.75,0 c 24.93,0 45,20.07 45,45 l 0,478.75 c 0,24.93 -20.07,45 -45,45 l -478.75,0 c -24.930001,0 -45.000001,-20.07 -45.000001,-45 l 0,-478.75 c 0,-24.93 20.07,-45 45.000001,-45 z"
       id="rect10483" />
    <rect
       ry="44"
       rx="44"
       y="3.3621678"
       x="1.0000153"
       height="1048"
       width="698"
       id="rect10490"
       style="color:#000000;fill:none;stroke:#000000;stroke-width:1.99999988000000010;stroke-miterlimit:4;stroke-opacity:1;stroke-dasharray:none;marker:none;visibility:visible;display:inline;overflow:visible;enable-background:accumulate;opacity:1" />
    <path
       inkscape:connector-curvature="0"
       style="opacity:1;color:#000000;fill:#000000;fill-opacity:1;fill-rule:nonzero;stroke:none;stroke-width:3.54299997999999980;marker:none;visibility:visible;display:inline;overflow:visible;enable-background:accumulate"
       d="m 420,221.11217 c -10.90688,0 -19.6875,8.78062 -19.6875,19.6875 l 0,70 c 0,10.90687 8.78062,19.6875 19.6875,19.6875 l 24.0625,0 0,-109.375 -24.0625,0 z"
       id="rect10117" />
    <path
       inkscape:connector-curvature="0"
       id="path17336"
       d="m 154.32581,599.03639 c -3.73037,-10.2491 1.51756,-21.50334 11.76668,-25.23372 l 65.77847,-23.94141 c 10.24912,-3.73036 21.50336,1.51757 25.23372,11.76669 l 8.22987,22.61134 -102.77888,37.40846 -8.22986,-22.61136 z"
       style="opacity:1;color:#000000;fill:#000000;fill-opacity:1;fill-rule:nonzero;stroke:none;stroke-width:3.54299997999999980;marker:none;visibility:visible;display:inline;overflow:visible;enable-background:accumulate" />
    <path
       id="path10918"
       style="opacity:1;color:#000000;fill:#000000;fill-opacity:1;stroke:none;stroke-width:0.16879068000000000;marker:none;visibility:visible;display:inline;overflow:visible;enable-background:accumulate"
       d="m 257.67534,693.61196 c 94.24772,0 292.48098,-167.47351 292.48094,-374.06244 -2e-5,-54.36539 -44.072,-98.43731 -98.43753,-98.43731 l 0,109.37493 6.01301,1.2e-4 c 10.87309,0 19.68749,8.81439 19.68749,19.68751 0,4.04018 -1.24311,7.98261 -3.56044,11.29219 L 304.63699,601.64289 c -2.3174,3.30958 -5.59691,5.82611 -9.39353,7.20795 -10.21737,3.71887 -21.5149,-1.54929 -25.23372,-11.76672 l -2.05654,-5.65028 -102.77891,37.40843 c 14.1538,38.88729 51.118,64.76994 92.50098,64.76994"
       inkscape:connector-curvature="0"
       sodipodi:nodetypes="cccccsccscccc" />
  </g>
</svg>
