<?xml version="1.0" encoding="UTF-8" standalone="no"?>
<!-- Created with Inkscape (http://www.inkscape.org/) -->

<svg
   xmlns:dc="http://purl.org/dc/elements/1.1/"
   xmlns:cc="http://creativecommons.org/ns#"
   xmlns:rdf="http://www.w3.org/1999/02/22-rdf-syntax-ns#"
   xmlns:svg="http://www.w3.org/2000/svg"
   xmlns="http://www.w3.org/2000/svg"
   xmlns:sodipodi="http://sodipodi.sourceforge.net/DTD/sodipodi-0.dtd"
   xmlns:inkscape="http://www.inkscape.org/namespaces/inkscape"
   width="700"
   height="1050"
   id="svg2"
   version="1.1"
   inkscape:version="0.48.4 r9939"
   sodipodi:docname="7.12.svg">
  <title
     id="title3002">7.15 Зона приёма радиостанции, передающей информацию о дорожном движении</title>
  <defs
     id="defs4" />
  <sodipodi:namedview
     id="base"
     pagecolor="#ffffff"
     bordercolor="#666666"
     borderopacity="1.0"
     inkscape:pageopacity="0.0"
     inkscape:pageshadow="2"
     inkscape:zoom="1"
     inkscape:cx="367.17518"
     inkscape:cy="634.74237"
     inkscape:document-units="px"
     inkscape:current-layer="layer1"
     showgrid="false"
     inkscape:window-width="1920"
     inkscape:window-height="1024"
     inkscape:window-x="-4"
     inkscape:window-y="-4"
     inkscape:window-maximized="1"
     showguides="true"
     inkscape:guide-bbox="true" />
  <metadata
     id="metadata7">
    <rdf:RDF>
      <cc:Work
         rdf:about="">
        <dc:format>image/svg+xml</dc:format>
        <dc:type
           rdf:resource="http://purl.org/dc/dcmitype/StillImage" />
        <dc:title>7.15 Зона приёма радиостанции, передающей информацию о дорожном движении</dc:title>
        <cc:license
           rdf:resource="http://creativecommons.org/licenses/by-sa/3.0/" />
        <dc:description>ГОСТ Р 52290-2004
Размеры и пропорции по типоразмеру II</dc:description>
      </cc:Work>
      <cc:License
         rdf:about="http://creativecommons.org/licenses/by-sa/3.0/">
        <cc:permits
           rdf:resource="http://creativecommons.org/ns#Reproduction" />
        <cc:permits
           rdf:resource="http://creativecommons.org/ns#Distribution" />
        <cc:requires
           rdf:resource="http://creativecommons.org/ns#Notice" />
        <cc:requires
           rdf:resource="http://creativecommons.org/ns#Attribution" />
        <cc:permits
           rdf:resource="http://creativecommons.org/ns#DerivativeWorks" />
        <cc:requires
           rdf:resource="http://creativecommons.org/ns#ShareAlike" />
      </cc:License>
    </rdf:RDF>
  </metadata>
  <g
     inkscape:label="Layer 1"
     inkscape:groupmode="layer"
     id="layer1"
     transform="translate(0,-2.362183)">
    <rect
       style="color:#000000;fill:#ffffff;fill-opacity:1;fill-rule:nonzero;stroke:none;stroke-width:3.54299997999999980;marker:none;visibility:visible;display:inline;overflow:visible;enable-background:accumulate;opacity:1"
       id="rect10481"
       width="700"
       height="1050"
       x="0"
       y="2.3621831"
       rx="45"
       ry="45" />
    <path
       style="color:#000000;fill:#0d69e1;fill-opacity:1;fill-rule:nonzero;stroke:none;stroke-width:3.54299997999999980;marker:none;visibility:visible;display:inline;overflow:visible;enable-background:accumulate;opacity:1"
       d="M 45 20 C 31.15 20 20 31.15 20 45 L 20 1005 C 20 1018.85 31.15 1030 45 1030 L 655 1030 C 668.85 1030 680 1018.85 680 1005 L 680 45 C 680 31.15 668.85 20 655 20 L 45 20 z M 110.625 175 L 589.375 175 C 614.305 175 634.375 195.07 634.375 220 L 634.375 698.75 C 634.375 723.68 614.305 743.75 589.375 743.75 L 110.625 743.75 C 85.694999 743.75 65.625 723.68 65.625 698.75 L 65.625 220 C 65.625 195.07 85.694999 175 110.625 175 z M 251.15625 769.59375 C 256.04674 769.75294 260.51223 770.3864 264.53125 771.5 C 268.55015 772.61378 270.69533 773.24724 270.9375 773.40625 L 273.25 787.53125 C 273.08046 787.33072 271.08225 786.52929 267.28125 785.125 C 263.48013 783.72086 258.89891 782.91943 253.5 782.71875 C 246.64412 783.1062 241.66091 785.80802 238.53125 790.84375 C 235.40152 795.87963 233.43045 800.93301 232.625 805.96875 C 231.81949 811.00461 231.4769 813.70643 231.59375 814.09375 C 234.46786 811.64507 237.78573 809.40875 241.59375 807.375 C 245.40169 805.34137 249.38069 804.24957 253.5 804.125 C 255.99633 804.05435 259.11858 804.77845 262.90625 806.3125 C 266.6938 807.84666 270.11206 810.60635 273.125 814.59375 C 276.13781 818.58124 277.73401 824.24197 277.90625 831.53125 C 277.63986 841.07025 274.67225 849.00058 269.03125 855.34375 C 263.39012 861.68694 256.66372 864.97664 248.84375 865.21875 C 238.84473 865.14612 230.94256 861.24036 225.15625 853.46875 C 219.3699 845.69716 216.43354 834.50528 216.3125 819.90625 C 216.23986 806.62506 219.00108 795.03425 224.59375 785.15625 C 230.18638 775.27841 239.0267 770.09189 251.15625 769.59375 z M 331.46875 769.9375 C 339.28873 769.93759 346.01512 771.96396 351.65625 776.03125 C 357.29726 780.09872 360.26486 786.20906 360.53125 794.34375 C 360.33032 799.72395 358.92359 803.94414 356.3125 807 C 353.70128 810.05597 351.07985 812.18936 348.46875 813.4375 C 345.85754 814.68574 344.45081 815.29309 344.25 815.25 C 344.4795 815.2357 346.10951 816.03508 349.09375 817.65625 C 352.07787 819.27751 355.047 821.8211 358.03125 825.25 C 361.01536 828.67897 362.61412 833.0912 362.84375 838.5 C 362.98894 844.69793 360.66863 850.6019 355.875 856.21875 C 351.08124 861.83562 342.94453 864.83138 331.46875 865.21875 C 319.99289 864.83138 311.85618 861.83561 307.0625 856.21875 C 302.26879 850.6019 299.94848 844.69794 300.09375 838.5 C 300.32329 833.0912 301.92206 828.67898 304.90625 825.25 C 307.89041 821.8211 310.8908 819.27751 313.875 817.65625 C 316.85916 816.03509 318.45792 815.2357 318.6875 815.25 C 318.48661 815.29309 317.07988 814.68574 314.46875 813.4375 C 311.85757 812.18936 309.26739 810.05597 306.65625 807 C 304.04508 803.94414 302.63835 799.72395 302.4375 794.34375 C 302.7038 786.20906 305.64016 780.09872 311.28125 776.03125 C 316.92229 771.96396 323.64868 769.9376 331.46875 769.9375 z M 452.4375 769.9375 C 461.87959 770.27308 469.42841 774.89629 475.09375 783.84375 C 480.75896 792.79137 483.66716 804.02883 483.8125 817.5625 C 483.66716 831.74995 480.75896 843.20762 475.09375 851.875 C 469.42841 860.54241 461.87959 864.97664 452.4375 865.21875 C 442.99533 864.97664 435.41526 860.5424 429.75 851.875 C 424.0847 843.20762 421.20775 831.74995 421.0625 817.5625 C 421.20775 803.37514 424.0847 791.94872 429.75 783.28125 C 435.41526 774.61394 442.99533 770.1797 452.4375 769.9375 z M 331.46875 783.21875 C 327.88554 783.17387 324.88978 783.99988 322.46875 785.71875 C 320.04766 787.43778 318.78431 790.3214 318.6875 794.34375 C 319.2201 797.97541 321.36528 801.17755 325.09375 803.9375 C 328.82215 806.69757 330.93607 808.13604 331.46875 808.28125 C 332.00134 808.13604 334.14652 806.69757 337.875 803.9375 C 341.60338 801.17755 343.71731 797.97541 344.25 794.34375 C 344.1531 790.3214 342.88976 787.43778 340.46875 785.71875 C 338.04764 783.99988 335.05187 783.17387 331.46875 783.21875 z M 452.4375 784.375 C 447.88587 784.3059 444.22539 786.92374 441.5 792.25 C 438.77455 797.5764 437.38165 806.01064 437.3125 817.5625 C 437.38165 829.11445 438.77455 837.57994 441.5 842.90625 C 444.22539 848.2326 447.88587 850.85044 452.4375 850.78125 C 456.98905 850.85043 460.61828 848.2326 463.34375 842.90625 C 466.06912 837.57994 467.46202 829.11446 467.53125 817.5625 C 467.46202 806.01063 466.06912 797.5764 463.34375 792.25 C 460.61828 786.92375 456.98905 784.30591 452.4375 784.375 z M 251.15625 817.5625 C 246.79484 818.04676 242.59156 819.98556 238.5 823.375 C 234.40838 826.76453 232.20021 828.70333 231.90625 829.1875 C 231.89187 829.44578 232.38093 831.26783 233.375 834.625 C 234.36901 837.98223 235.95037 841.33032 238.125 844.6875 C 240.29957 848.04472 243.16014 849.86677 246.6875 850.125 C 251.8616 849.8587 255.82677 847.77293 258.59375 843.875 C 261.36062 839.97712 262.75352 835.86498 262.78125 831.53125 C 262.58751 826.88285 261.2366 823.38676 258.71875 821.0625 C 256.20079 818.73833 253.6741 817.56255 251.15625 817.5625 z M 331.46875 822.21875 C 331.2822 822.28335 329.98711 823.19438 327.5625 824.9375 C 325.13782 826.6807 322.70586 828.88426 320.28125 831.53125 C 317.85657 834.17831 316.56149 836.88013 316.375 839.65625 C 316.56865 843.69944 318.21351 846.66705 321.3125 848.53125 C 324.41143 850.39548 327.7887 851.30547 331.46875 851.28125 C 335.14872 851.30547 338.55724 850.39548 341.65625 848.53125 C 344.75515 846.66705 346.40001 843.69944 346.59375 839.65625 C 346.40718 836.51428 345.08084 833.62554 342.65625 831 C 340.23155 828.37453 337.83085 826.28006 335.40625 824.6875 C 332.98156 823.09502 331.65522 822.26183 331.46875 822.21875 z M 391.90625 844.625 C 394.77511 844.69741 397.15746 845.68875 399.0625 847.59375 C 400.96749 849.49878 401.95883 851.88113 402.03125 854.75 C 402.02004 855.56627 401.90086 856.37386 401.6875 857.125 C 401.47408 857.87615 401.21891 858.59781 400.9375 859.3125 C 400.14717 861.05447 398.26086 864.38044 395.28125 869.28125 C 392.3016 874.18205 390.22632 877.46355 389.0625 879.15625 L 381.4375 879.15625 L 390.5 864.8125 C 387.97445 864.42 385.90625 863.27682 384.28125 861.4375 C 382.65622 859.59818 381.80572 857.36791 381.75 854.75 C 381.82238 851.88113 382.81373 849.49877 384.71875 847.59375 C 386.62375 845.68876 389.03735 844.69741 391.90625 844.625 z M 233 896.875 L 248.3125 896.875 L 268 939.53125 L 287.6875 896.875 L 303 896.875 L 312.84375 984.375 L 296.4375 984.375 L 290.96875 919.84375 L 268 971.25 L 245.03125 919.84375 L 239.5625 984.375 L 223.15625 984.375 L 233 896.875 z M 337.96875 896.875 L 392.65625 896.875 L 392.65625 910 L 353.28125 910 L 353.28125 984.375 L 337.96875 984.375 L 337.96875 896.875 z M 415.59375 923.125 L 428.71875 923.125 L 428.71875 972.34375 L 451.6875 972.34375 L 451.6875 923.125 L 464.8125 923.125 L 464.8125 972.34375 L 476.84375 972.34375 L 476.84375 997.5 L 463.71875 997.5 L 463.71875 984.375 L 415.59375 984.375 L 415.59375 923.125 z "
       transform="translate(0,2.362183)"
       id="rect10483" />
    <rect
       ry="44"
       rx="44"
       y="3.3621678"
       x="1.0000153"
       height="1048"
       width="698"
       id="rect10490"
       style="color:#000000;fill:none;stroke:#000000;stroke-width:1.99999988000000010;stroke-miterlimit:4;stroke-opacity:1;stroke-dasharray:none;marker:none;visibility:visible;display:inline;overflow:visible;enable-background:accumulate;opacity:1" />
    <g
       style="font-size:214.84652710000000000px;font-style:normal;font-variant:normal;font-weight:normal;font-stretch:normal;line-height:125%;letter-spacing:-10.28125000000000000px;word-spacing:0px;opacity:1;fill:#000000;fill-opacity:1;stroke:none;font-family:Arial;-inkscape-font-specification:Arial"
       id="text15036">
      <path
         d="m 114.88388,385.17468 0,120.3125 21.05469,0 0,-42.10937 19.55078,0 c 12.21917,-0.68925 21.99455,-5.32629 29.32617,-13.91114 7.33145,-8.58473 11.09121,-16.98154 11.2793,-25.19043 0.18789,-8.20873 -2.81992,-16.60554 -9.02343,-25.19044 -6.20371,-8.58468 -16.73104,-13.22172 -31.58204,-13.91112 z m 21.05469,18.04687 13.53516,0 c 6.26622,-0.0625 11.78053,1.56668 16.54297,4.8877 4.76229,3.32122 7.2688,8.71021 7.51953,16.16699 -0.25073,7.45694 -2.75724,12.84593 -7.51953,16.16699 -4.76244,3.32119 -10.27676,4.95042 -16.54297,4.8877 l -13.53516,0 z"
         style="fill:#000000;font-family:Russian Road Sign;-inkscape-font-specification:Russian Road Sign"
         id="path15122" />
      <path
         d="m 253.6084,418.26062 c -7.42558,0.15674 -13.62919,1.34733 -18.61084,3.57178 -4.98171,2.22461 -9.30544,4.54313 -12.97119,6.95556 l 9.02344,15.03906 c 2.34982,-2.41245 5.54562,-4.73097 9.5874,-6.95557 4.04171,-2.22446 8.36544,-3.41505 12.97119,-3.57177 4.69966,0.21939 8.8354,1.66064 12.40723,4.32373 3.57171,2.66323 5.45159,5.2324 5.63965,7.70752 l 0,6.01562 c -0.63134,-0.15776 -5.05022,0.32497 -13.25666,1.44821 -8.20654,1.12334 -16.41304,3.83408 -24.6195,8.13224 -8.20652,4.29824 -12.62541,11.13079 -13.25666,20.49768 0.37597,9.02345 3.38378,15.79103 9.02344,20.30273 5.63962,4.51172 11.65523,6.76758 18.04688,6.76759 6.07824,-0.18799 11.21658,-1.6919 15.41504,-4.51172 4.19834,-2.81983 7.08083,-5.82764 8.64746,-9.02344 0.75188,5.82764 2.63176,9.5874 5.63965,11.27929 3.00774,1.69189 7.14347,2.44385 12.40722,2.25587 l 7.51953,-15.03907 c -1.62932,0.15667 -3.25855,-0.15664 -4.88769,-0.93994 -1.62932,-0.78327 -2.5066,-2.97647 -2.63184,-6.57959 l 0,-40.60547 c -0.56405,-7.70745 -4.69978,-14.09905 -12.40722,-19.17481 -7.70759,-5.0756 -15.60309,-7.70744 -23.68653,-7.8955 z m 18.04688,46.62109 0,15.03907 c -0.25072,1.22194 -2.38125,3.66579 -6.39161,7.33154 -4.01047,3.66578 -8.39686,5.73365 -13.15918,6.20361 -1.81726,0.094 -4.19845,-0.84594 -7.14356,-2.81983 -2.94518,-1.97386 -4.57441,-5.54563 -4.88769,-10.71532 0.25062,-4.39101 2.42293,-7.47309 6.51693,-9.24625 4.09392,-1.77309 8.60563,-2.96136 13.53515,-3.56482 4.92942,-0.60337 8.77273,-1.34604 11.52996,-2.228 z"
         style="fill:#000000;font-family:Russian Road Sign;-inkscape-font-specification:Russian Road Sign"
         id="path15124" />
      <path
         d="m 326.16416,421.26843 c -0.0493,14.89142 -1.18615,27.75518 -3.41065,38.59131 -2.22455,10.83622 -5.24131,20.53103 -9.05029,29.08447 l -8.59375,0 0,34.58985 18.04687,0 0,-18.04688 57.14844,0 0,18.04688 16.54297,0 0,-34.58985 -10.52734,0 0,-67.67578 z m 18.04687,16.54297 24.0625,0 0,51.13281 -35.01953,0 c 3.6523,-7.47475 6.23043,-15.72832 7.73438,-24.76074 1.50386,-9.03234 2.57807,-17.82302 3.22265,-26.37207 z"
         style="fill:#000000;font-family:Russian Road Sign;-inkscape-font-specification:Russian Road Sign"
         id="path15126" />
      <path
         d="m 411.93961,421.26843 0,84.21875 19.55078,0.0306 34.58984,-57.17907 0,57.14844 18.04688,0 0,-84.21875 -19.55078,0 -34.58985,57.14844 0,-57.14844 z"
         style="fill:#000000;font-family:Russian Road Sign;-inkscape-font-specification:Russian Road Sign"
         id="path15128" />
      <path
         d="m 546.01459,418.26062 c -11.49866,0.18807 -20.83541,4.32381 -28.01026,12.40723 -7.1749,8.08356 -10.872,18.98687 -11.0913,32.70996 0.2193,13.72317 3.9164,24.62648 11.09131,32.70995 7.17485,8.0835 16.51159,12.21924 28.01025,12.40724 11.49855,-0.18799 20.83529,-4.32373 28.01025,-12.40723 7.1748,-8.08348 10.8719,-18.98679 11.09131,-32.70996 -0.21941,-13.7231 -3.91651,-24.62641 -11.09131,-32.70997 -7.17496,-8.08342 -16.5117,-12.21916 -28.01025,-12.40722 z m 0,15.03906 c 6.14089,0.1254 11.15391,2.88256 15.03906,8.27148 3.88502,5.38905 5.89023,12.65793 6.01563,21.80665 -0.1254,9.14879 -2.13061,16.41767 -6.01563,21.80663 -3.88516,5.38901 -8.89817,8.14617 -15.03906,8.27149 -6.141,-0.12531 -11.15401,-2.88247 -15.03906,-8.27149 -3.88513,-5.38897 -5.89034,-12.65784 -6.01563,-21.80663 0.12529,-9.14872 2.1305,-16.41759 6.01563,-21.80665 3.88504,-5.38893 8.89806,-8.14609 15.03906,-8.27148 z"
         style="fill:#000000;font-family:Russian Road Sign;-inkscape-font-specification:Russian Road Sign"
         id="path15130" />
    </g>
  </g>
</svg>
