<?xml version="1.0" encoding="UTF-8" standalone="no"?>
<!-- Created with Inkscape (http://www.inkscape.org/) -->

<svg
   xmlns:dc="http://purl.org/dc/elements/1.1/"
   xmlns:cc="http://creativecommons.org/ns#"
   xmlns:rdf="http://www.w3.org/1999/02/22-rdf-syntax-ns#"
   xmlns:svg="http://www.w3.org/2000/svg"
   xmlns="http://www.w3.org/2000/svg"
   xmlns:sodipodi="http://sodipodi.sourceforge.net/DTD/sodipodi-0.dtd"
   xmlns:inkscape="http://www.inkscape.org/namespaces/inkscape"
   width="700"
   height="1050"
   id="svg2"
   version="1.1"
   inkscape:version="0.48.4 r9939"
   sodipodi:docname="7.20.svg">
  <title
     id="title3002">7.19 Телефон экстренной связи</title>
  <defs
     id="defs4" />
  <sodipodi:namedview
     id="base"
     pagecolor="#ffffff"
     bordercolor="#666666"
     borderopacity="1.0"
     inkscape:pageopacity="0.0"
     inkscape:pageshadow="2"
     inkscape:zoom="1"
     inkscape:cx="413.19199"
     inkscape:cy="661.70256"
     inkscape:document-units="px"
     inkscape:current-layer="layer1"
     showgrid="false"
     inkscape:window-width="1920"
     inkscape:window-height="1024"
     inkscape:window-x="-4"
     inkscape:window-y="-4"
     inkscape:window-maximized="1"
     showguides="true"
     inkscape:guide-bbox="true" />
  <metadata
     id="metadata7">
    <rdf:RDF>
      <cc:Work
         rdf:about="">
        <dc:format>image/svg+xml</dc:format>
        <dc:type
           rdf:resource="http://purl.org/dc/dcmitype/StillImage" />
        <dc:title>7.19 Телефон экстренной связи</dc:title>
        <cc:license
           rdf:resource="http://creativecommons.org/licenses/by-sa/3.0/" />
        <dc:description>ГОСТ Р 52290-2004
Размеры и пропорции по типоразмеру II</dc:description>
      </cc:Work>
      <cc:License
         rdf:about="http://creativecommons.org/licenses/by-sa/3.0/">
        <cc:permits
           rdf:resource="http://creativecommons.org/ns#Reproduction" />
        <cc:permits
           rdf:resource="http://creativecommons.org/ns#Distribution" />
        <cc:requires
           rdf:resource="http://creativecommons.org/ns#Notice" />
        <cc:requires
           rdf:resource="http://creativecommons.org/ns#Attribution" />
        <cc:permits
           rdf:resource="http://creativecommons.org/ns#DerivativeWorks" />
        <cc:requires
           rdf:resource="http://creativecommons.org/ns#ShareAlike" />
      </cc:License>
    </rdf:RDF>
  </metadata>
  <g
     inkscape:label="Layer 1"
     inkscape:groupmode="layer"
     id="layer1"
     transform="translate(0,-2.362183)">
    <rect
       style="color:#000000;fill:#ffffff;fill-opacity:1;fill-rule:nonzero;stroke:none;stroke-width:3.54299997999999980;marker:none;visibility:visible;display:inline;overflow:visible;enable-background:accumulate;opacity:1"
       id="rect10481"
       width="700"
       height="1050"
       x="0"
       y="2.3621831"
       rx="45"
       ry="45" />
    <path
       inkscape:connector-curvature="0"
       style="color:#000000;fill:#0d69e1;fill-opacity:1;fill-rule:nonzero;stroke:none;stroke-width:3.54299997999999980;marker:none;visibility:visible;display:inline;overflow:visible;enable-background:accumulate;opacity:1"
       d="m 45.000009,22.362155 c -13.85,0 -25,11.15 -25,25 l 0,960.000045 c 0,13.85 11.15,25 25,25 l 610.000001,0 c 13.85,0 25,-11.15 25,-25 l 0,-960.000045 c 0,-13.85 -11.15,-25 -25,-25 l -610.000001,0 z m 65.625001,155.000005 478.75,0 c 24.93,0 45,20.07 45,45 l 0,478.75 c 0,24.93 -20.07,45 -45,45 l -478.75,0 c -24.930001,0 -45.000001,-20.07 -45.000001,-45 l 0,-478.75 c 0,-24.93 20.07,-45 45.000001,-45 z"
       id="rect10483" />
    <rect
       ry="44"
       rx="44"
       y="3.3621678"
       x="1.0000153"
       height="1048"
       width="698"
       id="rect10490"
       style="color:#000000;fill:none;stroke:#000000;stroke-width:1.99999988000000010;stroke-miterlimit:4;stroke-opacity:1;stroke-dasharray:none;marker:none;visibility:visible;display:inline;overflow:visible;enable-background:accumulate;opacity:1" />
    <path
       id="path17665-8"
       d="m 467.1927,689.12103 c -10.86537,0.95059 -20.37787,-7.03134 -21.32846,-17.89671 l -6.10091,-69.73363 c -0.95059,-10.86537 7.03134,-20.37787 17.89671,-21.32846 l 23.97094,-2.09719 9.53265,108.9588 -23.97093,2.09719 z"
       style="opacity:1;color:#000000;fill:#000000;fill-opacity:1;fill-rule:nonzero;stroke:none;stroke-width:3.54299997999999980;marker:none;visibility:visible;display:inline;overflow:visible;enable-background:accumulate"
       inkscape:connector-curvature="0" />
    <path
       style="opacity:1;color:#000000;fill:#000000;fill-opacity:1;fill-rule:nonzero;stroke:none;stroke-width:3.54299997999999980;marker:none;visibility:visible;display:inline;overflow:visible;enable-background:accumulate"
       d="m 169.59121,335.78984 c -2.82299,10.53523 3.38595,21.28926 13.92117,24.11225 l 67.61478,18.11735 c 10.53522,2.82288 21.28925,-3.38595 24.11213,-13.92127 l 6.22789,-23.24256 -105.64818,-28.30831 -6.22779,23.24254 z"
       id="path17667-7"
       inkscape:connector-curvature="0" />
    <path
       sodipodi:nodetypes="cccccsccscccc"
       inkscape:connector-curvature="0"
       d="m 264.30467,232.56664 c 93.88903,-8.21422 305.96421,141.34491 323.96962,347.14771 4.73825,54.15852 -35.32492,101.90383 -89.48355,106.6421 l -9.53265,-108.95869 5.99011,-0.52418 c 10.8317,-0.94765 18.84436,-10.49676 17.89671,-21.32846 -0.35213,-4.02483 -1.93416,-7.8439 -4.53112,-10.93892 L 319.10319,320.09288 c -2.59696,-3.09502 -6.08332,-5.31622 -9.98593,-6.36191 -10.50262,-2.81421 -21.29804,3.41855 -24.11224,13.92128 l -1.55618,5.80804 -105.64818,-28.30832 c 10.71067,-39.9729 45.27834,-68.97877 86.50388,-72.58553"
       style="opacity:1;color:#000000;fill:#000000;fill-opacity:1;stroke:none;stroke-width:0.16879068000000000;marker:none;visibility:visible;display:inline;overflow:visible;enable-background:accumulate"
       id="path17669-6" />
    <g
       transform="scale(0.94264834,1.060841)"
       style="font-size:184.11271667000000000px;font-style:normal;font-variant:normal;font-weight:normal;font-stretch:normal;line-height:125%;letter-spacing:-20.62043190000000000px;word-spacing:0px;opacity:1;fill:#000000;fill-opacity:1;stroke:none;font-family:Arial;-inkscape-font-specification:Arial"
       id="text17692-8">
      <path
         d="m 120.12469,640.42914 c 0.0704,0.22277 1.85245,1.78202 5.34602,4.67777 3.49352,2.89577 8.27584,5.79152 14.34697,8.68728 6.07105,2.89575 13.00814,4.45501 20.81129,4.67776 12.94135,-0.53699 22.82193,-4.2959 29.64176,-11.27676 6.81966,-6.98083 10.25639,-13.96168 10.31018,-20.94255 -0.10749,-7.75944 -2.79243,-14.1496 -8.05482,-19.17049 -5.26257,-5.02079 -12.45821,-8.51121 -21.58694,-10.47127 -7.32996,-1.31556 -13.61272,-2.91886 -18.8483,-4.80989 -5.23569,-1.8909 -7.97432,-5.0131 -8.21592,-9.36661 -0.16114,-2.89966 1.12763,-6.12159 3.86631,-9.66579 2.7386,-3.54405 7.89368,-5.4772 15.46527,-5.79948 7.73257,0.42968 13.53204,2.14804 17.39843,5.15509 3.86623,3.00722 5.79939,4.72558 5.79948,5.15509 l 11.59895,-12.88772 c -0.32229,-0.5906 -3.86641,-2.95335 -10.63237,-7.08825 -6.76614,-4.13471 -14.82096,-6.49746 -24.16449,-7.08825 -11.14256,0.2149 -20.11026,3.32943 -26.90312,9.3436 -6.79293,6.01436 -10.28336,13.63959 -10.47128,22.87571 -0.51016,4.80611 1.1545,10.0149 4.994,15.62637 3.83944,5.61158 12.91453,9.85378 27.22531,12.72662 8.45879,1.52635 14.3094,3.34245 17.55185,5.44831 3.24232,2.10594 5.0425,4.18115 5.40057,6.22565 0.35792,2.04457 0.43974,3.73793 0.24549,5.08009 0.18787,2.28222 -1.1546,5.12826 -4.02742,8.53811 -2.87296,3.40989 -8.40393,5.28935 -16.59294,5.63838 -9.05214,-0.49094 -15.94093,-2.45479 -20.66639,-5.89153 -4.72554,-3.4367 -7.10362,-5.40054 -7.13427,-5.89153 z"
         style="fill:#000000;font-family:Russian Road Sign;-inkscape-font-specification:Russian Road Sign"
         id="path17771" />
      <path
         d="m 223.39178,645.58423 c -0.0805,-3.18015 -1.17739,-5.82685 -3.29061,-7.94012 -2.11328,-2.11323 -4.75998,-3.2101 -7.94012,-3.29061 -3.18018,0.0805 -5.82689,1.17738 -7.94013,3.29061 -2.11326,2.11327 -3.21013,4.75997 -3.2906,7.94012 0.0805,3.18017 1.17735,5.82687 3.29061,7.94012 2.11323,2.11325 4.75994,3.21012 7.94012,3.29061 3.18014,-0.0805 5.82684,-1.17736 7.94012,-3.29061 2.11322,-2.11325 3.21009,-4.75995 3.29061,-7.94012 z"
         style="fill:#000000;font-family:Russian Road Sign;-inkscape-font-specification:Russian Road Sign"
         id="path17773" />
      <path
         d="m 266.40214,550.21507 c -14.15353,0.39134 -24.69383,5.68451 -31.62096,15.87952 -6.92716,10.19519 -10.37923,22.94482 -10.3562,38.24892 -0.023,15.30421 3.42904,28.05384 10.35621,38.24893 6.92712,10.19511 17.46742,15.48828 31.62095,15.87951 14.15341,-0.39123 24.69372,-5.6844 31.62095,-15.87952 6.92706,-10.19508 10.37912,-22.94471 10.35621,-38.24892 0.0229,-15.30411 -3.42915,-28.05374 -10.35621,-38.24892 -6.92723,-10.19501 -17.46754,-15.48818 -31.62095,-15.87952 z m 0,16.75404 c 7.22243,0.10749 13.0756,3.43681 17.55952,9.98799 4.48378,6.55133 6.79283,15.68013 6.92715,27.38641 -0.13432,11.70639 -2.44337,20.83519 -6.92715,27.38642 -4.48392,6.55127 -10.33709,9.8806 -17.55952,9.98798 -7.22255,-0.10738 -13.07572,-3.43671 -17.55953,-9.98799 -4.48389,-6.55123 -6.79293,-15.68002 -6.92715,-27.38641 0.13422,-11.70628 2.44327,-20.83508 6.92716,-27.38641 4.48381,-6.55118 10.33698,-9.8805 17.55952,-9.98799 z"
         style="fill:#000000;font-family:Russian Road Sign;-inkscape-font-specification:Russian Road Sign"
         id="path17775" />
      <path
         d="m 331.74249,645.58423 c -0.0805,-3.18015 -1.17739,-5.82685 -3.29061,-7.94012 -2.11328,-2.11323 -4.75998,-3.2101 -7.94013,-3.29061 -3.18018,0.0805 -5.82688,1.17738 -7.94012,3.29061 -2.11326,2.11327 -3.21013,4.75997 -3.29061,7.94012 0.0805,3.18017 1.17735,5.82687 3.29061,7.94012 2.11324,2.11325 4.75994,3.21012 7.94012,3.29061 3.18015,-0.0805 5.82685,-1.17736 7.94013,-3.29061 2.11321,-2.11325 3.21008,-4.75995 3.29061,-7.94012 z"
         style="fill:#000000;font-family:Russian Road Sign;-inkscape-font-specification:Russian Road Sign"
         id="path17777" />
      <path
         d="m 336.82612,640.42914 c 0.0704,0.22277 1.85245,1.78202 5.34602,4.67777 3.49352,2.89577 8.27584,5.79152 14.34697,8.68728 6.07105,2.89575 13.00814,4.45501 20.81129,4.67776 12.94135,-0.53699 22.82193,-4.2959 29.64176,-11.27676 6.81967,-6.98083 10.25639,-13.96168 10.31018,-20.94255 -0.10749,-7.75944 -2.79243,-14.1496 -8.05482,-19.17049 -5.26257,-5.02079 -12.45821,-8.51121 -21.58694,-10.47127 -7.32995,-1.31556 -13.61272,-2.91886 -18.8483,-4.80989 -5.23569,-1.8909 -7.97432,-5.0131 -8.21592,-9.36661 -0.16114,-2.89966 1.12763,-6.12159 3.86631,-9.66579 2.7386,-3.54405 7.89368,-5.4772 15.46527,-5.79948 7.73257,0.42968 13.53204,2.14804 17.39843,5.15509 3.86623,3.00722 5.79939,4.72558 5.79948,5.15509 l 11.59895,-12.88772 c -0.32229,-0.5906 -3.86641,-2.95335 -10.63237,-7.08825 -6.76614,-4.13471 -14.82096,-6.49746 -24.16449,-7.08825 -11.14256,0.2149 -20.11026,3.32943 -26.90312,9.3436 -6.79293,6.01436 -10.28335,13.63959 -10.47128,22.87571 -0.51016,4.80611 1.15451,10.0149 4.994,15.62637 3.83944,5.61158 12.91453,9.85378 27.22531,12.72662 8.45879,1.52635 14.3094,3.34245 17.55185,5.44831 3.24232,2.10594 5.04251,4.18115 5.40057,6.22565 0.35792,2.04457 0.43974,3.73793 0.24549,5.08009 0.18787,2.28222 -1.1546,5.12826 -4.02741,8.53811 -2.87296,3.40989 -8.40394,5.28935 -16.59295,5.63838 -9.05214,-0.49094 -15.94093,-2.45479 -20.66639,-5.89153 -4.72553,-3.4367 -7.10362,-5.40054 -7.13427,-5.89153 z"
         style="fill:#000000;font-family:Russian Road Sign;-inkscape-font-specification:Russian Road Sign"
         id="path17779" />
      <path
         d="m 440.09319,645.58423 c -0.0805,-3.18015 -1.17738,-5.82685 -3.2906,-7.94012 -2.11328,-2.11323 -4.75999,-3.2101 -7.94013,-3.29061 -3.18018,0.0805 -5.82688,1.17738 -7.94012,3.29061 -2.11326,2.11327 -3.21013,4.75997 -3.29061,7.94012 0.0805,3.18017 1.17735,5.82687 3.29061,7.94012 2.11324,2.11325 4.75994,3.21012 7.94012,3.29061 3.18014,-0.0805 5.82685,-1.17736 7.94012,-3.29061 2.11322,-2.11325 3.21009,-4.75995 3.29061,-7.94012 z"
         style="fill:#000000;font-family:Russian Road Sign;-inkscape-font-specification:Russian Road Sign"
         id="path17781" />
    </g>
  </g>
</svg>
