<?xml version="1.0" encoding="UTF-8" standalone="no"?>
<!-- Created with Inkscape (http://www.inkscape.org/) -->

<svg
   xmlns:dc="http://purl.org/dc/elements/1.1/"
   xmlns:cc="http://creativecommons.org/ns#"
   xmlns:rdf="http://www.w3.org/1999/02/22-rdf-syntax-ns#"
   xmlns:svg="http://www.w3.org/2000/svg"
   xmlns="http://www.w3.org/2000/svg"
   xmlns:sodipodi="http://sodipodi.sourceforge.net/DTD/sodipodi-0.dtd"
   xmlns:inkscape="http://www.inkscape.org/namespaces/inkscape"
   width="600"
   height="300"
   id="svg2"
   version="1.1"
   inkscape:version="0.48.4 r9939"
   sodipodi:docname="8.6.5.svg">
  <title
     id="title3006">8.6.6 Способ постановки транспортного средства на стоянку</title>
  <defs
     id="defs4" />
  <sodipodi:namedview
     id="base"
     pagecolor="#ffffff"
     bordercolor="#666666"
     borderopacity="1.0"
     inkscape:pageopacity="0.0"
     inkscape:pageshadow="2"
     inkscape:zoom="1"
     inkscape:cx="245.4335"
     inkscape:cy="183.47325"
     inkscape:document-units="px"
     inkscape:current-layer="layer1"
     showgrid="false"
     inkscape:window-width="1920"
     inkscape:window-height="1024"
     inkscape:window-x="-4"
     inkscape:window-y="-4"
     inkscape:window-maximized="1"
     inkscape:snap-bbox="true"
     inkscape:bbox-paths="true"
     inkscape:bbox-nodes="true"
     inkscape:snap-bbox-edge-midpoints="true"
     inkscape:snap-bbox-midpoints="true"
     inkscape:object-paths="true"
     inkscape:snap-intersection-paths="true"
     inkscape:object-nodes="true"
     inkscape:snap-smooth-nodes="true"
     inkscape:snap-midpoints="true"
     inkscape:snap-object-midpoints="true" />
  <metadata
     id="metadata7">
    <rdf:RDF>
      <cc:Work
         rdf:about="">
        <dc:format>image/svg+xml</dc:format>
        <dc:type
           rdf:resource="http://purl.org/dc/dcmitype/StillImage" />
        <dc:title>8.6.6 Способ постановки транспортного средства на стоянку</dc:title>
        <cc:license
           rdf:resource="http://creativecommons.org/licenses/by-sa/3.0/" />
        <dc:description>ГОСТ Р 52290-2004
Размеры и пропорции по типоразмеру I</dc:description>
      </cc:Work>
      <cc:License
         rdf:about="http://creativecommons.org/licenses/by-sa/3.0/">
        <cc:permits
           rdf:resource="http://creativecommons.org/ns#Reproduction" />
        <cc:permits
           rdf:resource="http://creativecommons.org/ns#Distribution" />
        <cc:requires
           rdf:resource="http://creativecommons.org/ns#Notice" />
        <cc:requires
           rdf:resource="http://creativecommons.org/ns#Attribution" />
        <cc:permits
           rdf:resource="http://creativecommons.org/ns#DerivativeWorks" />
        <cc:requires
           rdf:resource="http://creativecommons.org/ns#ShareAlike" />
      </cc:License>
    </rdf:RDF>
  </metadata>
  <g
     inkscape:label="Layer 1"
     inkscape:groupmode="layer"
     id="layer1"
     transform="translate(0,-752.36218)">
    <rect
       y="752.36218"
       x="0"
       height="300"
       width="600"
       id="rect5622"
       style="opacity:1;color:#000000;fill:#000000;fill-opacity:1;fill-rule:nonzero;stroke:none;stroke-width:3.54299997999999980;marker:none;visibility:visible;display:inline;overflow:visible;enable-background:accumulate"
       rx="45"
       ry="45" />
    <path
       style="color:#000000;fill:#ffffff;fill-opacity:1;fill-rule:nonzero;stroke:none;stroke-width:3.54299997999999980;marker:none;visibility:visible;display:inline;overflow:visible;enable-background:accumulate;opacity:1"
       d="M 45,10 C 25.61,10 10,25.61 10,45 l 0,208.125 290,0 0,-28.125 290,0 0,-180 C 590,25.61 574.39,10 555,10 z"
       transform="translate(0,752.36218)"
       id="rect9537"
       inkscape:connector-curvature="0"
       sodipodi:nodetypes="ssccccsss" />
    <path
       style="opacity:1;color:#000000;fill:#000000;fill-opacity:1;stroke:none;stroke-width:1px;marker:none;visibility:visible;display:inline;overflow:visible;enable-background:accumulate"
       d="M 376.53125 67.53125 C 376.04522 67.54697 375.54908 67.587004 375.0625 67.65625 L 283.0625 80.75 C 279.37223 81.27519 276.07014 83.2866 273.9375 86.34375 L 234.6875 142.65625 C 232.92568 145.18165 230.33352 147.021 227.375 147.875 L 157.84375 167.9375 C 151.3206 169.8203 147.20745 176.2959 148.28125 183 L 152.34375 208.1875 C 153.39459 214.087 158.86191 218.105 164.78125 217.4375 C 165.82247 200.8794 178.40197 186.72355 195.5625 184.28125 C 215.19166 181.48765 233.37637 195.06115 236.15625 214.59375 L 362.5625 196.625 C 359.78262 177.0925 373.43335 158.9812 393.0625 156.1875 C 411.04878 153.6277 427.8072 164.80245 432.625 181.71875 L 439.125 178.9375 C 443.1053 177.2397 445.78108 173.41535 446 169.09375 L 447.84375 132.3125 C 448.05099 128.2217 446.38503 124.2713 443.3125 121.5625 L 385.84375 70.875 C 383.26308 68.59986 379.93348 67.421207 376.53125 67.53125 z M 378.28125 77.9375 C 383.08675 77.693831 387.52996 80.760659 388.96875 85.4375 L 397.1875 112.125 C 398.91062 117.72612 395.75737 123.6518 390.15625 125.375 C 389.62496 125.5385 389.08156 125.6716 388.53125 125.75 L 263.53125 143.53125 C 258.88987 144.19185 254.59806 140.98505 253.9375 136.34375 C 253.63472 134.21635 254.14556 132.04355 255.375 130.28125 L 280.28125 94.59375 C 281.62819 92.66299 283.73181 91.36296 286.0625 91.03125 L 377.34375 78.03125 C 377.66671 77.985283 377.96088 77.953745 378.28125 77.9375 z "
       transform="translate(0,752.36218)"
       id="path14088" />
    <path
       id="path14092"
       d="m 196.42305,942.60948 c -16.24477,2.3119 -27.5396,17.3551 -25.22762,33.6 2.31198,16.2448 17.35527,27.53962 33.60004,25.22762 16.24483,-2.31212 27.5396,-17.35532 25.22763,-33.60012 -2.31198,-16.2448 -17.35522,-27.5396 -33.60005,-25.2275 z m 1.69442,11.9055 c 9.66951,-1.3762 18.62384,5.3469 20.00001,15.0165 1.37618,9.6695 -5.34691,18.6238 -15.01643,20 -9.66953,1.3762 -18.62385,-5.3469 -20.00002,-15.0165 -1.37618,-9.6695 5.34691,-18.6238 15.01644,-20 z"
       style="opacity:1;color:#000000;fill:#000000;fill-opacity:1;fill-rule:nonzero;stroke:none;stroke-width:1px;marker:none;visibility:visible;display:inline;overflow:visible;enable-background:accumulate"
       inkscape:connector-curvature="0" />
    <path
       inkscape:connector-curvature="0"
       style="opacity:1;color:#000000;fill:#000000;fill-opacity:1;fill-rule:nonzero;stroke:none;stroke-width:1px;marker:none;visibility:visible;display:inline;overflow:visible;enable-background:accumulate"
       d="m 393.91591,914.50198 c -16.2448,2.312 -27.53961,17.3553 -25.22762,33.6001 2.31198,16.2448 17.35523,27.5395 33.60003,25.2275 16.24481,-2.3119 27.5396,-17.3551 25.22763,-33.6 -2.31198,-16.2448 -17.35523,-27.5396 -33.60004,-25.2276 z m 1.69442,11.9056 c 9.66952,-1.3762 18.62384,5.3469 20.00002,15.0165 1.37618,9.6694 -5.34692,18.6238 -15.01644,19.9999 -9.66954,1.3763 -18.62384,-5.3468 -20.00002,-15.0164 -1.37618,-9.6695 5.3469,-18.6238 15.01644,-20 z"
       id="path14094" />
  </g>
</svg>
