<?xml version="1.0" encoding="UTF-8" standalone="no"?>
<!-- Created with Inkscape (http://www.inkscape.org/) -->

<svg
   xmlns:dc="http://purl.org/dc/elements/1.1/"
   xmlns:cc="http://creativecommons.org/ns#"
   xmlns:rdf="http://www.w3.org/1999/02/22-rdf-syntax-ns#"
   xmlns:svg="http://www.w3.org/2000/svg"
   xmlns="http://www.w3.org/2000/svg"
   xmlns:sodipodi="http://sodipodi.sourceforge.net/DTD/sodipodi-0.dtd"
   xmlns:inkscape="http://www.inkscape.org/namespaces/inkscape"
   width="600"
   height="300"
   id="svg2"
   version="1.1"
   inkscape:version="0.48.4 r9939"
   sodipodi:docname="8.6.4.svg">
  <title
     id="title3006">8.6.5 Способ постановки транспортного средства на стоянку</title>
  <defs
     id="defs4" />
  <sodipodi:namedview
     id="base"
     pagecolor="#ffffff"
     bordercolor="#666666"
     borderopacity="1.0"
     inkscape:pageopacity="0.0"
     inkscape:pageshadow="2"
     inkscape:zoom="1"
     inkscape:cx="285.87015"
     inkscape:cy="195.22581"
     inkscape:document-units="px"
     inkscape:current-layer="layer1"
     showgrid="false"
     inkscape:window-width="1920"
     inkscape:window-height="1024"
     inkscape:window-x="-4"
     inkscape:window-y="-4"
     inkscape:window-maximized="1"
     inkscape:snap-bbox="true"
     inkscape:bbox-paths="true"
     inkscape:bbox-nodes="true"
     inkscape:snap-bbox-edge-midpoints="true"
     inkscape:snap-bbox-midpoints="true"
     inkscape:object-paths="true"
     inkscape:snap-intersection-paths="true"
     inkscape:object-nodes="true"
     inkscape:snap-smooth-nodes="true"
     inkscape:snap-midpoints="true"
     inkscape:snap-object-midpoints="true" />
  <metadata
     id="metadata7">
    <rdf:RDF>
      <cc:Work
         rdf:about="">
        <dc:format>image/svg+xml</dc:format>
        <dc:type
           rdf:resource="http://purl.org/dc/dcmitype/StillImage" />
        <dc:title>8.6.5 Способ постановки транспортного средства на стоянку</dc:title>
        <cc:license
           rdf:resource="http://creativecommons.org/licenses/by-sa/3.0/" />
        <dc:description>ГОСТ Р 52290-2004
Размеры и пропорции по типоразмеру I</dc:description>
      </cc:Work>
      <cc:License
         rdf:about="http://creativecommons.org/licenses/by-sa/3.0/">
        <cc:permits
           rdf:resource="http://creativecommons.org/ns#Reproduction" />
        <cc:permits
           rdf:resource="http://creativecommons.org/ns#Distribution" />
        <cc:requires
           rdf:resource="http://creativecommons.org/ns#Notice" />
        <cc:requires
           rdf:resource="http://creativecommons.org/ns#Attribution" />
        <cc:permits
           rdf:resource="http://creativecommons.org/ns#DerivativeWorks" />
        <cc:requires
           rdf:resource="http://creativecommons.org/ns#ShareAlike" />
      </cc:License>
    </rdf:RDF>
  </metadata>
  <g
     inkscape:label="Layer 1"
     inkscape:groupmode="layer"
     id="layer1"
     transform="translate(0,-752.36218)">
    <rect
       y="752.36218"
       x="0"
       height="300"
       width="600"
       id="rect5622"
       style="opacity:1;color:#000000;fill:#000000;fill-opacity:1;fill-rule:nonzero;stroke:none;stroke-width:3.54299997999999980;marker:none;visibility:visible;display:inline;overflow:visible;enable-background:accumulate"
       rx="45"
       ry="45" />
    <path
       style="color:#000000;fill:#ffffff;fill-opacity:1;fill-rule:nonzero;stroke:none;stroke-width:3.54299997999999980;marker:none;visibility:visible;display:inline;overflow:visible;enable-background:accumulate;opacity:1"
       d="M 45,10 C 25.61,10 10,25.61 10,45 l 0,208.125 365,2e-5 0,-28.125 L 590,225 590,45 C 590,25.61 574.39,10 555,10 z"
       transform="translate(0,752.36218)"
       id="rect9537"
       inkscape:connector-curvature="0"
       sodipodi:nodetypes="ssccccsss" />
    <path
       inkscape:connector-curvature="0"
       style="opacity:1;color:#000000;fill:#000000;fill-opacity:1;fill-rule:nonzero;stroke:none;stroke-width:1px;marker:none;visibility:visible;display:inline;overflow:visible;enable-background:accumulate"
       d="m 136.59875,942.31671 c -16.40847,0 -29.71023,13.30171 -29.71023,29.71025 0,16.4085 13.30176,29.71024 29.71023,29.71024 16.40852,0 29.71023,-13.30174 29.71023,-29.71024 0,-16.40854 -13.30171,-29.71025 -29.71023,-29.71025 z m 0,12.02556 c 9.76695,0 17.68465,7.91772 17.68465,17.68469 0,9.76697 -7.9177,17.68463 -17.68465,17.68463 -9.76696,0 -17.68467,-7.91766 -17.68467,-17.68463 0,-9.76697 7.91771,-17.68469 17.68467,-17.68469 z"
       id="path14020" />
    <path
       id="path14022"
       d="m 336.08171,942.31671 c -16.4085,0 -29.71023,13.30171 -29.71023,29.71025 0,16.4085 13.30173,29.71024 29.71023,29.71024 16.40851,0 29.71023,-13.30174 29.71023,-29.71024 0,-16.40854 -13.30172,-29.71025 -29.71023,-29.71025 z m 0,12.02556 c 9.76697,0 17.68466,7.91772 17.68466,17.68469 0,9.76697 -7.91769,17.68463 -17.68466,17.68463 -9.76697,0 -17.68465,-7.91766 -17.68465,-17.68463 0,-9.76697 7.91768,-17.68469 17.68465,-17.68469 z"
       style="opacity:1;color:#000000;fill:#000000;fill-opacity:1;fill-rule:nonzero;stroke:none;stroke-width:1px;marker:none;visibility:visible;display:inline;overflow:visible;enable-background:accumulate"
       inkscape:connector-curvature="0" />
    <path
       style="opacity:1;color:#000000;fill:#000000;fill-opacity:1;stroke:none;stroke-width:1px;marker:none;visibility:visible;display:inline;overflow:visible;enable-background:accumulate"
       d="M 141.96875 93.75 C 138.03688 93.75 134.30354 95.47893 131.75 98.46875 L 81.96875 156.75 C 79.308547 159.86471 78.218425 164.0104 79 168.03125 L 86.03125 204.1875 C 86.856925 208.43525 90.007691 211.84879 94.1875 212.96875 L 101.03125 214.8125 C 103.41746 197.38611 118.42622 183.9375 136.59375 183.9375 C 156.4207 183.9375 172.5 199.92697 172.5 219.65625 L 300.1875 219.65625 C 300.1875 199.92697 316.2668 183.9375 336.09375 183.9375 C 353.4272 183.9375 367.8861 196.1601 371.25 212.40625 C 377.20436 212.23315 382.0409 207.48873 382.25 201.5 L 382.71875 176 C 382.83724 169.21158 377.84835 163.38241 371.125 162.4375 L 299.46875 152.375 C 296.41942 151.94643 293.60008 150.47079 291.5 148.21875 L 244.6875 98.03125 C 242.14538 95.30516 238.60246 93.75 234.875 93.75 L 141.96875 93.75 z M 141.15625 104.375 L 233.375 104.375 C 235.72917 104.375 237.9882 105.34077 239.59375 107.0625 L 269.25 138.90625 C 270.7155 140.4778 271.53125 142.53868 271.53125 144.6875 C 271.53125 149.37564 267.75065 153.15625 263.0625 153.15625 L 136.8125 153.15625 C 136.25664 153.15625 135.67403 153.11825 135.125 153.03125 C 129.33697 152.1145 125.39576 146.69428 126.3125 140.90625 L 130.6875 113.3125 C 131.50398 108.15737 135.93688 104.375 141.15625 104.375 z "
       transform="translate(0,752.36218)"
       id="path14054" />
  </g>
</svg>
