<?xml version="1.0" encoding="UTF-8"?>
<svg xmlns="http://www.w3.org/2000/svg" width="700" height="350" version="1.1">
<title>8.4.3 Вид транспортного средства</title>
<rect style="fill:#000000;" x="0" y="0" width="700" height="350" rx="45" ry="45"/>
<rect style="fill:#ffffff;" x="10" y="10" width="680" height="330" rx="35" ry="35"/>
<path style="fill:#000000;" d="m 142.188,260.313 c 0,25.371 20.567,45.938 45.938,45.938 c 25.371,0 45.938,-20.567 45.938,-45.938 c 0,-25.371 -20.567,-45.938 -45.938,-45.938 c -25.371,0 -45.938,20.567 -45.938,45.938 z m 18.594,0 c 0,-15.102 12.242,-27.344 27.344,-27.344 c 15.102,0 27.344,12.242 27.344,27.344 c 0,15.102 -12.242,27.344 -27.344,27.344 c -15.102,0 -27.344,-12.242 -27.344,-27.344 z"/>
<path style="fill:#000000;" d="m 450.625,260.313 c 0,25.371 20.567,45.938 45.938,45.938 c 25.371,0 45.938,-20.567 45.938,-45.938 c 0,-25.371 -20.567,-45.938 -45.938,-45.938 c -25.371,0 -45.938,20.567 -45.938,45.938 z m 18.594,0 c 0,-15.102 12.242,-27.344 27.344,-27.344 c 15.102,0 27.344,12.242 27.344,27.344 c 0,15.102 -12.242,27.344 -27.344,27.344 c -15.102,0 -27.344,-12.242 -27.344,-27.344 z"/>
<path style="fill:#000000;" d="m 441.328,260.313 c 0,-30.505 24.729,-55.234 55.234,-55.234 c 27.638,0 51.022,20.429 54.734,47.817 l 11.032,-2.890 c 6.463,-1.732 11.372,-6.997 12.649,-13.565 l 10.852,-55.830 c 0.254,-1.306 0.382,-2.634 0.382,-3.965 c 0,-4.948 -1.766,-9.734 -4.979,-13.496 l -77.071,-90.239 c -3.948,-4.623 -9.723,-7.285 -15.802,-7.285 l -143.828,0 c -5.763,0 -11.268,2.393 -15.198,6.608 l -72.356,77.592 c -3.247,3.482 -7.591,5.744 -12.306,6.406 l -110.693,15.557 c -10.396,1.461 -18.069,10.446 -17.886,20.942 l 0.687,39.369 c 0.165,9.438 7.785,17.044 17.222,17.193 c 5.239,-25.729 27.867,-44.214 54.124,-44.214 c 30.505,0 55.234,24.729 55.234,55.234 z m -140.385,-102.813 c -7.249,0 -13.125,-5.876 -13.125,-13.125 c 0,-3.322 1.260,-6.521 3.526,-8.951 l 45.897,-49.219 c 2.482,-2.662 5.959,-4.174 9.599,-4.174 l 142.625,0 c 8.070,0 14.942,5.869 16.204,13.840 l 6.756,42.656 c 0.134,0.849 0.202,1.707 0.202,2.566 c 0,9.061 -7.345,16.406 -16.406,16.406 z"/>
</svg>