<?xml version="1.0" encoding="UTF-8" standalone="no"?>
<!-- Created with Inkscape (http://www.inkscape.org/) -->

<svg
   xmlns:dc="http://purl.org/dc/elements/1.1/"
   xmlns:cc="http://creativecommons.org/ns#"
   xmlns:rdf="http://www.w3.org/1999/02/22-rdf-syntax-ns#"
   xmlns:svg="http://www.w3.org/2000/svg"
   xmlns="http://www.w3.org/2000/svg"
   xmlns:sodipodi="http://sodipodi.sourceforge.net/DTD/sodipodi-0.dtd"
   xmlns:inkscape="http://www.inkscape.org/namespaces/inkscape"
   width="600"
   height="300"
   id="svg2"
   version="1.1"
   inkscape:version="0.48.4 r9939"
   sodipodi:docname="8.9.svg">
  <title
     id="title3006">8.11 Ограничение разрешённой максимальной массы</title>
  <defs
     id="defs4" />
  <sodipodi:namedview
     id="base"
     pagecolor="#ffffff"
     bordercolor="#666666"
     borderopacity="1.0"
     inkscape:pageopacity="0.0"
     inkscape:pageshadow="2"
     inkscape:zoom="1"
     inkscape:cx="224.35709"
     inkscape:cy="144.65966"
     inkscape:document-units="px"
     inkscape:current-layer="layer1"
     showgrid="false"
     inkscape:window-width="1920"
     inkscape:window-height="1024"
     inkscape:window-x="-4"
     inkscape:window-y="-4"
     inkscape:window-maximized="1"
     inkscape:snap-bbox="true"
     inkscape:bbox-paths="true"
     inkscape:bbox-nodes="true"
     inkscape:snap-bbox-edge-midpoints="true"
     inkscape:snap-bbox-midpoints="true"
     inkscape:object-paths="true"
     inkscape:snap-intersection-paths="true"
     inkscape:object-nodes="true"
     inkscape:snap-smooth-nodes="true"
     inkscape:snap-midpoints="true"
     inkscape:snap-object-midpoints="true"
     showguides="true"
     inkscape:guide-bbox="true" />
  <metadata
     id="metadata7">
    <rdf:RDF>
      <cc:Work
         rdf:about="">
        <dc:format>image/svg+xml</dc:format>
        <dc:type
           rdf:resource="http://purl.org/dc/dcmitype/StillImage" />
        <dc:title>8.11 Ограничение разрешённой максимальной массы</dc:title>
        <cc:license
           rdf:resource="http://creativecommons.org/licenses/by-sa/3.0/" />
        <dc:description>ГОСТ Р 52290-2004
Размеры и пропорции по типоразмеру I</dc:description>
      </cc:Work>
      <cc:License
         rdf:about="http://creativecommons.org/licenses/by-sa/3.0/">
        <cc:permits
           rdf:resource="http://creativecommons.org/ns#Reproduction" />
        <cc:permits
           rdf:resource="http://creativecommons.org/ns#Distribution" />
        <cc:requires
           rdf:resource="http://creativecommons.org/ns#Notice" />
        <cc:requires
           rdf:resource="http://creativecommons.org/ns#Attribution" />
        <cc:permits
           rdf:resource="http://creativecommons.org/ns#DerivativeWorks" />
        <cc:requires
           rdf:resource="http://creativecommons.org/ns#ShareAlike" />
      </cc:License>
    </rdf:RDF>
  </metadata>
  <g
     inkscape:label="Layer 1"
     inkscape:groupmode="layer"
     id="layer1"
     transform="translate(0,-752.36218)">
    <rect
       y="752.36218"
       x="0"
       height="300"
       width="600"
       id="rect5622"
       style="opacity:1;color:#000000;fill:#000000;fill-opacity:1;fill-rule:nonzero;stroke:none;stroke-width:3.54299997999999980;marker:none;visibility:visible;display:inline;overflow:visible;enable-background:accumulate"
       rx="45"
       ry="45" />
    <rect
       y="762.36212"
       x="10"
       height="280"
       width="580"
       id="rect9537"
       style="color:#000000;fill:#ffffff;fill-opacity:1;fill-rule:nonzero;stroke:none;stroke-width:3.54299997999999980;marker:none;visibility:visible;display:inline;overflow:visible;enable-background:accumulate;opacity:1"
       rx="35"
       ry="35" />
    <g
       style="font-size:267.85958862000001000px;font-style:normal;font-variant:normal;font-weight:normal;font-stretch:normal;line-height:125%;letter-spacing:-7.96874904999999870px;word-spacing:0px;opacity:1;fill:#000000;fill-opacity:1;stroke:none;font-family:Arial;-inkscape-font-specification:Arial"
       id="text17304">
      <path
         d="m 158.8738,862.18386 8.83925,11.51781 20.08921,-12.58924 0,116.24957 26.24991,0 0,-149.99944 -22.49992,0 z"
         style="fill:#000000;font-family:Russian Road Sign;-inkscape-font-specification:Russian Road Sign"
         id="path17428" />
      <path
         d="m 333.6552,851.73747 7.49997,-24.37491 -86.24968,0 0,73.12473 16.87494,9.37496 c 1.87495,-1.28899 4.68743,-3.39836 8.43747,-6.32811 3.74993,-2.92959 8.43741,-4.57021 14.06245,-4.92185 8.47646,0.35165 14.9608,3.39851 19.45304,9.1406 4.49209,5.74223 6.7577,12.07032 6.79686,18.9843 -0.46883,9.37501 -4.21882,16.40622 -11.24996,21.09367 -7.03129,4.68751 -14.53126,7.03125 -22.49992,7.03122 -6.30582,0.0726 -12.64508,-0.40734 -19.01778,-1.43972 -6.37277,-1.03234 -11.90846,-3.05242 -16.60708,-6.06025 l 3.74998,24.37491 c 0.42967,0.31251 4.25778,1.5625 11.48434,3.74999 7.22649,2.18749 15.27333,3.43748 24.14053,3.74998 18.00766,-0.39062 32.14822,-5.7031 42.42171,-15.93744 10.27329,-10.23432 15.50765,-23.04676 15.70307,-38.43735 -0.58605,-15.07801 -5.5079,-26.64045 -14.76557,-34.68738 -9.25788,-8.04675 -19.33595,-12.10923 -30.23426,-12.18745 -4.41411,-0.078 -8.84489,0.54697 -13.29236,1.87499 -4.44758,1.32822 -8.14176,3.82821 -11.08255,7.49998 l 0,-35.62487 z"
         style="fill:#000000;font-family:Russian Road Sign;-inkscape-font-specification:Russian Road Sign"
         id="path17430" />
      <path
         d="m 378.10428,872.36239 0,20.62493 31.60702,0 0,84.37468 22.49992,0 0,-84.37468 31.33917,0 0,-20.62493 z"
         style="fill:#000000;font-family:Russian Road Sign;-inkscape-font-specification:Russian Road Sign"
         id="path17432" />
    </g>
  </g>
</svg>
