<?xml version="1.0" encoding="UTF-8" standalone="no"?>
<!-- Created with Inkscape (http://www.inkscape.org/) -->

<svg
   xmlns:dc="http://purl.org/dc/elements/1.1/"
   xmlns:cc="http://creativecommons.org/ns#"
   xmlns:rdf="http://www.w3.org/1999/02/22-rdf-syntax-ns#"
   xmlns:svg="http://www.w3.org/2000/svg"
   xmlns="http://www.w3.org/2000/svg"
   xmlns:sodipodi="http://sodipodi.sourceforge.net/DTD/sodipodi-0.dtd"
   xmlns:inkscape="http://www.inkscape.org/namespaces/inkscape"
   width="600"
   height="300"
   id="svg2"
   version="1.1"
   inkscape:version="0.48.4 r9939"
   sodipodi:docname="8.6.3.svg">
  <title
     id="title3006">8.6.4 Способ постановки транспортного средства на стоянку</title>
  <defs
     id="defs4" />
  <sodipodi:namedview
     id="base"
     pagecolor="#ffffff"
     bordercolor="#666666"
     borderopacity="1.0"
     inkscape:pageopacity="0.0"
     inkscape:pageshadow="2"
     inkscape:zoom="1"
     inkscape:cx="181.16916"
     inkscape:cy="192.41355"
     inkscape:document-units="px"
     inkscape:current-layer="layer1"
     showgrid="false"
     inkscape:window-width="1920"
     inkscape:window-height="1024"
     inkscape:window-x="-4"
     inkscape:window-y="-4"
     inkscape:window-maximized="1"
     inkscape:snap-bbox="true"
     inkscape:bbox-paths="true"
     inkscape:bbox-nodes="true"
     inkscape:snap-bbox-edge-midpoints="true"
     inkscape:snap-bbox-midpoints="true"
     inkscape:object-paths="true"
     inkscape:snap-intersection-paths="true"
     inkscape:object-nodes="true"
     inkscape:snap-smooth-nodes="true"
     inkscape:snap-midpoints="true"
     inkscape:snap-object-midpoints="true" />
  <metadata
     id="metadata7">
    <rdf:RDF>
      <cc:Work
         rdf:about="">
        <dc:format>image/svg+xml</dc:format>
        <dc:type
           rdf:resource="http://purl.org/dc/dcmitype/StillImage" />
        <dc:title>8.6.4 Способ постановки транспортного средства на стоянку</dc:title>
        <cc:license
           rdf:resource="http://creativecommons.org/licenses/by-sa/3.0/" />
        <dc:description>ГОСТ Р 52290-2004
Размеры и пропорции по типоразмеру I</dc:description>
      </cc:Work>
      <cc:License
         rdf:about="http://creativecommons.org/licenses/by-sa/3.0/">
        <cc:permits
           rdf:resource="http://creativecommons.org/ns#Reproduction" />
        <cc:permits
           rdf:resource="http://creativecommons.org/ns#Distribution" />
        <cc:requires
           rdf:resource="http://creativecommons.org/ns#Notice" />
        <cc:requires
           rdf:resource="http://creativecommons.org/ns#Attribution" />
        <cc:permits
           rdf:resource="http://creativecommons.org/ns#DerivativeWorks" />
        <cc:requires
           rdf:resource="http://creativecommons.org/ns#ShareAlike" />
      </cc:License>
    </rdf:RDF>
  </metadata>
  <g
     inkscape:label="Layer 1"
     inkscape:groupmode="layer"
     id="layer1"
     transform="translate(0,-752.36218)">
    <rect
       y="752.36218"
       x="0"
       height="300"
       width="600"
       id="rect5622"
       style="opacity:1;color:#000000;fill:#000000;fill-opacity:1;fill-rule:nonzero;stroke:none;stroke-width:3.54299997999999980;marker:none;visibility:visible;display:inline;overflow:visible;enable-background:accumulate"
       rx="45"
       ry="45" />
    <path
       style="color:#000000;fill:#ffffff;fill-opacity:1;fill-rule:nonzero;stroke:none;stroke-width:3.54299997999999980;marker:none;visibility:visible;display:inline;overflow:visible;enable-background:accumulate;opacity:1"
       d="M 45,10 C 25.61,10 10,25.61 10,45 l 0,208.125 365,2e-5 0,-28.125 L 590,225 590,45 C 590,25.61 574.39,10 555,10 z"
       transform="translate(0,752.36218)"
       id="rect9537"
       inkscape:connector-curvature="0"
       sodipodi:nodetypes="ssccccsss" />
    <path
       style="opacity:1;color:#000000;fill:#000000;fill-opacity:1;stroke:none;stroke-width:1px;marker:none;visibility:visible;display:inline;overflow:visible;enable-background:accumulate"
       d="M 237.8125 93.75 C 234.08504 93.75 230.54211 95.30515 228 98.03125 L 181.1875 148.21875 C 179.08743 150.47079 176.26808 151.94643 173.21875 152.375 L 101.53125 162.4375 C 94.807896 163.38241 89.850259 169.21159 89.96875 176 L 90.40625 201.5 C 90.61535 207.48876 95.483143 212.23309 101.4375 212.40625 C 104.8014 196.16009 119.2603 183.9375 136.59375 183.9375 C 156.4207 183.9375 172.5 199.92695 172.5 219.65625 L 300.1875 219.65625 C 300.1875 199.92695 316.2668 183.9375 336.09375 183.9375 C 354.26128 183.9375 369.27004 197.38609 371.65625 214.8125 L 378.46875 212.96875 C 382.64856 211.84881 385.83057 208.43524 386.65625 204.1875 L 393.6875 168.03125 C 394.46908 164.0104 393.37896 159.86471 390.71875 156.75 L 340.9375 98.46875 C 338.38396 95.47893 334.65062 93.75 330.71875 93.75 L 237.8125 93.75 z M 239.3125 104.375 L 331.5 104.375 C 336.71937 104.375 341.18352 108.15737 342 113.3125 L 346.375 140.90625 C 347.29173 146.69428 343.31928 152.1145 337.53125 153.03125 C 336.98222 153.11825 336.43086 153.15625 335.875 153.15625 L 209.625 153.15625 C 204.93686 153.15625 201.125 149.37564 201.125 144.6875 C 201.125 142.53868 201.94075 140.4778 203.40625 138.90625 L 233.09375 107.0625 C 234.6993 105.34076 236.95832 104.375 239.3125 104.375 z "
       transform="translate(0,752.36218)"
       id="path14016" />
    <path
       inkscape:connector-curvature="0"
       style="opacity:1;color:#000000;fill:#000000;fill-opacity:1;fill-rule:nonzero;stroke:none;stroke-width:1px;marker:none;visibility:visible;display:inline;overflow:visible;enable-background:accumulate"
       d="m 136.59875,942.31671 c -16.40847,0 -29.71023,13.30171 -29.71023,29.71025 0,16.4085 13.30176,29.71024 29.71023,29.71024 16.40852,0 29.71023,-13.30174 29.71023,-29.71024 0,-16.40854 -13.30171,-29.71025 -29.71023,-29.71025 z m 0,12.02556 c 9.76695,0 17.68465,7.91772 17.68465,17.68469 0,9.76697 -7.9177,17.68463 -17.68465,17.68463 -9.76696,0 -17.68467,-7.91766 -17.68467,-17.68463 0,-9.76697 7.91771,-17.68469 17.68467,-17.68469 z"
       id="path14020" />
    <path
       id="path14022"
       d="m 336.08171,942.31671 c -16.4085,0 -29.71023,13.30171 -29.71023,29.71025 0,16.4085 13.30173,29.71024 29.71023,29.71024 16.40851,0 29.71023,-13.30174 29.71023,-29.71024 0,-16.40854 -13.30172,-29.71025 -29.71023,-29.71025 z m 0,12.02556 c 9.76697,0 17.68466,7.91772 17.68466,17.68469 0,9.76697 -7.91769,17.68463 -17.68466,17.68463 -9.76697,0 -17.68465,-7.91766 -17.68465,-17.68463 0,-9.76697 7.91768,-17.68469 17.68465,-17.68469 z"
       style="opacity:1;color:#000000;fill:#000000;fill-opacity:1;fill-rule:nonzero;stroke:none;stroke-width:1px;marker:none;visibility:visible;display:inline;overflow:visible;enable-background:accumulate"
       inkscape:connector-curvature="0" />
  </g>
</svg>
