<?xml version="1.0" encoding="UTF-8" standalone="no"?>
<!-- Created with Inkscape (http://www.inkscape.org/) -->

<svg
   xmlns:dc="http://purl.org/dc/elements/1.1/"
   xmlns:cc="http://creativecommons.org/ns#"
   xmlns:rdf="http://www.w3.org/1999/02/22-rdf-syntax-ns#"
   xmlns:svg="http://www.w3.org/2000/svg"
   xmlns="http://www.w3.org/2000/svg"
   xmlns:sodipodi="http://sodipodi.sourceforge.net/DTD/sodipodi-0.dtd"
   xmlns:inkscape="http://www.inkscape.org/namespaces/inkscape"
   width="600"
   height="300"
   id="svg2"
   version="1.1"
   inkscape:version="0.48.4 r9939"
   sodipodi:docname="8.7.svg">
  <title
     id="title3006">8.7 Стоянка с неработающим двигателем</title>
  <defs
     id="defs4" />
  <sodipodi:namedview
     id="base"
     pagecolor="#ffffff"
     bordercolor="#666666"
     borderopacity="1.0"
     inkscape:pageopacity="0.0"
     inkscape:pageshadow="2"
     inkscape:zoom="1"
     inkscape:cx="418.09576"
     inkscape:cy="158.44084"
     inkscape:document-units="px"
     inkscape:current-layer="layer1"
     showgrid="false"
     inkscape:window-width="1920"
     inkscape:window-height="1024"
     inkscape:window-x="-4"
     inkscape:window-y="-4"
     inkscape:window-maximized="1"
     inkscape:snap-bbox="true"
     inkscape:bbox-paths="true"
     inkscape:bbox-nodes="true"
     inkscape:snap-bbox-edge-midpoints="true"
     inkscape:snap-bbox-midpoints="true"
     inkscape:object-paths="true"
     inkscape:snap-intersection-paths="true"
     inkscape:object-nodes="true"
     inkscape:snap-smooth-nodes="true"
     inkscape:snap-midpoints="true"
     inkscape:snap-object-midpoints="true"
     showguides="true"
     inkscape:guide-bbox="true" />
  <metadata
     id="metadata7">
    <rdf:RDF>
      <cc:Work
         rdf:about="">
        <dc:format>image/svg+xml</dc:format>
        <dc:type
           rdf:resource="http://purl.org/dc/dcmitype/StillImage" />
        <dc:title>8.7 Стоянка с неработающим двигателем</dc:title>
        <cc:license
           rdf:resource="http://creativecommons.org/licenses/by-sa/3.0/" />
        <dc:description>ГОСТ Р 52290-2004
Размеры и пропорции по типоразмеру I</dc:description>
      </cc:Work>
      <cc:License
         rdf:about="http://creativecommons.org/licenses/by-sa/3.0/">
        <cc:permits
           rdf:resource="http://creativecommons.org/ns#Reproduction" />
        <cc:permits
           rdf:resource="http://creativecommons.org/ns#Distribution" />
        <cc:requires
           rdf:resource="http://creativecommons.org/ns#Notice" />
        <cc:requires
           rdf:resource="http://creativecommons.org/ns#Attribution" />
        <cc:permits
           rdf:resource="http://creativecommons.org/ns#DerivativeWorks" />
        <cc:requires
           rdf:resource="http://creativecommons.org/ns#ShareAlike" />
      </cc:License>
    </rdf:RDF>
  </metadata>
  <g
     inkscape:label="Layer 1"
     inkscape:groupmode="layer"
     id="layer1"
     transform="translate(0,-752.36218)">
    <rect
       y="752.36218"
       x="0"
       height="300"
       width="600"
       id="rect5622"
       style="opacity:1;color:#000000;fill:#000000;fill-opacity:1;fill-rule:nonzero;stroke:none;stroke-width:3.54299997999999980;marker:none;visibility:visible;display:inline;overflow:visible;enable-background:accumulate"
       rx="45"
       ry="45" />
    <path
       style="color:#000000;fill:#ffffff;fill-opacity:1;fill-rule:nonzero;stroke:none;stroke-width:3.54299997999999980;marker:none;visibility:visible;display:inline;overflow:visible;enable-background:accumulate;opacity:1"
       d="M 45 10 C 25.61 10 10 25.61 10 45 L 10 99.9375 C 11.493064 99.38562 13.094827 99.09375 14.71875 99.09375 L 107.625 99.09375 C 111.55686 99.09375 115.2902 100.79145 117.84375 103.78125 L 167.625 162.0625 C 170.2852 165.1771 171.37533 169.3541 170.59375 173.375 L 163.5625 209.53125 C 162.73683 213.77895 159.5548 217.16125 155.375 218.28125 L 148.5625 220.125 C 146.17629 202.6986 131.16753 189.28125 113 189.28125 C 93.17304 189.28125 77.09375 205.2707 77.09375 225 L 10 225 L 10 255 C 10 274.39 25.61 290 45 290 L 555 290 C 574.39 290 590 274.39 590 255 L 590 45 C 590 25.61 574.39 10 555 10 L 45 10 z M 16.21875 109.6875 C 13.86458 109.6875 11.60556 110.68455 10 112.40625 L 10 158.5 L 112.78125 158.5 C 113.33712 158.5 113.88848 158.462 114.4375 158.375 C 120.22553 157.4582 124.16673 152.038 123.25 146.25 L 118.90625 118.65625 C 118.08976 113.50115 113.62562 109.6875 108.40625 109.6875 L 16.21875 109.6875 z "
       transform="translate(0,752.36218)"
       id="rect14687" />
    <path
       inkscape:connector-curvature="0"
       style="opacity:1;color:#000000;fill:#000000;fill-opacity:1;fill-rule:nonzero;stroke:none;stroke-width:1px;marker:none;visibility:visible;display:inline;overflow:visible;enable-background:accumulate"
       d="m 420.29297,824.5497 c -34.32263,0 -64.13428,19.3153 -79.16016,47.666 -7.44281,-3.2095 -15.63665,-5.0098 -24.25781,-5.0098 -28.30294,0 -52.1008,19.1551 -59.20898,45.2051 -5.49578,-3.1014 -11.84078,-4.8926 -18.60352,-4.8926 -20.96956,0 -37.96875,16.9993 -37.96875,37.9688 0,4.6104 0.83872,9.0368 2.34375,13.125 l -28.18359,0 -4.62891,5.625 40.2832,6.7089 c 6.94761,7.6774 16.98457,12.5098 28.1543,12.5098 12.58553,0 23.71327,-6.153 30.61523,-15.5859 11.26131,13.5331 28.21439,22.1484 47.19727,22.1484 14.77237,0 28.28869,-5.2486 38.877,-13.9453 16.28822,16.9586 39.16912,27.5391 64.54097,27.5391 49.44675,0 89.53125,-40.0845 89.53125,-89.5313 0,-49.4467 -40.0845,-89.5312 -89.53125,-89.5312 z m 0,7.0312 c 45.56353,0 82.5,36.9365 82.5,82.5 0,45.5636 -36.93647,82.5 -82.5,82.5 -23.3145,0 -44.38163,-9.6748 -59.38472,-25.2246 -0.0722,-0.075 -0.13303,-0.159 -0.20513,-0.2344 -0.55153,-0.5759 -1.07643,-1.166 -1.61137,-1.7578 -0.96516,-1.0728 -1.93022,-2.1601 -2.84175,-3.2812 -0.40463,0.425 -0.81375,0.8479 -1.23047,1.2598 -0.22134,0.218 -0.44878,0.4302 -0.67378,0.6445 -0.19669,0.1879 -0.38672,0.3717 -0.58594,0.5566 -0.31969,0.2955 -0.64031,0.5912 -0.96684,0.8789 -0.11381,0.1006 -0.23681,0.1934 -0.35156,0.293 -0.0309,0.027 -0.0562,0.061 -0.0881,0.088 -0.4125,0.3564 -0.83559,0.7108 -1.25981,1.0547 -9.34228,7.5817 -21.24938,12.1289 -34.21875,12.1289 -17.71013,0 -33.43453,-8.484 -43.35938,-21.5918 -0.0676,-0.089 -0.13806,-0.1741 -0.20507,-0.2637 -0.30346,-0.4058 -0.58663,-0.8159 -0.87891,-1.2305 -0.0485,-0.068 -0.0983,-0.1361 -0.14649,-0.205 -0.0854,-0.1223 -0.14991,-0.2577 -0.23437,-0.3809 -0.25018,-0.3641 -0.52031,-0.7135 -0.76172,-1.0839 -0.31127,-0.4783 -0.6117,-0.947 -0.9082,-1.4356 -0.0113,-0.019 -0.018,-0.04 -0.0292,-0.058 -0.30729,-0.5077 -0.61721,-1.0344 -0.90821,-1.5527 -0.1281,0.4022 -0.2667,0.8061 -0.41015,1.2011 -0.0969,0.2643 -0.18905,0.5304 -0.29297,0.7911 -0.0501,0.1271 -0.0948,0.2545 -0.14648,0.3808 -0.21681,0.5233 -0.45915,1.0444 -0.70313,1.5527 -0.2966,0.618 -0.60337,1.2206 -0.9375,1.8165 -0.007,0.011 -0.0228,0.018 -0.0293,0.029 -0.3413,0.607 -0.70679,1.203 -1.08398,1.7871 0.007,0.011 0.0217,0.018 0.0293,0.029 -5.67555,8.7884 -15.5642,14.5901 -26.80641,14.5901 -17.60408,0 -31.875,-14.2709 -31.875,-31.875 0,-17.6041 14.27092,-31.875 31.875,-31.875 6.34954,0 12.25941,1.8436 17.22656,5.039 -0.002,0.01 0.002,0.02 0,0.029 1.13343,0.7299 2.22258,1.5157 3.25196,2.373 0.0479,0.04 0.0988,0.077 0.14648,0.1172 0.39924,0.3394 0.78992,0.6964 1.17187,1.0547 0.12679,0.1183 0.25605,0.2313 0.38086,0.3515 0.117,0.1134 0.23631,0.2366 0.35157,0.3516 0.37998,0.3783 0.7529,0.7734 1.11328,1.1719 0.0515,-0.627 0.10326,-1.2542 0.17578,-1.875 0.0127,-0.1092 0.0453,-0.2133 0.0586,-0.3222 0.0556,-0.4523 0.1092,-0.899 0.17578,-1.3477 0.0792,-0.5381 0.16859,-1.0784 0.26368,-1.6114 4.55911,-25.4175 26.76525,-44.7069 53.49609,-44.7069 7.52981,0 14.69184,1.5382 21.21094,4.3066 1.08637,0.461 2.14247,0.9666 3.19331,1.4942 0.009,0 0.0216,0 0.0291,0 0.5176,0.26 1.04494,0.5149 1.55278,0.7909 0.5146,0.2807 1.01888,0.5824 1.52344,0.8789 0.4275,-1.0013 0.882,-1.9784 1.34756,-2.9589 0.54591,-1.1483 1.10325,-2.28 1.69932,-3.3984 13.87293,-26.0397 41.298,-43.7696 72.86128,-43.7696 z"
       id="path14210" />
    <path
       inkscape:connector-curvature="0"
       style="opacity:1;color:#000000;fill:#000000;fill-opacity:1;fill-rule:nonzero;stroke:none;stroke-width:1px;marker:none;visibility:visible;display:inline;overflow:visible;enable-background:accumulate"
       d="m 112.98438,947.652 c -16.4085,0 -29.71023,13.3017 -29.71023,29.7102 0,16.4085 13.30173,29.7102 29.71023,29.7102 16.40851,0 29.71023,-13.3017 29.71023,-29.7102 0,-16.4085 -13.30172,-29.7102 -29.71023,-29.7102 z m 0,12.0255 c 9.76697,0 17.68466,7.9177 17.68466,17.6847 0,9.767 -7.91769,17.6846 -17.68466,17.6846 -9.76697,0 -17.68466,-7.9176 -17.68466,-17.6846 0,-9.767 7.91769,-17.6847 17.68466,-17.6847 z"
       id="path14198" />
    <path
       sodipodi:nodetypes="ccccc"
       style="opacity:1;fill:#ff0000;fill-opacity:1;stroke:none"
       d="m 486.87502,762.36218 -42.4264,0 -279.99995,280.00002 42.42642,0 z"
       id="path14767"
       inkscape:connector-curvature="0" />
  </g>
</svg>
