<!-- Created with Inkscape (http://www.inkscape.org/) -->
<svg xmlns:rdf="http://www.w3.org/1999/02/22-rdf-syntax-ns#" xmlns="http://www.w3.org/2000/svg" height="921.26" width="1417.3" version="1.1" xmlns:cc="http://creativecommons.org/ns#" xmlns:dc="http://purl.org/dc/elements/1.1/">
 <g transform="translate(0,-131.10233)">
  <rect style="enable-background:accumulate;color:#000000;" stroke-dasharray="none" fill-rule="nonzero" rx="106.3" ry="106.3" height="903.55" width="1399.6" stroke="#000" stroke-miterlimit="4" y="139.96" x="8.8565" stroke-width="17.713" fill="#FFF"/>
  <g style="writing-mode:lr-tb;letter-spacing:0px;text-anchor:start;word-spacing:0px;text-align:start;" font-weight="500" font-size="500px" font-stretch="normal" font-variant="normal" font-style="normal" font-family="Russian Road Sign" line-height="100%" fill="#000">
   <path d="m540.5,415.33c-92.4,0-136.8,79.2-136.8,176.4,0,97.8,44.4,176.4,136.8,176.4,63.6,0,100.8-37.8,121.8-92.4l-56.4-21c-12.6,42-34.8,58.8-65.4,58.8-46.2,0-79.8-46.2-79.8-121.8s33.6-121.8,79.8-121.8c30.6,0,52.8,16.8,65.4,58.8l56.4-21c-21-54.6-58.2-92.4-121.8-92.4"/>
   <path d="m868.43,423.73-113.4,0,0,336,113.4,0c92.4,0,145.2-70.8,145.2-168s-52.8-168-145.2-168m-4.2,50.4c46.2,0,88.2,37.8,88.2,117.6s-42,117.6-88.2,117.6h-50.4v-235.2h50.4"/>
  </g>
  <path stroke-linejoin="miter" d="m1184.5,474.6a461.59,257.54,0,1,1,-923.18,0,461.59,257.54,0,1,1,923.18,0z" transform="matrix(1.1285264,0,0,1.2641163,-107.11231,-8.2180979)" stroke-dashoffset="0" stroke="#000" stroke-linecap="round" stroke-miterlimit="4" stroke-dasharray="none" stroke-width="17.71653557" fill="none"/>
 </g>
</svg>
