<?xml version="1.0" encoding="UTF-8"?>
<svg xmlns="http://www.w3.org/2000/svg" width="700" height="350" version="1.1">
<title>8.21.3 Вид маршрутного транспортного средства</title>
<rect style="fill:#000000;" x="0" y="0" width="700" height="350" rx="45" ry="45"/>
<rect style="fill:#ffffff;" x="10" y="10" width="680" height="330" rx="35" ry="35"/>
<path style="fill:#000000;" d="m 131.25,240.625 l 21.875,0 l 0,-54.688 l 54.688,0 l 0,-21.875 l -54.688,0 l 0,-54.688 l -21.875,0 l 0,54.688 l -54.688,0 l 0,21.875 l 54.688,0 z"/>
<path style="fill:#000000;" d="m 399.21925,116.21094 65.625,0 l 24.60937,-28.71094 l -53.32031,-49.21875 l 0,-16.40625 l -8.20312,0 l 0,16.40625 l -53.32031,49.21875 z m 3.77286,-8.20313 -17.00754,-19.843111 46.04718,-42.505804 46.04718,42.505804 -17.00754,19.843111 z"/>
<path style="fill:#000000;" d="m 276.17237,259.76562 13.53516,0 c 0,-13.59134 12.30346,-24.60937 27.48047,-24.60937 l 229.6875,0 c 15.17701,0 27.48047,11.01803 27.48047,24.60937 l 13.53515,0 c 13.59135,0 24.60938,-11.01802 24.60938,-24.60937 l 0,-41.83594 c 0,-4.31985 -1.13712,-8.56357 -3.297,-12.30469 l -28.41645,-49.21875 c -2.34453,-4.06087 -6.6775,-6.56249 -11.36657,-6.56249 l -274.77746,0 c -4.68907,0 -9.02204,2.50162 -11.36657,6.56249 l -28.41645,49.21875 c -2.15988,3.74112 -3.297,7.98484 -3.297,12.30469 l 0,41.83594 c 0,13.59135 11.01803,24.60937 24.60937,24.60937 z m -10.5712,-82.03125 c 0,-1.43997 0.37907,-2.85452 1.09897,-4.10156 l 18.9443,-32.8125 c 1.46533,-2.53804 4.17342,-4.10156 7.10415,-4.10156 l 19.51753,0 c 4.53043,0 8.20313,3.6727 8.20313,8.20312 l 0,32.8125 c 0,4.53043 -3.6727,8.20313 -8.20313,8.20313 l -38.46182,0 c -4.53043,0 -8.20313,-3.6727 -8.20313,-8.20313 z m 61.43058,0 0,-32.8125 c 0,-4.53042 3.6727,-8.20312 8.20312,-8.20312 l 49.21875,0 c 4.53043,0 8.20313,3.6727 8.20313,8.20312 l 0,32.8125 c 0,4.53043 -3.6727,8.20313 -8.20313,8.20313 l -49.21875,0 c -4.53042,0 -8.20312,-3.6727 -8.20312,-8.20313 z m 72.1875,0 0,-32.8125 c 0,-4.53042 3.6727,-8.20312 8.20312,-8.20312 l 49.21875,0 c 4.53043,0 8.20313,3.6727 8.20313,8.20312 l 0,32.8125 c 0,4.53043 -3.6727,8.20313 -8.20313,8.20313 l -49.21875,0 c -4.53042,0 -8.20312,-3.6727 -8.20312,-8.20313 z m 72.1875,0 0,-32.8125 c 0,-4.53042 3.6727,-8.20312 8.20312,-8.20312 l 49.21875,0 c 4.53043,0 8.20313,3.6727 8.20313,8.20312 l 0,32.8125 c 0,4.53043 -3.6727,8.20313 -8.20313,8.20313 l -49.21875,0 c -4.53042,0 -8.20312,-3.6727 -8.20312,-8.20313 z m 72.1875,0 0,-32.8125 c 0,-4.53042 3.6727,-8.20312 8.20312,-8.20312 l 19.51754,0 c 2.93073,0 5.63874,1.56352 7.10415,4.10156 l 18.9443,32.8125 c 0.71998,1.24704 1.09897,2.66159 1.09897,4.10156 0,4.53043 -3.67271,8.20313 -8.20313,8.20313 l -38.46183,0 c -4.53042,0 -8.20312,-3.6727 -8.20312,-8.20313 z"/>
<path style="fill:#000000;" d="m 385.68409,259.76562 0,1.64063 92.69532,0 0,-1.64063 c 0,-8.2484 4.13232,-15.94835 11.00605,-20.50781 l -114.70742,0 c 6.87373,4.55946 11.00605,12.25941 11.00605,20.50781 z"/>
<circle style="fill:#000000;" cx="315.958" cy="262.637" r="21.738"/>
<circle style="fill:#000000;" cx="359.434" cy="262.637" r="21.738"/>
<circle style="fill:#000000;" cx="504.629" cy="262.637" r="21.738"/>
<circle style="fill:#000000;" cx="548.106" cy="262.637" r="21.738"/>
</svg>