<?xml version="1.0" encoding="UTF-8" standalone="no"?>
<!-- Created with Inkscape (http://www.inkscape.org/) -->

<svg
   xmlns:dc="http://purl.org/dc/elements/1.1/"
   xmlns:cc="http://creativecommons.org/ns#"
   xmlns:rdf="http://www.w3.org/1999/02/22-rdf-syntax-ns#"
   xmlns:svg="http://www.w3.org/2000/svg"
   xmlns="http://www.w3.org/2000/svg"
   xmlns:sodipodi="http://sodipodi.sourceforge.net/DTD/sodipodi-0.dtd"
   xmlns:inkscape="http://www.inkscape.org/namespaces/inkscape"
   width="600"
   height="300"
   id="svg2"
   version="1.1"
   inkscape:version="0.48.4 r9939"
   sodipodi:docname="8.5.1.svg">
  <title
     id="title3006">8.9 Ограничение продолжительности стоянки</title>
  <defs
     id="defs4" />
  <sodipodi:namedview
     id="base"
     pagecolor="#ffffff"
     bordercolor="#666666"
     borderopacity="1.0"
     inkscape:pageopacity="0.0"
     inkscape:pageshadow="2"
     inkscape:zoom="1"
     inkscape:cx="-41.64291"
     inkscape:cy="158.65966"
     inkscape:document-units="px"
     inkscape:current-layer="layer1"
     showgrid="false"
     inkscape:window-width="1920"
     inkscape:window-height="1024"
     inkscape:window-x="-4"
     inkscape:window-y="-4"
     inkscape:window-maximized="1"
     inkscape:snap-bbox="true"
     inkscape:bbox-paths="true"
     inkscape:bbox-nodes="true"
     inkscape:snap-bbox-edge-midpoints="true"
     inkscape:snap-bbox-midpoints="true"
     inkscape:object-paths="true"
     inkscape:snap-intersection-paths="true"
     inkscape:object-nodes="true"
     inkscape:snap-smooth-nodes="true"
     inkscape:snap-midpoints="true"
     inkscape:snap-object-midpoints="true"
     showguides="true"
     inkscape:guide-bbox="true" />
  <metadata
     id="metadata7">
    <rdf:RDF>
      <cc:Work
         rdf:about="">
        <dc:format>image/svg+xml</dc:format>
        <dc:type
           rdf:resource="http://purl.org/dc/dcmitype/StillImage" />
        <dc:title>8.9 Ограничение продолжительности стоянки</dc:title>
        <cc:license
           rdf:resource="http://creativecommons.org/licenses/by-sa/3.0/" />
        <dc:description>ГОСТ Р 52290-2004
Размеры и пропорции по типоразмеру I</dc:description>
      </cc:Work>
      <cc:License
         rdf:about="http://creativecommons.org/licenses/by-sa/3.0/">
        <cc:permits
           rdf:resource="http://creativecommons.org/ns#Reproduction" />
        <cc:permits
           rdf:resource="http://creativecommons.org/ns#Distribution" />
        <cc:requires
           rdf:resource="http://creativecommons.org/ns#Notice" />
        <cc:requires
           rdf:resource="http://creativecommons.org/ns#Attribution" />
        <cc:permits
           rdf:resource="http://creativecommons.org/ns#DerivativeWorks" />
        <cc:requires
           rdf:resource="http://creativecommons.org/ns#ShareAlike" />
      </cc:License>
    </rdf:RDF>
  </metadata>
  <g
     inkscape:label="Layer 1"
     inkscape:groupmode="layer"
     id="layer1"
     transform="translate(0,-752.36218)">
    <rect
       y="752.36218"
       x="0"
       height="300"
       width="600"
       id="rect5622"
       style="opacity:1;color:#000000;fill:#000000;fill-opacity:1;fill-rule:nonzero;stroke:none;stroke-width:3.54299997999999980;marker:none;visibility:visible;display:inline;overflow:visible;enable-background:accumulate"
       rx="45"
       ry="45" />
    <rect
       y="762.36212"
       x="10"
       height="280"
       width="580"
       id="rect9537"
       style="color:#000000;fill:#ffffff;fill-opacity:1;fill-rule:nonzero;stroke:none;stroke-width:3.54299997999999980;marker:none;visibility:visible;display:inline;overflow:visible;enable-background:accumulate;opacity:1"
       rx="35"
       ry="35" />
    <g
       style="font-size:224.42985535px;font-style:normal;font-variant:normal;font-weight:normal;font-stretch:normal;line-height:125%;letter-spacing:-9.37499905px;word-spacing:0px;fill:#000000;fill-opacity:1;stroke:none;font-family:Arial;-inkscape-font-specification:Arial"
       id="text17318">
      <path
         d="m 86.449873,836.95575 8.303798,18.62744 c 4.301492,-3.78711 8.490789,-6.53633 12.567909,-8.2477 4.07705,-1.71114 9.16406,-2.55274 15.26103,-2.5248 4.09107,0.0983 7.69124,1.47291 10.80055,4.12385 3.10918,2.65114 4.74563,5.98949 4.90934,10.01505 -0.19643,4.90943 -2.94566,9.62239 -8.24769,14.1389 -5.30214,4.51667 -11.97884,7.65865 -20.03011,9.42593 l 0,17.28088 c 1.59433,-0.75271 3.34299,-1.21092 5.24598,-1.37462 1.90291,-0.16358 3.81989,-0.22904 5.75095,-0.19637 9.8607,0.43021 16.11659,2.8241 18.7677,7.18166 2.65097,4.35767 3.80116,8.09812 3.45057,11.22135 -0.33672,7.25183 -3.08595,12.55391 -8.2477,15.90626 -5.16187,3.3524 -11.38971,5.00755 -18.68354,4.96545 -5.35823,0.0328 -10.9689,-0.48156 -16.832023,-1.54293 -5.863174,-1.06133 -10.800562,-2.8661 -14.81218,-5.41431 l 2.693124,21.99385 c 0.551699,0.22443 4.329548,1.12213 11.333558,2.69312 7.003961,1.57099 13.923781,2.46869 20.759501,2.69312 14.98511,-0.52366 26.42152,-4.97479 34.30927,-13.3534 7.88758,-8.37859 11.8618,-17.54268 11.92268,-27.4923 -0.23144,-6.78818 -2.2873,-12.41271 -6.16758,-16.87359 -3.88046,-4.46078 -8.19721,-7.87428 -12.95027,-10.24052 -4.75321,-2.36611 -8.55461,-3.80133 -11.40422,-4.30567 6.54572,-0.91634 12.30601,-4.18923 17.28088,-9.81868 4.97471,-5.62929 7.59302,-12.82965 7.85494,-21.60109 -0.42088,-8.74787 -4.06782,-15.65835 -10.94081,-20.73145 -6.87315,-5.07286 -14.44755,-7.66312 -22.72323,-7.77078 -6.68143,0.17313 -13.96594,1.45423 -21.85358,3.84332 -7.887695,2.38933 -13.993972,4.84867 -18.318847,7.37803 z"
         style="fill:#000000;font-family:Russian Road Sign;-inkscape-font-specification:Russian Road Sign"
         id="path17392" />
      <path
         d="m 229.07646,827.52982 c -12.76433,0.32741 -22.97575,6.34953 -30.63428,18.06636 -7.65859,11.71706 -11.58606,27.1651 -11.78241,46.34418 0.19635,19.17919 4.12382,34.62723 11.78241,46.34416 7.65853,11.71696 17.86995,17.73908 30.63428,18.06638 12.76421,-0.32729 22.97563,-6.34941 30.63428,-18.06638 7.65848,-11.71693 11.58594,-27.16497 11.78242,-46.34416 -0.19648,-18.2954 -4.12394,-33.49096 -11.78242,-45.58673 -7.65865,-12.09556 -17.87007,-18.37016 -30.63428,-18.82381 z m 0,19.52514 c 6.15298,-0.0934 11.07166,3.46002 14.75607,10.66028 3.68427,7.20045 5.5732,18.60881 5.66679,34.22512 -0.0936,15.61642 -1.98252,27.02478 -5.66679,34.22511 -3.68441,7.20038 -8.60309,10.7538 -14.75607,10.66028 -6.15309,0.0935 -11.07178,-3.4599 -14.75607,-10.66028 -3.68438,-7.20033 -5.57331,-18.60869 -5.66678,-34.22511 0.0935,-15.6163 1.9824,-27.02466 5.66678,-34.22512 3.6843,-7.20026 8.60298,-10.75368 14.75607,-10.66028 z"
         style="fill:#000000;font-family:Russian Road Sign;-inkscape-font-specification:Russian Road Sign"
         id="path17394" />
    </g>
    <g
       style="font-size:157.78901672px;font-style:normal;font-variant:normal;font-weight:normal;font-stretch:normal;line-height:125%;letter-spacing:-6.59124327px;word-spacing:0px;fill:#000000;fill-opacity:1;stroke:none;font-family:Arial;-inkscape-font-specification:Arial"
       id="text17326">
      <path
         d="m 312.18747,954.83966 13.25411,0 3.31352,-43.07585 17.67215,35.34429 17.67214,-35.34429 3.31353,43.07585 13.2541,0 -5.52254,-61.8525 -13.25411,0 -15.46312,30.92625 -15.46313,-30.92625 -13.25411,0 z"
         style="fill:#000000;font-family:Russian Road Sign;-inkscape-font-specification:Russian Road Sign"
         id="path17397" />
      <path
         d="m 399.46342,892.98716 0,61.8525 14.35861,0.0225 25.40371,-41.99384 0,41.97134 13.25411,0 0,-61.8525 -14.35862,0 -25.4037,41.97134 0,-41.97134 z"
         style="fill:#000000;font-family:Russian Road Sign;-inkscape-font-specification:Russian Road Sign"
         id="path17399" />
      <path
         d="m 473.48755,892.98716 0,61.8525 13.25411,0 0,-26.50821 23.19469,0 0,26.50821 13.2541,0 0,-61.8525 -13.2541,0 0,23.19469 -23.19469,0 0,-23.19469 z"
         style="fill:#000000;font-family:Russian Road Sign;-inkscape-font-specification:Russian Road Sign"
         id="path17401" />
    </g>
  </g>
</svg>
