<?xml version="1.0" encoding="UTF-8" standalone="no"?>
<!-- Created with Inkscape (http://www.inkscape.org/) -->

<svg
   xmlns:dc="http://purl.org/dc/elements/1.1/"
   xmlns:cc="http://creativecommons.org/ns#"
   xmlns:rdf="http://www.w3.org/1999/02/22-rdf-syntax-ns#"
   xmlns:svg="http://www.w3.org/2000/svg"
   xmlns="http://www.w3.org/2000/svg"
   xmlns:sodipodi="http://sodipodi.sourceforge.net/DTD/sodipodi-0.dtd"
   xmlns:inkscape="http://www.inkscape.org/namespaces/inkscape"
   width="600"
   height="300"
   id="svg2"
   version="1.1"
   inkscape:version="0.48.4 r9939"
   sodipodi:docname="8.18.svg">
  <title
     id="title3006">8.15 Слепые пешеходы</title>
  <defs
     id="defs4" />
  <sodipodi:namedview
     id="base"
     pagecolor="#ffffff"
     bordercolor="#666666"
     borderopacity="1.0"
     inkscape:pageopacity="0.0"
     inkscape:pageshadow="2"
     inkscape:zoom="1.4142136"
     inkscape:cx="317.79061"
     inkscape:cy="171.62714"
     inkscape:document-units="px"
     inkscape:current-layer="layer1"
     showgrid="false"
     inkscape:window-width="1920"
     inkscape:window-height="1024"
     inkscape:window-x="-4"
     inkscape:window-y="-4"
     inkscape:window-maximized="1"
     inkscape:snap-bbox="true"
     inkscape:bbox-paths="true"
     inkscape:bbox-nodes="true"
     inkscape:snap-bbox-edge-midpoints="true"
     inkscape:snap-bbox-midpoints="true"
     inkscape:object-paths="true"
     inkscape:snap-intersection-paths="true"
     inkscape:object-nodes="true"
     inkscape:snap-smooth-nodes="true"
     inkscape:snap-midpoints="true"
     inkscape:snap-object-midpoints="true"
     showguides="true"
     inkscape:guide-bbox="true" />
  <metadata
     id="metadata7">
    <rdf:RDF>
      <cc:Work
         rdf:about="">
        <dc:format>image/svg+xml</dc:format>
        <dc:type
           rdf:resource="http://purl.org/dc/dcmitype/StillImage" />
        <dc:title>8.15 Слепые пешеходы</dc:title>
        <cc:license
           rdf:resource="http://creativecommons.org/licenses/by-sa/3.0/" />
        <dc:description>ГОСТ Р 52290-2004
Размеры и пропорции по типоразмеру I</dc:description>
      </cc:Work>
      <cc:License
         rdf:about="http://creativecommons.org/licenses/by-sa/3.0/">
        <cc:permits
           rdf:resource="http://creativecommons.org/ns#Reproduction" />
        <cc:permits
           rdf:resource="http://creativecommons.org/ns#Distribution" />
        <cc:requires
           rdf:resource="http://creativecommons.org/ns#Notice" />
        <cc:requires
           rdf:resource="http://creativecommons.org/ns#Attribution" />
        <cc:permits
           rdf:resource="http://creativecommons.org/ns#DerivativeWorks" />
        <cc:requires
           rdf:resource="http://creativecommons.org/ns#ShareAlike" />
      </cc:License>
    </rdf:RDF>
  </metadata>
  <g
     inkscape:label="Layer 1"
     inkscape:groupmode="layer"
     id="layer1"
     transform="translate(0,-752.36218)">
    <rect
       y="752.36218"
       x="0"
       height="300"
       width="600"
       id="rect5622"
       style="opacity:1;color:#000000;fill:#000000;fill-opacity:1;fill-rule:nonzero;stroke:none;stroke-width:3.54299997999999980;marker:none;visibility:visible;display:inline;overflow:visible;enable-background:accumulate"
       rx="45"
       ry="45" />
    <rect
       y="762.36212"
       x="10"
       height="280"
       width="580"
       id="rect9537"
       style="color:#000000;fill:#ffffff;fill-opacity:1;fill-rule:nonzero;stroke:none;stroke-width:3.54299997999999980;marker:none;visibility:visible;display:inline;overflow:visible;enable-background:accumulate;opacity:1"
       rx="35"
       ry="35" />
    <path
       inkscape:connector-curvature="0"
       style="opacity:1;color:#000000;fill:#000000;fill-opacity:1;fill-rule:nonzero;stroke:none;stroke-width:1px;marker:none;visibility:visible;display:inline;overflow:visible;enable-background:accumulate"
       d="m 184.98047,822.82115 c -4.31869,0 -8.62878,1.62682 -11.92383,4.92187 l -39.52148,39.52149 c -20.04265,5.78484 -35.816722,21.55891 -41.601566,41.60151 l -10.371094,10.3711 0,20.625 9.609375,0 c 6.350719,26.8721 30.484325,46.875 59.296875,46.875 33.65485,0 60.9375,-27.2826 60.9375,-60.9375 0,-0.9534 -0.0445,-1.899 -0.0878,-2.8417 27.34093,-8.8769 56.76503,-8.8315 84.08203,0.1464 -0.039,0.8948 -0.0879,1.791 -0.0879,2.6953 0,33.6549 27.28265,60.9375 60.9375,60.9375 28.81256,0 52.94616,-20.0029 59.29688,-46.875 l 12.42187,0 0,-20.625 86.83594,-86.8359 c 4.02729,-4.08631 10.56256,-4.2035 14.58984,-0.11718 1.93397,1.96232 3.01758,4.63697 3.01758,7.41211 l 0,14.0625 6.5625,0 0,-14.0625 c 0,-4.47554 -1.7865,-8.78846 -4.95117,-11.95313 -3.29505,-3.29505 -7.60514,-4.92187 -11.92383,-4.92187 -4.31868,0 -8.62878,1.62682 -11.92383,4.92187 l -91.49423,91.4941 -1.8457,0 c -3.26919,-30.57274 -29.14528,-54.37496 -60.58594,-54.37496 -30.94529,0 -56.4954,23.06224 -60.41016,52.93946 -13.8905,-4.4253 -28.30802,-6.6211 -42.71484,-6.6211 -14.25439,0 -28.52095,2.1428 -42.27539,6.4746 -3.97952,-29.80547 -29.48659,-52.79296 -60.38086,-52.79296 -1.85529,0 -3.69474,0.10135 -5.50781,0.26367 l 32.72457,-32.72461 c 4.02728,-4.08631 10.56256,-4.2035 14.58984,-0.11718 1.93397,1.96232 3.01758,4.63697 3.01758,7.41211 l 0,14.0625 6.5625,0 0,-14.0625 c 0,-4.47554 -1.7865,-8.78846 -4.95117,-11.95313 -3.29505,-3.29505 -7.60514,-4.92187 -11.92383,-4.92187 z m -34.51172,49.54101 c 29.51272,0 53.4375,23.92479 53.4375,53.43746 0,29.5128 -23.92478,53.4375 -53.4375,53.4375 -29.51272,0 -53.4375,-23.9247 -53.4375,-53.4375 0,-29.51267 23.92478,-53.43746 53.4375,-53.43746 z m 205.78125,0 c 29.51272,0 53.4375,23.92479 53.4375,53.43746 0,29.5128 -23.92478,53.4375 -53.4375,53.4375 -29.51272,0 -53.4375,-23.9247 -53.4375,-53.4375 0,-29.51267 23.92478,-53.43746 53.4375,-53.43746 z"
       id="path11762" />
    <path
       sodipodi:type="arc"
       style="opacity:1;color:#000000;fill:#000000;fill-opacity:1;fill-rule:nonzero;stroke:none;stroke-width:1px;marker:none;visibility:visible;display:inline;overflow:visible;enable-background:accumulate"
       id="path11758"
       sodipodi:cx="-87.720657"
       sodipodi:cy="432.25998"
       sodipodi:rx="22.107042"
       sodipodi:ry="29.465372"
       d="m -65.613615,432.25998 a 22.107042,29.465372 0 1 1 -44.214085,0 22.107042,29.465372 0 1 1 44.214085,0 z"
       transform="matrix(2.2051796,0,0,1.6544844,343.90855,210.63222)" />
    <path
       transform="matrix(2.2051796,0,0,1.6544844,549.6898,210.63222)"
       d="m -65.613615,432.25998 a 22.107042,29.465372 0 1 1 -44.214085,0 22.107042,29.465372 0 1 1 44.214085,0 z"
       sodipodi:ry="29.465372"
       sodipodi:rx="22.107042"
       sodipodi:cy="432.25998"
       sodipodi:cx="-87.720657"
       id="path11772"
       style="opacity:1;color:#000000;fill:#000000;fill-opacity:1;fill-rule:nonzero;stroke:none;stroke-width:1px;marker:none;visibility:visible;display:inline;overflow:visible;enable-background:accumulate"
       sodipodi:type="arc" />
  </g>
</svg>
