<?xml version="1.0" encoding="UTF-8" standalone="no"?>
<!-- Created with Inkscape (http://www.inkscape.org/) -->

<svg
   xmlns:dc="http://purl.org/dc/elements/1.1/"
   xmlns:cc="http://creativecommons.org/ns#"
   xmlns:rdf="http://www.w3.org/1999/02/22-rdf-syntax-ns#"
   xmlns:svg="http://www.w3.org/2000/svg"
   xmlns="http://www.w3.org/2000/svg"
   xmlns:sodipodi="http://sodipodi.sourceforge.net/DTD/sodipodi-0.dtd"
   xmlns:inkscape="http://www.inkscape.org/namespaces/inkscape"
   width="600"
   height="300"
   id="svg2"
   version="1.1"
   inkscape:version="0.48.4 r9939"
   sodipodi:docname="8.5.4.svg">
  <title
     id="title3006">8.5.5 Время действия</title>
  <defs
     id="defs4" />
  <sodipodi:namedview
     id="base"
     pagecolor="#ffffff"
     bordercolor="#666666"
     borderopacity="1.0"
     inkscape:pageopacity="0.0"
     inkscape:pageshadow="2"
     inkscape:zoom="1"
     inkscape:cx="219.97711"
     inkscape:cy="163.05071"
     inkscape:document-units="px"
     inkscape:current-layer="layer1"
     showgrid="false"
     inkscape:window-width="1920"
     inkscape:window-height="1024"
     inkscape:window-x="-4"
     inkscape:window-y="-4"
     inkscape:window-maximized="1"
     inkscape:snap-bbox="true"
     inkscape:bbox-paths="true"
     inkscape:bbox-nodes="true"
     inkscape:snap-bbox-edge-midpoints="true"
     inkscape:snap-bbox-midpoints="true"
     inkscape:object-paths="true"
     inkscape:snap-intersection-paths="true"
     inkscape:object-nodes="true"
     inkscape:snap-smooth-nodes="true"
     inkscape:snap-midpoints="true"
     inkscape:snap-object-midpoints="true"
     showguides="true"
     inkscape:guide-bbox="true" />
  <metadata
     id="metadata7">
    <rdf:RDF>
      <cc:Work
         rdf:about="">
        <dc:format>image/svg+xml</dc:format>
        <dc:type
           rdf:resource="http://purl.org/dc/dcmitype/StillImage" />
        <dc:title>8.5.5 Время действия</dc:title>
        <cc:license
           rdf:resource="http://creativecommons.org/licenses/by-sa/3.0/" />
        <dc:description>ГОСТ Р 52290-2004
Размеры и пропорции по типоразмеру I</dc:description>
      </cc:Work>
      <cc:License
         rdf:about="http://creativecommons.org/licenses/by-sa/3.0/">
        <cc:permits
           rdf:resource="http://creativecommons.org/ns#Reproduction" />
        <cc:permits
           rdf:resource="http://creativecommons.org/ns#Distribution" />
        <cc:requires
           rdf:resource="http://creativecommons.org/ns#Notice" />
        <cc:requires
           rdf:resource="http://creativecommons.org/ns#Attribution" />
        <cc:permits
           rdf:resource="http://creativecommons.org/ns#DerivativeWorks" />
        <cc:requires
           rdf:resource="http://creativecommons.org/ns#ShareAlike" />
      </cc:License>
    </rdf:RDF>
  </metadata>
  <g
     inkscape:label="Layer 1"
     inkscape:groupmode="layer"
     id="layer1"
     transform="translate(0,-752.36218)">
    <rect
       y="752.36218"
       x="0"
       height="300"
       width="600"
       id="rect5622"
       style="opacity:1;color:#000000;fill:#000000;fill-opacity:1;fill-rule:nonzero;stroke:none;stroke-width:3.54299997999999980;marker:none;visibility:visible;display:inline;overflow:visible;enable-background:accumulate"
       rx="45"
       ry="45" />
    <rect
       y="762.36212"
       x="10"
       height="280"
       width="580"
       id="rect9537"
       style="color:#000000;fill:#ffffff;fill-opacity:1;fill-rule:nonzero;stroke:none;stroke-width:3.54299997999999980;marker:none;visibility:visible;display:inline;overflow:visible;enable-background:accumulate;opacity:1"
       rx="35"
       ry="35" />
    <g
       style="font-size:160.71636963px;font-style:normal;font-variant:normal;font-weight:normal;font-stretch:normal;line-height:125%;letter-spacing:-6.20625019px;word-spacing:0px;fill:#000000;fill-opacity:1;stroke:none;font-family:Arial;-inkscape-font-specification:Arial"
       id="text7949-3">
      <path
         d="m 330.47217,945.75473 5.30357,6.91071 12.05358,-7.55357 0,69.75003 15.75,0 0,-90.00003 -13.5,0 z"
         style="fill:#000000;font-family:Russian Road Sign;-inkscape-font-specification:Russian Road Sign"
         id="path13811" />
      <path
         d="m 382.16643,939.48687 41.625,0 c -6.39848,10.26569 -12.44535,21.79693 -18.14063,34.59375 -5.69533,12.79691 -9.77346,26.01568 -12.23437,39.65628 l 16.875,0 c 3.46871,-16.10157 7.7812,-30.30468 12.9375,-42.6094 5.1562,-12.30464 10.59369,-23.9765 16.3125,-35.01563 l 0,-11.25 -54,0 z"
         style="fill:#000000;font-family:Russian Road Sign;-inkscape-font-specification:Russian Road Sign"
         id="path13813" />
      <path
         d="m 443.24181,1005.8619 c -0.0703,-2.7761 -1.02777,-5.0864 -2.87245,-6.93114 -1.84473,-1.8447 -4.1551,-2.80218 -6.93113,-2.87246 -2.77605,0.0703 -5.08642,1.02777 -6.93112,2.87246 -1.84472,1.84474 -2.8022,4.15504 -2.87245,6.93114 0.0703,2.776 1.02774,5.0864 2.87245,6.9311 1.8447,1.8447 4.15507,2.8022 6.93112,2.8724 2.77603,-0.07 5.0864,-1.0277 6.93113,-2.8724 1.84467,-1.8447 2.80216,-4.1551 2.87245,-6.9311 z"
         style="fill:#000000;font-family:Russian Road Sign;-inkscape-font-specification:Russian Road Sign"
         id="path13815" />
    </g>
    <g
       style="font-size:160.71636963px;font-style:normal;font-variant:normal;font-weight:normal;font-stretch:normal;line-height:125%;letter-spacing:-6.20625019px;word-spacing:0px;fill:#000000;fill-opacity:1;stroke:none;font-family:Arial;-inkscape-font-specification:Arial"
       id="text13457">
      <path
         d="m 76.009685,923.73687 c -7.570349,9e-5 -14.08597,1.96884 -19.54688,5.90625 -5.460952,3.93758 -8.320323,9.84383 -8.578122,17.71875 0.194434,5.2084 1.555544,9.29173 4.083335,12.25 2.527758,2.95839 5.055532,5.04172 7.583331,6.25 2.52775,1.20838 3.888861,1.79171 4.083335,1.75 -0.222252,-0.0138 -1.777807,0.76394 -4.66667,2.33333 -2.888911,1.56949 -5.777797,4.01393 -8.666668,7.33334 -2.8889,3.31948 -4.444453,7.59725 -4.666663,12.83334 -0.140633,6.00001 2.109365,11.71872 6.75,17.15622 4.640602,5.4375 12.515595,8.3438 23.625002,8.7188 11.109327,-0.375 18.98432,-3.2813 23.625003,-8.7188 4.640552,-5.4375 6.890552,-11.15621 6.750002,-17.15622 -0.2223,-5.23609 -1.77785,-9.51386 -4.66667,-12.83334 -2.888956,-3.3194 -5.777842,-5.76385 -8.66667,-7.33334 -2.888943,-1.56939 -4.444496,-2.34717 -4.666663,-2.33333 0.194393,0.0417 1.555504,-0.54162 4.083335,-1.75 2.527717,-1.20828 5.055492,-3.29161 7.583328,-6.25 2.52771,-2.95827 3.88882,-7.0416 4.08334,-12.25 -0.25788,-7.87493 -3.11725,-13.78117 -8.578129,-17.71876 -5.460994,-3.93741 -11.976613,-5.90615 -19.546876,-5.90624 z m 0,12.85714 c 3.468704,-0.0434 6.374951,0.76682 8.718749,2.43081 2.343699,1.66413 3.562449,4.44315 3.656253,8.33705 -0.515679,3.51569 -2.578178,6.60944 -6.187503,9.28125 -3.609419,2.67193 -5.671917,4.07818 -6.187499,4.21875 -0.515666,-0.14057 -2.578165,-1.54682 -6.187503,-4.21875 -3.609406,-2.67182 -5.671903,-5.76556 -6.187498,-9.28125 0.09372,-3.8939 1.312473,-6.67292 3.656253,-8.33705 2.343717,-1.66399 5.249963,-2.47426 8.718748,-2.43081 z m 0,37.76786 c 0.180516,0.0417 1.444404,0.83338 3.791668,2.37501 2.347175,1.5417 4.694395,3.58336 7.041666,6.125 2.347168,2.54169 3.611056,5.33335 3.791668,8.375 -0.187554,3.91408 -1.781302,6.77345 -4.781251,8.57812 -3.000049,1.8047 -6.281296,2.6953 -9.843751,2.6719 -3.562538,0.023 -6.843787,-0.8672 -9.843755,-2.6719 -3.00003,-1.80467 -4.593777,-4.66404 -4.781246,-8.57812 0.180531,-2.68748 1.444419,-5.31248 3.791668,-7.87501 2.34719,-2.56246 4.694409,-4.68746 7.041666,-6.375 2.347183,-1.68746 3.611071,-2.56246 3.791667,-2.625 z"
         style="fill:#000000;font-family:Russian Road Sign;-inkscape-font-specification:Russian Road Sign"
         id="path13801" />
      <path
         d="m 132.04611,1005.8619 c -0.0703,-2.7761 -1.02777,-5.0864 -2.87245,-6.93114 -1.84473,-1.8447 -4.1551,-2.80218 -6.93112,-2.87246 -2.77605,0.0703 -5.08643,1.02777 -6.93112,2.87246 -1.84472,1.84474 -2.8022,4.15504 -2.87245,6.93114 0.0703,2.776 1.02773,5.0864 2.87245,6.9311 1.84469,1.8447 4.15507,2.8022 6.93112,2.8724 2.77602,-0.07 5.08639,-1.0277 6.93112,-2.8724 1.84468,-1.8447 2.80216,-4.1551 2.87245,-6.9311 z"
         style="fill:#000000;font-family:Russian Road Sign;-inkscape-font-specification:Russian Road Sign"
         id="path13803" />
    </g>
    <rect
       y="-984.60785"
       x="-325.50009"
       height="14.625005"
       width="60.375"
       id="rect13465"
       style="color:#000000;fill:#000000;fill-opacity:1;fill-rule:nonzero;stroke:none;stroke-width:3.54299997999999980;marker:none;visibility:visible;display:inline;overflow:visible;enable-background:accumulate;opacity:1"
       transform="scale(-1,-1)" />
    <g
       style="font-size:127.39711761px;font-style:normal;font-variant:normal;font-weight:normal;font-stretch:normal;line-height:125%;letter-spacing:-5.765625px;word-spacing:0px;fill:#000000;fill-opacity:1;stroke:none;font-family:Arial;-inkscape-font-specification:Arial"
       id="text13500">
      <path
         d="m 167.86071,942.86198 c -7.24564,0.18586 -13.04213,3.6043 -17.38948,10.25533 -4.34739,6.65116 -6.5768,15.42021 -6.68827,26.30717 0.11147,10.88703 2.34088,19.65608 6.68827,26.30712 4.34735,6.6512 10.14384,10.0696 17.38948,10.2554 7.24558,-0.1858 13.04206,-3.6042 17.38948,-10.2554 4.34732,-6.65105 6.57674,-15.42009 6.68827,-26.30712 -0.11153,-10.38534 -2.34095,-19.01107 -6.68827,-25.87721 -4.34742,-6.86601 -10.1439,-10.42778 -17.38948,-10.68529 z m 0,11.08341 c 3.49272,-0.053 6.2848,1.96407 8.37625,6.05128 2.09137,4.08732 3.16361,10.56325 3.21674,19.42781 -0.0531,8.86463 -1.12537,15.34056 -3.21674,19.42781 -2.09145,4.08731 -4.88353,6.10441 -8.37625,6.05131 -3.49279,0.053 -6.28487,-1.964 -8.37625,-6.05131 -2.09143,-4.08725 -3.16368,-10.56318 -3.21674,-19.42781 0.0531,-8.86456 1.12531,-15.34049 3.21674,-19.42781 2.09138,-4.08721 4.88346,-6.10431 8.37625,-6.05128 z"
         style="fill:#000000;font-family:Russian Road Sign;-inkscape-font-specification:Russian Road Sign"
         id="path13806" />
      <path
         d="m 226.29129,942.86198 c -7.24564,0.18586 -13.04213,3.6043 -17.38948,10.25533 -4.34739,6.65116 -6.5768,15.42021 -6.68827,26.30717 0.11147,10.88703 2.34088,19.65608 6.68827,26.30712 4.34735,6.6512 10.14384,10.0696 17.38948,10.2554 7.24558,-0.1858 13.04206,-3.6042 17.38948,-10.2554 4.34732,-6.65105 6.57674,-15.42009 6.68827,-26.30712 -0.11153,-10.38534 -2.34095,-19.01107 -6.68827,-25.87721 -4.34742,-6.86601 -10.1439,-10.42778 -17.38948,-10.68529 z m 0,11.08341 c 3.49272,-0.053 6.2848,1.96407 8.37625,6.05128 2.09137,4.08732 3.16361,10.56325 3.21674,19.42781 -0.0531,8.86463 -1.12537,15.34056 -3.21674,19.42781 -2.09145,4.08731 -4.88353,6.10441 -8.37625,6.05131 -3.49279,0.053 -6.28487,-1.964 -8.37625,-6.05131 -2.09143,-4.08725 -3.16368,-10.56318 -3.21674,-19.42781 0.0531,-8.86456 1.12531,-15.34049 3.21674,-19.42781 2.09138,-4.08721 4.88346,-6.10431 8.37625,-6.05128 z"
         style="fill:#000000;font-family:Russian Road Sign;-inkscape-font-specification:Russian Road Sign"
         id="path13808" />
    </g>
    <g
       style="font-size:127.39711761px;font-style:normal;font-variant:normal;font-weight:normal;font-stretch:normal;line-height:125%;letter-spacing:-7.6875px;word-spacing:0px;fill:#000000;fill-opacity:1;stroke:none;font-family:Arial;-inkscape-font-specification:Arial"
       id="text13504">
      <path
         d="m 455.61942,948.6814 4.71363,10.57382 c 2.44174,-2.14974 4.81978,-3.71033 7.13415,-4.68178 2.31433,-0.97133 5.20196,-1.44906 8.66289,-1.4332 2.32228,0.0558 4.36592,0.8361 6.13091,2.34089 1.76492,1.50492 2.69385,3.39993 2.78678,5.68503 -0.11151,2.78682 -1.6721,5.46213 -4.68179,8.02591 -3.00975,2.56388 -6.79976,4.34742 -11.37004,5.35061 l 0,9.80945 c 0.90501,-0.42727 1.89763,-0.68737 2.97786,-0.78029 1.08019,-0.0929 2.16836,-0.13002 3.26451,-0.11147 5.59741,0.2442 9.14855,1.60309 10.65345,4.07665 1.50482,2.47362 2.15772,4.59688 1.95871,6.36977 -0.19114,4.11649 -1.75173,7.12621 -4.68179,9.02911 -2.93012,1.903 -6.46535,2.8426 -10.60567,2.8187 -3.04159,0.019 -6.22647,-0.2734 -9.55466,-0.8759 -3.32822,-0.6024 -6.13092,-1.6269 -8.4081,-3.0734 l 1.52874,12.4848 c 0.31317,0.1274 2.45766,0.6369 6.43347,1.5287 3.97578,0.8918 7.90381,1.4014 11.78409,1.5288 8.50626,-0.2973 14.99812,-2.824 19.47558,-7.5801 4.47737,-4.7561 6.73333,-9.95803 6.76788,-15.60591 -0.13137,-3.8533 -1.29838,-7.04605 -3.50101,-9.57826 -2.20273,-2.53215 -4.65313,-4.46982 -7.35119,-5.81301 -2.69815,-1.34312 -4.85601,-2.15782 -6.47358,-2.4441 3.71566,-0.52016 6.98548,-2.37801 9.80945,-5.57356 2.82388,-3.19545 4.31016,-7.28272 4.45884,-12.26181 -0.23891,-4.96571 -2.30909,-8.88842 -6.21053,-11.76816 -3.90152,-2.8796 -8.20112,-4.34995 -12.89879,-4.41106 -3.7927,0.0983 -7.92774,0.82549 -12.40513,2.18164 -4.47744,1.35631 -7.94365,2.75235 -10.39866,4.18813 z"
         style="fill:#000000;font-family:Russian Road Sign;-inkscape-font-specification:Russian Road Sign"
         id="path13818" />
      <path
         d="m 534.21529,943.33079 c -7.24564,0.18586 -13.04213,3.6043 -17.38948,10.25533 -4.34739,6.65116 -6.5768,15.42021 -6.68827,26.30717 0.11147,10.88703 2.34088,19.65608 6.68827,26.30721 4.34735,6.6511 10.14384,10.0695 17.38948,10.2553 7.24558,-0.1858 13.04206,-3.6042 17.38948,-10.2553 4.34732,-6.65114 6.57674,-15.42018 6.68827,-26.30721 -0.11153,-10.38534 -2.34095,-19.01106 -6.68827,-25.87721 -4.34742,-6.86601 -10.1439,-10.42777 -17.38948,-10.68529 z m 0,11.08341 c 3.49272,-0.053 6.2848,1.96407 8.37625,6.05128 2.09137,4.08732 3.16361,10.56325 3.21674,19.42781 -0.0531,8.86463 -1.12537,15.34056 -3.21674,19.42781 -2.09145,4.0873 -4.88353,6.1044 -8.37625,6.0513 -3.49279,0.053 -6.28487,-1.964 -8.37625,-6.0513 -2.09143,-4.08725 -3.16368,-10.56318 -3.21674,-19.42781 0.0531,-8.86456 1.12531,-15.34049 3.21674,-19.42781 2.09138,-4.08721 4.88346,-6.10431 8.37625,-6.05128 z"
         style="fill:#000000;font-family:Russian Road Sign;-inkscape-font-specification:Russian Road Sign"
         id="path13820" />
    </g>
    <path
       inkscape:connector-curvature="0"
       style="opacity:1;color:#000000;fill:#ff0000;fill-opacity:1;fill-rule:nonzero;stroke:none;stroke-width:1px;marker:none;visibility:visible;display:inline;overflow:visible;enable-background:accumulate"
       d="m 300,799.23717 c -5.04128,0 -9.92618,0.67506 -14.57519,1.91894 l 6.37207,40.12204 -31.55273,-25.57614 c -6.88988,6.88489 -12.00048,15.54639 -14.58983,25.23924 l 37.93944,14.54589 -37.93944,14.5459 c 2.58781,9.69439 7.70106,18.35418 14.58983,25.23923 l 31.55273,-25.57613 -6.37207,40.13673 c 4.64761,1.24325 9.53518,1.9043 14.57519,1.9043 5.04128,0 9.92618,-0.67505 14.57519,-1.91895 l -6.37207,-40.12208 31.55272,25.57613 c 6.88989,-6.88484 12.0005,-15.54634 14.58984,-25.23923 l -37.93944,-14.5459 37.93944,-14.54589 c -2.58934,-9.69285 -7.69995,-18.35435 -14.58984,-25.23924 l -31.55272,25.57614 6.37207,-40.12204 C 309.92618,799.91223 305.04128,799.23717 300,799.23717 z"
       id="path14544" />
  </g>
</svg>
