<?xml version="1.0" encoding="UTF-8" standalone="no"?>
<!-- Created with Inkscape (http://www.inkscape.org/) -->

<svg
   xmlns:dc="http://purl.org/dc/elements/1.1/"
   xmlns:cc="http://creativecommons.org/ns#"
   xmlns:rdf="http://www.w3.org/1999/02/22-rdf-syntax-ns#"
   xmlns:svg="http://www.w3.org/2000/svg"
   xmlns="http://www.w3.org/2000/svg"
   xmlns:sodipodi="http://sodipodi.sourceforge.net/DTD/sodipodi-0.dtd"
   xmlns:inkscape="http://www.inkscape.org/namespaces/inkscape"
   width="600"
   height="300"
   id="svg2"
   version="1.1"
   inkscape:version="0.48.4 r9939"
   sodipodi:docname="8.4.5.svg">
  <title
     id="title3006">8.10 Место для осмотра автомобилей</title>
  <defs
     id="defs4" />
  <sodipodi:namedview
     id="base"
     pagecolor="#ffffff"
     bordercolor="#666666"
     borderopacity="1.0"
     inkscape:pageopacity="0.0"
     inkscape:pageshadow="2"
     inkscape:zoom="1"
     inkscape:cx="195.64654"
     inkscape:cy="119.62161"
     inkscape:document-units="px"
     inkscape:current-layer="layer1"
     showgrid="false"
     inkscape:window-width="1920"
     inkscape:window-height="1024"
     inkscape:window-x="-4"
     inkscape:window-y="-4"
     inkscape:window-maximized="1"
     inkscape:snap-bbox="true"
     inkscape:bbox-paths="true"
     inkscape:bbox-nodes="true"
     inkscape:snap-bbox-edge-midpoints="true"
     inkscape:snap-bbox-midpoints="true"
     inkscape:object-paths="true"
     inkscape:snap-intersection-paths="true"
     inkscape:object-nodes="true"
     inkscape:snap-smooth-nodes="true"
     inkscape:snap-midpoints="true"
     inkscape:snap-object-midpoints="true" />
  <metadata
     id="metadata7">
    <rdf:RDF>
      <cc:Work
         rdf:about="">
        <dc:format>image/svg+xml</dc:format>
        <dc:type
           rdf:resource="http://purl.org/dc/dcmitype/StillImage" />
        <dc:title>8.10 Место для осмотра автомобилей</dc:title>
        <cc:license
           rdf:resource="http://creativecommons.org/licenses/by-sa/3.0/" />
        <dc:description>ГОСТ Р 52290-2004
Размеры и пропорции по типоразмеру I</dc:description>
      </cc:Work>
      <cc:License
         rdf:about="http://creativecommons.org/licenses/by-sa/3.0/">
        <cc:permits
           rdf:resource="http://creativecommons.org/ns#Reproduction" />
        <cc:permits
           rdf:resource="http://creativecommons.org/ns#Distribution" />
        <cc:requires
           rdf:resource="http://creativecommons.org/ns#Notice" />
        <cc:requires
           rdf:resource="http://creativecommons.org/ns#Attribution" />
        <cc:permits
           rdf:resource="http://creativecommons.org/ns#DerivativeWorks" />
        <cc:requires
           rdf:resource="http://creativecommons.org/ns#ShareAlike" />
      </cc:License>
    </rdf:RDF>
  </metadata>
  <g
     inkscape:label="Layer 1"
     inkscape:groupmode="layer"
     id="layer1"
     transform="translate(0,-752.36218)">
    <rect
       style="color:#000000;fill:#000000;fill-opacity:1;fill-rule:nonzero;stroke:none;stroke-width:3.54299997999999980;marker:none;visibility:visible;display:inline;overflow:visible;enable-background:accumulate;opacity:1"
       id="rect8328"
       width="600"
       height="300"
       x="0"
       y="752.36212"
       rx="45"
       ry="45" />
    <path
       style="color:#000000;fill:#ffffff;fill-opacity:1;fill-rule:nonzero;stroke:none;stroke-width:3.54299997999999980;marker:none;visibility:visible;display:inline;overflow:visible;enable-background:accumulate;opacity:1"
       d="M 45 10 C 25.61 10 10 25.61 10 45 L 10 224.71875 L 127.5 168.75 L 472.5 168.75 L 590 224.71875 L 590 45 C 590 25.61 574.39 10 555 10 L 45 10 z M 154.6875 190.3125 L 154.6875 290 L 445.3125 290 L 445.3125 190.3125 L 154.6875 190.3125 z M 127.5 192.625 L 10 248.59375 L 10 255 C 10 274.39 25.61 290 45 290 L 127.5 290 L 127.5 192.625 z M 472.5 192.625 L 472.5 290 L 555 290 C 574.39 290 590 274.39 590 255 L 590 248.59375 L 472.5 192.625 z "
       transform="translate(0,752.36218)"
       id="rect8330" />
    <path
       style="color:#000000;fill:#000000;fill-opacity:1;stroke:none;stroke-width:1px;marker:none;visibility:visible;display:inline;overflow:visible;enable-background:accumulate"
       d="M 301.21875 49.6875 C 298.43438 49.6875 295.77393 50.83864 293.875 52.875 L 258.90625 90.375 C 257.33753 92.05725 255.24659 93.14861 252.96875 93.46875 L 199.40625 101 C 194.38397 101.70584 190.69315 106.05414 190.78125 111.125 L 191.125 130.15625 C 191.28118 134.62975 194.89597 138.1832 199.34375 138.3125 C 201.85653 126.17681 212.64585 117.0625 225.59375 117.0625 C 240.40428 117.0625 252.4375 129.01246 252.4375 143.75 L 347.8125 143.75 C 347.8125 129.01246 359.81451 117.0625 374.625 117.0625 C 388.19593 117.0625 399.40503 127.1077 401.1875 140.125 L 406.28125 138.75 C 409.40351 137.91339 411.78948 135.36052 412.40625 132.1875 L 417.65625 105.1875 C 418.24008 102.18398 417.42464 99.07665 415.4375 96.75 L 378.25 53.21875 C 376.34253 50.98539 373.56205 49.6875 370.625 49.6875 L 301.21875 49.6875 z M 302.34375 57.625 L 371.21875 57.625 C 375.11756 57.625 378.42134 60.46169 379.03125 64.3125 L 382.3125 84.90625 C 382.99729 89.22984 380.04234 93.28395 375.71875 93.96875 C 375.30863 94.03375 374.88398 94.0625 374.46875 94.0625 L 280.15625 94.0625 C 276.65426 94.0625 273.8125 91.22073 273.8125 87.71875 C 273.8125 86.1136 274.43653 84.58018 275.53125 83.40625 L 297.6875 59.625 C 298.88683 58.33888 300.58519 57.625 302.34375 57.625 z "
       transform="translate(0,752.36218)"
       id="path9655" />
    <path
       inkscape:connector-curvature="0"
       style="color:#000000;fill:#000000;fill-opacity:1;fill-rule:nonzero;stroke:none;stroke-width:1px;marker:none;visibility:visible;display:inline;overflow:visible;enable-background:accumulate"
       d="m 225.60779,873.91333 c -12.25697,0 -22.19315,9.93623 -22.19315,22.19318 0,12.25696 9.93618,22.19318 22.19315,22.19318 12.25697,0 22.19316,-9.93622 22.19316,-22.19318 0,-12.25695 -9.93619,-22.19318 -22.19316,-22.19318 z m 0,8.98295 c 7.29582,0 13.21022,5.91442 13.21022,13.21023 0,7.29581 -5.9144,13.21023 -13.21022,13.21023 -7.29581,0 -13.21022,-5.91442 -13.21022,-13.21023 0,-7.29581 5.91441,-13.21023 13.21022,-13.21023 z"
       id="path9659" />
    <path
       id="path9661"
       d="m 374.61915,873.91333 c -12.25695,0 -22.19317,9.93623 -22.19317,22.19318 0,12.25696 9.93622,22.19318 22.19317,22.19318 12.25696,0 22.19319,-9.93622 22.19319,-22.19318 0,-12.25695 -9.93623,-22.19318 -22.19319,-22.19318 z m 0,8.98295 c 7.29582,0 13.21023,5.91442 13.21023,13.21023 0,7.29581 -5.91441,13.21023 -13.21023,13.21023 -7.2958,0 -13.21022,-5.91442 -13.21022,-13.21023 0,-7.29581 5.91442,-13.21023 13.21022,-13.21023 z"
       style="color:#000000;fill:#000000;fill-opacity:1;fill-rule:nonzero;stroke:none;stroke-width:1px;marker:none;visibility:visible;display:inline;overflow:visible;enable-background:accumulate"
       inkscape:connector-curvature="0" />
  </g>
</svg>
