<?xml version="1.0" encoding="UTF-8" standalone="no"?>
<!-- Created with Inkscape (http://www.inkscape.org/) -->

<svg
   xmlns:dc="http://purl.org/dc/elements/1.1/"
   xmlns:cc="http://creativecommons.org/ns#"
   xmlns:rdf="http://www.w3.org/1999/02/22-rdf-syntax-ns#"
   xmlns:svg="http://www.w3.org/2000/svg"
   xmlns="http://www.w3.org/2000/svg"
   xmlns:sodipodi="http://sodipodi.sourceforge.net/DTD/sodipodi-0.dtd"
   xmlns:inkscape="http://www.inkscape.org/namespaces/inkscape"
   width="600"
   height="300"
   id="svg2"
   version="1.1"
   inkscape:version="0.48.4 r9939"
   sodipodi:docname="8.21.1.svg">
  <title
     id="title3006">8.19 Класс опасного груза</title>
  <defs
     id="defs4" />
  <sodipodi:namedview
     id="base"
     pagecolor="#ffffff"
     bordercolor="#666666"
     borderopacity="1.0"
     inkscape:pageopacity="0.0"
     inkscape:pageshadow="2"
     inkscape:zoom="1"
     inkscape:cx="183.65137"
     inkscape:cy="202.18837"
     inkscape:document-units="px"
     inkscape:current-layer="layer1"
     showgrid="false"
     inkscape:window-width="1920"
     inkscape:window-height="1024"
     inkscape:window-x="-4"
     inkscape:window-y="-4"
     inkscape:window-maximized="1"
     inkscape:snap-bbox="true"
     inkscape:bbox-paths="true"
     inkscape:bbox-nodes="true"
     inkscape:snap-bbox-edge-midpoints="true"
     inkscape:snap-bbox-midpoints="true"
     inkscape:object-paths="true"
     inkscape:snap-intersection-paths="true"
     inkscape:object-nodes="true"
     inkscape:snap-smooth-nodes="true"
     inkscape:snap-midpoints="true"
     inkscape:snap-object-midpoints="true"
     showguides="true"
     inkscape:guide-bbox="true" />
  <metadata
     id="metadata7">
    <rdf:RDF>
      <cc:Work
         rdf:about="">
        <dc:format>image/svg+xml</dc:format>
        <dc:type
           rdf:resource="http://purl.org/dc/dcmitype/StillImage" />
        <dc:title>8.19 Класс опасного груза</dc:title>
        <cc:license
           rdf:resource="http://creativecommons.org/licenses/by-sa/3.0/" />
        <dc:description>ГОСТ Р 52290-2004
Размеры и пропорции по типоразмеру I</dc:description>
      </cc:Work>
      <cc:License
         rdf:about="http://creativecommons.org/licenses/by-sa/3.0/">
        <cc:permits
           rdf:resource="http://creativecommons.org/ns#Reproduction" />
        <cc:permits
           rdf:resource="http://creativecommons.org/ns#Distribution" />
        <cc:requires
           rdf:resource="http://creativecommons.org/ns#Notice" />
        <cc:requires
           rdf:resource="http://creativecommons.org/ns#Attribution" />
        <cc:permits
           rdf:resource="http://creativecommons.org/ns#DerivativeWorks" />
        <cc:requires
           rdf:resource="http://creativecommons.org/ns#ShareAlike" />
      </cc:License>
    </rdf:RDF>
  </metadata>
  <g
     inkscape:label="Layer 1"
     inkscape:groupmode="layer"
     id="layer1"
     transform="translate(0,-752.36218)">
    <rect
       y="752.36218"
       x="0"
       height="300"
       width="600"
       id="rect5622"
       style="opacity:1;color:#000000;fill:#000000;fill-opacity:1;fill-rule:nonzero;stroke:none;stroke-width:3.54299997999999980;marker:none;visibility:visible;display:inline;overflow:visible;enable-background:accumulate"
       rx="45"
       ry="45" />
    <rect
       y="762.36212"
       x="10"
       height="280"
       width="580"
       id="rect9537"
       style="color:#000000;fill:#ff8000;fill-opacity:1;fill-rule:nonzero;stroke:none;stroke-width:3.54299997999999980;marker:none;visibility:visible;display:inline;overflow:visible;enable-background:accumulate;opacity:1"
       rx="35"
       ry="35" />
    <g
       style="font-size:95.66449737999998600px;font-style:normal;font-variant:normal;font-weight:normal;font-stretch:normal;line-height:125%;letter-spacing:-2.98125004999999990px;word-spacing:0px;opacity:1;fill:#000000;fill-opacity:1;stroke:none;font-family:Arial;-inkscape-font-specification:Arial"
       id="text11354">
      <path
         d="m 56.954402,826.55671 c -5.119998,0.0838 -9.277361,1.92526 -12.4721,5.52456 -3.194762,3.59936 -4.840965,8.45426 -4.938614,14.56473 0.09765,6.1105 1.743855,10.9654 4.938618,14.56473 3.194741,3.59933 7.352102,5.44084 12.472096,5.52455 5.119947,-0.0837 9.277308,-1.92522 12.472097,-5.52455 3.194715,-3.59933 4.840919,-8.45423 4.938618,-14.56473 -0.0977,-6.11047 -1.743901,-10.96538 -4.938617,-14.56474 -3.194789,-3.59929 -7.352151,-5.44081 -12.472098,-5.52455 z m 0,6.69643 c 2.734349,0.0558 4.96649,1.28351 6.696429,3.68303 1.729878,2.39958 2.622734,5.63619 2.678572,9.70983 -0.05584,4.07367 -0.948692,7.31028 -2.678572,9.70982 -1.729941,2.39955 -3.962082,3.62723 -6.696429,3.68303 -2.734394,-0.0558 -4.966535,-1.28347 -6.696428,-3.68303 -1.729928,-2.39955 -2.622784,-5.63615 -2.678572,-9.70982 0.05579,-4.07364 0.948646,-7.31025 2.678572,-9.70983 1.729891,-2.39952 3.962032,-3.6272 6.696428,-3.68303 z"
         style="fill:#000000;font-family:Russian Road Sign;-inkscape-font-specification:Russian Road Sign"
         id="path11409" />
      <path
         d="m 86.777302,827.896 0,37.5 8.035715,0 0,-30.13393 14.062503,0 0,30.13393 8.03571,0 0,-37.5 z"
         style="fill:#000000;font-family:Russian Road Sign;-inkscape-font-specification:Russian Road Sign"
         id="path11411" />
      <path
         d="m 143.97783,826.55671 c -3.30638,0.0698 -6.06866,0.59993 -8.28683,1.5904 -2.21821,0.99055 -4.14343,2.02292 -5.77567,3.0971 l 4.01785,6.69643 c 1.04631,-1.07419 2.4693,-2.10656 4.26898,-3.0971 1.79965,-0.99048 3.72487,-1.52062 5.77567,-1.5904 2.09261,0.0977 3.93412,0.73943 5.52455,1.92522 1.59037,1.18586 2.42743,2.32983 2.51116,3.43192 l 0,2.67857 c -0.28111,-0.0702 -2.2487,0.1447 -5.90278,0.64484 -3.65412,0.50019 -7.30821,1.7072 -10.9623,3.62104 -3.65411,1.91387 -5.6217,4.9562 -5.90278,9.12698 0.16741,4.01786 1.50669,7.03125 4.01786,9.04018 2.51115,2.00892 5.18972,3.01339 8.03572,3.01339 2.70645,-0.0837 4.99439,-0.75335 6.86384,-2.00893 1.86939,-1.25558 3.15287,-2.59486 3.85044,-4.01785 0.33479,2.59486 1.17184,4.26897 2.51116,5.02232 1.33926,0.75334 3.18077,1.08816 5.52456,1.00446 l 3.34821,-6.69643 c -0.72549,0.0698 -1.45093,-0.0697 -2.17634,-0.41852 -0.72549,-0.34877 -1.11611,-1.32533 -1.17187,-2.92969 l 0,-18.08036 c -0.25116,-3.43189 -2.09267,-6.27787 -5.52456,-8.53795 -3.43195,-2.26001 -6.94757,-3.43188 -10.54687,-3.51562 z m 8.03571,20.75893 0,6.69643 c -0.11163,0.54409 -1.06029,1.63226 -2.84598,3.26451 -1.78574,1.63226 -3.73886,2.55302 -5.85938,2.76227 -0.80917,0.0419 -1.86944,-0.37667 -3.1808,-1.25558 -1.3114,-0.8789 -2.03685,-2.4693 -2.17634,-4.7712 0.11159,-1.95518 1.07885,-3.32754 2.90179,-4.11707 1.82289,-0.7895 3.83182,-1.3186 6.02678,-1.5873 2.19491,-0.26867 3.90622,-0.59935 5.13393,-0.99206 z"
         style="fill:#000000;font-family:Russian Road Sign;-inkscape-font-specification:Russian Road Sign"
         id="path11413" />
      <path
         d="m 189.26525,826.55671 c -5.14789,0.0838 -9.41686,1.92526 -12.80692,5.52456 -3.39007,3.59936 -5.14788,8.45426 -5.27343,14.56473 0.12555,6.1105 1.88336,10.9654 5.27344,14.56473 3.39005,3.59933 7.65902,5.44084 12.80691,5.52455 3.7727,-0.0259 7.06112,-1.02639 9.86528,-3.00143 2.80409,-1.97505 4.87281,-4.76921 6.20615,-8.3825 l -7.55739,-2.86989 c -0.73146,2.44938 -1.8276,4.3188 -3.28843,5.60825 -1.46089,1.28947 -3.20275,1.93918 -5.22561,1.94914 -2.73439,-0.0558 -4.96653,-1.28347 -6.69642,-3.68303 -1.72993,-2.39955 -2.62279,-5.63615 -2.67858,-9.70982 0.0558,-4.07364 0.94865,-7.31025 2.67858,-9.70983 1.72989,-2.39952 3.96203,-3.6272 6.69642,-3.68303 2.02286,0.01 3.76472,0.65971 5.22561,1.94914 1.46083,1.28949 2.55697,3.1589 3.28843,5.60826 l 7.55739,-2.8699 c -1.33334,-3.61325 -3.40206,-6.40742 -6.20615,-8.3825 -2.80416,-1.97501 -6.09258,-2.97548 -9.86528,-3.00143 z"
         style="fill:#000000;font-family:Russian Road Sign;-inkscape-font-specification:Russian Road Sign"
         id="path11415" />
      <path
         d="m 216.47234,827.896 0,37.5 8.03571,0 0,-16.07143 14.0625,0 0,16.07143 8.03572,0 0,-37.5 -8.03572,0 0,14.0625 -14.0625,0 0,-14.0625 z"
         style="fill:#000000;font-family:Russian Road Sign;-inkscape-font-specification:Russian Road Sign"
         id="path11417" />
      <path
         d="m 297.58868,865.396 8.03572,0 0,-37.5 -8.03572,0 z m -35.96939,-37.5 0,37.5 17.41072,0 c 4.64761,-0.12556 8.00379,-1.38114 10.06855,-3.76675 2.0647,-2.38559 3.07713,-5.14787 3.03732,-8.28683 0.0398,-3.13893 -0.97262,-5.90121 -3.03731,-8.28683 -2.06477,-2.38558 -5.42095,-3.64116 -10.06856,-3.76674 l -9.375,0 0,-13.39285 z m 8.03572,20.75892 10.04464,0 c 1.36716,0.0578 2.48323,0.56404 3.34821,1.51866 0.86493,0.95465 1.31136,2.01093 1.33929,3.16884 -0.0279,1.15794 -0.47436,2.21422 -1.33929,3.16885 -0.86498,0.95465 -1.98105,1.46086 -3.34821,1.51865 l -10.04464,0 z"
         style="fill:#000000;font-family:Russian Road Sign;-inkscape-font-specification:Russian Road Sign"
         id="path11419" />
      <path
         d="m 320.07859,827.896 0,37.5 8.70536,0 15.40178,-25.44643 0,25.44643 8.03572,0 0,-37.5 -8.70536,0 -15.40178,25.44642 0,-25.44642 z m 2.67857,-16.07143 c -0.0579,0.13232 0.20667,1.05825 0.79365,2.77777 0.58696,1.71963 1.84357,3.4392 3.76984,5.15873 1.92624,1.71962 4.86936,2.64555 8.82937,2.77778 3.95996,-0.13223 6.90308,-1.05816 8.82937,-2.77778 1.92622,-1.71953 3.18283,-3.4391 3.76984,-5.15873 0.58693,-1.71952 0.85148,-2.64545 0.79365,-2.77777 l -6.69643,0 c -0.65573,1.68811 -1.52068,2.99949 -2.59487,3.93415 -1.07424,0.93476 -2.44143,1.40909 -4.10156,1.42299 -1.70203,-0.0139 -3.15292,-0.48823 -4.35268,-1.42299 -1.19979,-0.93466 -1.98104,-2.24604 -2.34375,-3.93415 z"
         style="fill:#000000;font-family:Russian Road Sign;-inkscape-font-specification:Russian Road Sign"
         id="path11421" />
    </g>
    <g
       style="font-size:95.66449737999998600px;font-style:normal;font-variant:normal;font-weight:normal;font-stretch:normal;line-height:125%;letter-spacing:-1.54687511999999990px;word-spacing:0px;opacity:1;fill:#000000;fill-opacity:1;stroke:none;font-family:Arial;-inkscape-font-specification:Arial"
       id="text11358">
      <path
         d="m 403.66861,827.896 0,37.5 8.03572,0 0,-30.13393 18.08036,0 0,-7.36607 z"
         style="fill:#000000;font-family:Russian Road Sign;-inkscape-font-specification:Russian Road Sign"
         id="path11424" />
      <path
         d="m 459.03443,826.55671 c -3.32034,0.22325 -5.71989,1.11611 -7.19867,2.67857 -1.47881,1.56254 -2.20425,2.45539 -2.17633,2.67857 -0.58994,-1.05226 -1.03637,-2.39154 -1.33929,-4.01785 l -6.69643,0 0,53.57142 8.03572,0 0,-19.41964 c 0.0558,0.48829 0.94864,1.35324 2.67857,2.59487 1.72989,1.24163 3.96203,1.93917 6.69643,2.09263 1.47153,0.062 3.51352,-0.43403 6.12599,-1.48809 2.6124,-1.05407 5.00161,-3.0382 7.16765,-5.95239 2.16597,-2.91417 3.31511,-7.13044 3.44743,-12.6488 -0.27906,-7.86828 -2.23219,-13.22542 -5.85938,-16.07143 -3.62726,-2.84595 -7.25449,-4.18523 -10.88169,-4.01786 z m 0,7.36607 c 2.41347,0.0279 4.4503,1.14401 6.11049,3.34822 1.66012,2.20426 2.52507,5.32926 2.59486,9.375 -0.0698,4.07367 -0.93474,7.31028 -2.59486,9.70982 -1.66019,2.39955 -3.69702,3.62723 -6.11049,3.68303 -1.77179,-0.0139 -3.51366,-0.48827 -5.22561,-1.42299 -1.71199,-0.9347 -3.09512,-2.24608 -4.14939,-3.93415 l 0,-14.0625 c 1.03035,-2.0368 2.36565,-3.65511 4.00589,-4.85491 1.64021,-1.19975 3.42991,-1.81359 5.36911,-1.84152 z"
         style="fill:#000000;font-family:Russian Road Sign;-inkscape-font-specification:Russian Road Sign"
         id="path11426" />
      <path
         d="m 486.86575,873.43171 2.58291,7.65306 c 0.99449,0.18334 1.63623,0.29495 1.92522,0.33482 0.28897,0.0398 0.57198,0.0558 0.84901,0.0478 2.07867,-0.014 4.1155,-0.6557 6.1105,-1.92522 1.99495,-1.26955 3.52955,-3.08316 4.60379,-5.44085 l 15.40179,-46.20535 -9.375,0 -7.36608,24.77678 -8.70535,-24.77678 -9.375,0 14.34949,37.5 c -0.49999,2.02195 -1.32501,3.9469 -2.47506,5.77487 -1.15008,1.82796 -2.87608,2.80478 -5.178,2.93048 -0.34879,0.014 -0.82312,-0.014 -1.423,-0.0837 -0.59989,-0.0698 -1.24163,-0.26508 -1.92522,-0.58594 z"
         style="fill:#000000;font-family:Russian Road Sign;-inkscape-font-specification:Russian Road Sign"
         id="path11428" />
      <path
         d="m 542.16882,827.22635 c -2.73439,0.014 -5.22961,0.32091 -7.48565,0.92076 -2.25607,0.59993 -4.22514,1.40908 -5.90721,2.42746 l 3.63521,7.07908 c 1.1599,-0.90877 2.49919,-1.74583 4.01786,-2.51116 1.51863,-0.76528 3.4319,-1.17185 5.73979,-1.21971 1.47877,-0.0279 3.04127,0.36276 4.6875,1.17188 1.64618,0.80918 2.53903,2.20427 2.67857,4.18526 -3e-5,1.04635 -0.33485,1.9671 -1.00446,2.76228 -0.66967,0.79522 -1.67414,1.21375 -3.01339,1.25558 l -5.35715,0 0,6.02679 5.35715,0 c 1.66012,0.0558 2.8599,0.61385 3.59932,1.6741 0.73937,1.06028 1.1021,2.28796 1.08818,3.68304 -0.11164,1.68807 -0.89289,2.99945 -2.34376,3.93415 -1.45091,0.93472 -2.90181,1.40905 -4.35267,1.42299 -1.75784,0.0259 -3.83851,-0.33681 -6.24203,-1.08817 -2.40356,-0.75135 -4.34074,-2.04678 -5.81154,-3.88632 l -4.97449,5.45281 c 2.12052,2.0169 4.7672,3.55548 7.94005,4.61575 3.17281,1.06027 6.20215,1.59439 9.08801,1.60236 4.32475,0.0279 7.944,-0.86495 10.85778,-2.67857 2.9137,-1.81361 4.42837,-4.7154 4.544,-8.70536 -0.11762,-2.97352 -1.00649,-5.15783 -2.66661,-6.55293 -1.66019,-1.39507 -3.38611,-2.2401 -5.17778,-2.53508 1.65216,-0.50022 3.13095,-1.53258 4.43639,-3.0971 1.30536,-1.56447 1.99494,-3.52955 2.06872,-5.89524 -0.0558,-3.22263 -1.45093,-5.69792 -4.18527,-7.42587 -2.73441,-1.72788 -6.47324,-2.6008 -11.21652,-2.61878 z"
         style="fill:#000000;font-family:Russian Road Sign;-inkscape-font-specification:Russian Road Sign"
         id="path11430" />
    </g>
    <g
       style="font-size:133.92980957000000000px;font-style:normal;font-variant:normal;font-weight:normal;font-stretch:normal;line-height:125%;letter-spacing:-1.51874994999999990px;word-spacing:0px;opacity:1;fill:#000000;fill-opacity:1;stroke:none;font-family:Arial;-inkscape-font-specification:Arial"
       id="text11368">
      <path
         d="m 56.414079,924.86213 0,52.49981 11.249959,0 0,-24.37491 c 0.477095,-0.0697 0.962584,-0.13112 1.456469,-0.18416 0.493836,-0.053 0.945842,-0.0809 1.356021,-0.0837 5.17015,0.35717 9.093123,3.12501 11.76893,8.30354 2.675731,5.17857 5.627726,10.62497 8.855995,16.33923 l 14.062447,0 c -3.18539,-3.22998 -5.817658,-6.99319 -7.896797,-11.28964 -2.079246,-4.29643 -4.314685,-8.22829 -6.706325,-11.7956 -2.391733,-3.56725 -5.648992,-5.87214 -9.771787,-6.91465 2.260203,-0.66713 4.257548,-2.0709 5.99204,-4.2113 1.734407,-2.14033 3.573023,-4.22862 5.515852,-6.26486 1.942734,-2.03616 4.356745,-3.23159 7.24204,-3.58629 l -2.81249,-9.37497 c -3.896363,0.5399 -7.413212,2.39174 -10.550557,5.55554 -3.137429,3.16389 -6.088804,6.27564 -8.854135,9.33528 -2.765398,3.05971 -5.538202,4.70322 -8.318422,4.93054 -0.206498,0.003 -0.429711,-0.003 -0.66964,-0.0167 -0.239977,-0.0139 -0.463191,-0.053 -0.669641,-0.11719 l 0,-18.74993 z"
         style="fill:#000000;font-family:Russian Road Sign;-inkscape-font-specification:Russian Road Sign"
         id="path11433" />
      <path
         d="m 118.86775,924.86213 c 0.006,3.62107 -0.0802,8.00101 -0.25794,13.13983 -0.17776,5.13891 -0.48199,9.93551 -0.91269,14.38983 -0.43074,4.45437 -1.02267,7.46527 -1.77579,9.03271 -1.19979,2.13728 -2.68416,3.78906 -4.45311,4.95534 -1.76898,1.1663 -3.45424,1.88058 -5.05578,2.14284 l 2.14285,10.71425 c 7.61569,-2.00231 12.80085,-5.3935 15.55549,-10.17358 2.75459,-4.78006 4.25922,-10.18513 4.51388,-16.21521 0.2546,-6.03004 0.43978,-11.92122 0.55555,-17.67355 l 14.99995,0 0,42.18735 11.24996,0 0,-52.49981 z"
         style="fill:#000000;font-family:Russian Road Sign;-inkscape-font-specification:Russian Road Sign"
         id="path11435" />
      <path
         d="m 180.58482,969.86197 c -0.0586,-2.31335 -0.85647,-4.23865 -2.3937,-5.77592 -1.53727,-1.53723 -3.46257,-2.33513 -5.77591,-2.3937 -2.31337,0.0586 -4.23868,0.85647 -5.77592,2.3937 -1.53726,1.53727 -2.33516,3.46257 -2.3937,5.77592 0.0585,2.31336 0.85645,4.23866 2.3937,5.77591 1.53724,1.53725 3.46255,2.33515 5.77592,2.3937 2.31334,-0.0585 4.23864,-0.85645 5.77591,-2.3937 1.53723,-1.53725 2.33512,-3.46255 2.3937,-5.77591 z"
         style="fill:#000000;font-family:Russian Road Sign;-inkscape-font-specification:Russian Road Sign"
         id="path11437" />
      <path
         d="m 235.38449,902.36221 -36.56237,48.74982 0,11.24996 35.62487,0 0,14.99995 13.12496,0 0,-14.99995 5.08926,0 4.2857,-11.24996 -10.31246,0 0,-48.74982 z m -0.9375,19.68743 0,29.06239 -21.56242,0 z"
         style="fill:#000000;font-family:Russian Road Sign;-inkscape-font-specification:Russian Road Sign"
         id="path11439" />
      <path
         d="m 280.12078,969.86197 c -0.0586,-2.31335 -0.85647,-4.23865 -2.3937,-5.77592 -1.53727,-1.53723 -3.46257,-2.33513 -5.77592,-2.3937 -2.31337,0.0586 -4.23867,0.85647 -5.77591,2.3937 -1.53726,1.53727 -2.33516,3.46257 -2.3937,5.77592 0.0585,2.31336 0.85644,4.23866 2.3937,5.77591 1.53724,1.53725 3.46254,2.33515 5.77591,2.3937 2.31335,-0.0585 4.23865,-0.85645 5.77592,-2.3937 1.53722,-1.53725 2.33512,-3.46255 2.3937,-5.77591 z"
         style="fill:#000000;font-family:Russian Road Sign;-inkscape-font-specification:Russian Road Sign"
         id="path11441" />
      <path
         d="m 293.95183,907.04969 4.95534,11.11603 c 2.56694,-2.25997 5.06693,-3.90059 7.49997,-4.92185 2.433,-1.02114 5.4687,-1.52337 9.10711,-1.50669 2.44136,0.0587 4.58979,0.87896 6.44529,2.46092 1.85542,1.58209 2.83198,3.57427 2.92968,5.97655 -0.11723,2.92973 -1.75785,5.74221 -4.92186,8.43747 -3.16409,2.69535 -7.14844,4.57034 -11.95308,5.62498 l 0,10.31246 c 0.95142,-0.44919 1.99494,-0.72262 3.13056,-0.82031 1.13558,-0.0976 2.27955,-0.13669 3.43191,-0.11719 5.88443,0.25673 9.61767,1.6853 11.19974,4.2857 1.58198,2.60046 2.26836,4.8326 2.05914,6.6964 -0.20093,4.32757 -1.84155,7.49162 -4.92185,9.49216 -3.08038,2.00056 -6.79688,2.98828 -11.14952,2.96316 -3.19755,0.0195 -6.54575,-0.28738 -10.0446,-0.92076 -3.49889,-0.63335 -6.4453,-1.71036 -8.83926,-3.23101 l 1.60714,13.12495 c 0.32923,0.13393 2.58368,0.66964 6.76337,1.60713 4.17965,0.9375 8.30909,1.47321 12.38835,1.60714 8.94245,-0.3125 15.76719,-2.96874 20.47425,-7.96872 4.70696,-4.99997 7.0786,-10.4687 7.11493,-16.40619 -0.13811,-4.05089 -1.36496,-7.40735 -3.68054,-10.06941 -2.31568,-2.66199 -4.89173,-4.69902 -7.72815,-6.11109 -2.8365,-1.41199 -5.10501,-2.26847 -6.80553,-2.56943 3.9062,-0.54684 7.34368,-2.49995 10.31246,-5.85936 2.96869,-3.35931 4.53118,-7.65616 4.68749,-12.89057 -0.25117,-5.22035 -2.4275,-9.34421 -6.529,-12.37161 -4.10159,-3.02726 -8.62166,-4.57301 -13.56021,-4.63726 -3.98718,0.10331 -8.33426,0.86782 -13.04125,2.29352 -4.70703,1.42585 -8.35099,2.89348 -10.93188,4.40288 z"
         style="fill:#000000;font-family:Russian Road Sign;-inkscape-font-specification:Russian Road Sign"
         id="path11443" />
      <path
         d="m 360.82847,961.69235 c -2.3144,0.0584 -4.24,0.85603 -5.7768,2.39282 -1.53682,1.53682 -2.33442,3.46242 -2.39282,5.7768 0.045,2.11192 0.7229,3.90978 2.03384,5.39359 1.31092,1.48382 2.98509,2.38405 5.0225,2.70068 l -7.32419,11.59315 6.16069,0 c 0.93888,-1.36553 2.61019,-4.02508 5.01393,-7.97866 2.40371,-3.95358 3.92435,-6.63301 4.56193,-8.0383 0.22702,-0.57655 0.42661,-1.16781 0.59878,-1.77378 0.17212,-0.60596 0.26271,-1.23819 0.27175,-1.89668 -0.0584,-2.31438 -0.85603,-4.23998 -2.39282,-5.7768 -1.53683,-1.5368 -3.46243,-2.3344 -5.77679,-2.39282 z"
         style="fill:#000000;font-family:Russian Road Sign;-inkscape-font-specification:Russian Road Sign"
         id="path11445" />
      <path
         d="m 422.57903,901.15686 c -9.78515,0.40186 -16.93356,4.58711 -21.44524,12.55576 -4.51171,7.96877 -6.73826,17.31025 -6.67966,28.02445 0.0976,11.77732 2.48045,20.80072 7.14841,27.07021 4.66793,6.26951 11.03509,9.43356 19.10149,9.49216 6.30853,-0.19532 11.73819,-2.85155 16.289,-7.96873 4.55071,-5.11716 6.93351,-11.52338 7.14842,-19.21868 -0.13895,-5.8804 -1.42367,-10.42899 -3.85416,-13.64578 -2.4306,-3.21671 -5.17364,-5.44388 -8.22914,-6.68153 -3.05558,-1.23754 -5.59029,-1.82782 -7.60413,-1.77082 -3.32313,0.10049 -6.52066,0.97102 -9.5926,2.6116 -3.072,1.64066 -5.7673,3.44869 -8.08591,5.42408 -0.0943,-0.31245 0.18351,-2.49994 0.83333,-6.56247 0.64978,-4.06244 2.23707,-8.12492 4.76189,-12.18746 2.52476,-4.06242 6.55252,-6.24991 12.08329,-6.56247 4.35541,0.16189 8.06633,0.80921 11.13277,1.94195 3.06634,1.13287 4.6679,1.78019 4.80467,1.94196 l -1.87499,-11.38389 c -0.19537,-0.12827 -1.91411,-0.64166 -5.15623,-1.54017 -3.24223,-0.89836 -6.83596,-1.41175 -10.78121,-1.54017 z m 0,38.70521 c 2.0312,4e-5 4.06244,0.93754 6.09372,2.81249 2.0312,1.87503 3.12494,4.68752 3.28124,8.43747 -0.0224,3.49611 -1.14959,6.8164 -3.38168,9.9609 -2.23218,3.14454 -5.43529,4.82422 -9.60934,5.03905 -2.84559,-0.20832 -5.14551,-1.66665 -6.89978,-4.37499 -1.75432,-2.7083 -3.03242,-5.41662 -3.83431,-8.12497 -0.80194,-2.7083 -1.19711,-4.16662 -1.18551,-4.37498 0.23714,-0.39059 2.00611,-1.95309 5.3069,-4.68748 3.30074,-2.73433 6.71032,-4.29683 10.22876,-4.68749 z"
         style="fill:#000000;font-family:Russian Road Sign;-inkscape-font-specification:Russian Road Sign"
         id="path11447" />
      <path
         d="m 463.87913,961.69235 c -2.3144,0.0584 -4.24,0.85603 -5.7768,2.39282 -1.53682,1.53682 -2.33442,3.46242 -2.39282,5.7768 0.045,2.11192 0.7229,3.90978 2.03384,5.39359 1.31092,1.48382 2.98509,2.38405 5.0225,2.70068 l -7.32419,11.59315 6.16069,0 c 0.93888,-1.36553 2.61019,-4.02508 5.01393,-7.97866 2.40371,-3.95358 3.92435,-6.63301 4.56193,-8.0383 0.22701,-0.57655 0.42661,-1.16781 0.59878,-1.77378 0.17212,-0.60596 0.26271,-1.23819 0.27175,-1.89668 -0.0584,-2.31438 -0.85603,-4.23998 -2.39282,-5.7768 -1.53683,-1.5368 -3.46243,-2.3344 -5.77679,-2.39282 z"
         style="fill:#000000;font-family:Russian Road Sign;-inkscape-font-specification:Russian Road Sign"
         id="path11449" />
      <path
         d="m 495.16105,914.54967 34.68737,0 c -5.33205,8.55471 -10.37109,18.16404 -15.11713,28.82801 -4.7461,10.66405 -8.14452,21.67963 -10.19528,33.04676 l 14.06245,0 c 2.89058,-13.4179 6.48432,-25.25379 10.78121,-35.50768 4.29682,-10.25383 8.82805,-19.98034 13.5937,-29.17958 l 0,-9.37497 -44.99983,0 z"
         style="fill:#000000;font-family:Russian Road Sign;-inkscape-font-specification:Russian Road Sign"
         id="path11451" />
    </g>
  </g>
</svg>
