<?xml version="1.0" encoding="UTF-8" standalone="no"?>
<svg xmlns="http://www.w3.org/2000/svg" width="700" height="350" version="1.1">
  <title>8.9.3 Стоянка только транспортных средств дипломатического корпуса</title>
  <rect style="fill:#ffffff;" x="0" y="0" width="700" height="350" rx="45" ry="45"/>
  <rect style="fill:none;stroke:#000000;stroke-width:2;" x="1" y="1" width="698" height="348" rx="44" ry="44"/>
  <rect style="fill:#ff0000;" x="10" y="10" width="680" height="330" rx="35" ry="35"/>
  <path style="fill:#ffffff;" transform="scale(1.09375) translate(108 -42.58) scale(0.68387097)" d="m 460 380 a 20 20 0 0 0 20 -20 v -80 a 20 20 0 0 0 -20 -20 l -33.23 -97.98 a 17.71 17.71 0 0 0 -16.77 -12.02 h -200 a 17.71 17.71 0 0 0 -16.77 12.02 l -33.23 97.98 a 20 20 0 0 0 -20 20 v 80 a 20 20 0 0 0 20 20 z m -280 -120 l 28.48 -83.99 a 8.86 8.86 0 0 1 8.39 -6.01 h 186.26 a 8.86 8.86 0 0 1 8.39 6.01 l 28.48 83.99 z m 10 80 a 30 30 0 0 1 -30 -30 a 30 30 0 0 1 30 -30 a 30 30 0 0 1 30 30 a 30 30 0 0 1 -30 30 z m 240 0 a 30 30 0 0 1 -30 -30 a 30 30 0 0 1 30 -30 a 30 30 0 0 1 30 30 a 30 30 0 0 1 -30 30 z"/>
  <path style="fill:#ffffff;" transform="scale(1.09375) translate(108 -42.58) scale(0.68387097)" d="m 160 390 v 40 a 30 30 0 0 0 30 30 a 30 30 0 0 0 30 -30 v -40 z"/>
  <path style="fill:#ffffff;" transform="scale(1.09375) translate(108 -42.58) scale(0.68387097)" d="m 400 390 v 40 a 30 30 0 0 0 30 30 a 30 30 0 0 0 30 -30 v -40 z"/>
</svg>
