<?xml version="1.0" encoding="UTF-8" standalone="no"?>
<!-- Created with Inkscape (http://www.inkscape.org/) -->

<svg
   xmlns:dc="http://purl.org/dc/elements/1.1/"
   xmlns:cc="http://creativecommons.org/ns#"
   xmlns:rdf="http://www.w3.org/1999/02/22-rdf-syntax-ns#"
   xmlns:svg="http://www.w3.org/2000/svg"
   xmlns="http://www.w3.org/2000/svg"
   xmlns:sodipodi="http://sodipodi.sourceforge.net/DTD/sodipodi-0.dtd"
   xmlns:inkscape="http://www.inkscape.org/namespaces/inkscape"
   width="600"
   height="300"
   id="svg2"
   version="1.1"
   inkscape:version="0.48.4 r9939"
   sodipodi:docname="8.23.svg">
  <title
     id="title3006">8.24 Работает эвакуатор</title>
  <defs
     id="defs4" />
  <sodipodi:namedview
     id="base"
     pagecolor="#ffffff"
     bordercolor="#666666"
     borderopacity="1.0"
     inkscape:pageopacity="0.0"
     inkscape:pageshadow="2"
     inkscape:zoom="1"
     inkscape:cx="303.17712"
     inkscape:cy="137.11479"
     inkscape:document-units="px"
     inkscape:current-layer="layer1"
     showgrid="false"
     inkscape:window-width="1920"
     inkscape:window-height="1024"
     inkscape:window-x="-4"
     inkscape:window-y="-4"
     inkscape:window-maximized="1"
     inkscape:snap-bbox="true"
     inkscape:bbox-paths="true"
     inkscape:bbox-nodes="true"
     inkscape:snap-bbox-edge-midpoints="true"
     inkscape:snap-bbox-midpoints="true"
     inkscape:object-paths="true"
     inkscape:snap-intersection-paths="true"
     inkscape:object-nodes="true"
     inkscape:snap-smooth-nodes="true"
     inkscape:snap-midpoints="true"
     inkscape:snap-object-midpoints="true"
     showguides="true"
     inkscape:guide-bbox="true" />
  <metadata
     id="metadata7">
    <rdf:RDF>
      <cc:Work
         rdf:about="">
        <dc:format>image/svg+xml</dc:format>
        <dc:type
           rdf:resource="http://purl.org/dc/dcmitype/StillImage" />
        <dc:title>8.24 Работает эвакуатор</dc:title>
        <cc:license
           rdf:resource="http://creativecommons.org/licenses/by-sa/3.0/" />
        <dc:description>ГОСТ Р 52290-2004
Размеры и пропорции по типоразмеру I</dc:description>
      </cc:Work>
      <cc:License
         rdf:about="http://creativecommons.org/licenses/by-sa/3.0/">
        <cc:permits
           rdf:resource="http://creativecommons.org/ns#Reproduction" />
        <cc:permits
           rdf:resource="http://creativecommons.org/ns#Distribution" />
        <cc:requires
           rdf:resource="http://creativecommons.org/ns#Notice" />
        <cc:requires
           rdf:resource="http://creativecommons.org/ns#Attribution" />
        <cc:permits
           rdf:resource="http://creativecommons.org/ns#DerivativeWorks" />
        <cc:requires
           rdf:resource="http://creativecommons.org/ns#ShareAlike" />
      </cc:License>
    </rdf:RDF>
  </metadata>
  <g
     inkscape:label="Layer 1"
     inkscape:groupmode="layer"
     id="layer1"
     transform="translate(0,-752.36218)">
    <rect
       y="752.36218"
       x="0"
       height="300"
       width="600"
       id="rect5622"
       style="opacity:1;color:#000000;fill:#000000;fill-opacity:1;fill-rule:nonzero;stroke:none;stroke-width:3.54299997999999980;marker:none;visibility:visible;display:inline;overflow:visible;enable-background:accumulate"
       rx="45"
       ry="45" />
    <path
       style="color:#000000;fill:#ffffff;fill-opacity:1;fill-rule:nonzero;stroke:none;stroke-width:3.54299997999999980;marker:none;visibility:visible;display:inline;overflow:visible;enable-background:accumulate;opacity:1"
       d="M 45 10 C 25.61 10 10 25.61 10 45 L 10 132 L 37.84375 132 L 146 59.03125 L 146 45 C 146 41.13401 149.13401 38 153 38 C 156.86599 38 160 41.13401 160 45 L 160 67.09375 L 254.15625 161.25 L 305 161.25 C 308.31371 161.25 311 163.93629 311 167.25 C 311 170.56371 308.31371 173.25 305 173.25 L 249.1875 173.25 L 160 84.0625 L 160 132 L 176 132 L 176 198 L 155.5 198 C 155.5 179.22232 140.27768 164 121.5 164 C 102.72232 164 87.5 179.22232 87.5 198 L 10 198 L 10 228 L 590 228 L 590 45 C 590 25.61 574.39 10 555 10 L 45 10 z M 146 71.09375 L 55.71875 132 L 146 132 L 146 71.09375 z M 10 235.5 L 10 255 C 10 274.39 25.61 290 45 290 L 555 290 C 574.39 290 590 274.39 590 255 L 590 235.5 L 10 235.5 z "
       transform="translate(0,752.36218)"
       id="rect9537" />
    <path
       inkscape:connector-curvature="0"
       style="opacity:1;color:#000000;fill:#000000;fill-opacity:1;fill-rule:nonzero;stroke:none;stroke-width:1px;marker:none;visibility:visible;display:inline;overflow:visible;enable-background:accumulate"
       d="m 121.5,928.36219 c -14.3594,0 -26,11.6406 -26,26 0,14.35942 11.6406,26.00002 26,26.00002 14.3594,0 26,-11.6406 26,-26.00002 0,-14.3594 -11.6406,-26 -26,-26 z m 0,10.5 c 8.56041,0 15.5,6.93959 15.5,15.5 0,8.56042 -6.93959,15.50002 -15.5,15.50002 -8.56041,0 -15.5,-6.9396 -15.5,-15.50002 0,-8.56041 6.93959,-15.5 15.5,-15.5 z"
       id="path12078" />
    <path
       inkscape:connector-curvature="0"
       id="path12142"
       d="m 406.21875,805.04968 c -1.74601,0.088 -3.46322,0.55041 -5.0625,1.34375 L 342.25,835.61218 c -2.64237,1.31077 -5.65284,1.67549 -8.53125,1.03125 L 266.0625,821.48718 c -6.34648,-1.42046 -12.75417,2.12391 -14.9375,8.25 l -8.21875,23 c -1.83238,5.43969 0.90754,11.33656 6.1875,13.5 8.49531,-13.43085 25.58479,-19.50238 41.125,-13.65625 17.77576,6.68713 26.81044,26.46806 20.15625,44.15625 l 114.46875,43.0625 c 6.65419,-17.68819 26.47425,-26.62463 44.25,-19.9375 16.288,6.12745 25.20689,23.2279 21.46875,39.65625 l 6.75,0.65625 c 4.12512,0.40564 8.10834,-1.56394 10.28125,-5.09375 l 18.5,-30.0625 c 2.05685,-3.34126 2.49073,-7.43531 1.15625,-11.125 l -24.96875,-69.03125 c -1.28098,-3.54175 -4.06866,-6.33013 -7.59375,-7.65625 l -83.28125,-31.34375 c -1.67092,-0.62859 -3.44149,-0.90046 -5.1875,-0.8125 z m -0.34375,10.3125 c 1.10274,-0.0555 2.22594,0.13425 3.28125,0.53125 l 82.65625,31.09375 c 4.6794,1.76036 7.38167,6.66533 6.375,11.5625 l -5.375,26.1875 c -1.13027,5.49842 -6.50158,9.03651 -12,7.90625 -0.52155,-0.10721 -1.03289,-0.25002 -1.53125,-0.4375 l -113.1875,-42.5625 c -4.20313,-1.58119 -6.33119,-6.29687 -4.75,-10.5 0.72475,-1.92652 2.15608,-3.49156 4,-4.40625 l 37.34375,-18.53125 c 1.01008,-0.50105 2.08476,-0.7882 3.1875,-0.84375 z"
       style="opacity:1;color:#000000;fill:#000000;fill-opacity:1;stroke:none;stroke-width:1px;marker:none;visibility:visible;display:inline;overflow:visible;enable-background:accumulate" />
    <path
       id="path12146"
       d="m 288.20501,857.9783 c -14.71092,-5.53417 -31.12289,1.90507 -36.65706,16.61604 -5.53418,14.71096 1.90511,31.1229 16.61604,36.65706 14.71099,5.53419 31.1229,-1.90507 36.65708,-16.61604 5.53417,-14.71096 -1.90507,-31.12288 -16.61606,-36.65706 z m -4.05592,10.78146 c 8.75651,3.29414 13.18465,13.06315 9.8905,21.81968 -3.29415,8.75652 -13.06317,13.18465 -21.81968,9.8905 -8.75651,-3.29415 -13.18465,-13.06316 -9.8905,-21.81968 3.29415,-8.75653 13.06317,-13.18465 21.81968,-9.8905 z"
       style="opacity:1;color:#000000;fill:#000000;fill-opacity:1;fill-rule:nonzero;stroke:none;stroke-width:1px;marker:none;visibility:visible;display:inline;overflow:visible;enable-background:accumulate"
       inkscape:connector-curvature="0" />
    <path
       inkscape:connector-curvature="0"
       style="opacity:1;color:#000000;fill:#000000;fill-opacity:1;fill-rule:nonzero;stroke:none;stroke-width:1px;marker:none;visibility:visible;display:inline;overflow:visible;enable-background:accumulate"
       d="m 467.05045,925.25888 c -14.71096,-5.53418 -31.12289,1.90508 -36.65706,16.61604 -5.53418,14.71096 1.90508,31.12289 16.61604,36.65707 14.71096,5.53417 31.12289,-1.90508 36.65706,-16.61604 5.53418,-14.71097 -1.90508,-31.12289 -16.61604,-36.65707 z m -4.05592,10.78146 c 8.75653,3.29416 13.18465,13.06316 9.8905,21.81968 -3.29415,8.75653 -13.06315,13.18466 -21.81968,9.8905 -8.75653,-3.29415 -13.18465,-13.06315 -9.8905,-21.81968 3.29415,-8.75652 13.06315,-13.18465 21.81968,-9.8905 z"
       id="path12148" />
  </g>
</svg>
