<?xml version="1.0" encoding="UTF-8" standalone="no"?>
<!-- Created with Inkscape (http://www.inkscape.org/) -->

<svg
   xmlns:dc="http://purl.org/dc/elements/1.1/"
   xmlns:cc="http://creativecommons.org/ns#"
   xmlns:rdf="http://www.w3.org/1999/02/22-rdf-syntax-ns#"
   xmlns:svg="http://www.w3.org/2000/svg"
   xmlns="http://www.w3.org/2000/svg"
   xmlns:sodipodi="http://sodipodi.sourceforge.net/DTD/sodipodi-0.dtd"
   xmlns:inkscape="http://www.inkscape.org/namespaces/inkscape"
   width="600"
   height="300"
   id="svg2"
   version="1.1"
   inkscape:version="0.48.4 r9939"
   sodipodi:docname="8.1.3.svg">
  <title
     id="title3006">8.1.4 Расстояние до объекта</title>
  <defs
     id="defs4" />
  <sodipodi:namedview
     id="base"
     pagecolor="#ffffff"
     bordercolor="#666666"
     borderopacity="1.0"
     inkscape:pageopacity="0.0"
     inkscape:pageshadow="2"
     inkscape:zoom="1"
     inkscape:cx="163.35709"
     inkscape:cy="162.65966"
     inkscape:document-units="px"
     inkscape:current-layer="layer1"
     showgrid="false"
     inkscape:window-width="1920"
     inkscape:window-height="1024"
     inkscape:window-x="-4"
     inkscape:window-y="-4"
     inkscape:window-maximized="1"
     inkscape:snap-bbox="true"
     inkscape:bbox-paths="true"
     inkscape:bbox-nodes="true"
     inkscape:snap-bbox-edge-midpoints="true"
     inkscape:snap-bbox-midpoints="true"
     inkscape:object-paths="true"
     inkscape:snap-intersection-paths="true"
     inkscape:object-nodes="true"
     inkscape:snap-smooth-nodes="true"
     inkscape:snap-midpoints="true"
     inkscape:snap-object-midpoints="true"
     showguides="true"
     inkscape:guide-bbox="true" />
  <metadata
     id="metadata7">
    <rdf:RDF>
      <cc:Work
         rdf:about="">
        <dc:format>image/svg+xml</dc:format>
        <dc:type
           rdf:resource="http://purl.org/dc/dcmitype/StillImage" />
        <dc:title>8.1.4 Расстояние до объекта</dc:title>
        <cc:license
           rdf:resource="http://creativecommons.org/licenses/by-sa/3.0/" />
        <dc:description>ГОСТ Р 52290-2004
Размеры и пропорции по типоразмеру I</dc:description>
      </cc:Work>
      <cc:License
         rdf:about="http://creativecommons.org/licenses/by-sa/3.0/">
        <cc:permits
           rdf:resource="http://creativecommons.org/ns#Reproduction" />
        <cc:permits
           rdf:resource="http://creativecommons.org/ns#Distribution" />
        <cc:requires
           rdf:resource="http://creativecommons.org/ns#Notice" />
        <cc:requires
           rdf:resource="http://creativecommons.org/ns#Attribution" />
        <cc:permits
           rdf:resource="http://creativecommons.org/ns#DerivativeWorks" />
        <cc:requires
           rdf:resource="http://creativecommons.org/ns#ShareAlike" />
      </cc:License>
    </rdf:RDF>
  </metadata>
  <g
     inkscape:label="Layer 1"
     inkscape:groupmode="layer"
     id="layer1"
     transform="translate(0,-752.36218)">
    <rect
       y="752.36218"
       x="0"
       height="300"
       width="600"
       id="rect5622"
       style="opacity:1;color:#000000;fill:#000000;fill-opacity:1;fill-rule:nonzero;stroke:none;stroke-width:3.54299997999999980;marker:none;visibility:visible;display:inline;overflow:visible;enable-background:accumulate"
       rx="45"
       ry="45" />
    <rect
       y="762.36212"
       x="10"
       height="280"
       width="580"
       id="rect9537"
       style="color:#000000;fill:#ffffff;fill-opacity:1;fill-rule:nonzero;stroke:none;stroke-width:3.54299997999999980;marker:none;visibility:visible;display:inline;overflow:visible;enable-background:accumulate;opacity:1"
       rx="35"
       ry="35" />
    <path
       id="path10842"
       style="opacity:1;color:#000000;fill:#000000;fill-opacity:1;fill-rule:nonzero;stroke:none;stroke-width:1px;marker:none;visibility:visible;display:inline;overflow:visible;enable-background:accumulate"
       d="m 131.25,883.61218 0,-37.5 -97.50004,56.25 97.50004,56.25 0,-37.5 75,0 0,-37.5 z"
       inkscape:connector-curvature="0"
       sodipodi:nodetypes="cccccccc" />
    <g
       style="font-size:175.78350829999999000px;font-style:normal;font-variant:normal;font-weight:normal;font-stretch:normal;line-height:125%;letter-spacing:-7.40625000000000000px;word-spacing:0px;opacity:1;fill:#000000;fill-opacity:1;stroke:none;font-family:Arial;-inkscape-font-specification:Arial"
       id="text10846">
      <path
         d="m 229.6875,859.29578 6.50391,14.58984 c 3.36912,-2.96623 6.65036,-5.11955 9.84375,-6.45996 3.19332,-1.34025 7.17769,-1.99943 11.95312,-1.97754 3.2043,0.077 6.02412,1.15365 8.45947,3.22998 2.43525,2.0765 3.71699,4.69124 3.84522,7.84424 -0.15386,3.84528 -2.30718,7.53669 -6.45996,11.07422 -4.15288,3.53766 -9.38237,5.99859 -15.68848,7.38281 l 0,13.53516 c 1.24875,-0.58956 2.61837,-0.94845 4.10889,-1.07666 1.49044,-0.12813 2.9919,-0.1794 4.50439,-0.15381 7.72334,0.33696 12.62324,2.21196 14.6997,5.625 2.07636,3.41312 2.97724,6.3428 2.70264,8.78906 -0.26372,5.67996 -2.41704,9.83278 -6.45996,12.4585 -4.04301,2.62574 -8.92093,3.92213 -14.63378,3.88916 -4.19681,0.0256 -8.59134,-0.37719 -13.1836,-1.2085 -4.5923,-0.83128 -8.45948,-2.24485 -11.60156,-4.24072 l 2.10937,17.22656 c 0.43212,0.17578 3.3911,0.87891 8.87695,2.10938 5.48582,1.23046 10.90574,1.93359 16.25977,2.10937 11.73701,-0.41016 20.69452,-3.89648 26.87256,-10.45899 6.17791,-6.56248 9.2907,-13.74021 9.33838,-21.5332 -0.18128,-5.3168 -1.79152,-9.72218 -4.83073,-13.21615 -3.03934,-3.49387 -6.42042,-6.16748 -10.14323,-8.02083 -3.72293,-1.85324 -6.70036,-2.97737 -8.93229,-3.37239 5.1269,-0.71772 9.63861,-3.2812 13.53516,-7.69043 3.89641,-4.40912 5.94719,-10.04876 6.15234,-16.91895 -0.32966,-6.85172 -3.1861,-12.26431 -8.56934,-16.23779 -5.38335,-3.97329 -11.31597,-6.0021 -17.79785,-6.08642 -5.23319,0.1356 -10.93875,1.13901 -17.1167,3.01025 -6.178,1.87144 -10.9607,3.7977 -14.34814,5.77881 z"
         style="fill:#000000;font-family:Russian Road Sign;-inkscape-font-specification:Russian Road Sign"
         id="path10940" />
      <path
         d="m 341.3357,851.91297 c -9.99759,0.25644 -17.99563,4.97323 -23.99414,14.15038 -5.99855,9.17733 -9.07472,21.27692 -9.22852,36.29883 0.1538,15.02201 3.22997,27.12161 9.22852,36.29883 5.99851,9.17725 13.99655,13.89404 23.99414,14.15039 9.9975,-0.25635 17.99554,-4.97314 23.99414,-14.15039 5.99846,-9.17723 9.07463,-21.27682 9.22852,-36.29883 -0.15389,-14.32977 -3.23006,-26.23161 -9.22852,-35.70556 -5.9986,-9.47379 -13.99664,-14.38833 -23.99414,-14.74365 z m 0,15.29296 c 4.81929,-0.0731 8.67182,2.71005 11.55762,8.34961 2.88568,5.63972 4.36517,14.57526 4.43847,26.80664 -0.0733,12.23149 -1.55279,21.16702 -4.43848,26.80664 -2.88579,5.63966 -6.73832,8.42286 -11.55761,8.34961 -4.81938,0.0733 -8.67191,-2.70994 -11.55762,-8.34961 -2.88577,-5.63962 -4.36526,-14.57516 -4.43847,-26.80664 0.0732,-12.23138 1.5527,-21.16692 4.43847,-26.80664 2.88571,-5.63957 6.73825,-8.42277 11.55762,-8.34961 z"
         style="fill:#000000;font-family:Russian Road Sign;-inkscape-font-specification:Russian Road Sign"
         id="path10942" />
      <path
         d="m 422.50786,851.91297 c -9.9976,0.25644 -17.99564,4.97323 -23.99415,14.15038 -5.99855,9.17733 -9.07471,21.27692 -9.22851,36.29883 0.1538,15.02201 3.22996,27.12161 9.22851,36.29883 5.99851,9.17725 13.99655,13.89404 23.99415,14.15039 9.9975,-0.25635 17.99554,-4.97314 23.99413,-14.15039 5.99847,-9.17723 9.07464,-21.27682 9.22852,-36.29883 -0.15388,-14.32977 -3.23005,-26.23161 -9.22852,-35.70556 -5.99859,-9.47379 -13.99663,-14.38833 -23.99413,-14.74365 z m 0,15.29296 c 4.81928,-0.0731 8.67182,2.71005 11.55761,8.34961 2.88569,5.63972 4.36518,14.57526 4.43848,26.80664 -0.0733,12.23149 -1.5528,21.16702 -4.43848,26.80664 -2.88579,5.63966 -6.73833,8.42286 -11.55761,8.34961 -4.81938,0.0733 -8.67192,-2.70994 -11.55762,-8.34961 -2.88577,-5.63962 -4.36526,-14.57516 -4.43848,-26.80664 0.0732,-12.23138 1.55271,-21.16692 4.43848,-26.80664 2.88571,-5.63957 6.73824,-8.42277 11.55762,-8.34961 z"
         style="fill:#000000;font-family:Russian Road Sign;-inkscape-font-specification:Russian Road Sign"
         id="path10944" />
      <path
         d="m 481.63705,951.58093 14.76563,0 3.6914,-47.98828 19.6875,39.375 19.6875,-39.375 3.69141,47.98828 14.76562,0 -6.15234,-68.90625 -14.76562,0 -17.22657,34.45313 -17.22656,-34.45313 -14.76562,0 z"
         style="fill:#000000;font-family:Russian Road Sign;-inkscape-font-specification:Russian Road Sign"
         id="path10946" />
    </g>
  </g>
</svg>
