<?xml version="1.0" encoding="UTF-8" standalone="no"?>
<!-- Created with Inkscape (http://www.inkscape.org/) -->

<svg
   xmlns:dc="http://purl.org/dc/elements/1.1/"
   xmlns:cc="http://creativecommons.org/ns#"
   xmlns:rdf="http://www.w3.org/1999/02/22-rdf-syntax-ns#"
   xmlns:svg="http://www.w3.org/2000/svg"
   xmlns="http://www.w3.org/2000/svg"
   xmlns:sodipodi="http://sodipodi.sourceforge.net/DTD/sodipodi-0.dtd"
   xmlns:inkscape="http://www.inkscape.org/namespaces/inkscape"
   width="600"
   height="300"
   id="svg2"
   version="1.1"
   inkscape:version="0.48.4 r9939"
   sodipodi:docname="8.6.2.svg">
  <title
     id="title3006">8.6.3 Способ постановки транспортного средства на стоянку</title>
  <defs
     id="defs4" />
  <sodipodi:namedview
     id="base"
     pagecolor="#ffffff"
     bordercolor="#666666"
     borderopacity="1.0"
     inkscape:pageopacity="0.0"
     inkscape:pageshadow="2"
     inkscape:zoom="1"
     inkscape:cx="291.54535"
     inkscape:cy="165.44176"
     inkscape:document-units="px"
     inkscape:current-layer="layer1"
     showgrid="false"
     inkscape:window-width="1920"
     inkscape:window-height="1024"
     inkscape:window-x="-4"
     inkscape:window-y="-4"
     inkscape:window-maximized="1"
     inkscape:snap-bbox="true"
     inkscape:bbox-paths="true"
     inkscape:bbox-nodes="true"
     inkscape:snap-bbox-edge-midpoints="true"
     inkscape:snap-bbox-midpoints="true"
     inkscape:object-paths="true"
     inkscape:snap-intersection-paths="true"
     inkscape:object-nodes="true"
     inkscape:snap-smooth-nodes="true"
     inkscape:snap-midpoints="true"
     inkscape:snap-object-midpoints="true" />
  <metadata
     id="metadata7">
    <rdf:RDF>
      <cc:Work
         rdf:about="">
        <dc:format>image/svg+xml</dc:format>
        <dc:type
           rdf:resource="http://purl.org/dc/dcmitype/StillImage" />
        <dc:title>8.6.3 Способ постановки транспортного средства на стоянку</dc:title>
        <cc:license
           rdf:resource="http://creativecommons.org/licenses/by-sa/3.0/" />
        <dc:description>ГОСТ Р 52290-2004
Размеры и пропорции по типоразмеру I</dc:description>
      </cc:Work>
      <cc:License
         rdf:about="http://creativecommons.org/licenses/by-sa/3.0/">
        <cc:permits
           rdf:resource="http://creativecommons.org/ns#Reproduction" />
        <cc:permits
           rdf:resource="http://creativecommons.org/ns#Distribution" />
        <cc:requires
           rdf:resource="http://creativecommons.org/ns#Notice" />
        <cc:requires
           rdf:resource="http://creativecommons.org/ns#Attribution" />
        <cc:permits
           rdf:resource="http://creativecommons.org/ns#DerivativeWorks" />
        <cc:requires
           rdf:resource="http://creativecommons.org/ns#ShareAlike" />
      </cc:License>
    </rdf:RDF>
  </metadata>
  <g
     inkscape:label="Layer 1"
     inkscape:groupmode="layer"
     id="layer1"
     transform="translate(0,-752.36218)">
    <rect
       y="752.36218"
       x="0"
       height="300"
       width="600"
       id="rect5622"
       style="opacity:1;color:#000000;fill:#000000;fill-opacity:1;fill-rule:nonzero;stroke:none;stroke-width:3.54299997999999980;marker:none;visibility:visible;display:inline;overflow:visible;enable-background:accumulate"
       rx="45"
       ry="45" />
    <path
       style="color:#000000;fill:#ffffff;fill-opacity:1;fill-rule:nonzero;stroke:none;stroke-width:3.54299997999999980;marker:none;visibility:visible;display:inline;overflow:visible;enable-background:accumulate;opacity:1"
       d="M 45,10 C 25.61,10 10,25.61 10,45 l 0,208.125 290,0 0,-28.125 290,0 0,-180 C 590,25.61 574.39,10 555,10 z"
       transform="translate(0,752.36218)"
       id="rect9537"
       inkscape:connector-curvature="0"
       sodipodi:nodetypes="ssccccsss" />
    <path
       style="opacity:1;color:#000000;fill:#000000;fill-opacity:1;fill-rule:nonzero;stroke:none;stroke-width:3.54299997999999980;marker:none;visibility:visible;display:inline;overflow:visible;enable-background:accumulate"
       d="M 359.21875 45 C 354.85601 45 350.20347 48.3131 348.78125 52.4375 L 343.5 67.75 L 332.5625 99.4375 C 332.5525 99.4665 332.5721 99.471 332.5625 99.5 L 330 106.875 C 323.7675 106.875 318.75 111.8925 318.75 118.125 L 318.75 163.125 C 318.75 169.3575 323.7675 174.375 330 174.375 L 498.75 174.375 C 504.9825 174.375 510 169.3575 510 163.125 L 510 118.125 C 510 111.8925 504.9825 106.875 498.75 106.875 L 496.1875 99.5 C 496.1775 99.471 496.1979 99.43525 496.1875 99.40625 L 485.25 67.75 L 479.96875 52.4375 C 478.54636 48.3131 473.894 45 469.53125 45 L 414.375 45 L 359.21875 45 z M 362.65625 56.25 L 414.375 56.25 L 466.09375 56.25 C 468.27501 56.25 470.63264 57.90645 471.34375 59.96875 L 487.5 106.875 L 414.375 106.875 L 341.25 106.875 L 357.4375 59.96875 C 358.14862 57.90645 360.47499 56.25 362.65625 56.25 z "
       transform="translate(0,752.36218)"
       id="path13994" />
    <path
       inkscape:connector-curvature="0"
       style="opacity:1;color:#000000;fill:#000000;fill-opacity:1;fill-rule:nonzero;stroke:none;stroke-width:1px;marker:none;visibility:visible;display:inline;overflow:visible;enable-background:accumulate"
       d="m 330.00002,932.36218 0,22.5 c 0,9.3198 7.55522,16.875 16.875,16.875 9.31977,0 16.87499,-7.5552 16.87499,-16.875 l 0,-22.5 -33.74999,0 z"
       id="path13996" />
    <path
       id="path14000"
       d="m 465.00002,932.36218 0,22.5 c 0,9.3198 7.55522,16.875 16.875,16.875 9.31978,0 16.875,-7.5552 16.875,-16.875 l 0,-22.5 -33.75,0 z"
       style="opacity:1;color:#000000;fill:#000000;fill-opacity:1;fill-rule:nonzero;stroke:none;stroke-width:1px;marker:none;visibility:visible;display:inline;overflow:visible;enable-background:accumulate"
       inkscape:connector-curvature="0" />
  </g>
</svg>
